<svg width="428" height="253" viewBox="0 0 428 253" fill="none" xmlns="http://www.w3.org/2000/svg">
<g clip-path="url(#clip0_258_663)">
<path d="M428.5 0.221436H-0.5V172.221C-0.5 216.404 35.3172 252.221 79.5 252.221H348.5C392.683 252.221 428.5 216.404 428.5 172.221V0.221436Z" fill="url(#paint0_linear_258_663)"/>
<path d="M-127.547 439.244L-118.202 426.357C-108.857 413.471 -90.167 387.699 -71.0486 363.089C-51.9116 338.53 -32.3649 315.083 -12.6506 292.091C7.06377 269.098 26.9457 246.561 50.9436 235.194C74.9414 223.827 103.055 223.631 133.013 228.439C162.97 233.246 194.772 243.058 226.498 252.668C258.225 262.277 289.877 271.684 320.71 278.868C351.543 286.051 381.519 290.909 401.047 267.411C420.576 243.914 429.656 192.06 452.406 177.307C475.156 162.553 511.613 185.001 531.886 163.525C552.159 142.05 556.248 76.6497 558.311 44.0003L560.355 11.3004L654.406 266.554L641.988 271.101C629.571 275.647 604.735 284.739 579.899 293.831C555.063 302.924 530.227 312.016 505.391 321.108C480.555 330.201 455.719 339.293 430.883 348.385C406.047 357.477 381.211 366.57 356.375 375.662C331.539 384.754 306.703 393.847 281.867 402.939C257.032 412.031 232.196 421.123 207.36 430.216C182.524 439.308 157.688 448.4 132.852 457.493C108.016 466.585 83.18 475.677 58.3441 484.77C33.5082 493.862 8.67226 502.954 -16.1637 512.046C-40.9996 521.139 -65.8355 530.231 -78.2535 534.777L-90.6715 539.323L-127.547 439.244Z" fill="#22FFFF"/>
<path d="M-181.538 353.699L-172.809 339.139C-164.1 324.529 -146.643 295.409 -122.832 283.535C-99.021 271.661 -68.8556 277.033 -40.9636 276.235C-13.0902 275.386 12.4911 268.317 43.8119 276.825C75.1513 285.383 112.212 309.467 135.184 295.317C158.156 281.168 167.041 228.784 184.945 200.878C202.849 172.972 229.809 169.645 256.341 165.155C282.891 160.716 309.031 155.164 335.6 150.775C362.188 146.436 389.186 143.211 418.401 146.003C447.616 148.796 479.048 157.607 509.027 162.473C539.025 167.39 567.588 168.412 581.869 168.924L596.151 169.435L612.549 213.94L600.131 218.486C587.713 223.032 562.877 232.125 538.041 241.217C513.206 250.309 488.37 259.402 463.534 268.494C438.698 277.586 413.862 286.679 389.026 295.771C364.19 304.863 339.354 313.955 314.518 323.048C289.682 332.14 264.846 341.232 240.01 350.325C215.174 359.417 190.338 368.509 165.503 377.601C140.667 386.694 115.831 395.786 90.9947 404.878C66.1588 413.971 41.3229 423.063 16.4869 432.155C-8.349 441.248 -33.1849 450.34 -58.0209 459.432C-82.8568 468.524 -107.693 477.617 -120.111 482.163L-132.529 486.709L-181.538 353.699Z" fill="#00CACB"/>
<path d="M-180.752 355.831L-163.68 363.917C-146.607 372.004 -112.461 388.178 -84.4975 387.575C-56.5149 387.023 -34.7325 369.643 -13.2108 351.556C8.31094 333.469 29.5348 314.574 56.9215 312.404C84.3082 310.235 117.821 324.691 140.795 310.545C163.769 296.4 176.204 253.653 199.513 240.417C222.823 227.181 257.043 243.557 282.623 236.486C308.204 229.415 325.145 198.897 350.168 190.31C375.19 181.723 408.292 195.067 432.03 182.993C455.786 170.97 470.195 133.58 490.786 112.966C511.358 92.3021 538.13 88.4652 551.498 86.4962L564.884 84.5777L612.549 213.94L600.131 218.486C587.713 223.032 562.877 232.125 538.041 241.217C513.205 250.309 488.369 259.401 463.533 268.494C438.698 277.586 413.862 286.678 389.026 295.771C364.19 304.863 339.354 313.955 314.518 323.047C289.682 332.14 264.846 341.232 240.01 350.324C215.174 359.417 190.338 368.509 165.502 377.601C140.666 386.694 115.83 395.786 90.9945 404.878C66.1586 413.97 41.3226 423.063 16.4867 432.155C-8.34924 441.247 -33.1852 450.34 -58.0211 459.432C-82.857 468.524 -107.693 477.616 -120.111 482.163L-132.529 486.709L-180.752 355.831Z" fill="#00989A"/>
<path d="M-144.964 452.966L-136.791 436.899C-128.637 420.781 -112.291 388.647 -91.7745 367.832C-71.258 347.017 -46.5338 337.621 -21.2696 329.691C3.99453 321.761 29.8359 315.397 60.6482 322.525C91.4793 329.703 127.3 350.424 154.035 346.486C180.751 342.497 198.401 313.9 218.321 291.468C238.261 269.086 260.49 252.92 287.597 249.992C314.686 247.014 346.671 257.325 372.401 250.658C398.131 243.991 417.642 220.447 440.523 206.05C463.404 191.652 489.655 186.4 512.517 171.951C535.361 157.452 554.797 133.706 564.516 121.833L574.234 109.96L620.78 236.285L608.362 240.831C595.944 245.377 571.108 254.469 546.272 263.562C521.436 272.654 496.6 281.746 471.764 290.839C446.928 299.931 422.092 309.023 397.257 318.116C372.421 327.208 347.585 336.3 322.749 345.392C297.913 354.485 273.077 363.577 248.241 372.669C223.405 381.762 198.569 390.854 173.733 399.946C148.897 409.038 124.061 418.131 99.2254 427.223C74.3894 436.315 49.5535 445.408 24.7176 454.5C-0.118364 463.592 -24.9543 472.685 -49.7902 481.777C-74.6262 490.869 -99.4621 499.961 -111.88 504.508L-124.298 509.054L-144.964 452.966Z" fill="#00686B"/>
<path d="M-162.82 404.493L-148.239 405.818C-133.636 407.203 -104.474 409.853 -79.8584 400.162C-55.2432 390.47 -35.1752 368.438 -12.9219 352.336C9.33133 336.234 33.8141 326.184 61.321 324.34C88.8499 322.557 119.425 329.041 147.175 327.856C174.902 326.612 199.827 317.759 225.899 312.022C251.993 306.345 279.257 303.842 301.289 287.142C323.344 270.501 340.145 239.602 362.553 223.919C384.961 208.237 412.975 207.772 442.182 210.541C471.388 213.311 501.831 219.436 528.102 214.237C554.373 209.039 576.471 192.518 587.543 184.318L598.592 176.057L614.485 219.191L602.067 223.737C589.65 228.284 564.814 237.376 539.978 246.468C515.142 255.56 490.306 264.653 465.47 273.745C440.634 282.837 415.798 291.93 390.962 301.022C366.126 310.114 341.29 319.207 316.454 328.299C291.618 337.391 266.782 346.483 241.947 355.576C217.111 364.668 192.275 373.76 167.439 382.853C142.603 391.945 117.767 401.037 92.9309 410.129C68.095 419.222 43.2591 428.314 18.4231 437.406C-6.41279 446.499 -31.2487 455.591 -56.0846 464.683C-80.9206 473.776 -105.757 482.868 -118.174 487.414L-130.592 491.96L-162.82 404.493Z" fill="#003A40"/>
<path d="M42.7776 31.0618V35.0102H35.9425L35.9757 54.2214H31.43V35.0434L24.6613 35.0102V31.0618H42.7776ZM61.6632 46.8555V54.2214L56.7526 54.2546L56.6862 45.0306C56.6862 41.3808 55.3922 40.2858 53.4678 40.5181C52.3065 40.6508 51.0124 41.3144 50.4816 42.9402C50.2161 43.8029 50.2493 44.6324 50.2493 46.9218V54.2546L45.405 54.2214V31.0618H50.1166V39.7881C50.1166 39.7881 51.3442 37.1006 55.2595 37.1006C58.1461 37.1006 60.5683 38.3282 61.3314 41.613C61.5637 42.708 61.6632 44.8647 61.6632 46.8555ZM64.5618 54.2546V37.4655H69.3397L69.2402 54.2546H64.5618ZM69.3729 35.9061H64.595V31.095H69.3729V35.9061ZM88.6837 46.8887L88.7168 54.2546H83.8062L83.7398 45.0969C83.773 41.4803 82.479 40.3854 80.5546 40.6176C79.3933 40.7504 78.0992 41.3808 77.5684 43.0066C77.3029 43.8361 77.3693 44.6988 77.3693 46.955V54.2546L72.5582 54.2214V37.5319L77.2034 37.4987L77.2366 39.8877C77.2366 39.8877 78.431 37.2001 82.3463 37.2001C85.2329 37.2001 87.6219 38.4278 88.385 41.6794C88.6173 42.7743 88.6837 44.8979 88.6837 46.8887ZM108.342 54.2546H101.905L96.3641 46.9218L96.3972 54.2214H91.553V31.1282L96.3972 31.095L96.3641 43.272L101.374 37.4655H107.579L100.279 45.0969L108.342 54.2546ZM128.023 37.2001C131.042 36.9678 136.085 37.9301 136.085 45.8269C136.085 51.0362 133.531 53.4583 131.108 54.321C130.246 54.6196 127.26 55.0178 125.169 53.591C124.174 52.9274 123.61 52.0647 123.61 52.0647V54.2878H123.411H118.998V31.1945H123.61C123.61 32.1899 123.61 39.7881 123.61 39.7881C123.61 39.7881 125.302 37.4324 128.023 37.2001ZM126.762 50.6712C129.947 51.368 131.142 48.3154 131.142 45.5946C131.142 42.4425 129.483 40.3522 126.629 40.8499C124.672 41.1817 123.742 43.2057 123.742 45.6278C123.742 48.3486 124.34 50.1735 126.762 50.6712ZM154.492 47.4195L150.046 47.3864H142.78C142.879 49.4103 144.505 50.9034 146.263 50.9034C149.051 50.9034 149.98 48.979 149.98 48.979L154.028 50.8371C154.028 50.8371 152.302 54.686 146.462 54.6528C142.879 54.6196 140.457 53.1597 138.931 50.6048C137.603 48.3486 137.305 43.6038 139.13 40.8831C140.921 38.2619 143.41 37.2001 146.23 37.2001C149.581 37.2001 151.639 38.3614 153.132 40.8499C154.592 43.272 154.492 47.4195 154.492 47.4195ZM142.813 44.0684H149.747C149.615 42.343 148.586 40.684 146.297 40.684C144.239 40.7172 143.012 42.2766 142.813 44.0684ZM172.209 37.3992L165.34 55.4159C162.653 61.9524 156.315 61.3551 156.315 61.3551L156.714 56.3781C156.714 56.3781 159.467 57.1081 161.16 53.9228L154.192 37.3992L159.567 37.4324L163.449 48.3818L166.966 37.4324L172.209 37.3992ZM181.061 37.0342C186.835 37.0342 190.086 41.0158 190.086 45.8601C190.053 49.6094 188.527 54.5201 181.327 54.6528C176.881 54.7523 172.733 51.932 172.6 46.026C172.434 39.5559 177.544 37.0342 181.061 37.0342ZM181.061 50.8703C183.782 50.8703 185.043 49.2444 185.043 45.7274C185.01 42.1439 183.351 40.2858 181.028 40.3522C178.805 40.4186 177.511 42.4425 177.511 45.2297C177.544 48.1163 178.639 50.8703 181.061 50.8703ZM208.41 46.8887L208.444 54.2546H203.533L203.467 45.0969C203.5 41.4803 202.206 40.3854 200.281 40.6176C199.12 40.7504 197.826 41.3808 197.295 43.0066C197.03 43.8361 197.096 44.6988 197.096 46.955V54.2546L192.285 54.2214V37.5319L196.93 37.4987L196.963 39.8877C196.963 39.8877 198.158 37.2001 202.073 37.2001C204.96 37.2001 207.349 38.4278 208.112 41.6794C208.344 42.7743 208.41 44.8979 208.41 46.8887ZM210.417 45.8269C210.417 37.9301 215.46 36.9678 218.513 37.2001C221.234 37.4324 222.926 39.7881 222.926 39.7881C222.926 39.7881 222.926 32.1899 222.926 31.1613H227.571V54.321H223.125L222.926 54.3542V52.1311C222.926 52.1311 222.362 52.9606 221.366 53.6574C219.243 55.0841 216.257 54.6528 215.394 54.3542C212.972 53.4915 210.417 51.1025 210.417 45.8269ZM215.361 45.5946C215.361 48.3486 216.588 51.4343 219.774 50.7375C222.196 50.2067 222.793 48.3818 222.793 45.661C222.793 43.2057 221.864 41.2149 219.873 40.8499C217.053 40.3522 215.361 42.4425 215.361 45.5946ZM245.91 46.4241C245.91 48.3154 245.943 48.6472 245.976 48.9458C246.275 50.9698 249.394 50.0408 249.394 50.0408L250.124 54.2878C242.127 55.7145 241.231 51.567 241.231 48.7136C241.231 48.6804 241.231 48.6472 241.231 48.614V42.8739L241.298 41.1485L238.71 41.2481V37.366L241.264 37.3992L241.231 34.977V32.1236L245.943 31.1613V34.977L245.843 37.3992L247.867 37.366H249.692L249.725 41.2481H247.668L245.843 41.1817L245.91 43.3384V46.4241ZM268.973 46.8555V54.2214L264.063 54.2546L263.996 45.0306C263.996 41.3808 262.702 40.2858 260.778 40.5181C259.617 40.6508 258.323 41.3144 257.792 42.9402C257.526 43.8029 257.56 44.6324 257.56 46.9218V54.2546L252.715 54.2214V31.0618H257.427V39.7881C257.427 39.7881 258.654 37.1006 262.57 37.1006C265.456 37.1006 267.878 38.3282 268.642 41.613C268.874 42.708 268.973 44.8647 268.973 46.8555ZM287.666 47.4195L283.22 47.3864H275.953C276.053 49.4103 277.678 50.9034 279.437 50.9034C282.224 50.9034 283.153 48.979 283.153 48.979L287.201 50.8371C287.201 50.8371 285.476 54.686 279.636 54.6528C276.053 54.6196 273.631 53.1597 272.104 50.6048C270.777 48.3486 270.478 43.6038 272.303 40.8831C274.095 38.2619 276.584 37.2001 279.404 37.2001C282.755 37.2001 284.812 38.3614 286.305 40.8499C287.765 43.272 287.666 47.4195 287.666 47.4195ZM275.986 44.0684H282.921C282.788 42.343 281.76 40.684 279.47 40.684C277.413 40.7172 276.185 42.2766 275.986 44.0684ZM319.474 37.4987L324.219 37.5319L318.114 54.2214H314.53L310.814 43.8693L307.032 54.2546H303.448L297.443 37.5319L302.055 37.4987L305.306 47.9836L308.359 37.4987H310.018H313.137L316.388 47.9504L319.474 37.4987ZM340.661 51.9652L341.491 54.2546H336.215L336.016 52.1643C336.016 52.1643 334.722 54.5864 330.74 54.5864C328.816 54.5864 327.754 54.2878 326.659 53.591C325.498 52.8279 324.801 51.5339 324.668 50.1735C324.536 48.7467 324.967 47.2205 326.062 46.1255C326.792 45.3956 327.953 44.732 330.641 44.4997C333.826 44.2674 335.054 44.2674 335.651 43.3052C335.85 42.9071 335.883 42.2103 335.518 41.6794C334.788 40.6508 331.039 39.954 330.309 42.708L325.763 41.6462C326.526 38.2287 329.546 37.2001 333.096 37.2001C335.551 37.2001 337.277 37.6646 338.67 38.8923C340.528 40.5513 340.628 42.1439 340.628 46.1587L340.661 51.9652ZM334.755 50.1403C335.651 49.4103 335.916 48.3486 335.817 46.391C334.291 47.4859 330.807 46.6232 329.878 48.249C329.148 49.4767 329.977 50.8039 331.537 51.003C332.433 51.1357 333.793 50.9034 334.755 50.1403ZM353.981 37.4987H359.223L352.82 54.2214H348.274L341.704 37.4655L347.079 37.4987L350.464 49.1117L353.981 37.4987ZM376.448 47.4195L372.002 47.3864H364.736C364.835 49.4103 366.461 50.9034 368.219 50.9034C371.007 50.9034 371.936 48.979 371.936 48.979L375.984 50.8371C375.984 50.8371 374.258 54.686 368.419 54.6528C364.835 54.6196 362.413 53.1597 360.887 50.6048C359.559 48.3486 359.261 43.6038 361.086 40.8831C362.877 38.2619 365.366 37.2001 368.186 37.2001C371.537 37.2001 373.595 38.3614 375.088 40.8499C376.548 43.272 376.448 47.4195 376.448 47.4195ZM364.769 44.0684H371.703C371.571 42.343 370.542 40.684 368.253 40.684C366.195 40.7172 364.968 42.2766 364.769 44.0684ZM388.68 44.6324C389.974 44.9974 393.823 46.1255 393.392 50.5385C392.894 55.5818 383.471 55.8473 380.153 52.9606C378.693 51.6998 378.229 50.273 378.229 50.273L382.708 49.0122C382.708 49.0122 383.073 50.3726 384.5 50.8039C386.524 51.368 389.311 51.003 388.913 49.2444C388.647 48.1163 385.926 47.8509 384.898 47.6186C383.604 47.32 381.779 47.0877 380.452 46.0592C377.897 44.1015 378.361 41.0822 379.888 39.4232C382.509 36.5033 388.514 37.1006 390.339 38.2619C391.932 39.2904 393.027 40.4186 393.491 41.7458L389.045 43.1061C389.045 43.1061 388.879 41.6462 387.187 41.1817C385.362 40.684 382.808 41.3144 383.637 42.9402C384.035 43.7697 386.092 43.9356 388.68 44.6324Z" fill="#111212"/>
<path d="M29.42 91.0694C30.956 94.7654 32.476 98.5254 34.012 102.221C33.5 102.221 33.356 102.221 32.524 102.221L31.308 99.2294L26.316 99.2454L25.164 102.221H23.708C25.228 98.5254 26.748 94.7654 28.284 91.0694H29.42ZM26.796 98.0134H30.844L28.812 93.0054L26.796 98.0134ZM41.0984 98.5254C41.4664 98.9574 41.7224 99.5654 41.6424 100.269C41.4024 102.765 37.2904 102.925 35.7064 101.533C35.0664 100.989 34.8744 100.301 34.8744 100.301L36.2664 99.9974C36.2664 99.9974 36.4104 100.989 37.9624 101.197C38.5544 101.261 39.4504 101.165 39.8184 100.877C40.2504 100.573 40.4424 99.9654 40.0744 99.4374C39.4344 98.5414 36.6824 99.0534 35.5944 97.9494C34.5224 96.8454 34.7304 95.3734 35.8504 94.5574C36.9704 93.7254 39.2904 93.8694 40.1544 94.3334C40.8744 94.7014 41.3224 95.2134 41.5784 96.0454L40.3144 96.4294C40.3144 96.4294 40.1864 95.8374 39.7544 95.5174C38.9704 94.9414 37.6744 94.9894 37.0504 95.2134C36.1064 95.5654 36.0264 96.5254 36.5544 97.0214C37.3544 97.7414 40.0904 97.3094 41.0984 98.5254ZM50.2481 102.221H48.4561L44.5841 98.1414L44.6161 102.221L43.1921 102.237V91.0534H44.6161L44.5841 97.4214L48.1681 94.1094H49.9441L45.9121 97.7894L50.2481 102.221ZM62.225 100.749L62.609 102.205L61.073 102.221L60.961 101.037C60.961 101.037 60.753 101.437 60.369 101.773C60.225 101.901 60.033 101.981 59.825 102.077C59.393 102.269 58.817 102.381 58.161 102.381C54.289 102.381 54.305 98.1094 57.425 97.6774C57.857 97.6294 58.385 97.5654 58.897 97.5014C60.049 97.3734 60.785 97.1974 60.865 96.7974C60.865 96.7974 61.041 96.1734 60.481 95.6134C59.809 94.9094 57.169 94.7814 56.769 96.3334L55.473 96.0134C55.617 95.5174 55.873 95.0534 56.305 94.7334C56.689 94.4294 57.121 94.2214 57.617 94.1094C58.257 93.9654 60.209 93.8214 61.121 94.5254C62.241 95.3734 62.161 96.5414 62.193 97.4694L62.225 100.749ZM60.881 99.0534V98.1414C59.841 98.7494 57.633 98.4454 56.833 99.1814C56.353 99.5974 56.433 100.477 57.009 100.909C57.361 101.181 57.825 101.261 58.321 101.261C59.025 101.261 59.777 101.021 60.273 100.509C60.625 100.157 60.881 99.7094 60.881 99.0534ZM67.7163 93.9814C68.8683 93.9174 71.1883 94.3494 71.1883 98.1734C71.1883 101.853 68.9323 102.365 67.7963 102.365C66.0523 102.365 65.3643 101.165 65.3643 101.165V102.237H64.0203V91.0854H65.3643C65.3643 91.5814 65.3643 95.2774 65.3643 95.2774C65.3643 95.2774 65.4763 95.0534 65.7163 94.7814C66.0683 94.4134 66.7083 94.0294 67.7163 93.9814ZM67.4923 101.213C68.8523 101.213 69.8603 100.237 69.8603 98.0614C69.8603 96.0934 68.9003 94.9734 67.4923 95.0374C66.6283 95.0694 65.4283 95.7734 65.4283 98.1574C65.4283 100.621 66.6923 101.213 67.4923 101.213ZM76.1645 93.9174C78.8045 93.9174 80.0045 95.7574 80.0045 98.1414C80.0045 100.109 79.1405 102.381 76.1645 102.381C73.3325 102.365 72.3245 100.269 72.3245 98.2374C72.3245 95.6934 73.4285 93.9174 76.1645 93.9174ZM76.1645 101.261C77.5725 101.261 78.5325 100.221 78.5325 97.9654C78.5325 95.9014 77.4285 95.0054 76.1165 95.0054C74.8365 95.0054 73.7965 96.1094 73.7965 97.9814C73.7965 100.301 74.7405 101.261 76.1645 101.261ZM81.4429 99.9334C81.3629 99.3894 81.3309 97.9494 81.3309 97.9494V94.1574H82.8029V97.0854C82.8029 97.0854 82.8029 97.2774 82.8029 97.3574V97.6134C82.8029 98.3814 82.8189 98.7974 82.8189 98.7974C82.8189 99.8374 83.0749 101.437 84.8829 101.229C86.2109 101.085 86.7709 100.173 86.8029 98.7974V94.1574H88.2269V102.253H86.8669V101.069C86.8669 101.069 86.3069 102.381 84.2589 102.381C83.0429 102.381 81.6989 101.773 81.4429 99.9334ZM92.2926 98.7814C92.2926 100.525 92.1326 101.165 93.1886 101.165C93.7326 101.165 94.1486 100.973 94.1486 100.973L94.4846 102.205C91.1566 102.845 90.9006 101.533 90.9006 99.5014C90.9006 99.4854 90.9006 99.4694 90.9006 99.4374V96.3654L90.9326 95.1654L89.6846 95.2134V94.1094L90.9326 94.1414L90.9006 93.2454L90.9166 91.6294L92.3086 91.0694L92.2926 93.1494L92.2606 94.1414L93.2686 94.1094H94.2126V95.2134H93.2686L92.2446 95.1654L92.2926 96.3494V98.7814ZM103.383 91.0854C106.151 91.0854 109.255 91.9014 109.255 96.7814C109.255 101.229 106.695 102.237 103.095 102.237C102.567 102.237 99.8953 102.237 99.8953 102.237V91.1014C99.8953 91.1014 102.855 91.0854 103.383 91.0854ZM103.159 100.925C105.367 100.925 107.799 100.557 107.799 96.6054C107.799 92.9574 105.447 92.2854 103.351 92.2854C102.551 92.2854 101.319 92.2854 101.319 92.2854V96.5574V96.6374V100.925C101.319 100.925 102.359 100.925 103.159 100.925ZM110.996 102.237V94.1574H112.42L112.388 102.237H110.996ZM112.42 92.4774H110.996V91.0854H112.42V92.4774ZM119.913 94.0614H121.273V102.221H121.257C121.241 103.933 119.993 105.309 117.753 105.309C115.385 105.309 114.633 104.141 114.633 104.141L115.769 103.325C115.769 103.325 116.217 104.093 117.753 104.093C119.689 104.093 119.929 102.621 119.913 101.677V100.893C119.913 100.893 119.721 101.357 119.449 101.597C119.065 101.949 118.473 102.365 117.465 102.365C116.329 102.365 114.169 101.805 114.169 98.0934C114.169 94.1734 116.377 93.9174 117.529 93.9174C118.361 93.9174 118.905 94.1574 119.257 94.4614C119.657 94.8134 119.913 95.2614 119.913 95.2614C119.913 95.2614 119.913 94.5574 119.913 94.0614ZM117.753 101.197C118.569 101.197 119.849 100.605 119.849 98.1254C119.849 95.7254 118.633 95.0054 117.753 94.9734C116.345 94.9254 115.513 95.9654 115.513 97.9974C115.513 100.189 116.393 101.197 117.753 101.197ZM123.324 102.237V94.1574H124.748L124.716 102.237H123.324ZM124.748 92.4774H123.324V91.0854H124.748V92.4774ZM128.636 98.7814C128.636 100.525 128.476 101.165 129.532 101.165C130.076 101.165 130.492 100.973 130.492 100.973L130.828 102.205C127.5 102.845 127.244 101.533 127.244 99.5014C127.244 99.4854 127.244 99.4694 127.244 99.4374V96.3654L127.276 95.1654L126.028 95.2134V94.1094L127.276 94.1414L127.244 93.2454L127.26 91.6294L128.652 91.0694L128.636 93.1494L128.604 94.1414L129.612 94.1094H130.556V95.2134H129.612L128.588 95.1654L128.636 96.3494V98.7814ZM137.007 101.149C139.743 101.149 140.063 99.3254 140.063 99.3254L141.407 99.6934C141.407 99.6934 140.847 102.381 137.039 102.381C133.983 102.381 131.935 100.317 131.935 96.4774C131.951 92.8294 134.095 90.8934 136.991 90.8934C140.767 90.8934 141.311 93.7254 141.311 93.7254L139.935 93.9494C139.935 93.9494 139.455 91.9974 136.895 92.0614C135.039 92.1094 133.471 93.6614 133.471 96.4934C133.471 99.9014 135.183 101.149 137.007 101.149ZM147.422 95.4374C147.422 95.4374 147.102 95.1654 146.286 95.1974C145.086 95.2294 144.51 96.0934 144.382 96.9414C144.334 97.2454 144.35 98.6534 144.35 98.6534L144.366 102.221H142.958V94.1414H144.35V95.2134C144.35 95.2134 144.894 94.0774 146.494 93.9974C147.438 93.9654 148.062 94.3814 148.062 94.3814C147.758 94.8774 147.742 94.9414 147.422 95.4374ZM149.605 102.237V94.1574H151.029L150.997 102.237H149.605ZM151.029 92.4774H149.605V91.0854H151.029V92.4774ZM156.779 93.9814C157.931 93.9174 160.251 94.3494 160.251 98.1734C160.251 101.853 157.995 102.365 156.859 102.365C155.115 102.365 154.427 101.165 154.427 101.165V102.237H153.083V91.0854H154.427C154.427 91.5814 154.427 95.2774 154.427 95.2774C154.427 95.2774 154.539 95.0534 154.779 94.7814C155.131 94.4134 155.771 94.0294 156.779 93.9814ZM156.555 101.213C157.915 101.213 158.923 100.237 158.923 98.0614C158.923 96.0934 157.963 94.9734 156.555 95.0374C155.691 95.0694 154.491 95.7734 154.491 98.1574C154.491 100.621 155.755 101.213 156.555 101.213ZM169.547 94.0454C170.683 94.0454 172.827 94.6054 172.827 98.2854C172.827 102.205 170.619 102.493 169.467 102.445C168.619 102.413 168.011 102.061 167.627 101.741C167.259 101.437 167.083 100.925 167.083 100.925C167.083 100.925 167.083 104.429 167.083 104.925H165.739V94.1894H167.083V95.5014C167.083 95.5014 167.243 94.9734 167.595 94.7014C167.979 94.3814 168.603 94.0454 169.547 94.0454ZM169.243 101.341C170.651 101.405 171.483 100.349 171.483 98.3334C171.483 96.1574 170.603 95.1494 169.243 95.1494C168.427 95.1494 167.163 95.7254 167.163 98.2214C167.163 100.589 168.363 101.309 169.243 101.341ZM178.781 95.4374C178.781 95.4374 178.461 95.1654 177.645 95.1974C176.445 95.2294 175.869 96.0934 175.741 96.9414C175.693 97.2454 175.709 98.6534 175.709 98.6534L175.725 102.221H174.317V94.1414H175.709V95.2134C175.709 95.2134 176.253 94.0774 177.853 93.9974C178.797 93.9654 179.421 94.3814 179.421 94.3814C179.117 94.8774 179.101 94.9414 178.781 95.4374ZM183.305 93.9174C185.945 93.9174 187.145 95.7574 187.145 98.1414C187.145 100.109 186.281 102.381 183.305 102.381C180.473 102.365 179.465 100.269 179.465 98.2374C179.465 95.6934 180.569 93.9174 183.305 93.9174ZM183.305 101.261C184.713 101.261 185.673 100.221 185.673 97.9654C185.673 95.9014 184.569 95.0054 183.257 95.0054C181.977 95.0054 180.937 96.1094 180.937 97.9814C180.937 100.301 181.881 101.261 183.305 101.261ZM193.944 91.0854H195.304V102.237H193.944V101.165C193.944 101.165 193.256 102.365 191.512 102.365C190.376 102.365 188.248 101.821 188.248 98.1254C188.248 94.2374 190.44 93.9814 191.576 93.9814C193.32 93.9814 193.944 95.2774 193.944 95.2774C193.944 95.2774 193.944 91.5814 193.944 91.0854ZM191.816 101.213C192.616 101.213 193.88 100.621 193.88 98.1574C193.88 95.7734 192.68 95.0694 191.816 95.0374C190.408 94.9734 189.576 96.0294 189.576 98.0294C189.576 100.205 190.456 101.213 191.816 101.213ZM197.099 99.9334C197.019 99.3894 196.987 97.9494 196.987 97.9494V94.1574H198.459V97.0854C198.459 97.0854 198.459 97.2774 198.459 97.3574V97.6134C198.459 98.3814 198.475 98.7974 198.475 98.7974C198.475 99.8374 198.731 101.437 200.539 101.229C201.867 101.085 202.427 100.173 202.459 98.7974V94.1574H203.883V102.253H202.523V101.069C202.523 101.069 201.963 102.381 199.915 102.381C198.699 102.381 197.355 101.773 197.099 99.9334ZM209.117 101.165C210.749 101.149 211.181 99.9014 211.181 99.9014L212.573 100.205C212.573 100.205 212.061 102.381 209.069 102.381C207.005 102.381 205.341 100.957 205.341 98.0454C205.341 95.5974 206.749 93.9974 209.005 93.9974C211.949 93.9974 212.429 96.1414 212.429 96.1414L211.037 96.4774C211.037 96.4774 210.621 95.0374 209.005 95.1014C207.421 95.1654 206.781 96.4294 206.765 98.0774C206.781 100.173 207.837 101.165 209.117 101.165ZM216.183 98.7814C216.183 100.525 216.023 101.165 217.079 101.165C217.623 101.165 218.039 100.973 218.039 100.973L218.375 102.205C215.047 102.845 214.791 101.533 214.791 99.5014C214.791 99.4854 214.791 99.4694 214.791 99.4374V96.3654L214.823 95.1654L213.575 95.2134V94.1094L214.823 94.1414L214.791 93.2454L214.807 91.6294L216.199 91.0694L216.183 93.1494L216.151 94.1414L217.159 94.1094H218.103V95.2134H217.159L216.135 95.1654L216.183 96.3494V98.7814ZM225.786 98.5254C226.154 98.9574 226.41 99.5654 226.33 100.269C226.09 102.765 221.978 102.925 220.394 101.533C219.754 100.989 219.562 100.301 219.562 100.301L220.954 99.9974C220.954 99.9974 221.098 100.989 222.65 101.197C223.242 101.261 224.138 101.165 224.506 100.877C224.938 100.573 225.13 99.9654 224.762 99.4374C224.122 98.5414 221.37 99.0534 220.282 97.9494C219.21 96.8454 219.418 95.3734 220.538 94.5574C221.658 93.7254 223.978 93.8694 224.842 94.3334C225.562 94.7014 226.01 95.2134 226.266 96.0454L225.002 96.4294C225.002 96.4294 224.874 95.8374 224.442 95.5174C223.658 94.9414 222.362 94.9894 221.738 95.2134C220.794 95.5654 220.714 96.5254 221.242 97.0214C222.042 97.7414 224.778 97.3094 225.786 98.5254ZM227.88 100.605H229.32V102.221L228.856 103.853H228.2V102.221H227.88V100.605ZM238.875 94.0454C240.011 94.0454 242.155 94.6054 242.155 98.2854C242.155 102.205 239.947 102.493 238.795 102.445C237.947 102.413 237.339 102.061 236.955 101.741C236.587 101.437 236.411 100.925 236.411 100.925C236.411 100.925 236.411 104.429 236.411 104.925H235.067V94.1894H236.411V95.5014C236.411 95.5014 236.571 94.9734 236.923 94.7014C237.307 94.3814 237.931 94.0454 238.875 94.0454ZM238.571 101.341C239.979 101.405 240.811 100.349 240.811 98.3334C240.811 96.1574 239.931 95.1494 238.571 95.1494C237.755 95.1494 236.491 95.7254 236.491 98.2214C236.491 100.589 237.691 101.309 238.571 101.341ZM248.109 95.4374C248.109 95.4374 247.789 95.1654 246.973 95.1974C245.773 95.2294 245.197 96.0934 245.069 96.9414C245.021 97.2454 245.037 98.6534 245.037 98.6534L245.053 102.221H243.645V94.1414H245.037V95.2134C245.037 95.2134 245.581 94.0774 247.181 93.9974C248.125 93.9654 248.749 94.3814 248.749 94.3814C248.445 94.8774 248.429 94.9414 248.109 95.4374ZM250.293 102.237V94.1574H251.717L251.685 102.237H250.293ZM251.717 92.4774H250.293V91.0854H251.717V92.4774ZM257.226 101.165C258.858 101.149 259.29 99.9014 259.29 99.9014L260.682 100.205C260.682 100.205 260.17 102.381 257.178 102.381C255.114 102.381 253.45 100.957 253.45 98.0454C253.45 95.5974 254.858 93.9974 257.114 93.9974C260.058 93.9974 260.538 96.1414 260.538 96.1414L259.146 96.4774C259.146 96.4774 258.73 95.0374 257.114 95.1014C255.53 95.1654 254.89 96.4294 254.874 98.0774C254.89 100.173 255.946 101.165 257.226 101.165ZM262.293 102.237V94.1574H263.717L263.685 102.237H262.293ZM263.717 92.4774H262.293V91.0854H263.717V92.4774ZM272.554 96.4614C272.634 97.0054 272.666 98.4294 272.666 98.4294V102.221L271.194 102.237V99.3094C271.194 99.3094 271.194 99.1014 271.194 99.0374V98.7654C271.194 98.0134 271.178 97.5974 271.178 97.5974C271.178 96.5574 270.922 94.9574 269.114 95.1654C267.786 95.3094 267.226 96.2214 267.194 97.5974V102.237H265.77V94.1414H267.13V95.3094C267.13 95.3094 267.674 93.9974 269.738 93.9974C270.954 93.9974 272.282 94.6214 272.554 96.4614ZM279.804 94.0614H281.164V102.221H281.148C281.132 103.933 279.884 105.309 277.644 105.309C275.276 105.309 274.524 104.141 274.524 104.141L275.66 103.325C275.66 103.325 276.108 104.093 277.644 104.093C279.58 104.093 279.82 102.621 279.804 101.677V100.893C279.804 100.893 279.612 101.357 279.34 101.597C278.956 101.949 278.364 102.365 277.356 102.365C276.22 102.365 274.06 101.805 274.06 98.0934C274.06 94.1734 276.268 93.9174 277.42 93.9174C278.252 93.9174 278.796 94.1574 279.148 94.4614C279.548 94.8134 279.804 95.2614 279.804 95.2614C279.804 95.2614 279.804 94.5574 279.804 94.0614ZM277.644 101.197C278.46 101.197 279.74 100.605 279.74 98.1254C279.74 95.7254 278.524 95.0054 277.644 94.9734C276.236 94.9254 275.404 95.9654 275.404 97.9974C275.404 100.189 276.284 101.197 277.644 101.197ZM282.927 100.605H284.367V102.221L283.903 103.853H283.247V102.221H282.927V100.605ZM290.402 102.237V94.1574H291.826L291.794 102.237H290.402ZM291.826 92.4774H290.402V91.0854H291.826V92.4774ZM305.912 98.4454V102.221L304.472 102.237V99.3094C304.472 99.3094 304.472 99.2294 304.472 99.1494C304.472 99.1014 304.472 99.0694 304.472 99.0374V98.7814C304.472 98.0134 304.456 97.5974 304.456 97.5974C304.456 96.7334 304.392 94.9414 302.472 95.1654C301.192 95.3094 300.616 96.2054 300.568 97.5494C300.568 97.5654 300.568 97.5814 300.568 97.6134V102.221L299.256 102.237H299.176V99.3094C299.176 99.3094 299.176 99.2294 299.176 99.1494C299.176 99.1014 299.176 99.0694 299.176 99.0374V98.7814C299.176 98.0134 299.144 97.5974 299.144 97.5974C299.144 96.7334 299.08 94.9094 297.16 95.1334C295.864 95.2774 295.304 96.2374 295.272 97.6134V102.237H293.88V94.1574H295.208V95.3254C295.208 95.3254 295.736 94.0134 297.752 94.0134C298.232 94.0134 298.744 94.1254 299.176 94.3654C299.64 94.6214 300.04 95.0374 300.28 95.6454C300.28 95.6454 300.28 95.6294 300.28 95.6454C300.424 95.3094 301.096 94.0134 303.064 94.0134C304.248 94.0134 305.544 94.6374 305.8 96.4774C305.88 97.0054 305.912 98.4454 305.912 98.4454ZM311.406 94.0454C312.542 94.0454 314.686 94.6054 314.686 98.2854C314.686 102.205 312.478 102.493 311.326 102.445C310.478 102.413 309.87 102.061 309.486 101.741C309.118 101.437 308.942 100.925 308.942 100.925C308.942 100.925 308.942 104.429 308.942 104.925H307.598V94.1894H308.942V95.5014C308.942 95.5014 309.102 94.9734 309.454 94.7014C309.838 94.3814 310.462 94.0454 311.406 94.0454ZM311.102 101.341C312.51 101.405 313.342 100.349 313.342 98.3334C313.342 96.1574 312.462 95.1494 311.102 95.1494C310.286 95.1494 309.022 95.7254 309.022 98.2214C309.022 100.589 310.222 101.309 311.102 101.341ZM317.537 102.221H316.177V91.0854H317.537V102.221ZM322.534 93.9654C325.43 93.8854 326.294 96.1254 326.294 97.7094C326.294 97.9654 326.294 98.2854 326.262 98.5094V98.5254L320.502 98.5414C320.502 98.5414 320.374 101.245 322.774 101.245C324.422 101.245 324.822 100.077 324.822 100.077L326.182 100.445C326.182 100.445 325.494 102.381 322.902 102.381C321.094 102.381 320.038 101.645 319.493 100.525C318.486 98.4134 318.806 94.0774 322.534 93.9654ZM324.806 97.5174C324.806 97.5174 324.934 95.0214 322.646 95.0214C320.502 95.0214 320.502 97.5174 320.502 97.5174H324.806ZM339.802 98.4454V102.221L338.362 102.237V99.3094C338.362 99.3094 338.362 99.2294 338.362 99.1494C338.362 99.1014 338.362 99.0694 338.362 99.0374V98.7814C338.362 98.0134 338.346 97.5974 338.346 97.5974C338.346 96.7334 338.282 94.9414 336.362 95.1654C335.082 95.3094 334.506 96.2054 334.458 97.5494C334.458 97.5654 334.458 97.5814 334.458 97.6134V102.221L333.146 102.237H333.066V99.3094C333.066 99.3094 333.066 99.2294 333.066 99.1494C333.066 99.1014 333.066 99.0694 333.066 99.0374V98.7814C333.066 98.0134 333.034 97.5974 333.034 97.5974C333.034 96.7334 332.97 94.9094 331.05 95.1334C329.754 95.2774 329.194 96.2374 329.162 97.6134V102.237H327.77V94.1574H329.098V95.3254C329.098 95.3254 329.626 94.0134 331.642 94.0134C332.122 94.0134 332.634 94.1254 333.066 94.3654C333.53 94.6214 333.93 95.0374 334.17 95.6454C334.17 95.6454 334.17 95.6294 334.17 95.6454C334.314 95.3094 334.986 94.0134 336.954 94.0134C338.138 94.0134 339.434 94.6374 339.69 96.4774C339.77 97.0054 339.802 98.4454 339.802 98.4454ZM344.721 93.9654C347.617 93.8854 348.481 96.1254 348.481 97.7094C348.481 97.9654 348.481 98.2854 348.449 98.5094V98.5254L342.689 98.5414C342.689 98.5414 342.561 101.245 344.961 101.245C346.609 101.245 347.009 100.077 347.009 100.077L348.369 100.445C348.369 100.445 347.681 102.381 345.089 102.381C343.281 102.381 342.225 101.645 341.681 100.525C340.673 98.4134 340.993 94.0774 344.721 93.9654ZM346.993 97.5174C346.993 97.5174 347.121 95.0214 344.833 95.0214C342.689 95.0214 342.689 97.5174 342.689 97.5174H346.993ZM356.742 96.4614C356.822 97.0054 356.854 98.4294 356.854 98.4294V102.221L355.382 102.237V99.3094C355.382 99.3094 355.382 99.1014 355.382 99.0374V98.7654C355.382 98.0134 355.366 97.5974 355.366 97.5974C355.366 96.5574 355.11 94.9574 353.302 95.1654C351.974 95.3094 351.414 96.2214 351.382 97.5974V102.237H349.958V94.1414H351.318V95.3094C351.318 95.3094 351.862 93.9974 353.926 93.9974C355.142 93.9974 356.47 94.6214 356.742 96.4614ZM360.48 98.7814C360.48 100.525 360.32 101.165 361.376 101.165C361.92 101.165 362.336 100.973 362.336 100.973L362.672 102.205C359.344 102.845 359.088 101.533 359.088 99.5014C359.088 99.4854 359.088 99.4694 359.088 99.4374V96.3654L359.12 95.1654L357.872 95.2134V94.1094L359.12 94.1414L359.088 93.2454L359.104 91.6294L360.496 91.0694L360.48 93.1494L360.448 94.1414L361.456 94.1094H362.4V95.2134H361.456L360.432 95.1654L360.48 96.3494V98.7814ZM370.819 100.749L371.203 102.205L369.667 102.221L369.555 101.037C369.555 101.037 369.347 101.437 368.963 101.773C368.819 101.901 368.627 101.981 368.419 102.077C367.987 102.269 367.411 102.381 366.755 102.381C362.883 102.381 362.899 98.1094 366.019 97.6774C366.451 97.6294 366.979 97.5654 367.491 97.5014C368.643 97.3734 369.379 97.1974 369.459 96.7974C369.459 96.7974 369.635 96.1734 369.075 95.6134C368.403 94.9094 365.763 94.7814 365.363 96.3334L364.067 96.0134C364.211 95.5174 364.467 95.0534 364.899 94.7334C365.283 94.4294 365.715 94.2214 366.211 94.1094C366.851 93.9654 368.803 93.8214 369.715 94.5254C370.835 95.3734 370.755 96.5414 370.787 97.4694L370.819 100.749ZM369.475 99.0534V98.1414C368.435 98.7494 366.227 98.4454 365.427 99.1814C364.947 99.5974 365.027 100.477 365.603 100.909C365.955 101.181 366.419 101.261 366.915 101.261C367.619 101.261 368.371 101.021 368.867 100.509C369.219 100.157 369.475 99.7094 369.475 99.0534ZM374.48 98.7814C374.48 100.525 374.32 101.165 375.376 101.165C375.92 101.165 376.336 100.973 376.336 100.973L376.672 102.205C373.344 102.845 373.088 101.533 373.088 99.5014C373.088 99.4854 373.088 99.4694 373.088 99.4374V96.3654L373.12 95.1654L371.872 95.2134V94.1094L373.12 94.1414L373.088 93.2454L373.104 91.6294L374.496 91.0694L374.48 93.1494L374.448 94.1414L375.456 94.1094H376.4V95.2134H375.456L374.432 95.1654L374.48 96.3494V98.7814ZM378.371 102.237V94.1574H379.795L379.763 102.237H378.371ZM379.795 92.4774H378.371V91.0854H379.795V92.4774ZM385.336 93.9174C387.976 93.9174 389.176 95.7574 389.176 98.1414C389.176 100.109 388.312 102.381 385.336 102.381C382.504 102.365 381.496 100.269 381.496 98.2374C381.496 95.6934 382.6 93.9174 385.336 93.9174ZM385.336 101.261C386.744 101.261 387.704 100.221 387.704 97.9654C387.704 95.9014 386.6 95.0054 385.288 95.0054C384.008 95.0054 382.968 96.1094 382.968 97.9814C382.968 100.301 383.912 101.261 385.336 101.261ZM397.367 96.4614C397.447 97.0054 397.479 98.4294 397.479 98.4294V102.221L396.007 102.237V99.3094C396.007 99.3094 396.007 99.1014 396.007 99.0374V98.7654C396.007 98.0134 395.991 97.5974 395.991 97.5974C395.991 96.5574 395.735 94.9574 393.927 95.1654C392.599 95.3094 392.039 96.2214 392.007 97.5974V102.237H390.583V94.1414H391.943V95.3094C391.943 95.3094 392.487 93.9974 394.551 93.9974C395.767 93.9974 397.095 94.6214 397.367 96.4614ZM399.177 100.605H400.617V102.221L400.153 103.853H399.497V102.221H399.177V100.605ZM27.852 113.917C30.492 113.917 31.692 115.757 31.692 118.141C31.692 120.109 30.828 122.381 27.852 122.381C25.02 122.365 24.012 120.269 24.012 118.237C24.012 115.693 25.116 113.917 27.852 113.917ZM27.852 121.261C29.26 121.261 30.22 120.221 30.22 117.965C30.22 115.901 29.116 115.005 27.804 115.005C26.524 115.005 25.484 116.109 25.484 117.981C25.484 120.301 26.428 121.261 27.852 121.261ZM37.5624 115.437C37.5624 115.437 37.2424 115.165 36.4264 115.197C35.2264 115.229 34.6504 116.093 34.5224 116.941C34.4744 117.245 34.4904 118.653 34.4904 118.653L34.5064 122.221H33.0984V114.141H34.4904V115.213C34.4904 115.213 35.0344 114.077 36.6344 113.997C37.5784 113.965 38.2024 114.381 38.2024 114.381C37.8984 114.877 37.8824 114.941 37.5624 115.437ZM50.1938 120.749L50.5778 122.205L49.0418 122.221L48.9298 121.037C48.9298 121.037 48.7218 121.437 48.3378 121.773C48.1938 121.901 48.0018 121.981 47.7938 122.077C47.3618 122.269 46.7858 122.381 46.1298 122.381C42.2577 122.381 42.2737 118.109 45.3938 117.677C45.8258 117.629 46.3538 117.565 46.8658 117.501C48.0178 117.373 48.7538 117.197 48.8338 116.797C48.8338 116.797 49.0098 116.173 48.4498 115.613C47.7778 114.909 45.1378 114.781 44.7378 116.333L43.4418 116.013C43.5858 115.517 43.8418 115.053 44.2738 114.733C44.6578 114.429 45.0898 114.221 45.5858 114.109C46.2258 113.965 48.1778 113.821 49.0898 114.525C50.2098 115.373 50.1298 116.541 50.1618 117.469L50.1938 120.749ZM48.8498 119.053V118.141C47.8098 118.749 45.6018 118.445 44.8018 119.181C44.3218 119.597 44.4018 120.477 44.9778 120.909C45.3298 121.181 45.7938 121.261 46.2898 121.261C46.9938 121.261 47.7458 121.021 48.2418 120.509C48.5938 120.157 48.8498 119.709 48.8498 119.053ZM58.773 116.461C58.853 117.005 58.885 118.429 58.885 118.429V122.221L57.413 122.237V119.309C57.413 119.309 57.413 119.101 57.413 119.037V118.765C57.413 118.013 57.397 117.597 57.397 117.597C57.397 116.557 57.141 114.957 55.333 115.165C54.005 115.309 53.445 116.221 53.413 117.597V122.237H51.989V114.141H53.349V115.309C53.349 115.309 53.893 113.997 55.957 113.997C57.173 113.997 58.501 114.621 58.773 116.461ZM67.5216 114.157L63.9216 123.373C62.8976 125.629 60.4816 125.213 60.4816 125.213L60.7216 123.885C60.7216 123.885 60.9776 123.981 61.4416 123.885C61.9856 123.757 62.6576 123.405 63.0096 122.125L59.6176 114.157H61.1696L63.3136 119.357L63.7456 120.621L64.1296 119.357L66.0496 114.157H67.5216ZM71.0583 118.781C71.0583 120.525 70.8983 121.165 71.9543 121.165C72.4983 121.165 72.9143 120.973 72.9143 120.973L73.2503 122.205C69.9223 122.845 69.6663 121.533 69.6663 119.501C69.6663 119.485 69.6663 119.469 69.6663 119.437V116.365L69.6983 115.165L68.4503 115.213V114.109L69.6983 114.141L69.6663 113.245L69.6823 111.629L71.0743 111.069L71.0583 113.149L71.0263 114.141L72.0343 114.109H72.9783V115.213H72.0343L71.0103 115.165L71.0583 116.349V118.781ZM81.4449 116.461C81.5249 117.005 81.5569 118.429 81.5569 118.429V122.221H80.0849V119.309C80.0849 119.309 80.0849 119.101 80.0849 119.037V118.765C80.0849 117.997 80.0689 117.581 80.0689 117.581C80.0689 116.557 79.8129 114.957 78.0049 115.149C76.6769 115.309 76.1169 116.221 76.0849 117.597V122.237L74.6609 122.221V111.101H76.0209V115.309C76.0209 115.309 76.5649 113.997 78.6289 113.997C79.8449 113.997 81.1729 114.605 81.4449 116.461ZM83.5426 122.237V114.157H84.9666L84.9346 122.237H83.5426ZM84.9666 112.477H83.5426V111.085H84.9666V112.477ZM93.8043 116.461C93.8843 117.005 93.9163 118.429 93.9163 118.429V122.221L92.4443 122.237V119.309C92.4443 119.309 92.4443 119.101 92.4443 119.037V118.765C92.4443 118.013 92.4283 117.597 92.4283 117.597C92.4283 116.557 92.1723 114.957 90.3643 115.165C89.0363 115.309 88.4763 116.221 88.4443 117.597V122.237H87.0203V114.141H88.3803V115.309C88.3803 115.309 88.9243 113.997 90.9883 113.997C92.2043 113.997 93.5323 114.621 93.8043 116.461ZM101.054 114.061H102.414V122.221H102.398C102.382 123.933 101.134 125.309 98.894 125.309C96.526 125.309 95.774 124.141 95.774 124.141L96.91 123.325C96.91 123.325 97.358 124.093 98.894 124.093C100.83 124.093 101.07 122.621 101.054 121.677V120.893C101.054 120.893 100.862 121.357 100.59 121.597C100.206 121.949 99.614 122.365 98.606 122.365C97.47 122.365 95.31 121.805 95.31 118.093C95.31 114.173 97.518 113.917 98.67 113.917C99.502 113.917 100.046 114.157 100.398 114.461C100.798 114.813 101.054 115.261 101.054 115.261C101.054 115.261 101.054 114.557 101.054 114.061ZM98.894 121.197C99.71 121.197 100.99 120.605 100.99 118.125C100.99 115.725 99.774 115.005 98.894 114.973C97.486 114.925 96.654 115.965 96.654 117.997C96.654 120.189 97.534 121.197 98.894 121.197ZM111.409 113.965C114.305 113.885 115.169 116.125 115.169 117.709C115.169 117.965 115.169 118.285 115.137 118.509V118.525L109.377 118.541C109.377 118.541 109.249 121.245 111.649 121.245C113.297 121.245 113.697 120.077 113.697 120.077L115.057 120.445C115.057 120.445 114.369 122.381 111.777 122.381C109.969 122.381 108.913 121.645 108.368 120.525C107.361 118.413 107.681 114.077 111.409 113.965ZM113.681 117.517C113.681 117.517 113.809 115.021 111.521 115.021C109.377 115.021 109.377 117.517 109.377 117.517H113.681ZM118.005 122.221H116.645V111.085H118.005V122.221ZM125.77 118.525C126.138 118.957 126.394 119.565 126.314 120.269C126.074 122.765 121.962 122.925 120.378 121.533C119.738 120.989 119.546 120.301 119.546 120.301L120.938 119.997C120.938 119.997 121.082 120.989 122.634 121.197C123.226 121.261 124.122 121.165 124.49 120.877C124.922 120.573 125.114 119.965 124.746 119.437C124.106 118.541 121.354 119.053 120.266 117.949C119.194 116.845 119.402 115.373 120.522 114.557C121.642 113.725 123.962 113.869 124.826 114.333C125.546 114.701 125.994 115.213 126.25 116.045L124.986 116.429C124.986 116.429 124.858 115.837 124.426 115.517C123.642 114.941 122.346 114.989 121.722 115.213C120.778 115.565 120.698 116.525 121.226 117.021C122.026 117.741 124.762 117.309 125.77 118.525ZM131.096 113.965C133.992 113.885 134.856 116.125 134.856 117.709C134.856 117.965 134.856 118.285 134.824 118.509V118.525L129.064 118.541C129.064 118.541 128.936 121.245 131.336 121.245C132.984 121.245 133.384 120.077 133.384 120.077L134.744 120.445C134.744 120.445 134.056 122.381 131.464 122.381C129.656 122.381 128.6 121.645 128.056 120.525C127.048 118.413 127.368 114.077 131.096 113.965ZM133.368 117.517C133.368 117.517 133.496 115.021 131.208 115.021C129.064 115.021 129.064 117.517 129.064 117.517H133.368ZM136.333 120.605H137.773V122.221L137.309 123.853H136.653V122.221H136.333V120.605ZM148.736 110.909C152.208 110.909 154.24 113.261 154.24 116.637C154.24 120.109 152.016 122.365 148.736 122.365C145.36 122.365 143.216 120.429 143.216 116.637C143.216 112.829 145.68 110.909 148.736 110.909ZM148.736 121.133C151.008 121.133 152.784 119.373 152.784 116.637C152.784 113.949 151.008 112.125 148.736 112.125C146.48 112.125 144.672 113.821 144.672 116.669C144.672 119.629 146.336 121.133 148.736 121.133ZM155.74 119.933C155.66 119.389 155.628 117.949 155.628 117.949V114.157H157.1V117.085C157.1 117.085 157.1 117.277 157.1 117.357V117.613C157.1 118.381 157.116 118.797 157.116 118.797C157.116 119.837 157.372 121.437 159.18 121.229C160.508 121.085 161.068 120.173 161.1 118.797V114.157H162.524V122.253H161.164V121.069C161.164 121.069 160.604 122.381 158.556 122.381C157.34 122.381 155.996 121.773 155.74 119.933ZM168.766 115.437C168.766 115.437 168.446 115.165 167.63 115.197C166.43 115.229 165.854 116.093 165.726 116.941C165.678 117.245 165.694 118.653 165.694 118.653L165.71 122.221H164.302V114.141H165.694V115.213C165.694 115.213 166.238 114.077 167.838 113.997C168.782 113.965 169.406 114.381 169.406 114.381C169.102 114.877 169.086 114.941 168.766 115.437ZM181.445 116.461C181.525 117.005 181.557 118.429 181.557 118.429V122.221H180.085V119.309C180.085 119.309 180.085 119.101 180.085 119.037V118.765C180.085 117.997 180.069 117.581 180.069 117.581C180.069 116.557 179.813 114.957 178.005 115.149C176.677 115.309 176.117 116.221 176.085 117.597V122.237L174.661 122.221V111.101H176.021V115.309C176.021 115.309 176.565 113.997 178.629 113.997C179.845 113.997 181.173 114.605 181.445 116.461ZM183.543 122.237V114.157H184.967L184.935 122.237H183.543ZM184.967 112.477H183.543V111.085H184.967V112.477ZM192.46 114.061H193.82V122.221H193.804C193.788 123.933 192.54 125.309 190.3 125.309C187.932 125.309 187.18 124.141 187.18 124.141L188.316 123.325C188.316 123.325 188.764 124.093 190.3 124.093C192.236 124.093 192.476 122.621 192.46 121.677V120.893C192.46 120.893 192.268 121.357 191.996 121.597C191.612 121.949 191.02 122.365 190.012 122.365C188.876 122.365 186.716 121.805 186.716 118.093C186.716 114.173 188.924 113.917 190.076 113.917C190.908 113.917 191.452 114.157 191.804 114.461C192.204 114.813 192.46 115.261 192.46 115.261C192.46 115.261 192.46 114.557 192.46 114.061ZM190.3 121.197C191.116 121.197 192.396 120.605 192.396 118.125C192.396 115.725 191.18 115.005 190.3 114.973C188.892 114.925 188.06 115.965 188.06 117.997C188.06 120.189 188.94 121.197 190.3 121.197ZM202.367 116.461C202.447 117.005 202.479 118.429 202.479 118.429V122.221H201.007V119.309C201.007 119.309 201.007 119.101 201.007 119.037V118.765C201.007 117.997 200.991 117.581 200.991 117.581C200.991 116.557 200.735 114.957 198.927 115.149C197.599 115.309 197.039 116.221 197.007 117.597V122.237L195.583 122.221V111.101H196.943V115.309C196.943 115.309 197.487 113.997 199.551 113.997C200.767 113.997 202.095 114.605 202.367 116.461ZM205.537 122.221H204.177V111.085H205.537V122.221ZM214.694 114.157L211.094 123.373C210.07 125.629 207.654 125.213 207.654 125.213L207.894 123.885C207.894 123.885 208.15 123.981 208.614 123.885C209.158 123.757 209.83 123.405 210.182 122.125L206.79 114.157H208.342L210.486 119.357L210.918 120.621L211.302 119.357L213.222 114.157H214.694ZM222.23 118.781C222.23 120.525 222.07 121.165 223.126 121.165C223.67 121.165 224.086 120.973 224.086 120.973L224.422 122.205C221.094 122.845 220.838 121.533 220.838 119.501C220.838 119.485 220.838 119.469 220.838 119.437V116.365L220.87 115.165L219.622 115.213V114.109L220.87 114.141L220.838 113.245L220.854 111.629L222.246 111.069L222.23 113.149L222.198 114.141L223.206 114.109H224.15V115.213H223.206L222.182 115.165L222.23 116.349V118.781ZM230.297 115.437C230.297 115.437 229.977 115.165 229.161 115.197C227.961 115.229 227.385 116.093 227.257 116.941C227.209 117.245 227.225 118.653 227.225 118.653L227.241 122.221H225.833V114.141H227.225V115.213C227.225 115.213 227.769 114.077 229.369 113.997C230.313 113.965 230.937 114.381 230.937 114.381C230.633 114.877 230.617 114.941 230.297 115.437ZM238.35 120.749L238.734 122.205L237.198 122.221L237.086 121.037C237.086 121.037 236.878 121.437 236.494 121.773C236.35 121.901 236.158 121.981 235.95 122.077C235.518 122.269 234.942 122.381 234.286 122.381C230.414 122.381 230.43 118.109 233.55 117.677C233.982 117.629 234.51 117.565 235.022 117.501C236.174 117.373 236.91 117.197 236.99 116.797C236.99 116.797 237.166 116.173 236.606 115.613C235.934 114.909 233.294 114.781 232.894 116.333L231.598 116.013C231.742 115.517 231.998 115.053 232.43 114.733C232.814 114.429 233.246 114.221 233.742 114.109C234.382 113.965 236.334 113.821 237.246 114.525C238.366 115.373 238.286 116.541 238.318 117.469L238.35 120.749ZM237.006 119.053V118.141C235.966 118.749 233.758 118.445 232.958 119.181C232.478 119.597 232.558 120.477 233.134 120.909C233.486 121.181 233.95 121.261 234.446 121.261C235.15 121.261 235.902 121.021 236.398 120.509C236.75 120.157 237.006 119.709 237.006 119.053ZM240.433 122.237V114.157H241.857L241.825 122.237H240.433ZM241.857 112.477H240.433V111.085H241.857V112.477ZM250.695 116.461C250.775 117.005 250.807 118.429 250.807 118.429V122.221L249.335 122.237V119.309C249.335 119.309 249.335 119.101 249.335 119.037V118.765C249.335 118.013 249.319 117.597 249.319 117.597C249.319 116.557 249.063 114.957 247.255 115.165C245.927 115.309 245.367 116.221 245.335 117.597V122.237H243.911V114.141H245.271V115.309C245.271 115.309 245.815 113.997 247.879 113.997C249.095 113.997 250.423 114.621 250.695 116.461ZM255.737 113.965C258.633 113.885 259.497 116.125 259.497 117.709C259.497 117.965 259.497 118.285 259.465 118.509V118.525L253.705 118.541C253.705 118.541 253.577 121.245 255.977 121.245C257.625 121.245 258.025 120.077 258.025 120.077L259.385 120.445C259.385 120.445 258.697 122.381 256.105 122.381C254.297 122.381 253.241 121.645 252.697 120.525C251.689 118.413 252.009 114.077 255.737 113.965ZM258.009 117.517C258.009 117.517 258.137 115.021 255.849 115.021C253.705 115.021 253.705 117.517 253.705 117.517H258.009ZM266.365 111.085H267.725V122.237H266.365V121.165C266.365 121.165 265.677 122.365 263.933 122.365C262.797 122.365 260.669 121.821 260.669 118.125C260.669 114.237 262.861 113.981 263.997 113.981C265.741 113.981 266.365 115.277 266.365 115.277C266.365 115.277 266.365 111.581 266.365 111.085ZM264.237 121.213C265.037 121.213 266.301 120.621 266.301 118.157C266.301 115.773 265.101 115.069 264.237 115.037C262.829 114.973 261.997 116.029 261.997 118.029C261.997 120.205 262.877 121.213 264.237 121.213ZM277.953 115.437C277.953 115.437 277.633 115.165 276.817 115.197C275.617 115.229 275.041 116.093 274.913 116.941C274.865 117.245 274.881 118.653 274.881 118.653L274.897 122.221H273.489V114.141H274.881V115.213C274.881 115.213 275.425 114.077 277.025 113.997C277.969 113.965 278.593 114.381 278.593 114.381C278.289 114.877 278.273 114.941 277.953 115.437ZM282.346 113.965C285.242 113.885 286.106 116.125 286.106 117.709C286.106 117.965 286.106 118.285 286.074 118.509V118.525L280.314 118.541C280.314 118.541 280.186 121.245 282.586 121.245C284.234 121.245 284.634 120.077 284.634 120.077L285.994 120.445C285.994 120.445 285.306 122.381 282.714 122.381C280.906 122.381 279.85 121.645 279.306 120.525C278.298 118.413 278.618 114.077 282.346 113.965ZM284.618 117.517C284.618 117.517 284.746 115.021 282.458 115.021C280.314 115.021 280.314 117.517 280.314 117.517H284.618ZM291.391 114.045C292.527 114.045 294.671 114.605 294.671 118.285C294.671 122.205 292.463 122.493 291.311 122.445C290.463 122.413 289.855 122.061 289.471 121.741C289.103 121.437 288.927 120.925 288.927 120.925C288.927 120.925 288.927 124.429 288.927 124.925H287.583V114.189H288.927V115.501C288.927 115.501 289.087 114.973 289.439 114.701C289.823 114.381 290.447 114.045 291.391 114.045ZM291.087 121.341C292.495 121.405 293.327 120.349 293.327 118.333C293.327 116.157 292.447 115.149 291.087 115.149C290.271 115.149 289.007 115.725 289.007 118.221C289.007 120.589 290.207 121.309 291.087 121.341ZM302.161 118.525C302.529 118.957 302.785 119.565 302.705 120.269C302.465 122.765 298.353 122.925 296.769 121.533C296.129 120.989 295.937 120.301 295.937 120.301L297.329 119.997C297.329 119.997 297.473 120.989 299.025 121.197C299.617 121.261 300.513 121.165 300.881 120.877C301.313 120.573 301.505 119.965 301.137 119.437C300.497 118.541 297.745 119.053 296.657 117.949C295.585 116.845 295.793 115.373 296.913 114.557C298.033 113.725 300.353 113.869 301.217 114.333C301.937 114.701 302.385 115.213 302.641 116.045L301.377 116.429C301.377 116.429 301.249 115.837 300.817 115.517C300.033 114.941 298.737 114.989 298.113 115.213C297.169 115.565 297.089 116.525 297.617 117.021C298.417 117.741 301.153 117.309 302.161 118.525ZM314.991 120.749L315.375 122.205L313.839 122.221L313.727 121.037C313.727 121.037 313.519 121.437 313.135 121.773C312.991 121.901 312.799 121.981 312.591 122.077C312.159 122.269 311.583 122.381 310.927 122.381C307.055 122.381 307.071 118.109 310.191 117.677C310.623 117.629 311.151 117.565 311.663 117.501C312.815 117.373 313.551 117.197 313.631 116.797C313.631 116.797 313.807 116.173 313.247 115.613C312.575 114.909 309.935 114.781 309.535 116.333L308.239 116.013C308.383 115.517 308.639 115.053 309.071 114.733C309.455 114.429 309.887 114.221 310.383 114.109C311.023 113.965 312.975 113.821 313.887 114.525C315.007 115.373 314.927 116.541 314.959 117.469L314.991 120.749ZM313.647 119.053V118.141C312.607 118.749 310.399 118.445 309.599 119.181C309.119 119.597 309.199 120.477 309.775 120.909C310.127 121.181 310.591 121.261 311.087 121.261C311.791 121.261 312.543 121.021 313.039 120.509C313.391 120.157 313.647 119.709 313.647 119.053ZM321.25 115.437C321.25 115.437 320.93 115.165 320.114 115.197C318.914 115.229 318.338 116.093 318.21 116.941C318.162 117.245 318.178 118.653 318.178 118.653L318.194 122.221H316.786V114.141H318.178V115.213C318.178 115.213 318.722 114.077 320.322 113.997C321.266 113.965 321.89 114.381 321.89 114.381C321.586 114.877 321.57 114.941 321.25 115.437ZM325.643 113.965C328.539 113.885 329.403 116.125 329.403 117.709C329.403 117.965 329.403 118.285 329.371 118.509V118.525L323.611 118.541C323.611 118.541 323.483 121.245 325.883 121.245C327.531 121.245 327.931 120.077 327.931 120.077L329.291 120.445C329.291 120.445 328.603 122.381 326.011 122.381C324.203 122.381 323.147 121.645 322.603 120.525C321.595 118.413 321.915 114.077 325.643 113.965ZM327.915 117.517C327.915 117.517 328.043 115.021 325.755 115.021C323.611 115.021 323.611 117.517 323.611 117.517H327.915ZM340.88 118.525C341.248 118.957 341.504 119.565 341.424 120.269C341.184 122.765 337.072 122.925 335.488 121.533C334.848 120.989 334.656 120.301 334.656 120.301L336.048 119.997C336.048 119.997 336.192 120.989 337.744 121.197C338.336 121.261 339.232 121.165 339.6 120.877C340.032 120.573 340.224 119.965 339.856 119.437C339.216 118.541 336.464 119.053 335.376 117.949C334.304 116.845 334.512 115.373 335.632 114.557C336.752 113.725 339.072 113.869 339.936 114.333C340.656 114.701 341.104 115.213 341.36 116.045L340.096 116.429C340.096 116.429 339.968 115.837 339.536 115.517C338.752 114.941 337.456 114.989 336.832 115.213C335.888 115.565 335.808 116.525 336.336 117.021C337.136 117.741 339.872 117.309 340.88 118.525ZM344.808 118.781C344.808 120.525 344.648 121.165 345.704 121.165C346.248 121.165 346.664 120.973 346.664 120.973L347 122.205C343.672 122.845 343.416 121.533 343.416 119.501C343.416 119.485 343.416 119.469 343.416 119.437V116.365L343.448 115.165L342.2 115.213V114.109L343.448 114.141L343.416 113.245L343.432 111.629L344.824 111.069L344.808 113.149L344.776 114.141L345.784 114.109H346.728V115.213H345.784L344.76 115.165L344.808 116.349V118.781ZM355.147 120.749L355.531 122.205L353.995 122.221L353.883 121.037C353.883 121.037 353.675 121.437 353.291 121.773C353.147 121.901 352.955 121.981 352.747 122.077C352.315 122.269 351.739 122.381 351.083 122.381C347.211 122.381 347.227 118.109 350.347 117.677C350.779 117.629 351.307 117.565 351.819 117.501C352.971 117.373 353.707 117.197 353.787 116.797C353.787 116.797 353.963 116.173 353.403 115.613C352.731 114.909 350.091 114.781 349.691 116.333L348.395 116.013C348.539 115.517 348.795 115.053 349.227 114.733C349.611 114.429 350.043 114.221 350.539 114.109C351.179 113.965 353.131 113.821 354.043 114.525C355.163 115.373 355.083 116.541 355.115 117.469L355.147 120.749ZM353.803 119.053V118.141C352.763 118.749 350.555 118.445 349.755 119.181C349.275 119.597 349.355 120.477 349.931 120.909C350.283 121.181 350.747 121.261 351.243 121.261C351.947 121.261 352.699 121.021 353.195 120.509C353.547 120.157 353.803 119.709 353.803 119.053ZM363.726 116.461C363.806 117.005 363.838 118.429 363.838 118.429V122.221L362.366 122.237V119.309C362.366 119.309 362.366 119.101 362.366 119.037V118.765C362.366 118.013 362.35 117.597 362.35 117.597C362.35 116.557 362.094 114.957 360.286 115.165C358.958 115.309 358.398 116.221 358.366 117.597V122.237H356.942V114.141H358.302V115.309C358.302 115.309 358.846 113.997 360.91 113.997C362.126 113.997 363.454 114.621 363.726 116.461ZM370.928 111.085H372.288V122.237H370.928V121.165C370.928 121.165 370.24 122.365 368.496 122.365C367.36 122.365 365.232 121.821 365.232 118.125C365.232 114.237 367.424 113.981 368.56 113.981C370.304 113.981 370.928 115.277 370.928 115.277C370.928 115.277 370.928 111.581 370.928 111.085ZM368.8 121.213C369.6 121.213 370.864 120.621 370.864 118.157C370.864 115.773 369.664 115.069 368.8 115.037C367.392 114.973 366.56 116.029 366.56 118.029C366.56 120.205 367.44 121.213 368.8 121.213ZM374.34 122.237V114.157H375.764L375.732 122.237H374.34ZM375.764 112.477H374.34V111.085H375.764V112.477ZM384.601 116.461C384.681 117.005 384.713 118.429 384.713 118.429V122.221L383.241 122.237V119.309C383.241 119.309 383.241 119.101 383.241 119.037V118.765C383.241 118.013 383.225 117.597 383.225 117.597C383.225 116.557 382.969 114.957 381.161 115.165C379.833 115.309 379.273 116.221 379.241 117.597V122.237H377.817V114.141H379.177V115.309C379.177 115.309 379.721 113.997 381.785 113.997C383.001 113.997 384.329 114.621 384.601 116.461ZM391.851 114.061H393.211V122.221H393.195C393.179 123.933 391.931 125.309 389.691 125.309C387.323 125.309 386.571 124.141 386.571 124.141L387.707 123.325C387.707 123.325 388.155 124.093 389.691 124.093C391.627 124.093 391.867 122.621 391.851 121.677V120.893C391.851 120.893 391.659 121.357 391.387 121.597C391.003 121.949 390.411 122.365 389.403 122.365C388.267 122.365 386.107 121.805 386.107 118.093C386.107 114.173 388.315 113.917 389.467 113.917C390.299 113.917 390.843 114.157 391.195 114.461C391.595 114.813 391.851 115.261 391.851 115.261C391.851 115.261 391.851 114.557 391.851 114.061ZM389.691 121.197C390.507 121.197 391.787 120.605 391.787 118.125C391.787 115.725 390.571 115.005 389.691 114.973C388.283 114.925 387.451 115.965 387.451 117.997C387.451 120.189 388.331 121.197 389.691 121.197ZM28.06 133.981C29.212 133.917 31.532 134.349 31.532 138.173C31.532 141.853 29.276 142.365 28.14 142.365C26.396 142.365 25.708 141.165 25.708 141.165V142.237H24.364V131.085H25.708C25.708 131.581 25.708 135.277 25.708 135.277C25.708 135.277 25.82 135.053 26.06 134.781C26.412 134.413 27.052 134.029 28.06 133.981ZM27.836 141.213C29.196 141.213 30.204 140.237 30.204 138.061C30.204 136.093 29.244 134.973 27.836 135.037C26.972 135.069 25.772 135.773 25.772 138.157C25.772 140.621 27.036 141.213 27.836 141.213ZM40.4123 134.157L36.8123 143.373C35.7883 145.629 33.3723 145.213 33.3723 145.213L33.6123 143.885C33.6123 143.885 33.8683 143.981 34.3323 143.885C34.8763 143.757 35.5483 143.405 35.9003 142.125L32.5083 134.157H34.0603L36.2043 139.357L36.6363 140.621L37.0203 139.357L38.9403 134.157H40.4123ZM50.1249 135.437C50.1249 135.437 49.8049 135.165 48.9889 135.197C47.7889 135.229 47.2129 136.093 47.0849 136.941C47.0369 137.245 47.0529 138.653 47.0529 138.653L47.0689 142.221H45.6609V134.141H47.0529V135.213C47.0529 135.213 47.5969 134.077 49.1969 133.997C50.1409 133.965 50.7649 134.381 50.7649 134.381C50.4609 134.877 50.4449 134.941 50.1249 135.437ZM54.5179 133.965C57.4139 133.885 58.2779 136.125 58.2779 137.709C58.2779 137.965 58.2779 138.285 58.2459 138.509V138.525L52.4859 138.541C52.4859 138.541 52.3579 141.245 54.7579 141.245C56.4059 141.245 56.8059 140.077 56.8059 140.077L58.1659 140.445C58.1659 140.445 57.4779 142.381 54.8859 142.381C53.0779 142.381 52.0219 141.645 51.4779 140.525C50.4699 138.413 50.7899 134.077 54.5179 133.965ZM56.7899 137.517C56.7899 137.517 56.9179 135.021 54.6299 135.021C52.4859 135.021 52.4859 137.517 52.4859 137.517H56.7899ZM66.4906 140.749L66.8746 142.205L65.3386 142.221L65.2266 141.037C65.2266 141.037 65.0186 141.437 64.6346 141.773C64.4906 141.901 64.2986 141.981 64.0906 142.077C63.6586 142.269 63.0826 142.381 62.4266 142.381C58.5546 142.381 58.5706 138.109 61.6906 137.677C62.1226 137.629 62.6506 137.565 63.1626 137.501C64.3146 137.373 65.0506 137.197 65.1306 136.797C65.1306 136.797 65.3066 136.173 64.7466 135.613C64.0746 134.909 61.4346 134.781 61.0346 136.333L59.7386 136.013C59.8826 135.517 60.1386 135.053 60.5706 134.733C60.9546 134.429 61.3866 134.221 61.8826 134.109C62.5226 133.965 64.4746 133.821 65.3866 134.525C66.5066 135.373 66.4266 136.541 66.4586 137.469L66.4906 140.749ZM65.1466 139.053V138.141C64.1066 138.749 61.8986 138.445 61.0986 139.181C60.6186 139.597 60.6986 140.477 61.2746 140.909C61.6266 141.181 62.0906 141.261 62.5866 141.261C63.2906 141.261 64.0426 141.021 64.5386 140.509C64.8906 140.157 65.1466 139.709 65.1466 139.053ZM73.6779 131.085H75.0379V142.237H73.6779V141.165C73.6779 141.165 72.9899 142.365 71.2459 142.365C70.1099 142.365 67.9819 141.821 67.9819 138.125C67.9819 134.237 70.1739 133.981 71.3099 133.981C73.0539 133.981 73.6779 135.277 73.6779 135.277C73.6779 135.277 73.6779 131.581 73.6779 131.085ZM71.5499 141.213C72.3499 141.213 73.6139 140.621 73.6139 138.157C73.6139 135.773 72.4139 135.069 71.5499 135.037C70.1419 134.973 69.3099 136.029 69.3099 138.029C69.3099 140.205 70.1899 141.213 71.5499 141.213ZM84.1935 134.157L80.5935 143.373C79.5695 145.629 77.1535 145.213 77.1535 145.213L77.3935 143.885C77.3935 143.885 77.6495 143.981 78.1135 143.885C78.6575 143.757 79.3295 143.405 79.6815 142.125L76.2895 134.157H77.8415L79.9855 139.357L80.4175 140.621L80.8015 139.357L82.7215 134.157H84.1935ZM91.7301 138.781C91.7301 140.525 91.5701 141.165 92.6261 141.165C93.1701 141.165 93.5861 140.973 93.5861 140.973L93.9221 142.205C90.5941 142.845 90.3381 141.533 90.3381 139.501C90.3381 139.485 90.3381 139.469 90.3381 139.437V136.365L90.3701 135.165L89.1221 135.213V134.109L90.3701 134.141L90.3381 133.245L90.3541 131.629L91.7461 131.069L91.7301 133.149L91.6981 134.141L92.7061 134.109H93.6501V135.213H92.7061L91.6821 135.165L91.7301 136.349V138.781ZM98.3676 133.917C101.008 133.917 102.208 135.757 102.208 138.141C102.208 140.109 101.344 142.381 98.3676 142.381C95.5356 142.365 94.5276 140.269 94.5276 138.237C94.5276 135.693 95.6316 133.917 98.3676 133.917ZM98.3676 141.261C99.7756 141.261 100.736 140.221 100.736 137.965C100.736 135.901 99.6316 135.005 98.3196 135.005C97.0396 135.005 95.9996 136.109 95.9996 137.981C95.9996 140.301 96.9436 141.261 98.3676 141.261ZM114.398 136.461C114.478 137.005 114.51 138.429 114.51 138.429V142.221H113.038V139.309C113.038 139.309 113.038 139.101 113.038 139.037V138.765C113.038 137.997 113.022 137.581 113.022 137.581C113.022 136.557 112.766 134.957 110.958 135.149C109.63 135.309 109.07 136.221 109.038 137.597V142.237L107.614 142.221V131.101H108.974V135.309C108.974 135.309 109.518 133.997 111.582 133.997C112.798 133.997 114.126 134.605 114.398 136.461ZM119.44 133.965C122.336 133.885 123.2 136.125 123.2 137.709C123.2 137.965 123.2 138.285 123.168 138.509V138.525L117.408 138.541C117.408 138.541 117.28 141.245 119.68 141.245C121.328 141.245 121.728 140.077 121.728 140.077L123.088 140.445C123.088 140.445 122.4 142.381 119.808 142.381C118 142.381 116.944 141.645 116.4 140.525C115.392 138.413 115.712 134.077 119.44 133.965ZM121.712 137.517C121.712 137.517 121.84 135.021 119.552 135.021C117.408 135.021 117.408 137.517 117.408 137.517H121.712ZM126.037 142.221H124.677V131.085H126.037V142.221ZM131.61 134.045C132.746 134.045 134.89 134.605 134.89 138.285C134.89 142.205 132.682 142.493 131.53 142.445C130.682 142.413 130.074 142.061 129.69 141.741C129.322 141.437 129.146 140.925 129.146 140.925C129.146 140.925 129.146 144.429 129.146 144.925H127.802V134.189H129.146V135.501C129.146 135.501 129.306 134.973 129.658 134.701C130.042 134.381 130.666 134.045 131.61 134.045ZM131.306 141.341C132.714 141.405 133.546 140.349 133.546 138.333C133.546 136.157 132.666 135.149 131.306 135.149C130.49 135.149 129.226 135.725 129.226 138.221C129.226 140.589 130.426 141.309 131.306 141.341Z" fill="#111212" fill-opacity="0.75"/>
<rect x="23.5" y="181.221" width="381" height="47" rx="23.5" fill="#111212"/>
<path d="M177.052 208.061L182.028 208.093V210.237H176.076H174.652V199.085H177.052V208.061ZM185.581 208.269H191.117L191.101 210.221L183.309 210.237V199.085H191.101V201.149L185.565 201.165V203.517H189.789L189.773 205.453L185.565 205.469L185.581 208.269ZM201.069 199.053V200.957H197.773L197.789 210.221H195.597V200.973L192.333 200.957V199.053H201.069ZM202.48 199.149H204.768V201.469L204.112 203.773H203.136V201.469H202.48V199.149ZM212.065 203.949C213.393 204.349 214.705 205.213 214.737 207.101C214.801 210.685 209.249 211.213 207.281 209.293C206.321 208.365 206.033 207.373 206.033 207.373L208.257 206.733C208.257 206.733 208.593 208.189 210.065 208.381C211.505 208.573 212.273 208.077 212.401 207.469C212.561 206.621 212.049 205.981 210.641 205.661C209.169 205.309 206.929 204.877 206.433 203.261C205.665 200.797 207.441 198.781 210.289 198.781C212.993 198.781 214.145 200.461 214.465 201.453L212.321 202.061C212.321 202.061 212.321 201.741 211.921 201.309C211.329 200.653 210.065 200.605 209.377 200.925C208.561 201.293 208.337 202.029 208.785 202.733C209.121 203.309 210.465 203.469 212.065 203.949ZM228.476 199.053V200.957H225.18L225.196 210.221H223.004V200.973L219.74 200.957V199.053H228.476ZM233.13 199.053L237.338 210.237H234.826L233.994 207.981H230.218L229.402 210.221L227.018 210.237L231.29 199.053H233.13ZM231.034 205.917H233.258L232.138 202.509L231.034 205.917ZM241.021 208.061L245.997 208.093V210.237H240.045H238.621V199.085H241.021V208.061ZM251.517 204.653L255.885 210.237L252.989 210.221L249.533 205.405V210.221L247.277 210.237V199.085H249.533V203.917L252.749 199.085L255.405 199.101L251.517 204.653Z" fill="#22FFFF"/>
</g>
<defs>
<linearGradient id="paint0_linear_258_663" x1="428.5" y1="252.221" x2="208.393" y2="-122.485" gradientUnits="userSpaceOnUse">
<stop stop-color="#2FFFFF"/>
<stop offset="0.25" stop-color="#26F2F2"/>
<stop offset="0.5" stop-color="#2EB9BA"/>
<stop offset="0.75" stop-color="#19A3A4"/>
<stop offset="1" stop-color="#00A2A3"/>
</linearGradient>
<clipPath id="clip0_258_663">
<path d="M428.5 0.221436H-0.5V172.221C-0.5 216.404 35.3172 252.221 79.5 252.221H348.5C392.683 252.221 428.5 216.404 428.5 172.221V0.221436Z" fill="white"/>
</clipPath>
</defs>
</svg>
