<svg width="1440" height="100" viewBox="0 0 1440 100" fill="none" xmlns="http://www.w3.org/2000/svg">
<path d="M0 100H21.9C43.725 100 87.525 100 131.1 100C174.75 100 218.25 100 261.9 100C305.475 100 349.275 100 392.85 100C436.5 100 480 100 523.65 100C567.225 100 611.025 100 654.6 100C698.25 100 741.75 100 785.4 100C828.975 100 872.775 100 916.35 100C960 100 1003.5 100 1047.15 100C1090.72 100 1134.53 100 1178.1 100C1221.75 100 1265.25 100 1308.9 100C1352.47 100 1396.28 100 1418.1 100H1440V36.9729L1418.1 32.1793C1396.28 27.3413 1352.47 17.7541 1308.9 19.3076C1265.25 20.8611 1221.75 33.5553 1178.1 34.3986C1134.53 35.1975 1090.72 24.1012 1047.15 16.9108C1003.5 9.76475 960 6.48024 916.35 4.03905C872.775 1.59786 828.975 0 785.4 0C741.75 0 698.25 1.59787 654.6 10.4305C611.025 19.2188 567.225 35.1975 523.65 46.3826C480 57.5233 436.5 63.9148 392.85 63.9148C349.275 63.9148 305.475 57.5233 261.9 50.3773C218.25 43.1869 174.75 35.1975 131.1 30.4039C87.525 25.5659 43.725 23.968 21.9 23.1247L0 22.3258V100Z" fill="#003A40"/>
</svg>
