<svg width="1440" height="370" viewBox="0 0 1440 370" fill="none" xmlns="http://www.w3.org/2000/svg">
<g filter="url(#filter0_d_116_6406)">
<path d="M0 293.566L21.9 294.362C43.725 295.202 87.525 296.794 131.1 301.614C174.75 306.389 218.25 314.349 261.9 321.513C305.475 328.632 349.275 335 392.85 335C436.5 335 480 328.632 523.65 317.533C567.225 306.389 611.025 290.47 654.6 281.715C698.25 272.915 741.75 271.323 785.4 271.323C828.975 271.323 872.775 272.915 916.35 275.347C960 277.779 1003.5 281.051 1047.15 288.171C1090.72 295.334 1134.53 306.389 1178.1 305.593C1221.75 304.753 1265.25 292.106 1308.9 290.559C1352.47 289.011 1396.28 298.562 1418.1 303.382L1440 308.158V206.894L1418.1 202.914C1396.28 198.934 1352.47 190.974 1308.9 202.914C1265.25 214.853 1221.75 246.692 1178.1 248.24C1134.53 249.787 1090.72 221.044 1047.15 208.309C1003.5 195.529 960 198.801 916.35 196.413C872.775 194.07 828.975 186.11 785.4 184.474C741.75 182.882 698.25 187.569 654.6 200.349C611.025 213.085 567.225 233.868 523.65 238.644C480 243.464 436.5 232.232 392.85 233.072C349.275 233.868 305.475 246.692 261.9 239.528C218.25 232.409 174.75 205.258 131.1 189.338C87.525 173.419 43.725 168.732 21.9 166.344L0 164V293.566Z" fill="#00686B"/>
</g>
<defs>
<filter id="filter0_d_116_6406" x="-118" y="0" width="1676" height="407" filterUnits="userSpaceOnUse" color-interpolation-filters="sRGB">
<feFlood flood-opacity="0" result="BackgroundImageFix"/>
<feColorMatrix in="SourceAlpha" type="matrix" values="0 0 0 0 0 0 0 0 0 0 0 0 0 0 0 0 0 0 127 0" result="hardAlpha"/>
<feOffset dy="-46"/>
<feGaussianBlur stdDeviation="59"/>
<feColorMatrix type="matrix" values="0 0 0 0 0 0 0 0 0 0 0 0 0 0 0 0 0 0 0.18 0"/>
<feBlend mode="normal" in2="BackgroundImageFix" result="effect1_dropShadow_116_6406"/>
<feBlend mode="normal" in="SourceGraphic" in2="effect1_dropShadow_116_6406" result="shape"/>
</filter>
</defs>
</svg>
