<svg width="91" height="33" viewBox="0 0 91 33" fill="none" xmlns="http://www.w3.org/2000/svg">
<path d="M87.1151 32.2214C87.606 32.222 88.0923 32.1078 88.5461 31.8854C88.9999 31.663 89.4123 31.3366 89.7599 30.925C90.1074 30.5134 90.3832 30.0246 90.5716 29.4865C90.7599 28.9484 90.8571 28.3716 90.8576 27.7889C90.8581 27.2062 90.7619 26.6291 90.5744 26.0906C90.387 25.552 90.112 25.0626 89.7652 24.6501C89.4184 24.2377 89.0065 23.9104 88.553 23.6869C88.0996 23.4633 87.6136 23.348 87.1226 23.3474C86.131 23.3462 85.1796 23.8126 84.4777 24.6438C83.7759 25.4751 83.381 26.6032 83.38 27.78C83.379 28.9567 83.772 30.0858 84.4724 30.9187C85.1729 31.7516 86.1235 32.2203 87.1151 32.2214ZM83.3725 15.6997H80.1786C78.1269 15.6997 77.0222 17.528 77.0222 20.5693V31.5659H70.9725V15.6997H68.4023C66.3469 15.6997 65.246 17.528 65.246 20.5693V31.5659H59.1963V9.83125H65.246V13.1311C66.238 10.5715 67.5982 9.83125 69.616 9.83125H77.026V13.1311C78.018 10.5715 79.3745 9.83125 81.3923 9.83125H83.3725V15.6997ZM57.8736 22.3931H45.2519C45.5826 24.8279 46.8677 26.2192 49.032 26.2192C50.6478 26.2192 51.7826 25.4388 52.1508 24.0475L57.5054 25.8312C56.1864 29.6127 52.9211 31.9137 49.032 31.9137C42.4638 31.9137 39.454 25.8714 39.454 20.6986C39.454 15.615 42.0955 9.52801 48.66 9.52801C55.6341 9.52801 57.945 15.6997 57.945 20.266C57.945 21.2649 57.9074 21.916 57.8698 22.3931H57.8736ZM52.0043 18.1791C51.854 16.3062 50.7192 14.567 48.6638 14.567C46.7549 14.567 45.6201 15.5704 45.2519 18.1791H52.0043ZM28.8877 31.5615H34.2084L40.848 9.82679H34.7607L31.5292 22.4778L28.2301 9.82679H22.1691L28.8877 31.5615ZM4.08766 31.5615H10.1073L10.1073 15.6952H15.8338L15.8338 31.5615H21.8121V9.82679L10.1073 9.82679V8.48008C10.1073 6.99959 10.9903 6.08989 12.3844 6.08989H15.8338V0.221436L11.3849 0.221436C7.01857 0.221436 4.0839 3.39646 4.0839 8.04752V9.83125H0.675781L0.675781 15.6997H4.08766L4.08766 31.5659V31.5615Z" fill="#111212" fill-opacity="0.2"/>
</svg>
