<svg width="102" height="33" viewBox="0 0 102 33" fill="none" xmlns="http://www.w3.org/2000/svg">
<path d="M98.1084 19.7639L100.897 21.5707C99.992 22.8664 97.8273 25.0894 94.0848 25.0894C89.4375 25.0894 85.9766 21.5946 85.9766 17.1487C85.9766 12.4178 89.4742 9.20819 93.6936 9.20819C97.9372 9.20819 100.016 12.4889 100.689 14.2601L101.056 15.1636L90.1225 19.5618C90.9541 21.1548 92.2506 21.9631 94.0848 21.9631C95.9195 21.9631 97.1912 21.0834 98.1084 19.7639ZM89.5355 16.8993L96.8367 13.9512C96.433 12.9646 95.2347 12.2634 93.8035 12.2634C91.9814 12.2634 89.4499 13.8325 89.5355 16.8993Z" fill="#111212" fill-opacity="0.2"/>
<path d="M80.7031 1.11317H84.2251V24.3644H80.7031V1.11298V1.11317Z" fill="#111212" fill-opacity="0.2"/>
<path d="M75.153 9.82618H78.5529V23.9481C78.5529 29.8083 74.994 32.2214 70.7868 32.2214C66.8245 32.2214 64.4398 29.6301 63.5469 27.5261L66.6655 26.2659C67.2279 27.5616 68.5855 29.0952 70.7868 29.0952C73.4896 29.0952 75.153 27.4666 75.153 24.4236V23.2825H75.0307C74.2234 24.2333 72.6825 25.0892 70.7258 25.0892C66.6409 25.0892 62.8984 21.63 62.8984 17.1725C62.8984 12.6909 66.6409 9.19629 70.7258 9.19629C72.6703 9.19629 74.2234 10.0403 75.0307 10.9675H75.153V9.82637V9.82618ZM75.3974 17.1725C75.3974 14.3671 73.4774 12.3225 71.0314 12.3225C68.5609 12.3225 66.4819 14.3671 66.4819 17.1725C66.4819 19.942 68.5609 21.951 71.0314 21.951C73.4776 21.963 75.3976 19.942 75.3976 17.1725H75.3974Z" fill="#111212" fill-opacity="0.2"/>
<path d="M43.5617 17.1131C43.5617 21.6897 39.8929 25.0536 35.3922 25.0536C30.8917 25.0536 27.2227 21.6778 27.2227 17.1131C27.2227 12.5128 30.8917 9.16071 35.3922 9.16071C39.8929 9.16071 43.5617 12.5128 43.5617 17.1131ZM39.9906 17.1131C39.9906 14.2603 37.8625 12.2987 35.3922 12.2987C32.9219 12.2987 30.7937 14.2603 30.7937 17.1131C30.7937 19.9421 32.9219 21.9274 35.3922 21.9274C37.8627 21.9274 39.9906 19.9421 39.9906 17.1131Z" fill="#111212" fill-opacity="0.2"/>
<path d="M61.4055 17.1488C61.4055 21.7254 57.7364 25.0893 53.2359 25.0893C48.7353 25.0893 45.0664 21.7252 45.0664 17.1488C45.0664 12.5485 48.7353 9.20825 53.2359 9.20825C57.7364 9.20825 61.4055 12.5367 61.4055 17.1488ZM57.822 17.1488C57.822 14.296 55.6941 12.3344 53.2236 12.3344C50.7532 12.3344 48.6251 14.296 48.6251 17.1488C48.6251 19.9779 50.7532 21.9631 53.2236 21.9631C55.7062 21.9631 57.822 19.966 57.822 17.1488Z" fill="#111212" fill-opacity="0.2"/>
<path d="M13.7942 21.6065C8.66979 21.6065 4.65855 17.5886 4.65855 12.6078C4.65855 7.62729 8.66979 3.60942 13.7942 3.60942C16.5582 3.60942 18.576 4.66731 20.068 6.02251L22.5264 3.63327C20.4473 1.6957 17.6711 0.221436 13.7942 0.221436C6.7743 0.221626 0.867188 5.78494 0.867188 12.6078C0.867188 19.4311 6.7743 24.9942 13.7942 24.9942C17.5855 24.9942 20.4473 23.7818 22.6854 21.5233C24.9845 19.2884 25.6938 16.1502 25.6938 13.6064C25.6938 12.8099 25.596 11.9898 25.4859 11.3835H13.7942V14.6881H22.1227C21.8781 16.7566 21.2055 18.1712 20.2149 19.1338C19.0163 20.3108 17.1208 21.6065 13.7942 21.6065Z" fill="#111212" fill-opacity="0.2"/>
</svg>
