<svg width="34" height="33" viewBox="0 0 34 33" fill="none" xmlns="http://www.w3.org/2000/svg">
<path d="M18.5215 26.4585C18.5537 23.2657 17.7174 20.6693 16.6536 20.6592C15.5897 20.6492 14.7011 23.2293 14.6689 26.4221C14.6366 29.6149 15.4729 32.2114 16.5368 32.2214C17.6007 32.2315 18.4893 29.6514 18.5215 26.4585Z" fill="#111212" fill-opacity="0.2"/>
<path d="M12.3498 25.7334C14.1605 23.0644 14.9074 20.4425 14.0181 19.8773C13.1287 19.3121 10.9399 21.0176 9.1292 23.6867C7.31845 26.3557 6.57154 28.9775 7.46085 29.5428C8.35023 30.108 10.539 28.4025 12.3498 25.7334Z" fill="#111212" fill-opacity="0.2"/>
<path d="M7.55505 21.9041C10.5693 20.6064 12.6623 18.7917 12.2298 17.8508C11.7975 16.91 9.00345 17.1992 5.9892 18.497C2.97497 19.7946 0.88199 21.6093 1.31439 22.5502C1.74678 23.4911 4.54082 23.2018 7.55505 21.9041Z" fill="#111212" fill-opacity="0.2"/>
<path d="M11.8696 15.2124C12.0315 14.1946 9.51948 12.9758 6.25896 12.4901C2.99835 12.0043 0.223936 12.4357 0.0620892 13.4534C-0.099758 14.4712 2.41225 15.6899 5.67283 16.1757C8.93336 16.6614 11.7078 16.2301 11.8696 15.2124Z" fill="#111212" fill-opacity="0.2"/>
<path d="M13.0412 12.7878C13.7458 12.0163 12.313 9.67667 9.84114 7.56218C7.36922 5.44771 4.79417 4.35909 4.08961 5.13068C3.38505 5.90228 4.81778 8.2419 7.28972 10.3564C9.76163 12.4709 12.3367 13.5594 13.0412 12.7878Z" fill="#111212" fill-opacity="0.2"/>
<path d="M15.3737 11.3708C16.3974 11.0904 16.4991 8.3725 15.6009 5.30019C14.7027 2.22786 13.1446 -0.0354665 12.1209 0.244913C11.0971 0.525293 10.9954 3.24319 11.8936 6.31556C12.7919 9.38783 14.35 11.6512 15.3737 11.3708Z" fill="#111212" fill-opacity="0.2"/>
<path d="M21.7013 6.4112C22.662 3.3566 22.6157 0.637275 21.5978 0.337415C20.58 0.0375488 18.9761 2.27069 18.0154 5.32528C17.0548 8.37986 17.1011 11.0992 18.119 11.399C19.1368 11.6989 20.7407 9.4658 21.7013 6.4112Z" fill="#111212" fill-opacity="0.2"/>
<path d="M26.2263 10.5386C28.7405 8.47125 30.2202 6.15918 29.5313 5.37444C28.8425 4.58967 26.2459 5.6294 23.7318 7.69664C21.2176 9.76396 19.7379 12.076 20.4268 12.8608C21.1156 13.6456 23.7122 12.6059 26.2263 10.5386Z" fill="#111212" fill-opacity="0.2"/>
<path d="M27.7207 16.3793C30.9905 15.9559 33.5269 14.7853 33.3858 13.7646C33.2447 12.744 30.4796 12.2599 27.2098 12.6832C23.94 13.1066 21.4036 14.2772 21.5447 15.2979C21.6858 16.3185 24.4508 16.8028 27.7207 16.3793Z" fill="#111212" fill-opacity="0.2"/>
<path d="M31.9384 22.8419C32.3898 21.9095 30.3343 20.0552 27.347 18.7002C24.3599 17.3452 21.5723 17.0027 21.1208 17.9351C20.6693 18.8676 22.7249 20.7219 25.7121 22.0769C28.6993 23.4318 31.4869 23.7743 31.9384 22.8419Z" fill="#111212" fill-opacity="0.2"/>
<path d="M25.656 29.7217C26.5566 29.1736 25.8633 26.538 24.1073 23.8349C22.3513 21.1319 20.1976 19.385 19.2969 19.9331C18.3963 20.4812 19.0896 23.1168 20.8456 25.8199C22.6016 28.5229 24.7553 30.2699 25.656 29.7217Z" fill="#111212" fill-opacity="0.2"/>
</svg>
