<svg width="428" height="33" viewBox="0 0 428 33" fill="none" xmlns="http://www.w3.org/2000/svg">
<path d="M0 32.2214H6.50917C12.996 32.2214 26.0144 32.2214 38.9658 32.2214C51.9396 32.2214 64.8688 32.2214 77.8425 32.2214C90.794 32.2214 103.812 32.2214 116.764 32.2214C129.737 32.2214 142.667 32.2214 155.64 32.2214C168.592 32.2214 181.61 32.2214 194.562 32.2214C207.535 32.2214 220.465 32.2214 233.438 32.2214C246.39 32.2214 259.408 32.2214 272.36 32.2214C285.333 32.2214 298.262 32.2214 311.236 32.2214C324.188 32.2214 337.206 32.2214 350.158 32.2214C363.131 32.2214 376.06 32.2214 389.034 32.2214C401.986 32.2214 415.004 32.2214 421.491 32.2214H428V12.0528L421.491 10.5188C415.004 8.97066 401.986 5.90275 389.034 6.39986C376.06 6.89698 363.131 10.9591 350.158 11.229C337.206 11.4846 324.188 7.93382 311.236 5.63288C298.262 3.34615 285.333 2.29511 272.36 1.51393C259.408 0.73275 246.39 0.221436 233.438 0.221436C220.465 0.221436 207.535 0.732754 194.562 3.55921C181.61 6.37146 168.592 11.4846 155.64 15.0639C142.667 18.6289 129.737 20.6742 116.764 20.6742C103.812 20.6742 90.794 18.6289 77.8425 16.3422C64.8688 14.0412 51.9396 11.4846 38.9658 9.95069C26.0144 8.40253 12.996 7.89121 6.50917 7.62134L0 7.36569V32.2214Z" fill="#003A40"/>
</svg>
