<svg width="428" height="231" viewBox="0 0 428 231" fill="none" xmlns="http://www.w3.org/2000/svg">
<g filter="url(#filter0_d_253_3412)">
<path d="M0 205.895L6.50917 206.151C12.996 206.421 26.0144 206.933 38.9658 208.483C51.9396 210.019 64.8688 212.579 77.8425 214.883C90.794 217.173 103.812 219.221 116.764 219.221C129.737 219.221 142.667 217.173 155.64 213.603C168.592 210.019 181.61 204.899 194.562 202.083C207.535 199.252 220.465 198.74 233.438 198.74C246.39 198.74 259.408 199.252 272.36 200.035C285.333 200.817 298.262 201.869 311.236 204.159C324.188 206.463 337.206 210.019 350.158 209.763C363.131 209.493 376.06 205.425 389.034 204.927C401.986 204.43 415.004 207.502 421.491 209.052L428 210.588V178.018L421.491 176.738C415.004 175.458 401.986 172.897 389.034 176.738C376.06 180.578 363.131 190.818 350.158 191.316C337.206 191.814 324.188 182.569 311.236 178.473C298.262 174.362 285.333 175.415 272.36 174.647C259.408 173.893 246.39 171.333 233.438 170.807C220.465 170.295 207.535 171.802 194.562 175.913C181.61 180.009 168.592 186.694 155.64 188.23C142.667 189.78 129.737 186.167 116.764 186.438C103.812 186.694 90.794 190.818 77.8425 188.514C64.8688 186.224 51.9396 177.491 38.9658 172.371C26.0144 167.251 12.996 165.743 6.50917 164.975L0 164.221V205.895Z" fill="#00686B"/>
</g>
<defs>
<filter id="filter0_d_253_3412" x="-118" y="0.221436" width="664" height="291" filterUnits="userSpaceOnUse" color-interpolation-filters="sRGB">
<feFlood flood-opacity="0" result="BackgroundImageFix"/>
<feColorMatrix in="SourceAlpha" type="matrix" values="0 0 0 0 0 0 0 0 0 0 0 0 0 0 0 0 0 0 127 0" result="hardAlpha"/>
<feOffset dy="-46"/>
<feGaussianBlur stdDeviation="59"/>
<feColorMatrix type="matrix" values="0 0 0 0 0 0 0 0 0 0 0 0 0 0 0 0 0 0 0.18 0"/>
<feBlend mode="normal" in2="BackgroundImageFix" result="effect1_dropShadow_253_3412"/>
<feBlend mode="normal" in="SourceGraphic" in2="effect1_dropShadow_253_3412" result="shape"/>
</filter>
</defs>
</svg>
