<svg width="27" height="33" viewBox="0 0 27 33" fill="none" xmlns="http://www.w3.org/2000/svg">
<path d="M16.6605 0.407072C16.6255 0.508303 16.2009 1.72869 15.7213 3.11779C15.2367 4.51252 14.5424 6.5315 14.1677 7.60567C13.793 8.68546 13.4883 9.57404 13.4883 9.59091C13.4883 9.60216 14.3375 9.6134 15.3816 9.6134H17.27L17.7595 8.02184C18.6488 5.15365 18.6188 5.23801 18.6737 5.39548C18.7237 5.54732 19.9126 9.20286 19.9926 9.45593L20.0425 9.6134H21.9608C23.0149 9.6134 23.8792 9.59091 23.8792 9.56279C23.8792 9.54029 23.5045 8.45488 23.0499 7.16138C22.5953 5.86788 21.8759 3.80391 21.4463 2.58352C21.0217 1.36314 20.647 0.328338 20.622 0.28897C20.5821 0.238356 20.1275 0.221483 18.6488 0.221483H16.7304L16.6605 0.407072Z" fill="#111212" fill-opacity="0.2"/>
<path d="M11.9739 13.9268C11.6542 14.8492 11.2496 16.0189 11.0747 16.5307L10.75 17.4586L12.7782 17.4755C13.8922 17.4811 14.8114 17.4755 14.8214 17.4643C14.8414 17.4418 16.435 12.324 16.435 12.279C16.435 12.2678 15.5608 12.2565 14.4917 12.2565H12.5534L11.9739 13.9268Z" fill="#111212" fill-opacity="0.2"/>
<path d="M20.9375 12.324C20.9375 12.3634 21.3122 13.55 21.7718 14.956L22.6061 17.5149L24.6443 17.5318C25.7633 17.5374 26.6775 17.5261 26.6775 17.5037C26.6725 17.4755 26.2629 16.2945 25.7633 14.8717L24.8541 12.2847L22.8908 12.2678C21.3422 12.2565 20.9325 12.2678 20.9375 12.324Z" fill="#111212" fill-opacity="0.2"/>
<path d="M0 15.3835C0 15.4172 0.424627 16.6826 3.92655 27.1037L5.64005 32.1933L7.55836 32.2102L9.47668 32.2214L11.415 26.5863C13.9378 19.2527 13.8279 19.5733 13.7979 19.5395C13.7829 19.5227 12.9436 19.5114 11.9395 19.5114H10.1011L9.99622 19.832C9.94127 20.0119 9.37677 21.7891 8.74232 23.7856C8.10788 25.7764 7.58334 27.413 7.57835 27.4186C7.57335 27.4242 6.70411 24.7191 5.64005 21.401L3.71674 15.3778L1.85837 15.361C0.834268 15.3553 0 15.3666 0 15.3835Z" fill="#111212" fill-opacity="0.2"/>
</svg>
