<svg width="21" height="20" viewBox="0 0 21 20" fill="none" xmlns="http://www.w3.org/2000/svg">
<path d="M10.2513 7.5C9.58826 7.5 8.95238 7.76339 8.48353 8.23223C8.01469 8.70107 7.7513 9.33696 7.7513 10C7.7513 10.663 8.01469 11.2989 8.48353 11.7678C8.95238 12.2366 9.58826 12.5 10.2513 12.5C10.9143 12.5 11.5502 12.2366 12.0191 11.7678C12.4879 11.2989 12.7513 10.663 12.7513 10C12.7513 9.33696 12.4879 8.70107 12.0191 8.23223C11.5502 7.76339 10.9143 7.5 10.2513 7.5ZM10.2513 5.83333C11.3564 5.83333 12.4162 6.27232 13.1976 7.05372C13.979 7.83512 14.418 8.89493 14.418 10C14.418 11.1051 13.979 12.1649 13.1976 12.9463C12.4162 13.7277 11.3564 14.1667 10.2513 14.1667C9.14623 14.1667 8.08643 13.7277 7.30502 12.9463C6.52362 12.1649 6.08464 11.1051 6.08464 10C6.08464 8.89493 6.52362 7.83512 7.30502 7.05372C8.08643 6.27232 9.14623 5.83333 10.2513 5.83333ZM15.668 5.625C15.668 5.90126 15.5582 6.16622 15.3629 6.36157C15.1675 6.55692 14.9026 6.66666 14.6263 6.66666C14.35 6.66666 14.0851 6.55692 13.8897 6.36157C13.6944 6.16622 13.5846 5.90126 13.5846 5.625C13.5846 5.34873 13.6944 5.08378 13.8897 4.88843C14.0851 4.69308 14.35 4.58333 14.6263 4.58333C14.9026 4.58333 15.1675 4.69308 15.3629 4.88843C15.5582 5.08378 15.668 5.34873 15.668 5.625ZM10.2513 3.33333C8.18964 3.33333 7.85297 3.33916 6.8938 3.38166C6.24047 3.4125 5.80214 3.5 5.39547 3.65833C5.05515 3.78328 4.74748 3.98355 4.49547 4.24416C4.23464 4.49616 4.0341 4.80382 3.9088 5.14416C3.75047 5.5525 3.66297 5.99 3.63297 6.6425C3.58964 7.5625 3.58464 7.88416 3.58464 10C3.58464 12.0617 3.59047 12.3983 3.63297 13.3575C3.6638 14.01 3.7513 14.4492 3.9088 14.855C4.05047 15.2175 4.21714 15.4783 4.4938 15.755C4.77464 16.035 5.03547 16.2025 5.3938 16.3408C5.80547 16.5 6.2438 16.5883 6.8938 16.6183C7.8138 16.6617 8.13547 16.6667 10.2513 16.6667C12.313 16.6667 12.6496 16.6608 13.6088 16.6183C14.2605 16.5875 14.6996 16.5 15.1063 16.3425C15.4461 16.2169 15.7536 16.0171 16.0063 15.7575C16.2871 15.4767 16.4546 15.2158 16.593 14.8575C16.7513 14.4467 16.8396 14.0075 16.8696 13.3575C16.913 12.4375 16.918 12.1158 16.918 10C16.918 7.93833 16.9121 7.60166 16.8696 6.6425C16.8388 5.99083 16.7513 5.55083 16.593 5.14416C16.4674 4.80417 16.2672 4.49663 16.0071 4.24416C15.7552 3.9832 15.4476 3.78264 15.1071 3.6575C14.6988 3.49916 14.2605 3.41166 13.6088 3.38166C12.6888 3.33833 12.3671 3.33333 10.2513 3.33333ZM10.2513 1.66666C12.5155 1.66666 12.798 1.675 13.6863 1.71666C14.5738 1.75833 15.178 1.8975 15.7096 2.10416C16.2596 2.31583 16.723 2.6025 17.1863 3.065C17.61 3.48158 17.9379 3.98549 18.1471 4.54166C18.353 5.0725 18.493 5.6775 18.5346 6.565C18.5738 7.45333 18.5846 7.73583 18.5846 10C18.5846 12.2642 18.5763 12.5467 18.5346 13.435C18.493 14.3225 18.353 14.9267 18.1471 15.4583C17.9385 16.0148 17.6106 16.5188 17.1863 16.935C16.7696 17.3586 16.2657 17.6865 15.7096 17.8958C15.1788 18.1017 14.5738 18.2417 13.6863 18.2833C12.798 18.3225 12.5155 18.3333 10.2513 18.3333C7.98714 18.3333 7.70464 18.325 6.8163 18.2833C5.9288 18.2417 5.32464 18.1017 4.79297 17.8958C4.23657 17.6871 3.73257 17.3591 3.3163 16.935C2.89247 16.5185 2.56458 16.0146 2.35547 15.4583C2.1488 14.9275 2.00964 14.3225 1.96797 13.435C1.9288 12.5467 1.91797 12.2642 1.91797 10C1.91797 7.73583 1.9263 7.45333 1.96797 6.565C2.00964 5.67666 2.1488 5.07333 2.35547 4.54166C2.564 3.98515 2.89197 3.4811 3.3163 3.065C3.73269 2.64102 4.23666 2.31311 4.79297 2.10416C5.32464 1.8975 5.92797 1.75833 6.8163 1.71666C7.70464 1.6775 7.98714 1.66666 10.2513 1.66666Z" fill="#E7E7E7"/>
</svg>
