<svg width="431" height="406" viewBox="0 0 431 406" fill="none" xmlns="http://www.w3.org/2000/svg">
<ellipse cx="205.922" cy="200.628" rx="205.922" ry="200.628" transform="matrix(-1 0 0 1 427.449 0)" fill="#00CACB"/>
<path d="M262.829 228.87C284.398 236.484 318.549 232.042 332.928 228.87L335.496 327.135L99.5221 322.505C96.7832 293.351 96.0813 236.124 115.185 240.446C139.065 245.848 168.337 232.214 175.27 228.87C182.203 225.526 183.487 217.551 187.082 217.294C190.676 217.037 195.555 215.493 198.636 212.664C201.718 209.834 205.569 211.892 211.988 212.664C218.408 213.436 235.868 219.352 262.829 228.87Z" fill="#00CACB"/>
<path fill-rule="evenodd" clip-rule="evenodd" d="M19.1368 236.716C36.4558 330.402 120.716 401.488 222.051 401.488C222.601 401.488 223.15 401.486 223.699 401.482C300.828 395.685 202.537 276.738 202.537 276.738C194.835 273.315 176.143 266.419 162.997 266.213C146.607 265.957 137.625 258.807 123.821 247.817L123.714 247.732C111.711 238.176 104.903 238.625 100.459 238.918C99.7702 238.963 99.1378 239.005 98.5517 239.005C94.1869 239.005 70.3087 235.154 54.1332 226.427C41.2643 219.484 23.4355 211.288 15.9999 208C16.1445 212.106 16.4161 216.181 16.811 220.22C17.3894 225.834 18.1677 231.333 19.1368 236.716Z" fill="#00989A"/>
<path d="M45.649 259.547C40.082 260.784 28.8963 259.031 23.9993 258C55.6798 348.045 116.043 391.286 200.548 399.002C285.052 406.718 179.62 315.02 168.073 305.946C153.64 294.604 124.774 287.386 107.505 284.293C90.2372 281.2 85.3401 276.56 78.1236 268.569C70.907 260.578 52.6079 258 45.649 259.547Z" fill="#00686B"/>
<path d="M115.785 284.469C116.143 286.751 117.147 292.287 118.294 296.178C119.435 300.049 123.156 305.074 124.9 307.135C122.886 306.065 119.462 304.5 121.879 306.805C124.296 309.111 125.276 310.528 125.464 310.948C125.984 311.129 126.6 311.489 124.9 311.489C122.775 311.489 121.341 310.948 125.464 314.191C129.586 317.433 124.03 314.551 123.671 314.551C123.313 314.551 120.803 313.831 124.388 317.433C127.973 321.036 129.228 321.576 123.313 320.495C117.398 319.415 122.775 322.117 126.181 324.278C129.586 326.44 131.199 327.881 127.256 327.16C123.313 326.44 125.643 329.682 129.228 331.664C132.813 333.645 129.049 332.925 127.256 332.925C125.464 332.925 131.02 335.446 132.992 337.608C134.964 339.769 132.633 339.769 130.483 338.689C128.762 337.824 133.47 344.093 136.039 347.335L98.0394 348.236C100.011 345.474 103.739 340.022 102.879 340.31C101.804 340.67 100.011 340.13 100.549 339.769C101.087 339.409 106.464 333.825 104.134 333.645C101.804 333.465 102.162 333.105 102.521 332.925C102.879 332.744 109.153 326.08 106.285 327.16C103.417 328.241 103.237 327.701 104.851 326.44C106.464 325.179 108.077 320.676 107.539 321.036C107.109 321.324 105.807 321.516 105.209 321.576C105.687 321.036 107.002 319.451 108.436 317.433C110.228 314.911 109.869 315.092 109.511 315.272C109.153 315.452 106.285 316.172 106.643 315.812C107.002 315.452 110.945 310.408 110.228 310.948C106.356 313.398 106.464 312.69 107.002 312.029C108.555 310.108 111.232 306.589 109.511 307.886C107.36 309.507 107.539 308.066 108.436 306.445C112.917 299.78 114.351 287.712 114.709 284.469C114.996 281.875 115.546 283.388 115.785 284.469Z" fill="#003A40"/>
<path d="M134.052 301.67C133.888 302.73 133.426 305.302 132.899 307.11C132.375 308.908 130.665 311.243 129.864 312.2C130.789 311.703 132.363 310.976 131.252 312.047C130.142 313.118 129.691 313.777 129.605 313.972C129.366 314.055 129.083 314.223 129.864 314.223C130.84 314.223 131.499 313.972 129.605 315.478C127.711 316.984 130.264 315.645 130.429 315.645C130.593 315.645 131.746 315.311 130.099 316.984C128.452 318.658 127.876 318.909 130.593 318.407C133.311 317.905 130.84 319.16 129.276 320.164C127.711 321.169 126.97 321.838 128.781 321.503C130.593 321.169 129.523 322.675 127.876 323.595C126.228 324.516 127.958 324.181 128.781 324.181C129.605 324.181 127.052 325.353 126.146 326.357C125.24 327.361 126.311 327.361 127.299 326.859C128.09 326.457 125.927 329.369 124.746 330.876L142.205 331.294C141.299 330.011 139.586 327.478 139.982 327.612C140.476 327.779 141.299 327.528 141.052 327.361C140.805 327.194 138.335 324.6 139.405 324.516C140.476 324.432 140.311 324.265 140.147 324.181C139.982 324.097 137.099 321.001 138.417 321.503C139.735 322.005 139.817 321.754 139.076 321.169C138.335 320.583 137.594 318.491 137.841 318.658C138.038 318.792 138.637 318.881 138.911 318.909C138.692 318.658 138.088 317.922 137.429 316.984C136.605 315.813 136.77 315.897 136.935 315.98C137.099 316.064 138.417 316.399 138.252 316.231C138.088 316.064 136.276 313.721 136.605 313.972C138.384 315.11 138.335 314.781 138.088 314.474C137.374 313.581 136.144 311.947 136.935 312.549C137.923 313.302 137.841 312.633 137.429 311.88C135.37 308.783 134.711 303.177 134.546 301.67C134.415 300.465 134.162 301.168 134.052 301.67Z" fill="#003A40"/>
<path d="M350.699 256.893C350.989 259.409 351.803 265.511 352.733 269.801C353.659 274.068 356.675 279.607 358.089 281.879C356.456 280.699 353.68 278.974 355.64 281.516C357.599 284.058 358.394 285.62 358.546 286.083C358.968 286.282 359.468 286.679 358.089 286.679C356.366 286.679 355.204 286.083 358.546 289.658C361.889 293.232 357.384 290.055 357.093 290.055C356.802 290.055 354.768 289.26 357.674 293.232C360.581 297.203 361.598 297.799 356.802 296.607C352.006 295.416 356.366 298.395 359.128 300.777C361.889 303.16 363.197 304.749 360 303.955C356.802 303.16 358.692 306.735 361.598 308.919C364.505 311.103 361.453 310.309 360 310.309C358.546 310.309 363.052 313.089 364.65 315.472C366.249 317.854 364.36 317.854 362.616 316.663C361.221 315.71 365.038 322.62 367.121 326.194L336.311 327.187C337.909 324.142 340.932 318.132 340.235 318.45C339.363 318.847 337.909 318.252 338.345 317.854C338.781 317.457 343.141 311.302 341.252 311.103C339.363 310.904 339.653 310.507 339.944 310.309C340.235 310.11 345.321 302.763 342.996 303.955C340.671 305.146 340.525 304.55 341.833 303.16C343.141 301.77 344.449 296.806 344.013 297.203C343.664 297.521 342.608 297.733 342.124 297.799C342.511 297.203 343.577 295.456 344.74 293.232C346.193 290.452 345.903 290.65 345.612 290.849C345.321 291.047 342.996 291.842 343.287 291.445C343.577 291.047 346.775 285.488 346.193 286.083C343.054 288.784 343.141 288.003 343.577 287.275C344.837 285.157 347.007 281.278 345.612 282.708C343.868 284.495 344.013 282.906 344.74 281.119C348.373 273.772 349.536 260.468 349.827 256.893C350.059 254.034 350.505 255.702 350.699 256.893Z" fill="#003A40"/>
<path d="M333.856 271.844C334.118 273.64 334.85 277.999 335.688 281.063C336.521 284.111 339.236 288.068 340.508 289.691C339.038 288.848 336.54 287.616 338.304 289.431C340.067 291.247 340.782 292.363 340.92 292.693C341.299 292.835 341.749 293.119 340.508 293.119C338.958 293.119 337.911 292.693 340.92 295.247C343.928 297.8 339.873 295.53 339.612 295.53C339.35 295.53 337.519 294.963 340.135 297.8C342.751 300.636 343.666 301.062 339.35 300.211C335.034 299.36 338.958 301.487 341.443 303.189C343.928 304.891 345.105 306.026 342.228 305.459C339.35 304.891 341.05 307.444 343.666 309.005C346.282 310.565 343.536 309.997 342.228 309.997C340.92 309.997 344.974 311.983 346.413 313.685C347.852 315.387 346.152 315.387 344.582 314.536C343.326 313.855 346.762 318.791 348.637 321.344L320.907 322.053C322.346 319.879 325.067 315.586 324.439 315.813C323.654 316.096 322.346 315.671 322.738 315.387C323.131 315.104 327.055 310.707 325.354 310.565C323.654 310.423 323.916 310.139 324.177 309.997C324.439 309.856 329.017 304.608 326.924 305.459C324.831 306.31 324.7 305.884 325.878 304.891C327.055 303.898 328.232 300.353 327.84 300.636C327.526 300.863 326.575 301.014 326.139 301.062C326.488 300.636 327.447 299.388 328.494 297.8C329.802 295.814 329.54 295.956 329.278 296.098C329.017 296.239 326.924 296.807 327.186 296.523C327.447 296.239 330.325 292.268 329.802 292.693C326.976 294.622 327.055 294.065 327.447 293.544C328.581 292.032 330.534 289.261 329.278 290.282C327.709 291.559 327.84 290.424 328.494 289.148C331.764 283.9 332.81 274.397 333.072 271.844C333.281 269.801 333.682 270.993 333.856 271.844Z" fill="#003A40"/>
<path d="M324.091 276.859C324.207 277.65 324.533 279.568 324.905 280.916C325.275 282.257 326.482 283.998 327.047 284.712C326.394 284.341 325.284 283.799 326.068 284.598C326.852 285.397 327.169 285.888 327.23 286.033C327.399 286.096 327.599 286.22 327.047 286.22C326.358 286.22 325.893 286.033 327.23 287.157C328.567 288.28 326.765 287.281 326.649 287.281C326.533 287.281 325.719 287.032 326.882 288.28C328.044 289.528 328.451 289.715 326.533 289.341C324.614 288.966 326.358 289.902 327.463 290.651C328.567 291.4 329.091 291.9 327.812 291.65C326.533 291.4 327.288 292.524 328.451 293.21C329.614 293.897 328.393 293.647 327.812 293.647C327.23 293.647 329.032 294.521 329.672 295.27C330.311 296.018 329.556 296.018 328.858 295.644C328.3 295.344 329.827 297.516 330.66 298.64L318.336 298.952C318.975 297.995 320.185 296.106 319.906 296.206C319.557 296.33 318.975 296.143 319.15 296.018C319.324 295.894 321.068 293.959 320.312 293.897C319.557 293.834 319.673 293.709 319.789 293.647C319.906 293.585 321.94 291.275 321.01 291.65C320.08 292.024 320.022 291.837 320.545 291.4C321.068 290.963 321.591 289.403 321.417 289.528C321.277 289.628 320.855 289.694 320.661 289.715C320.816 289.528 321.243 288.979 321.708 288.28C322.289 287.406 322.173 287.469 322.056 287.531C321.94 287.593 321.01 287.843 321.126 287.718C321.243 287.593 322.522 285.846 322.289 286.033C321.033 286.882 321.068 286.636 321.243 286.408C321.746 285.742 322.615 284.523 322.056 284.972C321.359 285.534 321.417 285.035 321.708 284.473C323.161 282.164 323.626 277.983 323.742 276.859C323.835 275.961 324.014 276.485 324.091 276.859Z" fill="#003A40"/>
<path d="M317.792 283.387C317.875 283.943 318.105 285.295 318.369 286.245C318.631 287.19 319.486 288.416 319.886 288.919C319.424 288.658 318.637 288.276 319.192 288.839C319.748 289.401 319.973 289.747 320.016 289.85C320.135 289.894 320.277 289.982 319.886 289.982C319.398 289.982 319.069 289.85 320.016 290.641C320.963 291.433 319.686 290.729 319.604 290.729C319.522 290.729 318.945 290.553 319.769 291.433C320.592 292.312 320.881 292.444 319.522 292.18C318.163 291.917 319.398 292.576 320.181 293.104C320.963 293.631 321.334 293.983 320.428 293.807C319.522 293.631 320.057 294.423 320.881 294.906C321.704 295.39 320.839 295.214 320.428 295.214C320.016 295.214 321.292 295.83 321.745 296.357C322.198 296.885 321.663 296.885 321.169 296.621C320.774 296.41 321.855 297.94 322.445 298.732L313.716 298.952C314.169 298.277 315.025 296.947 314.827 297.017C314.58 297.105 314.169 296.973 314.292 296.885C314.416 296.797 315.651 295.434 315.116 295.39C314.58 295.346 314.663 295.258 314.745 295.214C314.827 295.17 316.269 293.543 315.61 293.807C314.951 294.071 314.91 293.939 315.28 293.631C315.651 293.324 316.022 292.224 315.898 292.312C315.799 292.383 315.5 292.429 315.363 292.444C315.473 292.312 315.775 291.925 316.104 291.433C316.516 290.817 316.433 290.861 316.351 290.905C316.269 290.949 315.61 291.125 315.692 291.037C315.775 290.949 316.68 289.718 316.516 289.85C315.626 290.448 315.651 290.275 315.775 290.114C316.131 289.645 316.746 288.786 316.351 289.102C315.857 289.498 315.898 289.146 316.104 288.751C317.133 287.124 317.463 284.178 317.545 283.387C317.611 282.753 317.737 283.123 317.792 283.387Z" fill="#003A40"/>
<path d="M222.325 171.218H220.27C219.86 173.066 220.955 173.015 221.554 172.758C222.325 173.015 223.968 173.528 224.379 173.528C224.892 173.528 224.379 171.988 224.892 168.908C225.406 165.827 228.23 166.598 233.108 167.111C237.987 167.624 237.473 171.218 237.987 172.758C238.5 174.298 239.784 174.298 239.784 174.812V179.175C241.923 179.689 246.408 181.588 247.23 185.079C248.257 189.443 244.149 196.373 244.149 197.143V206.384L239.784 208.694H237.473C237.473 209.55 237.319 211.775 236.703 213.828C235.933 216.395 237.473 218.962 237.473 219.732C237.473 220.348 236.96 225.465 236.703 227.946C236.788 229.229 236.805 231.848 236.189 232.053C235.419 232.31 235.419 234.363 236.189 235.903C236.96 237.443 238.757 239.24 238.757 241.294C238.757 243.347 237.73 255.155 238.757 256.182C239.578 257.003 239.569 257.551 239.461 257.722L239.784 259.775L235.419 263.369L233.108 260.802V257.722C233.365 257.636 233.981 257.208 234.392 256.182C234.905 254.898 234.649 252.331 233.878 249.508C233.108 246.684 232.338 243.09 232.338 240.524C232.338 238.47 230.969 236.588 230.284 235.903L229 232.566C228.401 232.994 227.203 233.336 227.203 231.283C226.946 225.122 225.149 223.326 224.379 220.502C223.762 218.243 222.752 219.561 222.325 220.502L214.365 227.946C214.194 227.775 213.962 227.843 213.346 227.433C212.576 226.919 210.771 227.946 211.035 230.769C211.368 234.32 211.284 238.213 210.771 240.524C210.257 242.834 209.744 249.508 210.771 250.791C211.798 252.075 211.541 255.155 211.284 255.668C211.079 256.079 210.856 257.722 210.771 258.492H204.095V256.952C202.383 256.866 198.549 256.387 196.906 255.155C195.263 253.923 196.221 253.272 196.906 253.101C197.933 253.187 200.552 253.153 202.811 252.331C205.071 251.51 206.149 249.593 206.406 248.738L205.122 223.326L208.973 216.908L208.46 214.598L215.649 206.384C216.162 202.363 216.573 193.293 214.108 189.186C211.644 185.079 212.226 181.828 212.825 180.715C214.793 178.32 217.806 173.785 214.108 174.812C210.411 175.838 209.829 174.897 210 174.298C210.086 173.186 210.052 170.961 209.23 170.961C208.408 170.961 208.203 170.619 208.203 170.448L209.23 166.598C208.973 166.426 208.254 165.982 207.433 165.571C206.406 165.057 207.433 164.287 208.203 164.031C208.973 163.774 210.514 161.207 212.054 160.18C216.162 157.305 220.099 160.351 221.554 162.234C221.469 164.373 221.503 168.856 222.325 169.678C223.146 170.499 222.667 171.047 222.325 171.218Z" fill="#013637"/>
<path d="M241.824 183.699C242.235 182.672 241.995 181.731 241.824 181.389C241.653 181.389 241.105 181.491 240.283 181.902C239.256 182.416 240.283 183.699 240.54 184.982C240.797 186.266 241.31 184.982 241.824 183.699L241.824 183.699Z" fill="#003A40"/>
<path d="M264.007 127.865H0C4.36587 125.035 28.5066 121.947 32.6156 122.205C36.7247 122.462 40.0633 121.175 41.6042 116.029C43.1451 110.883 49.5655 112.942 49.8223 111.913C50.0791 110.883 51.3632 107.796 56.2427 108.053C61.1222 108.311 60.6085 106.767 62.1494 103.165C70.1107 90.8144 94.5082 103.165 96.8196 101.878C99.1309 100.592 107.349 103.165 111.715 103.165C116.081 103.165 132.517 114.743 142.533 112.942C152.549 111.141 163.078 118.345 175.919 121.947C186.191 124.829 238.924 127.093 264.007 127.865Z" fill="white" fill-opacity="0.8"/>
<path d="M308.945 34.126H117.098C120.27 32.0639 137.813 29.8144 140.799 30.0019C143.785 30.1893 146.211 29.2521 147.33 25.5029C148.45 21.7537 153.116 23.2534 153.302 22.5035C153.489 21.7537 154.422 19.5042 157.968 19.6917C161.514 19.8791 161.141 18.7544 162.26 16.1299C168.046 7.13191 185.775 16.1299 187.454 15.1926C189.134 14.2553 195.106 16.1299 198.278 16.1299C201.451 16.1299 213.395 24.5656 220.673 23.2534C227.951 21.9412 235.603 27.19 244.934 29.8144C252.399 31.914 290.719 33.5636 308.945 34.126Z" fill="white" fill-opacity="0.8"/>
<path d="M185.366 88.1231H430.793C426.734 85.495 404.293 82.628 400.473 82.8669C396.653 83.1058 393.549 81.9112 392.117 77.1329C390.684 72.3545 384.716 74.2658 384.477 73.3102C384.238 72.3545 383.045 69.4875 378.508 69.7264C373.972 69.9653 374.45 68.5318 373.017 65.187C365.616 53.7189 342.936 65.187 340.787 63.9924C338.639 62.7978 330.999 65.187 326.94 65.187C322.882 65.187 307.602 75.9383 298.291 74.2658C288.98 72.5934 279.192 79.2831 267.255 82.628C257.705 85.3039 208.683 87.4063 185.366 88.1231Z" fill="white" fill-opacity="0.8"/>
<path d="M251.906 161.559H421.285C418.484 159.74 402.996 157.755 400.36 157.92C397.724 158.086 395.582 157.259 394.593 153.951C393.605 150.643 389.485 151.966 389.321 151.304C389.156 150.643 388.332 148.658 385.201 148.823C382.071 148.989 382.4 147.996 381.412 145.68C376.304 137.741 360.651 145.68 359.169 144.853C357.686 144.026 352.413 145.68 349.612 145.68C346.811 145.68 336.266 153.124 329.84 151.966C323.414 150.808 316.659 155.439 308.421 157.755C301.83 159.608 267.998 161.063 251.906 161.559Z" fill="white" fill-opacity="0.8"/>
<path fill-rule="evenodd" clip-rule="evenodd" d="M423.616 241.162C424.781 235.473 425.702 229.697 426.365 223.845C423.014 221.411 417.087 217.715 413.606 217.715C408.739 217.715 399.773 214.89 393.369 211.296L393.198 211.199C386.806 207.611 377.927 202.625 369.803 209.242C361.606 215.918 339.577 225.674 334.966 225.931C330.355 226.188 268.366 254.175 262.219 260.337C257.559 265.008 201.481 387.603 245.933 398.721C284.48 394.403 319.788 379.715 348.845 357.593C372.93 338.09 394.989 312.446 409.848 282.07C415.87 269.11 420.52 255.415 423.616 241.162Z" fill="#00989A"/>
<path fill-rule="evenodd" clip-rule="evenodd" d="M224.714 393.85C291.848 390.151 390.159 348.421 420.691 252.931C420.042 252.902 419.333 252.874 418.581 252.843C412.477 252.595 403.503 252.231 399.835 251.134C399.354 250.99 398.843 250.821 398.301 250.642C393.037 248.904 384.744 246.165 370.739 255.241C357.512 263.811 331.263 261.47 321.722 260.618C320.119 260.475 318.987 260.374 318.469 260.374C314.864 260.374 300.444 263.968 295.295 268.075C269.031 296.653 213.928 355.452 203.629 362.023C200.945 363.735 194.415 365.461 187.268 367.351C167.742 372.512 143.614 378.89 180.772 389.523C194.625 392.36 208.99 393.852 223.713 393.852C224.047 393.852 224.381 393.851 224.714 393.85Z" fill="#00686B"/>
<path fill-rule="evenodd" clip-rule="evenodd" d="M419.569 262.459C419.338 262.191 418.973 261.821 418.439 261.324C415.023 258.149 415.583 258.173 417.113 258.239C417.354 258.249 417.62 258.26 417.898 258.26C419.529 258.26 418.938 257.852 418.439 257.648C418.259 257.171 417.318 255.564 414.999 252.95C412.681 250.336 415.966 252.11 417.898 253.324C416.225 250.987 412.655 245.289 411.56 240.9C410.459 236.488 409.496 230.211 409.152 227.624C408.923 226.398 408.396 224.683 408.12 227.624C407.776 231.3 406.401 244.985 402.101 252.542C401.241 254.38 401.069 256.014 403.133 254.176C404.784 252.705 402.216 256.695 400.725 258.873C400.209 259.622 400.106 260.425 403.821 257.648C404.509 257.035 400.725 262.754 400.381 263.162C400.037 263.571 402.789 262.754 403.133 262.55C403.477 262.345 403.821 262.141 402.101 265C400.725 267.288 399.464 269.085 399.006 269.698C399.579 269.63 400.829 269.412 401.241 269.085C401.757 268.677 400.209 273.783 398.662 275.213C398.381 275.472 398.157 275.704 397.994 275.904C397.81 275.744 397.608 275.571 397.386 275.385C392.286 271.107 393.123 271.14 395.406 271.228C395.767 271.242 396.164 271.257 396.579 271.257C399.014 271.257 398.132 270.707 397.386 270.432C397.117 269.79 395.713 267.625 392.251 264.103C388.789 260.581 393.694 262.971 396.579 264.607C394.081 261.458 388.751 253.783 387.116 247.869C385.473 241.925 384.035 233.469 383.522 229.983C383.179 228.332 382.392 226.021 381.981 229.983C381.468 234.936 379.414 253.372 372.995 263.553C371.711 266.029 371.454 268.231 374.535 265.754C377 263.773 373.166 269.148 370.941 272.083C370.17 273.092 370.016 274.174 375.562 270.432C376.589 269.606 370.941 277.311 370.427 277.861C369.914 278.412 374.022 277.311 374.535 277.036C375.049 276.761 375.562 276.485 372.995 280.338C370.941 283.42 369.058 285.841 368.373 286.666C369.229 286.575 371.095 286.281 371.711 285.841C372.481 285.291 370.17 292.17 367.86 294.096C365.549 296.022 365.806 296.847 369.914 295.196C374.022 293.545 365.035 303.726 364.522 304.002C364.008 304.277 363.495 304.827 366.833 305.102C370.17 305.377 362.468 313.907 361.697 314.458C360.927 315.008 363.495 315.833 365.035 315.283C365.799 315.01 364.037 318.107 361.915 321.505H343.773V311.876L249.66 253.129C246.882 252.844 240.679 252.559 238.098 253.699C235.517 254.84 234.154 255.125 233.796 255.125L228.956 259.403L225.729 256.266L224.653 257.692L216.587 255.125C216.049 254.745 214.812 254.213 214.167 255.125C213.521 256.038 212.105 257.977 211.478 258.833C208.968 257.597 203.626 254.954 202.335 254.27C201.045 253.585 197.137 253.604 195.344 253.699C194.985 254.745 193.677 257.236 191.311 258.833C188.353 260.829 182.168 267.103 181.899 269.099C182.047 276.048 182.67 290.213 183.043 294.445C179.37 290.598 138.108 310.234 101.615 332.87L101.611 332.867C99.3973 331.464 97.8108 330.459 99.1687 330.459C99.7086 330.459 100.373 330.505 101.039 330.55L101.039 330.55C103.538 330.721 106.048 330.892 101.993 328.663C96.8579 325.839 93.5201 321.219 99.1687 322.245C104.817 323.272 102.507 321.219 97.6282 318.138C96.7671 317.595 95.8181 317.027 94.8855 316.469L94.8849 316.469L94.8837 316.468L94.8833 316.468C90.5333 313.866 86.5439 311.48 93.5201 312.748C100.914 314.092 100.487 313.677 96.8455 310.137C96.3142 309.621 95.7145 309.038 95.0607 308.384C90.4905 303.815 92.8349 304.126 93.768 304.249L93.7682 304.25C93.8834 304.265 93.9772 304.277 94.0336 304.277C94.16 304.277 94.7373 304.526 95.4479 304.832L95.4481 304.832C97.6251 305.77 101.053 307.247 96.6012 303.764C91.5011 299.774 92.3377 299.804 94.6213 299.886H94.6215H94.6217H94.6219C94.9823 299.899 95.3788 299.913 95.7937 299.913C98.2288 299.913 97.3466 299.4 96.6012 299.143C96.332 298.545 94.9282 296.525 91.4661 293.24C88.004 289.954 92.9086 292.184 95.7937 293.709C93.2956 290.772 87.9661 283.612 86.331 278.095C84.6878 272.551 83.2499 264.662 82.7364 261.41C82.3941 259.87 81.6067 257.714 81.1959 261.41C80.6824 266.031 78.6284 283.229 72.2095 292.726C70.9257 295.036 70.669 297.09 73.75 294.78C76.2149 292.932 72.3807 297.946 70.1555 300.684C69.3852 301.625 69.2312 302.634 74.7771 299.143C75.8041 298.373 70.1555 305.561 69.642 306.074C69.1285 306.587 73.2365 305.561 73.75 305.304C74.2636 305.047 74.7771 304.791 72.2095 308.384C70.2434 311.136 68.4342 313.323 67.6824 314.181C63.4281 311.349 61.2089 307.637 66.3054 308.574C71.954 309.612 69.6432 307.536 64.7649 304.421C63.9032 303.871 62.9533 303.296 62.0201 302.732C57.6701 300.101 53.6807 297.688 60.6568 298.97C68.0509 300.329 67.6236 299.91 63.9822 296.33C63.4509 295.808 62.8512 295.219 62.1974 294.558C57.6272 289.938 59.9716 290.252 60.9047 290.377C61.0201 290.392 61.1139 290.405 61.1704 290.405C61.2967 290.405 61.8741 290.657 62.5848 290.966C64.7618 291.915 68.1899 293.408 63.7379 289.886C58.6379 285.851 59.4744 285.881 61.758 285.965C62.1186 285.978 62.5153 285.992 62.9304 285.992C65.3655 285.992 64.4833 285.473 63.7379 285.214C63.4687 284.608 62.0649 282.566 58.6028 279.244C55.1407 275.922 60.0453 278.176 62.9304 279.719C60.4323 276.749 55.1028 269.509 53.4677 263.93C51.8245 258.323 50.3867 250.346 49.8732 247.059C49.5308 245.501 48.7434 243.321 48.3326 247.059C47.8191 251.731 45.7651 269.121 39.3462 278.725C38.0625 281.061 37.8057 283.137 40.8868 280.801C43.3516 278.932 39.5174 284.003 37.2922 286.771C36.5219 287.723 36.3679 288.744 41.9138 285.214C42.9408 284.435 37.2922 291.703 36.7787 292.222C36.2652 292.741 40.3733 291.703 40.8868 291.443C41.4003 291.184 41.9138 290.924 39.3462 294.558C38.9563 295.11 38.5726 295.639 38.2021 296.14C72.2055 361.329 141.743 406 222 406C298.406 406 365.096 365.514 400.66 305.38C399.503 304.537 398.997 304.002 399.954 304.002C400.386 304.002 400.899 304.033 401.428 304.07C401.831 303.377 402.229 302.682 402.624 301.984C401.473 301.292 400.418 300.506 399.541 299.718L403.952 299.595C408.941 290.474 413.228 280.934 416.742 271.043C414.067 269.134 411.997 267.527 416.375 268.473C416.806 268.566 417.197 268.648 417.551 268.719C417.84 267.87 418.124 267.018 418.403 266.164C418.098 265.813 417.765 265.425 417.407 265C414.346 261.365 415.916 261.612 416.541 261.711C416.619 261.723 416.681 261.733 416.719 261.733C416.804 261.733 417.19 261.93 417.665 262.173L417.666 262.174L417.667 262.174C418.241 262.468 418.947 262.829 419.407 262.989C419.461 262.812 419.515 262.636 419.569 262.459ZM395.675 289.008C396.425 288.06 397.361 286.766 397.953 285.658C397.05 285.534 395.848 285.316 394.305 285.015C387.329 283.656 391.319 286.214 395.669 289.003L395.675 289.008ZM397.164 281.731C398.779 279.754 402.254 275.042 400.037 276.03C399.495 276.271 399.053 276.441 398.705 276.548C401.001 278.732 398.138 277.41 396.233 276.53C395.523 276.202 394.945 275.935 394.819 275.935C394.762 275.935 394.669 275.922 394.553 275.905C393.62 275.773 391.276 275.44 395.846 280.338C396.315 280.84 396.756 281.304 397.164 281.731ZM69.9018 317.063C69.5507 317.813 69.1402 318.588 68.6978 319.283C66.5101 317.881 64.9579 316.88 66.3054 316.88C66.8454 316.88 67.5102 316.926 68.1758 316.972L68.1765 316.972C68.7823 317.014 69.3886 317.056 69.9018 317.063ZM70.9257 313.518C71.2621 313.294 71.0109 314.391 70.4286 315.849C70.1043 315.627 69.6768 315.367 69.1297 315.063C68.6735 314.809 68.2314 314.541 67.8085 314.264C68.7307 314.158 70.3582 313.896 70.9257 313.518Z" fill="#003A40"/>
<path d="M350.984 256.579C351.274 259.094 352.088 265.197 353.018 269.486C353.944 273.754 356.961 279.293 358.375 281.565C356.741 280.385 353.965 278.66 355.925 281.201C357.885 283.743 358.679 285.305 358.832 285.769C359.254 285.967 359.753 286.364 358.375 286.364C356.652 286.364 355.489 285.769 358.832 289.343C362.174 292.917 357.669 289.74 357.378 289.74C357.088 289.74 355.053 288.946 357.96 292.917C360.866 296.888 361.884 297.484 357.088 296.293C352.292 295.101 356.652 298.08 359.413 300.463C362.174 302.846 363.482 304.434 360.285 303.64C357.088 302.846 358.977 306.42 361.884 308.604C364.79 310.788 361.738 309.994 360.285 309.994C358.832 309.994 363.337 312.774 364.936 315.157C366.534 317.54 364.645 317.54 362.901 316.348C361.506 315.395 365.323 322.305 367.406 325.88L336.596 326.873C338.194 323.828 341.217 317.818 340.52 318.135C339.648 318.533 338.194 317.937 338.63 317.54C339.066 317.143 343.426 310.987 341.537 310.788C339.648 310.59 339.938 310.193 340.229 309.994C340.52 309.796 345.606 302.448 343.281 303.64C340.956 304.831 340.81 304.236 342.118 302.846C343.426 301.456 344.734 296.491 344.298 296.888C343.95 297.206 342.893 297.418 342.409 297.484C342.797 296.888 343.862 295.141 345.025 292.917C346.478 290.137 346.188 290.336 345.897 290.534C345.606 290.733 343.281 291.527 343.572 291.13C343.862 290.733 347.06 285.173 346.478 285.769C343.339 288.469 343.426 287.688 343.862 286.96C345.122 284.842 347.292 280.963 345.897 282.393C344.153 284.18 344.298 282.591 345.025 280.804C348.658 273.457 349.821 260.153 350.112 256.579C350.344 253.719 350.79 255.387 350.984 256.579Z" fill="#003A40"/>
<path d="M334.142 271.529C334.403 273.326 335.136 277.685 335.973 280.748C336.806 283.797 339.521 287.753 340.793 289.376C339.324 288.533 336.825 287.301 338.589 289.117C340.352 290.932 341.068 292.048 341.205 292.379C341.584 292.521 342.034 292.804 340.793 292.804C339.243 292.804 338.196 292.379 341.205 294.932C344.213 297.485 340.158 295.216 339.897 295.216C339.635 295.216 337.804 294.648 340.42 297.485C343.036 300.322 343.951 300.747 339.635 299.896C335.319 299.045 339.243 301.173 341.728 302.875C344.213 304.577 345.39 305.711 342.513 305.144C339.635 304.577 341.336 307.13 343.951 308.69C346.567 310.25 343.821 309.683 342.513 309.683C341.205 309.683 345.259 311.668 346.698 313.37C348.137 315.073 346.437 315.073 344.867 314.221C343.611 313.541 347.047 318.477 348.922 321.03L321.192 321.739C322.631 319.564 325.352 315.271 324.724 315.498C323.939 315.782 322.631 315.356 323.024 315.073C323.416 314.789 327.34 310.392 325.64 310.25C323.939 310.108 324.201 309.825 324.462 309.683C324.724 309.541 329.302 304.293 327.209 305.144C325.116 305.995 324.986 305.57 326.163 304.577C327.34 303.584 328.517 300.038 328.125 300.322C327.811 300.549 326.86 300.7 326.424 300.747C326.773 300.322 327.732 299.073 328.779 297.485C330.087 295.499 329.825 295.641 329.564 295.783C329.302 295.925 327.209 296.492 327.471 296.208C327.732 295.925 330.61 291.953 330.087 292.379C327.261 294.308 327.34 293.75 327.732 293.23C328.866 291.717 330.819 288.946 329.564 289.968C327.994 291.244 328.125 290.109 328.779 288.833C332.049 283.585 333.095 274.082 333.357 271.529C333.566 269.487 333.967 270.678 334.142 271.529Z" fill="#003A40"/>
<path d="M324.376 276.545C324.493 277.335 324.818 279.253 325.19 280.601C325.56 281.942 326.767 283.683 327.333 284.397C326.679 284.026 325.569 283.484 326.353 284.283C327.137 285.082 327.455 285.573 327.515 285.718C327.684 285.781 327.884 285.906 327.333 285.906C326.643 285.906 326.178 285.718 327.515 286.842C328.853 287.965 327.05 286.967 326.934 286.967C326.818 286.967 326.004 286.717 327.167 287.965C328.329 289.213 328.736 289.401 326.818 289.026C324.899 288.652 326.643 289.588 327.748 290.337C328.853 291.086 329.376 291.585 328.097 291.335C326.818 291.086 327.574 292.209 328.736 292.895C329.899 293.582 328.678 293.332 328.097 293.332C327.515 293.332 329.318 294.206 329.957 294.955C330.597 295.704 329.841 295.704 329.143 295.329C328.585 295.03 330.112 297.201 330.945 298.325L318.621 298.637C319.261 297.68 320.47 295.791 320.191 295.891C319.842 296.016 319.261 295.829 319.435 295.704C319.609 295.579 321.353 293.644 320.598 293.582C319.842 293.519 319.958 293.395 320.074 293.332C320.191 293.27 322.225 290.961 321.295 291.335C320.365 291.71 320.307 291.522 320.83 291.086C321.353 290.649 321.877 289.088 321.702 289.213C321.563 289.313 321.14 289.38 320.946 289.401C321.101 289.213 321.528 288.664 321.993 287.965C322.574 287.091 322.458 287.154 322.342 287.216C322.225 287.279 321.295 287.528 321.411 287.403C321.528 287.279 322.807 285.531 322.574 285.718C321.318 286.567 321.353 286.322 321.528 286.093C322.032 285.427 322.9 284.208 322.342 284.658C321.644 285.219 321.702 284.72 321.993 284.158C323.446 281.849 323.911 277.668 324.027 276.545C324.12 275.646 324.299 276.17 324.376 276.545Z" fill="#003A40"/>
<path d="M318.077 283.072C318.16 283.629 318.39 284.98 318.654 285.93C318.916 286.875 319.771 288.101 320.171 288.605C319.709 288.343 318.922 287.961 319.477 288.524C320.033 289.087 320.258 289.433 320.301 289.535C320.421 289.579 320.562 289.667 320.171 289.667C319.683 289.667 319.354 289.535 320.301 290.327C321.248 291.118 319.972 290.415 319.889 290.415C319.807 290.415 319.23 290.239 320.054 291.118C320.877 291.998 321.166 292.13 319.807 291.866C318.448 291.602 319.683 292.261 320.466 292.789C321.248 293.317 321.619 293.668 320.713 293.493C319.807 293.317 320.342 294.108 321.166 294.592C321.989 295.075 321.125 294.9 320.713 294.9C320.301 294.9 321.577 295.515 322.03 296.043C322.483 296.57 321.948 296.57 321.454 296.307C321.059 296.096 322.14 297.626 322.73 298.417L314.001 298.637C314.454 297.963 315.31 296.632 315.113 296.702C314.866 296.79 314.454 296.658 314.577 296.57C314.701 296.482 315.936 295.119 315.401 295.075C314.866 295.031 314.948 294.944 315.03 294.9C315.113 294.856 316.554 293.229 315.895 293.493C315.236 293.756 315.195 293.624 315.566 293.317C315.936 293.009 316.307 291.91 316.183 291.998C316.084 292.068 315.785 292.115 315.648 292.13C315.758 291.998 316.06 291.611 316.389 291.118C316.801 290.503 316.719 290.547 316.636 290.591C316.554 290.635 315.895 290.81 315.977 290.722C316.06 290.635 316.966 289.403 316.801 289.535C315.911 290.133 315.936 289.96 316.06 289.799C316.417 289.33 317.031 288.471 316.636 288.788C316.142 289.184 316.183 288.832 316.389 288.436C317.419 286.809 317.748 283.863 317.83 283.072C317.896 282.439 318.022 282.808 318.077 283.072Z" fill="#003A40"/>
</svg>
