<svg width="31" height="24" viewBox="0 0 31 24" fill="none" xmlns="http://www.w3.org/2000/svg">
<path d="M30.1693 2.87536C29.0613 3.35605 27.8895 3.67382 26.6905 3.81878C27.9555 3.06304 28.9035 1.87413 29.3586 0.472594C28.1698 1.18025 26.8685 1.67884 25.5112 1.94668C24.6039 0.962835 23.3958 0.307933 22.0763 0.084689C20.7567 -0.138554 19.4004 0.0824882 18.22 0.71315C17.0396 1.34381 16.102 2.34842 15.5541 3.56942C15.0061 4.79041 14.879 6.15874 15.1926 7.45978C12.7889 7.33821 10.4378 6.71235 8.29182 5.62286C6.14586 4.53337 4.2531 3.00463 2.73649 1.13593C2.20454 2.06486 1.92503 3.11685 1.92574 4.1873C1.92385 5.1814 2.16781 6.16054 2.63589 7.03755C3.10397 7.91456 3.78164 8.66221 4.60858 9.21395C3.64744 9.1878 2.70684 8.92989 1.86677 8.46216V8.53587C1.87398 9.92872 2.36206 11.2763 3.24846 12.3508C4.13486 13.4252 5.36517 14.1605 6.73127 14.4322C6.2054 14.5923 5.65942 14.6766 5.10977 14.6828C4.72929 14.6784 4.34976 14.6439 3.97472 14.5796C4.36375 15.7778 5.11659 16.8249 6.12848 17.5752C7.14037 18.3256 8.36099 18.7418 9.62049 18.7661C7.49368 20.4395 4.86785 21.3529 2.16159 21.3605C1.66885 21.3621 1.17651 21.3325 0.6875 21.272C3.45058 23.056 6.67056 24.0031 9.95953 23.9991C12.2292 24.0226 14.4808 23.5937 16.5828 22.7374C18.6848 21.881 20.5951 20.6144 22.2022 19.0115C23.8092 17.4086 25.0807 15.5015 25.9424 13.4017C26.8042 11.3019 27.2389 9.0514 27.2211 6.7817C27.2211 6.53111 27.2211 6.26577 27.2211 6.00043C28.3778 5.13781 29.3755 4.08032 30.1693 2.87536V2.87536Z" fill="#E7E7E7"/>
</svg>
