<svg width="429" height="252" viewBox="0 0 429 252" fill="none" xmlns="http://www.w3.org/2000/svg">
<g clip-path="url(#clip0_652_571)">
<path d="M429 0H0V172C0 216.183 35.8172 252 80 252H349C393.183 252 429 216.183 429 172V0Z" fill="url(#paint0_linear_652_571)"/>
<path d="M-127.047 439.022L-117.702 426.136C-108.357 413.25 -89.667 387.478 -70.5486 362.868C-51.4116 338.309 -31.8649 314.861 -12.1506 291.869C7.56377 268.877 27.4457 246.34 51.4436 234.973C75.4414 223.606 103.555 223.41 133.513 228.217C163.47 233.025 195.272 242.837 226.998 252.446C258.725 262.056 290.377 271.463 321.21 278.646C352.043 285.83 382.019 290.688 401.547 267.19C421.076 243.692 430.156 191.839 452.906 177.085C475.656 162.332 512.113 184.78 532.386 163.304C552.659 141.828 556.748 76.4282 558.811 43.7789L560.855 11.079L654.906 266.333L642.488 270.879C630.071 275.425 605.235 284.518 580.399 293.61C555.563 302.702 530.727 311.795 505.891 320.887C481.055 329.979 456.219 339.071 431.383 348.164C406.547 357.256 381.711 366.348 356.875 375.441C332.039 384.533 307.203 393.625 282.367 402.717C257.532 411.81 232.696 420.902 207.86 429.994C183.024 439.087 158.188 448.179 133.352 457.271C108.516 466.364 83.68 475.456 58.8441 484.548C34.0082 493.64 9.17226 502.733 -15.6637 511.825C-40.4996 520.917 -65.3355 530.01 -77.7535 534.556L-90.1715 539.102L-127.047 439.022Z" fill="#22FFFF"/>
<path d="M-181.038 353.478L-172.309 338.918C-163.6 324.307 -146.143 295.188 -122.332 283.314C-98.521 271.44 -68.3556 276.812 -40.4636 276.014C-12.5902 275.165 12.9911 268.096 44.3119 276.603C75.6513 285.161 112.712 309.246 135.684 295.096C158.656 280.946 167.541 228.562 185.445 200.656C203.349 172.751 230.309 169.424 256.841 164.934C283.391 160.494 309.532 154.942 336.1 150.553C362.688 146.215 389.686 142.989 418.901 145.782C448.116 148.575 479.548 157.385 509.527 162.252C539.525 167.168 568.088 168.191 582.369 168.702L596.651 169.213L613.049 213.719L600.631 218.265C588.213 222.811 563.377 231.903 538.541 240.996C513.706 250.088 488.87 259.18 464.034 268.273C439.198 277.365 414.362 286.457 389.526 295.549C364.69 304.642 339.854 313.734 315.018 322.826C290.182 331.919 265.346 341.011 240.51 350.103C215.674 359.195 190.838 368.288 166.003 377.38C141.167 386.472 116.331 395.565 91.4947 404.657C66.6588 413.749 41.8229 422.842 16.9869 431.934C-7.849 441.026 -32.6849 450.118 -57.5209 459.211C-82.3568 468.303 -107.193 477.395 -119.611 481.941L-132.029 486.488L-181.038 353.478Z" fill="#00CACB"/>
<path d="M-180.252 355.609L-163.18 363.696C-146.107 371.783 -111.961 387.957 -83.9975 387.354C-56.0149 386.801 -34.2325 369.422 -12.7108 351.335C8.81093 333.248 30.0348 314.352 57.4215 312.183C84.8083 310.014 118.321 324.469 141.295 310.324C164.269 296.178 176.704 253.431 200.013 240.196C223.323 226.96 257.543 243.336 283.123 236.265C308.704 229.194 325.645 198.676 350.668 190.089C375.69 181.502 408.792 194.846 432.53 182.772C456.286 170.749 470.695 133.358 491.286 112.745C511.858 92.0807 538.63 88.2437 551.998 86.2747L565.384 84.3563L613.049 213.718L600.631 218.265C588.213 222.811 563.377 231.903 538.541 240.995C513.705 250.088 488.869 259.18 464.033 268.272C439.198 277.365 414.362 286.457 389.526 295.549C364.69 304.641 339.854 313.734 315.018 322.826C290.182 331.918 265.346 341.011 240.51 350.103C215.674 359.195 190.838 368.288 166.002 377.38C141.166 386.472 116.33 395.564 91.4945 404.657C66.6586 413.749 41.8226 422.841 16.9867 431.934C-7.84924 441.026 -32.6852 450.118 -57.5211 459.21C-82.357 468.303 -107.193 477.395 -119.611 481.941L-132.029 486.487L-180.252 355.609Z" fill="#00989A"/>
<path d="M-144.464 452.744L-136.291 436.677C-128.137 420.56 -111.791 388.426 -91.2745 367.611C-70.758 346.795 -46.0338 337.4 -20.7696 329.47C4.49453 321.54 30.3358 315.176 61.1482 322.304C91.9793 329.482 127.8 350.202 154.535 346.264C181.251 342.275 198.901 313.679 218.821 291.246C238.761 268.865 260.99 252.698 288.097 249.771C315.186 246.792 347.171 257.104 372.901 250.437C398.631 243.77 418.142 220.226 441.023 205.828C463.904 191.43 490.155 186.178 513.017 171.73C535.861 157.231 555.298 133.485 565.016 121.612L574.734 109.739L621.28 236.063L608.862 240.61C596.444 245.156 571.608 254.248 546.772 263.34C521.936 272.433 497.1 281.525 472.264 290.617C447.428 299.71 422.592 308.802 397.757 317.894C372.921 326.986 348.085 336.079 323.249 345.171C298.413 354.263 273.577 363.356 248.741 372.448C223.905 381.54 199.069 390.632 174.233 399.725C149.397 408.817 124.561 417.909 99.7254 427.002C74.8894 436.094 50.0535 445.186 25.2176 454.279C0.381638 463.371 -24.4543 472.463 -49.2902 481.555C-74.1262 490.648 -98.9621 499.74 -111.38 504.286L-123.798 508.832L-144.464 452.744Z" fill="#00686B"/>
<path d="M-162.32 404.272L-147.739 405.597C-133.136 406.982 -103.974 409.632 -79.3584 399.94C-54.7432 390.249 -34.6752 368.216 -12.4219 352.115C9.83133 336.013 34.3141 325.962 61.821 324.119C89.3499 322.335 119.925 328.819 147.675 327.635C175.402 326.391 200.327 317.538 226.399 311.801C252.493 306.123 279.757 303.621 301.789 286.92C323.844 270.279 340.645 239.38 363.053 223.698C385.461 208.016 413.475 207.55 442.682 210.32C471.888 213.09 502.331 219.214 528.602 214.016C554.873 208.818 576.971 192.297 588.043 184.096L599.092 175.836L614.985 218.97L602.568 223.516C590.15 228.062 565.314 237.154 540.478 246.247C515.642 255.339 490.806 264.431 465.97 273.524C441.134 282.616 416.298 291.708 391.462 300.8C366.626 309.893 341.79 318.985 316.954 328.077C292.118 337.17 267.282 346.262 242.447 355.354C217.611 364.447 192.775 373.539 167.939 382.631C143.103 391.723 118.267 400.816 93.4309 409.908C68.595 419 43.7591 428.093 18.9231 437.185C-5.91279 446.277 -30.7487 455.369 -55.5846 464.462C-80.4206 473.554 -105.257 482.646 -117.674 487.193L-130.092 491.739L-162.32 404.272Z" fill="#003A40"/>
</g>
<defs>
<linearGradient id="paint0_linear_652_571" x1="429" y1="252" x2="208.893" y2="-122.706" gradientUnits="userSpaceOnUse">
<stop stop-color="#2FFFFF"/>
<stop offset="0.25" stop-color="#26F2F2"/>
<stop offset="0.5" stop-color="#2EB9BA"/>
<stop offset="0.75" stop-color="#19A3A4"/>
<stop offset="1" stop-color="#00A2A3"/>
</linearGradient>
<clipPath id="clip0_652_571">
<path d="M429 0H0V172C0 216.183 35.8172 252 80 252H349C393.183 252 429 216.183 429 172V0Z" fill="white"/>
</clipPath>
</defs>
</svg>
