<svg width="416" height="332" viewBox="0 0 416 332" fill="none" xmlns="http://www.w3.org/2000/svg">
<g filter="url(#filter0_dddddd_116_6737)">
<g clip-path="url(#clip0_116_6737)">
<path d="M80 67C80 31.6538 108.654 3 144 3H272C307.346 3 336 31.6538 336 67V230H80V67Z" fill="url(#paint0_linear_116_6737)"/>
<g filter="url(#filter1_d_116_6737)">
<path d="M94.517 138.865L80.0035 107.905V189.447C79.9243 212.454 81.1129 223.304 90.8449 230H324.809C332.658 225.489 334.975 220.761 336 209.069V70.4046C328.409 64.9738 324.955 70.605 320.263 96.5677C311.91 93.7586 305.406 97.4456 292.46 107.905C285.303 109.995 279.901 99.7718 270.077 79.9977C259.419 59.8747 253.714 49.9424 253.116 79.9977L253.03 80.6985C250.687 99.917 249.347 110.904 238.078 117.062C232.369 115.626 228.662 108.818 222.119 96.8031L221.991 96.5677C214.674 88.3909 210.509 90.0402 202.931 107.905L181.598 156.307C174.089 166.304 170.066 172.715 156.418 156.307C151.155 151.549 147.112 146.901 135.959 131.452C125.123 109.795 118.905 96.1708 113.577 131.452C111.712 136.773 110.951 140.293 109.905 147.15C104.695 151.245 101.92 154.888 94.517 138.865Z" fill="#967AA1"/>
</g>
<g filter="url(#filter2_d_116_6737)">
<path d="M96.8553 175.52C94.0261 178.178 91.7524 180.844 86.1113 188.311C85.5927 206.275 86.6899 215.669 93.6151 230H327.595C333.369 224.363 336.428 220.079 335.951 175.52L319.75 139.516C313.747 128.557 310.272 123.515 302.185 133.831L289.735 150.412C279.733 165.134 273.419 160.151 262.108 150.412C255.903 141.969 252.432 142.268 246.248 155.623C240.639 168.96 237.407 176.011 231.581 188.311C222.549 200.902 217.096 200.084 206.853 188.311C193.04 165 186.02 149.46 174.621 117.724C168.362 105.757 163.7 106.431 153.815 117.724C145.225 133.241 140.538 142.339 133.521 162.729C127.48 178.7 122.665 181.009 112.033 175.52C106.998 166.788 103.824 165.303 96.8553 175.52Z" fill="#595079"/>
</g>
<g filter="url(#filter3_d_116_6737)">
<path d="M325.152 179.525C327.979 181.744 330.251 183.969 335.889 190.202C336.407 205.196 335.311 213.038 328.39 225H94.5608C88.7902 220.295 79.541 217.694 80.0177 180.5L102.401 149.472C108.4 140.325 111.872 136.116 119.955 144.727L132.396 158.567C142.392 170.856 148.702 166.696 160.006 158.567C166.207 151.52 169.676 151.769 175.856 162.917C181.46 174.049 184.69 179.935 190.513 190.202C199.539 200.712 204.989 200.028 215.225 190.202C229.029 170.744 236.044 157.773 247.436 131.282C253.691 121.293 258.35 121.856 268.228 131.282C276.813 144.234 281.497 151.829 288.509 168.848C294.546 182.179 299.359 184.107 309.983 179.525C315.015 172.237 318.188 170.997 325.152 179.525Z" fill="#3A3C65"/>
</g>
<path fill-rule="evenodd" clip-rule="evenodd" d="M228.22 150.496C230.431 150.637 230.311 131.039 228.987 127.372C228.811 126.633 228.682 125.628 228.755 124.733C230.574 124.984 230.428 123.79 230.394 122.357C230.473 121.224 230.656 118.887 228.784 119.721C223.732 109.066 230.814 82.3769 216.455 79.2263C214.729 78.7513 212.945 78.2598 211.526 77.0525C210.088 74.2668 209.312 73.8859 206.746 73.6009C206.373 71.1307 205.593 68.4757 202.979 67.4098C200.588 66.4046 197.762 66.2128 195.208 66.5868C193.083 67.1461 192.735 70.8316 192.191 72.6329C189.397 71.8035 185.979 70.1633 184.314 73.4826C183.587 73.2427 182.898 73.3492 182.14 73.5497C175.826 74.2414 169.625 76.6723 167.061 82.1841C165.481 85.4899 166.345 89.198 166.737 92.7077C167.078 96.5258 165.604 99.9872 164.834 103.613C163.706 108.603 163.37 112.63 163.809 116.393C162.216 116.667 162.042 118.022 162.62 119.472C162.787 119.961 162.955 120.477 163.358 120.767C164.18 121.306 165.294 120.772 166.215 120.722C166.32 122.739 166.606 124.725 167.122 126.99C166.916 127.653 166.682 128.393 166.471 129.058L166.412 128.993C163.968 137.208 157.402 145.011 158.962 153.919C159.064 154.218 159.282 154.166 159.448 154.168C160.394 154.554 161.285 154.372 162.252 154.449C164.548 154.548 166.755 154.92 168.804 155.25C169.081 157.595 170.143 161.46 172.287 162.44C172.323 162.453 172.975 162.353 173.029 162.352C166.276 184.417 154.952 204.605 149.836 227.191C149.8 227.467 150.283 227.341 150.438 227.381C150.39 228.012 150.814 228.182 151.408 228.432C150.565 229.939 149.8 231.446 148.961 232.957C148.57 233.706 147.953 234.436 147.812 235.248C146.933 235.73 146.313 236.719 146.289 237.666C143.94 238.493 144.374 243.089 143.751 245.329C143.075 248.678 140.441 250.924 138.586 253.614C138.208 254.154 137.8 254.865 137.754 255.561C136.656 255.994 136.21 257.023 136.207 258.785C136.116 260.843 136.695 261.653 138.346 261.773C142.817 262.388 148.062 262.437 152.597 262.145C155.992 261.882 158.97 262.346 158.378 258.469C158.262 257.532 158.614 256.291 158.064 255.513C157.801 253.256 158.105 251.004 158.972 248.822C159.521 246.976 160.478 243.157 160.255 240.639C160.152 239.475 157.685 238.732 157.248 238.657C157.424 237.792 157.428 236.266 156.958 235.639C157.872 235.558 158.11 235.34 158.34 234.392C158.858 232.862 158.99 231.183 160.165 229.925C162.179 230.035 164.207 229.636 166.224 229.662L166.333 229.447C167.525 229.483 168.717 229.334 169.864 228.991C170.11 229.114 170.427 229.224 170.583 228.871L171.34 226.907C180.168 203.637 189.848 180.345 199.302 157.275C199.844 156.157 200.489 154.971 201.304 153.989C200.958 168.335 203.521 182.79 203.186 197.13C203.136 207.002 202.628 216.752 203.187 226.685C203.35 228.789 203.621 228.731 203.956 228.617C204.088 228.642 204.396 228.718 204.53 228.751C204.221 230.822 203.824 234.188 202.792 236.276C200.698 236.492 201.006 238.021 201.415 239.295C200.901 239.675 200.932 240.615 201.058 241.14C199.099 241.059 198.608 242.55 198.703 243.508C198.821 245.108 198.612 247.583 199.676 248.99C200.263 250.753 201.269 252.436 201.61 254.322C201.816 255.708 201.629 257.707 201.825 259.082C201.173 259.335 201.426 259.786 201.282 260.631C200.563 264.499 202.542 263.921 205.981 264.335C208.031 264.855 223.739 266.384 223.168 263.765C223.329 262.716 222.831 262.231 222.653 261.183C222.565 260.904 220.739 257.632 219.62 256.375C215.844 252.716 216.214 248.033 216.568 242.636C216.399 241.163 215.27 239.71 213.746 239.803C214.248 238.258 213.498 236.864 211.83 236.341C212.074 234.577 212.353 232.179 213.035 230.674L212.478 230.089L213.252 230.21L213.536 229.605L213.789 230.292C215.124 230.348 216.643 230.132 217.927 230.054C218.131 230.074 218.051 229.807 218.089 229.707C219.307 229.521 219.465 228.918 219.313 227.46C220.591 203.948 221.457 180.639 222.071 157.055C223.956 157.215 225.824 156.641 227.697 156.284C228.34 156.704 228.586 155.317 228.521 155.012C228.483 153.449 228.344 151.919 228.22 150.496Z" fill="#EEEEEE"/>
<path fill-rule="evenodd" clip-rule="evenodd" d="M166.846 126.586C167.179 127.899 167.531 129.839 167.932 131.138C168.599 134.719 169.059 138.347 169.307 141.974C169.391 143.187 169.445 144.398 169.548 145.606C169.358 146.381 169.586 148.615 169.364 149.383C166.072 149.819 161.402 152.075 158.699 153.919C158.135 147.323 162.313 140.139 164.23 134.013C164.357 133.619 164.484 133.222 164.606 132.821C165.132 131.581 166.193 128.452 166.574 127.199L166.626 127.028L166.685 127.094L166.846 126.586ZM211.299 76.8388C211.657 77.073 212.032 77.2738 212.418 77.4504C215.402 79.2438 220.762 79.5218 222.47 82.8576C226.84 92.4552 226.315 108.36 228.524 119.664C228.645 120.288 230.055 119.686 230.18 120.291C230.49 121.794 230.041 123.207 230.42 124.572C228.701 124.915 224.275 125.001 222.56 125.353C222.922 126.747 226.981 138.08 228.106 154.036C227.461 153.87 226.834 153.642 226.222 153.386L225.987 153.277C222.55 151.687 217.146 149.211 213.374 148.472C211.557 134.503 209.984 119.678 210.311 105.504L210.327 104.85C210.423 100.658 210.057 96.4831 209.551 92.3202L209.526 92.028C209.279 89.1335 209.092 86.1213 209.928 83.3088C210.157 83.3855 209.559 81.8275 209.34 79.8609C209.205 78.643 209.781 77.266 209.082 76.0305C208.11 74.3148 206.601 76.392 206.729 75.9308C206.794 75.699 205.483 72.7934 206.007 73.1152C206.579 73.4664 208.766 73.5504 209.572 74.3803C211.334 76.1938 211.613 77.528 211.325 76.8958L211.299 76.8388ZM180.13 74.1805C180.9 74.0718 183.146 73.4584 183.941 73.5326C183.434 74.4566 184.751 70.3045 188.322 71.4108C188.479 71.4592 192.178 72.1543 192.133 72.8454C192.103 73.3089 187.986 73.6836 187.613 74.2453C187.176 74.9051 187.786 76.9719 187.468 77.6607C186.516 79.7299 186.899 80.3298 187.169 80.1158C187.362 80.4263 187.373 80.8563 187.397 81.2583L187.426 81.6941C187.895 88.5727 189.183 95.382 189.465 102.273C189.969 109.992 187.854 117.501 186.954 125.108C186.191 131.964 186.516 139.358 185.967 146.222C185.916 146.602 185.769 147.113 185.501 147.439L185.474 147.47L185.472 147.47L185.37 147.485C183.514 147.759 180.719 148.74 178.824 148.65C177.193 145.321 175.63 136.916 176.443 131.302C177.047 127.129 177.858 121.734 177.902 120.701C177.981 118.834 166.433 121.25 163.09 120.71C161.99 120.533 161.988 119.337 161.948 117.389C161.937 116.833 163.246 116.638 163.289 116.024C163.596 111.575 163.836 105.621 163.907 105.273C164.532 101.807 165.898 98.4733 166.213 94.9581C166.418 91.4053 165.002 87.8656 165.785 84.3273C166.923 79.1743 171.967 75.7781 177.093 74.6734C178.096 74.429 179.109 74.324 180.13 74.1805Z" fill="#B4B4B4"/>
<path fill-rule="evenodd" clip-rule="evenodd" d="M186.865 79.3285L186.875 79.4371L186.885 79.5457C187.159 82.6606 188.935 100.942 189.101 104.062C189.431 110.284 187.612 117.185 187.298 123.407C187.217 125.016 187.137 136.638 186.748 137.339C186.632 137.549 185.058 139.914 187.885 139.346C194.271 138.065 208.844 132.912 211.978 132.972C211.512 132.881 211.26 132.513 211.218 132.055C211.177 131.618 210.48 121.672 210.455 111.346C210.427 99.9768 209.391 80.1128 209.341 79.861C208.144 80.3967 206.222 87.9246 201.602 87.7288C196.982 87.533 191.156 82.0343 187.934 76.646C187.271 75.5371 187.122 79.4562 186.865 79.3285Z" fill="#B4B4B4"/>
<path fill-rule="evenodd" clip-rule="evenodd" d="M192.825 69.3735C193.097 69.5953 193.043 70.1758 193.057 70.5026L193.058 70.524C193.104 71.5114 192.943 72.4946 192.649 73.4389L192.604 73.5829C192.464 74.0342 192.32 74.5763 191.928 74.8733C191.483 75.2107 190.81 74.9515 190.819 74.3775C190.823 74.1107 190.927 73.858 191.057 73.6131C190.211 73.8822 189.365 74.1481 188.517 74.4063C187.805 78.569 193.759 83.9547 197.256 85.9001C202.344 88.8493 206.899 84.8554 207.774 79.9702C207.913 79.3223 208.017 78.6547 208.059 77.9937L208.063 77.9302C208.089 77.3832 208.024 76.6477 208.42 76.2087C208.143 76.1908 207.896 76.2173 207.623 76.246L207.635 76.2679C207.777 76.5347 207.967 77.1916 207.479 77.2202C206.433 77.071 206.018 75.306 205.798 74.4585L205.789 74.4218C205.65 73.7878 205.536 71.5032 206.046 71.2514C206.175 71.8194 206.089 72.4265 206.251 72.9975C206.668 73.1772 207.473 73.2551 207.659 73.2928C209.84 73.4092 211.015 74.946 211.826 76.7209C214.334 78.8473 218.076 78.6588 220.806 80.4381C229.126 86.6859 225.356 109.476 229.211 119.403C230.08 119.104 230.922 119.812 231.002 120.635C231.093 121.269 231.029 121.942 231.012 122.58L231.012 122.66C231.027 123.967 231.203 125.444 229.342 125.393C229.314 126.121 229.429 126.833 229.585 127.543C230.434 131.842 230.698 136.244 230.614 140.61L230.606 140.931C230.542 143.225 230.271 150.319 228.844 151.099L228.888 151.601C228.996 152.857 229.095 154.116 229.126 155.376C229.232 156.033 228.712 157.576 227.802 157.123C226.085 157.449 224.383 157.966 222.617 157.894C222.473 171.403 221.688 184.899 221.179 198.398C220.621 208.341 220.763 218.396 219.847 228.285L219.859 228.426C219.952 229.544 219.953 230.514 218.579 230.837C218.548 231.109 218.321 231.245 218.057 231.266C217.309 231.329 216.561 231.387 215.812 231.442C215.116 231.462 214.367 231.594 213.678 231.487C213.743 231.554 213.561 231.556 213.543 231.508C212.849 232.981 212.596 234.607 212.373 236.2C213.88 236.817 214.662 238.096 214.346 239.644C215.888 239.769 216.947 241.442 217.106 242.822C217.204 243.773 217.053 244.707 216.969 245.652C216.618 248.88 216.972 252.389 219.068 255.064C220.431 256.745 222.233 258.29 222.768 260.427C222.935 260.509 223.068 260.66 223.12 260.89L223.454 262.38L223.62 263.125C223.741 263.669 223.846 264.224 223.745 264.776L223.735 264.83C223.199 268.336 208.029 265.992 205.065 265.613C203.877 265.385 202.561 265.426 201.51 264.78C200.224 263.899 200.13 262.216 200.415 260.854L200.439 260.726C200.557 260.117 200.718 259.479 201.347 259.162C201.194 257.882 201.33 256.585 201.137 255.308C200.842 253.501 199.783 251.898 199.282 250.154C198.483 249.236 198.513 247.86 198.385 246.725C198.299 245.626 198.237 244.52 198.239 243.417C198.179 241.957 198.897 240.786 200.52 240.664C200.457 240.385 200.672 240.155 200.883 239.987C200.47 238.347 200.432 236.117 202.544 235.653C203.414 233.828 203.729 231.824 204.024 229.851C203.999 229.845 203.974 229.84 203.949 229.835C202.976 230.171 202.785 228.545 202.732 227.687L202.72 227.483C202.154 217.577 202.665 207.658 202.714 197.747L202.708 197.031C202.661 190.497 202.746 183.912 201.829 177.429C200.935 170.209 200.931 162.909 200.828 155.647C200.316 156.337 200.022 157.141 199.6 157.881C193.938 171.76 188.147 185.592 182.543 199.494C178.481 209.558 174.579 219.684 170.667 229.802C170.467 230.321 169.903 230.406 169.502 230.22C168.446 230.518 167.345 230.666 166.243 230.653C166.171 230.795 166.03 230.894 165.832 230.865C165.247 230.779 164.562 230.925 163.971 230.965C162.62 231.034 161.305 231.174 159.946 231.135C159.062 232.107 158.951 233.472 158.512 234.655C158.263 235.257 158.24 236.63 157.461 236.769C157.72 237.184 157.736 237.67 157.67 238.167C157.908 238.229 158.147 238.337 158.368 238.447C158.584 238.561 158.875 238.565 159.017 238.783C163.293 239.706 159.817 247.322 158.959 249.853C158.136 251.917 157.813 254.096 158.055 256.298C158.54 256.991 158.326 257.981 158.37 258.779C158.382 259.491 158.427 260.214 158.39 260.924C158.181 263.872 154.356 263.229 152.17 263.52C150.809 263.611 149.444 263.658 148.08 263.681C144.62 263.738 141.148 263.606 137.718 263.144C135.497 262.983 135.077 261.589 135.16 259.709L135.16 259.631C135.164 258.353 135.446 256.822 136.753 256.213C136.846 255.541 137.235 254.876 137.629 254.302C139.458 251.645 142.133 249.362 142.778 246.108C143.365 243.985 143.003 239.24 145.351 238.22C145.446 237.256 146.113 236.299 146.911 235.809C147.094 235.011 147.689 234.296 148.069 233.572C148.84 232.19 149.559 230.785 150.326 229.402C149.962 229.238 149.58 228.948 149.545 228.558C149.189 228.547 148.847 228.315 148.908 227.907C149.084 226.721 149.408 225.562 149.717 224.403L149.756 224.259C155.272 203.3 165.649 183.923 172.116 163.276C171.359 163.373 170.692 162.53 170.299 161.982C169.03 160.215 168.326 158.112 168.067 155.997L167.44 155.896C165.348 155.563 163.245 155.259 161.122 155.227L160.611 155.221C160.043 155.214 159.474 155.185 158.943 154.969C158.565 154.986 158.181 154.778 158.105 154.374C156.85 146.895 161.007 140.024 164.055 133.443C164.776 131.824 165.31 130.172 165.824 128.486C165.841 128.431 165.932 128.447 165.927 128.503C165.76 130.396 165.183 132.286 164.602 134.092C162.685 140.219 158.98 146.149 159.545 152.745C162.247 150.902 165.416 149.676 168.709 149.24C168.93 148.472 169.171 147.71 169.361 146.935C169.258 145.727 169.204 144.516 169.121 143.303C168.873 139.676 168.412 136.048 167.745 132.467C166.628 128.844 165.675 125.18 165.438 121.4L165.366 121.41C164.479 121.542 163.495 121.868 162.702 121.303C162.199 120.941 161.999 120.368 161.813 119.818C161.271 118.481 161.234 116.751 162.947 116.274C162.494 112.075 163.088 107.737 164.025 103.637C164.788 100.04 166.278 96.5274 165.934 92.7974C165.529 89.2101 164.65 85.4335 166.297 82.0085C169.007 76.2908 175.362 73.793 181.534 73.164L181.634 73.1405C182.402 72.9598 183.103 72.7647 183.887 72.9596C185.891 69.7598 188.859 71.2216 191.782 72.0775C192.005 71.53 192.195 70.9683 192.376 70.4066C192.485 70.1212 192.481 69.4519 192.825 69.3735ZM201.839 260.776L201.825 260.919C201.682 262.451 201.714 263.77 203.724 263.845C205.1 264.044 206.477 264.238 207.857 264.415L208.374 264.481C212.469 265.002 216.62 265.349 220.744 265.001L220.916 264.986C221.261 264.955 221.895 264.991 222.177 264.762C222.521 264.359 222.177 263.548 222.118 263.06C215.721 262.718 209.322 262.223 202.914 262.029C202.241 262.004 201.96 261.445 202.043 260.951C201.969 260.899 201.9 260.84 201.839 260.776ZM136.893 257.252C136.534 258.287 136.57 259.282 136.703 260.339C136.745 261.442 137.294 261.536 138.292 261.604C142.177 262.11 146.108 262.205 150.02 262.085C152.12 261.96 154.268 262.059 156.338 261.708C157.335 261.338 156.824 260.022 156.891 259.231C152.164 261.849 145.211 261.196 140.255 259.356L140.176 259.32C139.008 258.796 137.501 258.434 136.893 257.252ZM145.328 238.647C144.774 239.191 144.695 240.802 144.649 241.35L144.644 241.412C144.536 242.562 144.496 243.717 144.395 244.867C144.228 249.723 141.167 252.018 138.804 255.828C138.163 256.749 139.032 256.92 139.73 257.258C144.248 259.483 149.681 260.024 154.558 258.674C157.004 258.111 156.541 256.547 156.416 254.652C156.377 250.79 158.664 247.409 159.455 243.709L159.476 243.613C159.712 242.527 160.157 239.736 158.291 240.258C157.881 240.474 157.516 240.165 157.484 239.805C157.436 239.811 157.387 239.813 157.34 239.811C157.074 241.048 156.801 242.283 156.537 243.52C156.71 243.635 156.872 243.763 157.014 243.908C157.187 244.085 157.046 244.434 156.776 244.401C156.637 244.384 156.5 244.358 156.364 244.328C156.21 245.406 154.42 244.721 154.981 243.876C152.407 242.91 149.529 242.857 146.85 243.399L146.839 243.403C146.631 243.472 145.143 243.69 145.609 243.928C145.806 243.959 145.345 244.185 145.282 243.802C145.277 243.325 146.433 243.14 146.793 242.957C145.958 241.718 145.418 240.135 145.328 238.647ZM212.358 237.676C209.953 236.31 206.911 236.65 204.235 236.761L204.122 236.768C203.441 236.808 202.493 236.811 202.153 237.46C201.657 238.502 202.304 240.908 202.489 242.098L202.556 242.411C202.719 243.175 202.872 243.932 202.905 244.716C202.906 244.741 202.88 244.757 202.857 244.756C201.963 243.771 201.597 242.481 201.212 241.249C201.022 241.342 200.835 241.443 200.659 241.556C199.897 243.707 199.574 246.019 200.01 248.265L200.026 248.345C200.564 251.121 202.508 253.454 202.58 256.335C202.661 257.501 202.581 258.69 202.886 259.832C203.085 259.883 203.254 260.03 203.325 260.21L204.474 260.26C210.03 260.504 215.585 260.787 221.128 261.239C221.012 259.753 219.69 258.381 218.762 257.326C215.906 254.31 214.794 250.104 215.454 246.124C215.797 244.133 217.109 241.038 214.257 240.177C213.977 241.799 213.623 243.413 213.396 245.044C213.93 245.316 213.869 245.97 213.204 245.929C212.866 246.868 211.881 246.441 212.027 245.548C208.421 244.112 206.34 243.594 202.692 245.372C202.593 245.354 202.983 244.991 203.033 244.925C204.209 243.822 205.962 243.354 207.587 243.403C209.196 243.471 210.685 244.11 212.185 244.619C212.479 243.083 212.698 241.535 212.945 239.992L212.998 239.661C213.127 238.851 213.121 238.177 212.358 237.676ZM152.691 255.14C153.232 255.05 153.732 254.899 154.271 255.038C156.129 256.483 148.286 256.535 147.623 256.41C145.929 256.291 144.24 256.015 142.627 255.492L142.515 255.455C142.356 255.406 140.746 254.907 141.063 254.729C143.263 255.008 145.409 255.484 147.663 255.479C148.786 255.504 149.916 255.477 151.033 255.364C151.588 255.307 152.142 255.233 152.691 255.14ZM204.508 255.644C204.178 255.132 205.86 255.865 206.082 255.881C207.484 256.271 208.914 256.583 210.363 256.749C211.335 256.86 212.32 256.917 213.299 256.913C214.023 256.92 214.743 256.849 215.464 256.81L215.49 256.81C215.918 256.814 216.763 257.101 216.215 257.56C215.37 258.128 214.164 257.893 213.178 257.939C210.193 257.804 207.052 257.214 204.508 255.644ZM148.549 249.646C149.415 249.535 154.154 249.688 153.623 251.045C153.497 251.302 153.232 251.377 152.958 251.324C150.056 250.525 146.909 250.037 143.947 250.845C143.899 250.859 143.87 250.784 143.917 250.766C145.382 250.145 146.94 249.733 148.549 249.646ZM210.081 250.906C210.857 250.883 211.634 250.935 212.405 251.023L212.721 251.06C213.046 251.099 213.379 251.145 213.686 251.248L213.748 251.269C214.167 251.417 215.095 252.149 214.354 252.451C213.564 252.658 212.916 252.345 212.171 252.13C210.093 251.57 207.88 251.636 205.781 252.029L206.07 252.131C206.089 252.119 206.111 252.149 206.093 252.162C205.875 252.328 205.589 252.253 205.45 252.031C205.425 251.993 205.444 251.934 205.486 251.915C206.925 251.274 208.495 250.953 210.081 250.906ZM144.737 247.96C147.148 247.066 149.899 247.073 152.428 247.469L152.608 247.498C153.397 247.619 154.429 247.704 154.853 248.423C155 248.672 154.826 248.943 154.569 249.02C153.812 249.246 152.957 248.692 152.249 248.469C150.154 247.83 147.893 247.676 145.723 247.965C145.734 248.041 145.379 247.993 145.3 248.016C145.203 248.007 144.548 248.182 144.737 247.96ZM204.561 248.941C206.668 248.076 209.068 247.95 211.279 248.536L211.371 248.565C212.349 248.871 213.928 249.248 214.24 250.255C214.307 250.482 214.128 250.777 213.877 250.812C213.028 250.929 212.287 250.313 211.536 250C209.324 249.106 206.791 248.807 204.445 249.296C204.425 249.382 204.406 249.468 204.386 249.553C204.427 249.53 204.466 249.587 204.433 249.617C204.052 249.847 203.693 249.21 204.561 248.941ZM150.2 244.959C151.877 244.924 153.556 245.198 155.153 245.684L155.453 245.776C155.889 245.912 156.453 246.121 156.498 246.576C156.516 246.757 156.463 246.878 156.304 246.983C155.725 247.358 154.538 246.471 153.843 246.343C151.336 245.513 148.612 245.408 146.018 245.852L145.93 245.867L145.974 246.288C146.026 246.491 145.481 245.995 145.705 245.79C147.09 245.193 148.684 245.013 150.2 244.959ZM206.24 246.585C207.593 246.413 208.979 246.428 210.332 246.601L210.492 246.622C211.299 246.724 213.921 246.934 213.245 248.206C213.132 248.419 212.828 248.434 212.637 248.332C211.994 247.989 211.281 247.845 210.561 247.71C208.018 247.264 205.399 247.292 202.875 247.839C202.926 247.922 202.81 248.013 202.703 248.027C202.437 248.062 202.45 247.765 202.57 247.611C202.712 247.429 202.983 247.372 203.193 247.298C204.171 246.942 205.202 246.717 206.24 246.585ZM155.7 237.205L155.548 237.164C153.011 236.484 147.374 235.219 146.644 238.539C146.373 240.003 147.001 241.469 146.888 242.926C149.588 242.014 152.525 242.15 155.256 242.943C155.565 241.44 155.863 239.934 156.177 238.431L156.225 238.252C156.358 237.746 156.412 237.349 155.7 237.205ZM149.968 237.572C150.546 237.142 151.476 237.188 152.003 237.706C152.499 237.827 152.831 238.346 152.821 238.778C153.529 240.079 152.536 241.793 151.069 242.048C147.759 242.564 146.472 238.229 149.968 237.572ZM206.927 237.959C209.693 237.61 210.551 240.955 208.24 242.199C204.991 243.578 203.071 238.728 206.927 237.959ZM151.724 228.271C151.754 228.526 151.615 228.7 151.451 228.863C150.795 231.027 149.861 233.027 148.937 235.089C151.673 234.777 154.226 235.258 156.602 236.06C156.658 235.421 156.993 234.771 157.233 234.177C157.698 233.049 158.248 231.954 158.874 230.9L158.953 230.769C159.178 230.394 159.395 230.002 159.657 229.645C157.011 229.188 154.364 228.765 151.724 228.271ZM205.327 230.076L205.243 230.378C204.882 231.685 204.535 233.006 204.026 234.27L204.019 234.296C203.936 234.617 203.716 236.109 203.662 235.047C203.58 235.203 203.492 235.357 203.399 235.509L204.061 235.462C206.53 235.293 209.102 235.184 211.487 235.87C211.315 234.024 211.758 232.285 212.369 230.572C210.016 230.42 207.68 230.338 205.327 230.076ZM160.626 230.468C160.536 230.541 160.449 230.616 160.365 230.694C160.475 230.672 160.584 230.651 160.686 230.633C160.684 230.573 160.641 230.526 160.626 230.468ZM213.775 231.034L213.691 231.201C213.732 231.181 213.777 231.161 213.825 231.144C213.805 231.11 213.788 231.074 213.775 231.034ZM150.279 227.967C150.247 228.064 150.221 228.171 150.167 228.257C150.206 228.266 150.246 228.275 150.287 228.285C150.34 228.193 150.395 228.103 150.455 228.016C150.396 228 150.337 227.984 150.279 227.967ZM175.355 120.558C175.109 120.659 174.857 120.676 174.524 120.675C171.818 120.667 169.113 120.849 166.439 121.242C166.499 123.282 167.069 125.28 167.608 127.246L167.718 127.676C169.523 134.712 171.048 142.049 170.371 149.3C170.391 149.308 170.41 149.319 170.429 149.329C170.392 149.416 170.364 149.506 170.326 149.593L170.302 149.645L170.164 149.936C170.087 150.098 170.013 150.26 169.947 150.427C169.842 150.458 169.714 150.479 169.593 150.49C168.817 154.311 169.217 158.649 171.851 161.774C170.946 159.855 170.693 157.707 170.825 155.622L170.846 155.303C170.874 154.91 170.915 154.518 171.058 154.149C171.064 154.13 171.091 154.134 171.098 154.151C171.61 155.887 171.569 157.748 172.07 159.496L172.109 159.63C172.506 161 173.191 162.772 174.479 163.526C174.718 163.604 175.095 163.539 175.21 163.81L175.217 163.829L175.225 163.827C174.714 161.976 174.416 160.071 174.367 158.16L174.364 158.029C174.351 157.363 174.29 156.646 174.492 156.004C174.8 156.612 174.676 157.578 174.801 158.303L174.805 158.344C174.895 159.126 175.823 165.111 176.631 164.351C176.8 164.139 176.777 163.714 176.792 163.454L176.794 163.429C176.822 163.053 176.834 162.677 176.836 162.3C176.846 160.08 176.579 157.79 177.383 155.661C177.517 155.302 178.166 155.261 178.226 155.697C178.467 157.44 178.693 159.183 178.919 160.927C179.093 161.993 179.033 163.185 179.659 164.125C179.751 162.135 179.718 160.145 179.702 158.152L179.679 158.068C179.61 157.814 179.545 157.485 179.736 157.279C179.829 156.829 180.526 156.91 180.565 157.388C180.574 157.488 180.579 157.589 180.585 157.689C180.805 157.974 181.009 158.265 181.273 158.513C183.251 155.051 177.527 148.684 176.871 144.652C174.768 136.765 176.512 128.663 177.556 120.766C176.828 120.653 176.091 120.6 175.355 120.558ZM212.072 77.2347C213.247 79.7228 214.077 82.3384 214.615 85.0169C214.781 85.8438 213.602 86.297 213.164 85.5601L213.151 85.5374C212.614 84.6032 211.791 83.7655 210.719 83.4061C209.856 86.3134 210.084 89.4341 210.343 92.4176C210.848 96.5804 211.214 100.755 211.118 104.947L211.112 105.172C210.743 119.488 212.357 133.824 214.192 147.934C218.05 148.69 221.534 150.508 225.051 152.127C225.663 152.383 226.29 152.61 226.935 152.777C225.81 136.82 219.603 121.638 218.16 105.726C217.776 101.588 217.927 97.4079 218.872 93.3494C218.888 93.2716 219.004 93.3029 219.006 93.3724C219.02 95.0566 219.253 96.728 219.362 98.407C219.524 97.4576 219.848 96.5027 220.115 95.5973C220.432 94.7141 220.596 93.2814 221.438 92.7325L221.497 92.5655C221.522 92.4938 221.634 92.5292 221.613 92.601C221.603 92.6353 221.593 92.6688 221.583 92.7031C222.103 92.8578 221.587 93.4275 221.445 93.7048C220.511 95.8136 220.162 98.1243 219.493 100.31C220.033 107.246 221.244 114.122 222.807 120.907C224.521 120.555 226.241 120.218 227.96 119.875C224.663 107.985 227.436 94.9887 222.226 83.5476C220.255 79.6987 214.988 79.987 212.072 77.2347ZM183.334 73.8685C182.54 73.7943 181.691 74.1691 180.922 74.2778C179.901 74.4214 178.887 74.5263 177.884 74.7707C172.758 75.8754 167.714 79.2716 166.576 84.4246C165.794 87.9629 167.21 91.5026 167.004 95.0554C166.69 98.5706 165.323 101.904 164.698 105.37C163.974 108.911 163.618 112.635 163.958 116.238C168.558 115.206 173.311 115.331 177.948 116.161C177.789 110.714 178.531 105.279 179.043 99.8645C179.394 96.3881 179.891 92.9022 179.915 89.4054C179.916 89.3277 180.05 89.3143 180.059 89.3924C181.155 96.583 180.028 103.788 179.582 110.974C179.415 112.787 179.574 114.631 179.402 116.434C181.504 116.958 181.328 119.302 180.614 120.822C180.483 121.189 180.096 121.108 179.782 121.049C179.425 121.376 178.628 120.896 178.163 120.877C177.42 129.788 174.804 139.23 178.984 147.766C180.878 147.856 182.729 147.312 184.586 147.038L184.687 147.024L184.69 147.023C184.975 146.7 185.13 146.167 185.183 145.775C185.732 138.911 185.218 131.986 185.981 125.131C186.882 117.523 188.996 110.014 188.493 102.296C188.21 95.4046 186.922 88.5952 186.453 81.7166L186.43 81.3608C186.401 80.9367 186.402 80.4695 186.196 80.1383C184.869 81.1915 183.739 82.4627 182.908 83.9117C182.451 84.6093 181.324 84.2425 181.341 83.4338C181.238 81.9841 181.275 80.535 181.503 79.0991L181.523 78.9724C181.806 77.1749 182.454 75.4752 183.334 73.8685ZM228.818 125.431C227.166 125.443 225.508 125.547 223.858 125.457L223.999 126.056C225.697 133.248 227.525 140.433 228.472 147.759L228.546 147.079C228.62 146.399 228.693 145.718 228.75 145.035C229.383 138.515 229.116 131.965 228.818 125.431ZM187.827 78.2511C187.821 78.5467 187.824 78.8419 187.836 79.1367C188.552 80.2542 188.423 81.6939 188.54 82.9496C189.211 89.7323 190.334 96.5065 190.52 103.339C190.73 108.807 189.779 114.207 188.814 119.571C187.643 125.711 187.474 131.957 187.422 138.186C191.04 135.334 196.024 135.017 200.468 134.272L200.68 134.24C204.095 133.725 207.515 132.914 210.472 131.16C208.998 117.015 210.089 102.798 208.568 88.6635C208.55 87.5547 208.584 86.4419 208.727 85.3409C208.685 84.1406 208.708 82.9365 208.757 81.7368C207.679 85.2412 204.427 88.5331 200.361 88.2487C196.04 87.8237 192.507 84.2994 189.805 81.2923C189.076 80.3985 188.358 79.3605 187.827 78.2511ZM223.995 125.233L223.8 125.215L223.81 125.256C223.851 125.25 223.892 125.245 223.933 125.24L223.995 125.233ZM229.571 120.66C229.541 120.65 229.488 120.648 229.429 120.648C229.337 120.829 229.16 120.974 228.96 121.016L227.289 121.37C225.897 121.665 224.504 121.958 223.11 122.242C223.305 123.1 223.505 123.958 223.706 124.815C225.613 124.318 227.691 124.537 229.625 124.247C229.643 123.267 229.629 122.281 229.653 121.299C229.655 121.139 229.701 120.883 229.62 120.736C229.57 120.642 229.623 120.678 229.571 120.66ZM166.216 121.276L166.164 121.285C166.179 121.33 166.193 121.375 166.205 121.421C166.208 121.372 166.211 121.325 166.216 121.276ZM178.667 117.084C175.143 116.443 171.549 116 167.959 116.182C166.333 116.322 164.681 116.475 163.084 116.692C162.499 117.475 163.025 119.462 163.685 120.112C163.888 120.195 164.248 120.065 164.447 120.032C165.941 119.776 167.446 119.583 168.956 119.447C168.999 119.502 169.063 119.539 169.144 119.535L169.49 119.52C171.569 119.428 173.664 119.385 175.735 119.585L175.75 119.597C177.147 119.754 178.534 120.023 179.922 120.234C180.531 118.887 180.502 117.309 178.667 117.084ZM206.36 73.4575C206.479 73.9052 206.625 74.3417 206.812 74.7677C207.028 74.7204 207.321 74.7782 207.473 74.9131L207.54 74.9044C207.725 74.879 207.948 74.8375 208.006 74.834C210.553 74.6074 210.224 77.8278 210.164 79.4508C210.145 80.2649 210.128 81.08 210.119 81.8946C210.854 81.6901 211.806 82.154 212.423 82.5551C211.994 80.9607 211.476 79.3882 210.891 77.8401L210.78 77.5386C210.32 76.2901 209.805 75.0239 208.753 74.1235C207.934 73.8822 207.134 73.8108 206.36 73.4575ZM188.027 71.869C185.707 70.9691 184.697 72.7477 183.967 74.5334C183.112 76.5089 182.808 78.7111 182.845 80.8774L182.928 80.7808C183.841 79.7173 185.167 77.9542 186.734 78.313C186.754 77.4776 186.825 76.5619 187.029 75.7021C186.955 75.1386 186.954 74.5724 187.046 74.0101C187.112 73.303 187.918 73.4448 188.455 73.3673C188.93 73.094 189.493 72.9997 190.046 73.2297C190.472 73.1941 190.898 73.1609 191.324 73.1277C191.395 72.9943 191.453 72.8597 191.514 72.7225C190.351 72.4418 189.189 72.1541 188.027 71.869Z" fill="#1B1B1B"/>
<path fill-rule="evenodd" clip-rule="evenodd" d="M215.105 56.3884C214.811 49.7178 213.309 43.757 205.087 43.1571C201.37 43.0311 197.546 43.6181 194.071 44.857C185.601 48.4499 182.355 62.7531 189.425 68.8658C189.38 68.8874 189.367 68.9547 189.417 68.9896C190.887 70.0172 192.534 70.8811 194.188 71.6185C198.594 73.6039 203.837 74.6073 208.491 72.8536C215.585 70.3368 216.022 62.5155 215.105 56.3884Z" fill="#EEEEEE"/>
<path fill-rule="evenodd" clip-rule="evenodd" d="M228.967 53.8725C229.264 53.64 229.491 53.3282 229.615 52.9729C229.727 52.6491 229.749 52.2911 229.658 51.9595C229.561 51.6036 229.331 51.3138 229.401 50.9507C229.408 50.9152 229.417 50.8782 229.43 50.8414C229.669 50.1624 230.206 49.6878 230.054 48.9175C230.011 48.7 229.921 48.5021 229.791 48.3438C229.813 48.1792 229.833 48.013 229.851 47.8466C230.182 47.1883 230.205 46.3903 229.91 45.7158C229.885 45.3758 229.84 45.0381 229.77 44.7049C229.821 44.415 229.781 44.0918 229.693 43.8327C229.538 43.3767 229.342 42.9255 229.128 42.4808C229.16 42.3631 229.153 42.2369 229.089 42.1222C228.971 41.9138 228.812 41.7282 228.65 41.5464C228.538 41.3378 228.426 41.1307 228.314 40.9263C228.262 40.8324 228.205 40.7282 228.142 40.6177C228.34 40.301 228.452 39.9889 228.273 39.5989C228.206 39.4525 228.009 39.3382 227.842 39.3405C227.66 39.3431 227.477 39.343 227.292 39.3418C226.965 38.9334 226.59 38.5633 226.18 38.3421C225.771 37.9842 225.356 37.6324 224.953 37.274C224.839 37.1721 224.724 37.0701 224.61 36.9682C224.609 36.9658 224.609 36.9626 224.608 36.9602C224.534 36.6554 224.448 36.3542 224.363 36.0514C224.309 35.8637 224.299 35.6692 224.113 35.5602C223.725 35.3329 223.115 35.2736 222.66 35.2185C222.617 35.1785 222.573 35.1393 222.529 35.0992C222.759 34.5853 222.745 34.0286 222.507 33.4941C222.425 33.3124 222.12 33.2191 221.946 33.3295C221.544 33.5846 221.076 33.661 220.619 33.6019C219.966 33.0824 217.342 30.7475 216.932 30.4954C216.927 30.4867 216.923 30.4781 216.918 30.4695C216.697 30.1023 216.422 29.8032 216.11 29.5595C216.065 29.5121 216.021 29.4645 215.977 29.417C216.029 29.1463 216.147 28.8878 216.328 28.6751C216.347 28.6505 216.369 28.6267 216.391 28.6038C216.706 28.2781 216.358 27.8273 215.931 27.9867C215.901 27.9981 215.87 28.0096 215.839 28.0218C215.511 28.1443 215.148 28.2771 214.772 28.3863C214.638 28.3323 214.501 28.2827 214.377 28.2292L213.046 27.6567C212.827 27.5624 212.595 27.4805 212.384 27.3717C212.329 26.8952 211.841 26.5636 211.321 26.5578C211.354 26.4682 211.403 26.3818 211.47 26.3008C211.489 26.277 211.51 26.254 211.532 26.2319C211.812 25.9485 211.478 25.3869 211.085 25.6328C211.057 25.65 211.029 25.6671 211.001 25.6842C210.892 25.7503 210.78 25.8119 210.668 25.8715C210.495 25.7913 210.297 25.7663 210.087 25.8344C209.62 25.9853 209.19 26.1406 208.774 26.3905C208.757 26.4007 208.74 26.4091 208.723 26.4187C208.532 26.1805 208.22 26.0133 207.933 26.0028C207.927 26.0026 207.922 26.0023 207.917 26.002C207.716 25.6832 207.33 25.4866 206.948 25.5143C206.993 25.0709 206.54 24.6544 206.115 24.5881C205.618 24.5107 205.156 24.7664 204.986 25.2217C204.939 25.3484 204.892 25.4752 204.845 25.6021C204.465 25.4002 204.062 25.2407 203.637 25.1517C202.671 24.9488 201.711 25.0805 200.763 25.2969C200.668 25.3185 200.573 25.3408 200.478 25.363C200.351 25.2105 200.232 25.0548 200.118 24.9094C199.921 24.6583 199.415 24.8311 199.436 25.1439C199.45 25.3597 199.351 25.5104 199.198 25.6139C199.034 25.6296 198.877 25.6297 198.64 25.6151C198.326 25.5958 198.184 25.5805 197.861 25.4454C197.71 25.3825 197.526 25.2261 197.443 25.0892C197.123 24.5642 196.261 24.39 195.827 24.8592C195.4 24.6604 194.84 24.8859 194.584 25.2264C194.45 25.4045 194.182 25.4958 193.846 25.5699C193.594 25.6255 193.338 25.6647 193.08 25.6976C192.972 25.5462 192.736 25.4378 192.555 25.5532C192.432 25.6316 192.313 25.7124 192.195 25.7954C191.309 25.8731 190.432 25.8401 189.606 25.479C188.906 25.1732 188.221 25.8983 188.312 26.5352C188.102 26.6281 187.875 26.6862 187.667 26.784C187.214 26.9976 186.834 27.3495 186.593 27.7717C186.55 27.8473 186.511 27.9243 186.473 28.0017C186.302 28.1226 186.132 28.247 185.966 28.3788C185.705 28.2381 185.445 28.0973 185.184 27.9566C184.988 27.8512 184.649 27.9045 184.599 28.1538C184.517 28.5641 184.346 28.8998 184.11 29.177C183.367 29.5084 182.65 29.8854 181.961 30.309C181.181 30.5051 180.356 30.6038 179.677 30.7254C179.444 30.7672 179.306 31.0471 179.428 31.2424C179.557 31.4492 179.686 31.656 179.814 31.8627C179.416 32.2007 179.041 32.5556 178.685 32.9241C177.695 33.9484 176.855 35.0817 176.095 36.2876C175.811 36.383 175.526 36.4776 175.242 36.5729C174.967 36.6647 174.833 36.9566 175.043 37.1843C175.142 37.2928 175.231 37.4064 175.305 37.5249C174.883 38.13 174.392 38.6774 173.723 39.0214C173.519 39.1258 173.363 39.2966 173.274 39.4942C173.205 39.5342 173.136 39.5774 173.068 39.6215C172.877 39.7455 172.754 40.0283 172.963 40.2082C173.109 40.3354 173.246 40.4844 173.36 40.6476C173.382 40.7385 173.405 40.8301 173.428 40.921C172.799 41.4243 172.268 42.0177 171.86 42.6911C171.771 42.6738 171.678 42.6786 171.601 42.7279C170.904 43.1733 170.852 43.9279 171.096 44.6146C170.888 45.6251 170.95 46.6725 171.225 47.6716C170.791 48.0479 170.517 48.606 170.391 49.1497C170.17 50.1048 170.095 51.5848 170.006 52.5653C169.534 52.9615 169.188 53.4855 168.983 54.0561C168.828 54.1212 168.674 54.1862 168.519 54.2513C168.381 54.3091 168.275 54.4725 168.277 54.6142C168.287 55.2998 168.562 55.8525 168.936 56.3585C169.06 56.7417 169.252 57.0984 169.51 57.4435C169.688 57.6802 169.862 57.9072 170.013 58.1611C170.029 58.1865 170.038 58.2099 170.045 58.2261C169.979 58.2886 169.921 58.3943 169.872 58.4694C169.457 59.0996 169.419 59.8571 169.945 60.4435C169.731 60.5952 169.711 60.919 169.885 61.1253C171.02 62.4633 171.946 64.0709 173.567 64.8247C173.574 64.8369 173.58 64.8491 173.586 64.8613C173.219 65.6096 173.157 66.0041 173.397 66.8036C173.398 66.8108 173.4 66.8173 173.403 66.8245C173.531 67.2437 173.771 67.9168 174.249 68.0659C174.4 68.1129 174.549 68.1375 174.698 68.143C175.067 68.5096 175.435 68.8769 175.803 69.2442C175.83 69.4196 175.843 69.596 175.842 69.7734C175.841 70.0702 176.125 70.3225 176.445 70.2486C176.558 70.2223 177.199 69.6805 177.312 69.6885C177.367 69.7449 177.42 69.8013 177.473 69.8585C177.668 70.0696 177.937 70.4009 177.951 70.614C177.98 71.0154 178.237 71.4847 178.68 71.5846C178.841 71.753 179.107 71.8128 179.322 71.611C179.336 71.5981 179.35 71.5851 179.364 71.5738C179.386 71.5724 179.407 71.5709 179.429 71.5694C179.516 71.8532 179.603 72.137 179.691 72.42C179.863 72.9779 180.594 73.363 181.138 73.0646C181.221 73.1166 181.303 73.1718 181.385 73.227C181.509 73.3095 181.635 73.3936 181.764 73.4731C181.771 73.494 181.777 73.515 181.783 73.5351C181.858 73.7858 182.208 73.9335 182.433 73.8006C182.5 73.8241 182.569 73.8438 182.638 73.8602C183.005 73.945 183.378 73.9417 183.74 73.8401C183.999 73.7683 184.25 73.6206 184.526 73.6108C184.543 73.6102 184.561 73.6121 184.578 73.6123C184.784 74.0573 185.281 74.4542 185.679 74.5988C186.201 74.7883 186.746 74.7515 187.236 74.5674C187.356 74.8192 187.509 75.0593 187.695 75.2833C187.798 75.407 187.994 75.3898 188.11 75.3008C188.329 75.132 188.547 74.9622 188.765 74.7921C188.919 74.7431 189.076 74.6829 189.238 74.6278C189.747 74.4552 190.3 74.3981 190.775 74.1377C191 74.0141 191.214 73.8532 191.393 73.6638C191.721 73.5019 192.025 73.2957 192.302 73.0564C192.434 73.0628 192.573 73.0392 192.71 72.9806C193.283 72.7343 193.601 72.1972 193.651 71.6359C194.148 70.6424 194.462 69.5736 194.583 68.471C194.622 68.1091 194.641 67.7431 194.627 67.3788C194.618 67.1222 194.557 66.9486 194.465 66.7131C194.434 66.6362 194.406 66.5658 194.385 66.4885C194.401 66.2441 194.415 65.9996 194.428 65.7559C194.507 65.5531 194.639 65.3669 194.818 65.213C195.096 64.9749 195.241 64.4623 195.011 64.1438C194.861 63.9377 194.711 63.7316 194.561 63.5256C194.642 62.672 194.916 61.3197 194.443 61.1565C194.467 61.0302 194.514 60.9064 194.543 60.7811C194.681 60.179 194.637 59.6337 194.319 59.0887C194.252 58.9753 194.196 58.875 194.15 58.7776C194.127 58.6015 194.103 58.4255 194.08 58.2494C194.043 57.9781 194.008 57.7045 193.979 57.4296C193.973 57.0808 193.968 56.7321 193.962 56.3825C193.957 56.0608 193.948 55.7389 193.939 55.4163C193.955 55.2729 193.974 55.1297 194 54.9868C194.151 54.1346 194.534 53.8333 195.2 53.2648C195.301 53.254 195.401 53.2415 195.5 53.2266C195.961 53.1562 196.445 53.0375 196.913 53.1074C197.421 53.1831 197.869 53.4113 198.376 53.1655C198.526 53.0922 198.856 52.8866 198.891 52.7139C198.893 52.7028 198.896 52.6934 198.9 52.6864C198.934 52.6831 198.979 52.681 199.007 52.6814C199.401 52.6854 199.771 52.8482 200.17 52.8246C200.643 52.7969 201.072 52.6169 201.361 52.3355C201.712 52.4332 202.073 52.4859 202.443 52.4554C202.753 52.4303 203.033 52.3468 203.313 52.217C203.516 52.1237 203.454 52.0917 203.667 52.1834C204.151 52.3933 204.585 52.6616 205.145 52.5556C205.435 52.5011 205.69 52.3647 205.907 52.1757C205.958 52.1318 206.045 52.0662 206.104 52.0035C206.362 52.1409 207.012 52.4541 207.12 52.4842C207.425 52.5687 207.753 52.5715 208.057 52.4889C208.28 52.4283 208.558 52.2491 208.754 52.2184C209.006 52.1782 209.549 52.5322 209.843 52.6585C210.36 52.8801 210.913 52.9529 211.454 52.7697C211.639 52.7068 212.007 52.4398 212.143 52.448C212.354 52.7172 212.915 54.1645 213.079 54.691C213.743 56.8199 213.661 63.3755 213.242 65.0311C213.227 65.0798 213.211 65.1277 213.194 65.1763C212.705 66.6109 212.197 68.0695 211.425 69.3926C210.696 70.6396 209.714 71.7486 208.346 72.3885C206.927 73.0525 205.29 73.1732 203.733 73.0094C202.731 72.9048 201.75 72.6715 200.788 72.3904C200.285 72.2442 199.787 72.0838 199.292 71.918C199.076 71.846 198.856 71.7778 198.645 71.6956C198.272 71.5501 198.073 71.5313 197.703 71.6819C197.367 71.8189 197.263 72.2609 197.423 72.5485C197.684 73.0179 198.195 73.0714 198.685 73.2259C199.184 73.3831 199.685 73.5348 200.19 73.6732C201.157 73.937 202.142 74.1498 203.14 74.2709C204.926 74.489 206.782 74.3481 208.444 73.6761C208.632 73.5998 208.814 73.5175 208.99 73.4279C208.923 73.5094 208.855 73.5909 208.786 73.6715C208.595 73.895 208.712 74.2938 208.961 74.4309C209.04 74.474 209.119 74.5156 209.198 74.5563C209.208 74.5814 209.219 74.6065 209.231 74.6317C209.445 75.0832 209.92 75.3643 210.41 75.4981C210.993 75.6565 211.656 75.5899 212.255 75.5986C212.811 75.6062 213.367 75.6139 213.921 75.6215C214.052 75.6238 214.183 75.6254 214.314 75.627C214.974 75.6358 215.633 75.6455 216.292 75.6543C216.879 75.6625 216.85 75.7042 217.41 75.5052C217.66 75.4155 217.867 75.2826 218.044 75.1016C218.152 75.0616 218.256 75.0151 218.357 74.9612C218.68 74.7887 218.97 74.5512 219.24 74.2873C219.673 74.4369 220.293 74.3415 220.4 73.8232C220.573 72.9943 221.733 72.6862 222.294 72.1052C222.746 71.6366 223.082 71.0118 223.092 70.3988C224.201 69.9461 224.848 68.6566 225.034 67.5473C225.12 67.0329 225.134 66.4789 225.249 65.957C225.292 65.9167 225.331 65.8737 225.364 65.8274C225.655 65.4204 225.911 64.9992 226.139 64.5664C226.433 64.3839 226.781 64.2785 227.14 64.2739C228.024 64.2628 228.238 63.1427 227.409 62.8354C227.405 62.8337 227.401 62.8327 227.397 62.831C227.648 62.3005 227.656 61.6603 227.401 61.1371C227.415 61.082 227.428 61.0276 227.441 60.9725C227.934 60.5119 228.233 59.8554 228.23 59.2036C228.452 59.069 228.698 58.968 228.965 58.9101C229.378 58.821 229.4 58.3493 229.107 58.1252C228.989 58.035 228.893 57.9315 228.814 57.8183C229.048 57.2331 228.995 56.5425 228.589 56.0367C228.873 55.7194 229.158 55.402 229.443 55.0846C229.631 54.8746 229.742 54.5093 229.476 54.2912C229.307 54.1511 229.137 54.0118 228.967 53.8725Z" fill="#1B1B1B"/>
<path fill-rule="evenodd" clip-rule="evenodd" d="M208.684 64.6615C208.992 64.1928 209.849 64.3075 209.957 64.8739C210.175 66.0221 208.697 67.0112 207.607 66.9913C206.523 66.9714 205.346 66.049 205.549 64.9555C205.599 64.6851 205.982 64.7344 206.106 64.9106L206.154 64.9782C206.491 65.4454 206.941 65.9333 207.606 65.851C207.882 65.817 208.137 65.6659 208.312 65.4647C208.522 65.2219 208.513 64.921 208.684 64.6615ZM202.155 56.052C202.303 56.02 202.45 56.041 202.578 56.0988C202.866 56.1614 203.099 56.4004 203.173 56.6652C203.179 56.6881 203.185 56.7107 203.192 56.7332L203.204 56.7667L203.173 56.6815C203.185 56.7646 203.253 56.8543 203.275 56.9381C203.302 57.0412 203.305 57.1571 203.289 57.2686C203.381 57.2734 203.474 57.2803 203.565 57.2917L203.654 57.303C204.15 57.3678 204.692 57.4712 204.97 57.8902C205.126 58.1257 204.953 58.5304 204.647 58.5615C204.176 58.6094 203.783 58.3471 203.318 58.2783C202.878 58.2131 202.415 58.2201 201.976 58.277C201.07 58.3944 200.229 58.7041 199.344 58.8832L199.223 58.9068L199.223 58.9062C199.072 58.9342 198.909 58.7295 199.063 58.6203C199.788 58.1046 200.706 57.7007 201.603 57.4691C201.482 57.2696 201.453 57.0123 201.55 56.8077C201.566 56.7651 201.585 56.7238 201.604 56.6827L201.645 56.5982C201.65 56.5577 201.66 56.518 201.674 56.4792L201.676 56.4673L201.677 56.468C201.752 56.2682 201.932 56.1001 202.155 56.052ZM211.112 56.463C211.312 56.2895 211.58 56.3278 211.775 56.4793L211.801 56.5001C211.986 56.5875 212.135 56.7675 212.231 56.9325C212.331 57.1039 212.394 57.2769 212.389 57.4607C212.854 57.4819 213.294 57.6326 213.62 58.002C213.725 58.1212 213.793 58.301 213.726 58.4537L213.686 58.5446C213.559 58.833 213.036 58.98 212.876 58.6277L212.868 58.6105C212.7 58.1931 211.984 58.2058 211.602 58.2315C211.336 58.2496 211.072 58.3007 210.814 58.3596C210.723 58.3803 210.632 58.4032 210.542 58.4266L210.452 58.4501C210.404 58.4627 210.151 58.5793 210.306 58.5558C210.348 58.5494 210.377 58.6078 210.333 58.6251C210.146 58.7003 209.957 58.5267 209.978 58.3408C210.013 58.0179 210.564 57.8635 210.83 57.7629L210.846 57.7568C210.948 57.7172 211.055 57.6797 211.165 57.6453C211.108 57.5569 211.062 57.4594 211.024 57.3554C210.988 57.2571 210.966 57.1621 210.956 57.0588C210.944 57.008 210.946 56.9578 210.962 56.9081L210.965 56.8938C210.959 56.8603 210.957 56.8258 210.959 56.7913L210.958 56.7778L210.959 56.7779C210.97 56.6571 211.026 56.5381 211.112 56.463ZM207.897 59.7806C208.626 60.0274 209.818 60.6662 209.395 61.5563C208.823 62.366 207.425 61.6938 206.747 61.3957C206.135 61.1753 205.778 61.983 206.367 62.2559C211.241 64.3186 211.43 59.4282 208.095 59.3588C207.728 59.3511 207.702 59.7005 207.897 59.7806ZM201.615 53.1273L201.742 53.0979C202.404 52.9465 203.084 52.6655 203.645 53.1727C203.864 53.3719 203.895 53.7677 203.722 53.9972C203.327 54.52 202.779 54.4144 202.177 54.4348C201.719 54.4504 201.263 54.5583 200.83 54.6988C200.476 54.8137 200.145 54.9826 199.831 55.1734C199.522 55.3609 199.304 55.6652 198.989 55.8324C198.873 55.8937 198.746 55.8202 198.71 55.7113C198.583 55.3252 198.845 54.862 199.064 54.5469C199.331 54.1624 199.725 53.8554 200.145 53.6283C200.604 53.3795 201.106 53.2459 201.615 53.1273ZM211.161 53.1222C212.267 53.1688 213.306 53.7952 213.888 54.6736C214.086 54.972 213.914 55.3944 213.605 55.5484C213.259 55.7211 212.903 55.5711 212.691 55.2935L212.679 55.2767C212.343 54.8152 211.901 54.4442 211.369 54.1923C211.109 54.0693 210.821 53.9663 210.537 53.9082L210.445 53.8893C210.316 53.8633 210.167 53.8373 210.049 53.8515C209.986 53.8567 209.927 53.8738 209.873 53.9015C209.896 53.9553 209.828 54.016 209.768 53.9818C209.499 53.8275 209.544 53.5745 209.779 53.3863C210.112 53.1201 210.747 53.1048 211.161 53.1222Z" fill="#1B1B1B"/>
<g filter="url(#filter4_d_116_6737)">
<path d="M128.704 162.458C106.638 189.109 94.0901 201.651 69.502 193.947C68.935 198.874 68.7375 201.536 69.502 205.356C69.502 224.5 68.3658 225.983 72.204 230H336C336 222.5 334.741 218.38 336 205.356L293.739 176.605C282.517 167.751 276.062 169.026 264.412 176.605C249.969 187.881 241.63 196.139 226.523 212.658C213.859 218.38 206.762 216.937 194.098 212.658C174.732 204.254 163.957 196.272 145.098 167.934C139.685 159.532 136.958 153.455 128.704 162.458Z" fill="#192A51"/>
</g>
</g>
</g>
<defs>
<filter id="filter0_dddddd_116_6737" x="0" y="0.147609" width="416" height="409.852" filterUnits="userSpaceOnUse" color-interpolation-filters="sRGB">
<feFlood flood-opacity="0" result="BackgroundImageFix"/>
<feColorMatrix in="SourceAlpha" type="matrix" values="0 0 0 0 0 0 0 0 0 0 0 0 0 0 0 0 0 0 127 0" result="hardAlpha"/>
<feOffset dy="0.559259"/>
<feGaussianBlur stdDeviation="1.1069"/>
<feColorMatrix type="matrix" values="0 0 0 0 0 0 0 0 0 0 0 0 0 0 0 0 0 0 0.0468848 0"/>
<feBlend mode="normal" in2="BackgroundImageFix" result="effect1_dropShadow_116_6737"/>
<feColorMatrix in="SourceAlpha" type="matrix" values="0 0 0 0 0 0 0 0 0 0 0 0 0 0 0 0 0 0 127 0" result="hardAlpha"/>
<feOffset dy="2.62385"/>
<feGaussianBlur stdDeviation="2.66004"/>
<feColorMatrix type="matrix" values="0 0 0 0 0 0 0 0 0 0 0 0 0 0 0 0 0 0 0.0647322 0"/>
<feBlend mode="normal" in2="effect1_dropShadow_116_6737" result="effect2_dropShadow_116_6737"/>
<feColorMatrix in="SourceAlpha" type="matrix" values="0 0 0 0 0 0 0 0 0 0 0 0 0 0 0 0 0 0 127 0" result="hardAlpha"/>
<feOffset dy="7.16485"/>
<feGaussianBlur stdDeviation="5.00862"/>
<feColorMatrix type="matrix" values="0 0 0 0 0 0 0 0 0 0 0 0 0 0 0 0 0 0 0.0786233 0"/>
<feBlend mode="normal" in2="effect2_dropShadow_116_6737" result="effect3_dropShadow_116_6737"/>
<feColorMatrix in="SourceAlpha" type="matrix" values="0 0 0 0 0 0 0 0 0 0 0 0 0 0 0 0 0 0 127 0" result="hardAlpha"/>
<feOffset dy="16.347"/>
<feGaussianBlur stdDeviation="8.93452"/>
<feColorMatrix type="matrix" values="0 0 0 0 0 0 0 0 0 0 0 0 0 0 0 0 0 0 0.0940847 0"/>
<feBlend mode="normal" in2="effect3_dropShadow_116_6737" result="effect4_dropShadow_116_6737"/>
<feColorMatrix in="SourceAlpha" type="matrix" values="0 0 0 0 0 0 0 0 0 0 0 0 0 0 0 0 0 0 127 0" result="hardAlpha"/>
<feOffset dy="36.5967"/>
<feGaussianBlur stdDeviation="16.711"/>
<feColorMatrix type="matrix" values="0 0 0 0 0 0 0 0 0 0 0 0 0 0 0 0 0 0 0.1174 0"/>
<feBlend mode="normal" in2="effect4_dropShadow_116_6737" result="effect5_dropShadow_116_6737"/>
<feColorMatrix in="SourceAlpha" type="matrix" values="0 0 0 0 0 0 0 0 0 0 0 0 0 0 0 0 0 0 127 0" result="hardAlpha"/>
<feOffset dy="100"/>
<feGaussianBlur stdDeviation="40"/>
<feColorMatrix type="matrix" values="0 0 0 0 0 0 0 0 0 0 0 0 0 0 0 0 0 0 0.18 0"/>
<feBlend mode="normal" in2="effect5_dropShadow_116_6737" result="effect6_dropShadow_116_6737"/>
<feBlend mode="normal" in="SourceGraphic" in2="effect6_dropShadow_116_6737" result="shape"/>
</filter>
<filter id="filter1_d_116_6737" x="80" y="40" width="299" height="211" filterUnits="userSpaceOnUse" color-interpolation-filters="sRGB">
<feFlood flood-opacity="0" result="BackgroundImageFix"/>
<feColorMatrix in="SourceAlpha" type="matrix" values="0 0 0 0 0 0 0 0 0 0 0 0 0 0 0 0 0 0 127 0" result="hardAlpha"/>
<feOffset dx="22"/>
<feGaussianBlur stdDeviation="10.5"/>
<feComposite in2="hardAlpha" operator="out"/>
<feColorMatrix type="matrix" values="0 0 0 0 0 0 0 0 0 0 0 0 0 0 0 0 0 0 0.25 0"/>
<feBlend mode="normal" in2="BackgroundImageFix" result="effect1_dropShadow_116_6737"/>
<feBlend mode="normal" in="SourceGraphic" in2="effect1_dropShadow_116_6737" result="shape"/>
</filter>
<filter id="filter2_d_116_6737" x="86" y="88" width="293" height="163" filterUnits="userSpaceOnUse" color-interpolation-filters="sRGB">
<feFlood flood-opacity="0" result="BackgroundImageFix"/>
<feColorMatrix in="SourceAlpha" type="matrix" values="0 0 0 0 0 0 0 0 0 0 0 0 0 0 0 0 0 0 127 0" result="hardAlpha"/>
<feOffset dx="22"/>
<feGaussianBlur stdDeviation="10.5"/>
<feComposite in2="hardAlpha" operator="out"/>
<feColorMatrix type="matrix" values="0 0 0 0 0 0 0 0 0 0 0 0 0 0 0 0 0 0 0.25 0"/>
<feBlend mode="normal" in2="BackgroundImageFix" result="effect1_dropShadow_116_6737"/>
<feBlend mode="normal" in="SourceGraphic" in2="effect1_dropShadow_116_6737" result="shape"/>
</filter>
<filter id="filter3_d_116_6737" x="80" y="103" width="299" height="143" filterUnits="userSpaceOnUse" color-interpolation-filters="sRGB">
<feFlood flood-opacity="0" result="BackgroundImageFix"/>
<feColorMatrix in="SourceAlpha" type="matrix" values="0 0 0 0 0 0 0 0 0 0 0 0 0 0 0 0 0 0 127 0" result="hardAlpha"/>
<feOffset dx="22"/>
<feGaussianBlur stdDeviation="10.5"/>
<feComposite in2="hardAlpha" operator="out"/>
<feColorMatrix type="matrix" values="0 0 0 0 0 0 0 0 0 0 0 0 0 0 0 0 0 0 0.25 0"/>
<feBlend mode="normal" in2="BackgroundImageFix" result="effect1_dropShadow_116_6737"/>
<feBlend mode="normal" in="SourceGraphic" in2="effect1_dropShadow_116_6737" result="shape"/>
</filter>
<filter id="filter4_d_116_6737" x="69" y="137" width="310" height="114" filterUnits="userSpaceOnUse" color-interpolation-filters="sRGB">
<feFlood flood-opacity="0" result="BackgroundImageFix"/>
<feColorMatrix in="SourceAlpha" type="matrix" values="0 0 0 0 0 0 0 0 0 0 0 0 0 0 0 0 0 0 127 0" result="hardAlpha"/>
<feOffset dx="22"/>
<feGaussianBlur stdDeviation="10.5"/>
<feComposite in2="hardAlpha" operator="out"/>
<feColorMatrix type="matrix" values="0 0 0 0 0 0 0 0 0 0 0 0 0 0 0 0 0 0 0.25 0"/>
<feBlend mode="normal" in2="BackgroundImageFix" result="effect1_dropShadow_116_6737"/>
<feBlend mode="normal" in="SourceGraphic" in2="effect1_dropShadow_116_6737" result="shape"/>
</filter>
<linearGradient id="paint0_linear_116_6737" x1="80" y1="77" x2="320.133" y2="66.8906" gradientUnits="userSpaceOnUse">
<stop stop-color="#6C6095"/>
<stop offset="1" stop-color="#192A51"/>
</linearGradient>
<clipPath id="clip0_116_6737">
<path d="M80 67C80 31.6538 108.654 3 144 3H272C307.346 3 336 31.6538 336 67V230H80V67Z" fill="white"/>
</clipPath>
</defs>
</svg>
