<svg width="416" height="410" viewBox="0 0 416 410" fill="none" xmlns="http://www.w3.org/2000/svg">
<g filter="url(#filter0_dddddd_116_6758)">
<g clip-path="url(#clip0_116_6758)">
<path d="M80 67C80 31.6538 108.654 3 144 3H272C307.346 3 336 31.6538 336 67V230H80V67Z" fill="url(#paint0_linear_116_6758)"/>
<g filter="url(#filter1_d_116_6758)">
<path d="M94.517 138.865L80.0035 107.905V189.447C79.9243 212.454 81.1129 223.304 90.8449 230H324.809C332.658 225.489 334.975 220.761 336 209.069V70.4046C328.409 64.9738 324.955 70.605 320.263 96.5677C311.91 93.7586 305.406 97.4456 292.46 107.905C285.303 109.995 279.901 99.7718 270.077 79.9977C259.419 59.8747 253.714 49.9424 253.116 79.9977L253.03 80.6985C250.687 99.917 249.347 110.904 238.078 117.062C232.369 115.626 228.662 108.818 222.119 96.8031L221.991 96.5677C214.674 88.3909 210.509 90.0402 202.931 107.905L181.598 156.307C174.089 166.304 170.066 172.715 156.418 156.307C151.155 151.549 147.112 146.901 135.959 131.452C125.123 109.795 118.905 96.1708 113.577 131.452C111.712 136.773 110.951 140.293 109.905 147.15C104.695 151.245 101.92 154.888 94.517 138.865Z" fill="#967AA1"/>
</g>
<path fill-rule="evenodd" clip-rule="evenodd" d="M187.557 160.656C185.771 160.657 186.865 144.898 188.117 142.016C188.296 141.431 188.45 140.628 188.437 139.905C186.961 140.014 187.139 139.061 187.239 137.911C187.233 136.995 187.205 135.106 188.668 135.871C193.275 127.558 188.935 105.728 200.646 103.924C202.059 103.63 203.519 103.325 204.722 102.426C206.02 100.259 206.664 99.9917 208.742 99.8929C209.168 97.9248 209.93 95.8287 212.087 95.1043C214.062 94.4174 216.345 94.4067 218.38 94.8376C220.061 95.3955 220.154 98.3779 220.499 99.8546C222.79 99.3295 225.623 98.1839 226.793 100.939C227.39 100.783 227.938 100.903 228.538 101.103C233.582 101.981 238.446 104.252 240.229 108.816C241.332 111.555 240.448 114.494 239.955 117.298C239.485 120.352 240.496 123.211 240.93 126.167C241.584 130.239 241.649 133.495 241.105 136.5C242.372 136.801 242.443 137.9 241.905 139.037C241.745 139.422 241.585 139.828 241.246 140.041C240.557 140.433 239.687 139.947 238.95 139.86C238.762 141.476 238.431 143.059 237.901 144.856C238.033 145.399 238.184 146.006 238.319 146.552L238.37 146.502C239.919 153.236 244.803 159.846 243.095 166.933C242.998 167.168 242.825 167.115 242.692 167.108C241.911 167.371 241.204 167.179 240.422 167.191C238.569 167.154 236.775 167.342 235.111 167.503C234.768 169.375 233.718 172.43 231.943 173.109C231.913 173.118 231.394 173.004 231.35 173C235.66 191.094 243.743 207.909 246.709 226.338C246.725 226.562 246.342 226.436 246.216 226.46C246.222 226.97 245.872 227.085 245.382 227.256C245.983 228.511 246.522 229.763 247.12 231.021C247.397 231.643 247.856 232.261 247.928 232.922C248.61 233.355 249.058 234.182 249.03 234.945C250.878 235.73 250.295 239.404 250.682 241.238C251.055 243.966 253.06 245.907 254.415 248.166C254.692 248.619 254.984 249.212 254.985 249.774C255.846 250.178 256.153 251.028 256.066 252.446C256.034 254.106 255.527 254.728 254.193 254.741C250.566 255.008 246.344 254.781 242.711 254.315C239.993 253.93 237.574 254.153 238.247 251.064C238.388 250.316 238.169 249.3 238.65 248.702C238.977 246.9 238.847 245.073 238.26 243.273C237.912 241.761 237.337 238.64 237.644 236.626C237.786 235.695 239.809 235.223 240.164 235.185C240.066 234.479 240.141 233.252 240.55 232.772C239.819 232.66 239.639 232.472 239.502 231.698C239.163 230.441 239.143 229.083 238.261 228.012C236.636 227.998 235.024 227.574 233.401 227.492L233.324 227.314C232.364 227.282 231.412 227.102 230.507 226.767C230.303 226.854 230.042 226.926 229.935 226.634L229.426 225.016C223.508 205.848 216.906 186.619 210.475 167.58C210.095 166.653 209.637 165.667 209.031 164.835C208.579 176.393 205.783 187.89 205.323 199.443C204.861 207.387 204.774 215.255 203.819 223.217C203.58 224.902 203.366 224.841 203.102 224.732C202.995 224.746 202.743 224.791 202.634 224.811C202.777 226.492 202.925 229.22 203.649 230.952C205.322 231.233 204.996 232.447 204.603 233.451C204.997 233.783 204.924 234.537 204.796 234.953C206.376 234.988 206.695 236.212 206.57 236.978C206.393 238.259 206.436 240.26 205.508 241.339C204.947 242.727 204.052 244.029 203.682 245.529C203.446 246.634 203.494 248.251 203.266 249.347C203.778 249.584 203.552 249.934 203.625 250.621C204.007 253.769 202.444 253.203 199.656 253.361C197.981 253.676 185.267 254.106 185.859 252.029C185.784 251.177 186.209 250.812 186.405 249.978C186.49 249.758 188.126 247.219 189.089 246.265C192.313 243.513 192.253 239.727 192.244 235.368C192.454 234.191 193.437 233.08 194.658 233.233C194.333 231.964 195.006 230.881 196.375 230.545C196.268 229.114 196.166 227.171 195.694 225.925L196.172 225.483L195.543 225.541L195.345 225.04L195.107 225.579C194.03 225.557 192.819 225.305 191.79 225.178C191.625 225.183 191.703 224.972 191.678 224.89C190.707 224.679 190.611 224.186 190.807 223.021C190.975 204.042 191.464 185.248 192.169 166.245C190.646 166.278 189.172 165.721 187.683 165.339C187.145 165.644 187.018 164.516 187.085 164.274C187.195 163.018 187.385 161.795 187.557 160.656Z" fill="#EEEEEE"/>
<path fill-rule="evenodd" clip-rule="evenodd" d="M238.144 144.544C237.809 145.583 237.427 147.126 237.039 148.151C236.32 150.998 235.765 153.892 235.381 156.798C235.252 157.769 235.147 158.741 235.003 159.707C235.116 160.34 234.819 162.125 234.958 162.755C237.585 163.273 241.226 165.325 243.307 166.946C244.096 161.669 241.1 155.677 239.87 150.652C239.788 150.329 239.706 150.003 239.629 149.674C239.268 148.65 238.574 146.079 238.331 145.051L238.298 144.911L238.247 144.961L238.144 144.544ZM204.915 102.266C204.615 102.436 204.303 102.579 203.984 102.701C201.493 103.992 197.167 103.943 195.623 106.539C191.619 114.038 191.233 126.858 188.881 135.839C188.751 136.335 187.648 135.779 187.517 136.26C187.191 137.452 187.481 138.612 187.106 139.691C188.472 140.054 192.028 140.348 193.389 140.719C193.027 141.822 189.185 150.731 187.469 163.51C187.996 163.409 188.512 163.258 189.018 163.082L189.212 163.007C192.058 161.903 196.531 160.186 199.603 159.783C201.774 148.639 203.794 136.793 204.252 125.375L204.273 124.848C204.408 121.471 204.915 118.131 205.534 114.808L205.569 114.575C205.915 112.259 206.218 109.845 205.689 107.54C205.501 107.59 206.061 106.367 206.337 104.797C206.508 103.824 206.114 102.687 206.74 101.729C207.609 100.398 208.717 102.146 208.637 101.768C208.597 101.578 209.8 99.3076 209.361 99.5398C208.883 99.7932 207.12 99.7496 206.429 100.376C204.92 101.745 204.628 102.804 204.891 102.31L204.915 102.266ZM230.123 101.713C229.509 101.586 227.733 100.979 227.091 100.998C227.451 101.767 226.603 98.36 223.674 99.0682C223.546 99.0992 220.535 99.4702 220.536 100.028C220.536 100.403 223.829 100.914 224.1 101.384C224.419 101.937 223.823 103.569 224.043 104.139C224.704 105.852 224.365 106.315 224.159 106.129C223.988 106.369 223.958 106.715 223.917 107.037L223.872 107.386C223.145 112.895 221.763 118.307 221.185 123.836C220.387 130.02 221.706 136.168 222.044 142.333C222.309 147.886 221.671 153.818 221.763 159.367C221.785 159.676 221.878 160.094 222.077 160.37L222.096 160.396L222.099 160.397L222.179 160.414C223.659 160.729 225.857 161.66 227.386 161.684C228.867 159.088 230.553 152.407 230.184 147.85C229.91 144.462 229.532 140.081 229.549 139.248C229.581 137.742 238.747 140.273 241.464 140.009C242.358 139.922 242.42 138.96 242.551 137.395C242.589 136.949 241.545 136.725 241.543 136.229C241.522 132.634 241.631 127.833 241.592 127.549C241.266 124.729 240.336 121.978 240.262 119.135C240.277 116.266 241.596 113.491 241.147 110.605C240.493 106.402 236.608 103.413 232.541 102.264C231.747 102.016 230.937 101.88 230.123 101.713Z" fill="#B4B4B4"/>
<path fill-rule="evenodd" clip-rule="evenodd" d="M224.444 105.512L224.43 105.598L224.417 105.685C224.039 108.177 221.68 122.792 221.388 125.294C220.806 130.282 221.918 135.926 221.854 140.947C221.838 142.246 221.31 151.598 221.588 152.182C221.671 152.357 222.817 154.339 220.571 153.739C215.499 152.383 204.039 147.497 201.515 147.386C201.895 147.337 202.115 147.053 202.173 146.687C202.228 146.337 203.294 138.372 203.84 130.067C204.441 120.923 206.284 104.997 206.337 104.797C207.273 105.289 208.436 111.442 212.162 111.519C215.889 111.597 220.855 107.47 223.721 103.299C224.311 102.441 224.231 105.601 224.444 105.512Z" fill="#B4B4B4"/>
<path fill-rule="evenodd" clip-rule="evenodd" d="M220.156 97.2006C219.926 97.3651 219.94 97.8348 219.912 98.097L219.91 98.1142C219.822 98.9061 219.902 99.7052 220.09 100.48L220.119 100.598C220.209 100.968 220.297 101.411 220.597 101.67C220.938 101.964 221.493 101.79 221.515 101.328C221.525 101.113 221.454 100.904 221.362 100.701C222.029 100.96 222.696 101.217 223.365 101.468C223.726 104.853 218.662 108.882 215.75 110.269C211.508 112.383 208.046 108.939 207.592 104.964C207.512 104.436 207.463 103.894 207.462 103.36L207.463 103.309C207.47 102.867 207.559 102.279 207.263 101.906C207.487 101.905 207.685 101.939 207.903 101.976L207.892 101.993C207.763 102.201 207.577 102.719 207.969 102.767C208.818 102.7 209.241 101.302 209.462 100.631L209.47 100.602C209.614 100.099 209.822 98.2671 209.425 98.0387C209.292 98.489 209.331 98.9818 209.171 99.4328C208.826 99.5561 208.175 99.5779 208.024 99.5988C206.263 99.5815 205.24 100.758 204.497 102.144C202.372 103.727 199.371 103.385 197.084 104.678C190.074 109.281 191.947 127.805 188.341 135.594C187.658 135.31 186.944 135.836 186.838 136.494C186.732 137 186.75 137.544 186.731 138.059L186.727 138.123C186.649 139.174 186.432 140.352 187.931 140.406C187.917 140.994 187.788 141.56 187.627 142.124C186.725 145.538 186.289 149.066 186.134 152.582L186.124 152.841C186.059 154.689 185.916 160.409 187.024 161.11L186.964 161.511C186.813 162.516 186.669 163.524 186.58 164.536C186.461 165.059 186.802 166.326 187.556 166.009C188.921 166.358 190.263 166.861 191.688 166.893C191.117 177.767 191.062 188.663 190.785 199.548C190.728 207.574 190.102 215.655 190.336 223.657L190.319 223.77C190.187 224.665 190.137 225.445 191.226 225.775C191.237 225.995 191.413 226.116 191.624 226.146C192.223 226.235 192.821 226.32 193.421 226.402C193.98 226.453 194.576 226.598 195.135 226.546C195.08 226.597 195.226 226.608 195.243 226.571C195.727 227.79 195.847 229.111 195.946 230.404C194.702 230.824 194.007 231.813 194.183 233.074C192.936 233.096 191.999 234.388 191.802 235.49C191.674 236.25 191.748 237.009 191.768 237.774C191.886 240.388 191.423 243.193 189.6 245.238C188.418 246.521 186.89 247.672 186.351 249.364C186.213 249.422 186.098 249.537 186.045 249.719L185.7 250.9L185.529 251.491C185.404 251.922 185.291 252.363 185.344 252.813L185.35 252.857C185.602 255.704 197.924 254.59 200.328 254.436C201.295 254.313 202.352 254.413 203.23 253.947C204.31 253.303 204.471 251.955 204.311 250.845L204.298 250.741C204.234 250.244 204.137 249.723 203.647 249.436C203.835 248.414 203.792 247.364 204.012 246.347C204.342 244.908 205.274 243.672 205.766 242.295C206.456 241.597 206.502 240.489 206.662 239.582C206.787 238.702 206.893 237.816 206.948 236.929C207.07 235.757 206.553 234.778 205.253 234.598C205.318 234.377 205.157 234.181 204.995 234.035C205.411 232.737 205.555 230.945 203.88 230.464C203.273 228.952 203.121 227.324 202.985 225.722C203.005 225.718 203.025 225.715 203.045 225.712C203.811 226.033 204.048 224.734 204.134 224.047L204.154 223.883C205.113 215.943 205.207 207.938 205.671 199.964L205.712 199.387C206.083 194.134 206.349 188.833 207.417 183.664C208.503 177.902 208.878 172.03 209.329 166.194C209.706 166.774 209.902 167.436 210.204 168.053C214.052 179.506 218.007 190.927 221.809 202.394C224.564 210.697 227.188 219.041 229.82 227.379C229.954 227.806 230.403 227.903 230.736 227.774C231.57 228.068 232.449 228.243 233.335 228.288C233.386 228.406 233.494 228.493 233.655 228.48C234.13 228.441 234.674 228.593 235.147 228.655C236.23 228.779 237.281 228.959 238.376 228.996C239.038 229.823 239.058 230.927 239.351 231.901C239.521 232.398 239.469 233.503 240.089 233.655C239.859 233.976 239.821 234.366 239.849 234.769C239.655 234.807 239.457 234.881 239.273 234.958C239.094 235.04 238.86 235.027 238.735 235.196C235.248 235.72 237.657 242.024 238.218 244.104C238.775 245.806 238.924 247.575 238.617 249.334C238.193 249.867 238.314 250.674 238.238 251.314C238.192 251.886 238.119 252.465 238.113 253.039C238.131 255.42 241.241 255.097 242.984 255.443C244.074 255.586 245.17 255.692 246.266 255.78C249.047 256.002 251.846 256.073 254.629 255.876C256.424 255.859 256.833 254.759 256.861 253.242L256.865 253.18C256.927 252.152 256.778 250.905 255.757 250.349C255.717 249.804 255.437 249.249 255.15 248.768C253.814 246.537 251.778 244.565 251.425 241.914C251.061 240.176 251.593 236.378 249.756 235.438C249.729 234.658 249.241 233.854 248.624 233.42C248.517 232.768 248.075 232.163 247.806 231.561C247.256 230.41 246.749 229.243 246.202 228.092C246.504 227.978 246.826 227.765 246.874 227.453C247.161 227.462 247.448 227.292 247.42 226.961C247.339 225.999 247.137 225.05 246.947 224.102L246.923 223.983C243.552 206.843 236.19 190.728 232.038 173.79C232.642 173.907 233.222 173.263 233.566 172.842C234.676 171.485 235.349 169.829 235.665 168.141L236.175 168.092C237.875 167.93 239.582 167.793 241.291 167.875L241.703 167.896C242.16 167.919 242.619 167.925 243.057 167.778C243.36 167.811 243.679 167.663 243.761 167.342C245.152 161.39 242.157 155.651 240.04 150.202C239.542 148.863 239.197 147.508 238.869 146.125C238.858 146.08 238.784 146.088 238.785 146.134C238.823 147.664 239.191 149.215 239.567 150.697C240.798 155.723 243.476 160.682 242.686 165.959C240.606 164.338 238.119 163.191 235.493 162.673C235.354 162.044 235.198 161.419 235.085 160.786C235.23 159.819 235.335 158.848 235.463 157.876C235.848 154.971 236.402 152.077 237.121 149.229C238.204 146.372 239.157 143.473 239.54 140.445L239.597 140.457C240.304 140.608 241.079 140.92 241.745 140.506C242.169 140.24 242.359 139.789 242.537 139.356C243.04 138.308 243.159 136.919 241.804 136.448C242.382 133.093 242.125 129.574 241.58 126.227C241.149 123.295 240.13 120.394 240.596 117.411C241.104 114.546 242.003 111.553 240.852 108.714C238.963 103.976 233.979 101.644 229.046 100.824L228.966 100.8C228.357 100.616 227.804 100.423 227.163 100.54C225.714 97.8639 223.252 98.8889 220.857 99.4288C220.706 98.977 220.581 98.5154 220.465 98.0544C220.391 97.8193 220.428 97.281 220.156 97.2006ZM203.169 250.71L203.173 250.825C203.21 252.065 203.117 253.124 201.497 253.082C200.38 253.172 199.262 253.258 198.143 253.331L197.724 253.357C194.403 253.568 191.046 253.636 187.747 253.146L187.609 253.126C187.333 253.083 186.821 253.079 186.606 252.881C186.35 252.539 186.668 251.904 186.741 251.515C191.904 251.566 197.076 251.493 202.24 251.662C202.784 251.676 203.038 251.242 202.996 250.84C203.058 250.802 203.117 250.758 203.169 250.71ZM255.592 251.178C255.828 252.029 255.749 252.827 255.588 253.671C255.498 254.556 255.052 254.603 254.245 254.607C251.094 254.817 247.928 254.694 244.786 254.398C243.104 254.19 241.371 254.161 239.723 253.773C238.941 253.425 239.418 252.392 239.404 251.753C243.074 254.099 248.7 253.928 252.78 252.699L252.846 252.674C253.813 252.312 255.043 252.098 255.592 251.178ZM249.753 235.783C250.171 236.248 250.153 237.549 250.161 237.992L250.163 238.041C250.191 238.972 250.164 239.903 250.188 240.834C250.075 244.748 252.42 246.75 254.127 249.935C254.596 250.709 253.888 250.802 253.31 251.038C249.562 252.599 245.164 252.758 241.31 251.423C239.371 250.846 239.823 249.611 240.02 248.094C240.247 244.989 238.58 242.153 238.131 239.136L238.119 239.058C237.985 238.172 237.769 235.904 239.244 236.419C239.563 236.614 239.871 236.384 239.915 236.096C239.954 236.103 239.993 236.107 240.031 236.108C240.182 237.117 240.339 238.124 240.489 239.132C240.343 239.216 240.207 239.311 240.085 239.42C239.937 239.554 240.032 239.842 240.251 239.829C240.364 239.822 240.476 239.809 240.586 239.791C240.656 240.666 242.13 240.207 241.722 239.498C243.842 238.852 246.16 238.955 248.287 239.528L248.295 239.532C248.46 239.598 249.645 239.849 249.259 240.016C249.099 240.031 249.458 240.237 249.528 239.932C249.556 239.548 248.635 239.341 248.355 239.175C249.09 238.221 249.605 236.975 249.753 235.783ZM195.882 231.592C197.887 230.616 200.316 231.044 202.463 231.269L202.554 231.281C203.1 231.348 203.862 231.398 204.102 231.938C204.448 232.801 203.805 234.703 203.596 235.651L203.527 235.9C203.357 236.506 203.195 237.107 203.128 237.736C203.126 237.756 203.146 237.77 203.165 237.771C203.934 237.024 204.294 236.005 204.667 235.034C204.815 235.118 204.96 235.209 205.096 235.308C205.6 237.078 205.742 238.954 205.277 240.739L205.26 240.801C204.686 243.007 203.003 244.786 202.799 247.099C202.675 248.033 202.678 248.993 202.375 249.897C202.213 249.927 202.069 250.037 202.003 250.178L201.076 250.16C196.594 250.074 192.111 250.019 187.629 250.101C187.798 248.911 188.932 247.875 189.732 247.074C192.182 244.792 193.291 241.466 192.962 238.23C192.788 236.612 191.889 234.055 194.228 233.507C194.371 234.826 194.573 236.143 194.672 237.466C194.229 237.658 194.245 238.187 194.782 238.188C195.007 238.961 195.82 238.667 195.748 237.941C198.722 236.97 200.423 236.659 203.267 238.275C203.347 238.265 203.052 237.953 203.015 237.898C202.125 236.951 200.739 236.485 199.429 236.442C198.131 236.415 196.901 236.853 195.669 237.186C195.51 235.936 195.413 234.679 195.293 233.425L195.267 233.157C195.204 232.498 195.243 231.956 195.882 231.592ZM242.991 248.675C242.561 248.575 242.167 248.429 241.726 248.513C240.158 249.581 246.464 250.022 247.003 249.955C248.372 249.945 249.745 249.809 251.069 249.47L251.161 249.446C251.292 249.415 252.612 249.096 252.366 248.936C250.582 249.049 248.832 249.322 247.019 249.204C246.114 249.167 245.207 249.088 244.314 248.94C243.87 248.866 243.428 248.778 242.991 248.675ZM201.283 246.446C201.575 246.05 200.185 246.554 200.005 246.555C198.858 246.799 197.691 246.977 196.517 247.036C195.729 247.076 194.934 247.072 194.147 247.019C193.564 246.988 192.989 246.894 192.41 246.826L192.39 246.824C192.045 246.806 191.351 246.994 191.768 247.391C192.42 247.891 193.401 247.763 194.193 247.851C196.6 247.893 199.157 247.579 201.283 246.446ZM246.603 244.467C245.911 244.333 242.092 244.215 242.45 245.334C242.538 245.547 242.748 245.621 242.971 245.593C245.346 245.097 247.902 244.865 250.243 245.665C250.281 245.679 250.309 245.62 250.272 245.603C249.124 245.029 247.893 244.618 246.603 244.467ZM197.041 242.35C196.418 242.292 195.79 242.295 195.166 242.327L194.91 242.34C194.646 242.355 194.376 242.375 194.124 242.442L194.073 242.456C193.728 242.554 192.945 243.096 193.525 243.376C194.151 243.582 194.688 243.364 195.298 243.229C196.998 242.884 198.774 243.05 200.443 243.473L200.205 243.54C200.191 243.53 200.172 243.552 200.186 243.564C200.352 243.708 200.586 243.663 200.71 243.491C200.731 243.462 200.719 243.413 200.686 243.396C199.561 242.807 198.314 242.469 197.041 242.35ZM249.755 243.304C247.861 242.463 245.648 242.328 243.593 242.518L243.447 242.532C242.806 242.59 241.971 242.605 241.594 243.162C241.463 243.355 241.589 243.582 241.792 243.657C242.389 243.877 243.105 243.475 243.686 243.332C245.404 242.924 247.23 242.915 248.962 243.258C248.948 243.319 249.237 243.298 249.299 243.321C249.378 243.318 249.896 243.492 249.755 243.304ZM201.582 241.051C199.93 240.247 198.006 240.024 196.198 240.383L196.123 240.402C195.32 240.598 194.031 240.821 193.729 241.616C193.663 241.795 193.792 242.041 193.992 242.082C194.67 242.219 195.297 241.761 195.917 241.548C197.741 240.941 199.794 240.829 201.657 241.342C201.668 241.413 201.679 241.482 201.691 241.552C201.659 241.531 201.625 241.575 201.65 241.601C201.945 241.805 202.266 241.311 201.582 241.051ZM245.513 240.612C244.165 240.499 242.801 240.634 241.492 240.944L241.246 241.003C240.888 241.09 240.424 241.229 240.364 241.592C240.341 241.737 240.377 241.838 240.5 241.93C240.946 242.261 241.946 241.608 242.512 241.541C244.571 241 246.768 241.054 248.832 241.543L248.902 241.56L248.845 241.897C248.792 242.057 249.256 241.686 249.086 241.509C248.003 240.958 246.73 240.733 245.513 240.612ZM200.35 239.07C199.271 238.863 198.155 238.804 197.058 238.875L196.929 238.883C196.274 238.925 194.154 238.96 194.633 240.018C194.714 240.195 194.957 240.222 195.116 240.15C195.651 239.907 196.232 239.827 196.818 239.755C198.886 239.526 200.991 239.681 202.994 240.25C202.949 240.314 203.038 240.393 203.123 240.41C203.334 240.452 203.339 240.212 203.251 240.082C203.146 239.929 202.931 239.869 202.766 239.799C201.997 239.462 201.179 239.229 200.35 239.07ZM241.483 234.095L241.607 234.07C243.683 233.652 248.282 232.921 248.7 235.629C248.844 236.82 248.264 237.968 248.281 239.145C246.155 238.275 243.785 238.234 241.548 238.734C241.376 237.508 241.213 236.282 241.037 235.057L241.008 234.911C240.927 234.497 240.903 234.175 241.483 234.095ZM246.075 234.682C245.633 234.307 244.882 234.296 244.432 234.687C244.026 234.759 243.733 235.159 243.719 235.507C243.083 236.518 243.795 237.946 244.962 238.226C247.599 238.81 248.854 235.388 246.075 234.682ZM200.237 232.096C198.029 231.675 197.169 234.322 198.965 235.44C201.508 236.714 203.299 232.911 200.237 232.096ZM245.136 227.111C245.099 227.314 245.202 227.461 245.325 227.601C245.743 229.375 246.392 231.031 247.031 232.737C244.846 232.347 242.768 232.604 240.816 233.128C240.803 232.612 240.566 232.071 240.404 231.581C240.088 230.65 239.7 229.741 239.25 228.862L239.194 228.752C239.032 228.439 238.877 228.113 238.685 227.812C240.836 227.579 242.987 227.374 245.136 227.111ZM201.925 225.837L201.977 226.083C202.201 227.154 202.413 228.233 202.758 229.276L202.762 229.297C202.813 229.56 202.914 230.771 203.011 229.92C203.07 230.049 203.132 230.178 203.199 230.304L202.669 230.233C200.692 229.972 198.628 229.753 196.675 230.184C196.907 228.707 196.64 227.286 196.235 225.877C198.136 225.875 200.019 225.927 201.925 225.837ZM237.864 228.425C237.932 228.489 237.998 228.553 238.062 228.62C237.975 228.597 237.887 228.575 237.807 228.555C237.811 228.507 237.848 228.471 237.864 228.425ZM195.08 226.177L195.139 226.316C195.108 226.297 195.072 226.279 195.035 226.263C195.053 226.237 195.068 226.209 195.08 226.177ZM246.314 226.94C246.335 227.019 246.35 227.106 246.389 227.179C246.357 227.184 246.324 227.189 246.291 227.195C246.253 227.118 246.213 227.044 246.17 226.97C246.218 226.96 246.266 226.951 246.314 226.94ZM231.605 139.263C231.798 139.356 232 139.383 232.268 139.399C234.445 139.53 236.612 139.815 238.743 140.267C238.59 141.905 238.031 143.483 237.497 145.036L237.386 145.377C235.577 150.945 233.977 156.77 234.153 162.637C234.136 162.642 234.12 162.65 234.105 162.657C234.13 162.729 234.148 162.803 234.174 162.875L234.19 162.918L234.287 163.159C234.34 163.293 234.392 163.428 234.437 163.565C234.519 163.595 234.621 163.618 234.718 163.634C235.148 166.747 234.606 170.216 232.328 172.596C233.153 171.098 233.466 169.383 233.466 167.699L233.465 167.442C233.463 167.124 233.449 166.806 233.353 166.503C233.349 166.486 233.327 166.489 233.321 166.502C232.821 167.872 232.759 169.371 232.267 170.752L232.229 170.858C231.84 171.94 231.199 173.33 230.125 173.871C229.928 173.922 229.628 173.851 229.522 174.062L229.515 174.078L229.509 174.075C230.014 172.612 230.351 171.096 230.488 169.56L230.497 169.456C230.541 168.92 230.627 168.347 230.497 167.82C230.218 168.293 230.268 169.077 230.131 169.654L230.126 169.687C230.014 170.311 228.963 175.078 228.351 174.426C228.226 174.246 228.267 173.906 228.267 173.696L228.267 173.675C228.264 173.372 228.273 173.068 228.291 172.765C228.395 170.979 228.727 169.15 228.188 167.397C228.099 167.102 227.579 167.036 227.508 167.383C227.226 168.773 226.956 170.164 226.685 171.555C226.491 172.404 226.478 173.366 225.927 174.09C225.955 172.484 226.082 170.885 226.196 169.283L226.219 169.217C226.288 169.016 226.357 168.754 226.213 168.579C226.162 168.212 225.597 168.242 225.541 168.624C225.529 168.704 225.519 168.785 225.509 168.865C225.318 169.084 225.139 169.307 224.915 169.493C223.499 166.608 228.427 161.778 229.161 158.568C231.253 152.33 230.262 145.724 229.824 139.319C230.416 139.265 231.011 139.259 231.605 139.263ZM204.273 102.545C203.201 104.487 202.401 106.549 201.832 108.676C201.656 109.333 202.582 109.757 202.971 109.187L202.983 109.169C203.462 108.445 204.167 107.813 205.047 107.578C205.594 109.961 205.252 112.46 204.892 114.847C204.273 118.169 203.767 121.509 203.631 124.886L203.624 125.067C203.193 136.602 201.165 148.052 198.972 159.309C195.83 159.721 192.935 161.006 190.023 162.129C189.518 162.304 189.002 162.456 188.474 162.556C190.191 149.778 195.957 137.881 197.927 125.155C198.446 121.845 198.537 118.475 197.984 115.162C197.974 115.099 197.88 115.118 197.874 115.174C197.778 116.528 197.505 117.861 197.332 119.206C197.25 118.434 197.038 117.649 196.869 116.907C196.659 116.181 196.6 115.02 195.951 114.535L195.912 114.398C195.896 114.339 195.803 114.362 195.817 114.421C195.823 114.449 195.83 114.476 195.835 114.504C195.409 114.602 195.795 115.087 195.895 115.317C196.539 117.061 196.703 118.938 197.13 120.73C196.343 126.282 195.019 131.752 193.417 137.13C192.055 136.759 190.689 136.401 189.324 136.038C192.581 126.641 191.011 116.045 195.784 107.107C197.565 104.111 201.787 104.611 204.273 102.545ZM227.562 101.299C228.204 101.28 228.868 101.624 229.481 101.751C230.295 101.918 231.106 102.054 231.9 102.302C235.967 103.451 239.851 106.44 240.505 110.643C240.955 113.529 239.636 116.304 239.62 119.173C239.694 122.016 240.624 124.767 240.95 127.588C241.353 130.473 241.449 133.486 240.993 136.368C237.345 135.303 233.515 135.162 229.743 135.594C230.148 131.221 229.828 126.811 229.691 122.429C229.585 119.615 229.364 116.785 229.521 113.971C229.525 113.909 229.418 113.891 229.407 113.953C228.159 119.682 228.699 125.535 228.693 131.338C228.734 132.805 228.513 134.281 228.559 135.74C226.842 136.054 226.864 137.948 227.362 139.207C227.448 139.51 227.764 139.464 228.019 139.433C228.289 139.714 228.955 139.368 229.33 139.376C229.474 146.583 231.099 154.311 227.303 160.964C225.774 160.941 224.313 160.409 222.833 160.094L222.752 160.077L222.75 160.077C222.537 159.802 222.44 159.366 222.417 159.048C222.325 153.498 223.09 147.954 222.825 142.401C222.487 136.235 221.168 130.087 221.966 123.904C222.544 118.375 223.926 112.963 224.653 107.454L224.69 107.169C224.735 106.829 224.758 106.453 224.94 106.197C225.954 107.112 226.798 108.192 227.394 109.4C227.725 109.984 228.65 109.746 228.678 109.095C228.835 107.934 228.879 106.766 228.769 105.6L228.759 105.497C228.623 104.037 228.188 102.636 227.562 101.299ZM188.351 140.463C189.679 140.557 191.007 140.725 192.34 140.736L192.196 141.211C190.464 146.91 188.628 152.597 187.494 158.442L187.469 157.891C187.443 157.34 187.42 156.789 187.408 156.237C187.231 150.96 187.779 145.704 188.351 140.463ZM223.725 104.596C223.714 104.834 223.697 105.071 223.672 105.308C223.04 106.171 223.07 107.335 222.912 108.339C222.027 113.761 220.779 119.153 220.282 124.64C219.835 129.028 220.325 133.42 220.829 137.784C221.458 142.783 221.277 147.816 221.002 152.83C218.237 150.351 214.243 149.843 210.706 149.017L210.538 148.981C207.817 148.393 205.107 147.566 202.817 146.005C204.722 134.702 204.568 123.21 206.51 111.917C206.581 111.026 206.611 110.129 206.551 109.236C206.646 108.273 206.689 107.303 206.711 106.335C207.4 109.209 209.848 112.023 213.133 112.001C216.631 111.879 219.652 109.223 221.978 106.942C222.61 106.26 223.241 105.461 223.725 104.596ZM192.241 140.549L192.399 140.545L192.388 140.577C192.356 140.571 192.323 140.564 192.29 140.558L192.241 140.549ZM187.988 136.587C188.013 136.581 188.055 136.581 188.103 136.584C188.168 136.735 188.302 136.861 188.461 136.905L189.787 137.275C190.892 137.583 191.998 137.889 193.105 138.188C192.904 138.869 192.7 139.549 192.494 140.228C190.986 139.731 189.303 139.802 187.762 139.47C187.797 138.681 187.859 137.888 187.89 137.097C187.896 136.968 187.872 136.76 187.944 136.646C187.989 136.573 187.945 136.599 187.988 136.587ZM238.92 140.305L238.962 140.315C238.947 140.35 238.934 140.386 238.921 140.422C238.922 140.383 238.922 140.344 238.92 140.305ZM229.118 136.3C231.986 135.963 234.899 135.789 237.777 136.119C239.078 136.314 240.399 136.521 241.673 136.777C242.104 137.437 241.579 139.008 241.015 139.497C240.848 139.554 240.565 139.431 240.407 139.394C239.218 139.113 238.017 138.881 236.809 138.694C236.772 138.737 236.719 138.763 236.654 138.756L236.376 138.726C234.708 138.546 233.025 138.405 231.349 138.461L231.336 138.47C230.205 138.525 229.076 138.671 227.948 138.77C227.527 137.655 227.63 136.388 229.118 136.3ZM209.06 99.7973C208.942 100.151 208.802 100.495 208.63 100.828C208.458 100.779 208.22 100.811 208.091 100.912L208.037 100.901C207.889 100.871 207.712 100.827 207.666 100.821C205.628 100.509 205.73 103.116 205.695 104.425C205.669 105.081 205.641 105.737 205.607 106.393C205.026 106.191 204.237 106.516 203.72 106.807C204.146 105.546 204.643 104.308 205.193 103.092L205.297 102.855C205.731 101.875 206.209 100.882 207.101 100.211C207.772 100.059 208.419 100.042 209.06 99.7973ZM223.888 99.4519C225.801 98.8461 226.522 100.328 227.019 101.802C227.606 103.434 227.739 105.221 227.599 106.962L227.537 106.88C226.856 105.978 225.879 104.492 224.6 104.701C224.627 104.028 224.617 103.288 224.496 102.586C224.584 102.137 224.614 101.681 224.568 101.224C224.551 100.652 223.896 100.725 223.467 100.635C223.1 100.391 222.651 100.287 222.195 100.444C221.854 100.394 221.513 100.345 221.172 100.297C221.122 100.186 221.082 100.075 221.04 99.9612C221.99 99.7946 222.939 99.6222 223.888 99.4519Z" fill="#1B1B1B"/>
<path fill-rule="evenodd" clip-rule="evenodd" d="M202.895 85.6219C203.47 80.2709 204.982 75.5524 211.626 75.488C214.622 75.5756 217.669 76.2424 220.401 77.4157C227.032 80.7368 228.916 92.4076 222.918 96.9651C222.952 96.9848 222.96 97.0396 222.918 97.0651C221.682 97.8169 220.314 98.4281 218.946 98.9371C215.301 100.31 211.032 100.851 207.378 99.2032C201.799 96.8178 201.845 90.504 202.895 85.6219Z" fill="#EEEEEE"/>
<path fill-rule="evenodd" clip-rule="evenodd" d="M191.872 82.893C191.645 82.6908 191.477 82.4284 191.396 82.1364C191.322 81.8702 191.323 81.5811 191.413 81.3189C191.509 81.0376 191.709 80.8162 191.671 80.5206C191.667 80.4916 191.662 80.4614 191.653 80.4311C191.495 79.8728 191.088 79.4637 191.249 78.8518C191.295 78.6791 191.377 78.5244 191.49 78.4037C191.481 78.2702 191.473 78.1354 191.467 78.0007C191.234 77.4542 191.256 76.8112 191.527 76.2836C191.565 76.0113 191.619 75.742 191.692 75.4775C191.665 75.2418 191.714 74.9838 191.798 74.7798C191.946 74.4209 192.126 74.0679 192.322 73.7211C192.302 73.6248 192.314 73.5236 192.371 73.4347C192.476 73.273 192.614 73.1317 192.754 72.9938C192.854 72.8316 192.955 72.6708 193.055 72.5121C193.102 72.4392 193.153 72.3583 193.21 72.2726C193.066 72.0077 192.992 71.751 193.156 71.4464C193.217 71.332 193.382 71.2501 193.516 71.2604C193.662 71.2717 193.809 71.281 193.958 71.2894C194.242 70.9776 194.563 70.699 194.903 70.5418C195.25 70.2747 195.602 70.0129 195.944 69.745C196.041 69.6688 196.139 69.5927 196.236 69.5165C196.237 69.5146 196.237 69.512 196.238 69.5101C196.314 69.2688 196.398 69.0308 196.482 68.7916C196.534 68.6433 196.552 68.4873 196.707 68.4092C197.032 68.246 197.525 68.2294 197.893 68.2082C197.931 68.1782 197.968 68.1489 198.005 68.1189C197.847 67.6938 197.886 67.2466 198.105 66.8288C198.179 66.6868 198.43 66.6273 198.564 66.7249C198.875 66.9506 199.247 67.0359 199.617 67.0115C200.169 66.6269 202.399 64.8821 202.742 64.7002C202.746 64.6935 202.75 64.6868 202.754 64.6801C202.951 64.3959 203.187 64.1693 203.451 63.9892C203.489 63.9533 203.527 63.9172 203.565 63.8812C203.536 63.6609 203.455 63.447 203.32 63.2666C203.306 63.2458 203.289 63.2256 203.273 63.2061C203.036 62.9281 203.339 62.5832 203.674 62.7331C203.698 62.7438 203.723 62.7546 203.747 62.766C204.004 62.8812 204.289 63.0065 204.587 63.1134C204.697 63.0768 204.81 63.0439 204.912 63.0072L206.012 62.6143C206.193 62.5496 206.384 62.4956 206.559 62.4188C206.628 62.0383 207.037 61.7963 207.456 61.8181C207.433 61.7443 207.399 61.6724 207.349 61.6039C207.335 61.5837 207.319 61.5641 207.302 61.5452C207.092 61.303 207.389 60.8683 207.693 61.0861C207.714 61.1013 207.736 61.1165 207.757 61.1317C207.842 61.1904 207.928 61.2456 208.016 61.2992C208.159 61.2435 208.319 61.2334 208.485 61.299C208.853 61.4441 209.191 61.5909 209.513 61.8131C209.526 61.8222 209.54 61.8298 209.553 61.8384C209.719 61.6565 209.978 61.5379 210.209 61.544C210.214 61.5441 210.218 61.5442 210.222 61.5442C210.4 61.298 210.72 61.1594 211.026 61.2011C211.013 60.8422 211.398 60.5302 211.744 60.4985C212.147 60.4615 212.506 60.6906 212.619 61.0655C212.651 61.1699 212.682 61.2743 212.714 61.3787C213.029 61.2356 213.362 61.1279 213.708 61.0778C214.496 60.9638 215.261 61.1186 216.013 61.3408C216.088 61.363 216.163 61.3858 216.238 61.4085C216.349 61.2923 216.453 61.1731 216.552 61.0619C216.723 60.87 217.12 61.0347 217.088 61.2852C217.066 61.4581 217.137 61.5844 217.255 61.6755C217.386 61.6964 217.513 61.7045 217.705 61.7049C217.958 61.7052 218.073 61.7001 218.34 61.6079C218.464 61.565 218.62 61.4485 218.694 61.3427C218.978 60.9366 219.68 60.8403 220.006 61.2398C220.359 61.1016 220.798 61.3115 220.987 61.5984C221.086 61.7485 221.297 61.8356 221.563 61.9123C221.763 61.9698 221.967 62.0144 222.173 62.054C222.267 61.9377 222.462 61.8625 222.602 61.9645C222.697 62.0339 222.789 62.1049 222.88 62.1777C223.589 62.2852 224.295 62.3033 224.979 62.0548C225.557 61.8444 226.071 62.4625 225.966 62.9703C226.13 63.0557 226.309 63.1139 226.471 63.2032C226.826 63.3981 227.113 63.7005 227.285 64.0523C227.316 64.1154 227.344 64.1793 227.37 64.2434C227.502 64.3494 227.632 64.4581 227.759 64.5726C227.976 64.4727 228.192 64.3727 228.41 64.2727C228.572 64.1979 228.842 64.258 228.87 64.4611C228.915 64.7953 229.036 65.0741 229.211 65.3091C229.792 65.6135 230.35 65.9532 230.883 66.329C231.5 66.5264 232.158 66.6478 232.699 66.7801C232.884 66.8256 232.981 67.0577 232.873 67.2087C232.758 67.3685 232.644 67.5282 232.53 67.688C232.834 67.9802 233.117 68.2848 233.385 68.5992C234.129 69.4736 234.747 70.4279 235.297 71.4367C235.521 71.5278 235.745 71.6184 235.969 71.7096C236.185 71.7974 236.278 72.039 236.098 72.2115C236.012 72.2937 235.935 72.3806 235.869 72.4721C236.179 72.9804 236.546 73.4456 237.066 73.7564C237.225 73.8507 237.342 73.9961 237.403 74.1595C237.457 74.1952 237.51 74.2335 237.563 74.2724C237.709 74.3819 237.794 74.6157 237.617 74.7498C237.493 74.8446 237.375 74.9575 237.275 75.083C237.253 75.155 237.23 75.2276 237.207 75.2995C237.687 75.7363 238.084 76.2407 238.378 76.8031C238.451 76.7937 238.525 76.8023 238.584 76.8459C239.123 77.2397 239.126 77.8493 238.895 78.3893C239.01 79.2127 238.908 80.0521 238.636 80.8418C238.965 81.1666 239.158 81.6295 239.231 82.0733C239.36 82.8528 239.346 84.0471 239.367 84.8404C239.727 85.1831 239.978 85.6222 240.114 86.0917C240.235 86.1519 240.357 86.2121 240.478 86.2723C240.585 86.3258 240.662 86.4626 240.654 86.5765C240.611 87.1275 240.362 87.5581 240.035 87.9461C239.916 88.2481 239.743 88.5252 239.518 88.7898C239.363 88.9711 239.211 89.1449 239.077 89.3414C239.063 89.361 239.054 89.3794 239.048 89.3921C239.098 89.4457 239.139 89.5337 239.175 89.5966C239.476 90.1246 239.468 90.7359 239.015 91.1809C239.18 91.3137 239.18 91.5752 239.029 91.7323C238.048 92.7509 237.222 93.997 235.879 94.5209C235.873 94.5304 235.867 94.5399 235.862 94.5494C236.119 95.1701 236.149 95.4905 235.915 96.1214C235.914 96.1272 235.912 96.1323 235.91 96.138C235.785 96.4687 235.558 96.9978 235.165 97.0935C235.042 97.1236 234.92 97.1359 234.801 97.1327C234.485 97.4088 234.17 97.6856 233.855 97.9623C233.825 98.102 233.806 98.2433 233.797 98.386C233.783 98.6248 233.542 98.8134 233.288 98.7376C233.199 98.7107 232.71 98.2423 232.619 98.243C232.572 98.2856 232.527 98.3282 232.481 98.3715C232.313 98.5314 232.08 98.7843 232.058 98.9549C232.014 99.2764 231.784 99.6408 231.422 99.6986C231.284 99.8259 231.067 99.8605 230.905 99.6872C230.894 99.6761 230.884 99.665 230.872 99.6552C230.855 99.6529 230.838 99.6506 230.82 99.6483C230.736 99.8722 230.651 100.096 230.566 100.319C230.399 100.759 229.792 101.032 229.37 100.764C229.3 100.802 229.232 100.842 229.163 100.882C229.059 100.942 228.954 101.004 228.846 101.061C228.839 101.077 228.833 101.094 228.827 101.11C228.754 101.308 228.465 101.409 228.291 101.29C228.236 101.306 228.179 101.318 228.122 101.328C227.823 101.377 227.523 101.356 227.237 101.256C227.032 101.185 226.838 101.053 226.617 101.031C226.603 101.03 226.589 101.03 226.574 101.03C226.386 101.377 225.967 101.671 225.639 101.767C225.209 101.893 224.773 101.836 224.388 101.663C224.279 101.859 224.143 102.045 223.982 102.215C223.893 102.31 223.736 102.286 223.648 102.208C223.48 102.061 223.313 101.914 223.147 101.766C223.025 101.719 222.902 101.662 222.774 101.61C222.374 101.445 221.932 101.371 221.563 101.137C221.388 101.026 221.224 100.886 221.09 100.725C220.834 100.578 220.6 100.396 220.39 100.19C220.283 100.188 220.172 100.162 220.065 100.108C219.617 99.8807 219.388 99.4325 219.377 98.9784C219.027 98.154 218.829 97.2782 218.788 96.3852C218.775 96.092 218.778 95.7966 218.808 95.5043C218.828 95.2984 218.886 95.1618 218.972 94.977C219.001 94.9168 219.028 94.8615 219.048 94.8004C219.048 94.603 219.049 94.4056 219.051 94.2089C218.998 94.0418 218.901 93.8853 218.765 93.7524C218.553 93.5467 218.463 93.127 218.664 92.8825C218.795 92.7243 218.926 92.5662 219.057 92.408C219.035 91.7173 218.884 90.6156 219.273 90.5083C219.26 90.4055 219.229 90.3036 219.212 90.2013C219.131 89.71 219.194 89.2735 219.478 88.8513C219.537 88.7634 219.588 88.6857 219.629 88.6096C219.657 88.4692 219.685 88.3288 219.713 88.1883C219.756 87.972 219.798 87.7536 219.835 87.5339C219.858 87.2537 219.879 86.9734 219.902 86.6925C219.923 86.434 219.946 86.1755 219.97 85.9165C219.965 85.8003 219.956 85.6842 219.943 85.5679C219.865 84.8747 219.572 84.6129 219.065 84.1216C218.985 84.1078 218.904 84.0927 218.826 84.0756C218.459 83.9956 218.076 83.8755 217.695 83.9079C217.283 83.9429 216.911 84.1038 216.515 83.8802C216.399 83.8137 216.143 83.6315 216.124 83.4907C216.123 83.4817 216.121 83.474 216.118 83.4682C216.091 83.4637 216.055 83.4598 216.033 83.4587C215.715 83.4418 215.409 83.554 215.089 83.5147C214.711 83.4684 214.375 83.3018 214.156 83.0608C213.869 83.1214 213.576 83.1455 213.28 83.1022C213.032 83.0662 212.811 82.9847 212.592 82.8661C212.434 82.7808 212.485 82.7581 212.309 82.8211C211.909 82.9653 211.546 83.159 211.101 83.0453C210.871 82.9867 210.673 82.864 210.508 82.701C210.469 82.663 210.402 82.6058 210.358 82.5524C210.144 82.6498 209.605 82.8687 209.516 82.8874C209.266 82.9399 209.003 82.9254 208.762 82.8435C208.586 82.7834 208.371 82.6252 208.216 82.5905C208.014 82.5453 207.56 82.8025 207.317 82.8891C206.89 83.0411 206.441 83.0715 206.016 82.8967C205.869 82.8366 205.587 82.6032 205.477 82.6028C205.294 82.8086 204.77 83.9443 204.611 84.3595C203.968 86.0382 203.7 91.3158 203.953 92.669C203.963 92.7089 203.974 92.7482 203.984 92.7882C204.305 93.9671 204.639 95.1662 205.193 96.2698C205.716 97.31 206.449 98.2521 207.517 98.8364C208.625 99.4426 209.936 99.6231 211.197 99.5705C212.009 99.5373 212.809 99.3995 213.597 99.2223C214.009 99.1303 214.418 99.0266 214.824 98.9184C215.002 98.8715 215.182 98.8278 215.356 98.7724C215.664 98.6744 215.825 98.6694 216.115 98.8094C216.379 98.9366 216.439 99.2974 216.296 99.5207C216.063 99.885 215.648 99.9021 215.246 100.001C214.837 100.102 214.427 100.199 214.013 100.285C213.222 100.448 212.419 100.569 211.61 100.615C210.162 100.7 208.676 100.492 207.373 99.8672C207.226 99.7962 207.084 99.7208 206.947 99.6398C206.997 99.7088 207.047 99.7777 207.099 99.8461C207.241 100.036 207.126 100.35 206.919 100.448C206.854 100.479 206.788 100.508 206.722 100.537C206.713 100.557 206.703 100.576 206.691 100.596C206.497 100.948 206.1 101.15 205.699 101.233C205.222 101.331 204.692 101.243 204.21 101.22C203.762 101.198 203.315 101.176 202.868 101.153C202.763 101.149 202.657 101.143 202.552 101.138C202.021 101.111 201.49 101.086 200.96 101.059C200.487 101.036 200.508 101.071 200.068 100.882C199.872 100.798 199.712 100.68 199.578 100.526C199.494 100.488 199.412 100.445 199.334 100.397C199.083 100.242 198.861 100.036 198.658 99.8097C198.302 99.9081 197.808 99.7998 197.748 99.3774C197.651 98.7018 196.734 98.3949 196.312 97.8991C195.972 97.4991 195.734 96.9795 195.757 96.4858C194.888 96.0652 194.433 94.995 194.34 94.0932C194.296 93.6751 194.314 93.2287 194.248 92.8031C194.215 92.7684 194.186 92.7319 194.162 92.693C193.949 92.3508 193.764 91.9989 193.602 91.6392C193.375 91.4774 193.101 91.3749 192.812 91.3529C192.101 91.299 191.986 90.3872 192.669 90.1822C192.673 90.181 192.675 90.1804 192.679 90.1792C192.504 89.7397 192.53 89.2243 192.762 88.8164C192.753 88.7713 192.745 88.7269 192.738 88.6819C192.365 88.2864 192.158 87.7431 192.193 87.2189C192.022 87.0993 191.829 87.0056 191.617 86.9454C191.289 86.8527 191.295 86.4721 191.542 86.3068C191.642 86.2403 191.725 86.1619 191.794 86.0749C191.636 85.5921 191.713 85.0394 192.066 84.6532C191.853 84.3834 191.64 84.1136 191.427 83.8438C191.286 83.6653 191.216 83.3658 191.44 83.2038C191.584 83.0998 191.727 82.9964 191.872 82.893Z" fill="#1B1B1B"/>
<path fill-rule="evenodd" clip-rule="evenodd" d="M207.636 92.6036C207.412 92.211 206.717 92.2596 206.601 92.7097C206.367 93.6223 207.506 94.4931 208.384 94.5325C209.256 94.5716 210.25 93.8895 210.143 92.9996C210.116 92.7795 209.805 92.7997 209.697 92.9351L209.655 92.987C209.36 93.3457 208.973 93.7153 208.442 93.6153C208.222 93.5739 208.024 93.4393 207.894 93.2686C207.738 93.0627 207.76 92.8211 207.636 92.6036ZM213.326 86.0101C213.208 85.9768 213.089 85.9862 212.983 86.0262C212.748 86.0619 212.549 86.2423 212.476 86.4516C212.47 86.4697 212.464 86.4876 212.457 86.5052L212.446 86.5316L212.475 86.4647C212.461 86.5309 212.402 86.5996 212.38 86.6659C212.353 86.7475 212.345 86.8406 212.351 86.9311C212.277 86.9302 212.203 86.9311 212.128 86.9356L212.056 86.9402C211.654 86.9671 211.212 87.0226 210.968 87.3456C210.83 87.5271 210.949 87.8614 211.193 87.902C211.57 87.9645 211.9 87.7735 212.277 87.7418C212.634 87.7117 213.006 87.7409 213.356 87.809C214.079 87.9495 214.74 88.2414 215.443 88.4305L215.539 88.4556L215.539 88.4552C215.659 88.4854 215.8 88.329 215.682 88.2333C215.125 87.7816 214.407 87.41 213.698 87.1781C213.805 87.0237 213.841 86.8182 213.774 86.6487C213.763 86.6136 213.75 86.5795 213.737 86.5454L213.708 86.4754C213.706 86.4426 213.7 86.4101 213.691 86.3782L213.69 86.3685L213.689 86.369C213.639 86.2045 213.503 86.0602 213.326 86.0101ZM206.1 85.8852C205.948 85.7354 205.73 85.7525 205.566 85.8645L205.544 85.8799C205.39 85.9408 205.261 86.078 205.176 86.2059C205.087 86.3387 205.027 86.4746 205.022 86.6228C204.647 86.6161 204.285 86.715 204.004 86.9955C203.913 87.086 203.849 87.2273 203.896 87.3535L203.923 87.4286C204.011 87.6671 204.424 87.8119 204.571 87.5367L204.578 87.5233C204.734 87.1961 205.31 87.2427 205.615 87.2828C205.828 87.3109 206.038 87.3654 206.243 87.4259C206.315 87.4472 206.387 87.4702 206.458 87.4936L206.53 87.5172C206.568 87.5297 206.765 87.6364 206.642 87.6096C206.608 87.6023 206.582 87.6478 206.616 87.664C206.763 87.734 206.923 87.6039 206.917 87.4533C206.905 87.1918 206.469 87.0396 206.26 86.9451L206.248 86.9394C206.168 86.9024 206.084 86.8667 205.997 86.8334C206.047 86.7653 206.09 86.6892 206.125 86.6074C206.159 86.5302 206.182 86.4549 206.195 86.3723C206.207 86.3321 206.208 86.2916 206.198 86.2508L206.196 86.2392C206.203 86.2125 206.206 86.1849 206.206 86.157L206.208 86.1462L206.206 86.1462C206.204 86.0485 206.165 85.9499 206.1 85.8852ZM208.517 88.7173C207.918 88.8788 206.927 89.3321 207.221 90.0696C207.641 90.75 208.799 90.2804 209.36 90.0751C209.863 89.9289 210.11 90.5968 209.622 90.7864C205.596 92.1977 205.693 88.2542 208.379 88.368C208.675 88.3805 208.678 88.6629 208.517 88.7173ZM213.909 83.6849L213.808 83.6548C213.284 83.4993 212.75 83.2387 212.274 83.6182C212.087 83.7672 212.042 84.0841 212.17 84.2775C212.461 84.7181 212.907 84.661 213.39 84.7081C213.758 84.7439 214.119 84.8539 214.46 84.9889C214.739 85.0994 214.997 85.2521 215.24 85.4215C215.479 85.588 215.639 85.844 215.884 85.9945C215.973 86.0497 216.08 85.997 216.114 85.9113C216.236 85.6071 216.049 85.2212 215.889 84.9565C215.693 84.6337 215.392 84.3667 215.066 84.1626C214.709 83.9391 214.312 83.8061 213.909 83.6849ZM206.23 83.1952C205.338 83.1765 204.471 83.6275 203.958 84.3045C203.783 84.5345 203.9 84.883 204.141 85.0226C204.41 85.1792 204.705 85.0765 204.889 84.864L204.9 84.8511C205.193 84.497 205.568 84.221 206.009 84.0455C206.224 83.9597 206.461 83.8915 206.693 83.8593L206.767 83.8487C206.872 83.8343 206.994 83.8211 207.088 83.8385C207.138 83.8458 207.184 83.8626 207.227 83.8876C207.205 83.9297 207.257 83.9821 207.307 83.9576C207.531 83.8471 207.508 83.6413 207.328 83.478C207.074 83.2469 206.564 83.2023 206.23 83.1952Z" fill="#1B1B1B"/>
<g filter="url(#filter2_d_116_6758)">
<path d="M96.8553 175.52C94.0261 178.178 91.7524 180.844 86.1113 188.311C85.5927 206.275 86.6899 215.669 93.6151 230H327.595C333.369 224.363 336.428 220.079 335.951 175.52L319.75 139.516C313.747 128.557 310.272 123.515 302.185 133.831L289.735 150.412C279.733 165.134 273.419 160.151 262.108 150.412C255.903 141.969 252.432 142.268 246.248 155.623C240.639 168.96 237.407 176.011 231.581 188.311C222.549 200.902 217.096 200.084 206.853 188.311C193.04 165 186.02 149.46 174.621 117.724C168.362 105.757 163.7 106.431 153.815 117.724C145.225 133.241 140.538 142.339 133.521 162.729C127.48 178.7 122.665 181.009 112.033 175.52C106.998 166.788 103.824 165.303 96.8553 175.52Z" fill="#595079"/>
</g>
<g filter="url(#filter3_d_116_6758)">
<path d="M325.152 179.525C327.979 181.744 330.251 183.969 335.889 190.202C336.407 205.196 335.311 213.038 328.39 225H94.5608C88.7902 220.295 79.541 217.694 80.0177 180.5L102.401 149.472C108.4 140.325 111.872 136.116 119.955 144.727L132.396 158.567C142.392 170.856 148.702 166.696 160.006 158.567C166.207 151.52 169.676 151.769 175.856 162.917C181.46 174.049 184.69 179.935 190.513 190.202C199.539 200.712 204.989 200.028 215.225 190.202C229.029 170.744 236.044 157.773 247.436 131.282C253.691 121.293 258.35 121.856 268.228 131.282C276.813 144.234 281.497 151.829 288.509 168.848C294.546 182.179 299.359 184.107 309.983 179.525C315.015 172.237 318.188 170.997 325.152 179.525Z" fill="#3A3C65"/>
</g>
<g filter="url(#filter4_d_116_6758)">
<path d="M128.704 162.458C106.638 189.109 94.0901 201.651 69.502 193.947C68.935 198.874 68.7375 201.536 69.502 205.356C69.502 224.5 68.3658 225.983 72.204 230H336C336 222.5 334.741 218.38 336 205.356L293.739 176.605C282.517 167.751 276.062 169.026 264.412 176.605C249.969 187.881 241.63 196.139 226.523 212.658C213.859 218.38 206.762 216.937 194.098 212.658C174.732 204.254 163.957 196.272 145.098 167.934C139.685 159.532 136.958 153.455 128.704 162.458Z" fill="#192A51"/>
</g>
</g>
</g>
<defs>
<filter id="filter0_dddddd_116_6758" x="0" y="0.147609" width="416" height="409.852" filterUnits="userSpaceOnUse" color-interpolation-filters="sRGB">
<feFlood flood-opacity="0" result="BackgroundImageFix"/>
<feColorMatrix in="SourceAlpha" type="matrix" values="0 0 0 0 0 0 0 0 0 0 0 0 0 0 0 0 0 0 127 0" result="hardAlpha"/>
<feOffset dy="0.559259"/>
<feGaussianBlur stdDeviation="1.1069"/>
<feColorMatrix type="matrix" values="0 0 0 0 0 0 0 0 0 0 0 0 0 0 0 0 0 0 0.0468848 0"/>
<feBlend mode="normal" in2="BackgroundImageFix" result="effect1_dropShadow_116_6758"/>
<feColorMatrix in="SourceAlpha" type="matrix" values="0 0 0 0 0 0 0 0 0 0 0 0 0 0 0 0 0 0 127 0" result="hardAlpha"/>
<feOffset dy="2.62385"/>
<feGaussianBlur stdDeviation="2.66004"/>
<feColorMatrix type="matrix" values="0 0 0 0 0 0 0 0 0 0 0 0 0 0 0 0 0 0 0.0647322 0"/>
<feBlend mode="normal" in2="effect1_dropShadow_116_6758" result="effect2_dropShadow_116_6758"/>
<feColorMatrix in="SourceAlpha" type="matrix" values="0 0 0 0 0 0 0 0 0 0 0 0 0 0 0 0 0 0 127 0" result="hardAlpha"/>
<feOffset dy="7.16485"/>
<feGaussianBlur stdDeviation="5.00862"/>
<feColorMatrix type="matrix" values="0 0 0 0 0 0 0 0 0 0 0 0 0 0 0 0 0 0 0.0786233 0"/>
<feBlend mode="normal" in2="effect2_dropShadow_116_6758" result="effect3_dropShadow_116_6758"/>
<feColorMatrix in="SourceAlpha" type="matrix" values="0 0 0 0 0 0 0 0 0 0 0 0 0 0 0 0 0 0 127 0" result="hardAlpha"/>
<feOffset dy="16.347"/>
<feGaussianBlur stdDeviation="8.93452"/>
<feColorMatrix type="matrix" values="0 0 0 0 0 0 0 0 0 0 0 0 0 0 0 0 0 0 0.0940847 0"/>
<feBlend mode="normal" in2="effect3_dropShadow_116_6758" result="effect4_dropShadow_116_6758"/>
<feColorMatrix in="SourceAlpha" type="matrix" values="0 0 0 0 0 0 0 0 0 0 0 0 0 0 0 0 0 0 127 0" result="hardAlpha"/>
<feOffset dy="36.5967"/>
<feGaussianBlur stdDeviation="16.711"/>
<feColorMatrix type="matrix" values="0 0 0 0 0 0 0 0 0 0 0 0 0 0 0 0 0 0 0.1174 0"/>
<feBlend mode="normal" in2="effect4_dropShadow_116_6758" result="effect5_dropShadow_116_6758"/>
<feColorMatrix in="SourceAlpha" type="matrix" values="0 0 0 0 0 0 0 0 0 0 0 0 0 0 0 0 0 0 127 0" result="hardAlpha"/>
<feOffset dy="100"/>
<feGaussianBlur stdDeviation="40"/>
<feColorMatrix type="matrix" values="0 0 0 0 0 0 0 0 0 0 0 0 0 0 0 0 0 0 0.18 0"/>
<feBlend mode="normal" in2="effect5_dropShadow_116_6758" result="effect6_dropShadow_116_6758"/>
<feBlend mode="normal" in="SourceGraphic" in2="effect6_dropShadow_116_6758" result="shape"/>
</filter>
<filter id="filter1_d_116_6758" x="80" y="40" width="299" height="211" filterUnits="userSpaceOnUse" color-interpolation-filters="sRGB">
<feFlood flood-opacity="0" result="BackgroundImageFix"/>
<feColorMatrix in="SourceAlpha" type="matrix" values="0 0 0 0 0 0 0 0 0 0 0 0 0 0 0 0 0 0 127 0" result="hardAlpha"/>
<feOffset dx="22"/>
<feGaussianBlur stdDeviation="10.5"/>
<feComposite in2="hardAlpha" operator="out"/>
<feColorMatrix type="matrix" values="0 0 0 0 0 0 0 0 0 0 0 0 0 0 0 0 0 0 0.25 0"/>
<feBlend mode="normal" in2="BackgroundImageFix" result="effect1_dropShadow_116_6758"/>
<feBlend mode="normal" in="SourceGraphic" in2="effect1_dropShadow_116_6758" result="shape"/>
</filter>
<filter id="filter2_d_116_6758" x="86" y="88" width="293" height="163" filterUnits="userSpaceOnUse" color-interpolation-filters="sRGB">
<feFlood flood-opacity="0" result="BackgroundImageFix"/>
<feColorMatrix in="SourceAlpha" type="matrix" values="0 0 0 0 0 0 0 0 0 0 0 0 0 0 0 0 0 0 127 0" result="hardAlpha"/>
<feOffset dx="22"/>
<feGaussianBlur stdDeviation="10.5"/>
<feComposite in2="hardAlpha" operator="out"/>
<feColorMatrix type="matrix" values="0 0 0 0 0 0 0 0 0 0 0 0 0 0 0 0 0 0 0.25 0"/>
<feBlend mode="normal" in2="BackgroundImageFix" result="effect1_dropShadow_116_6758"/>
<feBlend mode="normal" in="SourceGraphic" in2="effect1_dropShadow_116_6758" result="shape"/>
</filter>
<filter id="filter3_d_116_6758" x="80" y="103" width="299" height="143" filterUnits="userSpaceOnUse" color-interpolation-filters="sRGB">
<feFlood flood-opacity="0" result="BackgroundImageFix"/>
<feColorMatrix in="SourceAlpha" type="matrix" values="0 0 0 0 0 0 0 0 0 0 0 0 0 0 0 0 0 0 127 0" result="hardAlpha"/>
<feOffset dx="22"/>
<feGaussianBlur stdDeviation="10.5"/>
<feComposite in2="hardAlpha" operator="out"/>
<feColorMatrix type="matrix" values="0 0 0 0 0 0 0 0 0 0 0 0 0 0 0 0 0 0 0.25 0"/>
<feBlend mode="normal" in2="BackgroundImageFix" result="effect1_dropShadow_116_6758"/>
<feBlend mode="normal" in="SourceGraphic" in2="effect1_dropShadow_116_6758" result="shape"/>
</filter>
<filter id="filter4_d_116_6758" x="69" y="137" width="310" height="114" filterUnits="userSpaceOnUse" color-interpolation-filters="sRGB">
<feFlood flood-opacity="0" result="BackgroundImageFix"/>
<feColorMatrix in="SourceAlpha" type="matrix" values="0 0 0 0 0 0 0 0 0 0 0 0 0 0 0 0 0 0 127 0" result="hardAlpha"/>
<feOffset dx="22"/>
<feGaussianBlur stdDeviation="10.5"/>
<feComposite in2="hardAlpha" operator="out"/>
<feColorMatrix type="matrix" values="0 0 0 0 0 0 0 0 0 0 0 0 0 0 0 0 0 0 0.25 0"/>
<feBlend mode="normal" in2="BackgroundImageFix" result="effect1_dropShadow_116_6758"/>
<feBlend mode="normal" in="SourceGraphic" in2="effect1_dropShadow_116_6758" result="shape"/>
</filter>
<linearGradient id="paint0_linear_116_6758" x1="80" y1="77" x2="320.133" y2="66.8906" gradientUnits="userSpaceOnUse">
<stop stop-color="#6C6095"/>
<stop offset="1" stop-color="#192A51"/>
</linearGradient>
<clipPath id="clip0_116_6758">
<path d="M80 67C80 31.6538 108.654 3 144 3H272C307.346 3 336 31.6538 336 67V230H80V67Z" fill="white"/>
</clipPath>
</defs>
</svg>
