<svg width="416" height="410" viewBox="0 0 416 410" fill="none" xmlns="http://www.w3.org/2000/svg">
<g filter="url(#filter0_dddddd_116_6716)">
<g clip-path="url(#clip0_116_6716)">
<path d="M80 67C80 31.6538 108.654 3 144 3H272C307.346 3 336 31.6538 336 67V230H80V67Z" fill="url(#paint0_linear_116_6716)"/>
<g filter="url(#filter1_d_116_6716)">
<path d="M94.517 138.865L80.0035 107.905V189.447C79.9243 212.454 81.1129 223.304 90.8449 230H324.809C332.658 225.489 334.975 220.761 336 209.069V70.4046C328.409 64.9738 324.955 70.605 320.263 96.5677C311.91 93.7586 305.406 97.4456 292.46 107.905C285.303 109.995 279.901 99.7718 270.077 79.9977C259.419 59.8747 253.714 49.9424 253.116 79.9977L253.03 80.6985C250.687 99.917 249.347 110.904 238.078 117.062C232.369 115.626 228.662 108.818 222.119 96.8031L221.991 96.5677C214.674 88.3909 210.509 90.0402 202.931 107.905L181.598 156.307C174.089 166.304 170.066 172.715 156.418 156.307C151.155 151.549 147.112 146.901 135.959 131.452C125.123 109.795 118.905 96.1708 113.577 131.452C111.712 136.773 110.951 140.293 109.905 147.15C104.695 151.245 101.92 154.888 94.517 138.865Z" fill="#967AA1"/>
</g>
<g filter="url(#filter2_d_116_6716)">
<path d="M96.8553 175.52C94.0261 178.178 91.7524 180.844 86.1113 188.311C85.5927 206.275 86.6899 215.669 93.6151 230H327.595C333.369 224.363 336.428 220.079 335.951 175.52L319.75 139.516C313.747 128.557 310.272 123.515 302.185 133.831L289.735 150.412C279.733 165.134 273.419 160.151 262.108 150.412C255.903 141.969 252.432 142.268 246.248 155.623C240.639 168.96 237.407 176.011 231.581 188.311C222.549 200.902 217.096 200.084 206.853 188.311C193.04 165 186.02 149.46 174.621 117.724C168.362 105.757 163.7 106.431 153.815 117.724C145.225 133.241 140.538 142.339 133.521 162.729C127.48 178.7 122.665 181.009 112.033 175.52C106.998 166.788 103.824 165.303 96.8553 175.52Z" fill="#595079"/>
</g>
<g filter="url(#filter3_d_116_6716)">
<path d="M325.152 179.525C327.979 181.744 330.251 183.969 335.889 190.202C336.407 205.196 335.311 213.038 328.39 225H94.5608C88.7902 220.295 79.541 217.694 80.0177 180.5L102.401 149.472C108.4 140.325 111.872 136.116 119.955 144.727L132.396 158.567C142.392 170.856 148.702 166.696 160.006 158.567C166.207 151.52 169.676 151.769 175.856 162.917C181.46 174.049 184.69 179.935 190.513 190.202C199.539 200.712 204.989 200.028 215.225 190.202C229.029 170.744 236.044 157.773 247.436 131.282C253.691 121.293 258.35 121.856 268.228 131.282C276.813 144.234 281.497 151.829 288.509 168.848C294.546 182.179 299.359 184.107 309.983 179.525C315.015 172.237 318.188 170.997 325.152 179.525Z" fill="#3A3C65"/>
</g>
<g filter="url(#filter4_d_116_6716)">
<path d="M128.704 162.458C106.638 189.109 94.0901 201.651 69.502 193.947C68.935 198.874 68.7375 201.536 69.502 205.356C69.502 224.5 68.3658 225.983 72.204 230H336C336 222.5 334.741 218.38 336 205.356L293.739 176.605C282.517 167.751 276.062 169.026 264.412 176.605C249.969 187.881 241.63 196.139 226.523 212.658C213.859 218.38 206.762 216.937 194.098 212.658C174.732 204.254 163.957 196.272 145.098 167.934C139.685 159.532 136.958 153.455 128.704 162.458Z" fill="#192A51"/>
</g>
<path fill-rule="evenodd" clip-rule="evenodd" d="M200.191 187.684C198.614 187.784 198.699 173.801 199.644 171.185C199.77 170.657 199.861 169.94 199.81 169.301C198.511 169.48 198.616 168.629 198.64 167.606C198.583 166.798 198.453 165.13 199.788 165.725C203.394 158.123 198.34 139.08 208.585 136.832C209.817 136.493 211.09 136.142 212.103 135.281C213.129 133.293 213.682 133.021 215.513 132.818C215.779 131.055 216.336 129.161 218.201 128.4C219.907 127.683 221.923 127.546 223.746 127.813C225.262 128.212 225.511 130.842 225.898 132.127C227.892 131.535 230.331 130.365 231.518 132.733C232.038 132.562 232.529 132.638 233.07 132.781C237.575 133.275 241.999 135.009 243.829 138.942C244.957 141.301 244.34 143.947 244.06 146.451C243.817 149.175 244.869 151.645 245.418 154.232C246.223 157.793 246.463 160.666 246.15 163.351C247.286 163.546 247.41 164.513 246.998 165.548C246.878 165.897 246.759 166.265 246.471 166.472C245.885 166.856 245.09 166.475 244.433 166.44C244.358 167.878 244.154 169.296 243.786 170.912C243.932 171.385 244.1 171.913 244.25 172.388L244.292 172.341C246.036 178.203 250.721 183.77 249.608 190.126C249.535 190.34 249.379 190.302 249.261 190.304C248.586 190.58 247.95 190.45 247.261 190.504C245.622 190.575 244.047 190.841 242.586 191.076C242.388 192.749 241.63 195.506 240.1 196.206C240.074 196.216 239.609 196.144 239.57 196.143C244.389 211.887 252.469 226.292 256.119 242.407C256.145 242.604 255.8 242.514 255.69 242.542C255.724 242.993 255.421 243.114 254.998 243.292C255.599 244.367 256.145 245.443 256.744 246.521C257.023 247.055 257.463 247.576 257.564 248.155C258.19 248.5 258.633 249.206 258.651 249.881C260.327 250.471 260.017 253.75 260.461 255.349C260.943 257.738 262.823 259.341 264.147 261.26C264.416 261.646 264.707 262.153 264.74 262.65C265.523 262.958 265.842 263.692 265.844 264.95C265.909 266.418 265.495 266.996 264.318 267.082C261.128 267.521 257.385 267.556 254.149 267.347C251.727 267.159 249.602 267.491 250.025 264.724C250.107 264.055 249.856 263.17 250.249 262.615C250.437 261.004 250.219 259.398 249.601 257.841C249.209 256.524 248.526 253.799 248.685 252.003C248.759 251.172 250.519 250.642 250.831 250.588C250.705 249.971 250.703 248.882 251.037 248.435C250.385 248.377 250.215 248.221 250.051 247.545C249.682 246.453 249.588 245.255 248.749 244.358C247.313 244.436 245.865 244.151 244.427 244.17L244.348 244.017C243.498 244.042 242.647 243.936 241.829 243.691C241.653 243.779 241.427 243.858 241.316 243.605L240.776 242.204C234.477 225.6 227.57 208.982 220.825 192.521C220.438 191.723 219.978 190.877 219.396 190.176C219.643 200.412 217.814 210.726 218.053 220.958C218.089 228.002 218.452 234.958 218.052 242.046C217.936 243.547 217.743 243.506 217.504 243.424C217.41 243.442 217.19 243.496 217.094 243.52C217.315 244.997 217.598 247.399 218.334 248.889C219.829 249.043 219.608 250.134 219.317 251.043C219.683 251.315 219.661 251.985 219.572 252.359C220.969 252.302 221.32 253.366 221.252 254.049C221.167 255.191 221.317 256.957 220.558 257.961C220.139 259.219 219.421 260.419 219.178 261.765C219.031 262.754 219.164 264.18 219.024 265.161C219.489 265.342 219.309 265.664 219.412 266.267C219.925 269.027 218.513 268.614 216.059 268.91C214.596 269.281 203.388 270.371 203.796 268.503C203.681 267.754 204.036 267.409 204.163 266.661C204.226 266.461 205.529 264.127 206.327 263.23C209.021 260.619 208.757 257.278 208.505 253.427C208.626 252.376 209.431 251.339 210.518 251.406C210.16 250.303 210.695 249.309 211.885 248.935C211.711 247.677 211.512 245.966 211.026 244.892L211.423 244.475L210.871 244.561L210.668 244.129L210.488 244.619C209.535 244.66 208.452 244.505 207.535 244.45C207.39 244.464 207.447 244.273 207.42 244.202C206.551 244.069 206.438 243.639 206.546 242.599C205.634 225.823 205.017 209.192 204.578 192.364C203.234 192.478 201.901 192.068 200.564 191.814C200.106 192.113 199.93 191.123 199.976 190.906C200.004 189.79 200.103 188.699 200.191 187.684Z" fill="#EEEEEE"/>
<path fill-rule="evenodd" clip-rule="evenodd" d="M243.982 170.623C243.744 171.56 243.492 172.944 243.207 173.871C242.731 176.427 242.402 179.015 242.225 181.603C242.166 182.469 242.127 183.333 242.054 184.195C242.189 184.748 242.026 186.342 242.184 186.89C244.534 187.201 247.866 188.811 249.794 190.126C250.197 185.42 247.216 180.294 245.848 175.923C245.757 175.642 245.667 175.358 245.58 175.073C245.204 174.188 244.448 171.955 244.175 171.061L244.138 170.939L244.096 170.986L243.982 170.623ZM212.263 135.128C212.008 135.295 211.74 135.439 211.465 135.565C209.336 136.844 205.512 137.043 204.293 139.423C201.175 146.271 201.549 157.619 199.973 165.685C199.886 166.13 198.881 165.7 198.791 166.132C198.57 167.204 198.891 168.212 198.621 169.187C199.847 169.432 203.005 169.492 204.229 169.744C203.971 170.739 201.074 178.824 200.271 190.209C200.732 190.091 201.179 189.929 201.616 189.746L201.783 189.668C204.236 188.534 208.092 186.767 210.783 186.239C212.079 176.273 213.201 165.694 212.969 155.581L212.957 155.115C212.888 152.123 213.15 149.145 213.511 146.174L213.528 145.966C213.705 143.901 213.838 141.751 213.242 139.745C213.079 139.799 213.505 138.688 213.661 137.285C213.758 136.416 213.346 135.433 213.846 134.551C214.539 133.327 215.616 134.809 215.524 134.48C215.478 134.315 216.413 132.242 216.039 132.471C215.631 132.722 214.071 132.782 213.495 133.374C212.238 134.668 212.039 135.62 212.245 135.169L212.263 135.128ZM234.503 133.231C233.954 133.154 232.351 132.716 231.784 132.769C232.145 133.428 231.206 130.466 228.658 131.255C228.546 131.29 225.907 131.786 225.939 132.279C225.96 132.61 228.898 132.877 229.164 133.278C229.476 133.748 229.041 135.223 229.267 135.715C229.947 137.191 229.673 137.619 229.481 137.466C229.343 137.688 229.335 137.995 229.318 138.282L229.297 138.593C228.963 143.501 228.044 148.359 227.842 153.276C227.483 158.783 228.992 164.141 229.634 169.569C230.179 174.461 229.946 179.737 230.338 184.634C230.375 184.905 230.48 185.27 230.671 185.502L230.69 185.524L230.692 185.525L230.764 185.535C232.089 185.731 234.083 186.431 235.435 186.367C236.598 183.991 237.714 177.994 237.134 173.989C236.703 171.011 236.124 167.162 236.093 166.425C236.036 165.092 244.276 166.816 246.661 166.431C247.446 166.304 247.448 165.451 247.476 164.061C247.484 163.665 246.55 163.526 246.52 163.087C246.301 159.913 246.129 155.665 246.078 155.416C245.633 152.943 244.658 150.565 244.433 148.057C244.287 145.522 245.297 142.996 244.739 140.471C243.926 136.795 240.327 134.371 236.67 133.583C235.955 133.409 235.231 133.334 234.503 133.231Z" fill="#B4B4B4"/>
<path fill-rule="evenodd" clip-rule="evenodd" d="M229.699 136.905L229.692 136.982L229.685 137.06C229.49 139.282 228.222 152.326 228.104 154.553C227.869 158.992 229.166 163.916 229.39 168.355C229.448 169.504 229.505 177.796 229.783 178.296C229.866 178.446 230.989 180.133 228.972 179.728C224.415 178.814 214.017 175.137 211.781 175.18C212.114 175.115 212.293 174.852 212.323 174.526C212.352 174.214 212.85 167.117 212.868 159.749C212.888 151.638 213.627 137.464 213.662 137.285C214.516 137.667 215.888 143.038 219.184 142.898C222.481 142.759 226.638 138.835 228.937 134.991C229.41 134.199 229.516 136.996 229.699 136.905Z" fill="#B4B4B4"/>
<path fill-rule="evenodd" clip-rule="evenodd" d="M225.445 129.802C225.251 129.96 225.29 130.374 225.28 130.607L225.279 130.623C225.246 131.327 225.361 132.029 225.571 132.702L225.603 132.805C225.703 133.127 225.805 133.514 226.085 133.726C226.402 133.967 226.883 133.782 226.876 133.372C226.874 133.182 226.799 133.002 226.707 132.827C227.31 133.019 227.914 133.208 228.519 133.393C229.027 136.363 224.779 140.206 222.283 141.594C218.653 143.698 215.403 140.848 214.779 137.363C214.68 136.9 214.606 136.424 214.575 135.952L214.573 135.907C214.554 135.517 214.6 134.992 214.318 134.679C214.516 134.666 214.692 134.685 214.887 134.705L214.878 134.721C214.776 134.911 214.641 135.38 214.99 135.4C215.736 135.294 216.032 134.035 216.189 133.43L216.195 133.404C216.294 132.951 216.376 131.321 216.012 131.142C215.92 131.547 215.981 131.98 215.865 132.387C215.568 132.516 214.993 132.571 214.861 132.598C213.304 132.681 212.466 133.778 211.888 135.044C210.098 136.561 207.428 136.427 205.48 137.696C199.544 142.154 202.234 158.415 199.483 165.498C198.863 165.285 198.262 165.79 198.205 166.378C198.14 166.83 198.186 167.31 198.198 167.766L198.198 167.822C198.188 168.755 198.062 169.809 199.39 169.773C199.41 170.292 199.328 170.8 199.217 171.307C198.611 174.374 198.422 177.515 198.482 180.63L198.488 180.859C198.533 182.496 198.727 187.557 199.745 188.114L199.714 188.472C199.637 189.369 199.566 190.267 199.544 191.166C199.468 191.635 199.84 192.735 200.489 192.412C201.714 192.645 202.928 193.014 204.188 192.963C204.291 202.601 204.851 212.231 205.214 221.863C205.613 228.957 205.511 236.131 206.165 243.188L206.156 243.288C206.09 244.086 206.089 244.778 207.069 245.009C207.091 245.202 207.254 245.299 207.442 245.314C207.976 245.36 208.509 245.401 209.043 245.44C209.54 245.454 210.075 245.549 210.566 245.472C210.52 245.52 210.65 245.521 210.663 245.487C211.158 246.538 211.338 247.698 211.498 248.835C210.422 249.275 209.864 250.188 210.089 251.292C208.989 251.381 208.234 252.575 208.121 253.56C208.05 254.238 208.158 254.905 208.218 255.58C208.469 257.883 208.216 260.386 206.72 262.295C205.748 263.494 204.462 264.597 204.08 266.121C203.961 266.18 203.866 266.288 203.829 266.452L203.591 267.515L203.473 268.047C203.386 268.434 203.311 268.83 203.383 269.225L203.391 269.263C203.773 271.764 214.597 270.092 216.712 269.822C217.559 269.659 218.499 269.688 219.249 269.227C220.166 268.598 220.233 267.398 220.03 266.426L220.013 266.335C219.929 265.9 219.813 265.445 219.364 265.219C219.473 264.306 219.377 263.38 219.514 262.469C219.725 261.179 220.48 260.036 220.838 258.791C221.408 258.137 221.387 257.155 221.478 256.345C221.539 255.56 221.583 254.771 221.582 253.985C221.625 252.943 221.113 252.107 219.955 252.02C220 251.821 219.846 251.657 219.696 251.537C219.99 250.367 220.018 248.776 218.511 248.445C217.89 247.143 217.665 245.713 217.455 244.305C217.472 244.301 217.49 244.297 217.508 244.293C218.202 244.534 218.339 243.373 218.377 242.761L218.385 242.615C218.789 235.547 218.424 228.47 218.389 221.399L218.393 220.887C218.427 216.225 218.366 211.527 219.021 206.901C219.659 201.749 219.662 196.541 219.735 191.359C220.1 191.851 220.31 192.425 220.611 192.953C224.651 202.856 228.783 212.726 232.782 222.644C235.68 229.826 238.464 237.05 241.255 244.27C241.398 244.64 241.8 244.701 242.087 244.568C242.84 244.781 243.626 244.887 244.412 244.877C244.463 244.978 244.564 245.049 244.705 245.029C245.123 244.967 245.611 245.071 246.033 245.1C246.997 245.149 247.935 245.249 248.905 245.221C249.536 245.915 249.615 246.888 249.928 247.732C250.106 248.162 250.122 249.142 250.678 249.241C250.493 249.537 250.482 249.884 250.529 250.239C250.359 250.283 250.188 250.36 250.031 250.438C249.877 250.52 249.669 250.522 249.568 250.678C246.516 251.336 248.997 256.771 249.609 258.577C250.197 260.05 250.427 261.604 250.254 263.175C249.908 263.669 250.061 264.376 250.029 264.946C250.021 265.453 249.989 265.97 250.015 266.476C250.164 268.579 252.893 268.12 254.453 268.328C255.424 268.394 256.398 268.427 257.372 268.443C259.84 268.484 262.317 268.39 264.765 268.06C266.35 267.945 266.65 266.95 266.59 265.609L266.59 265.553C266.587 264.642 266.386 263.549 265.453 263.114C265.387 262.635 265.109 262.161 264.828 261.751C263.523 259.855 261.615 258.227 261.155 255.905C260.736 254.389 260.994 251.004 259.318 250.276C259.251 249.589 258.775 248.905 258.206 248.556C258.075 247.987 257.65 247.476 257.379 246.96C256.829 245.974 256.316 244.971 255.769 243.985C256.028 243.868 256.301 243.661 256.326 243.383C256.58 243.375 256.824 243.209 256.781 242.918C256.655 242.072 256.424 241.245 256.203 240.418L256.176 240.315C252.24 225.36 244.835 211.534 240.222 196.803C240.761 196.872 241.238 196.27 241.518 195.88C242.423 194.618 242.926 193.118 243.111 191.609L243.558 191.537C245.051 191.299 246.551 191.082 248.065 191.059L248.43 191.055C248.836 191.05 249.241 191.03 249.621 190.875C249.89 190.887 250.164 190.739 250.218 190.451C251.114 185.114 248.148 180.212 245.973 175.516C245.459 174.361 245.078 173.183 244.711 171.979C244.699 171.94 244.634 171.951 244.637 171.992C244.756 173.342 245.168 174.691 245.583 175.98C246.951 180.351 249.594 184.582 249.191 189.289C247.263 187.973 245.002 187.099 242.653 186.788C242.494 186.239 242.322 185.696 242.187 185.143C242.261 184.281 242.299 183.417 242.358 182.552C242.536 179.963 242.864 177.375 243.34 174.82C244.137 172.235 244.817 169.62 244.986 166.924L245.038 166.931C245.67 167.025 246.372 167.258 246.938 166.854C247.297 166.596 247.44 166.187 247.573 165.795C247.96 164.84 247.986 163.606 246.763 163.266C247.087 160.27 246.663 157.175 245.995 154.249C245.45 151.683 244.387 149.176 244.632 146.515C244.921 143.955 245.548 141.261 244.373 138.817C242.44 134.737 237.906 132.955 233.502 132.506L233.43 132.49C232.882 132.361 232.382 132.221 231.823 132.36C230.393 130.077 228.275 131.12 226.189 131.731C226.03 131.34 225.895 130.94 225.766 130.539C225.688 130.335 225.69 129.858 225.445 129.802ZM219.014 266.371L219.023 266.473C219.126 267.566 219.103 268.507 217.669 268.56C216.687 268.702 215.704 268.841 214.72 268.967L214.351 269.014C211.429 269.386 208.467 269.633 205.524 269.385L205.402 269.374C205.156 269.352 204.703 269.378 204.502 269.214C204.256 268.927 204.502 268.348 204.544 268C209.109 267.756 213.674 267.403 218.246 267.264C218.727 267.246 218.927 266.848 218.868 266.495C218.921 266.458 218.97 266.416 219.014 266.371ZM265.353 263.856C265.61 264.595 265.584 265.304 265.489 266.058C265.459 266.846 265.067 266.913 264.355 266.961C261.583 267.322 258.779 267.39 255.987 267.304C254.489 267.215 252.956 267.286 251.479 267.035C250.768 266.772 251.132 265.832 251.084 265.268C254.457 267.136 259.419 266.67 262.955 265.357L263.011 265.331C263.845 264.958 264.92 264.699 265.353 263.856ZM259.335 250.581C259.73 250.969 259.787 252.119 259.819 252.51L259.823 252.554C259.9 253.374 259.929 254.199 260.001 255.019C260.12 258.484 262.304 260.122 263.99 262.84C264.447 263.497 263.828 263.619 263.329 263.86C260.106 265.448 256.229 265.834 252.75 264.871C251.004 264.469 251.334 263.353 251.424 262.001C251.451 259.245 249.819 256.833 249.255 254.193L249.24 254.124C249.072 253.349 248.755 251.358 250.086 251.73C250.379 251.885 250.638 251.664 250.661 251.407C250.696 251.411 250.731 251.413 250.764 251.412C250.954 252.294 251.149 253.175 251.338 254.058C251.214 254.14 251.098 254.231 250.997 254.335C250.873 254.461 250.974 254.71 251.167 254.687C251.266 254.674 251.364 254.656 251.461 254.634C251.571 255.404 252.848 254.915 252.447 254.312C254.284 253.623 256.338 253.585 258.249 253.972L258.257 253.975C258.405 254.024 259.467 254.179 259.135 254.349C258.994 254.371 259.323 254.532 259.368 254.259C259.372 253.919 258.546 253.787 258.29 253.656C258.886 252.772 259.271 251.643 259.335 250.581ZM211.508 249.888C213.224 248.914 215.394 249.156 217.304 249.235L217.384 249.24C217.871 249.269 218.547 249.271 218.789 249.734C219.143 250.478 218.682 252.194 218.55 253.043L218.502 253.267C218.386 253.812 218.277 254.352 218.253 254.911C218.252 254.929 218.271 254.941 218.287 254.94C218.925 254.237 219.186 253.317 219.461 252.438C219.597 252.504 219.73 252.576 219.856 252.656C220.399 254.192 220.629 255.841 220.318 257.444L220.307 257.5C219.923 259.481 218.536 261.146 218.485 263.201C218.427 264.034 218.484 264.882 218.267 265.697C218.125 265.733 218.004 265.838 217.954 265.966L217.133 266.002C213.169 266.176 209.206 266.379 205.25 266.701C205.333 265.64 206.277 264.662 206.939 263.909C208.977 261.757 209.77 258.756 209.299 255.916C209.054 254.495 208.118 252.287 210.153 251.672C210.353 252.83 210.605 253.982 210.767 255.145C210.386 255.339 210.43 255.806 210.904 255.777C211.146 256.447 211.848 256.142 211.744 255.505C214.317 254.48 215.802 254.11 218.405 255.379C218.476 255.367 218.198 255.107 218.162 255.061C217.323 254.273 216.072 253.94 214.913 253.975C213.764 254.023 212.701 254.479 211.632 254.842C211.422 253.746 211.265 252.642 211.089 251.541L211.051 251.305C210.959 250.727 210.963 250.246 211.508 249.888ZM254.081 262.349C253.696 262.285 253.339 262.177 252.954 262.276C251.629 263.307 257.225 263.345 257.697 263.255C258.906 263.17 260.111 262.974 261.262 262.6L261.342 262.574C261.456 262.539 262.604 262.183 262.378 262.056C260.808 262.255 259.277 262.594 257.669 262.591C256.868 262.609 256.062 262.589 255.265 262.509C254.868 262.468 254.473 262.416 254.081 262.349ZM217.109 262.709C217.344 262.343 216.145 262.867 215.986 262.877C214.986 263.156 213.966 263.379 212.931 263.497C212.238 263.577 211.535 263.617 210.837 263.614C210.32 263.619 209.807 263.568 209.292 263.54L209.273 263.54C208.968 263.543 208.365 263.748 208.756 264.076C209.359 264.481 210.219 264.313 210.923 264.346C213.053 264.25 215.294 263.829 217.109 262.709ZM257.037 258.429C256.419 258.35 253.038 258.459 253.416 259.427C253.506 259.61 253.696 259.664 253.891 259.627C255.962 259.056 258.207 258.708 260.32 259.284C260.355 259.294 260.376 259.241 260.342 259.228C259.296 258.785 258.185 258.491 257.037 258.429ZM213.133 259.328C212.579 259.311 212.025 259.349 211.474 259.412L211.249 259.438C211.017 259.466 210.78 259.499 210.56 259.572L210.517 259.587C210.217 259.693 209.555 260.215 210.084 260.431C210.648 260.578 211.11 260.355 211.642 260.201C213.124 259.802 214.703 259.849 216.201 260.13L215.995 260.202C215.981 260.194 215.966 260.215 215.978 260.224C216.134 260.342 216.338 260.289 216.437 260.131C216.455 260.103 216.441 260.062 216.411 260.048C215.385 259.591 214.264 259.361 213.133 259.328ZM259.757 257.226C258.036 256.588 256.074 256.593 254.269 256.876L254.141 256.896C253.578 256.983 252.841 257.043 252.539 257.556C252.434 257.734 252.558 257.927 252.741 257.982C253.281 258.144 253.891 257.748 254.397 257.589C255.892 257.133 257.505 257.023 259.054 257.229C259.045 257.284 259.299 257.249 259.355 257.266C259.424 257.259 259.892 257.384 259.757 257.226ZM217.072 257.926C215.568 257.309 213.855 257.219 212.278 257.637L212.212 257.658C211.515 257.876 210.388 258.145 210.165 258.864C210.117 259.026 210.245 259.236 210.424 259.261C211.03 259.344 211.559 258.905 212.095 258.682C213.673 258.043 215.48 257.83 217.154 258.18C217.168 258.241 217.182 258.302 217.196 258.363C217.167 258.346 217.139 258.387 217.163 258.408C217.435 258.572 217.691 258.118 217.072 257.926ZM255.859 255.085C254.662 255.06 253.464 255.255 252.325 255.602L252.111 255.668C251.799 255.765 251.397 255.914 251.365 256.238C251.352 256.367 251.39 256.454 251.503 256.529C251.916 256.796 252.764 256.164 253.259 256.072C255.048 255.48 256.992 255.405 258.843 255.722L258.906 255.733L258.874 256.033C258.837 256.178 259.226 255.824 259.066 255.678C258.078 255.251 256.941 255.123 255.859 255.085ZM215.873 256.245C214.908 256.122 213.919 256.133 212.954 256.256L212.84 256.271C212.264 256.344 210.393 256.494 210.875 257.402C210.956 257.554 211.173 257.564 211.309 257.491C211.768 257.247 212.277 257.144 212.79 257.048C214.605 256.73 216.473 256.749 218.275 257.139C218.238 257.199 218.321 257.264 218.397 257.274C218.587 257.299 218.578 257.087 218.492 256.977C218.391 256.847 218.198 256.807 218.048 256.754C217.35 256.5 216.614 256.339 215.873 256.245ZM251.935 249.552L252.043 249.523C253.853 249.038 257.875 248.135 258.396 250.504C258.59 251.549 258.142 252.595 258.222 253.634C256.296 252.984 254.2 253.08 252.251 253.646C252.031 252.574 251.818 251.499 251.594 250.427L251.56 250.299C251.465 249.938 251.426 249.655 251.935 249.552ZM256.024 249.814C255.612 249.507 254.948 249.54 254.572 249.91C254.218 249.996 253.981 250.366 253.989 250.675C253.484 251.603 254.192 252.825 255.239 253.007C257.601 253.376 258.518 250.283 256.024 249.814ZM215.383 250.09C213.41 249.841 212.797 252.228 214.446 253.115C216.764 254.099 218.134 250.639 215.383 250.09ZM254.772 243.178C254.75 243.359 254.849 243.483 254.966 243.6C255.434 245.144 256.1 246.571 256.76 248.042C254.807 247.82 252.986 248.163 251.291 248.735C251.251 248.279 251.012 247.815 250.841 247.391C250.509 246.586 250.116 245.805 249.67 245.054L249.614 244.96C249.453 244.692 249.298 244.412 249.111 244.158C250.999 243.832 252.888 243.53 254.772 243.178ZM216.525 244.466L216.585 244.681C216.843 245.614 217.09 246.556 217.453 247.458L217.458 247.476C217.518 247.705 217.675 248.77 217.713 248.012C217.772 248.124 217.834 248.234 217.9 248.342L217.428 248.308C215.667 248.188 213.831 248.11 212.129 248.6C212.252 247.282 211.936 246.042 211.501 244.819C213.18 244.711 214.846 244.652 216.525 244.466ZM248.42 244.745C248.484 244.797 248.546 244.851 248.606 244.906C248.528 244.891 248.45 244.876 248.377 244.863C248.378 244.82 248.409 244.786 248.42 244.745ZM210.497 245.149L210.557 245.268C210.528 245.254 210.496 245.24 210.461 245.228C210.476 245.203 210.488 245.178 210.497 245.149ZM255.803 242.961C255.826 243.03 255.844 243.106 255.882 243.168C255.854 243.174 255.826 243.18 255.797 243.187C255.759 243.122 255.719 243.058 255.677 242.996C255.719 242.984 255.761 242.973 255.803 242.961ZM237.91 166.323C238.086 166.394 238.266 166.407 238.504 166.406C240.434 166.4 242.364 166.53 244.272 166.811C244.229 168.267 243.823 169.692 243.438 171.094L243.359 171.401C242.072 176.422 240.984 181.657 241.467 186.83C241.452 186.836 241.438 186.844 241.425 186.851C241.452 186.913 241.472 186.978 241.498 187.04L241.515 187.077L241.614 187.284C241.669 187.4 241.722 187.516 241.769 187.635C241.844 187.657 241.935 187.671 242.022 187.68C242.575 190.406 242.29 193.501 240.411 195.731C241.056 194.361 241.237 192.829 241.143 191.341L241.128 191.114C241.108 190.833 241.078 190.554 240.976 190.29C240.972 190.276 240.952 190.28 240.948 190.292C240.583 191.53 240.612 192.858 240.254 194.105L240.227 194.201C239.943 195.179 239.455 196.443 238.536 196.981C238.365 197.037 238.096 196.99 238.014 197.183L238.009 197.197L238.003 197.196C238.367 195.875 238.581 194.516 238.615 193.152L238.618 193.059C238.627 192.583 238.67 192.072 238.526 191.614C238.306 192.048 238.395 192.737 238.306 193.254L238.303 193.284C238.239 193.842 237.577 198.112 237 197.57C236.879 197.418 236.896 197.115 236.885 196.93L236.883 196.912C236.863 196.644 236.855 196.375 236.854 196.106C236.846 194.522 237.037 192.888 236.463 191.369C236.367 191.113 235.904 191.084 235.862 191.395C235.69 192.638 235.529 193.882 235.367 195.126C235.243 195.887 235.286 196.738 234.84 197.409C234.774 195.989 234.797 194.569 234.809 193.147L234.825 193.087C234.875 192.905 234.921 192.671 234.784 192.524C234.718 192.202 234.221 192.261 234.193 192.601C234.186 192.672 234.183 192.745 234.178 192.816C234.021 193.02 233.876 193.227 233.688 193.404C232.276 190.934 236.36 186.391 236.829 183.514C238.329 177.887 237.085 172.106 236.34 166.471C236.86 166.391 237.385 166.353 237.91 166.323ZM211.712 135.411C210.873 137.186 210.282 139.052 209.898 140.964C209.78 141.554 210.621 141.877 210.933 141.351L210.942 141.335C211.325 140.668 211.913 140.071 212.677 139.814C213.294 141.889 213.13 144.115 212.946 146.244C212.585 149.214 212.324 152.193 212.393 155.184L212.397 155.345C212.66 165.559 211.509 175.788 210.199 185.856C207.447 186.395 204.961 187.693 202.452 188.847C202.015 189.03 201.567 189.193 201.107 189.311C201.91 177.926 206.339 167.093 207.368 155.74C207.642 152.787 207.535 149.805 206.86 146.909C206.849 146.853 206.766 146.876 206.764 146.925C206.755 148.127 206.589 149.32 206.511 150.518C206.395 149.84 206.164 149.159 205.974 148.513C205.747 147.883 205.63 146.86 205.029 146.469L204.987 146.35C204.97 146.298 204.89 146.324 204.905 146.375C204.912 146.399 204.919 146.423 204.926 146.448C204.555 146.558 204.923 146.965 205.024 147.162C205.691 148.667 205.94 150.316 206.417 151.876C206.032 156.824 205.168 161.731 204.053 166.572C202.829 166.32 201.602 166.08 200.376 165.836C202.729 157.352 200.75 148.079 204.467 139.915C205.873 137.169 209.631 137.375 211.712 135.411ZM232.217 133.009C232.784 132.956 233.389 133.223 233.939 133.301C234.667 133.403 235.39 133.478 236.106 133.653C239.763 134.441 243.362 136.864 244.174 140.541C244.733 143.066 243.722 145.591 243.869 148.126C244.093 150.634 245.068 153.013 245.514 155.486C246.031 158.013 246.285 160.669 246.042 163.241C242.76 162.504 239.369 162.593 236.06 163.185C236.174 159.299 235.644 155.421 235.279 151.558C235.028 149.077 234.674 146.59 234.656 144.095C234.656 144.039 234.561 144.03 234.554 144.086C233.772 149.216 234.576 154.357 234.894 159.484C235.013 160.778 234.9 162.094 235.023 163.38C233.523 163.754 233.649 165.426 234.158 166.511C234.251 166.773 234.528 166.715 234.751 166.673C235.006 166.906 235.575 166.564 235.907 166.55C236.437 172.909 238.303 179.645 235.321 185.736C233.969 185.8 232.649 185.412 231.324 185.217L231.252 185.206L231.25 185.206C231.046 184.975 230.936 184.595 230.898 184.315C230.506 179.418 230.873 174.477 230.329 169.585C229.686 164.157 228.177 158.8 228.537 153.292C228.738 148.375 229.657 143.517 229.992 138.609L230.008 138.355C230.029 138.052 230.028 137.719 230.175 137.483C231.122 138.234 231.928 139.141 232.521 140.175C232.847 140.673 233.651 140.411 233.639 139.834C233.712 138.8 233.686 137.766 233.524 136.741L233.509 136.651C233.308 135.368 232.845 134.155 232.217 133.009ZM199.763 169.799C200.942 169.808 202.125 169.882 203.303 169.818L203.202 170.246C201.991 175.377 200.686 180.504 200.011 185.731L199.958 185.246C199.905 184.76 199.853 184.275 199.812 183.788C199.36 179.135 199.551 174.462 199.763 169.799ZM229.012 136.136C229.016 136.347 229.014 136.558 229.005 136.768C228.494 137.565 228.586 138.592 228.502 139.488C228.024 144.328 227.222 149.162 227.09 154.037C226.94 157.938 227.618 161.791 228.307 165.618C229.142 169.999 229.263 174.456 229.301 178.901C226.719 176.865 223.163 176.64 219.991 176.108L219.841 176.085C217.404 175.718 214.964 175.139 212.854 173.887C213.905 163.795 213.127 153.651 214.212 143.565C214.225 142.774 214.201 141.98 214.099 141.195C214.129 140.338 214.112 139.479 214.078 138.623C214.847 141.124 217.167 143.472 220.068 143.269C223.151 142.966 225.672 140.452 227.6 138.306C228.12 137.668 228.633 136.928 229.012 136.136ZM203.205 169.658L203.344 169.646L203.337 169.675C203.308 169.671 203.278 169.667 203.249 169.663L203.205 169.658ZM199.226 166.396C199.248 166.388 199.286 166.387 199.328 166.387C199.393 166.516 199.52 166.62 199.662 166.65L200.854 166.902C201.848 167.113 202.842 167.322 203.837 167.524C203.697 168.136 203.555 168.749 203.411 169.36C202.051 169.006 200.568 169.162 199.188 168.955C199.175 168.256 199.185 167.552 199.168 166.852C199.166 166.737 199.134 166.555 199.191 166.45C199.227 166.383 199.189 166.408 199.226 166.396ZM244.431 166.835L244.468 166.841C244.458 166.873 244.448 166.906 244.439 166.938C244.437 166.904 244.435 166.87 244.431 166.835ZM235.547 163.844C238.062 163.386 240.626 163.07 243.188 163.201C244.348 163.3 245.526 163.409 246.666 163.564C247.084 164.123 246.708 165.541 246.237 166.004C246.092 166.063 245.835 165.971 245.693 165.947C244.628 165.765 243.554 165.627 242.476 165.53C242.446 165.569 242.4 165.596 242.342 165.593L242.095 165.582C240.612 165.516 239.117 165.485 237.639 165.628L237.628 165.637C236.632 165.749 235.642 165.941 234.652 166.092C234.217 165.13 234.238 164.005 235.547 163.844ZM215.788 132.716C215.703 133.035 215.599 133.347 215.465 133.651C215.311 133.617 215.102 133.658 214.994 133.754L214.946 133.748C214.814 133.73 214.654 133.7 214.613 133.698C212.796 133.536 213.031 135.834 213.074 136.992C213.087 137.573 213.099 138.154 213.106 138.736C212.581 138.59 211.902 138.921 211.461 139.207C211.768 138.069 212.137 136.947 212.555 135.843L212.634 135.628C212.962 134.737 213.33 133.833 214.08 133.191C214.664 133.019 215.235 132.968 215.788 132.716ZM228.868 131.582C230.524 130.94 231.245 132.209 231.766 133.483C232.376 134.893 232.593 136.464 232.566 138.01L232.507 137.941C231.855 137.182 230.909 135.924 229.791 136.18C229.777 135.584 229.727 134.931 229.58 134.317C229.633 133.915 229.634 133.511 229.569 133.11C229.521 132.605 228.947 132.707 228.563 132.651C228.225 132.456 227.822 132.389 227.428 132.553C227.124 132.528 226.82 132.504 226.516 132.48C226.466 132.385 226.424 132.289 226.381 132.191C227.21 131.991 228.04 131.786 228.868 131.582Z" fill="#1B1B1B"/>
<path fill-rule="evenodd" clip-rule="evenodd" d="M209.55 120.537C209.76 115.777 210.832 111.524 216.698 111.096C219.35 111.006 222.079 111.425 224.558 112.309C230.602 114.872 232.918 125.078 227.873 129.439C227.905 129.455 227.915 129.503 227.879 129.528C226.83 130.261 225.655 130.877 224.475 131.403C221.331 132.82 217.59 133.536 214.27 132.285C209.207 130.489 208.896 124.908 209.55 120.537Z" fill="#EEEEEE"/>
<path fill-rule="evenodd" clip-rule="evenodd" d="M199.66 118.741C199.448 118.576 199.285 118.353 199.197 118.1C199.117 117.868 199.101 117.613 199.166 117.376C199.236 117.123 199.4 116.916 199.35 116.657C199.345 116.631 199.338 116.605 199.329 116.579C199.158 116.094 198.776 115.756 198.884 115.206C198.915 115.051 198.979 114.91 199.072 114.797C199.056 114.679 199.041 114.561 199.028 114.442C198.792 113.972 198.776 113.403 198.986 112.921C199.004 112.679 199.036 112.438 199.086 112.2C199.05 111.993 199.078 111.763 199.141 111.578C199.252 111.252 199.392 110.931 199.545 110.613C199.522 110.529 199.527 110.439 199.573 110.357C199.656 110.209 199.77 110.076 199.886 109.947C199.965 109.798 200.046 109.65 200.125 109.504C200.162 109.437 200.203 109.363 200.248 109.284C200.107 109.058 200.027 108.835 200.155 108.557C200.203 108.452 200.343 108.371 200.462 108.373C200.592 108.374 200.723 108.374 200.854 108.374C201.088 108.082 201.356 107.818 201.648 107.66C201.94 107.405 202.236 107.154 202.523 106.898C202.605 106.825 202.687 106.753 202.768 106.68C202.769 106.678 202.769 106.676 202.77 106.674C202.823 106.457 202.884 106.242 202.945 106.026C202.983 105.892 202.99 105.753 203.123 105.675C203.4 105.513 203.835 105.471 204.159 105.432C204.19 105.403 204.222 105.375 204.253 105.346C204.089 104.98 204.099 104.582 204.269 104.201C204.327 104.071 204.545 104.005 204.669 104.084C204.956 104.266 205.29 104.32 205.616 104.278C206.082 103.907 207.954 102.241 208.247 102.061C208.25 102.055 208.253 102.049 208.257 102.043C208.414 101.781 208.61 101.568 208.833 101.394C208.865 101.36 208.896 101.326 208.928 101.292C208.891 101.099 208.807 100.914 208.678 100.763C208.664 100.745 208.648 100.728 208.632 100.712C208.408 100.479 208.656 100.158 208.961 100.271C208.983 100.28 209.004 100.288 209.026 100.297C209.26 100.384 209.519 100.479 209.788 100.557C209.883 100.518 209.981 100.483 210.07 100.445L211.019 100.036C211.175 99.9687 211.341 99.9103 211.492 99.8327C211.531 99.4927 211.879 99.2561 212.25 99.2519C212.226 99.188 212.192 99.1264 212.144 99.0686C212.13 99.0516 212.115 99.0352 212.099 99.0194C211.9 98.8172 212.138 98.4165 212.419 98.592C212.438 98.6042 212.459 98.6164 212.478 98.6286C212.556 98.6758 212.636 98.7198 212.716 98.7622C212.84 98.705 212.98 98.6872 213.131 98.7358C213.464 98.8435 213.771 98.9543 214.067 99.1326C214.079 99.1399 214.092 99.1459 214.104 99.1527C214.24 98.9827 214.463 98.8635 214.668 98.856C214.672 98.8558 214.675 98.8556 214.679 98.8554C214.823 98.6279 215.098 98.4876 215.37 98.5074C215.338 98.191 215.661 97.8939 215.965 97.8465C216.319 97.7913 216.649 97.9737 216.77 98.2986C216.804 98.389 216.837 98.4795 216.871 98.57C217.142 98.426 217.43 98.3122 217.733 98.2486C218.422 98.1039 219.107 98.1979 219.784 98.3522C219.851 98.3677 219.919 98.3836 219.987 98.3995C220.078 98.2906 220.163 98.1795 220.244 98.0758C220.384 97.8967 220.745 98.0199 220.73 98.2431C220.72 98.3971 220.791 98.5046 220.9 98.5785C221.017 98.5897 221.129 98.5898 221.299 98.5794C221.522 98.5656 221.624 98.5546 221.854 98.4582C221.962 98.4133 222.093 98.3018 222.153 98.2041C222.381 97.8295 222.996 97.7052 223.305 98.04C223.61 97.8981 224.01 98.059 224.192 98.302C224.288 98.429 224.479 98.4942 224.719 98.5471C224.898 98.5867 225.082 98.6147 225.265 98.6382C225.342 98.5302 225.511 98.4528 225.64 98.5352C225.728 98.5911 225.813 98.6488 225.897 98.708C226.529 98.7634 227.155 98.7399 227.744 98.4822C228.243 98.264 228.732 98.7814 228.667 99.2358C228.817 99.3021 228.979 99.3436 229.127 99.4133C229.451 99.5658 229.722 99.8168 229.894 100.118C229.925 100.172 229.953 100.227 229.979 100.282C230.102 100.368 230.223 100.457 230.341 100.551C230.527 100.451 230.713 100.35 230.899 100.25C231.039 100.175 231.281 100.213 231.316 100.391C231.375 100.683 231.497 100.923 231.666 101.121C232.196 101.357 232.707 101.626 233.199 101.928C233.756 102.068 234.344 102.139 234.829 102.226C234.995 102.255 235.093 102.455 235.006 102.594C234.914 102.742 234.822 102.89 234.731 103.037C235.015 103.278 235.283 103.531 235.536 103.794C236.243 104.525 236.842 105.334 237.384 106.194C237.587 106.262 237.79 106.33 237.993 106.398C238.189 106.463 238.285 106.672 238.135 106.834C238.064 106.912 238.001 106.993 237.948 107.077C238.25 107.509 238.6 107.899 239.077 108.145C239.222 108.219 239.334 108.341 239.397 108.482C239.447 108.511 239.496 108.542 239.545 108.573C239.68 108.662 239.768 108.863 239.619 108.992C239.515 109.082 239.417 109.189 239.336 109.305C239.32 109.37 239.304 109.435 239.287 109.5C239.736 109.859 240.115 110.283 240.406 110.763C240.47 110.751 240.536 110.754 240.591 110.79C241.088 111.107 241.125 111.646 240.951 112.136C241.1 112.857 241.056 113.604 240.859 114.317C241.169 114.585 241.365 114.984 241.454 115.372C241.612 116.053 241.666 117.109 241.729 117.809C242.066 118.091 242.313 118.465 242.459 118.872C242.569 118.919 242.68 118.965 242.79 119.012C242.888 119.053 242.964 119.17 242.963 119.271C242.955 119.76 242.759 120.154 242.492 120.515C242.404 120.789 242.267 121.043 242.083 121.289C241.956 121.458 241.832 121.62 241.724 121.801C241.712 121.819 241.706 121.836 241.701 121.848C241.749 121.892 241.789 121.968 241.825 122.021C242.121 122.471 242.148 123.012 241.772 123.43C241.925 123.538 241.94 123.769 241.815 123.916C241.005 124.871 240.345 126.018 239.188 126.556C239.183 126.565 239.179 126.573 239.175 126.582C239.437 127.116 239.481 127.397 239.31 127.968C239.309 127.973 239.307 127.978 239.305 127.983C239.214 128.282 239.043 128.762 238.701 128.869C238.594 128.902 238.487 128.92 238.381 128.924C238.118 129.185 237.855 129.447 237.592 129.709C237.574 129.835 237.564 129.96 237.565 130.087C237.566 130.299 237.363 130.479 237.134 130.426C237.054 130.407 236.597 130.021 236.516 130.026C236.477 130.067 236.439 130.107 236.401 130.148C236.262 130.298 236.07 130.535 236.06 130.687C236.04 130.973 235.856 131.308 235.54 131.379C235.425 131.499 235.235 131.542 235.082 131.398C235.072 131.389 235.062 131.38 235.052 131.372C235.036 131.371 235.021 131.369 235.005 131.368C234.943 131.571 234.881 131.773 234.818 131.975C234.696 132.373 234.174 132.648 233.786 132.435C233.727 132.472 233.668 132.512 233.61 132.551C233.522 132.61 233.432 132.67 233.34 132.727C233.335 132.742 233.33 132.757 233.326 132.771C233.272 132.95 233.023 133.055 232.862 132.96C232.815 132.977 232.765 132.991 232.716 133.003C232.454 133.063 232.188 133.061 231.929 132.989C231.744 132.937 231.566 132.832 231.369 132.825C231.356 132.825 231.344 132.826 231.331 132.826C231.185 133.144 230.83 133.427 230.546 133.53C230.173 133.665 229.785 133.639 229.435 133.508C229.35 133.687 229.24 133.859 229.108 134.018C229.034 134.107 228.894 134.094 228.812 134.031C228.655 133.91 228.5 133.789 228.344 133.668C228.234 133.633 228.123 133.59 228.006 133.551C227.643 133.427 227.249 133.387 226.91 133.201C226.749 133.113 226.597 132.998 226.469 132.863C226.235 132.747 226.018 132.6 225.821 132.429C225.726 132.434 225.627 132.417 225.529 132.375C225.121 132.2 224.894 131.816 224.858 131.416C224.503 130.707 224.279 129.944 224.193 129.158C224.165 128.899 224.151 128.638 224.161 128.378C224.168 128.195 224.211 128.071 224.277 127.903C224.299 127.849 224.319 127.798 224.334 127.743C224.323 127.569 224.313 127.394 224.303 127.22C224.247 127.076 224.153 126.943 224.025 126.833C223.827 126.663 223.724 126.297 223.888 126.07C223.995 125.923 224.101 125.776 224.208 125.629C224.151 125.02 223.955 124.055 224.293 123.939C224.275 123.849 224.242 123.76 224.222 123.671C224.123 123.241 224.155 122.852 224.382 122.463C224.429 122.382 224.469 122.311 224.502 122.241C224.518 122.116 224.535 121.99 224.552 121.864C224.578 121.671 224.603 121.476 224.624 121.279C224.628 121.031 224.631 120.782 224.636 120.532C224.64 120.303 224.646 120.073 224.652 119.843C224.641 119.741 224.627 119.638 224.609 119.536C224.501 118.928 224.228 118.713 223.753 118.308C223.681 118.3 223.609 118.291 223.539 118.281C223.21 118.23 222.865 118.146 222.531 118.196C222.168 118.25 221.848 118.412 221.486 118.237C221.38 118.185 221.144 118.038 221.119 117.915C221.117 117.907 221.115 117.9 221.113 117.895C221.088 117.893 221.056 117.891 221.037 117.892C220.755 117.894 220.491 118.011 220.206 117.994C219.869 117.974 219.563 117.846 219.357 117.645C219.106 117.714 218.849 117.752 218.585 117.73C218.364 117.712 218.163 117.653 217.964 117.56C217.819 117.494 217.863 117.471 217.711 117.536C217.366 117.686 217.056 117.877 216.657 117.802C216.45 117.763 216.268 117.666 216.113 117.531C216.077 117.499 216.015 117.453 215.973 117.408C215.789 117.506 215.325 117.729 215.248 117.751C215.03 117.811 214.796 117.813 214.579 117.754C214.42 117.711 214.221 117.583 214.082 117.561C213.902 117.533 213.514 117.785 213.304 117.875C212.936 118.033 212.541 118.085 212.155 117.955C212.023 117.91 211.761 117.719 211.663 117.725C211.513 117.917 211.113 118.95 210.996 119.325C210.522 120.844 210.58 125.522 210.879 126.703C210.89 126.738 210.902 126.772 210.913 126.807C211.262 127.83 211.625 128.871 212.176 129.815C212.696 130.705 213.396 131.496 214.373 131.953C215.385 132.427 216.553 132.513 217.664 132.396C218.38 132.321 219.079 132.155 219.765 131.954C220.124 131.85 220.479 131.735 220.833 131.617C220.987 131.566 221.144 131.517 221.295 131.458C221.561 131.355 221.703 131.341 221.967 131.449C222.207 131.546 222.281 131.862 222.166 132.067C221.981 132.402 221.615 132.44 221.266 132.55C220.91 132.663 220.553 132.771 220.193 132.87C219.502 133.058 218.799 133.21 218.088 133.296C216.813 133.452 215.489 133.351 214.303 132.872C214.168 132.817 214.039 132.758 213.913 132.695C213.961 132.753 214.01 132.811 214.059 132.868C214.195 133.028 214.111 133.312 213.934 133.41C213.878 133.441 213.822 133.471 213.765 133.5C213.758 133.518 213.75 133.535 213.741 133.553C213.589 133.876 213.25 134.076 212.9 134.172C212.484 134.285 212.011 134.237 211.583 134.243C211.187 134.249 210.79 134.254 210.395 134.26C210.301 134.261 210.208 134.262 210.114 134.264C209.644 134.27 209.174 134.277 208.703 134.283C208.284 134.289 208.305 134.319 207.906 134.177C207.727 134.113 207.58 134.018 207.453 133.889C207.376 133.86 207.302 133.827 207.23 133.789C207 133.665 206.792 133.496 206.6 133.308C206.291 133.414 205.849 133.346 205.772 132.977C205.649 132.385 204.821 132.165 204.421 131.751C204.098 131.416 203.859 130.971 203.852 130.533C203.06 130.21 202.598 129.29 202.466 128.499C202.404 128.132 202.394 127.736 202.312 127.364C202.282 127.335 202.254 127.304 202.23 127.271C202.023 126.981 201.84 126.68 201.677 126.372C201.468 126.241 201.219 126.166 200.963 126.163C200.332 126.155 200.18 125.356 200.771 125.137C200.774 125.135 200.777 125.135 200.78 125.133C200.6 124.755 200.595 124.298 200.777 123.925C200.767 123.885 200.757 123.847 200.748 123.807C200.397 123.479 200.183 123.01 200.185 122.545C200.027 122.449 199.851 122.377 199.661 122.336C199.366 122.272 199.35 121.936 199.559 121.776C199.643 121.711 199.712 121.638 199.769 121.557C199.602 121.139 199.64 120.647 199.929 120.286C199.726 120.059 199.523 119.833 199.32 119.606C199.185 119.456 199.107 119.196 199.296 119.04C199.417 118.94 199.538 118.841 199.66 118.741Z" fill="#1B1B1B"/>
<path fill-rule="evenodd" clip-rule="evenodd" d="M214.131 126.44C213.91 126.105 213.299 126.187 213.222 126.591C213.066 127.41 214.121 128.116 214.899 128.102C215.672 128.088 216.512 127.43 216.367 126.649C216.331 126.456 216.058 126.492 215.97 126.617L215.935 126.666C215.695 126.999 215.374 127.347 214.899 127.288C214.703 127.264 214.52 127.156 214.396 127.013C214.246 126.84 214.253 126.625 214.131 126.44ZM218.789 120.297C218.683 120.274 218.578 120.289 218.487 120.33C218.282 120.375 218.116 120.545 218.063 120.734C218.059 120.75 218.054 120.767 218.049 120.783L218.04 120.807L218.063 120.746C218.054 120.805 218.006 120.869 217.99 120.929C217.971 121.002 217.969 121.085 217.98 121.165C217.914 121.168 217.848 121.173 217.783 121.181L217.719 121.189C217.366 121.236 216.978 121.309 216.78 121.608C216.669 121.776 216.792 122.065 217.011 122.087C217.347 122.121 217.628 121.934 217.959 121.885C218.273 121.839 218.603 121.844 218.916 121.884C219.563 121.968 220.163 122.189 220.795 122.317L220.881 122.334L220.881 122.333C220.989 122.353 221.105 122.207 220.995 122.129C220.478 121.761 219.823 121.473 219.183 121.308C219.269 121.165 219.29 120.982 219.22 120.836C219.209 120.805 219.196 120.776 219.182 120.747L219.153 120.686C219.149 120.658 219.142 120.629 219.132 120.601L219.13 120.593L219.13 120.593C219.076 120.451 218.948 120.331 218.789 120.297ZM212.398 120.59C212.255 120.466 212.064 120.493 211.925 120.602L211.907 120.616C211.774 120.679 211.668 120.807 211.6 120.925C211.529 121.047 211.483 121.171 211.487 121.302C211.155 121.317 210.841 121.424 210.609 121.688C210.533 121.773 210.485 121.901 210.533 122.01L210.562 122.075C210.652 122.281 211.025 122.386 211.139 122.134L211.145 122.122C211.265 121.824 211.776 121.833 212.048 121.852C212.238 121.865 212.426 121.901 212.611 121.943C212.676 121.958 212.74 121.974 212.805 121.991L212.869 122.008C212.903 122.017 213.084 122.1 212.973 122.083C212.943 122.079 212.923 122.12 212.953 122.133C213.087 122.186 213.222 122.062 213.207 121.93C213.182 121.699 212.789 121.589 212.599 121.517L212.588 121.513C212.515 121.485 212.439 121.458 212.36 121.433C212.401 121.37 212.434 121.301 212.461 121.227C212.486 121.157 212.502 121.089 212.509 121.015C212.518 120.979 212.517 120.943 212.505 120.907L212.503 120.897C212.507 120.873 212.509 120.849 212.507 120.824L212.508 120.815L212.507 120.815C212.5 120.728 212.46 120.643 212.398 120.59ZM214.692 122.957C214.172 123.133 213.321 123.589 213.623 124.224C214.031 124.802 215.028 124.322 215.513 124.109C215.949 123.952 216.204 124.528 215.784 124.723C212.306 126.195 212.171 122.706 214.551 122.656C214.813 122.651 214.831 122.9 214.692 122.957ZM219.174 118.21L219.084 118.189C218.612 118.081 218.126 117.88 217.726 118.242C217.569 118.384 217.548 118.667 217.671 118.83C217.953 119.204 218.343 119.128 218.773 119.143C219.1 119.154 219.425 119.231 219.734 119.331C219.987 119.413 220.223 119.534 220.447 119.67C220.667 119.804 220.823 120.021 221.048 120.14C221.13 120.184 221.221 120.131 221.247 120.054C221.338 119.778 221.15 119.448 220.994 119.223C220.804 118.948 220.522 118.729 220.223 118.567C219.896 118.39 219.537 118.294 219.174 118.21ZM212.363 118.206C211.574 118.239 210.833 118.686 210.417 119.313C210.276 119.526 210.399 119.827 210.619 119.937C210.866 120.061 211.12 119.953 211.271 119.755L211.28 119.743C211.52 119.414 211.835 119.149 212.215 118.97C212.4 118.882 212.606 118.808 212.809 118.767L212.874 118.754C212.966 118.735 213.072 118.716 213.157 118.727C213.202 118.73 213.243 118.743 213.282 118.762C213.265 118.801 213.314 118.844 213.357 118.82C213.549 118.709 213.517 118.529 213.349 118.395C213.112 118.205 212.658 118.194 212.363 118.206Z" fill="#1B1B1B"/>
</g>
</g>
<defs>
<filter id="filter0_dddddd_116_6716" x="0" y="0.147609" width="416" height="409.852" filterUnits="userSpaceOnUse" color-interpolation-filters="sRGB">
<feFlood flood-opacity="0" result="BackgroundImageFix"/>
<feColorMatrix in="SourceAlpha" type="matrix" values="0 0 0 0 0 0 0 0 0 0 0 0 0 0 0 0 0 0 127 0" result="hardAlpha"/>
<feOffset dy="0.559259"/>
<feGaussianBlur stdDeviation="1.1069"/>
<feColorMatrix type="matrix" values="0 0 0 0 0 0 0 0 0 0 0 0 0 0 0 0 0 0 0.0468848 0"/>
<feBlend mode="normal" in2="BackgroundImageFix" result="effect1_dropShadow_116_6716"/>
<feColorMatrix in="SourceAlpha" type="matrix" values="0 0 0 0 0 0 0 0 0 0 0 0 0 0 0 0 0 0 127 0" result="hardAlpha"/>
<feOffset dy="2.62385"/>
<feGaussianBlur stdDeviation="2.66004"/>
<feColorMatrix type="matrix" values="0 0 0 0 0 0 0 0 0 0 0 0 0 0 0 0 0 0 0.0647322 0"/>
<feBlend mode="normal" in2="effect1_dropShadow_116_6716" result="effect2_dropShadow_116_6716"/>
<feColorMatrix in="SourceAlpha" type="matrix" values="0 0 0 0 0 0 0 0 0 0 0 0 0 0 0 0 0 0 127 0" result="hardAlpha"/>
<feOffset dy="7.16485"/>
<feGaussianBlur stdDeviation="5.00862"/>
<feColorMatrix type="matrix" values="0 0 0 0 0 0 0 0 0 0 0 0 0 0 0 0 0 0 0.0786233 0"/>
<feBlend mode="normal" in2="effect2_dropShadow_116_6716" result="effect3_dropShadow_116_6716"/>
<feColorMatrix in="SourceAlpha" type="matrix" values="0 0 0 0 0 0 0 0 0 0 0 0 0 0 0 0 0 0 127 0" result="hardAlpha"/>
<feOffset dy="16.347"/>
<feGaussianBlur stdDeviation="8.93452"/>
<feColorMatrix type="matrix" values="0 0 0 0 0 0 0 0 0 0 0 0 0 0 0 0 0 0 0.0940847 0"/>
<feBlend mode="normal" in2="effect3_dropShadow_116_6716" result="effect4_dropShadow_116_6716"/>
<feColorMatrix in="SourceAlpha" type="matrix" values="0 0 0 0 0 0 0 0 0 0 0 0 0 0 0 0 0 0 127 0" result="hardAlpha"/>
<feOffset dy="36.5967"/>
<feGaussianBlur stdDeviation="16.711"/>
<feColorMatrix type="matrix" values="0 0 0 0 0 0 0 0 0 0 0 0 0 0 0 0 0 0 0.1174 0"/>
<feBlend mode="normal" in2="effect4_dropShadow_116_6716" result="effect5_dropShadow_116_6716"/>
<feColorMatrix in="SourceAlpha" type="matrix" values="0 0 0 0 0 0 0 0 0 0 0 0 0 0 0 0 0 0 127 0" result="hardAlpha"/>
<feOffset dy="100"/>
<feGaussianBlur stdDeviation="40"/>
<feColorMatrix type="matrix" values="0 0 0 0 0 0 0 0 0 0 0 0 0 0 0 0 0 0 0.18 0"/>
<feBlend mode="normal" in2="effect5_dropShadow_116_6716" result="effect6_dropShadow_116_6716"/>
<feBlend mode="normal" in="SourceGraphic" in2="effect6_dropShadow_116_6716" result="shape"/>
</filter>
<filter id="filter1_d_116_6716" x="80" y="40" width="299" height="211" filterUnits="userSpaceOnUse" color-interpolation-filters="sRGB">
<feFlood flood-opacity="0" result="BackgroundImageFix"/>
<feColorMatrix in="SourceAlpha" type="matrix" values="0 0 0 0 0 0 0 0 0 0 0 0 0 0 0 0 0 0 127 0" result="hardAlpha"/>
<feOffset dx="22"/>
<feGaussianBlur stdDeviation="10.5"/>
<feComposite in2="hardAlpha" operator="out"/>
<feColorMatrix type="matrix" values="0 0 0 0 0 0 0 0 0 0 0 0 0 0 0 0 0 0 0.25 0"/>
<feBlend mode="normal" in2="BackgroundImageFix" result="effect1_dropShadow_116_6716"/>
<feBlend mode="normal" in="SourceGraphic" in2="effect1_dropShadow_116_6716" result="shape"/>
</filter>
<filter id="filter2_d_116_6716" x="86" y="88" width="293" height="163" filterUnits="userSpaceOnUse" color-interpolation-filters="sRGB">
<feFlood flood-opacity="0" result="BackgroundImageFix"/>
<feColorMatrix in="SourceAlpha" type="matrix" values="0 0 0 0 0 0 0 0 0 0 0 0 0 0 0 0 0 0 127 0" result="hardAlpha"/>
<feOffset dx="22"/>
<feGaussianBlur stdDeviation="10.5"/>
<feComposite in2="hardAlpha" operator="out"/>
<feColorMatrix type="matrix" values="0 0 0 0 0 0 0 0 0 0 0 0 0 0 0 0 0 0 0.25 0"/>
<feBlend mode="normal" in2="BackgroundImageFix" result="effect1_dropShadow_116_6716"/>
<feBlend mode="normal" in="SourceGraphic" in2="effect1_dropShadow_116_6716" result="shape"/>
</filter>
<filter id="filter3_d_116_6716" x="80" y="103" width="299" height="143" filterUnits="userSpaceOnUse" color-interpolation-filters="sRGB">
<feFlood flood-opacity="0" result="BackgroundImageFix"/>
<feColorMatrix in="SourceAlpha" type="matrix" values="0 0 0 0 0 0 0 0 0 0 0 0 0 0 0 0 0 0 127 0" result="hardAlpha"/>
<feOffset dx="22"/>
<feGaussianBlur stdDeviation="10.5"/>
<feComposite in2="hardAlpha" operator="out"/>
<feColorMatrix type="matrix" values="0 0 0 0 0 0 0 0 0 0 0 0 0 0 0 0 0 0 0.25 0"/>
<feBlend mode="normal" in2="BackgroundImageFix" result="effect1_dropShadow_116_6716"/>
<feBlend mode="normal" in="SourceGraphic" in2="effect1_dropShadow_116_6716" result="shape"/>
</filter>
<filter id="filter4_d_116_6716" x="69" y="137" width="310" height="114" filterUnits="userSpaceOnUse" color-interpolation-filters="sRGB">
<feFlood flood-opacity="0" result="BackgroundImageFix"/>
<feColorMatrix in="SourceAlpha" type="matrix" values="0 0 0 0 0 0 0 0 0 0 0 0 0 0 0 0 0 0 127 0" result="hardAlpha"/>
<feOffset dx="22"/>
<feGaussianBlur stdDeviation="10.5"/>
<feComposite in2="hardAlpha" operator="out"/>
<feColorMatrix type="matrix" values="0 0 0 0 0 0 0 0 0 0 0 0 0 0 0 0 0 0 0.25 0"/>
<feBlend mode="normal" in2="BackgroundImageFix" result="effect1_dropShadow_116_6716"/>
<feBlend mode="normal" in="SourceGraphic" in2="effect1_dropShadow_116_6716" result="shape"/>
</filter>
<linearGradient id="paint0_linear_116_6716" x1="80" y1="77" x2="320.133" y2="66.8906" gradientUnits="userSpaceOnUse">
<stop stop-color="#6C6095"/>
<stop offset="1" stop-color="#192A51"/>
</linearGradient>
<clipPath id="clip0_116_6716">
<path d="M80 67C80 31.6538 108.654 3 144 3H272C307.346 3 336 31.6538 336 67V230H80V67Z" fill="white"/>
</clipPath>
</defs>
</svg>
