<svg width="416" height="410" viewBox="0 0 416 410" fill="none" xmlns="http://www.w3.org/2000/svg">
<g filter="url(#filter0_dddddd_116_6633)">
<g clip-path="url(#clip0_116_6633)">
<path d="M80 67C80 31.6538 108.654 3 144 3H272C307.346 3 336 31.6538 336 67V230H80V67Z" fill="url(#paint0_linear_116_6633)"/>
<g filter="url(#filter1_d_116_6633)">
<path d="M94.517 138.865L80.0035 107.905V189.447C79.9243 212.454 81.1129 223.304 90.8449 230H324.809C332.658 225.489 334.975 220.761 336 209.069V70.4046C328.409 64.9738 324.955 70.605 320.263 96.5677C311.91 93.7586 305.406 97.4456 292.46 107.905C285.303 109.995 279.901 99.7718 270.077 79.9977C259.419 59.8747 253.714 49.9424 253.116 79.9977L253.03 80.6985C250.687 99.917 249.347 110.904 238.078 117.062C232.369 115.626 228.662 108.818 222.119 96.8031L221.991 96.5677C214.674 88.3909 210.509 90.0402 202.931 107.905L181.598 156.307C174.089 166.304 170.066 172.715 156.418 156.307C151.155 151.549 147.112 146.901 135.959 131.452C125.123 109.795 118.905 96.1708 113.577 131.452C111.712 136.773 110.951 140.293 109.905 147.15C104.695 151.245 101.92 154.888 94.517 138.865Z" fill="#00686B"/>
</g>
<path fill-rule="evenodd" clip-rule="evenodd" d="M-16.2082 142.559C-13.4142 143.131 -11.2157 142.157 -9.63406 139.461C-8.97725 139.218 -6.94018 134.028 -3.87698 129.874C-1.12506 126.142 2.70298 123.396 2.91596 123.28C4.3026 122.7 5.31079 122.372 5.94058 122.296C10.4714 121.749 13.4531 121.947 14.8595 121.639C15.1683 123.511 148.455 125.324 152.854 124.484C153.173 125.701 153.51 126.992 154.288 128.142C154.316 128.234 154.608 128.075 154.663 128.079C160.996 130.872 182.224 125.935 188.068 122.998C188.178 125.23 188.572 128.165 190.638 129.505C190.887 130.155 191.305 130.559 191.97 130.863C192.605 131.216 193.271 131.541 193.952 131.833C197.359 133.25 201.126 134.089 204.835 133.514C204.87 133.608 204.883 134.095 205.033 134.116C205.948 134.145 206.75 133.974 207.608 133.705C217.281 130.944 226.793 127.666 235.864 123.407C240.723 121.266 242.422 117.012 244.17 112.605C245.028 110.485 246.024 108.36 246.568 106.155C246.735 106.123 247.247 106.244 247.2 105.957C247.112 105.604 246.49 105.687 246.137 105.563C250.563 100.396 252.967 103.563 255.385 100.452C257.112 97.2504 257.104 93.3899 256.642 89.9093C256.574 88.6232 255.919 87.6066 254.498 87.3329C251.548 86.2882 249.339 83.7412 248.619 80.9269C249.068 80.6837 250.357 80.0137 249.939 79.6625C249.7 75.5812 247.933 69.4228 246.627 65.6255C245.476 61.8102 243.441 57.9688 238.866 57.0606C230.714 55.4096 197.431 59.0104 191.109 63.8999L191.11 64.0546C190.186 64.9172 189.52 66.0774 189.084 67.3853C186.082 67.4195 183.132 66.6146 180.187 66.2451C174.842 65.3863 169.496 64.7522 164.12 63.7834C163.524 63.7911 155.319 61.905 156.998 63.8995C156.782 64.323 156.548 64.8412 156.347 65.2966C150.938 63.254 142.263 62.45 135.639 62.7423C131.694 62.8636 128.234 62.787 124.176 62.0614C89.8105 56.7848 13.1166 53.1097 12.0902 53.007C11.1093 52.9133 5.81383 53.7841 4.399 53.1689C3.14336 52.623 3.8263 50.1673 3.33665 49.7106C1.1553 48.5437 -0.206589 49.1276 -2.37986 48.1786C-2.88884 47.6791 -4.0027 46.5619 -4.77671 46.2039C-5.58883 45.4635 -14.8387 33.1115 -16.1915 33.6485C-16.1915 33.6485 -16.8469 33.6051 -16.9894 33.5889C-23.8047 32.6627 -23.7107 34.442 -24.5887 40.2235C-26.0322 48.6725 -22.7815 54.8959 -18.4656 61.9198C-16.6756 64.2465 -13.2825 67.5355 -9.37055 66.3593C-9.1307 66.3241 -5.00544 65.5884 -2.90922 65.2869C-1.77742 65.7279 -1.30043 65.0508 -1.47823 63.2554C-0.937294 63.6878 5.97074 64.5173 6.87488 64.1656C9.21733 63.9051 11.3545 64.188 13.7677 64.0334C13.7 65.1653 116.81 82.8407 123.454 95.1497C122.773 95.241 121.5 95.1185 121.391 95.9503C88.686 100.49 15.4337 111.29 15.314 111.718C11.5566 111.159 2.87765 111.361 -0.839347 111.428C-0.940716 111.332 -1.38679 110.893 -1.49473 110.824C-1.46734 110.808 -1.79172 110.523 -1.80024 110.508L-1.70243 110.467C-4.95732 109.224 -8.32131 107.383 -11.4485 109.139C-11.3753 107.883 -14.0041 108.14 -15.2168 108.109C-17.5728 108.873 -23.5429 129.299 -23.7511 133.839C-24.0036 135.335 -21.448 142.222 -21.0736 143.55C-20.6839 145.273 -17.2088 143.502 -16.2082 142.559Z" fill="white"/>
<path fill-rule="evenodd" clip-rule="evenodd" d="M248.848 80.802L248.618 80.9268C239.505 83.9995 234.668 88.823 234.106 95.3973C233.544 101.972 235.912 105.307 241.211 105.404L247.201 106.008C247.181 106.229 246.723 106.125 246.567 106.154C246.022 108.36 245.026 110.485 244.169 112.605L243.907 113.265C242.243 117.432 240.478 121.373 235.863 123.407C226.791 127.666 217.28 130.944 207.607 133.704C206.749 133.974 205.947 134.145 205.031 134.116C204.882 134.095 204.868 133.608 204.833 133.514C201.125 134.089 197.357 133.25 193.95 131.833C193.269 131.541 192.604 131.215 191.969 130.863C191.304 130.559 190.885 130.155 190.637 129.505C188.571 128.165 188.177 125.23 188.067 122.998C182.223 125.935 160.994 130.872 154.662 128.078C154.606 128.075 153.006 128.172 152.978 128.08C152.2 126.93 151.721 124.84 151.402 123.623L151.014 121.438C150.427 121.53 150.049 124.642 146.662 124.672L143.423 64.1664C148.141 64.4996 151.299 64.403 154.742 65.7032L155.391 64.0188C155.57 63.6158 156.812 64.2624 156.997 63.8994C155.318 61.9049 163.522 63.791 164.119 63.7832C169.495 64.7521 174.841 65.3862 180.186 66.245C183.131 66.6145 185.456 66.989 188.458 66.9549C188.885 65.6742 188.853 65.1077 189.747 64.2509L190.181 63.9193L191.085 63.6429C197.407 58.7533 230.713 55.4095 238.865 57.0605C243.439 57.9687 245.475 61.8101 246.626 65.6254L246.705 65.856C248.001 69.6682 249.704 75.6627 249.937 79.6624C250.298 79.9645 249.394 80.5027 248.848 80.802ZM213.077 86.6828C213.012 83.564 212.54 80.2579 211.662 76.7644L210.803 76.2308L205.708 76.8898C206 79.0442 205.718 81.3258 204.861 83.7348L204.82 83.8496C203.931 86.3009 203.246 88.054 202.765 89.109L199.365 92.968L193.126 91.8848L193.117 92.178C192.984 96.9244 193.3 99.5838 194.065 100.156C194.846 100.74 195.629 100.99 196.414 100.906L196.715 100.783C201.597 98.799 204.744 97.9109 206.155 98.1182C207.596 98.3298 208.721 98.3061 209.53 98.0471L209.675 97.7805C212.007 93.4384 213.142 89.7392 213.077 86.6828Z" fill="#EEEEEE"/>
<path fill-rule="evenodd" clip-rule="evenodd" d="M255.312 88.1603C255.348 88.8166 254.448 88.961 254.065 88.52L254.049 88.5018C253.745 88.1253 253.476 87.9513 252.999 87.7536C250.051 86.8025 248.312 83.9819 248.875 81.1756C246.919 82.1874 245.021 82.8792 243.099 83.8913C233.135 88.575 230.172 103.33 244.009 104.796C244.52 102.093 251.094 100.359 253.101 102.044L252.862 102.096C250.285 102.648 247.643 103.044 245.729 104.882C245.713 104.937 245.709 104.99 245.71 105.041C246.066 105.102 246.418 105.174 246.763 105.265C247.607 105.486 247.475 106.686 246.567 106.672C245.45 110.28 243.834 113.76 242.275 117.222C240.977 120.1 238.599 122.481 235.552 123.873C227.221 127.772 218.404 130.801 209.526 133.466C208.323 133.658 203.877 135.605 203.414 134.119C199.727 134.564 195.97 133.705 192.622 132.326C191.361 131.68 189.623 131.242 189.075 129.902C187.123 128.541 186.57 125.988 186.389 123.856C179.071 126.882 160.358 131.179 152.97 128.695C151.772 128.955 151.137 125.927 150.845 125.12C146.582 125.865 142.174 125.815 137.86 125.623C101.064 123.75 64.1104 124.026 27.4188 127.585C25.1317 127.797 22.845 128.021 20.5595 128.256L19.1892 128.398C17.3644 128.585 15.5465 128.749 13.7033 128.749C13.0637 128.751 12.6695 128.273 12.6262 127.789C11.4563 126.182 11.4007 123.993 11.0873 122.113C9.10929 122.488 6.01647 122.74 4.35862 123.358C4.73037 124.564 3.51168 125.372 2.78869 124.178C1.91808 125.685 0.207684 126.488 -0.97915 127.705C0.541379 130.948 -1.6147 131.603 -2.16572 128.938C-2.81331 129.68 -3.40934 130.465 -3.97406 131.275L-3.96417 131.332C-3.78802 132.272 -2.89832 134.033 -4.01741 134.504C-4.83003 134.721 -5.1091 133.803 -5.22244 133.136C-5.61869 133.739 -6.01264 134.343 -6.406 134.947C-6.14444 135.463 -5.8206 135.974 -5.60873 136.501C-5.26313 137.803 -7.11492 137.955 -7.25548 136.249C-8.09582 137.337 -7.56767 138.804 -8.77098 139.513C-9.82128 142.038 -13.1276 143.291 -15.8021 142.763C-16.6366 143.66 -17.9022 144.304 -19.1855 144.402C-20.5584 144.6 -21.8744 143.624 -22.2654 142.273C-22.854 140.754 -23.3946 139.211 -23.9046 137.672L-23.9689 137.511C-24.4708 136.245 -24.9257 134.86 -24.8707 133.53C-24.5237 125.647 -21.2139 115.074 -16.953 108.679C-15.6962 107.081 -12.5121 106.739 -11.4464 108.88C-9.49439 107.842 -8.05066 108.288 -5.89288 108.665C-4.48516 108.929 -3.03864 109.297 -1.72677 109.991C-1.61031 110.053 -1.6417 110.207 -1.7548 110.218C-3.21913 110.343 -4.7219 110.25 -6.20042 110.181L-6.36456 110.173C-7.72836 110.112 -8.23369 109.921 -9.51562 110.286C-12.7879 111.165 -14.2661 119.007 -15.5581 122.104C-16.3218 124.529 -16.9998 126.99 -17.5889 129.483L-17.6281 129.666C-18.0869 131.77 -18.8025 133.941 -18.361 136.137C-17.4288 137.261 -17.6482 138.983 -16.5856 140.084C-14.552 141.736 -11.6516 140.342 -9.86102 139.117C-10.2852 137.977 -9.22966 136.973 -8.67835 136.116L-8.65817 136.084C-8.08026 135.209 -8.51593 134.356 -7.93951 133.479L-7.98393 133.285C-8.71177 130.123 -9.51723 127.68 -7.43288 132.704C-6.88111 131.857 -6.32464 131.009 -5.73784 130.186C-5.99191 128.527 -6.984 126.725 -7.10315 125.181C-6.02282 126.199 -5.40687 127.606 -4.79662 128.931C-4.16744 128.139 -3.49225 127.383 -2.74612 126.704L-2.93191 126.075C-4.0685 122.207 -4.40538 120.685 -1.7233 125.867C-0.496523 124.811 1.34877 124.605 2.49936 123.448C2.04449 121.636 1.13486 119.981 -0.0255704 118.522C-0.507016 117.932 -1.10225 117.492 -1.69879 117.03C-4.90779 114.845 -5.46907 111.369 -1.39058 110.217C-1.30688 110.197 -1.25204 110.317 -1.32244 110.352L-1.33234 110.356C-2.58109 110.892 -3.56773 112.558 -2.75602 113.914L-2.73089 113.955C-1.93853 115.282 -0.366469 115.873 0.717768 116.908C2.15496 118.306 3.13598 120.075 3.88299 121.907C5.65913 121.421 8.90632 121.202 11.0021 121.209C10.7763 118.104 10.8741 114.972 11.4549 111.905C7.57094 112.476 2.49645 112.261 -0.971636 112.559C-2.13 112.908 -2.89994 110.947 -1.74361 110.712C2.01129 110.517 7.43826 110.739 11.6424 111.175L11.696 110.954C11.7479 110.746 11.8111 110.527 11.9169 110.347C11.6333 108.393 17.0811 108.813 18.6032 108.452C52.2742 105.531 85.591 100.17 119.003 95.507C119.221 94.9534 119.954 94.8405 120.567 94.7369C116.776 89.8275 109.39 88.9887 103.633 86.8766C73.8656 77.7499 42.5851 74.0508 12.0006 67.9349L11.9907 67.9723C11.9826 67.999 11.9783 67.9993 11.9815 67.9438L11.9823 67.931L11.98 67.931C11.9284 68.3498 11.4567 68.6888 11.0057 68.4434C9.31347 67.718 9.86229 65.5968 9.93949 64.2065C7.36076 64.3956 1.77994 64.0066 -0.513392 64.3759C-0.511866 66.0889 -2.56728 66.2411 -3.78569 66.4936L-3.91093 66.5138C-5.99421 66.8604 -9.89105 67.9598 -11.5965 67.2357C-13.0974 68.4422 -15.1879 67.6411 -16.2553 66.4448C-17.3351 65.1624 -17.9862 63.5515 -18.8282 62.0939C-22.0359 55.2175 -28.0802 48.6269 -25.9878 40.0735L-25.9104 39.7014C-24.6605 33.7112 -24.0855 31.9856 -17.6188 33.0338C-16.32 32.52 -14.8864 32.4866 -13.7142 33.1463C-11.9791 34.3302 -11.0008 36.3603 -9.66781 37.9639C-7.58316 40.6837 -5.74889 43.5865 -3.58251 46.2403C-3.48971 46.138 -3.45178 46.2765 -3.46613 46.3587C-1.79828 48.2286 1.01589 47.9911 3.05439 49.2772C4.09748 49.5876 4.38535 51.2599 4.26504 52.3678C6.18875 51.9819 15.0143 53.483 8.80999 53.8279L8.72087 53.8297C7.7624 53.8541 4.56559 54.0652 3.93353 53.8199C2.78722 57.5128 -1.04249 58.3846 -4.13194 59.2348L-4.14574 59.2856C-4.211 59.5376 -4.26102 59.8743 -4.52682 60.0053C-3.68377 61.1673 -2.06598 61.4629 -1.17516 62.5867C-0.90841 62.2606 -0.386711 62.2327 0.0215037 62.3876C2.16186 62.8747 7.58784 63.0794 9.98292 63.8328C10.5209 60.0446 10.7541 56.1921 11.7971 52.4816C11.2731 52.0133 11.4347 51.0262 12.3631 51.0453C32.5985 51.7615 52.7886 53.3011 72.9068 55.3541C91.7324 56.9941 110.351 60.1844 129.088 62.2851L131.653 62.2523C139.363 62.1572 147.192 62.181 154.505 64.6609C154.61 64.4268 154.72 64.1948 154.834 63.9658C153.482 61.1382 161.38 63.2221 162.797 63.2973C171.03 64.5274 179.266 66.0073 187.542 66.8871C187.955 65.7734 188.553 64.7405 189.434 63.8708C193.91 58.6163 230.973 54.8442 238.477 56.5616C243.193 57.4413 245.587 61.5394 246.732 65.4692L246.924 66.0492C248.373 70.4346 249.696 74.8993 250.095 79.4885C250.26 79.6487 250.224 80.131 250.09 80.1969C249.907 80.4887 249.543 80.7698 249.157 81.0091C250.092 87.371 254.608 85.5498 255.312 88.1603ZM-11.7398 109.052C-13.9731 108.206 -15.6323 109.428 -16.5215 111.437C-19.864 118.4 -22.5047 126.15 -22.8737 134.058C-22.1867 136.454 -21.0851 138.818 -20.3832 141.245L-20.3603 141.35C-20.1699 142.206 -19.9887 142.606 -19.0155 142.512L-18.6208 142.535C-17.9193 142.575 -17.2194 142.607 -16.5204 142.548C-18.4972 141.838 -19.6224 139.613 -20.0599 137.65C-21.745 134.559 -20.1721 131.025 -19.5432 127.94C-17.9928 122.919 -15.6189 112.075 -11.7398 109.052ZM-12.6977 65.7705L-12.7343 65.6681C-13.0553 64.7801 -13.4446 63.8785 -13.1932 62.8704C-14.9448 58.4276 -16.9164 54.1088 -18.9646 49.8244C-21.5026 45.2085 -24.4972 37.7531 -18.6864 33.5843C-21.7667 34.231 -22.8417 33.4312 -23.5318 37.309C-25.5842 43.4822 -24.3635 48.3819 -21.2757 53.4035C-19.2198 57.0869 -17.5634 61.0603 -15.3383 64.6207L-15.2999 64.6685C-14.7321 65.3661 -13.7056 66.2006 -12.6977 65.7705ZM0.419607 56.1901C2.74988 54.9714 3.97679 51.798 3.0594 49.4766C0.783239 49.2863 -1.74637 49.9566 -3.7462 48.6774C-3.94542 49.8516 -4.17875 51.0229 -4.42123 52.1926L-4.64465 53.263C-4.75867 53.7884 -4.95869 54.4582 -5.56593 54.3836C-6.23722 54.3011 -6.04967 53.4924 -5.89259 52.9535L-5.83051 52.7446C-5.379 51.231 -4.91777 49.7197 -4.39682 48.2238C-5.35343 47.4612 -6.11294 46.4264 -6.84651 45.4228L-6.89006 45.8464C-7.04034 47.3304 -7.17365 48.8283 -7.47026 50.2977C-7.66354 50.941 -8.61753 50.8232 -8.55517 50.1678C-8.09465 48.4113 -7.56905 46.6581 -7.24966 44.8746C-7.89457 44.0197 -8.5426 43.169 -9.18463 42.3119C-9.419 44.0291 -9.40718 45.7485 -9.5306 47.4625C-9.61882 48.5724 -11.2714 48.6069 -11.1994 47.4976C-11.0414 45.4951 -10.438 43.4845 -9.74461 41.5665L-10.4855 40.5789C-11.3497 39.4263 -12.2118 38.271 -13.0563 37.1037C-13.5671 36.4014 -14.0582 35.4907 -14.7866 35.0078C-17.5934 33.4932 -20.1613 37.4794 -20.0615 40.1344C-20.0234 44.1692 -17.6658 47.4807 -16.2226 50.9854C-15.6531 52.9289 -10.0118 62.7521 -11.4225 63.6865C-11.1123 64.2488 -10.9881 65.0373 -10.4882 65.4363C-8.21518 65.4713 -5.84487 64.9829 -3.5619 64.5669C-3.1636 64.4835 -2.68786 64.2943 -2.27779 64.2656C-2.9792 62.6243 -5.51179 62.206 -5.34298 60.0226C-5.945 59.6941 -5.68996 58.638 -5.2276 58.1542C-4.72463 57.6277 -4.00228 57.5477 -3.36024 57.4111L-3.06524 57.3478C-1.88266 57.0915 -0.671931 56.7885 0.419607 56.1901ZM194.087 101.185L194.008 100.921C193.21 98.2247 192.615 95.3996 192.755 92.609C190.755 92.1692 186.027 92.52 185.23 90.5767C184.94 89.9131 185.143 88.9012 185.882 88.5786C185.876 84.5244 186.185 80.4351 186.363 76.3768C186.561 73.3205 186.484 70.1554 187.433 67.1973C185.484 67.5943 183.566 67.7573 181.561 67.6003C173.014 67.0949 164.652 65.0149 156.14 64.438L155.734 64.4116L155.747 64.3894C155.731 64.3898 155.716 64.3891 155.7 64.3882C155.635 64.6099 155.566 64.8317 155.497 65.0525C155.542 65.1298 155.502 65.2373 155.421 65.2953C150.28 81.5509 148.26 98.7328 151.027 115.504C151.49 118.441 152.114 121.354 152.842 124.244C153.125 124.213 153.208 124.608 152.942 124.683C153.078 125.325 153.226 125.966 153.33 126.606C153.566 126.523 153.824 126.504 154.058 126.579C158.18 127.743 162.837 127.073 167.076 126.589C173.587 125.949 179.957 124.561 186.369 123.413C186.506 118.615 187.26 113.832 187.051 109.018C185.605 108.541 184.362 106.797 185.153 105.395C185.709 104.405 186.96 104.089 187.991 103.675C190.028 102.856 192.058 102.021 194.087 101.185ZM249.904 79.6906C248.175 74.6913 246.907 69.5587 245 64.609C243.785 60.4876 240.886 57.7177 236.039 57.645C225.658 57.5214 215.254 58.7827 205.064 60.5703L204.604 60.6621C199.696 61.6382 194.699 62.5258 190.038 64.2721C188.868 66.7029 188.577 69.4408 188.492 72.075C188.359 75.9192 188.221 79.7632 188.027 83.6053L187.878 86.6177C187.834 87.4916 188.023 88.7017 187.296 89.3731C187.193 89.4334 187.208 89.5513 187.145 89.6426L187.132 89.6604C187.063 89.7577 186.892 89.8577 186.929 89.995C187.009 90.2178 187.5 90.2936 187.734 90.3414L187.755 90.3458C189.009 90.6117 190.289 90.7965 191.549 91.0399C194.031 91.6028 196.646 91.8128 199.029 92.6977C199.933 91.3401 200.972 90.0574 202.214 88.9501L202.688 87.6364C203.816 84.4939 204.907 81.317 205.554 78.0527C204.774 77.9912 204.307 76.9771 205.114 76.5782C207.177 75.9018 209.428 75.737 211.559 75.2556C217.922 74.1308 224.258 72.8201 230.678 71.9995C225.019 74.0081 218.044 75.134 211.915 76.7071C211.959 76.7731 211.937 76.8662 211.836 76.8711C214.054 81.9372 214.087 87.6129 211.954 92.7034C211.427 93.9784 210.958 95.272 210.414 96.5407C210.158 96.9754 210.192 97.83 209.617 97.9864C210.013 98.1325 210.385 98.3322 210.639 98.6025C210.834 98.6845 211.2 99.6541 210.819 99.7575C210.081 105.505 207.477 111.133 208.061 117.019C210.827 116.263 213.831 116.282 216.702 116.175L217.026 116.182C219.858 116.244 223.361 116.258 225.707 117.088C219.835 116.649 213.972 117.181 208.18 117.989C208.854 122.135 206.217 120.275 206.257 117.503C205.699 111.923 208.289 106.708 210.148 101.523C211.315 98.6876 210.27 98.391 207.358 98.5777C203.563 98.6602 200.133 100.307 196.796 101.804L195.237 102.477C192.643 103.597 190.065 104.702 187.439 105.792C189.17 110.277 188.38 115.384 188.18 120.072C187.766 123.654 187.993 126.216 190.313 129.19C192.61 130.232 194.797 131.623 197.373 132.131C199.738 132.733 202.205 132.898 204.645 133.036L205.323 132.851C214.022 130.464 222.674 127.843 230.934 124.337L231.389 124.147C234.251 122.957 237.254 121.747 239.226 119.42C242.237 115.52 243.508 110.75 246.173 106.662L245.971 106.64C242.808 106.298 239.522 105.66 236.945 103.864C232.292 100.543 232.027 94.0938 234.911 89.6582C237.561 85.051 242.617 82.214 247.933 80.7736L247.992 80.7568C248.465 80.6224 249.9 80.246 249.904 79.6906ZM198.749 93.128C197.069 93.1605 195.406 92.8918 193.743 92.7213C194.303 95.0756 194.708 97.4262 195.446 99.7378C196.333 97.4522 197.412 95.2266 198.749 93.128ZM212.179 87.1478C212.843 83.6836 212.328 80.1621 211.662 76.7645C209.79 77.1747 207.935 77.6372 206.059 78.0307C206.146 79.2506 204.15 90.882 202.325 89.6125C201.362 91.3435 200.223 92.9881 199.239 94.7117C198.249 96.4453 197.405 98.2462 196.727 100.1L196.961 99.9981C200.787 98.3343 205.1 96.7643 209.344 97.8948C208.591 96.2703 210.087 93.9996 210.631 92.3988C211.335 90.697 211.881 88.9479 212.179 87.1478ZM226.602 62.0053C227.307 62.0019 225.329 64.0366 225.125 64.301L224.973 64.4614C223.12 66.413 221.076 68.3454 218.499 69.4652C215.946 69.5968 222.061 65.9799 222.428 65.4885C223.888 64.4026 225.148 63.0906 226.602 62.0053ZM221.751 117.257C221.546 116.722 223.573 118.152 223.439 118.728C223.48 118.956 223.123 119.162 222.994 118.911L222.93 118.787C222.639 118.204 222.389 117.607 221.751 117.257Z" fill="#1B1B1B"/>
<path fill-rule="evenodd" clip-rule="evenodd" d="M300.199 95.875C300.297 100.538 297.942 106.185 297.902 106.662L297.902 106.675C297.907 106.925 297.113 107.92 295.518 109.66L291.537 107.896L291.384 108.049C290.649 108.78 289.977 109.405 289.448 109.898C285.129 113.927 267.858 114.999 261.81 114.198C255.762 113.398 249.827 111.804 249.659 103.805C249.49 95.8057 254.565 86.7959 256.175 85.3906C257.248 84.4537 257.75 83.4161 257.68 82.2779C257.744 82.2297 257.807 82.1819 257.871 82.1345L257.893 81.9663C258.11 80.3845 258.422 79.2477 258.83 78.5561C259.628 77.2052 263.936 75.6481 264.892 75.628C265.839 75.608 272.677 73.2745 273.404 73.2154L273.425 73.2143C274.034 73.2014 276.773 70.2833 277.662 70.2646C278.551 70.2459 278.485 69.6707 281.63 70.181L282.554 70.3291C285.903 70.8721 291.452 71.9561 293.948 76.4824C296.692 81.4562 300.1 91.1648 300.199 95.875Z" fill="white"/>
<path fill-rule="evenodd" clip-rule="evenodd" d="M300.166 95.8753C300.264 100.538 297.909 106.186 297.869 106.662L297.869 106.675C297.874 106.925 297.079 107.921 295.485 109.66L294.592 109.264C294.201 100.087 293.252 93.7851 291.743 90.358C289.995 86.3849 283.619 84.0019 272.616 83.2091C271.861 81.824 270.876 80.4437 269.662 79.0683C268.448 77.6928 267.829 77.3512 267.804 78.0435C265.265 78.0367 263.496 78.2597 262.498 78.7124C261.5 79.1652 260.939 80.6714 260.815 83.2311L258.449 83.9305L257.345 83.8639C257.58 83.359 257.681 82.8304 257.647 82.2781C257.711 82.2299 257.774 82.1821 257.838 82.1347L257.86 81.9666C258.077 80.3847 258.389 79.2479 258.797 78.5563C259.595 77.2054 263.903 75.6484 264.859 75.6282C265.805 75.6083 272.644 73.2747 273.371 73.2156L273.391 73.2145C274 73.2017 276.74 70.2836 277.629 70.2648C278.518 70.2461 278.452 69.6709 281.597 70.1812L282.521 70.3293C285.87 70.8723 291.419 71.9564 293.915 76.4826C296.659 81.4565 300.067 91.165 300.166 95.8753Z" fill="#EEEEEE"/>
<path fill-rule="evenodd" clip-rule="evenodd" d="M294.056 75.7035C297.022 78.1505 301.828 92.2958 301.024 99.5205L300.998 99.7373C300.931 100.314 300.822 100.883 300.669 101.446C300.246 103.263 299.586 105.145 298.449 106.663C297.52 107.93 296.042 111.896 293.517 110.789C292.635 111.238 291.538 111.421 290.654 111.149C290.35 111.119 290.069 111.04 289.778 110.937C288.314 111.886 286.653 112.649 285.07 113.271C281.078 114.384 276.915 115.112 272.822 115.292C265.048 115.767 255.739 115.184 250.577 109.096C247.311 105.422 247.08 99.5637 250.944 95.276C251.248 95.0309 252.058 93.8913 252.212 94.2626C252.086 94.3768 251.963 94.494 251.842 94.6132C251.856 94.6076 251.87 94.6063 251.885 94.6082L251.991 94.4962C252.196 94.2851 252.493 94.0111 252.44 94.3172C252.424 94.331 252.409 94.346 252.392 94.3608C252.351 94.4263 252.316 94.4758 252.284 94.5145L252.267 94.5344L252.274 94.5282C252.475 94.3483 252.682 94.2386 252.554 94.504L252.536 94.5391C252.404 94.6587 252.278 94.78 252.155 94.9035C252.17 94.9012 252.185 94.9029 252.201 94.9099L252.318 94.7948C252.433 94.6823 252.434 94.6991 252.531 94.7509C252.884 94.5096 252.68 94.9504 252.541 94.9839C252.618 95.2555 252.062 95.5069 251.997 95.6842C245.677 103.528 251.665 114.592 269.726 114.03L270.079 114.02C275.854 113.845 281.782 113.276 286.965 110.982C287.464 110.759 287.949 110.511 288.418 110.24C288.769 110.052 289.112 109.852 289.445 109.638C289.484 109.057 289.588 108.481 289.756 107.913C289.806 107.718 289.861 107.525 289.926 107.332C289.7 104.536 289.461 101.803 289.229 98.9988L289.151 98.1231C288.934 95.7483 288.614 93.2944 286.964 91.409C285.459 89.5568 282.57 89.6091 280.927 88.031C279.172 85.7682 277.632 85.7839 275.107 85.3942C273.212 85.4669 270.482 86.7267 269.638 84.5382C269.065 84.9225 269.333 84.3981 269.536 84.3529C269.534 84.3488 269.533 84.3447 269.533 84.3415C268.866 84.6873 269.28 84.191 269.496 84.1433C269.503 84.1171 269.523 84.0906 269.551 84.064C268.968 84.4104 269.37 83.8618 269.478 83.8915C270.55 83.2232 270.69 81.8912 270.383 80.961C270.344 80.9503 270.34 80.9088 270.36 80.8824C269.332 76.9207 260.336 78.1379 261.293 82.1997C261.336 82.3736 261.244 82.3713 261.236 82.4062C261.505 82.3062 261.4 82.5743 261.343 82.5726L261.344 82.5888C261.346 82.6016 261.347 82.5963 261.344 82.606C261.896 82.5032 261.104 83.0329 261.071 82.9931C261.081 83.0086 261.087 83.0262 261.09 83.0418L261.142 83.023C261.388 82.9327 261.285 82.9422 261.427 82.9397C261.602 82.8721 261.525 82.869 261.639 82.8816C261.835 83.1024 261.258 83.1809 261.217 83.2568C261.411 83.1241 261.573 83.2229 261.469 83.3464C259.374 84.3099 257.412 85.5388 255.879 87.1059C255.737 87.2767 255.599 87.4495 255.468 87.6282C254.86 88.2939 254.481 89.3032 253.943 89.9257C253.934 89.9259 253.922 89.922 253.911 89.916L253.897 89.9303L253.883 89.9448L253.776 90.1596C253.719 90.2233 253.655 90.2809 253.584 90.3323C253.518 90.387 253.445 90.4353 253.367 90.4766C253.272 90.4984 253.231 90.4555 253.271 90.3713C253.283 90.3345 253.299 90.2978 253.313 90.261C253.309 90.2632 253.307 90.2642 253.305 90.2664C253.285 90.2788 253.082 90.364 253.113 90.2701L253.118 90.2589C253.137 90.2073 253.159 90.1559 253.179 90.1055C253.1 90.1665 253.013 90.2224 252.94 90.2719C252.883 90.3243 252.815 90.3569 252.738 90.3711C252.695 90.3698 252.676 90.3484 252.681 90.3087C252.701 90.2479 252.723 90.188 252.746 90.128L252.711 90.1457C252.621 90.1896 252.471 90.2525 252.519 90.1454C252.548 90.0541 252.581 89.9659 252.618 89.8776C252.602 89.8706 252.596 89.8562 252.61 89.8267C252.713 89.5463 252.839 89.2748 252.99 89.0143C253.165 88.7845 253.337 88.5526 253.511 88.3218C253.647 88.1053 253.799 87.8958 253.97 87.6953C254.873 86.3586 256.031 85.1806 257.329 84.238C255.847 82.7386 257.167 79.6505 258.262 77.7345C259.241 76.0394 261.103 75.3421 263.121 75.1294C265.835 74.7185 266.724 72.6658 272.7 72.6814C272.699 72.6783 272.698 72.6751 272.698 72.6709C272.721 72.5965 272.751 72.524 272.791 72.4555C272.826 72.3849 272.868 72.3184 272.919 72.2557L273.032 72.1773C273.055 72.1373 273.08 72.1013 273.104 72.0737L273.084 72.0601C273.024 72.0169 273.113 72.0449 273.131 72.0471L273.325 71.9109C273.786 71.5879 274.304 71.2332 274.718 70.9445L274.7 70.936C274.687 70.93 274.678 70.9268 274.674 70.9299C275.707 70.2418 276.958 69.5887 278.179 69.3889C279.118 69.1636 280.091 69.2234 280.969 69.3842C284.044 70.0884 291.02 72.4602 294.056 75.7035ZM252.131 94.6704L252.17 94.6278L252.121 94.6655C252.095 94.6853 252.072 94.7055 252.049 94.7381C252.057 94.7358 252.065 94.7357 252.074 94.7364C252.091 94.7148 252.11 94.6926 252.131 94.6704ZM299.487 99.521C299.843 94.6256 298.564 89.845 297.041 85.2129L296.933 84.8934C296.049 82.2598 295.246 79.4724 293.427 77.2694C290.738 74.1947 286.532 72.6663 282.649 71.337C279.761 70.1657 276.547 70.8633 274.587 72.7614C276.577 72.9127 278.512 73.2013 280.436 73.6755C280.737 73.7766 280.833 73.6933 280.877 73.9239C275.73 74.382 271.886 72.7407 265.849 76.2762C262.998 77.8152 260.853 76.1483 259.425 80.3548L259.38 80.4688C259.039 81.346 258.776 82.3018 258.994 83.1494L259.129 83.0702C259.267 82.9894 259.334 82.9644 259.396 83.0763C259.403 83.0731 259.41 83.0688 259.418 83.0644C259.605 82.9689 259.795 82.8763 259.987 82.7877C259.973 82.7537 259.963 82.7196 259.952 82.6843C259.906 82.7083 259.86 82.7123 259.842 82.6481C259.751 82.4204 259.712 82.1855 259.723 81.9439L259.726 81.892C259.738 81.619 259.789 81.4461 259.836 81.2914C259.845 81.2403 259.853 81.1891 259.863 81.1388C259.972 80.642 260.266 80.1124 260.561 79.7675C262.879 75.8572 271.052 76.0841 271.924 80.8254C277.067 80.8148 285.787 82.867 290.764 86.4727C295.34 89.7304 297.486 98.8418 296.931 105.224C296.9 105.317 296.868 105.411 296.835 105.504C296.76 106.489 296.301 107.435 296.1 108.423C296.664 107.705 297.032 106.896 297.342 106.064C298.408 104.398 298.963 102.501 299.344 100.672C299.438 100.293 299.486 99.9098 299.487 99.521ZM267.79 80.6947C267.947 80.9473 267.8 80.9211 267.843 80.979C268.046 82.8156 266.326 84.8368 264.878 85.8962C264.784 85.8169 265.053 85.5914 265.095 85.552C265.089 85.5469 265.085 85.5407 265.082 85.5345L265.039 85.5641C264.393 85.9947 265.146 85.1521 265.303 85.0714C265.295 85.058 265.29 85.0446 265.293 85.0289C265.224 85.0959 265.045 85.2998 264.915 85.3369L264.868 85.391C264.41 85.9011 264.056 85.867 264.71 85.2851C264.68 85.2992 264.651 85.305 264.628 85.2961L264.614 85.3159C264.407 85.5997 263.816 85.8419 264.415 85.2453C263.97 85.3155 264.819 84.6582 264.813 84.6378C265.739 83.5119 266.629 81.8642 266.724 80.4743L266.729 80.4265C266.759 80.1711 266.839 80.049 267.023 80.1346C267.098 79.8194 267.268 79.8892 267.266 80.0378C267.421 79.8133 267.577 80.0091 267.52 80.1387C267.786 80.0448 267.615 80.4024 267.653 80.4339C267.967 80.611 267.709 80.6659 267.79 80.6947ZM284.272 76.489C284.645 77.3653 283.639 79.998 282.231 79.8188C281.906 79.7012 281.712 79.2953 281.888 79.0035L282.157 78.6218C282.622 77.9576 283.03 77.3588 283.433 76.6477C283.633 76.2611 284.07 76.0873 284.272 76.489ZM286.464 81.4731L286.7 81.1267C287.98 79.257 289.924 76.6111 287.954 81.2724C287.718 81.8039 287.586 82.5063 287.044 82.805C286.043 83.2774 285.95 82.0916 286.464 81.4731ZM292.386 81.5554C292.997 81.3947 292.316 83.2489 292.137 83.7883L292.105 83.8705C291.904 84.3958 291.719 84.9969 291.234 85.3187C290.562 85.698 290.406 84.9623 290.703 84.4983C291.354 83.546 291.839 82.5069 292.386 81.5554ZM295.343 86.1718C296.558 85.1106 295.432 87.9059 295.112 88.3278L295.102 88.3399C294.87 88.6546 294.355 88.6026 294.198 88.3149C294.164 87.4875 294.906 86.8625 295.343 86.1718ZM296.798 90.8538C298.057 89.1809 297.487 91.3616 296.996 92.1252C296.512 92.6488 295.665 92.1379 296.798 90.8538Z" fill="#1B1B1B"/>
<path fill-rule="evenodd" clip-rule="evenodd" d="M261.673 105.109C261.981 105.263 262.27 105.626 262.234 105.964C262.072 107.479 260.072 107.519 258.892 106.96C257.845 106.464 257.215 105.406 257.281 104.332C257.351 103.205 258.053 102.23 259.194 101.784C259.949 101.488 261.35 101.33 261.877 102.062C261.887 102.075 261.885 102.098 261.872 102.109C261.427 102.475 260.748 102.503 260.251 102.826C259.789 103.126 259.412 103.584 259.363 104.113C259.327 104.508 259.49 104.904 259.88 105.05C260.09 105.129 260.204 105.117 260.347 105.082L260.471 105.051C260.907 104.943 261.239 104.892 261.673 105.109ZM270.455 105.328C269.948 106.127 268.754 107.354 267.439 106.534C266.275 105.56 267.556 104.095 268.134 103.374C268.579 102.708 267.382 101.995 266.858 102.616C262.83 107.82 270.411 109.738 271.078 105.714C271.152 105.271 270.612 105.118 270.455 105.328ZM273.866 96.9296C274.669 97.3967 274.575 98.5034 273.641 98.7897C273.134 98.9448 272.672 98.7551 272.164 98.7761C271.734 98.7938 271.255 98.7781 270.836 98.6662C269.881 98.4111 269.194 97.6434 269.203 96.718C269.211 95.7956 269.831 94.9702 270.72 94.5652C271.612 94.1588 272.546 94.2212 273.468 94.4848C273.512 94.4975 273.535 94.5498 273.498 94.5824C273.117 94.9249 272.713 95.1783 272.284 95.4407L271.844 95.7097C271.513 95.9151 271.091 96.2124 271.125 96.5822L271.133 96.6376C271.144 96.7403 271.122 96.725 271.277 96.8012C271.348 96.8364 271.48 96.827 271.564 96.843L271.592 96.8485L271.607 96.8448C271.648 96.8362 271.724 96.8268 271.856 96.8177L271.886 96.8157C272.505 96.7758 273.297 96.5987 273.866 96.9296ZM273.597 109.204C274.609 109.096 274.861 110.396 274.12 110.846C273.734 111.08 273.244 111.157 272.78 111.216L272.559 111.245C272.082 111.306 271.585 111.337 271.136 111.156C270.427 110.872 270.042 110.228 270.086 109.525C270.128 108.853 270.54 108.232 271.177 107.896C271.746 107.597 272.863 107.287 273.47 107.624C273.507 107.644 273.512 107.686 273.485 107.716C273.172 108.052 272.59 108.118 272.177 108.323C271.752 108.535 271.339 108.851 271.284 109.317C271.231 109.764 271.5 109.928 271.96 109.805C272.555 109.646 272.955 109.273 273.597 109.204ZM279.899 97.1552L279.993 97.3668C280.31 98.0917 280.68 99.0883 280.043 99.6965C279.65 100.072 279.062 100.154 278.568 99.9025C277.97 99.5977 277.943 99.0291 277.844 98.4815C277.732 97.8587 277.53 97.2271 277.249 96.651C276.933 96.002 276.542 95.4018 276.108 94.8148C275.696 94.2569 275.029 93.7063 274.891 93.031C274.886 93.0034 274.898 92.9717 274.931 92.9638C275.652 92.7946 276.373 93.2075 276.945 93.5774C277.639 94.025 278.211 94.5729 278.728 95.1879C279.226 95.7815 279.591 96.464 279.899 97.1552ZM277.606 110.493L277.62 110.558C277.71 111 277.7 111.402 277.324 111.744C277.036 112.005 276.659 112.112 276.27 111.998C275.911 111.894 275.543 111.65 275.461 111.288C275.182 110.064 275.195 108.701 275.36 107.461C275.436 106.894 275.531 106.321 275.688 105.767L275.763 105.512C275.897 105.05 276.036 104.52 276.398 104.178C276.528 104.056 276.719 104.121 276.784 104.263C277.045 104.841 276.929 105.642 276.962 106.263C277 106.985 277.074 107.708 277.171 108.425C277.265 109.126 277.453 109.803 277.606 110.493Z" fill="#1B1B1B"/>
<path fill-rule="evenodd" clip-rule="evenodd" d="M269.958 114.684C268.502 113.447 268.047 111.34 268.778 109.638C270.662 105.268 276.866 107.257 278.59 110.561C278.712 110.975 278.993 111.527 279.065 112.033C279.091 112.079 279.022 112.18 279.092 112.3C278.72 115.991 272.499 116.961 269.958 114.684ZM269.298 100.729C267.21 99.351 266.519 96.722 267.431 94.543C269.175 90.2394 274.668 91.6371 276.871 94.51C279.53 100.621 273.149 103.302 269.298 100.729ZM273.664 91.3873C273.666 91.3833 273.667 91.3793 273.669 91.3752C273.68 91.3975 273.691 91.4199 273.703 91.4421C273.682 91.4352 273.661 91.4277 273.64 91.421C273.648 91.4098 273.657 91.3999 273.664 91.3873ZM276.439 117.483C276.431 117.135 276.358 116.634 276.088 116.351C278.689 115.586 281.054 112.913 279.241 110.67C278.573 108.887 277.146 107.584 275.271 106.866C276.13 105.482 275.706 103.342 274.508 102.183C277.289 101.349 278.229 99.4194 278.326 97.1446C278.717 94.6557 276.036 92.2397 273.91 91.513C273.976 90.8701 274.179 89.9074 273.734 89.3133C274.773 85.3749 275.247 78.5175 274.607 77.7347C274.357 77.1726 272.889 76.8921 272.827 77.686C272.949 78.3741 273.896 77.5828 274.016 78.2765C274.345 81.9789 273.606 85.5955 273.341 89.2711C272.867 89.6088 272.728 90.6705 272.933 91.2309C269.337 90.4171 266.943 92.3879 266.275 95.2793C265.252 99.7562 269.683 103.539 274.182 102.279C274.943 103.613 274.945 105.165 274.59 106.643C264.671 104.395 265.42 118.942 275.752 116.45C274.962 117.98 276.29 118.281 276.439 117.483Z" fill="#1B1B1B"/>
<g filter="url(#filter2_d_116_6633)">
<path d="M96.8553 175.52C94.0261 178.178 91.7524 180.844 86.1113 188.311C85.5927 206.275 86.6899 215.669 93.6151 230H327.595C333.369 224.363 336.428 220.079 335.951 175.52L319.75 139.516C313.747 128.557 310.272 123.515 302.185 133.831L289.735 150.412C279.733 165.134 273.419 160.151 262.108 150.412C255.903 141.969 252.432 142.268 246.248 155.623C240.639 168.96 237.407 176.011 231.581 188.311C222.549 200.902 217.096 200.084 206.853 188.311C193.04 165 186.02 149.46 174.621 117.724C168.362 105.757 163.7 106.431 153.815 117.724C145.225 133.241 140.538 142.339 133.521 162.729C127.48 178.7 122.665 181.009 112.033 175.52C106.998 166.788 103.824 165.303 96.8553 175.52Z" fill="#00989A"/>
</g>
<g filter="url(#filter3_d_116_6633)">
<path d="M325.152 179.525C327.979 181.744 330.251 183.969 335.889 190.202C336.407 205.196 335.311 213.038 328.39 225H94.5608C88.7902 220.295 79.541 217.694 80.0177 180.5L102.401 149.472C108.4 140.325 111.872 136.116 119.955 144.727L132.396 158.567C142.392 170.856 148.702 166.696 160.006 158.567C166.207 151.52 169.676 151.769 175.856 162.917C181.46 174.049 184.69 179.935 190.513 190.202C199.539 200.712 204.989 200.028 215.225 190.202C229.029 170.744 236.044 157.773 247.436 131.282C253.691 121.293 258.35 121.856 268.228 131.282C276.813 144.234 281.497 151.829 288.509 168.848C294.546 182.179 299.359 184.107 309.983 179.525C315.015 172.237 318.188 170.997 325.152 179.525Z" fill="#00CACB"/>
</g>
<g filter="url(#filter4_d_116_6633)">
<path d="M137.244 162.458C116.087 189.109 104.056 201.651 80.4813 193.947C79.9377 198.874 79.7484 201.536 80.4813 205.356C80.4813 224.5 79.392 225.983 83.072 230H336C336 222.5 334.793 218.38 336 205.356L295.48 176.605C284.72 167.751 278.531 169.026 267.361 176.605C253.513 187.881 245.518 196.139 231.033 212.658C218.891 218.38 212.086 216.937 199.945 212.658C181.376 204.254 171.045 196.272 152.963 167.934C147.773 159.532 145.159 153.455 137.244 162.458Z" fill="#22FFFF"/>
</g>
</g>
</g>
<defs>
<filter id="filter0_dddddd_116_6633" x="0" y="0.147609" width="416" height="409.852" filterUnits="userSpaceOnUse" color-interpolation-filters="sRGB">
<feFlood flood-opacity="0" result="BackgroundImageFix"/>
<feColorMatrix in="SourceAlpha" type="matrix" values="0 0 0 0 0 0 0 0 0 0 0 0 0 0 0 0 0 0 127 0" result="hardAlpha"/>
<feOffset dy="0.559259"/>
<feGaussianBlur stdDeviation="1.1069"/>
<feColorMatrix type="matrix" values="0 0 0 0 0 0 0 0 0 0 0 0 0 0 0 0 0 0 0.0468848 0"/>
<feBlend mode="normal" in2="BackgroundImageFix" result="effect1_dropShadow_116_6633"/>
<feColorMatrix in="SourceAlpha" type="matrix" values="0 0 0 0 0 0 0 0 0 0 0 0 0 0 0 0 0 0 127 0" result="hardAlpha"/>
<feOffset dy="2.62385"/>
<feGaussianBlur stdDeviation="2.66004"/>
<feColorMatrix type="matrix" values="0 0 0 0 0 0 0 0 0 0 0 0 0 0 0 0 0 0 0.0647322 0"/>
<feBlend mode="normal" in2="effect1_dropShadow_116_6633" result="effect2_dropShadow_116_6633"/>
<feColorMatrix in="SourceAlpha" type="matrix" values="0 0 0 0 0 0 0 0 0 0 0 0 0 0 0 0 0 0 127 0" result="hardAlpha"/>
<feOffset dy="7.16485"/>
<feGaussianBlur stdDeviation="5.00862"/>
<feColorMatrix type="matrix" values="0 0 0 0 0 0 0 0 0 0 0 0 0 0 0 0 0 0 0.0786233 0"/>
<feBlend mode="normal" in2="effect2_dropShadow_116_6633" result="effect3_dropShadow_116_6633"/>
<feColorMatrix in="SourceAlpha" type="matrix" values="0 0 0 0 0 0 0 0 0 0 0 0 0 0 0 0 0 0 127 0" result="hardAlpha"/>
<feOffset dy="16.347"/>
<feGaussianBlur stdDeviation="8.93452"/>
<feColorMatrix type="matrix" values="0 0 0 0 0 0 0 0 0 0 0 0 0 0 0 0 0 0 0.0940847 0"/>
<feBlend mode="normal" in2="effect3_dropShadow_116_6633" result="effect4_dropShadow_116_6633"/>
<feColorMatrix in="SourceAlpha" type="matrix" values="0 0 0 0 0 0 0 0 0 0 0 0 0 0 0 0 0 0 127 0" result="hardAlpha"/>
<feOffset dy="36.5967"/>
<feGaussianBlur stdDeviation="16.711"/>
<feColorMatrix type="matrix" values="0 0 0 0 0 0 0 0 0 0 0 0 0 0 0 0 0 0 0.1174 0"/>
<feBlend mode="normal" in2="effect4_dropShadow_116_6633" result="effect5_dropShadow_116_6633"/>
<feColorMatrix in="SourceAlpha" type="matrix" values="0 0 0 0 0 0 0 0 0 0 0 0 0 0 0 0 0 0 127 0" result="hardAlpha"/>
<feOffset dy="100"/>
<feGaussianBlur stdDeviation="40"/>
<feColorMatrix type="matrix" values="0 0 0 0 0 0 0 0 0 0 0 0 0 0 0 0 0 0 0.18 0"/>
<feBlend mode="normal" in2="effect5_dropShadow_116_6633" result="effect6_dropShadow_116_6633"/>
<feBlend mode="normal" in="SourceGraphic" in2="effect6_dropShadow_116_6633" result="shape"/>
</filter>
<filter id="filter1_d_116_6633" x="80" y="40" width="299" height="211" filterUnits="userSpaceOnUse" color-interpolation-filters="sRGB">
<feFlood flood-opacity="0" result="BackgroundImageFix"/>
<feColorMatrix in="SourceAlpha" type="matrix" values="0 0 0 0 0 0 0 0 0 0 0 0 0 0 0 0 0 0 127 0" result="hardAlpha"/>
<feOffset dx="22"/>
<feGaussianBlur stdDeviation="10.5"/>
<feComposite in2="hardAlpha" operator="out"/>
<feColorMatrix type="matrix" values="0 0 0 0 0 0 0 0 0 0 0 0 0 0 0 0 0 0 0.25 0"/>
<feBlend mode="normal" in2="BackgroundImageFix" result="effect1_dropShadow_116_6633"/>
<feBlend mode="normal" in="SourceGraphic" in2="effect1_dropShadow_116_6633" result="shape"/>
</filter>
<filter id="filter2_d_116_6633" x="86" y="88" width="293" height="163" filterUnits="userSpaceOnUse" color-interpolation-filters="sRGB">
<feFlood flood-opacity="0" result="BackgroundImageFix"/>
<feColorMatrix in="SourceAlpha" type="matrix" values="0 0 0 0 0 0 0 0 0 0 0 0 0 0 0 0 0 0 127 0" result="hardAlpha"/>
<feOffset dx="22"/>
<feGaussianBlur stdDeviation="10.5"/>
<feComposite in2="hardAlpha" operator="out"/>
<feColorMatrix type="matrix" values="0 0 0 0 0 0 0 0 0 0 0 0 0 0 0 0 0 0 0.25 0"/>
<feBlend mode="normal" in2="BackgroundImageFix" result="effect1_dropShadow_116_6633"/>
<feBlend mode="normal" in="SourceGraphic" in2="effect1_dropShadow_116_6633" result="shape"/>
</filter>
<filter id="filter3_d_116_6633" x="80" y="103" width="299" height="143" filterUnits="userSpaceOnUse" color-interpolation-filters="sRGB">
<feFlood flood-opacity="0" result="BackgroundImageFix"/>
<feColorMatrix in="SourceAlpha" type="matrix" values="0 0 0 0 0 0 0 0 0 0 0 0 0 0 0 0 0 0 127 0" result="hardAlpha"/>
<feOffset dx="22"/>
<feGaussianBlur stdDeviation="10.5"/>
<feComposite in2="hardAlpha" operator="out"/>
<feColorMatrix type="matrix" values="0 0 0 0 0 0 0 0 0 0 0 0 0 0 0 0 0 0 0.25 0"/>
<feBlend mode="normal" in2="BackgroundImageFix" result="effect1_dropShadow_116_6633"/>
<feBlend mode="normal" in="SourceGraphic" in2="effect1_dropShadow_116_6633" result="shape"/>
</filter>
<filter id="filter4_d_116_6633" x="80" y="137" width="299" height="114" filterUnits="userSpaceOnUse" color-interpolation-filters="sRGB">
<feFlood flood-opacity="0" result="BackgroundImageFix"/>
<feColorMatrix in="SourceAlpha" type="matrix" values="0 0 0 0 0 0 0 0 0 0 0 0 0 0 0 0 0 0 127 0" result="hardAlpha"/>
<feOffset dx="22"/>
<feGaussianBlur stdDeviation="10.5"/>
<feComposite in2="hardAlpha" operator="out"/>
<feColorMatrix type="matrix" values="0 0 0 0 0 0 0 0 0 0 0 0 0 0 0 0 0 0 0.25 0"/>
<feBlend mode="normal" in2="BackgroundImageFix" result="effect1_dropShadow_116_6633"/>
<feBlend mode="normal" in="SourceGraphic" in2="effect1_dropShadow_116_6633" result="shape"/>
</filter>
<linearGradient id="paint0_linear_116_6633" x1="119.221" y1="3" x2="363.04" y2="133.815" gradientUnits="userSpaceOnUse">
<stop stop-color="#1C737C"/>
<stop offset="1" stop-color="#033338"/>
</linearGradient>
<clipPath id="clip0_116_6633">
<path d="M80 67C80 31.6538 108.654 3 144 3H272C307.346 3 336 31.6538 336 67V230H80V67Z" fill="white"/>
</clipPath>
</defs>
</svg>
