<svg width="416" height="410" viewBox="0 0 416 410" fill="none" xmlns="http://www.w3.org/2000/svg">
<g filter="url(#filter0_dddddd_116_6681)">
<g clip-path="url(#clip0_116_6681)">
<path d="M80 67C80 31.6538 108.654 3 144 3H272C307.346 3 336 31.6538 336 67V230H80V67Z" fill="url(#paint0_linear_116_6681)"/>
<g filter="url(#filter1_d_116_6681)">
<path d="M322.748 105.331L337.698 136.083L336.545 54.549C336.298 31.5428 334.956 20.7113 325.131 14.1535L91.1901 17.4632C83.4058 22.0848 81.1554 26.8452 80.2962 38.55L82.2578 177.201C89.9244 182.524 93.2992 176.844 97.6236 150.818C106.015 153.508 112.466 149.73 125.263 139.088C132.39 136.897 137.936 147.043 148.038 166.676C158.98 186.646 164.825 196.497 164.998 166.436L165.073 165.734C167.145 146.485 168.329 135.479 179.51 129.163C185.239 130.518 189.042 137.273 195.754 149.194L195.886 149.428C203.317 157.5 207.458 155.792 214.783 137.822L235.429 89.1229C242.796 79.021 246.728 72.5531 260.607 88.7667C265.937 93.4498 270.045 98.0404 281.415 113.33C292.557 134.831 298.967 148.366 303.795 113.013C305.585 107.666 306.296 104.136 307.245 97.2649C312.396 93.097 315.119 89.4146 322.748 105.331Z" fill="#00686B"/>
</g>
<g filter="url(#filter2_d_116_6681)">
<path d="M319.892 68.7127C322.684 66.0149 324.919 63.3176 330.454 55.7711C330.719 37.8018 329.489 28.4237 322.361 14.1926L88.4049 17.5025C82.7109 23.2205 79.7127 27.547 80.82 72.095L97.529 107.866C103.686 118.739 107.232 123.732 115.173 113.302L127.387 96.5468C137.18 81.685 143.564 86.5782 155.011 96.1559C161.336 104.511 164.802 104.162 170.796 90.721C176.215 77.3067 179.347 70.2106 184.999 57.829C193.852 45.1112 199.316 45.8528 209.724 57.4791C223.866 80.5928 231.105 96.0314 242.952 127.603C249.38 139.48 254.032 138.74 263.755 127.309C272.126 111.672 276.683 102.508 283.411 82.021C289.225 65.9667 294.008 63.5892 304.716 68.9274C309.874 77.5871 313.069 79.0272 319.892 68.7127Z" fill="#00989A"/>
</g>
<g filter="url(#filter3_d_116_6681)">
<path d="M92.4914 51.9382C89.6329 49.7597 87.3295 47.5673 81.6044 41.4145C80.8741 26.4288 81.8595 18.5723 88.6103 6.51378L322.416 3.20598C328.253 7.82905 337.538 10.2987 337.587 47.4958L315.645 78.8371C309.776 88.0687 306.364 92.3263 298.16 83.8301L285.524 70.1673C275.356 58.0216 269.105 62.2698 257.917 70.5579C251.816 77.6926 248.344 77.4919 242.008 66.4328C236.246 55.3812 232.933 49.5419 226.966 39.358C217.791 28.9767 212.352 29.7372 202.256 39.7076C188.729 59.3592 181.897 72.4281 170.882 99.0769C164.769 109.154 160.102 108.657 150.092 99.371C141.324 86.5417 136.534 79.0145 129.281 62.0955C123.056 48.8515 118.217 46.9919 107.658 51.7237C102.73 59.0827 99.5755 60.3671 92.4914 51.9382Z" fill="#00CACB"/>
</g>
<g filter="url(#filter4_d_116_6681)">
<path d="M279.691 65.3453C300.469 38.3971 312.321 25.6862 336.002 33.0562C336.476 28.1217 336.628 25.4574 335.841 21.6481C335.57 2.50626 336.638 1.00769 332.902 -2.95654L79.9993 0.621437C80.1054 8.12069 81.3705 12.2236 80.3479 25.2628L121.27 53.4378C132.155 62.1385 138.325 60.7767 149.387 53.04C163.073 41.5693 170.951 33.1987 185.201 16.4767C197.261 10.5833 204.085 11.9306 216.286 16.037C234.972 24.1779 245.415 32.0124 263.896 60.0918C269.204 68.4195 271.904 74.4587 279.691 65.3453Z" fill="#22FFFF"/>
</g>
<path fill-rule="evenodd" clip-rule="evenodd" d="M157.842 -88.9726C157.389 -86.5412 158.266 -84.6497 160.628 -83.3193C160.849 -82.7534 165.38 -81.0661 169.029 -78.4732C172.307 -76.1438 174.746 -72.8662 174.85 -72.6833C175.374 -71.4898 175.674 -70.6206 175.749 -70.0756C176.293 -66.1553 176.166 -63.5667 176.455 -62.352C174.836 -62.0557 175.293 53.5465 176.088 57.3478C175.038 57.6432 173.924 57.9549 172.938 58.6467C172.859 58.6725 173.001 58.9231 172.999 58.9714C170.673 64.5048 175.277 82.8368 177.913 87.8597C175.979 87.9895 173.44 88.3755 172.31 90.187C171.75 90.4127 171.406 90.7818 171.153 91.3632C170.857 91.9192 170.584 92.501 170.342 93.096C169.165 96.0717 168.495 99.3514 169.05 102.558C168.969 102.59 168.546 102.609 168.53 102.739C168.52 103.533 168.68 104.226 168.927 104.966C171.468 113.312 174.455 121.509 178.286 129.311C180.217 133.491 183.931 134.9 187.779 136.348C189.631 137.059 191.488 137.891 193.409 138.329C193.438 138.474 193.342 138.92 193.59 138.874C193.895 138.792 193.813 138.254 193.915 137.947C198.463 141.706 195.754 143.839 198.487 145.888C201.29 147.336 204.638 147.27 207.649 146.817C208.763 146.739 209.634 146.155 209.85 144.919C210.711 142.345 212.886 140.391 215.315 139.724C215.533 140.11 216.134 141.217 216.432 140.849C219.967 140.58 225.28 138.953 228.553 137.764C231.844 136.708 235.144 134.884 235.861 130.904C237.169 123.81 233.54 95.0042 229.204 89.5972L229.07 89.5999C228.308 88.8118 227.292 88.2518 226.151 87.8943C226.076 85.2911 226.729 82.7215 227.004 80.1621C227.668 75.5143 228.136 70.8689 228.894 66.1928C228.878 65.6756 230.389 58.5325 228.685 60.019C228.315 59.838 227.862 59.6429 227.464 59.4759C229.152 54.7543 229.718 47.2196 229.363 41.481C229.198 38.0619 229.212 35.0605 229.779 31.5306C233.831 1.65159 235.851 -64.9065 235.924 -65.7981C235.99 -66.65 235.155 -71.2285 235.666 -72.4647C236.121 -73.5618 238.261 -73.007 238.649 -73.4386C239.628 -75.3478 239.101 -76.5198 239.89 -78.4187C240.316 -78.8677 241.268 -79.8505 241.566 -80.5271C242.196 -81.2426 252.766 -89.4513 252.279 -90.6161C252.279 -90.6161 252.307 -91.1851 252.319 -91.309C253.018 -97.2326 251.477 -97.1241 246.45 -97.7974C239.102 -98.9204 233.755 -96.0069 227.73 -92.1576C225.74 -90.5701 222.94 -87.5778 224.019 -84.2037C224.054 -83.9962 224.754 -80.4304 225.048 -78.6173C224.682 -77.6292 225.277 -77.2259 226.831 -77.4074C226.464 -76.9318 225.85 -70.9291 226.169 -70.1505C226.43 -68.1233 226.218 -66.2658 226.388 -64.1756C225.406 -64.2171 211.649 25.4599 201.077 31.408C200.987 30.8193 201.074 29.7138 200.351 29.6313C195.917 1.34188 185.437 -62.0116 185.064 -62.1088C185.491 -65.3755 185.184 -72.898 185.07 -76.12C185.151 -76.2094 185.525 -76.6029 185.584 -76.6975C185.598 -76.674 185.84 -76.9596 185.853 -76.9672L185.89 -76.883C186.918 -79.7243 188.463 -82.6693 186.893 -85.3542C187.983 -85.3098 187.72 -87.5854 187.728 -88.6374C187.03 -90.6687 169.228 -95.5344 165.288 -95.6459C163.987 -95.8421 158.054 -93.5212 156.908 -93.1763C155.42 -92.8122 157.009 -89.8258 157.842 -88.9726Z" fill="white"/>
<path fill-rule="evenodd" clip-rule="evenodd" d="M215.426 139.922L215.315 139.724C212.512 131.869 208.256 127.748 202.546 127.361C196.837 126.974 193.981 129.078 193.977 133.674L193.545 138.877C193.353 138.863 193.436 138.464 193.408 138.329C191.487 137.891 189.63 137.059 187.779 136.348L187.203 136.131C183.564 134.752 180.12 133.282 178.286 129.311C174.454 121.509 171.467 113.312 168.926 104.967C168.679 104.226 168.519 103.533 168.53 102.739C168.546 102.609 168.968 102.59 169.049 102.559C168.494 99.3515 169.165 96.0719 170.342 93.0961C170.584 92.5012 170.856 91.9193 171.152 91.3634C171.406 90.782 171.75 90.4129 172.309 90.1872C173.44 88.3757 175.979 87.9897 177.913 87.8598C175.277 82.837 170.673 64.505 172.999 58.9717C173.001 58.9234 172.892 57.5369 172.972 57.5111C173.957 56.8193 175.762 56.3721 176.812 56.0767L178.701 55.707C178.613 55.1996 175.908 54.9196 175.831 51.9826L228.246 48.2532C228.029 52.3494 228.161 55.086 227.086 58.0914L228.557 58.6282C228.909 58.7774 228.367 59.8641 228.685 60.0192C230.388 58.5328 228.878 65.6758 228.894 66.193C228.135 70.8692 227.667 75.5145 227.004 80.1623C226.728 82.7217 226.439 84.7431 226.514 87.3463C227.631 87.6964 228.122 87.6603 228.878 88.4226L229.172 88.7934L229.426 89.5736C233.762 94.9805 237.168 123.81 235.861 130.904C235.143 134.884 231.843 136.708 228.552 137.764L228.354 137.836C225.068 139.018 219.896 140.585 216.431 140.849C216.175 141.166 215.694 140.39 215.426 139.922ZM209.783 108.994C212.486 108.889 215.346 108.43 218.361 107.616L218.811 106.862L218.162 102.455C216.298 102.741 214.316 102.531 212.214 101.825L212.114 101.791C209.975 101.057 208.444 100.49 207.522 100.089L204.124 97.1997L204.968 91.773L204.714 91.7699C200.596 91.7269 198.295 92.0415 197.81 92.7136C197.316 93.3995 197.111 94.0821 197.196 94.7614L197.307 95.0206C199.102 99.2234 199.92 101.939 199.761 103.166C199.6 104.418 199.638 105.393 199.874 106.091L200.108 106.213C203.908 108.169 207.133 109.096 209.783 108.994Z" fill="#EEEEEE"/>
<path fill-rule="evenodd" clip-rule="evenodd" d="M209.146 145.638C208.577 145.679 208.438 144.901 208.815 144.562L208.83 144.549C209.152 144.279 209.299 144.043 209.463 143.626C210.243 141.056 212.662 139.505 215.104 139.95C214.197 138.27 213.568 136.634 212.662 134.983C208.449 126.415 195.609 124.07 194.549 136.091C196.901 136.493 198.504 142.166 197.073 143.933L197.025 143.726C196.507 141.5 196.123 139.215 194.5 137.584C194.452 137.57 194.407 137.567 194.362 137.569C194.315 137.879 194.258 138.185 194.184 138.486C194.005 139.221 192.962 139.124 192.961 138.337C189.815 137.424 186.774 136.075 183.748 134.776C181.232 133.695 179.132 131.668 177.878 129.048C174.37 121.884 171.61 114.284 169.163 106.627C168.979 105.586 167.223 101.761 168.504 101.337C168.063 98.1467 168.75 94.876 169.895 91.9516C170.436 90.8486 170.789 89.3346 171.942 88.8388C173.093 87.1252 175.299 86.6069 177.144 86.4177C174.409 80.1181 170.399 63.9574 172.44 57.5137C172.196 56.479 174.812 55.882 175.508 55.6166C174.796 51.9314 174.773 48.108 174.873 44.3648C175.937 12.4296 175.136 -19.6087 171.491 -51.3702C171.272 -53.3501 171.043 -55.3296 170.804 -57.3077L170.66 -58.4938C170.471 -60.0732 170.301 -61.647 170.272 -63.2453C170.262 -63.7999 170.67 -64.149 171.089 -64.1939C172.464 -65.2328 174.361 -65.3143 175.987 -65.6147C175.632 -67.3242 175.366 -70.0022 174.805 -71.4303C173.765 -71.0896 173.045 -72.134 174.07 -72.7791C172.75 -73.5111 172.028 -74.982 170.955 -75.9925C168.166 -74.6247 167.565 -76.4843 169.867 -77.0027C169.214 -77.5529 168.525 -78.0578 167.813 -78.5351L167.764 -78.5257C166.952 -78.3586 165.438 -77.5604 165.013 -78.5236C164.812 -79.2249 165.604 -79.4808 166.18 -79.5893C165.652 -79.9237 165.122 -80.2561 164.592 -80.588C164.149 -80.3533 163.711 -80.0647 163.257 -79.873C162.133 -79.5535 161.973 -81.1569 163.45 -81.3048C162.494 -82.0169 161.23 -81.5365 160.597 -82.5692C158.391 -83.4414 157.254 -86.2893 157.671 -88.6164C156.882 -89.3264 156.304 -90.414 156.199 -91.5252C156.006 -92.7127 156.833 -93.8687 157.999 -94.2283C159.307 -94.7618 160.636 -95.254 161.963 -95.7197L162.101 -95.7779C163.192 -96.2324 164.386 -96.6479 165.539 -96.6205C172.381 -96.4396 181.599 -93.7306 187.208 -90.1333C188.614 -89.0678 188.959 -86.3121 187.118 -85.3554C188.048 -83.6786 187.684 -82.4199 187.389 -80.5432C187.182 -79.3185 186.885 -78.0586 186.303 -76.9105C186.251 -76.8086 186.117 -76.8334 186.106 -76.9313C185.975 -78.1992 186.033 -79.5037 186.07 -80.7868L186.074 -80.9292C186.107 -82.1127 186.265 -82.5538 185.928 -83.6598C185.116 -86.4838 178.294 -87.6463 175.589 -88.7193C173.474 -89.3446 171.331 -89.8951 169.16 -90.368L169.001 -90.3992C167.17 -90.765 165.276 -91.3524 163.378 -90.9361C162.418 -90.1107 160.922 -90.2748 159.983 -89.3366C158.581 -87.5481 159.834 -85.0543 160.924 -83.5204C161.906 -83.9055 162.792 -83.0056 163.544 -82.5406L163.572 -82.5235C164.34 -82.0357 165.072 -82.4265 165.841 -81.94L166.009 -81.9815C168.74 -82.6608 170.846 -83.3964 166.522 -81.5125C167.264 -81.047 168.008 -80.5774 168.731 -80.0811C170.165 -80.3267 171.713 -81.2143 173.05 -81.3412C172.184 -80.3889 170.973 -79.8334 169.833 -79.2841C170.53 -78.7506 171.195 -78.1766 171.795 -77.5399L172.338 -77.7106C175.674 -78.755 176.989 -79.0703 172.537 -76.6658C173.471 -75.6181 173.678 -74.0212 174.699 -73.0411C176.263 -73.4631 177.684 -74.2771 178.932 -75.3055C179.436 -75.7319 179.808 -76.2548 180.2 -76.7791C182.045 -79.5949 185.051 -80.1345 186.112 -76.6155C186.131 -76.5433 186.028 -76.4939 185.996 -76.5544L185.992 -76.5629C185.509 -77.6376 184.049 -78.4677 182.885 -77.7432L182.85 -77.7208C181.712 -77.0136 181.223 -75.6414 180.342 -74.6855C179.152 -73.418 177.633 -72.5404 176.056 -71.8648C176.504 -70.3321 176.744 -67.5198 176.77 -65.7024C179.459 -65.9454 182.176 -65.9083 184.844 -65.4514C184.29 -68.8105 184.399 -73.2139 184.088 -76.2166C183.767 -77.2157 185.457 -77.9132 185.678 -76.9141C185.904 -73.6612 185.794 -68.952 185.48 -65.2999L185.672 -65.2568C185.853 -65.215 186.044 -65.1635 186.202 -65.0745C187.892 -65.3502 187.611 -60.62 187.947 -59.3056C190.993 -30.1536 196.148 -1.34579 200.7 27.5551C201.184 27.7354 201.293 28.3698 201.392 28.8994C205.591 25.5377 206.206 19.1201 207.95 14.0964C215.41 -11.8544 218.142 -39.0343 222.979 -65.6476L222.947 -65.6556C222.923 -65.6622 222.923 -65.6659 222.971 -65.664L222.982 -65.6636L222.982 -65.6655C222.618 -65.7039 222.317 -66.1077 222.523 -66.5026C223.127 -67.9809 224.974 -67.5373 226.181 -67.4916C225.978 -69.7247 226.23 -74.5699 225.875 -76.5528C224.39 -76.5254 224.226 -78.3053 223.989 -79.358L223.969 -79.4663C223.637 -81.2674 222.624 -84.6297 223.226 -86.1195C222.157 -87.4026 222.82 -89.2275 223.841 -90.1713C224.937 -91.1271 226.324 -91.7162 227.575 -92.4685C233.489 -95.3546 239.111 -100.696 246.56 -99.0119L246.884 -98.9504C252.097 -97.9578 253.602 -97.4856 252.792 -91.8623C253.257 -90.7438 253.308 -89.5012 252.753 -88.4747C251.753 -86.9523 250.008 -86.0731 248.638 -84.8928C246.311 -83.0438 243.822 -81.409 241.554 -79.4902C241.644 -79.4112 241.524 -79.3762 241.453 -79.3874C239.857 -77.9128 240.106 -75.4762 239.021 -73.689C238.768 -72.7798 237.322 -72.5047 236.36 -72.5922C236.724 -70.93 235.557 -63.2544 235.163 -68.629L235.16 -68.7062C235.124 -69.537 234.893 -72.3057 235.096 -72.8575C231.876 -73.7953 231.062 -77.1028 230.278 -79.7687L230.233 -79.7799C230.014 -79.8327 229.721 -79.8709 229.604 -80.0994C228.609 -79.3507 228.377 -77.9434 227.416 -77.1539C227.703 -76.9275 227.735 -76.4756 227.607 -76.1193C227.217 -74.2559 227.122 -69.5479 226.506 -67.4596C229.799 -67.0508 233.143 -66.9072 236.376 -66.0593C236.774 -66.5208 237.632 -66.3957 237.63 -65.5904C237.317 -48.0332 236.289 -30.5026 234.815 -13.0267C233.68 3.32214 231.197 19.5155 229.661 35.7944L229.728 38.0179C229.928 44.7021 230.027 51.4904 227.988 57.8695C228.192 57.9575 228.395 58.0486 228.595 58.1447C231.027 56.9293 229.34 63.8094 229.296 65.0392C228.355 72.1965 227.197 79.3607 226.56 86.5507C227.532 86.8918 228.437 87.394 229.205 88.1449C233.829 91.9458 237.664 124.026 236.289 130.559C235.598 134.662 232.081 136.801 228.691 137.853L228.191 138.029C224.41 139.352 220.559 140.567 216.586 140.982C216.449 141.128 216.031 141.104 215.971 140.989C215.716 140.834 215.466 140.523 215.253 140.193C209.751 141.1 211.399 144.988 209.146 145.638ZM186.965 -85.6072C187.665 -87.5566 186.58 -88.9768 184.824 -89.7171C178.736 -92.5094 171.975 -94.6813 165.113 -94.8808C163.046 -94.2487 161.012 -93.2575 158.918 -92.6119L158.827 -92.5904C158.088 -92.4123 157.744 -92.2491 157.841 -91.4067L157.827 -91.064C157.802 -90.4551 157.785 -89.8478 157.848 -89.2426C158.433 -90.9674 160.345 -91.9771 162.04 -92.3863C164.695 -93.8945 167.783 -92.5844 170.468 -92.0861C174.846 -90.8182 184.284 -88.9248 186.965 -85.6072ZM224.48 -87.0967L224.568 -87.13C225.333 -87.4219 226.109 -87.7731 226.987 -87.5705C230.813 -89.157 234.528 -90.9323 238.212 -92.7736C242.176 -95.0445 248.595 -97.7547 252.298 -92.7796C251.69 -95.4407 252.367 -96.385 248.994 -96.9244C243.61 -98.6101 239.38 -97.477 235.073 -94.7231C231.91 -92.8843 228.49 -91.3875 225.437 -89.4039L225.396 -89.3699C224.8 -88.8669 224.092 -87.9642 224.48 -87.0967ZM232.987 -75.8684C234.079 -73.8664 236.85 -72.8508 238.849 -73.6816C238.979 -75.6582 238.359 -77.8414 239.438 -79.595C238.417 -79.7499 237.398 -79.9344 236.38 -80.1268L235.448 -80.3042C234.991 -80.3951 234.407 -80.5584 234.462 -81.086C234.524 -81.6694 235.228 -81.5191 235.697 -81.3911L235.88 -81.3404C237.199 -80.972 238.516 -80.595 239.821 -80.1661C240.468 -81.0072 241.354 -81.6815 242.213 -82.3329L241.845 -82.3642C240.556 -82.4719 239.255 -82.5647 237.976 -82.7995C237.416 -82.9573 237.503 -83.7863 238.072 -83.7422C239.603 -83.3696 241.131 -82.9406 242.682 -82.6908C243.414 -83.263 244.141 -83.8379 244.875 -84.4076C243.382 -84.5847 241.891 -84.5483 240.403 -84.6292C239.44 -84.6888 239.385 -86.1213 240.348 -86.0757C242.086 -85.9692 243.839 -85.4766 245.513 -84.9045L246.358 -85.562C247.344 -86.3289 248.333 -87.094 249.332 -87.8441C249.933 -88.2977 250.715 -88.7374 251.123 -89.3764C252.394 -91.8332 248.898 -93.9992 246.597 -93.8722C243.099 -93.7777 240.264 -91.6831 237.247 -90.3783C235.57 -89.8549 227.138 -84.8137 226.307 -86.0227C225.824 -85.7452 225.142 -85.6254 224.804 -85.1859C224.808 -83.2144 225.267 -81.1665 225.663 -79.1933C225.741 -78.8492 225.913 -78.4395 225.944 -78.0844C227.356 -78.7176 227.68 -80.92 229.576 -80.8069C229.852 -81.3339 230.771 -81.1288 231.198 -80.7353C231.662 -80.3071 231.743 -79.682 231.871 -79.1273L231.93 -78.8725C232.17 -77.851 232.452 -76.8058 232.987 -75.8684ZM196.92 92.748L197.148 92.6754C199.473 91.9425 201.914 91.383 204.336 91.4622C204.687 89.7213 204.311 85.6272 205.984 84.9061C206.555 84.645 207.435 84.805 207.726 85.4415C211.241 85.3739 214.792 85.58 218.314 85.6724C220.967 85.7973 223.71 85.6826 226.29 86.4604C225.916 84.7766 225.745 83.116 225.851 81.3751C226.159 73.9557 227.835 66.6738 228.206 59.2837L228.223 58.9317L228.242 58.9429C228.242 58.929 228.242 58.9152 228.242 58.9013C228.049 58.8484 227.856 58.7926 227.663 58.7357C227.597 58.7759 227.503 58.7429 227.452 58.6737C213.278 54.4631 198.349 52.9734 183.848 55.6277C181.308 56.0743 178.792 56.6598 176.297 57.335C176.328 57.58 175.987 57.6577 175.918 57.4278C175.364 57.5558 174.81 57.6938 174.257 57.7937C174.332 57.9975 174.352 58.2203 174.291 58.4245C173.345 62.0164 173.996 66.0447 174.48 69.7131C175.135 75.3489 176.435 80.8515 177.528 86.3939C181.691 86.4395 185.85 87.0204 190.021 86.7663C190.413 85.5047 191.905 84.4002 193.133 85.0654C194 85.5324 194.293 86.6123 194.668 87.4995C195.409 89.2535 196.164 91.0008 196.92 92.748ZM216.408 140.82C220.716 139.244 225.147 138.067 229.41 136.338C232.966 135.222 235.323 132.666 235.313 128.462C235.262 119.459 234.01 110.456 232.304 101.648L232.218 101.25C231.297 97.009 230.451 92.6899 228.866 88.6746C226.74 87.697 224.362 87.487 222.076 87.4527C218.741 87.3963 215.406 87.335 212.071 87.2257L209.457 87.1418C208.698 87.1175 207.652 87.2996 207.059 86.6793C207.005 86.5907 206.903 86.606 206.823 86.5528L206.807 86.5412C206.722 86.4829 206.632 86.3367 206.514 86.3702C206.322 86.4436 206.264 86.8699 206.226 87.0739L206.222 87.0923C206.011 88.1838 205.87 89.2959 205.678 90.3925C205.228 92.553 205.086 94.824 204.355 96.9036C205.546 97.6669 206.674 98.5485 207.653 99.6086L208.799 99.9992C211.541 100.93 214.312 101.827 217.153 102.339C217.194 101.661 218.066 101.241 218.425 101.935C219.043 103.713 219.22 105.663 219.67 107.503C220.742 113.003 221.975 118.477 222.784 124.032C220.956 119.155 219.874 113.125 218.416 107.834C218.36 107.873 218.279 107.855 218.273 107.768C213.914 109.768 208.993 109.883 204.546 108.111C203.433 107.674 202.304 107.286 201.196 106.834C200.815 106.619 200.074 106.662 199.93 106.165C199.809 106.511 199.642 106.836 199.411 107.061C199.343 107.231 198.508 107.563 198.412 107.235C193.417 106.682 188.497 104.51 183.403 105.105C184.1 107.492 184.129 110.098 184.266 112.586L184.265 112.867C184.254 115.323 184.295 118.361 183.612 120.408C183.903 115.309 183.353 110.234 182.564 105.224C178.979 105.871 180.552 103.557 182.956 103.548C187.785 102.98 192.347 105.147 196.871 106.679C199.348 107.648 199.589 106.737 199.383 104.215C199.253 100.926 197.773 97.9768 196.425 95.1062L195.817 93.7646C194.806 91.5322 193.809 89.3138 192.824 87.0532C188.961 88.6227 184.521 88.015 180.453 87.9134C177.34 87.6084 175.123 87.845 172.579 89.9018C171.71 91.9092 170.537 93.8266 170.136 96.0685C169.65 98.1279 169.545 100.269 169.462 102.387L169.633 102.972C171.835 110.48 174.239 117.942 177.405 125.051L177.577 125.443C178.652 127.905 179.748 130.491 181.796 132.166C185.222 134.717 189.378 135.746 192.964 137.995L192.98 137.82C193.228 135.072 193.731 132.213 195.249 129.951C198.058 125.866 203.646 125.538 207.536 127.971C211.572 130.199 214.109 134.539 215.439 139.128L215.454 139.178C215.578 139.587 215.926 140.825 216.408 140.82ZM203.977 96.6672C203.923 95.2109 204.131 93.7653 204.254 92.3209C202.221 92.8418 200.189 93.2289 198.195 93.9039C200.191 94.6382 202.137 95.5404 203.977 96.6672ZM209.367 108.222C212.381 108.745 215.427 108.245 218.363 107.616C217.979 105.998 217.549 104.397 217.18 102.776C216.123 102.87 206.007 101.317 207.08 99.7144C205.564 98.9063 204.121 97.9432 202.611 97.1161C201.093 96.2842 199.519 95.5797 197.901 95.0204L197.993 95.2215C199.494 98.5142 200.921 102.23 200.005 105.927C201.402 105.249 203.394 106.512 204.79 106.96C206.277 107.544 207.802 107.991 209.367 108.222ZM231.388 120.346C231.402 120.956 229.607 119.273 229.375 119.1L229.234 118.97C227.513 117.393 225.806 115.65 224.796 113.433C224.643 111.221 227.872 116.468 228.304 116.779C229.268 118.029 230.425 119.101 231.388 120.346ZM183.404 116.98C183.865 116.794 182.657 118.573 182.155 118.466C181.958 118.505 181.774 118.199 181.989 118.083L182.096 118.026C182.597 117.765 183.111 117.538 183.404 116.98Z" fill="#1B1B1B"/>
<path fill-rule="evenodd" clip-rule="evenodd" d="M203.139 184.678C199.097 184.834 194.164 182.878 193.75 182.851L193.739 182.851C193.522 182.859 192.647 182.185 191.114 180.829L192.583 177.35L192.449 177.22C191.803 176.593 191.251 176.021 190.815 175.57C187.256 171.885 186.064 156.926 186.666 151.67C187.268 146.413 188.56 141.243 195.493 140.975C202.427 140.707 210.317 144.97 211.56 146.345C212.388 147.261 213.296 147.68 214.282 147.603C214.324 147.657 214.367 147.711 214.409 147.766L214.555 147.783C215.93 147.946 216.92 148.2 217.526 148.543C218.71 149.214 220.126 152.926 220.158 153.755C220.189 154.575 222.317 160.469 222.379 161.099L222.38 161.117C222.401 161.645 224.973 163.976 225.003 164.746C225.032 165.517 225.53 165.451 225.136 168.186L225.021 168.989C224.601 171.901 223.746 176.729 219.859 178.963C215.588 181.418 207.221 184.52 203.139 184.678Z" fill="white"/>
<path fill-rule="evenodd" clip-rule="evenodd" d="M203.139 184.649C199.097 184.805 194.164 182.849 193.75 182.822L193.739 182.822C193.522 182.83 192.647 182.156 191.114 180.8L191.444 180.02C199.396 179.541 204.846 178.622 207.794 177.262C211.213 175.685 213.182 170.12 213.702 160.567C214.892 159.892 216.074 159.017 217.248 157.943C218.422 156.87 218.709 156.327 218.108 156.317C218.075 154.114 217.855 152.584 217.447 151.726C217.039 150.867 215.725 150.404 213.503 150.335L212.861 148.295L212.902 147.336C213.343 147.532 213.803 147.611 214.282 147.574C214.324 147.628 214.367 147.682 214.409 147.737L214.555 147.754C215.93 147.917 216.92 148.171 217.526 148.514C218.71 149.185 220.126 152.897 220.158 153.726C220.189 154.546 222.317 160.44 222.379 161.07L222.38 161.088C222.401 161.616 224.973 163.947 225.003 164.717C225.032 165.488 225.53 165.422 225.136 168.157L225.021 168.96C224.601 171.872 223.746 176.7 219.859 178.934C215.588 181.389 207.221 184.491 203.139 184.649Z" fill="#EEEEEE"/>
<path fill-rule="evenodd" clip-rule="evenodd" d="M220.536 179.044C218.46 181.653 206.267 186.036 199.99 185.449L199.802 185.43C199.301 185.38 198.806 185.294 198.316 185.171C196.733 184.831 195.092 184.287 193.758 183.325C192.645 182.538 189.184 181.317 190.105 179.111C189.702 178.353 189.526 177.404 189.749 176.634C189.77 176.37 189.835 176.125 189.92 175.871C189.074 174.616 188.388 173.187 187.824 171.824C186.798 168.38 186.104 164.781 185.885 161.234C185.355 154.501 185.719 146.42 190.919 141.852C194.055 138.963 199.132 138.674 202.908 141.959C203.126 142.219 204.126 142.904 203.806 143.044C203.705 142.936 203.602 142.831 203.497 142.728C203.502 142.74 203.503 142.752 203.502 142.764L203.6 142.855C203.787 143.029 204.029 143.283 203.762 143.242C203.75 143.228 203.737 143.215 203.724 143.201C203.667 143.166 203.623 143.136 203.589 143.109L203.572 143.095L203.577 143.101C203.736 143.273 203.834 143.45 203.602 143.343L203.572 143.329C203.466 143.216 203.359 143.108 203.25 143.004C203.252 143.016 203.251 143.029 203.245 143.043L203.346 143.143C203.446 143.241 203.431 143.242 203.388 143.327C203.602 143.63 203.217 143.46 203.186 143.34C202.952 143.41 202.725 142.932 202.57 142.879C195.673 137.517 186.17 142.878 186.932 158.53L186.946 158.837C187.186 163.842 187.77 168.973 189.838 173.432C190.039 173.862 190.261 174.279 190.503 174.681C190.671 174.983 190.85 175.277 191.041 175.562C191.546 175.587 192.046 175.669 192.541 175.806C192.711 175.846 192.879 175.891 193.048 175.945C195.469 175.706 197.835 175.457 200.263 175.214L201.021 175.132C203.077 174.908 205.2 174.593 206.81 173.134C208.393 171.801 208.304 169.296 209.647 167.848C211.582 166.291 211.545 164.956 211.845 162.761C211.753 161.119 210.619 158.771 212.504 158.005C212.162 157.514 212.621 157.739 212.663 157.914C212.666 157.913 212.67 157.912 212.673 157.911C212.363 157.338 212.799 157.69 212.844 157.876C212.867 157.882 212.89 157.899 212.914 157.923C212.604 157.422 213.086 157.763 213.062 157.857C213.658 158.776 214.815 158.878 215.617 158.597C215.626 158.563 215.662 158.559 215.685 158.576C219.104 157.624 217.912 149.842 214.404 150.734C214.254 150.774 214.255 150.694 214.225 150.687C214.315 150.919 214.081 150.832 214.082 150.783L214.068 150.784C214.057 150.786 214.061 150.787 214.053 150.784C214.15 151.261 213.679 150.583 213.713 150.553C213.7 150.562 213.685 150.568 213.671 150.57L213.688 150.615C213.77 150.828 213.761 150.738 213.765 150.862C213.826 151.012 213.828 150.945 213.818 151.045C213.63 151.217 213.553 150.718 213.487 150.684C213.605 150.85 213.521 150.992 213.413 150.904C212.545 149.102 211.45 147.419 210.068 146.114C209.918 145.994 209.766 145.876 209.609 145.765C209.022 145.248 208.141 144.935 207.593 144.478C207.593 144.47 207.596 144.46 207.601 144.45L207.589 144.439L207.576 144.426L207.388 144.337C207.332 144.288 207.281 144.234 207.235 144.173C207.187 144.117 207.144 144.054 207.107 143.987C207.086 143.905 207.123 143.869 207.197 143.902C207.229 143.912 207.261 143.925 207.293 143.937C207.291 143.934 207.29 143.932 207.288 143.93C207.277 143.913 207.2 143.738 207.282 143.764L207.292 143.768C207.337 143.784 207.382 143.802 207.426 143.819C207.372 143.751 207.322 143.676 207.278 143.614C207.232 143.565 207.202 143.507 207.189 143.44C207.189 143.403 207.207 143.386 207.242 143.39C207.295 143.406 207.347 143.424 207.4 143.443L207.384 143.413C207.344 143.336 207.287 143.206 207.381 143.247C207.461 143.27 207.538 143.298 207.615 143.329C207.621 143.315 207.633 143.309 207.659 143.321C207.903 143.406 208.141 143.511 208.369 143.638C208.571 143.786 208.775 143.932 208.977 144.079C209.167 144.194 209.351 144.322 209.528 144.468C210.701 145.23 211.74 146.217 212.577 147.327C213.854 146.02 216.552 147.118 218.23 148.038C219.715 148.861 220.348 150.464 220.563 152.211C220.961 154.559 222.754 155.298 222.832 160.48C222.834 160.479 222.837 160.479 222.841 160.478C222.906 160.497 222.969 160.522 223.029 160.555C223.091 160.585 223.149 160.62 223.204 160.663L223.274 160.76C223.309 160.78 223.34 160.8 223.365 160.821L223.376 160.804C223.413 160.751 223.39 160.829 223.388 160.844L223.509 161.01C223.796 161.405 224.112 161.849 224.368 162.203L224.375 162.188C224.38 162.177 224.383 162.168 224.38 162.165C224.993 163.05 225.578 164.125 225.77 165.181C225.98 165.991 225.943 166.837 225.816 167.6C225.253 170.277 223.302 176.362 220.536 179.044ZM203.452 142.979L203.489 143.013L203.456 142.97C203.438 142.948 203.42 142.929 203.392 142.909C203.394 142.916 203.394 142.923 203.393 142.931C203.412 142.946 203.432 142.962 203.452 142.979ZM199.966 184.116C204.217 184.35 208.343 183.169 212.336 181.777L212.611 181.678C214.881 180.872 217.286 180.133 219.169 178.523C221.794 176.144 223.055 172.473 224.149 169.087C225.12 166.564 224.467 163.788 222.791 162.118C222.69 163.846 222.469 165.528 222.087 167.203C222.004 167.465 222.078 167.548 221.879 167.589C221.403 163.133 222.768 159.775 219.61 154.594C218.232 152.146 219.645 150.26 215.976 149.086L215.876 149.048C215.11 148.766 214.278 148.553 213.546 148.755L213.617 148.87C213.689 148.989 213.712 149.047 213.615 149.103C213.618 149.108 213.622 149.114 213.626 149.121C213.712 149.282 213.795 149.445 213.875 149.61C213.904 149.598 213.933 149.589 213.964 149.579C213.942 149.539 213.938 149.499 213.994 149.483C214.19 149.4 214.393 149.362 214.602 149.368L214.647 149.37C214.884 149.377 215.035 149.418 215.17 149.457C215.214 149.463 215.259 149.469 215.303 149.478C215.735 149.565 216.199 149.812 216.502 150.062C219.928 152.012 219.856 159.103 215.758 159.931C215.845 164.39 214.199 171.983 211.148 176.353C208.393 180.371 200.525 182.37 194.983 181.987C194.901 181.961 194.819 181.934 194.738 181.908C193.883 181.858 193.055 181.474 192.196 181.314C192.827 181.792 193.534 182.1 194.26 182.356C195.721 183.254 197.374 183.707 198.966 184.01C199.296 184.085 199.629 184.121 199.966 184.116ZM215.808 156.344C215.592 156.484 215.612 156.356 215.563 156.395C213.973 156.599 212.194 155.138 211.254 153.899C211.321 153.816 211.521 154.046 211.556 154.082C211.56 154.077 211.565 154.073 211.571 154.07L211.544 154.033C211.161 153.48 211.903 154.12 211.975 154.255C211.987 154.247 211.998 154.243 212.012 154.245C211.953 154.186 211.773 154.034 211.739 153.922L211.692 153.882C211.242 153.493 211.267 153.186 211.781 153.744C211.768 153.717 211.763 153.693 211.77 153.673L211.753 153.661C211.504 153.485 211.285 152.977 211.811 153.487C211.744 153.103 212.326 153.829 212.344 153.823C213.334 154.609 214.777 155.355 215.983 155.416L216.025 155.42C216.247 155.442 216.354 155.51 216.282 155.671C216.557 155.731 216.499 155.88 216.37 155.88C216.567 156.011 216.4 156.149 216.286 156.102C216.372 156.331 216.059 156.188 216.032 156.222C215.884 156.496 215.832 156.274 215.808 156.344ZM219.706 170.572C218.952 170.909 216.654 170.077 216.788 168.853C216.885 168.569 217.234 168.395 217.489 168.544L217.825 168.77C218.408 169.164 218.933 169.508 219.556 169.847C219.894 170.014 220.051 170.391 219.706 170.572ZM215.418 172.549L215.722 172.748C217.362 173.83 219.686 175.475 215.614 173.837C215.15 173.641 214.539 173.538 214.272 173.072C213.847 172.211 214.874 172.112 215.418 172.549ZM215.436 177.685C215.585 178.212 213.967 177.65 213.497 177.503L213.425 177.477C212.966 177.31 212.442 177.159 212.156 176.744C211.817 176.167 212.452 176.02 212.859 176.271C213.695 176.821 214.603 177.225 215.436 177.685ZM211.479 180.32C212.417 181.357 209.976 180.423 209.606 180.152L209.595 180.144C209.319 179.947 209.356 179.5 209.603 179.359C210.32 179.317 210.873 179.951 211.479 180.32ZM207.441 181.652C208.911 182.719 207.011 182.258 206.341 181.843C205.88 181.431 206.31 180.689 207.441 181.652Z" fill="#1B1B1B"/>
<path fill-rule="evenodd" clip-rule="evenodd" d="M194.545 151.411C194.416 151.68 194.106 151.936 193.812 151.91C192.496 151.793 192.431 150.059 192.898 149.027C193.311 148.112 194.219 147.549 195.151 147.591C196.13 147.634 196.986 148.228 197.39 149.211C197.658 149.861 197.817 151.074 197.19 151.541C197.178 151.55 197.159 151.549 197.149 151.537C196.825 151.157 196.79 150.569 196.503 150.143C196.236 149.747 195.832 149.427 195.373 149.392C195.03 149.367 194.69 149.515 194.569 149.855C194.504 150.039 194.516 150.137 194.548 150.26L194.576 150.368C194.677 150.744 194.726 151.031 194.545 151.411ZM194.488 159.029C193.788 158.602 192.706 157.585 193.397 156.432C194.224 155.408 195.514 156.496 196.147 156.986C196.732 157.363 197.332 156.313 196.786 155.869C192.212 152.455 190.664 159.058 194.163 159.575C194.549 159.632 194.673 159.162 194.488 159.029ZM201.823 161.859C201.43 162.562 200.469 162.498 200.206 161.692C200.064 161.255 200.222 160.851 200.196 160.411C200.174 160.039 200.18 159.623 200.271 159.258C200.478 158.426 201.133 157.819 201.935 157.812C202.735 157.805 203.46 158.33 203.825 159.095C204.191 159.863 204.151 160.673 203.937 161.476C203.926 161.515 203.881 161.535 203.852 161.504C203.55 161.179 203.324 160.832 203.09 160.464L202.85 160.087C202.667 159.803 202.403 159.442 202.082 159.477L202.034 159.484C201.946 159.496 201.958 159.476 201.895 159.612C201.865 159.674 201.876 159.788 201.863 159.861L201.859 159.886L201.862 159.899C201.87 159.934 201.879 160 201.889 160.115L201.891 160.14C201.935 160.676 202.101 161.361 201.823 161.859ZM191.176 161.812C191.285 162.688 190.161 162.927 189.76 162.291C189.551 161.96 189.477 161.536 189.418 161.134L189.39 160.944C189.33 160.531 189.295 160.101 189.445 159.708C189.681 159.089 190.233 158.745 190.844 158.773C191.427 158.799 191.971 159.147 192.273 159.694C192.541 160.183 192.827 161.147 192.544 161.678C192.527 161.711 192.49 161.716 192.464 161.693C192.168 161.426 192.102 160.923 191.917 160.568C191.728 160.202 191.448 159.849 191.042 159.808C190.654 159.769 190.516 160.005 190.63 160.402C190.777 160.916 191.106 161.256 191.176 161.812ZM201.719 167.094L201.537 167.178C200.913 167.464 200.055 167.8 199.518 167.257C199.186 166.922 199.106 166.414 199.317 165.981C199.572 165.458 200.064 165.426 200.538 165.332C201.076 165.225 201.621 165.041 202.116 164.788C202.674 164.504 203.188 164.156 203.691 163.771C204.168 163.405 204.636 162.818 205.219 162.689C205.243 162.683 205.27 162.694 205.278 162.722C205.435 163.344 205.088 163.976 204.776 164.478C204.399 165.086 203.933 165.591 203.407 166.048C202.9 166.489 202.314 166.816 201.719 167.094ZM190.119 165.309L190.063 165.322C189.681 165.406 189.332 165.404 189.03 165.082C188.799 164.837 188.701 164.512 188.793 164.173C188.879 163.86 189.084 163.537 189.397 163.46C190.454 163.2 191.636 163.191 192.713 163.315C193.206 163.372 193.704 163.446 194.187 163.574L194.41 163.635C194.813 163.743 195.274 163.856 195.576 164.164C195.684 164.275 195.631 164.442 195.508 164.5C195.012 164.736 194.315 164.648 193.777 164.685C193.151 164.729 192.526 164.805 191.905 164.899C191.299 164.992 190.715 165.165 190.119 165.309Z" fill="#1B1B1B"/>
<path fill-rule="evenodd" clip-rule="evenodd" d="M186.368 158.74C187.419 157.459 189.239 157.032 190.726 157.64C194.545 159.207 192.914 164.617 190.076 166.162C189.718 166.275 189.244 166.527 188.806 166.597C188.767 166.62 188.678 166.561 188.575 166.624C185.369 166.358 184.433 160.978 186.368 158.74ZM198.459 157.955C199.622 156.124 201.891 155.485 203.795 156.242C207.553 157.689 206.425 162.474 203.967 164.427C198.709 166.826 196.287 161.334 198.459 157.955ZM206.626 161.599C206.629 161.6 206.633 161.601 206.637 161.603C206.617 161.613 206.598 161.623 206.579 161.633C206.585 161.615 206.591 161.597 206.596 161.578C206.606 161.585 206.615 161.593 206.626 161.599ZM184.04 164.402C184.342 164.39 184.775 164.319 185.016 164.081C185.72 166.324 188.073 168.335 189.991 166.729C191.526 166.122 192.635 164.865 193.229 163.228C194.442 163.951 196.291 163.551 197.278 162.495C198.044 164.894 199.731 165.679 201.705 165.729C203.869 166.03 205.923 163.668 206.521 161.814C207.079 161.862 207.917 162.023 208.425 161.628C211.856 162.469 217.81 162.775 218.479 162.209C218.962 161.984 219.183 160.707 218.494 160.665C217.899 160.781 218.6 161.59 218 161.705C214.794 162.046 211.647 161.46 208.456 161.287C208.156 160.881 207.233 160.777 206.75 160.963C207.401 157.832 205.656 155.787 203.139 155.251C199.241 154.432 196.028 158.332 197.189 162.214C196.045 162.894 194.698 162.919 193.412 162.634C195.21 153.999 182.608 154.87 184.926 163.791C183.587 163.13 183.347 164.285 184.04 164.402Z" fill="#1B1B1B"/>
</g>
</g>
<defs>
<filter id="filter0_dddddd_116_6681" x="0" y="0.147609" width="416" height="409.852" filterUnits="userSpaceOnUse" color-interpolation-filters="sRGB">
<feFlood flood-opacity="0" result="BackgroundImageFix"/>
<feColorMatrix in="SourceAlpha" type="matrix" values="0 0 0 0 0 0 0 0 0 0 0 0 0 0 0 0 0 0 127 0" result="hardAlpha"/>
<feOffset dy="0.559259"/>
<feGaussianBlur stdDeviation="1.1069"/>
<feColorMatrix type="matrix" values="0 0 0 0 0 0 0 0 0 0 0 0 0 0 0 0 0 0 0.0468848 0"/>
<feBlend mode="normal" in2="BackgroundImageFix" result="effect1_dropShadow_116_6681"/>
<feColorMatrix in="SourceAlpha" type="matrix" values="0 0 0 0 0 0 0 0 0 0 0 0 0 0 0 0 0 0 127 0" result="hardAlpha"/>
<feOffset dy="2.62385"/>
<feGaussianBlur stdDeviation="2.66004"/>
<feColorMatrix type="matrix" values="0 0 0 0 0 0 0 0 0 0 0 0 0 0 0 0 0 0 0.0647322 0"/>
<feBlend mode="normal" in2="effect1_dropShadow_116_6681" result="effect2_dropShadow_116_6681"/>
<feColorMatrix in="SourceAlpha" type="matrix" values="0 0 0 0 0 0 0 0 0 0 0 0 0 0 0 0 0 0 127 0" result="hardAlpha"/>
<feOffset dy="7.16485"/>
<feGaussianBlur stdDeviation="5.00862"/>
<feColorMatrix type="matrix" values="0 0 0 0 0 0 0 0 0 0 0 0 0 0 0 0 0 0 0.0786233 0"/>
<feBlend mode="normal" in2="effect2_dropShadow_116_6681" result="effect3_dropShadow_116_6681"/>
<feColorMatrix in="SourceAlpha" type="matrix" values="0 0 0 0 0 0 0 0 0 0 0 0 0 0 0 0 0 0 127 0" result="hardAlpha"/>
<feOffset dy="16.347"/>
<feGaussianBlur stdDeviation="8.93452"/>
<feColorMatrix type="matrix" values="0 0 0 0 0 0 0 0 0 0 0 0 0 0 0 0 0 0 0.0940847 0"/>
<feBlend mode="normal" in2="effect3_dropShadow_116_6681" result="effect4_dropShadow_116_6681"/>
<feColorMatrix in="SourceAlpha" type="matrix" values="0 0 0 0 0 0 0 0 0 0 0 0 0 0 0 0 0 0 127 0" result="hardAlpha"/>
<feOffset dy="36.5967"/>
<feGaussianBlur stdDeviation="16.711"/>
<feColorMatrix type="matrix" values="0 0 0 0 0 0 0 0 0 0 0 0 0 0 0 0 0 0 0.1174 0"/>
<feBlend mode="normal" in2="effect4_dropShadow_116_6681" result="effect5_dropShadow_116_6681"/>
<feColorMatrix in="SourceAlpha" type="matrix" values="0 0 0 0 0 0 0 0 0 0 0 0 0 0 0 0 0 0 127 0" result="hardAlpha"/>
<feOffset dy="100"/>
<feGaussianBlur stdDeviation="40"/>
<feColorMatrix type="matrix" values="0 0 0 0 0 0 0 0 0 0 0 0 0 0 0 0 0 0 0.18 0"/>
<feBlend mode="normal" in2="effect5_dropShadow_116_6681" result="effect6_dropShadow_116_6681"/>
<feBlend mode="normal" in="SourceGraphic" in2="effect6_dropShadow_116_6681" result="shape"/>
</filter>
<filter id="filter1_d_116_6681" x="80.2969" y="-6.8465" width="300.4" height="213.334" filterUnits="userSpaceOnUse" color-interpolation-filters="sRGB">
<feFlood flood-opacity="0" result="BackgroundImageFix"/>
<feColorMatrix in="SourceAlpha" type="matrix" values="0 0 0 0 0 0 0 0 0 0 0 0 0 0 0 0 0 0 127 0" result="hardAlpha"/>
<feOffset dx="22"/>
<feGaussianBlur stdDeviation="10.5"/>
<feComposite in2="hardAlpha" operator="out"/>
<feColorMatrix type="matrix" values="0 0 0 0 0 0 0 0 0 0 0 0 0 0 0 0 0 0 0.25 0"/>
<feBlend mode="normal" in2="BackgroundImageFix" result="effect1_dropShadow_116_6681"/>
<feBlend mode="normal" in="SourceGraphic" in2="effect1_dropShadow_116_6681" result="shape"/>
</filter>
<filter id="filter2_d_116_6681" x="80.5918" y="-6.80743" width="292.895" height="164.008" filterUnits="userSpaceOnUse" color-interpolation-filters="sRGB">
<feFlood flood-opacity="0" result="BackgroundImageFix"/>
<feColorMatrix in="SourceAlpha" type="matrix" values="0 0 0 0 0 0 0 0 0 0 0 0 0 0 0 0 0 0 127 0" result="hardAlpha"/>
<feOffset dx="22"/>
<feGaussianBlur stdDeviation="10.5"/>
<feComposite in2="hardAlpha" operator="out"/>
<feColorMatrix type="matrix" values="0 0 0 0 0 0 0 0 0 0 0 0 0 0 0 0 0 0 0.25 0"/>
<feBlend mode="normal" in2="BackgroundImageFix" result="effect1_dropShadow_116_6681"/>
<feBlend mode="normal" in="SourceGraphic" in2="effect1_dropShadow_116_6681" result="shape"/>
</filter>
<filter id="filter3_d_116_6681" x="81.4004" y="-17.794" width="299.188" height="145.279" filterUnits="userSpaceOnUse" color-interpolation-filters="sRGB">
<feFlood flood-opacity="0" result="BackgroundImageFix"/>
<feColorMatrix in="SourceAlpha" type="matrix" values="0 0 0 0 0 0 0 0 0 0 0 0 0 0 0 0 0 0 127 0" result="hardAlpha"/>
<feOffset dx="22"/>
<feGaussianBlur stdDeviation="10.5"/>
<feComposite in2="hardAlpha" operator="out"/>
<feColorMatrix type="matrix" values="0 0 0 0 0 0 0 0 0 0 0 0 0 0 0 0 0 0 0.25 0"/>
<feBlend mode="normal" in2="BackgroundImageFix" result="effect1_dropShadow_116_6681"/>
<feBlend mode="normal" in="SourceGraphic" in2="effect1_dropShadow_116_6681" result="shape"/>
</filter>
<filter id="filter4_d_116_6681" x="80" y="-23.9565" width="299.395" height="114.854" filterUnits="userSpaceOnUse" color-interpolation-filters="sRGB">
<feFlood flood-opacity="0" result="BackgroundImageFix"/>
<feColorMatrix in="SourceAlpha" type="matrix" values="0 0 0 0 0 0 0 0 0 0 0 0 0 0 0 0 0 0 127 0" result="hardAlpha"/>
<feOffset dx="22"/>
<feGaussianBlur stdDeviation="10.5"/>
<feComposite in2="hardAlpha" operator="out"/>
<feColorMatrix type="matrix" values="0 0 0 0 0 0 0 0 0 0 0 0 0 0 0 0 0 0 0.25 0"/>
<feBlend mode="normal" in2="BackgroundImageFix" result="effect1_dropShadow_116_6681"/>
<feBlend mode="normal" in="SourceGraphic" in2="effect1_dropShadow_116_6681" result="shape"/>
</filter>
<linearGradient id="paint0_linear_116_6681" x1="119.221" y1="3" x2="363.04" y2="133.815" gradientUnits="userSpaceOnUse">
<stop stop-color="#1C737C"/>
<stop offset="1" stop-color="#033338"/>
</linearGradient>
<clipPath id="clip0_116_6681">
<path d="M80 67C80 31.6538 108.654 3 144 3H272C307.346 3 336 31.6538 336 67V230H80V67Z" fill="white"/>
</clipPath>
</defs>
</svg>
