<svg width="416" height="410" viewBox="0 0 416 410" fill="none" xmlns="http://www.w3.org/2000/svg">
<g filter="url(#filter0_dddddd_116_6609)">
<g clip-path="url(#clip0_116_6609)">
<path d="M80 67C80 31.6538 108.654 3 144 3H272C307.346 3 336 31.6538 336 67V230H80V67Z" fill="url(#paint0_linear_116_6609)"/>
<g filter="url(#filter1_d_116_6609)">
<path d="M94.517 138.865L80.0035 107.905V189.447C79.9243 212.454 81.1129 223.304 90.8449 230H324.809C332.658 225.489 334.975 220.761 336 209.069V70.4046C328.409 64.9738 324.955 70.605 320.263 96.5677C311.91 93.7586 305.406 97.4456 292.46 107.905C285.303 109.995 279.901 99.7718 270.077 79.9977C259.419 59.8747 253.714 49.9424 253.116 79.9977L253.03 80.6985C250.687 99.917 249.347 110.904 238.078 117.062C232.369 115.626 228.662 108.818 222.119 96.8031L221.991 96.5677C214.674 88.3909 210.509 90.0402 202.931 107.905L181.598 156.307C174.089 166.304 170.066 172.715 156.418 156.307C151.155 151.549 147.112 146.901 135.959 131.452C125.123 109.795 118.905 96.1708 113.577 131.452C111.712 136.773 110.951 140.293 109.905 147.15C104.695 151.245 101.92 154.888 94.517 138.865Z" fill="#00686B"/>
</g>
<g filter="url(#filter2_d_116_6609)">
<path d="M96.8553 175.52C94.0261 178.178 91.7524 180.844 86.1113 188.311C85.5927 206.275 86.6899 215.669 93.6151 230H327.595C333.369 224.363 336.428 220.079 335.951 175.52L319.75 139.516C313.747 128.557 310.272 123.515 302.185 133.831L289.735 150.412C279.733 165.134 273.419 160.151 262.108 150.412C255.903 141.969 252.432 142.268 246.248 155.623C240.639 168.96 237.407 176.011 231.581 188.311C222.549 200.902 217.096 200.084 206.853 188.311C193.04 165 186.02 149.46 174.621 117.724C168.362 105.757 163.7 106.431 153.815 117.724C145.225 133.241 140.538 142.339 133.521 162.729C127.48 178.7 122.665 181.009 112.033 175.52C106.998 166.788 103.824 165.303 96.8553 175.52Z" fill="#00989A"/>
</g>
<path fill-rule="evenodd" clip-rule="evenodd" d="M105.892 414.969C107.312 412.496 107.077 410.103 105.014 407.754C104.99 407.055 100.702 403.491 97.7198 399.278C95.0405 395.494 93.6357 390.997 93.5923 390.759C93.477 389.26 93.4822 388.2 93.6077 387.578C94.511 383.104 95.6356 380.336 95.7843 378.904C97.6592 379.199 141.232 253.222 141.815 248.782C143.071 248.861 144.402 248.946 145.738 248.569C145.835 248.572 145.776 248.244 145.796 248.193C150.436 243.058 152.415 221.353 151.461 214.882C153.616 215.478 156.526 216.026 158.447 214.486C159.142 214.453 159.657 214.183 160.154 213.647C160.688 213.155 161.206 212.625 161.697 212.07C164.112 209.28 166.092 205.967 166.711 202.265C166.811 202.262 167.277 202.402 167.344 202.267C167.659 201.407 167.749 200.591 167.762 199.692C168.178 189.641 168.053 179.582 166.857 169.631C166.35 164.347 162.845 161.397 159.21 158.354C157.466 156.874 155.762 155.261 153.839 154.052C153.861 153.884 154.137 153.435 153.849 153.39C153.486 153.363 153.37 153.979 153.141 154.275C149.626 148.45 153.387 147.163 151.193 143.89C148.695 141.246 145.028 140.041 141.578 139.387C140.336 139.047 139.165 139.35 138.459 140.613C136.541 143.086 133.429 144.383 130.531 144.183C130.441 143.68 130.21 142.246 129.745 142.533C125.795 141.478 119.393 141.223 115.378 141.27C111.394 141.165 107.108 141.891 104.809 145.949C100.682 153.17 93.6499 185.901 96.3073 193.438L96.4542 193.486C96.9831 194.634 97.8754 195.631 98.9805 196.455C98.0701 199.317 96.3798 201.864 95.1043 204.544C92.6106 209.349 90.33 214.226 87.7221 219.026C87.5422 219.595 83.1752 226.792 85.5961 225.824C85.9303 226.162 86.3488 226.547 86.7182 226.881C83.0804 231.375 79.593 239.359 77.7909 245.739C76.6673 249.523 75.5081 252.784 73.545 256.409C57.7447 287.38 30.174 359.041 29.7541 359.983C29.3572 360.885 28.5212 366.186 27.4929 367.336C26.5804 368.357 24.4633 366.937 23.8759 367.259C22.0831 368.963 22.2099 370.44 20.6265 372.205C19.9924 372.532 18.5819 373.238 17.9991 373.861C17.041 374.399 2.40934 379.303 2.49445 380.756C2.49445 380.756 2.24742 381.365 2.18729 381.495C-0.83197 387.674 0.886775 388.144 6.10021 390.793C13.6687 394.816 20.598 393.684 28.6219 391.792C31.3929 390.823 35.581 388.634 35.6926 384.551C35.7345 384.312 36.3313 380.165 36.7033 378.08C37.4774 377.144 36.9843 376.478 35.2239 376.083C35.8042 375.705 38.7608 369.407 38.7109 368.438C39.199 366.133 40.1387 364.192 40.7497 361.853C41.803 362.272 90.9606 269.927 104.733 267.484C104.606 268.159 104.09 269.329 104.845 269.694C98.8861 302.17 86.1398 375.109 86.5082 375.357C84.7978 378.749 82.2645 387.053 81.1604 390.602C81.0379 390.669 80.4813 390.954 80.381 391.035C80.3748 391.004 80.0024 391.223 79.9857 391.226L79.977 391.12C77.775 393.82 74.9714 396.436 75.6559 399.956C74.4871 399.493 73.9053 402.069 73.4955 403.211C73.4808 405.687 90.9987 417.769 95.2443 419.393C96.5851 420.102 103.927 419.838 105.305 419.9C107.063 420.071 106.472 416.215 105.892 414.969Z" fill="white"/>
<path fill-rule="evenodd" clip-rule="evenodd" d="M130.485 143.925L130.531 144.183C130.587 153.8 133.648 159.907 139.713 162.505C145.778 165.103 149.689 163.901 151.445 158.901L153.899 153.404C154.102 153.492 153.86 153.895 153.839 154.052C155.762 155.261 157.466 156.874 159.21 158.354L159.754 158.81C163.189 161.698 166.376 164.611 166.857 169.631C168.053 179.582 168.179 189.641 167.762 199.692C167.749 200.591 167.659 201.407 167.345 202.267C167.278 202.402 166.811 202.262 166.711 202.265C166.092 205.967 164.112 209.28 161.697 212.07C161.206 212.625 160.688 213.154 160.154 213.646C159.657 214.183 159.142 214.453 158.447 214.485C156.526 216.026 153.616 215.478 151.462 214.882C152.415 221.353 150.437 243.057 145.796 248.192C145.776 248.244 145.366 249.794 145.269 249.792C143.933 250.169 141.798 249.968 140.543 249.889L138.347 249.571C138.249 250.157 141.086 251.493 140.05 254.719L81.5878 238.795C83.3857 234.42 84.2854 231.392 86.601 228.531L85.2054 227.386C84.8791 227.09 85.8829 226.114 85.5964 225.824C83.1756 226.792 87.5425 219.594 87.7224 219.025C90.3303 214.226 92.6109 209.349 95.1046 204.544C96.3801 201.864 97.4657 199.774 98.3761 196.913C97.294 196.106 96.7462 195.958 96.2136 194.84L96.0349 194.325L96.0564 193.379C93.3991 185.842 100.682 153.17 104.81 145.949C107.108 141.891 111.394 141.165 115.378 141.27L115.622 141.267C119.648 141.233 125.874 141.499 129.745 142.533C130.145 142.286 130.372 143.313 130.485 143.925ZM124.836 179.734C121.855 178.817 118.568 178.226 114.975 177.963L114.199 178.611L113.225 183.655C115.362 184.054 117.44 185.039 119.458 186.609L119.554 186.684C121.602 188.297 123.052 189.498 123.902 190.286L126.498 194.726L123.511 200.309L123.786 200.41C128.251 202.026 130.875 202.561 131.659 202.014C132.458 201.457 132.941 200.792 133.108 200.02L133.086 199.696C132.735 194.438 132.88 191.171 133.52 189.896C134.173 188.595 134.504 187.519 134.512 186.669L134.305 186.449C130.915 182.871 127.759 180.632 124.836 179.734Z" fill="#EEEEEE"/>
<path fill-rule="evenodd" clip-rule="evenodd" d="M139.5 140.099C140.134 140.271 139.989 141.171 139.449 141.396L139.427 141.405C138.974 141.576 138.725 141.777 138.387 142.168C136.558 144.668 133.335 145.433 130.847 144.018C131.194 146.192 131.254 148.212 131.612 150.354C132.93 161.285 146.008 168.731 151.745 156.054C149.339 154.72 149.757 147.934 151.987 146.557L151.961 146.8C151.676 149.421 151.223 152.054 152.367 154.448C152.414 154.48 152.462 154.501 152.512 154.516C152.681 154.198 152.86 153.886 153.055 153.586C153.53 152.855 154.628 153.357 154.329 154.215C157.404 156.408 160.2 159.035 162.997 161.602C165.323 163.738 166.837 166.744 167.202 170.073C168.288 179.207 168.395 188.529 168.138 197.795C167.942 198.998 168.394 203.83 166.839 203.803C166.103 207.443 164.108 210.74 161.747 213.486C160.738 214.48 159.776 215.993 158.332 216.093C156.427 217.519 153.829 217.242 151.748 216.745C152.324 224.643 150.527 243.758 145.85 249.993C145.72 251.211 142.646 250.864 141.788 250.888C141.157 255.169 139.725 259.339 138.188 263.374C124.856 297.721 113.515 332.892 105.373 368.846C104.856 371.084 104.351 373.325 103.857 375.569L103.561 376.914C103.165 378.706 102.751 380.483 102.172 382.233C101.972 382.841 101.395 383.065 100.922 382.954C99.0293 383.56 96.9334 382.926 95.0501 382.633C94.7849 384.629 94.0529 387.644 94.1192 389.412C95.3811 389.438 95.7657 390.849 94.4044 391.16C95.5625 392.46 95.7871 394.336 96.5701 395.845C100.127 395.42 100.072 397.673 97.3688 397.359C97.8692 398.207 98.4273 399.019 99.0194 399.81L99.0762 399.818C100.024 399.946 101.976 399.654 102.071 400.864C102.023 401.704 101.063 401.681 100.395 401.579C100.842 402.145 101.292 402.708 101.742 403.272C102.314 403.185 102.901 403.038 103.468 403.002C104.812 403.083 104.375 404.889 102.712 404.487C103.481 405.626 105.039 405.585 105.335 406.951C107.402 408.741 107.554 412.273 106.213 414.647C106.802 415.72 107.016 417.124 106.706 418.373C106.463 419.739 105.123 420.682 103.717 420.629C102.09 420.711 100.456 420.74 98.835 420.741L98.662 420.751C97.3018 420.83 95.8441 420.827 94.5993 420.357C87.2231 417.553 78.2241 411.09 73.4913 405.037C72.3679 403.342 73.043 400.211 75.4109 399.872C75.038 397.693 75.9148 396.462 76.9505 394.532C77.6431 393.278 78.4468 392.021 79.5174 390.993C79.6124 390.902 79.7493 390.98 79.7242 391.091C79.3834 392.52 78.8225 393.918 78.2928 395.3L78.2341 395.453C77.7481 396.729 77.4076 397.149 77.352 398.48C77.1592 401.863 84.1403 405.729 86.6746 407.928C88.7378 409.415 90.861 410.831 93.043 412.173L93.2042 412.268C95.0575 413.364 96.8942 414.725 99.118 414.995C100.478 414.463 102.043 415.212 103.423 414.549C105.63 413.137 105.217 409.946 104.616 407.861C103.401 407.906 102.779 406.589 102.138 405.796L102.114 405.767C101.465 404.943 100.519 405.089 99.8672 404.267L99.6687 404.248C96.4383 403.946 93.866 403.944 99.2897 403.542C98.6595 402.752 98.0287 401.958 97.4315 401.142C95.7768 400.862 93.754 401.238 92.2506 400.867C93.5564 400.161 95.0857 400.018 96.5355 399.854C95.9809 399.008 95.4756 398.13 95.0654 397.209L94.4094 397.187C90.3807 397.052 88.8294 396.894 94.5917 395.975C93.9742 394.478 94.3578 392.661 93.6206 391.206C91.7572 391.069 89.9006 391.413 88.1507 392.056C87.4395 392.328 86.8355 392.755 86.2089 393.176C83.1275 395.537 79.6504 394.978 79.8376 390.745C79.8448 390.659 79.9756 390.644 79.9872 390.722L79.988 390.733C80.1048 392.087 81.3762 393.547 82.9191 393.202L82.9659 393.191C84.4743 392.855 85.529 391.548 86.8524 390.844C88.6308 389.918 90.6187 389.542 92.5918 389.408C92.6889 387.57 93.5001 384.418 94.1645 382.43C91.1458 381.669 88.2028 380.593 85.4732 379.079C84.796 382.946 82.9986 387.696 82.1926 391.082C82.1607 392.292 80.0562 392.407 80.1965 391.235C81.1901 387.609 83.1054 382.526 84.8393 378.672L84.6467 378.551C84.4653 378.437 84.2773 378.308 84.1397 378.151C82.1951 377.807 84.3044 372.766 84.4394 371.208C92.2388 338.323 97.6105 305.007 103.674 271.821C103.217 271.441 103.34 270.709 103.434 270.094C97.5829 272.152 94.4673 278.902 90.6545 283.704C72.6425 309.1 59.3085 337.637 43.8986 364.754L43.931 364.775C43.9538 364.792 43.9528 364.796 43.901 364.775L43.8892 364.771L43.8885 364.773C44.2699 364.953 44.4436 365.507 44.069 365.859C42.8489 367.237 41.0074 366.05 39.7116 365.541C39.0814 368.048 36.9598 373.225 36.5903 375.518C38.2171 376.054 37.7162 378.054 37.5734 379.29L37.5533 379.415C37.2282 381.502 37.0484 385.547 35.8254 386.938C36.4996 388.742 35.0827 390.476 33.6117 391.113C32.0551 391.736 30.3212 391.848 28.6729 392.19C21.1371 393.076 12.9819 396.745 5.51816 392.073L5.18919 391.883C-0.105607 388.815 -1.56338 387.728 1.46231 381.917C1.38239 380.522 1.80079 379.151 2.79518 378.245C4.46403 376.97 6.69857 376.678 8.63964 375.916C11.8765 374.791 15.2084 373.961 18.4082 372.737C18.3402 372.617 18.4836 372.625 18.5571 372.664C20.8562 371.668 21.5143 368.921 23.3755 367.39C23.9977 366.497 25.6758 366.749 26.6899 367.211C26.9276 365.263 31.1239 357.355 29.5033 363.354L29.477 363.439C29.1992 364.357 28.3959 367.458 27.9645 367.981C31.1107 370.229 30.7359 374.139 30.573 377.339L30.6169 377.368C30.8357 377.509 31.1397 377.663 31.1805 377.956C32.5485 377.52 33.3371 376.077 34.6838 375.584C34.4579 375.229 34.5953 374.725 34.8705 374.386C36.005 372.507 37.9031 367.419 39.3704 365.382C35.9428 363.682 32.3583 362.251 29.1629 360.095C28.5538 360.446 27.6674 359.982 27.9771 359.107C35.0108 340.12 42.8121 321.434 51.0784 302.978C58.5465 285.62 67.4217 268.944 75.2995 251.814L76.0736 249.369C78.4044 242.019 80.885 234.594 85.5357 228.429C85.3467 228.256 85.1607 228.079 84.9793 227.898C81.8702 228.294 86.3286 221.45 86.8449 220.128C90.5978 212.698 94.5889 205.343 98.023 197.762C97.0953 197.02 96.3022 196.128 95.7532 195.019C92.1697 189.119 100.226 152.747 104.213 146.161C106.529 141.959 111.172 140.973 115.262 141.12L115.873 141.12C120.492 141.121 125.146 141.267 129.628 142.33C129.832 142.223 130.279 142.409 130.299 142.557C130.519 142.822 130.671 143.256 130.778 143.697C137.111 144.807 136.8 139.948 139.5 140.099ZM75.4819 400.205C73.977 402.059 74.6164 404.018 76.2447 405.493C81.8059 410.853 88.3353 415.794 95.7269 418.627C98.2173 418.727 100.808 418.424 103.333 418.519L103.44 418.531C104.312 418.619 104.749 418.572 104.965 417.619L105.111 417.251C105.369 416.598 105.619 415.943 105.782 415.261C104.488 416.915 102.022 417.284 100.021 417.084C96.5575 417.713 93.6958 415.11 90.9646 413.544C86.6839 410.495 77.1344 404.837 75.4819 400.205ZM34.0886 387.524L33.9798 387.527C33.0359 387.552 32.0577 387.639 31.1795 387.084C26.4115 387.352 21.692 387.868 16.9812 388.467C11.8018 389.427 3.78312 389.929 1.6498 383.103C1.2965 386.231 0.199645 387 3.66464 388.873C8.88117 392.76 13.9164 393.14 19.6535 391.785C23.7962 390.989 28.0888 390.665 32.1677 389.67L32.2253 389.648C33.0659 389.328 34.1804 388.616 34.0886 387.524ZM29.1114 372.062C28.686 369.467 26.0585 367.305 23.5663 367.448C22.671 369.549 22.5131 372.161 20.6707 373.658C21.7229 374.216 22.7617 374.805 23.7961 375.403L24.7422 375.951C25.2053 376.224 25.7784 376.624 25.5169 377.177C25.2278 377.789 24.5188 377.357 24.0565 377.038L23.8777 376.914C22.5825 376.01 21.2924 375.098 20.0357 374.133C19.0113 374.802 17.7904 375.198 16.6072 375.58L16.9957 375.754C18.3575 376.363 19.7378 376.959 21.0397 377.702C21.5898 378.088 21.1784 378.957 20.5757 378.692C19.0527 377.703 17.5531 376.653 15.9602 375.79C14.946 376.134 13.9348 376.482 12.9195 376.823C14.4762 377.584 16.1124 378.113 17.701 378.768C18.727 379.201 18.2408 380.78 17.2102 380.364C15.3586 379.585 13.6392 378.381 12.0359 377.12L10.8657 377.514C9.49998 377.972 8.13246 378.428 6.759 378.863C5.93178 379.128 4.91299 379.308 4.22574 379.848C1.90649 382.037 4.88478 385.727 7.43685 386.466C11.2795 387.696 15.1638 386.498 18.9444 386.228C20.9684 386.298 32.0662 384.026 32.5104 385.659C33.1416 385.541 33.9292 385.67 34.465 385.321C35.212 383.174 35.4926 380.77 35.8144 378.472C35.8603 378.068 35.83 377.557 35.9316 377.158C34.153 377.309 32.9607 379.582 30.9407 378.736C30.4398 379.205 29.5172 378.631 29.2031 378.04C28.8611 377.397 29.012 376.686 29.0839 376.034L29.1164 375.734C29.2443 374.531 29.3368 373.286 29.1114 372.062ZM132.642 202.317L132.365 202.309C129.555 202.22 126.686 201.899 124.081 200.889C123.035 202.65 121.884 207.249 119.788 207.396C119.067 207.462 118.17 206.952 118.096 206.149C114.245 204.882 110.46 203.304 106.662 201.861C103.823 200.714 100.794 199.793 98.2832 197.963C98.0482 199.938 97.6007 201.81 96.8221 203.664C93.6584 211.621 89.0581 218.906 85.8374 226.807L85.6851 227.184L85.6682 227.164C85.6635 227.18 85.6578 227.194 85.652 227.209C85.8421 227.341 86.0313 227.475 86.219 227.61C86.3066 227.592 86.3961 227.664 86.4258 227.759C100.245 237.744 115.924 245.057 132.715 247.696C135.65 248.178 138.611 248.5 141.584 248.717C141.643 248.438 142.044 248.483 142.031 248.76C142.684 248.832 143.339 248.893 143.979 248.995C143.975 248.745 144.037 248.495 144.182 248.296C146.581 244.748 147.408 240.116 148.28 235.939C149.716 229.556 150.398 223.072 151.322 216.624C146.809 214.988 142.505 212.77 137.869 211.457C136.961 212.68 134.916 213.313 133.833 212.121C133.068 211.282 133.161 209.996 133.091 208.887C132.953 206.696 132.797 204.506 132.642 202.317ZM129.76 142.574C124.471 142.646 119.2 142.239 113.901 142.495C109.607 142.354 106.067 144.237 104.476 148.816C101.099 158.633 99.0298 168.907 97.5274 179.143L97.4702 179.608C96.8557 184.575 96.1294 189.597 96.3238 194.571C98.2642 196.446 100.773 197.581 103.247 198.489C106.855 199.822 110.461 201.161 114.048 202.551L116.861 203.639C117.677 203.954 118.885 204.155 119.294 205.056C119.319 205.173 119.436 205.195 119.503 205.284L119.516 205.302C119.586 205.398 119.628 205.591 119.77 205.6C120.006 205.593 120.232 205.152 120.351 204.944L120.362 204.925C121.008 203.818 121.585 202.662 122.212 201.542C123.526 199.362 124.547 196.945 126.135 194.96C125.13 193.676 124.238 192.286 123.577 190.76L122.478 189.897C119.849 187.839 117.175 185.806 114.28 184.167C113.976 184.888 112.867 185.013 112.741 184.121C112.747 181.951 113.297 179.761 113.509 177.587C114.439 171.193 115.184 164.766 116.421 158.413C116.551 164.416 115.43 171.392 114.999 177.705C115.076 177.684 115.157 177.735 115.13 177.832C120.636 177.317 126.035 179.067 130.199 182.691C131.244 183.591 132.325 184.443 133.358 185.358C133.691 185.737 134.513 185.973 134.481 186.569C134.744 186.239 135.05 185.948 135.387 185.792C135.526 185.632 136.561 185.589 136.54 185.983C141.765 188.489 146.291 192.728 152.062 194.022C152.213 191.159 153.175 188.312 153.974 185.553L154.083 185.248C155.031 182.579 156.144 179.257 157.668 177.289C155.408 182.727 154.072 188.46 153.021 194.213C157.168 194.876 154.574 196.794 151.955 195.887C146.483 194.664 142.345 190.568 138.005 187.175C135.68 185.177 135.07 186.076 134.333 188.899C133.22 192.528 133.706 196.302 134.079 199.94L134.229 201.631C134.478 204.446 134.718 207.24 134.928 210.076C139.729 209.84 144.33 212.194 148.718 213.856C151.989 215.374 154.493 215.962 158.045 214.694C159.756 212.84 161.763 211.201 163.054 208.914C164.368 206.858 165.299 204.568 166.197 202.295L166.234 201.593C166.699 192.584 166.928 183.547 166.192 174.603L166.155 174.112C165.924 171.021 165.717 167.79 164.127 165.186C161.37 161.104 157.24 158.4 154.196 154.585L154.112 154.77C152.793 157.666 151.156 160.585 148.642 162.468C144.028 165.843 137.822 164.069 134.516 159.939C130.974 155.976 129.868 150.285 130.17 144.785L130.172 144.725C130.193 144.233 130.286 142.752 129.76 142.574ZM126.455 195.362C125.959 196.967 125.182 198.461 124.498 199.986C126.909 200.194 129.267 200.548 131.694 200.573C129.802 199.013 128.028 197.289 126.455 195.362ZM124.995 180.733C121.914 179.014 118.409 178.398 114.974 177.963C114.776 179.87 114.632 181.776 114.417 183.68C115.603 183.981 126.019 189.528 124.241 190.863C125.582 192.32 126.785 193.918 128.113 195.394C129.448 196.878 130.893 198.245 132.44 199.47L132.417 199.216C132.039 195.061 131.902 190.473 134.308 186.799C132.529 187.004 130.843 184.87 129.494 183.851C128.099 182.649 126.61 181.581 124.995 180.733ZM105.653 159.144C105.871 158.474 107.182 160.991 107.368 161.267L107.473 161.462C108.744 163.835 109.937 166.382 110.191 169.18C109.514 171.645 108 164.704 107.649 164.201C107.077 162.474 106.227 160.865 105.653 159.144ZM156.587 181.099C156.015 181.126 158.008 179.65 158.514 179.958C158.743 179.991 158.826 180.394 158.547 180.439L158.409 180.459C157.765 180.553 157.119 180.604 156.587 181.099Z" fill="#1B1B1B"/>
<path fill-rule="evenodd" clip-rule="evenodd" d="M160.918 99.9041C165.376 101.275 169.998 105.285 170.439 105.472L170.451 105.476C170.69 105.55 171.385 106.617 172.536 108.677L169.611 111.903L169.708 112.096C170.172 113.024 170.554 113.857 170.857 114.514C173.326 119.881 168.92 136.615 166.261 142.105C163.602 147.596 160.225 152.73 152.578 150.378C144.93 148.026 137.97 140.379 137.141 138.41C136.588 137.096 135.761 136.294 134.658 136.003C134.632 135.927 134.607 135.852 134.582 135.777L134.429 135.703C132.995 135.001 132.014 134.347 131.486 133.742C130.454 132.561 130.328 127.982 130.609 127.068C130.887 126.163 130.819 118.938 130.991 118.229L130.997 118.209C131.176 117.627 129.265 114.11 129.527 113.26C129.788 112.41 129.221 112.292 130.693 109.466L131.124 108.635C132.691 105.626 135.462 100.698 140.544 99.7494C146.127 98.7064 156.415 98.5193 160.918 99.9041Z" fill="white"/>
<path fill-rule="evenodd" clip-rule="evenodd" d="M160.909 99.936C165.367 101.307 169.989 105.316 170.429 105.504L170.441 105.508C170.68 105.582 171.375 106.649 172.527 108.709L171.87 109.432C163.035 106.921 156.753 105.844 153.026 106.2C148.704 106.613 144.44 111.918 140.232 122.116C138.68 122.398 137.061 122.899 135.374 123.62C133.686 124.34 133.168 124.821 133.817 125.062C133.013 127.471 132.67 129.22 132.786 130.31C132.903 131.399 134.157 132.405 136.548 133.327L136.469 135.792L136.059 136.82C135.654 136.438 135.183 136.176 134.648 136.035C134.623 135.959 134.597 135.884 134.572 135.809L134.419 135.735C132.986 135.033 132.004 134.379 131.476 133.774C130.444 132.593 130.318 128.014 130.599 127.1C130.878 126.195 130.809 118.97 130.981 118.26L130.987 118.241C131.166 117.659 129.255 114.142 129.517 113.292C129.778 112.442 129.211 112.324 130.683 109.498L131.114 108.667C132.681 105.658 135.453 100.73 140.534 99.7812C146.118 98.7383 156.405 98.5511 160.909 99.936Z" fill="#EEEEEE"/>
<path fill-rule="evenodd" clip-rule="evenodd" d="M139.838 99.4027C143.093 97.3553 158.031 97.2344 164.638 100.266L164.836 100.358C165.362 100.604 165.868 100.886 166.355 101.207C167.947 102.18 169.526 103.398 170.611 104.953C171.522 106.234 174.823 108.882 172.98 110.931C173.129 111.91 172.959 113.009 172.423 113.763C172.299 114.042 172.135 114.284 171.946 114.528C172.388 116.216 172.59 118.032 172.684 119.73C172.487 123.87 171.871 128.051 170.757 131.994C168.767 139.523 165.29 148.179 157.89 151.168C153.376 153.116 147.741 151.495 144.884 146.48C144.746 146.115 143.919 144.988 144.32 144.958C144.388 145.114 144.461 145.267 144.536 145.419C144.535 145.405 144.538 145.391 144.545 145.378L144.472 145.242C144.336 144.981 144.169 144.612 144.443 144.759C144.451 144.779 144.461 144.797 144.47 144.818C144.519 144.877 144.555 144.927 144.581 144.969L144.595 144.991L144.591 144.983C144.484 144.735 144.444 144.505 144.656 144.709L144.684 144.737C144.756 144.9 144.832 145.058 144.91 145.214C144.913 145.199 144.919 145.185 144.931 145.172L144.858 145.025C144.788 144.88 144.804 144.885 144.883 144.809C144.765 144.398 145.12 144.73 145.108 144.872C145.39 144.885 145.454 145.492 145.602 145.609C151.064 154.073 163.449 151.861 168.587 134.537L168.688 134.199C170.336 128.661 171.656 122.854 171.106 117.213C171.051 116.669 170.968 116.131 170.857 115.601C170.79 115.208 170.707 114.82 170.608 114.436C170.069 114.217 169.555 113.937 169.068 113.599C168.899 113.491 168.733 113.378 168.57 113.255C165.845 112.592 163.174 111.961 160.44 111.3L159.584 111.1C157.261 110.56 154.83 110.093 152.522 111.068C150.291 111.915 149.434 114.675 147.42 115.739C144.72 116.695 144.252 118.162 143.089 120.436C142.563 122.259 142.902 125.246 140.559 125.361C140.744 126.025 140.33 125.606 140.351 125.399C140.346 125.399 140.342 125.399 140.339 125.398C140.458 126.14 140.117 125.591 140.139 125.371C140.117 125.356 140.098 125.329 140.081 125.294C140.227 125.957 139.832 125.403 139.894 125.309C139.597 124.082 138.376 123.53 137.396 123.53C137.374 123.563 137.333 123.554 137.314 123.527C133.23 123.259 131.561 132.183 135.718 132.549C135.897 132.563 135.866 132.649 135.896 132.668C135.886 132.381 136.107 132.565 136.088 132.618L136.104 132.622C136.116 132.625 136.112 132.622 136.12 132.628C136.196 132.072 136.45 132.99 136.402 133.009C136.42 133.004 136.438 133.004 136.454 133.006L136.452 132.951C136.444 132.689 136.421 132.789 136.463 132.654C136.453 132.467 136.426 132.539 136.474 132.434C136.745 132.318 136.639 132.89 136.698 132.953C136.633 132.727 136.778 132.604 136.862 132.742C137.119 135.034 137.67 137.282 138.676 139.23C138.794 139.418 138.914 139.604 139.043 139.784C139.484 140.57 140.323 141.247 140.746 141.953C140.743 141.962 140.736 141.972 140.726 141.981L140.736 141.998L140.745 142.016L140.915 142.185C140.958 142.259 140.992 142.338 141.019 142.421C141.05 142.501 141.073 142.586 141.088 142.673C141.079 142.77 141.025 142.795 140.958 142.732C140.927 142.708 140.897 142.682 140.866 142.657C140.867 142.661 140.867 142.663 140.869 142.666C140.874 142.688 140.891 142.908 140.812 142.849L140.803 142.841C140.76 142.807 140.718 142.77 140.676 142.735C140.709 142.829 140.735 142.929 140.759 143.014C140.791 143.085 140.801 143.159 140.79 143.237C140.775 143.278 140.749 143.289 140.713 143.272C140.662 143.233 140.612 143.194 140.562 143.154L140.567 143.192C140.581 143.291 140.594 143.454 140.507 143.374C140.429 143.318 140.356 143.259 140.284 143.196C140.272 143.209 140.257 143.21 140.233 143.187C139.999 143.002 139.781 142.797 139.581 142.572C139.418 142.333 139.252 142.097 139.087 141.859C138.924 141.663 138.773 141.453 138.636 141.227C137.651 139.95 136.896 138.481 136.409 136.953C134.52 137.889 132.003 135.665 130.527 134.024C129.225 132.563 129.148 130.576 129.579 128.593C130.042 125.887 128.372 124.399 130.263 118.73C130.26 118.731 130.257 118.73 130.253 118.728C130.189 118.684 130.13 118.632 130.077 118.573C130.021 118.518 129.971 118.457 129.928 118.389L129.889 118.256C129.858 118.222 129.832 118.187 129.813 118.156L129.794 118.17C129.734 118.213 129.789 118.138 129.796 118.122L129.728 117.895C129.566 117.356 129.392 116.753 129.247 116.269L129.234 116.283C129.224 116.293 129.218 116.301 129.22 116.306C128.891 115.109 128.664 113.716 128.857 112.494C128.938 111.532 129.301 110.627 129.729 109.844C131.363 107.146 135.805 101.267 139.838 99.4027ZM144.681 145.164L144.653 145.113L144.674 145.171C144.684 145.202 144.696 145.23 144.72 145.262C144.72 145.254 144.723 145.246 144.726 145.238C144.711 145.215 144.696 145.19 144.681 145.164ZM164.156 101.726C159.62 99.85 154.68 99.5631 149.804 99.5552L149.466 99.5574C146.689 99.5692 143.79 99.4571 141.127 100.492C137.364 102.079 134.592 105.593 132.111 108.862C130.092 111.236 129.745 114.507 130.932 116.964C131.7 115.122 132.582 113.375 133.636 111.698C133.826 111.444 133.777 111.326 134.01 111.357C132.829 116.387 130.064 119.522 131.525 126.363C132.091 129.553 129.835 131.066 133.38 133.743L133.474 133.822C134.2 134.421 135.025 134.971 135.898 135.03L135.865 134.877C135.832 134.721 135.829 134.649 135.955 134.625C135.954 134.617 135.952 134.61 135.95 134.601C135.918 134.393 135.89 134.184 135.866 133.974C135.83 133.976 135.794 133.974 135.757 133.974C135.766 134.025 135.755 134.071 135.688 134.067C135.444 134.082 135.208 134.046 134.982 133.959L134.934 133.94C134.679 133.843 134.531 133.74 134.399 133.647C134.353 133.623 134.306 133.599 134.262 133.574C133.825 133.314 133.414 132.868 133.179 132.48C130.194 129.052 132.976 121.363 137.751 122.024C139.356 117.138 144.043 109.503 149.029 105.911C153.559 102.588 162.883 103.412 168.768 105.943C168.847 106.002 168.926 106.062 169.004 106.122C169.915 106.502 170.67 107.235 171.544 107.737C171.04 106.976 170.387 106.372 169.695 105.816C168.447 104.282 166.821 103.159 165.205 102.222C164.874 102.015 164.525 101.849 164.156 101.726ZM136.329 125.908C136.618 125.838 136.547 125.97 136.616 125.947C138.423 126.33 139.802 128.599 140.353 130.306C140.249 130.37 140.119 130.044 140.095 129.992C140.088 129.995 140.081 129.998 140.074 129.998L140.089 130.049C140.295 130.797 139.731 129.818 139.704 129.644C139.688 129.647 139.674 129.648 139.66 129.64C139.702 129.726 139.84 129.96 139.834 130.095L139.871 130.157C140.211 130.752 140.068 131.077 139.72 130.274C139.724 130.307 139.721 130.336 139.705 130.355L139.72 130.374C139.924 130.66 139.968 131.297 139.59 130.541C139.517 130.986 139.16 129.973 139.138 129.973C138.36 128.74 137.075 127.378 135.785 126.851L135.741 126.832C135.509 126.722 135.418 126.608 135.557 126.46C135.281 126.29 135.401 126.15 135.541 126.199C135.376 125.982 135.612 125.895 135.717 125.99C135.711 125.708 135.997 125.982 136.039 125.956C136.305 125.714 136.277 125.976 136.329 125.908ZM137.512 108.939C138.461 108.86 140.645 110.641 140.032 111.922C139.818 112.194 139.372 112.25 139.151 111.992L138.872 111.617C138.388 110.967 137.947 110.391 137.399 109.785C137.094 109.474 137.067 109.005 137.512 108.939ZM142.932 108.422L142.677 108.09C141.304 106.287 139.402 103.611 143.209 106.946C143.64 107.336 144.265 107.682 144.379 108.29C144.513 109.389 143.358 109.105 142.932 108.422ZM144.87 102.826C144.909 102.196 146.455 103.425 146.911 103.764L146.979 103.82C147.415 104.176 147.928 104.54 148.081 105.101C148.23 105.858 147.482 105.776 147.135 105.348C146.436 104.431 145.601 103.644 144.87 102.826ZM150.181 101.468C149.555 99.981 151.855 101.928 152.155 102.365L152.164 102.377C152.39 102.696 152.179 103.169 151.856 103.228C151.06 103.001 150.699 102.1 150.181 101.468ZM155.083 101.557C153.89 99.8363 155.782 101.062 156.352 101.768C156.697 102.392 155.946 103.036 155.083 101.557Z" fill="#1B1B1B"/>
<path fill-rule="evenodd" clip-rule="evenodd" d="M157.588 139.383C157.831 139.139 158.266 138.978 158.576 139.119C159.964 139.748 159.373 141.66 158.472 142.605C157.673 143.443 156.47 143.709 155.472 143.309C154.423 142.889 153.718 141.916 153.653 140.692C153.609 139.883 153.899 138.502 154.759 138.232C154.775 138.227 154.796 138.236 154.803 138.252C155.01 138.79 154.824 139.443 154.974 140.016C155.113 140.549 155.43 141.051 155.917 141.263C156.281 141.422 156.708 141.391 156.969 141.067C157.11 140.892 157.134 140.78 157.146 140.634L157.156 140.506C157.19 140.058 157.246 139.727 157.588 139.383ZM160.554 131.114C161.153 131.846 161.943 133.365 160.751 134.356C159.461 135.155 158.472 133.479 157.97 132.704C157.477 132.072 156.424 132.985 156.849 133.677C160.525 139.136 164.726 132.54 161.116 130.643C160.718 130.434 160.404 130.899 160.554 131.114ZM155.759 119.581L155.99 119.558C156.777 119.485 157.84 119.447 158.217 120.242C158.45 120.733 158.344 121.317 157.95 121.707C157.473 122.18 156.924 122.027 156.373 121.948C155.747 121.86 155.084 121.853 154.449 121.939C153.733 122.036 153.041 122.218 152.347 122.445C151.688 122.662 150.956 123.122 150.271 123.04C150.243 123.037 150.217 123.015 150.22 122.982C150.286 122.245 150.904 121.69 151.435 121.262C152.078 120.744 152.778 120.373 153.524 120.076C154.244 119.789 155.006 119.656 155.759 119.581ZM167.703 125.946L167.769 125.953C168.216 126.007 168.595 126.142 168.802 126.607C168.96 126.962 168.942 127.353 168.712 127.687C168.5 127.995 168.154 128.268 167.783 128.233C166.534 128.113 165.244 127.672 164.119 127.126C163.604 126.876 163.09 126.606 162.614 126.283L162.395 126.132C161.998 125.86 161.539 125.562 161.328 125.111C161.252 124.949 161.374 124.787 161.53 124.771C162.16 124.704 162.884 125.066 163.484 125.23C164.182 125.42 164.891 125.577 165.603 125.71C166.298 125.841 166.999 125.875 167.703 125.946Z" fill="#1B1B1B"/>
<path fill-rule="evenodd" clip-rule="evenodd" d="M169.28 134.524C167.648 135.518 165.505 135.288 164.118 134.06C160.56 130.899 164.397 125.633 168.075 125.034C168.507 125.048 169.119 124.954 169.622 125.045C169.674 125.035 169.748 125.133 169.884 125.104C173.271 126.615 172.239 132.827 169.28 134.524ZM155.823 130.769C153.859 132.318 151.146 132.149 149.363 130.599C145.825 127.592 148.877 122.815 152.296 121.626C158.933 121.021 159.475 127.92 155.823 130.769ZM148.324 123.691C148.321 123.688 148.318 123.685 148.315 123.682C148.339 123.678 148.364 123.675 148.389 123.671C148.376 123.689 148.362 123.706 148.349 123.724C148.341 123.713 148.334 123.701 148.324 123.691ZM173.972 129.25C173.639 129.148 173.14 129.06 172.787 129.227C172.877 126.518 171.082 123.433 168.383 124.45C166.481 124.525 164.796 125.47 163.525 127.024C162.48 125.775 160.316 125.506 158.839 126.279C158.92 123.376 157.384 121.878 155.254 121.072C153.014 119.919 149.878 121.706 148.521 123.496C147.932 123.231 147.081 122.737 146.378 122.972C142.964 120.75 136.603 118.147 135.659 118.508C135.046 118.569 134.319 119.874 135.053 120.183C135.745 120.283 135.291 119.135 135.987 119.239C139.606 120.089 142.807 121.927 146.214 123.332C146.386 123.889 147.35 124.354 147.947 124.335C146.045 127.494 147.164 130.385 149.7 131.928C153.629 134.305 158.612 131.286 158.828 126.618C160.334 126.314 161.808 126.801 163.099 127.602C157.851 136.313 171.897 140.169 172.775 129.577C173.98 130.808 174.682 129.641 173.972 129.25Z" fill="#1B1B1B"/>
<circle cx="152.403" cy="127.095" r="2.5" transform="rotate(36.2249 152.403 127.095)" fill="#1B1B1B"/>
<path d="M167.862 132.222C167.046 133.336 165.684 133.742 164.57 132.926C163.456 132.11 163.214 130.545 164.03 129.432C164.846 128.318 166.411 128.076 167.525 128.892C168.638 129.708 168.678 131.108 167.862 132.222Z" fill="#1B1B1B"/>
<g filter="url(#filter3_d_116_6609)">
<path d="M325.152 179.525C327.979 181.744 330.251 183.969 335.889 190.202C336.407 205.196 335.311 213.038 328.39 225H94.5608C88.7902 220.295 79.541 217.694 80.0177 180.5L102.401 149.472C108.4 140.325 111.872 136.116 119.955 144.727L132.396 158.567C142.392 170.856 148.702 166.696 160.006 158.567C166.207 151.52 169.676 151.769 175.856 162.917C181.46 174.049 184.69 179.935 190.513 190.202C199.539 200.712 204.989 200.028 215.225 190.202C229.029 170.744 236.044 157.773 247.436 131.282C253.691 121.293 258.35 121.856 268.228 131.282C276.813 144.234 281.497 151.829 288.509 168.848C294.546 182.179 299.359 184.107 309.983 179.525C315.015 172.237 318.188 170.997 325.152 179.525Z" fill="#00CACB"/>
</g>
<g filter="url(#filter4_d_116_6609)">
<path d="M137.244 162.458C116.087 189.109 104.056 201.651 80.4813 193.947C79.9377 198.874 79.7484 201.536 80.4813 205.356C80.4813 224.5 79.392 225.983 83.072 230H336C336 222.5 334.793 218.38 336 205.356L295.48 176.605C284.72 167.751 278.531 169.026 267.361 176.605C253.513 187.881 245.518 196.139 231.033 212.658C218.891 218.38 212.086 216.937 199.945 212.658C181.376 204.254 171.045 196.272 152.963 167.934C147.773 159.532 145.159 153.455 137.244 162.458Z" fill="#22FFFF"/>
</g>
</g>
</g>
<defs>
<filter id="filter0_dddddd_116_6609" x="0" y="0.147609" width="416" height="409.852" filterUnits="userSpaceOnUse" color-interpolation-filters="sRGB">
<feFlood flood-opacity="0" result="BackgroundImageFix"/>
<feColorMatrix in="SourceAlpha" type="matrix" values="0 0 0 0 0 0 0 0 0 0 0 0 0 0 0 0 0 0 127 0" result="hardAlpha"/>
<feOffset dy="0.559259"/>
<feGaussianBlur stdDeviation="1.1069"/>
<feColorMatrix type="matrix" values="0 0 0 0 0 0 0 0 0 0 0 0 0 0 0 0 0 0 0.0468848 0"/>
<feBlend mode="normal" in2="BackgroundImageFix" result="effect1_dropShadow_116_6609"/>
<feColorMatrix in="SourceAlpha" type="matrix" values="0 0 0 0 0 0 0 0 0 0 0 0 0 0 0 0 0 0 127 0" result="hardAlpha"/>
<feOffset dy="2.62385"/>
<feGaussianBlur stdDeviation="2.66004"/>
<feColorMatrix type="matrix" values="0 0 0 0 0 0 0 0 0 0 0 0 0 0 0 0 0 0 0.0647322 0"/>
<feBlend mode="normal" in2="effect1_dropShadow_116_6609" result="effect2_dropShadow_116_6609"/>
<feColorMatrix in="SourceAlpha" type="matrix" values="0 0 0 0 0 0 0 0 0 0 0 0 0 0 0 0 0 0 127 0" result="hardAlpha"/>
<feOffset dy="7.16485"/>
<feGaussianBlur stdDeviation="5.00862"/>
<feColorMatrix type="matrix" values="0 0 0 0 0 0 0 0 0 0 0 0 0 0 0 0 0 0 0.0786233 0"/>
<feBlend mode="normal" in2="effect2_dropShadow_116_6609" result="effect3_dropShadow_116_6609"/>
<feColorMatrix in="SourceAlpha" type="matrix" values="0 0 0 0 0 0 0 0 0 0 0 0 0 0 0 0 0 0 127 0" result="hardAlpha"/>
<feOffset dy="16.347"/>
<feGaussianBlur stdDeviation="8.93452"/>
<feColorMatrix type="matrix" values="0 0 0 0 0 0 0 0 0 0 0 0 0 0 0 0 0 0 0.0940847 0"/>
<feBlend mode="normal" in2="effect3_dropShadow_116_6609" result="effect4_dropShadow_116_6609"/>
<feColorMatrix in="SourceAlpha" type="matrix" values="0 0 0 0 0 0 0 0 0 0 0 0 0 0 0 0 0 0 127 0" result="hardAlpha"/>
<feOffset dy="36.5967"/>
<feGaussianBlur stdDeviation="16.711"/>
<feColorMatrix type="matrix" values="0 0 0 0 0 0 0 0 0 0 0 0 0 0 0 0 0 0 0.1174 0"/>
<feBlend mode="normal" in2="effect4_dropShadow_116_6609" result="effect5_dropShadow_116_6609"/>
<feColorMatrix in="SourceAlpha" type="matrix" values="0 0 0 0 0 0 0 0 0 0 0 0 0 0 0 0 0 0 127 0" result="hardAlpha"/>
<feOffset dy="100"/>
<feGaussianBlur stdDeviation="40"/>
<feColorMatrix type="matrix" values="0 0 0 0 0 0 0 0 0 0 0 0 0 0 0 0 0 0 0.18 0"/>
<feBlend mode="normal" in2="effect5_dropShadow_116_6609" result="effect6_dropShadow_116_6609"/>
<feBlend mode="normal" in="SourceGraphic" in2="effect6_dropShadow_116_6609" result="shape"/>
</filter>
<filter id="filter1_d_116_6609" x="80" y="40" width="299" height="211" filterUnits="userSpaceOnUse" color-interpolation-filters="sRGB">
<feFlood flood-opacity="0" result="BackgroundImageFix"/>
<feColorMatrix in="SourceAlpha" type="matrix" values="0 0 0 0 0 0 0 0 0 0 0 0 0 0 0 0 0 0 127 0" result="hardAlpha"/>
<feOffset dx="22"/>
<feGaussianBlur stdDeviation="10.5"/>
<feComposite in2="hardAlpha" operator="out"/>
<feColorMatrix type="matrix" values="0 0 0 0 0 0 0 0 0 0 0 0 0 0 0 0 0 0 0.25 0"/>
<feBlend mode="normal" in2="BackgroundImageFix" result="effect1_dropShadow_116_6609"/>
<feBlend mode="normal" in="SourceGraphic" in2="effect1_dropShadow_116_6609" result="shape"/>
</filter>
<filter id="filter2_d_116_6609" x="86" y="88" width="293" height="163" filterUnits="userSpaceOnUse" color-interpolation-filters="sRGB">
<feFlood flood-opacity="0" result="BackgroundImageFix"/>
<feColorMatrix in="SourceAlpha" type="matrix" values="0 0 0 0 0 0 0 0 0 0 0 0 0 0 0 0 0 0 127 0" result="hardAlpha"/>
<feOffset dx="22"/>
<feGaussianBlur stdDeviation="10.5"/>
<feComposite in2="hardAlpha" operator="out"/>
<feColorMatrix type="matrix" values="0 0 0 0 0 0 0 0 0 0 0 0 0 0 0 0 0 0 0.25 0"/>
<feBlend mode="normal" in2="BackgroundImageFix" result="effect1_dropShadow_116_6609"/>
<feBlend mode="normal" in="SourceGraphic" in2="effect1_dropShadow_116_6609" result="shape"/>
</filter>
<filter id="filter3_d_116_6609" x="80" y="103" width="299" height="143" filterUnits="userSpaceOnUse" color-interpolation-filters="sRGB">
<feFlood flood-opacity="0" result="BackgroundImageFix"/>
<feColorMatrix in="SourceAlpha" type="matrix" values="0 0 0 0 0 0 0 0 0 0 0 0 0 0 0 0 0 0 127 0" result="hardAlpha"/>
<feOffset dx="22"/>
<feGaussianBlur stdDeviation="10.5"/>
<feComposite in2="hardAlpha" operator="out"/>
<feColorMatrix type="matrix" values="0 0 0 0 0 0 0 0 0 0 0 0 0 0 0 0 0 0 0.25 0"/>
<feBlend mode="normal" in2="BackgroundImageFix" result="effect1_dropShadow_116_6609"/>
<feBlend mode="normal" in="SourceGraphic" in2="effect1_dropShadow_116_6609" result="shape"/>
</filter>
<filter id="filter4_d_116_6609" x="80" y="137" width="299" height="114" filterUnits="userSpaceOnUse" color-interpolation-filters="sRGB">
<feFlood flood-opacity="0" result="BackgroundImageFix"/>
<feColorMatrix in="SourceAlpha" type="matrix" values="0 0 0 0 0 0 0 0 0 0 0 0 0 0 0 0 0 0 127 0" result="hardAlpha"/>
<feOffset dx="22"/>
<feGaussianBlur stdDeviation="10.5"/>
<feComposite in2="hardAlpha" operator="out"/>
<feColorMatrix type="matrix" values="0 0 0 0 0 0 0 0 0 0 0 0 0 0 0 0 0 0 0.25 0"/>
<feBlend mode="normal" in2="BackgroundImageFix" result="effect1_dropShadow_116_6609"/>
<feBlend mode="normal" in="SourceGraphic" in2="effect1_dropShadow_116_6609" result="shape"/>
</filter>
<linearGradient id="paint0_linear_116_6609" x1="119.221" y1="3" x2="363.04" y2="133.815" gradientUnits="userSpaceOnUse">
<stop stop-color="#1C737C"/>
<stop offset="1" stop-color="#033338"/>
</linearGradient>
<clipPath id="clip0_116_6609">
<path d="M80 67C80 31.6538 108.654 3 144 3H272C307.346 3 336 31.6538 336 67V230H80V67Z" fill="white"/>
</clipPath>
</defs>
</svg>
