<svg width="416" height="410" viewBox="0 0 416 410" fill="none" xmlns="http://www.w3.org/2000/svg">
<g filter="url(#filter0_dddddd_78_10479)">
<g clip-path="url(#clip0_78_10479)">
<path d="M80 67C80 31.6538 108.654 3 144 3H272C307.346 3 336 31.6538 336 67V230H80V67Z" fill="url(#paint0_linear_78_10479)"/>
<g filter="url(#filter1_d_78_10479)">
<path d="M94.517 138.865L80.0035 107.905V189.447C79.9243 212.454 81.1129 223.304 90.8449 230H324.809C332.658 225.489 334.975 220.761 336 209.069V70.4046C328.409 64.9738 324.955 70.605 320.263 96.5677C311.91 93.7586 305.406 97.4456 292.46 107.905C285.303 109.995 279.901 99.7718 270.077 79.9977C259.419 59.8747 253.714 49.9424 253.116 79.9977L253.03 80.6985C250.687 99.917 249.347 110.904 238.078 117.062C232.369 115.626 228.662 108.818 222.119 96.8031L221.991 96.5677C214.674 88.3909 210.509 90.0402 202.931 107.905L181.598 156.307C174.089 166.304 170.066 172.715 156.418 156.307C151.155 151.549 147.112 146.901 135.959 131.452C125.123 109.795 118.905 96.1708 113.577 131.452C111.712 136.773 110.951 140.293 109.905 147.15C104.695 151.245 101.92 154.888 94.517 138.865Z" fill="#00686B"/>
</g>
<g filter="url(#filter2_d_78_10479)">
<path d="M96.8553 175.52C94.0261 178.178 91.7524 180.844 86.1113 188.311C85.5927 206.275 86.6899 215.669 93.6151 230H327.595C333.369 224.363 336.428 220.079 335.951 175.52L319.75 139.516C313.747 128.557 310.272 123.515 302.185 133.831L289.735 150.412C279.733 165.134 273.419 160.151 262.108 150.412C255.903 141.969 252.432 142.268 246.248 155.623C240.639 168.96 237.407 176.011 231.581 188.311C222.549 200.902 217.096 200.084 206.853 188.311C193.04 165 186.02 149.46 174.621 117.724C168.362 105.757 163.7 106.431 153.815 117.724C145.225 133.241 140.538 142.339 133.521 162.729C127.48 178.7 122.665 181.009 112.033 175.52C106.998 166.788 103.824 165.303 96.8553 175.52Z" fill="#00989A"/>
</g>
<g filter="url(#filter3_d_78_10479)">
<path d="M325.152 179.525C327.979 181.744 330.251 183.969 335.889 190.202C336.407 205.196 335.311 213.038 328.39 225H94.5608C88.7902 220.295 79.541 217.694 80.0177 180.5L102.401 149.472C108.4 140.325 111.872 136.116 119.955 144.727L132.396 158.567C142.392 170.856 148.702 166.696 160.006 158.567C166.207 151.52 169.676 151.769 175.856 162.917C181.46 174.049 184.69 179.935 190.513 190.202C199.539 200.712 204.989 200.028 215.225 190.202C229.029 170.744 236.044 157.773 247.436 131.282C253.691 121.293 258.35 121.856 268.228 131.282C276.813 144.234 281.497 151.829 288.509 168.848C294.546 182.179 299.359 184.107 309.983 179.525C315.015 172.237 318.188 170.997 325.152 179.525Z" fill="#00CACB"/>
</g>
<path fill-rule="evenodd" clip-rule="evenodd" d="M268.073 378.533C268.595 375.729 267.583 373.548 264.86 372.014C264.605 371.361 259.381 369.416 255.174 366.426C251.394 363.74 248.582 359.96 248.462 359.749C247.858 358.373 247.512 357.371 247.425 356.742C246.799 352.222 246.945 349.237 246.612 347.836C248.479 347.495 247.957 214.196 247.04 209.813C248.251 209.473 249.536 209.113 250.672 208.316C250.764 208.286 250.6 207.997 250.602 207.941C253.284 201.561 247.976 180.422 244.937 174.631C247.167 174.481 250.095 174.036 251.399 171.947C252.044 171.687 252.441 171.261 252.733 170.591C253.074 169.95 253.388 169.279 253.668 168.593C255.025 165.162 255.798 161.38 255.158 157.682C255.252 157.646 255.738 157.624 255.757 157.474C255.769 156.558 255.585 155.759 255.3 154.906C252.371 145.283 248.926 135.83 244.509 126.834C242.283 122.014 238 120.389 233.563 118.719C231.428 117.899 229.287 116.94 227.072 116.434C227.038 116.268 227.149 115.754 226.863 115.806C226.512 115.901 226.606 116.521 226.488 116.875C221.244 112.54 224.368 110.082 221.216 107.718C217.984 106.048 214.125 106.124 210.653 106.647C209.368 106.737 208.363 107.41 208.114 108.835C207.121 111.803 204.613 114.056 201.812 114.826C201.561 114.381 200.869 113.103 200.525 113.528C196.448 113.838 190.322 115.713 186.548 117.085C182.753 118.303 178.948 120.405 178.12 124.995C176.612 133.174 180.796 166.39 185.795 172.625L185.95 172.621C186.828 173.53 188 174.176 189.315 174.588C189.402 177.59 188.649 180.553 188.331 183.504C187.566 188.863 187.026 194.22 186.151 199.612C186.169 200.208 184.427 208.445 186.392 206.731C186.819 206.939 187.341 207.164 187.8 207.357C185.853 212.801 185.201 221.489 185.609 228.106C185.799 232.049 185.783 235.51 185.129 239.58C180.455 274.033 178.124 350.779 178.039 351.807C177.962 352.789 178.926 358.069 178.336 359.494C177.812 360.759 175.344 360.119 174.896 360.617C173.768 362.818 174.376 364.17 173.465 366.359C172.974 366.877 171.877 368.01 171.532 368.791C170.806 369.616 158.618 379.08 159.179 380.423C159.179 380.423 159.147 381.08 159.133 381.222C158.326 388.053 160.104 387.928 165.9 388.704C174.373 390 180.538 386.64 187.486 382.202C189.78 380.372 193.01 376.921 191.765 373.031C191.726 372.792 190.918 368.68 190.58 366.589C191.001 365.45 190.315 364.985 188.523 365.194C188.946 364.646 189.655 357.724 189.287 356.826C188.986 354.489 189.231 352.347 189.034 349.937C190.167 349.985 206.034 246.581 218.225 239.723C218.328 240.401 218.228 241.676 219.062 241.771C224.173 274.391 236.255 347.443 236.685 347.556C236.192 351.322 236.546 359.996 236.677 363.712C236.583 363.815 236.153 364.268 236.085 364.377C236.068 364.35 235.789 364.68 235.775 364.688L235.731 364.591C234.546 367.867 232.765 371.263 234.574 374.359C233.318 374.308 233.62 376.932 233.611 378.145C234.416 380.487 254.943 386.099 259.486 386.227C260.986 386.454 267.828 383.778 269.149 383.38C270.865 382.96 269.033 379.517 268.073 378.533Z" fill="white"/>
<path fill-rule="evenodd" clip-rule="evenodd" d="M201.683 114.597L201.812 114.826C205.043 123.883 209.951 128.635 216.534 129.082C223.117 129.528 226.411 127.102 226.415 121.803L226.913 115.803C227.135 115.819 227.039 116.279 227.071 116.434C229.286 116.94 231.428 117.899 233.563 118.719L234.227 118.97C238.423 120.56 242.394 122.255 244.508 126.834C248.926 135.83 252.37 145.282 255.299 154.905C255.584 155.759 255.769 156.558 255.756 157.474C255.738 157.623 255.251 157.646 255.158 157.682C255.797 161.38 255.024 165.162 253.667 168.593C253.387 169.279 253.074 169.95 252.732 170.591C252.44 171.261 252.043 171.687 251.398 171.947C250.094 174.036 247.167 174.481 244.937 174.63C247.976 180.422 253.283 201.561 250.601 207.941C250.599 207.997 250.724 209.595 250.633 209.625C249.496 210.423 247.415 210.938 246.204 211.279L244.026 211.705C244.128 212.29 247.247 212.613 247.336 216L186.896 220.297C187.147 215.574 186.995 212.419 188.234 208.953L186.539 208.334C186.133 208.162 186.758 206.909 186.391 206.73C184.427 208.444 186.169 200.208 186.151 199.611C187.025 194.22 187.565 188.863 188.331 183.504C188.648 180.553 188.982 178.222 188.895 175.22C187.607 174.816 187.042 174.858 186.169 173.979L185.83 173.551L185.538 172.652C180.538 166.417 176.612 133.174 178.12 124.995C178.948 120.405 182.753 118.303 186.547 117.085L186.777 117.002C190.565 115.639 196.529 113.832 200.524 113.528C200.82 113.163 201.374 114.057 201.683 114.597ZM208.189 150.26C205.072 150.38 201.775 150.91 198.297 151.848L197.779 152.717L198.527 157.799C200.676 157.47 202.962 157.712 205.385 158.526L205.501 158.565C207.967 159.411 209.732 160.065 210.796 160.527L214.714 163.86L213.74 170.117L214.033 170.12C218.781 170.17 221.435 169.808 221.993 169.033C222.563 168.242 222.8 167.455 222.702 166.671L222.574 166.373C220.505 161.526 219.561 158.395 219.744 156.98C219.93 155.536 219.887 154.412 219.614 153.607L219.345 153.467C214.963 151.211 211.244 150.142 208.189 150.26Z" fill="#EEEEEE"/>
<path fill-rule="evenodd" clip-rule="evenodd" d="M208.926 108.006C209.581 107.959 209.742 108.856 209.307 109.247L209.289 109.262C208.918 109.573 208.749 109.845 208.56 110.326C207.66 113.29 204.871 115.078 202.055 114.564C203.101 116.502 203.826 118.388 204.871 120.292C209.729 130.172 224.533 132.876 225.757 119.016C223.045 118.552 221.196 112.01 222.846 109.973L222.902 110.211C223.499 112.778 223.942 115.413 225.813 117.294C225.868 117.31 225.921 117.313 225.972 117.311C226.027 116.954 226.092 116.601 226.177 116.254C226.384 115.406 227.586 115.518 227.588 116.426C231.215 117.479 234.722 119.034 238.211 120.532C241.112 121.779 243.534 124.116 244.979 127.137C249.023 135.399 252.206 144.161 255.027 152.991C255.239 154.191 257.264 158.602 255.787 159.091C256.296 162.769 255.503 166.541 254.183 169.913C253.559 171.185 253.151 172.93 251.822 173.502C250.494 175.478 247.951 176.075 245.823 176.293C248.977 183.557 253.6 202.192 251.247 209.622C251.527 210.815 248.511 211.503 247.709 211.81C248.529 216.059 248.556 220.468 248.44 224.784C247.211 261.607 248.134 298.55 252.335 335.174C252.587 337.457 252.852 339.739 253.127 342.02L253.293 343.388C253.511 345.209 253.708 347.024 253.74 348.867C253.752 349.506 253.282 349.909 252.798 349.96C251.213 351.158 249.025 351.252 247.151 351.599C247.56 353.57 247.866 356.658 248.513 358.304C249.713 357.912 250.542 359.116 249.36 359.86C250.883 360.704 251.715 362.4 252.953 363.565C256.169 361.988 256.862 364.132 254.207 364.73C254.959 365.364 255.755 365.947 256.575 366.497L256.631 366.486C257.568 366.294 259.314 365.373 259.804 366.484C260.036 367.293 259.123 367.588 258.458 367.713C259.067 368.098 259.678 368.482 260.289 368.864C260.8 368.594 261.305 368.261 261.829 368.04C263.125 367.672 263.309 369.521 261.606 369.691C262.709 370.512 264.165 369.958 264.896 371.149C267.439 372.155 268.75 375.439 268.269 378.122C269.179 378.941 269.845 380.195 269.966 381.476C270.188 382.846 269.236 384.178 267.891 384.593C266.383 385.208 264.85 385.776 263.32 386.313L263.16 386.38C261.903 386.904 260.526 387.383 259.196 387.351C251.307 387.142 240.678 384.018 234.21 379.87C232.59 378.641 232.192 375.464 234.314 374.361C233.242 372.427 233.663 370.976 234.002 368.812C234.241 367.399 234.584 365.947 235.255 364.623C235.314 364.505 235.469 364.534 235.482 364.647C235.633 366.109 235.566 367.613 235.523 369.093L235.518 369.257C235.481 370.621 235.299 371.13 235.686 372.405C236.623 375.662 244.489 377.002 247.608 378.24C250.047 378.961 252.519 379.596 255.022 380.141L255.205 380.177C257.316 380.599 259.5 381.277 261.688 380.797C262.796 379.845 264.521 380.034 265.603 378.952C267.22 376.89 265.775 374.015 264.519 372.246C263.387 372.69 262.364 371.652 261.497 371.116L261.465 371.096C260.58 370.534 259.735 370.984 258.848 370.423L258.655 370.471C255.506 371.254 253.078 372.102 258.064 369.93C257.208 369.394 256.35 368.852 255.517 368.28C253.863 368.563 252.078 369.586 250.536 369.732C251.535 368.634 252.931 367.994 254.246 367.361C253.442 366.745 252.675 366.084 251.983 365.349L251.357 365.546C247.51 366.75 245.994 367.114 251.128 364.341C250.051 363.133 249.812 361.292 248.635 360.162C246.832 360.648 245.193 361.587 243.754 362.773C243.173 363.264 242.744 363.867 242.292 364.472C240.164 367.718 236.698 368.341 235.475 364.283C235.453 364.199 235.572 364.143 235.609 364.212L235.613 364.222C236.171 365.461 237.853 366.419 239.196 365.583L239.236 365.557C240.549 364.742 241.112 363.16 242.128 362.058C243.501 360.596 245.252 359.584 247.07 358.805C246.554 357.038 246.278 353.795 246.248 351.7C243.147 351.98 240.014 351.937 236.937 351.41C237.576 355.283 237.45 360.361 237.809 363.823C238.179 364.975 236.231 365.779 235.976 364.627C235.715 360.876 235.842 355.446 236.204 351.235L235.983 351.185C235.774 351.137 235.554 351.078 235.372 350.975C233.423 351.293 233.747 345.839 233.36 344.323C229.849 310.708 223.906 277.491 218.659 244.165C218.101 243.957 217.976 243.226 217.861 242.615C213.019 246.491 212.31 253.891 210.299 259.684C201.695 289.607 198.544 320.947 192.965 351.634L193.002 351.643C193.029 351.651 193.029 351.655 192.974 351.653L192.961 351.653L192.961 351.655C193.381 351.699 193.728 352.165 193.491 352.62C192.795 354.325 190.664 353.813 189.273 353.76C189.507 356.335 189.216 361.922 189.625 364.209C191.338 364.177 191.526 366.23 191.8 367.443L191.822 367.568C192.206 369.645 193.373 373.522 192.679 375.24C193.911 376.719 193.147 378.824 191.97 379.912C190.706 381.014 189.107 381.693 187.664 382.561C180.845 385.888 174.362 392.047 165.773 390.105L165.399 390.034C159.388 388.889 157.653 388.344 158.588 381.86C158.051 380.571 157.993 379.138 158.632 377.954C159.785 376.199 161.798 375.185 163.378 373.824C166.061 371.692 168.931 369.807 171.546 367.595C171.442 367.504 171.58 367.464 171.663 367.476C173.503 365.776 173.216 362.967 174.467 360.906C174.759 359.857 176.426 359.54 177.535 359.641C177.116 357.725 178.462 348.874 178.916 355.071L178.919 355.16C178.96 356.118 179.227 359.311 178.993 359.947C182.706 361.029 183.644 364.843 184.548 367.917L184.6 367.93C184.853 367.99 185.19 368.034 185.326 368.298C186.473 367.435 186.74 365.812 187.848 364.902C187.517 364.641 187.48 364.119 187.628 363.709C188.078 361.56 188.187 356.131 188.899 353.723C185.102 353.252 181.246 353.086 177.517 352.108C177.058 352.64 176.069 352.496 176.071 351.568C176.433 331.323 177.619 311.109 179.319 290.958C180.629 272.106 183.493 253.434 185.265 234.663L185.187 232.1C184.957 224.392 184.844 216.565 187.195 209.209C186.96 209.108 186.726 209.003 186.495 208.892C183.691 210.293 185.636 202.36 185.687 200.942C186.773 192.689 188.108 184.428 188.843 176.138C187.722 175.744 186.679 175.165 185.794 174.299C180.462 169.916 176.041 132.925 177.627 125.392C178.424 120.661 182.479 118.195 186.388 116.982L186.965 116.779C191.324 115.254 195.765 113.853 200.347 113.374C200.504 113.206 200.987 113.234 201.055 113.367C201.35 113.545 201.637 113.904 201.883 114.285C208.228 113.239 206.328 108.755 208.926 108.006ZM234.491 374.651C233.684 376.899 234.935 378.536 236.959 379.39C243.98 382.61 251.776 385.115 259.688 385.345C262.072 384.616 264.416 383.473 266.831 382.729L266.936 382.704C267.788 382.499 268.185 382.311 268.073 381.339L268.09 380.944C268.118 380.242 268.137 379.542 268.066 378.844C267.391 380.833 265.185 381.997 263.231 382.469C260.17 384.208 256.609 382.697 253.513 382.122C248.465 380.66 237.582 378.476 234.491 374.651ZM191.233 376.367L191.131 376.405C190.249 376.742 189.355 377.147 188.342 376.913C183.931 378.742 179.647 380.789 175.399 382.912C170.829 385.53 163.427 388.655 159.157 382.918C159.857 385.987 159.076 387.075 162.966 387.698C169.174 389.642 174.052 388.335 179.018 385.16C182.665 383.04 186.609 381.314 190.13 379.027L190.177 378.988C190.865 378.408 191.681 377.367 191.233 376.367ZM181.424 363.419C180.165 361.111 176.971 359.939 174.666 360.897C174.515 363.176 175.23 365.694 173.986 367.716C175.163 367.894 176.339 368.107 177.512 368.329L178.587 368.534C179.114 368.639 179.787 368.827 179.723 369.435C179.652 370.108 178.841 369.935 178.299 369.787L178.089 369.729C176.568 369.304 175.049 368.869 173.544 368.374C172.798 369.344 171.777 370.122 170.786 370.873L171.21 370.909C172.697 371.033 174.197 371.14 175.671 371.411C176.318 371.593 176.217 372.549 175.56 372.498C173.796 372.068 172.034 371.573 170.245 371.285C169.402 371.945 168.562 372.608 167.717 373.265C169.438 373.469 171.157 373.427 172.873 373.521C173.984 373.589 174.047 375.241 172.937 375.189C170.932 375.066 168.911 374.498 166.981 373.838L166.007 374.596C164.869 375.48 163.729 376.362 162.577 377.227C161.884 377.75 160.982 378.257 160.512 378.994C159.047 381.827 163.077 384.325 165.73 384.178C169.763 384.069 173.033 381.654 176.512 380.15C178.445 379.546 188.168 373.734 189.127 375.128C189.684 374.808 190.47 374.67 190.86 374.163C190.856 371.89 190.326 369.529 189.87 367.253C189.779 366.857 189.582 366.384 189.546 365.975C187.917 366.705 187.543 369.244 185.357 369.114C185.039 369.721 183.979 369.485 183.487 369.031C182.952 368.537 182.859 367.817 182.712 367.177L182.643 366.883C182.366 365.705 182.042 364.5 181.424 363.419ZM223.021 168.993L222.758 169.077C220.076 169.922 217.262 170.567 214.469 170.475C214.065 172.483 214.498 177.203 212.569 178.035C211.911 178.336 210.896 178.151 210.56 177.418C206.507 177.495 202.412 177.257 198.352 177.151C195.292 177.007 192.129 177.139 189.155 176.242C189.586 178.183 189.782 180.098 189.661 182.106C189.305 190.661 187.372 199.057 186.944 207.578L186.925 207.984L186.902 207.972C186.903 207.987 186.902 208.003 186.902 208.019C187.125 208.08 187.348 208.145 187.57 208.21C187.646 208.164 187.754 208.202 187.814 208.282C204.157 213.138 221.372 214.856 238.092 211.796C241.021 211.281 243.922 210.606 246.799 209.828C246.763 209.545 247.156 209.456 247.236 209.721C247.875 209.573 248.514 209.414 249.151 209.299C249.065 209.064 249.041 208.807 249.112 208.572C250.203 204.43 249.452 199.785 248.894 195.555C248.14 189.057 246.641 182.712 245.38 176.321C240.58 176.268 235.785 175.598 230.975 175.891C230.524 177.345 228.802 178.619 227.387 177.852C226.387 177.313 226.049 176.068 225.617 175.045C224.762 173.023 223.892 171.008 223.021 168.993ZM200.552 113.561C195.584 115.378 190.474 116.736 185.559 118.729C181.459 120.016 178.741 122.963 178.753 127.81C178.811 138.192 180.254 148.572 182.22 158.729L182.32 159.187C183.382 164.078 184.357 169.058 186.184 173.688C188.635 174.816 191.378 175.058 194.013 175.098C197.859 175.163 201.705 175.234 205.55 175.36L208.564 175.457C209.439 175.485 210.646 175.275 211.33 175.99C211.392 176.092 211.509 176.075 211.602 176.136L211.62 176.149C211.718 176.217 211.821 176.385 211.958 176.347C212.179 176.262 212.246 175.771 212.29 175.535L212.294 175.514C212.538 174.255 212.7 172.973 212.922 171.709C213.441 169.217 213.605 166.599 214.448 164.201C213.075 163.321 211.774 162.304 210.645 161.082L209.324 160.631C206.162 159.558 202.966 158.523 199.691 157.933C199.643 158.714 198.638 159.199 198.225 158.399C197.512 156.348 197.308 154.1 196.789 151.978C195.553 145.636 194.132 139.324 193.199 132.919C195.306 138.542 196.554 145.496 198.234 151.596C198.3 151.551 198.393 151.572 198.4 151.673C203.426 149.367 209.1 149.234 214.228 151.278C215.512 151.782 216.813 152.229 218.091 152.751C218.53 152.999 219.384 152.949 219.551 153.522C219.69 153.124 219.883 152.748 220.149 152.49C220.227 152.293 221.19 151.91 221.3 152.289C227.06 152.926 232.733 155.431 238.608 154.745C237.803 151.992 237.77 148.988 237.612 146.119L237.614 145.795C237.626 142.963 237.579 139.46 238.367 137.099C238.031 142.979 238.666 148.831 239.575 154.608C243.709 153.862 241.895 156.53 239.123 156.54C233.554 157.195 228.294 154.696 223.077 152.929C220.222 151.812 219.944 152.862 220.181 155.77C220.33 159.563 222.037 162.964 223.592 166.274L224.293 167.821C225.458 170.395 226.608 172.953 227.744 175.56C232.197 173.75 237.317 174.451 242.008 174.569C245.597 174.92 248.154 174.648 251.088 172.276C252.09 169.961 253.442 167.751 253.904 165.165C254.465 162.791 254.587 160.322 254.682 157.879L254.485 157.205C251.946 148.548 249.174 139.944 245.524 131.746L245.326 131.295C244.086 128.455 242.823 125.473 240.462 123.542C236.511 120.6 231.719 119.413 227.584 116.82L227.566 117.022C227.279 120.191 226.699 123.487 224.949 126.095C221.71 130.806 215.266 131.183 210.781 128.378C206.128 125.809 203.203 120.804 201.669 115.513L201.652 115.455C201.509 114.984 201.108 113.555 200.552 113.561ZM214.883 164.474C214.945 166.153 214.706 167.82 214.564 169.485C216.909 168.885 219.252 168.438 221.55 167.66C219.249 166.813 217.005 165.773 214.883 164.474ZM208.669 151.15C205.194 150.547 201.682 151.123 198.296 151.848C198.739 153.714 199.234 155.56 199.66 157.429C200.879 157.321 212.543 159.112 211.306 160.96C213.053 161.892 214.718 163.002 216.458 163.956C218.209 164.915 220.024 165.728 221.89 166.373L221.784 166.141C220.053 162.344 218.408 158.06 219.464 153.796C217.853 154.578 215.556 153.121 213.946 152.606C212.232 151.932 210.474 151.417 208.669 151.15ZM183.278 137.169C183.262 136.465 185.331 138.406 185.599 138.606L185.762 138.755C187.746 140.574 189.714 142.584 190.878 145.141C191.055 147.691 187.331 141.641 186.833 141.281C185.722 139.841 184.388 138.604 183.278 137.169ZM238.606 141.052C238.075 141.267 239.468 139.215 240.047 139.339C240.274 139.293 240.486 139.647 240.238 139.781L240.115 139.846C239.537 140.147 238.945 140.409 238.606 141.052Z" fill="#1B1B1B"/>
<path fill-rule="evenodd" clip-rule="evenodd" d="M215.855 62.99C220.516 62.8102 226.203 65.0665 226.681 65.0976L226.693 65.0978C226.944 65.0882 227.952 65.8652 229.72 67.4288L228.026 71.4402L228.181 71.5906C228.925 72.313 229.562 72.9731 230.065 73.4934C234.168 77.7419 235.542 94.9916 234.848 101.052C234.153 107.113 232.663 113.075 224.669 113.384C216.674 113.692 207.576 108.776 206.143 107.191C205.188 106.134 204.141 105.651 203.005 105.74C202.955 105.678 202.906 105.615 202.858 105.553L202.689 105.533C201.104 105.344 199.962 105.052 199.263 104.656C197.899 103.882 196.266 99.6015 196.229 98.6461C196.193 97.7002 193.74 90.9039 193.668 90.1774L193.667 90.1573C193.643 89.5486 190.677 86.8607 190.643 85.972C190.609 85.0834 190.035 85.1595 190.49 82.0059L190.622 81.0795C191.106 77.7218 192.093 72.1548 196.575 69.5793C201.5 66.7492 211.147 63.1717 215.855 62.99Z" fill="white"/>
<path fill-rule="evenodd" clip-rule="evenodd" d="M215.855 63.0235C220.516 62.8436 226.203 65.0999 226.681 65.131L226.693 65.1313C226.944 65.1216 227.952 65.8986 229.72 67.4623L229.34 68.362C220.171 68.9133 213.886 69.9731 210.486 71.5412C206.544 73.3593 204.273 79.7759 203.673 90.7911C202.302 91.5704 200.939 92.5789 199.585 93.8168C198.231 95.0547 197.9 95.6799 198.593 95.6923C198.63 98.2317 198.884 99.9963 199.354 100.986C199.825 101.976 201.34 102.51 203.902 102.59L204.643 104.943L204.595 106.048C204.086 105.822 203.556 105.73 203.005 105.774C202.955 105.711 202.906 105.648 202.858 105.586L202.689 105.566C201.104 105.378 199.962 105.085 199.263 104.689C197.899 103.915 196.266 99.6349 196.229 98.6795C196.193 97.7337 193.74 90.9373 193.668 90.2109L193.667 90.1907C193.643 89.582 190.677 86.8941 190.643 86.0055C190.609 85.1168 190.035 85.193 190.49 82.0393L190.622 81.1129C191.106 77.7552 192.093 72.1882 196.575 69.6128C201.5 66.7826 211.147 63.2052 215.855 63.0235Z" fill="#EEEEEE"/>
<path fill-rule="evenodd" clip-rule="evenodd" d="M195.794 69.4854C198.188 66.4773 212.247 61.4248 219.485 62.1015L219.702 62.1237C220.28 62.1813 220.851 62.2802 221.416 62.4226C223.241 62.8145 225.134 63.4415 226.671 64.5514C227.954 65.4585 231.946 66.8666 230.884 69.4099C231.348 70.2839 231.55 71.378 231.294 72.2663C231.269 72.5707 231.194 72.853 231.096 73.1465C232.071 74.593 232.863 76.2408 233.513 77.8121C234.695 81.784 235.496 85.9341 235.748 90.0234C236.36 97.7873 235.939 107.106 229.943 112.373C226.326 115.703 220.473 116.037 216.118 112.248C215.868 111.949 214.714 111.159 215.083 110.998C215.199 111.122 215.319 111.243 215.44 111.362C215.434 111.348 215.432 111.335 215.434 111.32L215.32 111.215C215.106 111.014 214.826 110.722 215.133 110.769C215.148 110.786 215.163 110.8 215.178 110.816C215.244 110.856 215.294 110.891 215.333 110.922L215.354 110.938L215.347 110.932C215.164 110.734 215.051 110.529 215.318 110.652L215.354 110.669C215.476 110.799 215.599 110.923 215.725 111.044C215.722 111.029 215.724 111.014 215.73 110.998L215.613 110.883C215.499 110.77 215.515 110.769 215.565 110.671C215.318 110.322 215.762 110.518 215.798 110.657C216.068 110.576 216.33 111.127 216.508 111.188C224.461 117.371 235.419 111.19 234.541 93.1413L234.524 92.7881C234.249 87.0168 233.575 81.1 231.191 75.958C230.96 75.4628 230.703 74.9822 230.424 74.5185C230.23 74.1701 230.024 73.8312 229.804 73.5021C229.222 73.4732 228.645 73.3792 228.074 73.221C227.878 73.1749 227.684 73.1231 227.49 73.061C224.698 73.336 221.969 73.6232 219.17 73.9037L218.296 73.9973C215.925 74.2562 213.477 74.6188 211.621 76.3015C209.795 77.8386 209.898 80.7268 208.349 82.3968C206.118 84.1916 206.16 85.7306 205.815 88.2618C205.921 90.1558 207.228 92.8631 205.055 93.7458C205.449 94.3115 204.92 94.0528 204.871 93.851C204.867 93.8523 204.863 93.8536 204.86 93.8537C205.217 94.5148 204.714 94.1093 204.662 93.8944C204.636 93.8874 204.609 93.8679 204.582 93.8405C204.939 94.418 204.383 94.0254 204.411 93.9167C203.724 92.8567 202.39 92.7395 201.465 93.0631C201.455 93.1022 201.414 93.1073 201.387 93.0878C197.444 94.1849 198.818 103.159 202.863 102.13C203.036 102.084 203.035 102.176 203.07 102.183C202.966 101.916 203.235 102.016 203.235 102.073L203.251 102.072C203.264 102.07 203.258 102.069 203.268 102.072C203.156 101.522 203.699 102.304 203.66 102.339C203.675 102.328 203.693 102.321 203.708 102.319L203.689 102.267C203.594 102.022 203.605 102.125 203.6 101.983C203.53 101.81 203.528 101.887 203.538 101.772C203.756 101.573 203.844 102.148 203.921 102.187C203.785 101.996 203.881 101.832 204.006 101.934C205.006 104.012 206.269 105.952 207.863 107.458C208.036 107.596 208.211 107.732 208.392 107.859C209.069 108.456 210.084 108.817 210.716 109.344C210.717 109.353 210.713 109.364 210.707 109.376L210.722 109.389L210.736 109.403L210.953 109.507C211.018 109.563 211.076 109.625 211.129 109.695C211.185 109.76 211.235 109.832 211.277 109.91C211.301 110.004 211.259 110.046 211.174 110.008C211.137 109.996 211.1 109.981 211.063 109.968C211.065 109.971 211.066 109.974 211.068 109.976C211.081 109.995 211.17 110.197 211.075 110.167L211.064 110.163C211.012 110.144 210.96 110.124 210.909 110.104C210.972 110.183 211.029 110.268 211.08 110.34C211.133 110.396 211.167 110.464 211.183 110.541C211.182 110.584 211.161 110.603 211.121 110.599C211.06 110.58 211 110.559 210.94 110.537L210.958 110.572C211.003 110.661 211.069 110.81 210.961 110.764C210.869 110.736 210.78 110.704 210.691 110.669C210.685 110.685 210.67 110.692 210.641 110.678C210.359 110.58 210.085 110.459 209.822 110.312C209.589 110.141 209.354 109.974 209.12 109.803C208.901 109.672 208.689 109.523 208.486 109.356C207.133 108.476 205.935 107.339 204.97 106.058C203.497 107.566 200.386 106.3 198.451 105.238C196.739 104.289 196.01 102.44 195.762 100.426C195.303 97.7193 193.235 96.8665 193.146 90.8918C193.143 90.893 193.14 90.8931 193.136 90.8933C193.061 90.8722 192.988 90.8431 192.919 90.8047C192.847 90.771 192.78 90.7302 192.717 90.6802L192.636 90.5681C192.596 90.5457 192.56 90.522 192.531 90.498L192.518 90.5183C192.476 90.5787 192.503 90.4893 192.504 90.4717L192.365 90.2803C192.034 89.8248 191.67 89.3134 191.374 88.9047L191.366 88.9221C191.36 88.9352 191.357 88.9446 191.36 88.9485C190.654 87.9278 189.979 86.6879 189.758 85.4709C189.516 84.5362 189.559 83.5618 189.705 82.6818C190.355 79.5946 192.604 72.5785 195.794 69.4854ZM215.492 111.073L215.449 111.034L215.487 111.083C215.508 111.108 215.528 111.13 215.561 111.153C215.559 111.145 215.558 111.137 215.559 111.128C215.537 111.111 215.515 111.092 215.492 111.073ZM219.513 63.639C214.612 63.3681 209.854 64.7305 205.249 66.335L204.932 66.4485C202.314 67.3779 199.541 68.2304 197.37 70.0873C194.343 72.8296 192.889 77.0624 191.628 80.9673C190.507 83.8756 191.261 87.0772 193.193 89.0033C193.309 87.0107 193.564 85.071 194.005 83.1396C194.1 82.8369 194.015 82.7422 194.245 82.6943C194.793 87.8321 193.22 91.7045 196.86 97.6782C198.449 100.502 196.82 102.676 201.051 104.03L201.166 104.073C202.049 104.399 203.009 104.645 203.853 104.412L203.771 104.279C203.688 104.142 203.662 104.075 203.772 104.011C203.769 104.004 203.765 103.998 203.76 103.99C203.661 103.804 203.565 103.616 203.474 103.426C203.44 103.44 203.406 103.45 203.371 103.462C203.396 103.508 203.4 103.554 203.337 103.573C203.11 103.668 202.876 103.711 202.634 103.704L202.583 103.702C202.309 103.695 202.136 103.647 201.98 103.602C201.929 103.595 201.878 103.588 201.827 103.579C201.328 103.478 200.794 103.193 200.444 102.904C196.493 100.656 196.577 92.4798 201.303 91.5249C201.202 86.383 203.101 77.6284 206.619 72.5892C209.796 67.9563 218.868 65.6514 225.259 66.094C225.353 66.124 225.447 66.1544 225.541 66.1851C226.527 66.2427 227.481 66.6851 228.472 66.8695C227.745 66.3183 226.929 65.9639 226.092 65.6682C224.407 64.6324 222.502 64.1103 220.666 63.761C220.285 63.6742 219.901 63.6331 219.513 63.639ZM201.244 95.6609C201.494 95.4991 201.47 95.6469 201.528 95.602C203.36 95.3669 205.411 97.0521 206.496 98.481C206.418 98.5764 206.188 98.3115 206.148 98.2697C206.143 98.2756 206.137 98.2804 206.131 98.2829L206.161 98.326C206.603 98.9641 205.747 98.2262 205.664 98.0705C205.651 98.079 205.637 98.0841 205.621 98.0813C205.69 98.149 205.897 98.3246 205.936 98.4535L205.991 98.4997C206.509 98.9489 206.481 99.3028 205.888 98.6596C205.902 98.6898 205.909 98.7181 205.9 98.7412L205.92 98.7547C206.208 98.9573 206.46 99.5433 205.853 98.9552C205.931 99.3989 205.259 98.5614 205.239 98.5683C204.097 97.6616 202.434 96.8011 201.043 96.7306L200.995 96.7265C200.739 96.7005 200.615 96.6226 200.698 96.4371C200.381 96.3676 200.448 96.196 200.597 96.1958C200.369 96.0453 200.562 95.8856 200.693 95.9399C200.595 95.6763 200.955 95.8405 200.986 95.802C201.157 95.4853 201.217 95.7417 201.244 95.6609ZM196.75 79.2548C197.62 78.8667 200.27 79.8257 200.116 81.2372C200.004 81.5642 199.601 81.7646 199.306 81.5938L198.92 81.3323C198.248 80.8785 197.642 80.4812 196.924 80.0905C196.534 79.8978 196.352 79.4638 196.75 79.2548ZM201.695 76.9752L201.345 76.7455C199.453 75.4984 196.774 73.6014 201.469 75.4898C202.004 75.7164 202.709 75.8354 203.017 76.3724C203.507 77.3651 202.323 77.4788 201.695 76.9752ZM201.674 71.0527C201.503 70.4451 203.369 71.0939 203.911 71.263L203.994 71.2935C204.522 71.4856 205.127 71.6594 205.457 72.1389C205.848 72.8039 205.115 72.973 204.646 72.6839C203.682 72.0497 202.635 71.5836 201.674 71.0527ZM206.238 68.0153C205.156 66.819 207.97 67.8964 208.398 68.2091L208.41 68.2183C208.729 68.4448 208.686 68.9606 208.401 69.1226C207.574 69.1718 206.936 68.4408 206.238 68.0153ZM210.894 66.4792C209.199 65.2494 211.389 65.7809 212.161 66.2587C212.693 66.7338 212.197 67.5896 210.894 66.4792Z" fill="#1B1B1B"/>
<path fill-rule="evenodd" clip-rule="evenodd" d="M225.762 101.35C225.91 101.04 226.268 100.744 226.607 100.775C228.125 100.91 228.199 102.909 227.661 104.099C227.184 105.154 226.137 105.803 225.062 105.755C223.934 105.705 222.947 105.02 222.481 103.887C222.172 103.137 221.989 101.739 222.712 101.199C222.725 101.189 222.748 101.191 222.759 101.204C223.133 101.643 223.173 102.321 223.504 102.812C223.812 103.269 224.277 103.638 224.807 103.677C225.202 103.707 225.595 103.536 225.734 103.144C225.809 102.932 225.795 102.819 225.759 102.677L225.725 102.553C225.61 102.119 225.553 101.788 225.762 101.35ZM225.827 92.5661C226.635 93.0584 227.883 94.2312 227.085 95.5599C226.132 96.7412 224.645 95.4864 223.914 94.9211C223.24 94.4872 222.549 95.6968 223.178 96.2096C228.452 100.146 230.237 92.5328 226.202 91.936C225.758 91.8702 225.615 92.4123 225.827 92.5661ZM217.37 89.3023C217.823 88.4916 218.931 88.5656 219.234 89.4952C219.398 89.9988 219.216 90.4641 219.246 90.9721C219.271 91.4013 219.264 91.8809 219.16 92.3015C218.921 93.2606 218.166 93.9607 217.24 93.9686C216.318 93.9765 215.482 93.3712 215.061 92.4893C214.639 91.6042 214.685 90.6694 214.933 89.7433C214.945 89.6988 214.997 89.6754 215.03 89.7112C215.379 90.086 215.639 90.4859 215.909 90.9104L216.186 91.3453C216.397 91.6728 216.702 92.0897 217.071 92.0485L217.126 92.0404C217.229 92.0268 217.214 92.0497 217.287 91.8936C217.321 91.8213 217.309 91.6899 217.324 91.6056L217.329 91.5771L217.325 91.562C217.316 91.5218 217.305 91.4459 217.293 91.3137L217.291 91.2845C217.24 90.6663 217.049 89.8767 217.37 89.3023ZM229.647 89.3565C229.522 88.3469 230.817 88.0716 231.28 88.8044C231.521 89.1865 231.606 89.675 231.674 90.1383L231.706 90.3582C231.776 90.834 231.815 91.3302 231.642 91.7833C231.37 92.4967 230.734 92.8929 230.03 92.8613C229.357 92.8309 228.729 92.4302 228.382 91.7986C228.073 91.2349 227.744 90.1238 228.07 89.5109C228.089 89.4738 228.131 89.4675 228.161 89.4944C228.503 89.8014 228.58 90.3824 228.792 90.7914C229.011 91.2132 229.334 91.6201 229.801 91.6674C230.248 91.7126 230.408 91.4408 230.277 90.9822C230.107 90.3901 229.727 89.9976 229.647 89.3565ZM217.49 83.2662L217.7 83.1688C218.419 82.8391 219.409 82.452 220.029 83.0779C220.411 83.4639 220.503 84.0506 220.26 84.549C219.966 85.1527 219.398 85.1892 218.852 85.2975C218.231 85.4207 217.604 85.6336 217.032 85.9246C216.389 86.2525 215.796 86.6532 215.216 87.0975C214.666 87.5197 214.127 88.1958 213.454 88.3453C213.427 88.3514 213.395 88.3396 213.386 88.3068C213.205 87.5895 213.605 86.8612 213.965 86.2822C214.4 85.5813 214.938 84.999 215.544 84.4721C216.128 83.9635 216.804 83.5862 217.49 83.2662ZM230.866 85.3252L230.931 85.3102C231.371 85.2125 231.773 85.2156 232.122 85.5859C232.388 85.8685 232.501 86.2436 232.394 86.6349C232.296 86.9958 232.059 87.3678 231.698 87.4566C230.479 87.7564 229.116 87.7672 227.874 87.6238C227.306 87.5581 226.731 87.4731 226.175 87.3255L225.918 87.2551C225.453 87.1296 224.922 87.0002 224.574 86.6441C224.449 86.5162 224.51 86.3238 224.652 86.2569C225.224 85.9854 226.028 86.0871 226.648 86.0436C227.369 85.9932 228.09 85.9061 228.806 85.797C229.505 85.6901 230.179 85.4906 230.866 85.3252Z" fill="#1B1B1B"/>
<path fill-rule="evenodd" clip-rule="evenodd" d="M235.189 92.8993C233.978 94.377 231.88 94.8686 230.165 94.1674C225.762 92.3607 227.642 86.1229 230.915 84.3409C231.328 84.2114 231.874 83.9208 232.379 83.8401C232.424 83.8138 232.527 83.8811 232.646 83.8091C236.342 84.1156 237.421 90.3193 235.189 92.8993ZM221.248 93.8036C219.907 95.9155 217.29 96.6521 215.095 95.7791C210.762 94.1108 212.063 88.5936 214.897 86.3409C220.96 83.5757 223.753 89.9085 221.248 93.8036ZM211.831 89.6024C211.827 89.6005 211.823 89.5996 211.819 89.5977C211.841 89.5861 211.863 89.5744 211.885 89.5625C211.879 89.5836 211.872 89.6045 211.865 89.6256C211.854 89.6177 211.844 89.6084 211.831 89.6024ZM237.875 86.3704C237.527 86.3846 237.027 86.4664 236.749 86.741C235.938 84.1541 233.224 81.8358 231.013 83.688C229.242 84.3875 227.964 85.8365 227.279 87.7238C225.88 86.8901 223.749 87.3514 222.61 88.5692C221.727 85.8029 219.782 84.8973 217.506 84.8404C215.011 84.4929 212.642 87.2159 211.952 89.3536C211.309 89.2987 210.342 89.113 209.756 89.5681C205.8 88.5988 198.936 88.2452 198.164 88.8983C197.606 89.1577 197.352 90.6305 198.147 90.6787C198.832 90.5452 198.025 89.6115 198.716 89.4795C202.412 89.0857 206.041 89.7616 209.721 89.9621C210.067 90.4302 211.131 90.5502 211.688 90.3352C210.937 93.9454 212.949 96.3042 215.852 96.9219C220.346 97.8664 224.051 93.3698 222.712 88.8931C224.032 88.1087 225.585 88.0803 227.068 88.4094C224.994 98.3663 239.526 97.3623 236.853 87.0754C238.397 87.8382 238.674 86.5055 237.875 86.3704Z" fill="#1B1B1B"/>
<g filter="url(#filter4_d_78_10479)">
<path d="M137.244 162.458C116.087 189.109 104.056 201.651 80.4813 193.947C79.9377 198.874 79.7484 201.536 80.4813 205.356C80.4813 224.5 79.392 225.983 83.072 230H336C336 222.5 334.793 218.38 336 205.356L295.48 176.605C284.72 167.751 278.531 169.026 267.361 176.605C253.513 187.881 245.518 196.139 231.033 212.658C218.891 218.38 212.086 216.937 199.945 212.658C181.376 204.254 171.045 196.272 152.963 167.934C147.773 159.532 145.159 153.455 137.244 162.458Z" fill="#22FFFF"/>
</g>
</g>
</g>
<defs>
<filter id="filter0_dddddd_78_10479" x="0" y="0.147609" width="416" height="409.852" filterUnits="userSpaceOnUse" color-interpolation-filters="sRGB">
<feFlood flood-opacity="0" result="BackgroundImageFix"/>
<feColorMatrix in="SourceAlpha" type="matrix" values="0 0 0 0 0 0 0 0 0 0 0 0 0 0 0 0 0 0 127 0" result="hardAlpha"/>
<feOffset dy="0.559259"/>
<feGaussianBlur stdDeviation="1.1069"/>
<feColorMatrix type="matrix" values="0 0 0 0 0 0 0 0 0 0 0 0 0 0 0 0 0 0 0.0468848 0"/>
<feBlend mode="normal" in2="BackgroundImageFix" result="effect1_dropShadow_78_10479"/>
<feColorMatrix in="SourceAlpha" type="matrix" values="0 0 0 0 0 0 0 0 0 0 0 0 0 0 0 0 0 0 127 0" result="hardAlpha"/>
<feOffset dy="2.62385"/>
<feGaussianBlur stdDeviation="2.66004"/>
<feColorMatrix type="matrix" values="0 0 0 0 0 0 0 0 0 0 0 0 0 0 0 0 0 0 0.0647322 0"/>
<feBlend mode="normal" in2="effect1_dropShadow_78_10479" result="effect2_dropShadow_78_10479"/>
<feColorMatrix in="SourceAlpha" type="matrix" values="0 0 0 0 0 0 0 0 0 0 0 0 0 0 0 0 0 0 127 0" result="hardAlpha"/>
<feOffset dy="7.16485"/>
<feGaussianBlur stdDeviation="5.00862"/>
<feColorMatrix type="matrix" values="0 0 0 0 0 0 0 0 0 0 0 0 0 0 0 0 0 0 0.0786233 0"/>
<feBlend mode="normal" in2="effect2_dropShadow_78_10479" result="effect3_dropShadow_78_10479"/>
<feColorMatrix in="SourceAlpha" type="matrix" values="0 0 0 0 0 0 0 0 0 0 0 0 0 0 0 0 0 0 127 0" result="hardAlpha"/>
<feOffset dy="16.347"/>
<feGaussianBlur stdDeviation="8.93452"/>
<feColorMatrix type="matrix" values="0 0 0 0 0 0 0 0 0 0 0 0 0 0 0 0 0 0 0.0940847 0"/>
<feBlend mode="normal" in2="effect3_dropShadow_78_10479" result="effect4_dropShadow_78_10479"/>
<feColorMatrix in="SourceAlpha" type="matrix" values="0 0 0 0 0 0 0 0 0 0 0 0 0 0 0 0 0 0 127 0" result="hardAlpha"/>
<feOffset dy="36.5967"/>
<feGaussianBlur stdDeviation="16.711"/>
<feColorMatrix type="matrix" values="0 0 0 0 0 0 0 0 0 0 0 0 0 0 0 0 0 0 0.1174 0"/>
<feBlend mode="normal" in2="effect4_dropShadow_78_10479" result="effect5_dropShadow_78_10479"/>
<feColorMatrix in="SourceAlpha" type="matrix" values="0 0 0 0 0 0 0 0 0 0 0 0 0 0 0 0 0 0 127 0" result="hardAlpha"/>
<feOffset dy="100"/>
<feGaussianBlur stdDeviation="40"/>
<feColorMatrix type="matrix" values="0 0 0 0 0 0 0 0 0 0 0 0 0 0 0 0 0 0 0.18 0"/>
<feBlend mode="normal" in2="effect5_dropShadow_78_10479" result="effect6_dropShadow_78_10479"/>
<feBlend mode="normal" in="SourceGraphic" in2="effect6_dropShadow_78_10479" result="shape"/>
</filter>
<filter id="filter1_d_78_10479" x="80" y="40" width="299" height="211" filterUnits="userSpaceOnUse" color-interpolation-filters="sRGB">
<feFlood flood-opacity="0" result="BackgroundImageFix"/>
<feColorMatrix in="SourceAlpha" type="matrix" values="0 0 0 0 0 0 0 0 0 0 0 0 0 0 0 0 0 0 127 0" result="hardAlpha"/>
<feOffset dx="22"/>
<feGaussianBlur stdDeviation="10.5"/>
<feComposite in2="hardAlpha" operator="out"/>
<feColorMatrix type="matrix" values="0 0 0 0 0 0 0 0 0 0 0 0 0 0 0 0 0 0 0.25 0"/>
<feBlend mode="normal" in2="BackgroundImageFix" result="effect1_dropShadow_78_10479"/>
<feBlend mode="normal" in="SourceGraphic" in2="effect1_dropShadow_78_10479" result="shape"/>
</filter>
<filter id="filter2_d_78_10479" x="86" y="88" width="293" height="163" filterUnits="userSpaceOnUse" color-interpolation-filters="sRGB">
<feFlood flood-opacity="0" result="BackgroundImageFix"/>
<feColorMatrix in="SourceAlpha" type="matrix" values="0 0 0 0 0 0 0 0 0 0 0 0 0 0 0 0 0 0 127 0" result="hardAlpha"/>
<feOffset dx="22"/>
<feGaussianBlur stdDeviation="10.5"/>
<feComposite in2="hardAlpha" operator="out"/>
<feColorMatrix type="matrix" values="0 0 0 0 0 0 0 0 0 0 0 0 0 0 0 0 0 0 0.25 0"/>
<feBlend mode="normal" in2="BackgroundImageFix" result="effect1_dropShadow_78_10479"/>
<feBlend mode="normal" in="SourceGraphic" in2="effect1_dropShadow_78_10479" result="shape"/>
</filter>
<filter id="filter3_d_78_10479" x="80" y="103" width="299" height="143" filterUnits="userSpaceOnUse" color-interpolation-filters="sRGB">
<feFlood flood-opacity="0" result="BackgroundImageFix"/>
<feColorMatrix in="SourceAlpha" type="matrix" values="0 0 0 0 0 0 0 0 0 0 0 0 0 0 0 0 0 0 127 0" result="hardAlpha"/>
<feOffset dx="22"/>
<feGaussianBlur stdDeviation="10.5"/>
<feComposite in2="hardAlpha" operator="out"/>
<feColorMatrix type="matrix" values="0 0 0 0 0 0 0 0 0 0 0 0 0 0 0 0 0 0 0.25 0"/>
<feBlend mode="normal" in2="BackgroundImageFix" result="effect1_dropShadow_78_10479"/>
<feBlend mode="normal" in="SourceGraphic" in2="effect1_dropShadow_78_10479" result="shape"/>
</filter>
<filter id="filter4_d_78_10479" x="80" y="137" width="299" height="114" filterUnits="userSpaceOnUse" color-interpolation-filters="sRGB">
<feFlood flood-opacity="0" result="BackgroundImageFix"/>
<feColorMatrix in="SourceAlpha" type="matrix" values="0 0 0 0 0 0 0 0 0 0 0 0 0 0 0 0 0 0 127 0" result="hardAlpha"/>
<feOffset dx="22"/>
<feGaussianBlur stdDeviation="10.5"/>
<feComposite in2="hardAlpha" operator="out"/>
<feColorMatrix type="matrix" values="0 0 0 0 0 0 0 0 0 0 0 0 0 0 0 0 0 0 0.25 0"/>
<feBlend mode="normal" in2="BackgroundImageFix" result="effect1_dropShadow_78_10479"/>
<feBlend mode="normal" in="SourceGraphic" in2="effect1_dropShadow_78_10479" result="shape"/>
</filter>
<linearGradient id="paint0_linear_78_10479" x1="119.221" y1="3" x2="363.04" y2="133.815" gradientUnits="userSpaceOnUse">
<stop stop-color="#1C737C"/>
<stop offset="1" stop-color="#033338"/>
</linearGradient>
<clipPath id="clip0_78_10479">
<path d="M80 67C80 31.6538 108.654 3 144 3H272C307.346 3 336 31.6538 336 67V230H80V67Z" fill="white"/>
</clipPath>
</defs>
</svg>
