<svg width="416" height="410" viewBox="0 0 416 410" fill="none" xmlns="http://www.w3.org/2000/svg">
<g filter="url(#filter0_dddddd_116_6657)">
<g clip-path="url(#clip0_116_6657)">
<path d="M80 67C80 31.6538 108.654 3 144 3H272C307.346 3 336 31.6538 336 67V230H80V67Z" fill="url(#paint0_linear_116_6657)"/>
<g filter="url(#filter1_d_116_6657)">
<path d="M94.517 138.865L80.0035 107.905V189.447C79.9243 212.454 81.1129 223.304 90.8449 230H324.809C332.658 225.489 334.975 220.761 336 209.069V70.4046C328.409 64.9738 324.955 70.605 320.263 96.5677C311.91 93.7586 305.406 97.4456 292.46 107.905C285.303 109.995 279.901 99.7718 270.077 79.9977C259.419 59.8747 253.714 49.9424 253.116 79.9977L253.03 80.6985C250.687 99.917 249.347 110.904 238.078 117.062C232.369 115.626 228.662 108.818 222.119 96.8031L221.991 96.5677C214.674 88.3909 210.509 90.0402 202.931 107.905L181.598 156.307C174.089 166.304 170.066 172.715 156.418 156.307C151.155 151.549 147.112 146.901 135.959 131.452C125.123 109.795 118.905 96.1708 113.577 131.452C111.712 136.773 110.951 140.293 109.905 147.15C104.695 151.245 101.92 154.888 94.517 138.865Z" fill="#00686B"/>
</g>
<g filter="url(#filter2_d_116_6657)">
<path d="M96.8553 175.52C94.0261 178.178 91.7524 180.844 86.1113 188.311C85.5927 206.275 86.6899 215.669 93.6151 230H327.595C333.369 224.363 336.428 220.079 335.951 175.52L319.75 139.516C313.747 128.557 310.272 123.515 302.185 133.831L289.735 150.412C279.733 165.134 273.419 160.151 262.108 150.412C255.903 141.969 252.432 142.268 246.248 155.623C240.639 168.96 237.407 176.011 231.581 188.311C222.549 200.902 217.096 200.084 206.853 188.311C193.04 165 186.02 149.46 174.621 117.724C168.362 105.757 163.7 106.431 153.815 117.724C145.225 133.241 140.538 142.339 133.521 162.729C127.48 178.7 122.665 181.009 112.033 175.52C106.998 166.788 103.824 165.303 96.8553 175.52Z" fill="#00989A"/>
</g>
<g filter="url(#filter3_d_116_6657)">
<path d="M325.152 179.525C327.979 181.744 330.251 183.969 335.889 190.202C336.407 205.196 335.311 213.038 328.39 225H94.5608C88.7902 220.295 79.541 217.694 80.0177 180.5L102.401 149.472C108.4 140.325 111.872 136.116 119.955 144.727L132.396 158.567C142.392 170.856 148.702 166.696 160.006 158.567C166.207 151.52 169.676 151.769 175.856 162.917C181.46 174.049 184.69 179.935 190.513 190.202C199.539 200.712 204.989 200.028 215.225 190.202C229.029 170.744 236.044 157.773 247.436 131.282C253.691 121.293 258.35 121.856 268.228 131.282C276.813 144.234 281.497 151.829 288.509 168.848C294.546 182.179 299.359 184.107 309.983 179.525C315.015 172.237 318.188 170.997 325.152 179.525Z" fill="#00CACB"/>
</g>
<path fill-rule="evenodd" clip-rule="evenodd" d="M486.052 372.937C485.147 370.233 483.203 368.817 480.077 368.799C479.538 368.352 474.026 369.188 468.896 368.617C464.288 368.104 459.994 366.165 459.787 366.039C458.59 365.129 457.802 364.421 457.42 363.914C454.678 360.266 453.356 357.586 452.385 356.523C453.851 355.318 388.669 239.043 385.739 235.656C386.632 234.77 387.581 233.832 388.187 232.583C388.253 232.513 387.969 232.34 387.944 232.29C387.191 225.41 372.286 209.508 366.817 205.921C368.694 204.707 371.037 202.896 371.163 200.437C371.6 199.897 371.74 199.332 371.67 198.604C371.658 197.878 371.606 197.139 371.518 196.403C371.038 192.745 369.877 189.064 367.523 186.141C367.587 186.064 368.001 185.808 367.945 185.669C367.511 184.862 366.961 184.253 366.298 183.645C359.065 176.655 351.464 170.064 343.234 164.345C338.948 161.213 334.415 161.872 329.725 162.566C327.46 162.886 325.123 163.087 322.941 163.721C322.83 163.592 322.678 163.088 322.453 163.273C322.192 163.526 322.575 164.023 322.644 164.39C315.955 163.147 317.493 159.48 313.59 158.945C309.953 159.054 306.616 160.994 303.835 163.137C302.755 163.84 302.203 164.916 302.678 166.283C303.251 169.36 302.153 172.547 300.078 174.58C299.642 174.313 298.417 173.532 298.322 174.071C294.909 176.321 290.464 180.935 287.831 183.967C285.105 186.874 282.799 190.559 284.304 194.974C286.958 202.857 306.743 229.862 314.141 232.885L314.275 232.807C315.484 233.175 316.822 233.17 318.172 232.892C319.706 235.474 320.486 238.43 321.641 241.164C323.574 246.221 325.703 251.166 327.557 256.304C327.862 256.817 330.339 264.863 331.224 262.41C331.699 262.385 332.265 262.329 332.759 262.274C333.7 267.979 337.349 275.891 340.919 281.477C343 284.831 344.666 287.864 346.071 291.74C358.714 324.128 393.942 392.352 394.367 393.292C394.777 394.188 398.183 398.335 398.359 399.868C398.515 401.228 396.048 401.867 395.898 402.519C395.98 404.992 397.168 405.878 397.435 408.234C397.257 408.925 396.848 410.449 396.926 411.298C396.691 412.372 390.633 426.564 391.775 427.466C391.775 427.466 392.066 428.055 392.123 428.187C394.734 434.549 396.227 433.577 401.671 431.441C409.707 428.46 413.466 422.529 417.384 415.276C418.502 412.561 419.649 407.977 416.672 405.18C416.521 404.99 413.819 401.788 412.508 400.125C412.323 398.924 411.498 398.85 410.033 399.903C410.136 399.219 407.395 392.824 406.637 392.217C405.239 390.32 404.413 388.329 403.071 386.318C404.085 385.809 367.745 287.71 375.072 275.795C375.492 276.338 376.023 277.501 376.798 277.179C397.106 303.214 443.14 361.209 443.57 361.098C444.968 364.63 449.49 372.041 451.409 375.225C451.377 375.361 451.221 375.967 451.214 376.095C451.187 376.079 451.103 376.503 451.094 376.518L451.009 376.454C451.564 379.893 451.655 383.727 454.741 385.555C453.617 386.12 455.156 388.267 455.737 389.332C457.578 390.988 478.247 385.927 482.282 383.833C483.703 383.302 488.384 377.641 489.346 376.652C490.642 375.452 487.369 373.331 486.052 372.937Z" fill="white"/>
<path fill-rule="evenodd" clip-rule="evenodd" d="M299.856 174.443L300.079 174.58C307.302 180.928 313.9 182.699 319.872 179.893C325.843 177.088 327.545 173.367 324.975 168.732L322.497 163.245C322.699 163.152 322.839 163.6 322.942 163.721C325.124 163.087 327.462 162.886 329.726 162.566L330.429 162.462C334.869 161.815 339.164 161.369 343.235 164.345C351.465 170.064 359.066 176.655 366.299 183.645C366.963 184.253 367.512 184.862 367.946 185.669C368.003 185.808 367.588 186.064 367.524 186.141C369.879 189.064 371.039 192.745 371.519 196.403C371.607 197.139 371.659 197.878 371.672 198.604C371.742 199.332 371.602 199.896 371.164 200.437C371.038 202.896 368.695 204.707 366.818 205.921C372.287 209.508 387.192 225.41 387.945 232.29C387.97 232.34 388.856 233.676 388.79 233.747C388.184 234.996 386.615 236.457 385.722 237.343L384.025 238.773C384.398 239.235 387.281 238.003 389.003 240.92L338.254 274.025C336.18 269.775 334.515 267.09 333.916 263.459L332.133 263.741C331.694 263.787 331.632 262.389 331.225 262.41C330.34 264.863 327.863 256.816 327.558 256.304C325.704 251.166 323.576 246.221 321.642 241.164C320.487 238.43 319.647 236.23 318.114 233.648C316.792 233.921 316.317 234.232 315.128 233.887L314.624 233.678L313.931 233.033C306.533 230.011 286.959 202.857 284.306 194.974C282.801 190.559 285.106 186.874 287.832 183.967L287.992 183.783C290.643 180.752 294.979 176.276 298.324 174.071C298.405 173.608 299.323 174.12 299.856 174.443ZM322.86 202.459C320.193 204.078 317.568 206.142 314.984 208.651L314.952 209.663L318.074 213.742C319.793 212.411 321.909 211.512 324.423 211.047L324.543 211.025C327.11 210.567 328.97 210.282 330.124 210.17L335.167 211.18L337.355 217.123L337.613 216.984C341.788 214.722 343.931 213.117 344.043 212.168C344.158 211.2 343.982 210.397 343.516 209.76L343.259 209.561C339.097 206.329 336.752 204.05 336.225 202.724C335.686 201.371 335.102 200.409 334.473 199.838L334.17 199.847C329.243 200.002 325.473 200.873 322.86 202.459Z" fill="#EEEEEE"/>
<path fill-rule="evenodd" clip-rule="evenodd" d="M302.987 165.163C303.537 164.803 304.113 165.51 303.923 166.063L303.915 166.085C303.741 166.537 303.726 166.857 303.793 167.369C304.447 170.397 302.876 173.314 300.165 174.233C302.02 175.419 303.57 176.716 305.409 177.872C314.452 184.151 328.707 179.326 323.046 166.615C320.451 167.526 315.658 162.705 316.111 160.123L316.276 160.304C318.044 162.259 319.711 164.347 322.26 165.083C322.316 165.07 322.363 165.047 322.407 165.02C322.282 164.682 322.167 164.341 322.073 163.996C321.842 163.155 322.947 162.669 323.389 163.462C327.072 162.621 330.893 162.278 334.67 161.894C337.811 161.575 341.064 162.441 343.794 164.381C351.341 169.639 358.378 175.754 365.132 182.103C365.9 183.049 369.812 185.922 368.758 187.067C370.989 190.036 372.127 193.718 372.61 197.306C372.683 198.721 373.174 200.445 372.289 201.59C372.088 203.962 370.155 205.719 368.401 206.943C374.685 211.762 387.776 225.807 389.326 233.446C390.15 234.352 387.848 236.418 387.295 237.076C390.076 240.392 392.24 244.233 394.234 248.063C411.041 280.85 429.786 312.697 451.242 342.674C452.571 344.547 453.911 346.414 455.258 348.274L456.068 349.39C457.143 350.875 458.196 352.367 459.119 353.962C459.44 354.515 459.224 355.095 458.827 355.376C458.022 357.192 456.155 358.337 454.685 359.55C456 361.074 457.767 363.625 459.132 364.75C459.99 363.825 461.3 364.475 460.628 365.699C462.369 365.697 463.92 366.776 465.568 367.194C467.613 364.253 469.26 365.791 467.23 367.603C468.196 367.792 469.174 367.915 470.158 367.998L470.202 367.961C470.928 367.338 472.007 365.686 472.974 366.418C473.57 367.013 472.915 367.714 472.394 368.146C473.114 368.188 473.834 368.226 474.554 368.264C474.87 367.779 475.15 367.243 475.5 366.796C476.454 365.844 477.513 367.371 476.107 368.347C477.47 368.529 478.474 367.338 479.691 368.024C482.403 367.669 485.143 369.903 486.025 372.482C487.219 372.756 488.41 373.529 489.138 374.59C489.997 375.679 489.812 377.307 488.837 378.322C487.817 379.593 486.753 380.833 485.677 382.045L485.569 382.181C484.724 383.25 483.754 384.337 482.575 384.956C475.578 388.604 464.769 391.034 457.1 390.548C455.087 390.261 453.196 387.676 454.516 385.681C452.64 384.512 452.303 383.039 451.549 380.982C451.072 379.631 450.666 378.195 450.61 376.712C450.605 376.58 450.754 376.53 450.821 376.623C451.662 377.827 452.334 379.175 453.015 380.489L453.09 380.635C453.721 381.846 453.808 382.379 454.766 383.306C457.166 385.698 464.694 383.05 468.021 382.618C470.503 382.064 472.972 381.418 475.425 380.68L475.603 380.622C477.654 379.966 479.891 379.498 481.571 378.016C482.078 376.646 483.677 375.974 484.099 374.502C484.51 371.915 481.851 370.102 479.894 369.166C479.12 370.104 477.722 369.693 476.704 369.645L476.666 369.644C475.619 369.582 475.1 370.386 474.052 370.326L473.906 370.462C471.534 372.675 469.823 374.596 473.127 370.276C472.118 370.222 471.105 370.166 470.099 370.07C468.79 371.121 467.727 372.882 466.45 373.759C466.79 372.314 467.699 371.076 468.541 369.884C467.54 369.736 466.548 369.53 465.587 369.224L465.135 369.7C462.357 372.621 461.208 373.675 464.35 368.758C462.821 368.225 461.719 366.731 460.141 366.315C458.8 367.616 457.824 369.232 457.142 370.967C456.872 371.679 456.79 372.415 456.688 373.163C456.405 377.034 453.677 379.261 450.637 376.308C450.578 376.245 450.654 376.138 450.72 376.181L450.729 376.188C451.818 377 453.754 377.02 454.521 375.638L454.544 375.596C455.296 374.245 455.02 372.589 455.373 371.132C455.863 369.188 456.903 367.453 458.114 365.889C456.805 364.595 454.989 361.894 453.945 360.076C451.37 361.827 448.61 363.311 445.665 364.344C448.104 367.42 450.46 371.92 452.454 374.772C453.337 375.6 452.025 377.249 451.242 376.366C449.193 373.213 446.667 368.405 444.939 364.547L444.722 364.611C444.515 364.671 444.294 364.726 444.085 364.724C442.536 365.948 440.171 361.023 439.096 359.886C419.705 332.205 398.38 306.052 377.611 279.467C377.022 279.556 376.557 278.978 376.161 278.499C373.81 284.239 376.783 291.052 377.838 297.093C384.846 327.429 397.31 356.357 407.333 385.892L407.37 385.882C407.398 385.876 407.4 385.879 407.35 385.904L407.339 385.91L407.34 385.912C407.728 385.747 408.258 385.985 408.272 386.499C408.491 388.327 406.38 388.914 405.138 389.543C406.593 391.681 409.052 396.706 410.52 398.506C412.002 397.647 413.163 399.35 413.992 400.278L414.072 400.376C415.415 402.006 418.318 404.828 418.546 406.667C420.342 407.362 420.695 409.573 420.194 411.096C419.625 412.672 418.557 414.043 417.717 415.502C413.371 421.722 410.694 430.254 402.242 432.727L401.882 432.846C396.071 434.764 394.289 435.131 391.958 429.008C390.863 428.141 390.116 426.917 390.1 425.572C390.256 423.478 391.523 421.614 392.243 419.657C393.553 416.491 395.147 413.449 396.359 410.245C396.224 410.216 396.325 410.114 396.404 410.085C397.187 407.705 395.572 405.388 395.664 402.98C395.41 401.921 396.714 400.835 397.733 400.384C396.436 398.912 393.315 390.521 396.721 395.719L396.767 395.795C397.268 396.612 399.052 399.274 399.156 399.944C402.926 399.086 405.599 401.965 407.882 404.213L407.933 404.199C408.184 404.13 408.5 404.004 408.747 404.169C409.33 402.857 408.776 401.309 409.302 399.975C408.887 399.907 408.601 399.47 408.531 399.039C407.881 396.942 405.34 392.143 404.793 389.693C401.245 391.124 397.793 392.852 394.059 393.808C393.916 394.496 392.981 394.85 392.533 394.037C383.019 376.163 374.24 357.917 365.941 339.475C357.933 322.359 351.37 304.645 343.804 287.376L342.491 285.172C338.548 278.546 334.648 271.758 333.132 264.186C332.876 264.212 332.621 264.234 332.365 264.249C330.595 266.835 328.443 258.956 327.799 257.692C324.741 249.95 321.897 242.08 318.513 234.475C317.343 234.676 316.149 234.676 314.955 234.349C308.166 233.106 286.339 202.915 284.068 195.56C282.467 191.037 284.815 186.912 287.643 183.953L288.049 183.496C291.119 180.046 294.321 176.665 298.094 174.022C298.15 173.798 298.585 173.588 298.709 173.671C299.054 173.684 299.479 173.858 299.879 174.072C304.918 170.076 301.08 167.08 302.987 165.163ZM454.812 385.849C455.198 388.206 457.086 389.03 459.271 388.794C466.972 388.2 475.003 386.604 482.032 382.963C483.761 381.169 485.256 379.031 487.006 377.208L487.085 377.135C487.73 376.542 487.986 376.185 487.417 375.39L487.239 375.036C486.923 374.409 486.6 373.787 486.198 373.212C486.574 375.279 485.211 377.367 483.732 378.729C481.9 381.735 478.054 382.144 475.069 383.144C469.946 384.317 459.371 387.693 454.812 385.849ZM417.829 408.354L417.759 408.437C417.151 409.16 416.565 409.948 415.567 410.235C412.599 413.976 409.848 417.846 407.165 421.764C404.441 426.273 399.487 432.599 392.969 429.657C395.071 431.999 394.917 433.33 398.62 431.985C404.991 430.67 408.62 427.16 411.42 421.972C413.579 418.348 416.189 414.924 418.156 411.215L418.178 411.158C418.498 410.317 418.706 409.011 417.829 408.354ZM402.967 401.798C400.745 400.392 397.384 400.919 395.834 402.875C396.809 404.941 398.657 406.795 398.551 409.166C399.667 408.751 400.798 408.366 401.931 407.99L402.97 407.647C403.482 407.483 404.162 407.321 404.401 407.884C404.666 408.506 403.872 408.749 403.327 408.883L403.115 408.933C401.579 409.301 400.04 409.658 398.484 409.957C398.303 411.167 397.788 412.342 397.286 413.48L397.675 413.305C399.035 412.692 400.398 412.057 401.818 411.578C402.472 411.423 402.848 412.308 402.249 412.582C400.498 413.063 398.717 413.486 397.014 414.103C396.597 415.09 396.185 416.077 395.765 417.061C397.368 416.404 398.851 415.533 400.396 414.781C401.401 414.302 402.258 415.715 401.262 416.208C399.45 417.075 397.407 417.559 395.4 417.919L394.916 419.055C394.351 420.381 393.783 421.705 393.196 423.021C392.844 423.815 392.301 424.696 392.248 425.568C392.343 428.756 397.079 428.983 399.327 427.567C402.8 425.513 404.486 421.814 406.797 418.809C408.194 417.343 413.871 407.541 415.386 408.294C415.718 407.744 416.338 407.241 416.433 406.609C415.325 404.624 413.715 402.817 412.212 401.049C411.94 400.746 411.538 400.429 411.308 400.089C410.239 401.518 411.145 403.919 409.17 404.867C409.188 405.552 408.146 405.86 407.495 405.702C406.788 405.531 406.357 404.946 405.917 404.458L405.715 404.235C404.9 403.339 404.032 402.443 402.967 401.798ZM344.923 211.634L344.733 211.835C342.799 213.875 340.652 215.806 338.167 217.082C338.788 219.033 341.459 222.949 340.176 224.613C339.747 225.196 338.77 225.528 338.12 225.049C334.614 227.085 330.92 228.865 327.318 230.744C324.574 232.103 321.872 233.755 318.837 234.415C320.156 235.903 321.258 237.481 322.126 239.295C325.969 246.947 328.356 255.226 332.12 262.883L332.301 263.247L332.275 263.247C332.283 263.26 332.29 263.274 332.298 263.289C332.522 263.234 332.748 263.182 332.974 263.131C333.018 263.054 333.131 263.035 333.222 263.075C349.867 259.385 365.751 252.528 378.881 241.734C381.192 239.862 383.4 237.863 385.537 235.785C385.369 235.556 385.669 235.287 385.867 235.48C386.355 235.04 386.836 234.591 387.337 234.181C387.147 234.017 387.002 233.804 386.949 233.564C385.892 229.414 382.98 225.718 380.439 222.291C376.624 216.976 372.232 212.157 368.027 207.182C363.806 209.467 359.288 211.21 355.226 213.801C355.537 215.292 354.651 217.241 353.041 217.258C351.905 217.272 351.006 216.348 350.131 215.664C348.402 214.31 346.662 212.972 344.923 211.634ZM298.364 174.085C294.903 178.086 291.096 181.754 287.766 185.884C284.808 188.999 283.862 192.896 286.226 197.127C291.318 206.174 297.62 214.548 304.271 222.473L304.581 222.825C307.884 226.585 311.154 230.465 315 233.625C317.69 233.421 320.205 232.301 322.528 231.056C325.922 229.245 329.319 227.44 332.741 225.683L335.423 224.304C336.202 223.904 337.154 223.134 338.1 223.428C338.204 223.487 338.298 223.414 338.408 223.423L338.431 223.426C338.549 223.437 338.721 223.534 338.822 223.434C338.974 223.253 338.794 222.79 338.718 222.563L338.712 222.543C338.314 221.324 337.833 220.124 337.412 218.912C336.657 216.481 335.529 214.113 335.101 211.607C333.474 211.504 331.843 211.247 330.262 210.727L328.888 210.975C325.603 211.572 322.307 212.219 319.157 213.293C319.495 213.999 318.851 214.911 318.101 214.413C316.483 212.966 315.213 211.1 313.729 209.497C309.569 204.552 305.261 199.725 301.336 194.578C305.908 198.471 310.376 203.944 314.807 208.461C314.842 208.39 314.934 208.363 314.989 208.448C318.263 203.991 323.159 201.12 328.633 200.417C330.001 200.234 331.356 199.993 332.726 199.828C333.23 199.832 333.953 199.374 334.377 199.794C334.305 199.378 334.291 198.956 334.398 198.601C334.371 198.391 335.027 197.588 335.307 197.866C340.652 195.626 346.828 195.062 351.63 191.609C349.59 189.594 348.102 186.983 346.571 184.552L346.416 184.268C345.051 181.786 343.309 178.747 342.851 176.3C345.413 181.603 348.809 186.411 352.409 191.02C355.661 188.361 355.371 191.574 352.952 192.928C348.402 196.205 342.591 196.575 337.172 197.563C334.133 197.973 334.4 199.026 336.02 201.453C337.992 204.696 341.135 206.841 344.101 208.979L345.465 209.991C347.734 211.676 349.981 213.354 352.24 215.081C355.254 211.336 360.071 209.463 364.228 207.288C367.537 205.853 369.64 204.373 371.053 200.875C370.804 198.365 370.913 195.776 370.062 193.291C369.399 190.943 368.306 188.726 367.204 186.544L366.704 186.05C360.282 179.716 353.68 173.539 346.509 168.146L346.116 167.847C343.654 165.966 341.102 163.973 338.099 163.431C333.217 162.778 328.451 164.067 323.578 163.808L323.66 163.993C324.948 166.903 326.041 170.066 325.778 173.196C325.234 178.887 319.784 182.346 314.501 182.072C309.186 182.085 304.198 179.13 300.289 175.249L300.245 175.207C299.891 174.864 298.847 173.811 298.364 174.085ZM335.614 211.634C336.484 213.072 337.084 214.645 337.769 216.17C339.526 214.507 341.358 212.979 342.989 211.183C340.567 211.56 338.1 211.74 335.614 211.634ZM323.712 203.004C320.381 204.164 317.591 206.374 314.983 208.651C316.276 210.067 317.606 211.441 318.885 212.867C319.898 212.181 330.965 208.084 330.78 210.3C332.761 210.266 334.755 210.428 336.74 210.417C338.736 210.405 340.717 210.234 342.661 209.892L342.456 209.741C339.1 207.262 335.581 204.316 334.434 200.076C333.405 201.541 330.69 201.383 329.032 201.714C327.207 201.958 325.419 202.361 323.712 203.004ZM294.726 203.112C294.371 202.504 297.122 203.196 297.453 203.24L297.668 203.292C300.286 203.919 302.982 204.72 305.242 206.39C306.634 208.533 300.441 205.052 299.832 204.98C298.161 204.26 296.394 203.826 294.726 203.112ZM344.98 179.64C344.62 180.085 344.841 177.615 345.407 177.442C345.584 177.293 345.941 177.498 345.789 177.736L345.713 177.853C345.354 178.397 344.963 178.913 344.98 179.64Z" fill="#1B1B1B"/>
<path fill-rule="evenodd" clip-rule="evenodd" d="M287.184 122.447C291.171 120.026 297.239 119.237 297.671 119.032L297.682 119.026C297.896 118.896 299.156 119.086 301.46 119.594L301.927 123.924L302.136 123.98C303.137 124.25 304.014 124.518 304.706 124.729C310.357 126.45 319.934 140.863 322.269 146.498C324.605 152.134 326.198 158.069 319.359 162.221C312.519 166.373 302.179 166.492 300.157 165.803C298.808 165.343 297.659 165.428 296.709 166.059C296.635 166.028 296.562 165.997 296.489 165.966L296.332 166.03C294.855 166.635 293.714 166.934 292.911 166.927C291.343 166.913 287.837 163.964 287.341 163.147C286.85 162.337 281.405 157.587 280.99 156.987L280.979 156.97C280.663 156.449 276.765 155.54 276.303 154.78C275.842 154.019 275.377 154.365 274.244 151.387L273.909 150.513C272.702 147.342 270.861 141.997 273.529 137.569C276.46 132.703 283.157 124.891 287.184 122.447Z" fill="white"/>
<path fill-rule="evenodd" clip-rule="evenodd" d="M287.202 122.475C291.189 120.055 297.256 119.266 297.689 119.061L297.7 119.055C297.914 118.925 299.173 119.115 301.478 119.623L301.582 120.595C293.834 125.529 288.855 129.507 286.644 132.529C284.081 136.032 285.211 142.744 290.036 152.665C289.215 154.012 288.513 155.556 287.931 157.295C287.348 159.035 287.363 159.742 287.974 159.417C289.24 161.618 290.319 163.037 291.211 163.674C292.102 164.311 293.687 164.043 295.965 162.868L297.755 164.566L298.25 165.555C297.695 165.604 297.187 165.782 296.726 166.087C296.653 166.057 296.579 166.026 296.507 165.994L296.35 166.059C294.872 166.664 293.732 166.963 292.929 166.956C291.36 166.942 287.855 163.993 287.359 163.176C286.867 162.366 281.423 157.616 281.007 157.016L280.996 156.999C280.68 156.478 276.782 155.569 276.321 154.808C275.859 154.048 275.395 154.393 274.261 151.416L273.927 150.542C272.72 147.371 270.879 142.025 273.546 137.598C276.478 132.732 283.174 124.92 287.202 122.475Z" fill="#EEEEEE"/>
<path fill-rule="evenodd" clip-rule="evenodd" d="M272.801 137.866C273.433 134.073 283.27 122.83 289.926 119.907L290.127 119.821C290.66 119.591 291.207 119.4 291.77 119.25C293.555 118.707 295.515 118.336 297.398 118.559C298.96 118.729 303.133 118.022 303.439 120.761C304.269 121.3 304.978 122.158 305.185 123.059C305.311 123.337 305.383 123.62 305.44 123.924C306.995 124.715 308.487 125.772 309.818 126.83C312.78 129.728 315.495 132.967 317.701 136.419C322.006 142.91 326.163 151.26 323.479 158.776C321.934 163.444 316.979 166.577 311.333 165.38C310.968 165.24 309.576 165.109 309.82 164.79C309.983 164.842 310.146 164.89 310.309 164.934C310.298 164.925 310.29 164.914 310.284 164.901L310.134 164.865C309.848 164.793 309.462 164.673 309.754 164.565C309.774 164.573 309.794 164.578 309.815 164.585C309.893 164.588 309.953 164.594 310.003 164.602L310.028 164.606L310.019 164.603C309.763 164.519 309.564 164.395 309.858 164.373L309.898 164.371C310.067 164.425 310.235 164.474 310.404 164.518C310.394 164.507 310.388 164.493 310.387 164.475L310.228 164.432C310.073 164.388 310.087 164.379 310.084 164.27C309.698 164.085 310.181 164.04 310.28 164.144C310.477 163.942 310.973 164.297 311.159 164.264C321.113 165.807 327.691 155.083 318.16 139.731L317.974 139.43C314.93 134.519 311.469 129.674 306.888 126.336C306.445 126.016 305.987 125.72 305.518 125.45C305.179 125.24 304.835 125.044 304.482 124.863C303.96 125.12 303.41 125.318 302.834 125.457C302.64 125.512 302.445 125.561 302.246 125.601C299.939 127.197 297.692 128.773 295.381 130.377L294.663 130.884C292.716 132.261 290.752 133.767 289.947 136.139C289.097 138.369 290.589 140.844 290.046 143.056C288.967 145.709 289.751 147.034 290.678 149.414C291.691 151.018 294.148 152.75 292.677 154.577C293.296 154.88 292.708 154.911 292.567 154.758C292.564 154.761 292.561 154.765 292.559 154.766C293.192 155.171 292.555 155.061 292.406 154.898C292.379 154.904 292.347 154.9 292.31 154.89C292.902 155.221 292.225 155.148 292.197 155.039C291.082 154.446 289.858 154.992 289.207 155.724C289.217 155.763 289.184 155.787 289.151 155.783C286.236 158.657 291.795 165.834 294.832 162.971C294.961 162.847 295.005 162.928 295.039 162.917C294.818 162.735 295.102 162.691 295.129 162.741L295.143 162.732C295.153 162.724 295.148 162.725 295.158 162.724C294.792 162.297 295.647 162.717 295.63 162.766C295.638 162.749 295.65 162.735 295.662 162.725L295.62 162.69C295.418 162.522 295.478 162.606 295.405 162.484C295.259 162.367 295.295 162.435 295.248 162.33C295.342 162.05 295.698 162.51 295.784 162.507C295.573 162.406 295.577 162.216 295.736 162.244C297.619 163.576 299.666 164.659 301.79 165.201C302.008 165.237 302.227 165.271 302.448 165.295C303.328 165.488 304.392 165.31 305.2 165.464C305.205 165.472 305.207 165.484 305.208 165.497L305.227 165.501L305.247 165.506L305.486 165.491C305.57 165.509 305.652 165.535 305.731 165.571C305.812 165.6 305.89 165.64 305.965 165.686C306.032 165.758 306.015 165.815 305.922 165.823C305.884 165.83 305.845 165.835 305.806 165.841C305.809 165.843 305.811 165.845 305.814 165.846C305.835 165.856 306.011 165.99 305.914 166.01L305.902 166.011C305.847 166.02 305.792 166.027 305.738 166.035C305.831 166.073 305.922 166.12 306.002 166.158C306.076 166.182 306.138 166.224 306.189 166.284C306.209 166.322 306.2 166.349 306.164 166.364C306.101 166.377 306.038 166.389 305.975 166.399L306.008 166.42C306.09 166.476 306.22 166.575 306.103 166.586C306.01 166.607 305.917 166.622 305.822 166.635C305.824 166.652 305.814 166.664 305.782 166.667C305.488 166.719 305.189 166.745 304.888 166.745C304.602 166.708 304.315 166.676 304.028 166.641C303.773 166.632 303.515 166.605 303.256 166.557C301.647 166.445 300.047 166.033 298.581 165.382C298.026 167.415 294.691 167.819 292.485 167.831C290.527 167.832 288.991 166.57 287.796 164.93C286.081 162.786 283.859 163.045 280.88 157.865C280.878 157.867 280.876 157.869 280.872 157.871C280.796 157.889 280.718 157.899 280.639 157.899C280.561 157.904 280.482 157.901 280.402 157.888L280.278 157.829C280.231 157.829 280.188 157.826 280.152 157.819L280.15 157.843C280.143 157.917 280.122 157.826 280.115 157.809L279.901 157.71C279.39 157.472 278.824 157.202 278.367 156.988L278.368 157.007C278.369 157.022 278.371 157.031 278.376 157.033C277.263 156.484 276.071 155.728 275.286 154.771C274.621 154.071 274.186 153.199 273.885 152.359C272.955 149.344 271.514 142.119 272.801 137.866ZM310.214 164.656L310.158 164.643L310.215 164.667C310.245 164.679 310.274 164.689 310.314 164.693C310.308 164.687 310.304 164.68 310.3 164.672C310.272 164.668 310.244 164.663 310.214 164.656ZM290.697 121.238C286.281 123.381 282.783 126.882 279.537 130.52L279.314 130.774C277.477 132.857 275.467 134.949 274.471 137.626C273.157 141.494 273.94 145.9 274.734 149.926C275.167 153.013 277.38 155.446 280.004 156.191C279.139 154.393 278.419 152.573 277.867 150.671C277.803 150.36 277.683 150.318 277.861 150.165C280.835 154.39 281.339 158.54 287.423 161.994C290.183 163.691 289.814 166.382 294.17 165.512L294.292 165.494C295.222 165.35 296.181 165.099 296.805 164.485L296.669 164.409C296.53 164.33 296.475 164.284 296.54 164.174C296.534 164.17 296.527 164.166 296.519 164.161C296.343 164.047 296.168 163.929 295.995 163.808C295.972 163.836 295.947 163.862 295.922 163.889C295.966 163.917 295.993 163.955 295.946 164.002C295.795 164.195 295.611 164.347 295.397 164.458L295.35 164.482C295.108 164.608 294.933 164.65 294.775 164.687C294.727 164.705 294.678 164.724 294.63 164.74C294.145 164.894 293.539 164.905 293.093 164.823C288.548 164.775 284.651 157.587 288.318 154.458C285.733 150.012 283.143 141.436 283.771 135.323C284.299 129.73 291.111 123.31 296.912 120.593C297.009 120.574 297.106 120.555 297.203 120.536C298.093 120.108 299.142 120.031 300.098 119.711C299.194 119.583 298.309 119.669 297.434 119.817C295.458 119.729 293.538 120.198 291.764 120.784C291.389 120.893 291.034 121.044 290.697 121.238ZM290.275 158.102C290.415 157.839 290.466 157.98 290.495 157.913C291.983 156.817 294.594 157.295 296.236 158.017C296.214 158.138 295.884 158.018 295.829 158.001C295.828 158.009 295.825 158.016 295.82 158.021L295.868 158.044C296.564 158.387 295.458 158.158 295.309 158.062C295.302 158.076 295.292 158.087 295.277 158.092C295.37 158.118 295.636 158.171 295.733 158.265L295.804 158.279C296.474 158.42 296.622 158.743 295.791 158.468C295.818 158.488 295.838 158.509 295.842 158.534L295.866 158.536C296.215 158.573 296.72 158.963 295.904 158.744C296.188 159.094 295.194 158.688 295.179 158.704C293.741 158.466 291.869 158.521 290.619 159.135L290.575 159.155C290.338 159.256 290.193 159.248 290.175 159.046C289.864 159.139 289.839 158.956 289.969 158.884C289.697 158.863 289.789 158.629 289.929 158.613C289.715 158.431 290.11 158.399 290.118 158.351C290.114 157.99 290.291 158.186 290.275 158.102ZM278.381 145.942C278.952 145.18 281.735 144.732 282.285 146.041C282.346 146.381 282.092 146.752 281.751 146.745L281.286 146.704C280.478 146.634 279.756 146.581 278.938 146.588C278.504 146.609 278.134 146.318 278.381 145.942ZM281.597 141.548L281.179 141.517C278.919 141.345 275.656 140.988 280.677 140.359C281.255 140.297 281.929 140.059 282.459 140.379C283.37 141.009 282.39 141.683 281.597 141.548ZM278.702 136.381C278.257 135.933 280.203 135.594 280.76 135.478L280.847 135.465C281.402 135.376 282.015 135.235 282.537 135.493C283.201 135.885 282.643 136.389 282.092 136.364C280.942 136.277 279.8 136.378 278.702 136.381ZM281.217 131.509C279.69 130.989 282.674 130.564 283.199 130.63L283.214 130.632C283.603 130.675 283.816 131.147 283.645 131.427C282.947 131.871 282.034 131.542 281.217 131.509ZM284.541 127.906C282.463 127.654 284.635 127.055 285.542 127.097C286.238 127.254 286.22 128.243 284.541 127.906Z" fill="#1B1B1B"/>
<path fill-rule="evenodd" clip-rule="evenodd" d="M314.472 151.17C314.451 150.827 314.62 150.395 314.931 150.257C316.324 149.638 317.36 151.349 317.467 152.651C317.562 153.805 316.962 154.88 316 155.361C314.989 155.865 313.793 155.745 312.835 154.981C312.202 154.476 311.363 153.342 311.732 152.52C311.739 152.504 311.76 152.494 311.777 152.501C312.316 152.702 312.68 153.276 313.208 153.544C313.699 153.794 314.285 153.891 314.767 153.668C315.127 153.502 315.388 153.162 315.319 152.752C315.282 152.53 315.215 152.438 315.113 152.331L315.024 152.239C314.713 151.916 314.502 151.654 314.472 151.17ZM310.264 143.459C311.21 143.497 312.869 143.917 312.817 145.466C312.558 146.961 310.649 146.586 309.735 146.447C308.935 146.395 308.918 147.788 309.717 147.931C316.239 148.811 314.103 141.289 310.286 142.727C309.865 142.885 310.004 143.428 310.264 143.459ZM301.286 144.713C301.288 143.784 302.293 143.311 303.009 143.976C303.397 144.337 303.464 144.832 303.737 145.262C303.967 145.624 304.194 146.047 304.307 146.466C304.564 147.42 304.244 148.399 303.438 148.855C302.636 149.31 301.611 149.187 300.815 148.62C300.017 148.051 299.603 147.212 299.369 146.282C299.358 146.237 299.392 146.192 299.439 146.207C299.926 146.365 300.348 146.588 300.79 146.828L301.243 147.074C301.586 147.258 302.055 147.474 302.358 147.259L302.402 147.225C302.485 147.163 302.483 147.191 302.472 147.018C302.466 146.939 302.392 146.83 302.364 146.749L302.355 146.721L302.344 146.71C302.316 146.68 302.27 146.618 302.196 146.508L302.179 146.484C301.835 145.968 301.284 145.371 301.286 144.713ZM312.045 138.799C311.445 137.977 312.444 137.107 313.204 137.523C313.601 137.74 313.912 138.126 314.196 138.498L314.331 138.675C314.623 139.057 314.899 139.472 314.967 139.951C315.076 140.707 314.712 141.363 314.081 141.677C313.479 141.977 312.735 141.931 312.125 141.548C311.581 141.205 310.753 140.394 310.741 139.7C310.74 139.658 310.774 139.632 310.813 139.641C311.261 139.743 311.61 140.214 311.994 140.469C312.39 140.731 312.87 140.93 313.302 140.744C313.715 140.567 313.722 140.251 313.385 139.914C312.949 139.479 312.426 139.32 312.045 138.799ZM298.46 139.378L298.596 139.191C299.065 138.553 299.742 137.734 300.588 137.981C301.109 138.133 301.475 138.601 301.505 139.154C301.54 139.825 301.062 140.132 300.637 140.492C300.154 140.901 299.709 141.392 299.351 141.924C298.948 142.523 298.623 143.161 298.333 143.831C298.056 144.468 297.914 145.32 297.398 145.778C297.377 145.796 297.343 145.802 297.32 145.777C296.813 145.238 296.809 144.407 296.842 143.726C296.883 142.902 297.07 142.132 297.344 141.377C297.608 140.649 298.016 139.99 298.46 139.378ZM311.153 134.683L311.202 134.638C311.539 134.339 311.893 134.147 312.377 134.301C312.747 134.419 313.028 134.692 313.125 135.086C313.214 135.449 313.188 135.889 312.915 136.142C311.995 136.996 310.809 137.667 309.654 138.145C309.125 138.364 308.581 138.568 308.023 138.709L307.765 138.772C307.297 138.888 306.77 139.034 306.293 138.891C306.121 138.84 306.082 138.642 306.173 138.515C306.541 137.999 307.293 137.698 307.814 137.359C308.42 136.965 309.008 136.538 309.581 136.095C310.141 135.662 310.632 135.161 311.153 134.683Z" fill="#1B1B1B"/>
<path fill-rule="evenodd" clip-rule="evenodd" d="M318.61 139.204C318.269 141.084 316.673 142.533 314.833 142.753C310.107 143.311 308.722 136.945 310.718 133.798C311.016 133.484 311.352 132.965 311.755 132.649C311.781 132.604 311.904 132.613 311.972 132.493C315.353 130.966 319.308 135.865 318.61 139.204ZM306.861 146.764C306.715 149.262 304.785 151.176 302.442 151.479C297.844 152.125 296.303 146.67 297.686 143.324C301.644 137.963 307.16 142.143 306.861 146.764ZM296.59 147.664C296.585 147.664 296.581 147.666 296.577 147.666C296.59 147.645 296.604 147.624 296.617 147.603C296.622 147.625 296.626 147.646 296.631 147.668C296.617 147.667 296.603 147.663 296.59 147.664ZM317.787 132.193C317.49 132.374 317.093 132.688 316.983 133.063C315.018 131.196 311.52 130.487 310.486 133.18C309.278 134.651 308.865 136.538 309.182 138.521C307.554 138.471 305.915 139.91 305.511 141.527C303.396 139.537 301.255 139.69 299.238 140.746C296.888 141.654 296.139 145.184 296.575 147.388C295.985 147.652 295.05 147.959 294.759 148.642C290.83 149.715 284.657 152.739 284.3 153.685C283.938 154.183 284.431 155.594 285.149 155.25C285.684 154.8 284.524 154.376 285.065 153.925C288.105 151.786 291.605 150.615 294.919 149.003C295.449 149.244 296.437 148.833 296.82 148.375C297.917 151.895 300.821 152.98 303.659 152.11C308.046 150.754 309.101 145.024 305.757 141.76C306.53 140.434 307.874 139.655 309.33 139.222C312.352 148.934 324.568 141 317.236 133.305C318.956 133.222 318.552 131.923 317.787 132.193Z" fill="#1B1B1B"/>
<g filter="url(#filter4_d_116_6657)">
<path d="M137.244 162.458C116.087 189.109 104.056 201.651 80.4813 193.947C79.9377 198.874 79.7484 201.536 80.4813 205.356C80.4813 224.5 79.392 225.983 83.072 230H336C336 222.5 334.793 218.38 336 205.356L295.48 176.605C284.72 167.751 278.531 169.026 267.361 176.605C253.513 187.881 245.518 196.139 231.033 212.658C218.891 218.38 212.086 216.937 199.945 212.658C181.376 204.254 171.045 196.272 152.963 167.934C147.773 159.532 145.159 153.455 137.244 162.458Z" fill="#22FFFF"/>
</g>
</g>
</g>
<defs>
<filter id="filter0_dddddd_116_6657" x="0" y="0.147609" width="416" height="409.852" filterUnits="userSpaceOnUse" color-interpolation-filters="sRGB">
<feFlood flood-opacity="0" result="BackgroundImageFix"/>
<feColorMatrix in="SourceAlpha" type="matrix" values="0 0 0 0 0 0 0 0 0 0 0 0 0 0 0 0 0 0 127 0" result="hardAlpha"/>
<feOffset dy="0.559259"/>
<feGaussianBlur stdDeviation="1.1069"/>
<feColorMatrix type="matrix" values="0 0 0 0 0 0 0 0 0 0 0 0 0 0 0 0 0 0 0.0468848 0"/>
<feBlend mode="normal" in2="BackgroundImageFix" result="effect1_dropShadow_116_6657"/>
<feColorMatrix in="SourceAlpha" type="matrix" values="0 0 0 0 0 0 0 0 0 0 0 0 0 0 0 0 0 0 127 0" result="hardAlpha"/>
<feOffset dy="2.62385"/>
<feGaussianBlur stdDeviation="2.66004"/>
<feColorMatrix type="matrix" values="0 0 0 0 0 0 0 0 0 0 0 0 0 0 0 0 0 0 0.0647322 0"/>
<feBlend mode="normal" in2="effect1_dropShadow_116_6657" result="effect2_dropShadow_116_6657"/>
<feColorMatrix in="SourceAlpha" type="matrix" values="0 0 0 0 0 0 0 0 0 0 0 0 0 0 0 0 0 0 127 0" result="hardAlpha"/>
<feOffset dy="7.16485"/>
<feGaussianBlur stdDeviation="5.00862"/>
<feColorMatrix type="matrix" values="0 0 0 0 0 0 0 0 0 0 0 0 0 0 0 0 0 0 0.0786233 0"/>
<feBlend mode="normal" in2="effect2_dropShadow_116_6657" result="effect3_dropShadow_116_6657"/>
<feColorMatrix in="SourceAlpha" type="matrix" values="0 0 0 0 0 0 0 0 0 0 0 0 0 0 0 0 0 0 127 0" result="hardAlpha"/>
<feOffset dy="16.347"/>
<feGaussianBlur stdDeviation="8.93452"/>
<feColorMatrix type="matrix" values="0 0 0 0 0 0 0 0 0 0 0 0 0 0 0 0 0 0 0.0940847 0"/>
<feBlend mode="normal" in2="effect3_dropShadow_116_6657" result="effect4_dropShadow_116_6657"/>
<feColorMatrix in="SourceAlpha" type="matrix" values="0 0 0 0 0 0 0 0 0 0 0 0 0 0 0 0 0 0 127 0" result="hardAlpha"/>
<feOffset dy="36.5967"/>
<feGaussianBlur stdDeviation="16.711"/>
<feColorMatrix type="matrix" values="0 0 0 0 0 0 0 0 0 0 0 0 0 0 0 0 0 0 0.1174 0"/>
<feBlend mode="normal" in2="effect4_dropShadow_116_6657" result="effect5_dropShadow_116_6657"/>
<feColorMatrix in="SourceAlpha" type="matrix" values="0 0 0 0 0 0 0 0 0 0 0 0 0 0 0 0 0 0 127 0" result="hardAlpha"/>
<feOffset dy="100"/>
<feGaussianBlur stdDeviation="40"/>
<feColorMatrix type="matrix" values="0 0 0 0 0 0 0 0 0 0 0 0 0 0 0 0 0 0 0.18 0"/>
<feBlend mode="normal" in2="effect5_dropShadow_116_6657" result="effect6_dropShadow_116_6657"/>
<feBlend mode="normal" in="SourceGraphic" in2="effect6_dropShadow_116_6657" result="shape"/>
</filter>
<filter id="filter1_d_116_6657" x="80" y="40" width="299" height="211" filterUnits="userSpaceOnUse" color-interpolation-filters="sRGB">
<feFlood flood-opacity="0" result="BackgroundImageFix"/>
<feColorMatrix in="SourceAlpha" type="matrix" values="0 0 0 0 0 0 0 0 0 0 0 0 0 0 0 0 0 0 127 0" result="hardAlpha"/>
<feOffset dx="22"/>
<feGaussianBlur stdDeviation="10.5"/>
<feComposite in2="hardAlpha" operator="out"/>
<feColorMatrix type="matrix" values="0 0 0 0 0 0 0 0 0 0 0 0 0 0 0 0 0 0 0.25 0"/>
<feBlend mode="normal" in2="BackgroundImageFix" result="effect1_dropShadow_116_6657"/>
<feBlend mode="normal" in="SourceGraphic" in2="effect1_dropShadow_116_6657" result="shape"/>
</filter>
<filter id="filter2_d_116_6657" x="86" y="88" width="293" height="163" filterUnits="userSpaceOnUse" color-interpolation-filters="sRGB">
<feFlood flood-opacity="0" result="BackgroundImageFix"/>
<feColorMatrix in="SourceAlpha" type="matrix" values="0 0 0 0 0 0 0 0 0 0 0 0 0 0 0 0 0 0 127 0" result="hardAlpha"/>
<feOffset dx="22"/>
<feGaussianBlur stdDeviation="10.5"/>
<feComposite in2="hardAlpha" operator="out"/>
<feColorMatrix type="matrix" values="0 0 0 0 0 0 0 0 0 0 0 0 0 0 0 0 0 0 0.25 0"/>
<feBlend mode="normal" in2="BackgroundImageFix" result="effect1_dropShadow_116_6657"/>
<feBlend mode="normal" in="SourceGraphic" in2="effect1_dropShadow_116_6657" result="shape"/>
</filter>
<filter id="filter3_d_116_6657" x="80" y="103" width="299" height="143" filterUnits="userSpaceOnUse" color-interpolation-filters="sRGB">
<feFlood flood-opacity="0" result="BackgroundImageFix"/>
<feColorMatrix in="SourceAlpha" type="matrix" values="0 0 0 0 0 0 0 0 0 0 0 0 0 0 0 0 0 0 127 0" result="hardAlpha"/>
<feOffset dx="22"/>
<feGaussianBlur stdDeviation="10.5"/>
<feComposite in2="hardAlpha" operator="out"/>
<feColorMatrix type="matrix" values="0 0 0 0 0 0 0 0 0 0 0 0 0 0 0 0 0 0 0.25 0"/>
<feBlend mode="normal" in2="BackgroundImageFix" result="effect1_dropShadow_116_6657"/>
<feBlend mode="normal" in="SourceGraphic" in2="effect1_dropShadow_116_6657" result="shape"/>
</filter>
<filter id="filter4_d_116_6657" x="80" y="137" width="299" height="114" filterUnits="userSpaceOnUse" color-interpolation-filters="sRGB">
<feFlood flood-opacity="0" result="BackgroundImageFix"/>
<feColorMatrix in="SourceAlpha" type="matrix" values="0 0 0 0 0 0 0 0 0 0 0 0 0 0 0 0 0 0 127 0" result="hardAlpha"/>
<feOffset dx="22"/>
<feGaussianBlur stdDeviation="10.5"/>
<feComposite in2="hardAlpha" operator="out"/>
<feColorMatrix type="matrix" values="0 0 0 0 0 0 0 0 0 0 0 0 0 0 0 0 0 0 0.25 0"/>
<feBlend mode="normal" in2="BackgroundImageFix" result="effect1_dropShadow_116_6657"/>
<feBlend mode="normal" in="SourceGraphic" in2="effect1_dropShadow_116_6657" result="shape"/>
</filter>
<linearGradient id="paint0_linear_116_6657" x1="119.221" y1="3" x2="363.04" y2="133.815" gradientUnits="userSpaceOnUse">
<stop stop-color="#1C737C"/>
<stop offset="1" stop-color="#033338"/>
</linearGradient>
<clipPath id="clip0_116_6657">
<path d="M80 67C80 31.6538 108.654 3 144 3H272C307.346 3 336 31.6538 336 67V230H80V67Z" fill="white"/>
</clipPath>
</defs>
</svg>
