<svg width="416" height="332" viewBox="0 0 416 332" fill="none" xmlns="http://www.w3.org/2000/svg">
<g filter="url(#filter0_dddddd_116_6836)">
<g clip-path="url(#clip0_116_6836)">
<path d="M80 67C80 31.6538 108.654 3 144 3H272C307.346 3 336 31.6538 336 67V230H80V67Z" fill="url(#paint0_linear_116_6836)"/>
<g filter="url(#filter1_d_116_6836)">
<path d="M94.517 138.865L80.0035 107.905V189.447C79.9243 212.454 81.1129 223.304 90.8449 230H324.809C332.658 225.489 334.975 220.761 336 209.069V70.4046C328.409 64.9738 324.955 70.605 320.263 96.5677C311.91 93.7586 305.406 97.4456 292.46 107.905C285.303 109.995 279.901 99.7718 270.077 79.9977C259.419 59.8747 253.714 49.9424 253.116 79.9977L253.03 80.6985C250.687 99.917 249.347 110.904 238.078 117.062C232.369 115.626 228.662 108.818 222.119 96.8031L221.991 96.5677C214.674 88.3909 210.509 90.0402 202.931 107.905L181.598 156.307C174.089 166.304 170.066 172.715 156.418 156.307C151.155 151.549 147.112 146.901 135.959 131.452C125.123 109.795 118.905 96.1708 113.577 131.452C111.712 136.773 110.951 140.293 109.905 147.15C104.695 151.245 101.92 154.888 94.517 138.865Z" fill="#663D00"/>
</g>
<g filter="url(#filter2_d_116_6836)">
<path d="M96.8553 175.52C94.0261 178.178 91.7524 180.844 86.1113 188.311C85.5927 206.275 86.6899 215.669 93.6151 230H327.595C333.369 224.363 336.428 220.079 335.951 175.52L319.75 139.516C313.747 128.557 310.272 123.515 302.185 133.831L289.735 150.412C279.733 165.134 273.419 160.151 262.108 150.412C255.903 141.969 252.432 142.268 246.248 155.623C240.639 168.96 237.407 176.011 231.581 188.311C222.549 200.902 217.096 200.084 206.853 188.311C193.04 165 186.02 149.46 174.621 117.724C168.362 105.757 163.7 106.431 153.815 117.724C145.225 133.241 140.538 142.339 133.521 162.729C127.48 178.7 122.665 181.009 112.033 175.52C106.998 166.788 103.824 165.303 96.8553 175.52Z" fill="#995C00"/>
</g>
<g filter="url(#filter3_d_116_6836)">
<path d="M325.152 179.525C327.979 181.744 330.251 183.969 335.889 190.202C336.407 205.196 335.311 213.038 328.39 225H94.5608C88.7902 220.295 79.541 217.694 80.0177 180.5L102.401 149.472C108.4 140.325 111.872 136.116 119.955 144.727L132.396 158.567C142.392 170.856 148.702 166.696 160.006 158.567C166.207 151.52 169.676 151.769 175.856 162.917C181.46 174.049 184.69 179.935 190.513 190.202C199.539 200.712 204.989 200.028 215.225 190.202C229.029 170.744 236.044 157.773 247.436 131.282C253.691 121.293 258.35 121.856 268.228 131.282C276.813 144.234 281.497 151.829 288.509 168.848C294.546 182.179 299.359 184.107 309.983 179.525C315.015 172.237 318.188 170.997 325.152 179.525Z" fill="#CC7A00"/>
</g>
<g filter="url(#filter4_d_116_6836)">
<path d="M131.033 162.458C109.215 189.109 96.8082 201.651 72.4963 193.947C71.9358 198.874 71.7405 201.536 72.4963 205.356C72.4963 224.5 71.373 225.983 75.168 230H336C336 222.5 334.755 218.38 336 205.356L294.214 176.605C283.117 167.751 276.735 169.026 265.216 176.605C250.936 187.881 242.691 196.139 227.753 212.658C215.232 218.38 208.214 216.937 195.693 212.658C176.544 204.254 165.89 196.272 147.243 167.934C141.891 159.532 139.195 153.455 131.033 162.458Z" fill="#FF9900"/>
</g>
<path fill-rule="evenodd" clip-rule="evenodd" d="M105.958 393.437C107.98 390.265 105.026 387.84 103.176 386.279C102.015 384.718 97.6244 379.176 94.8158 373.304C92.5175 368.499 91.7282 363.143 90.869 362.341C90.3216 361.676 90.0676 361.181 90.1069 360.853C90.4524 357.973 91.8993 355.707 92.6006 354.144C94.8413 354.367 96.7258 354.307 98.2968 353.826C98.6093 354.078 99.0876 354.429 99.441 353.966C103.289 347 106.476 339.888 110.12 332.839C123.977 305.986 136.572 273.279 140.261 245.419C140.672 244.123 141.211 243.014 141.731 241.963C142.555 242.172 143.319 241.583 144.136 241.365C145.436 240.94 146.853 240.769 147.322 239.356C147.628 239.265 147.638 239.153 147.606 238.879C149.596 235.87 147.47 231.131 147.513 228.057C155.653 211.534 159.297 194.416 167.016 177.733C168.961 177.654 169.466 172.83 170.026 170.971C173.443 158.924 171.66 145.095 162.129 137.202C161.55 136.842 160.875 135.776 160.178 136.064C159.324 135.296 157.701 135.582 157.261 134.394L157.271 134.391C156.955 133.244 157.09 131.985 157.28 130.818C157.202 131.137 157.149 131.464 157.112 131.788C157.202 125.765 157.255 124.165 151.27 121.655C148.545 120.6 144.905 119.341 142.338 121.359C141.232 122.33 140.914 123.798 140.033 124.925C138.416 126.993 135.62 124.664 133.478 125.254C118.348 124.564 103.97 129.293 95.0456 142.143C93.664 143.578 92.1855 144.968 90.9058 146.503C90.7119 146.73 90.1168 147.519 90.6019 148.164L90.8365 148.476C79.7294 165.933 73.52 181.813 82.4521 199.523C81.4557 205.336 76.0663 211.777 75.1171 217.428C74.2367 218.032 74.7228 218.962 75.4402 219.289C75.4965 219.355 75.7369 219.587 75.8019 219.652C68.4751 235.772 65.105 259.914 64.0019 269.527C62.3319 274.925 58.9127 278.597 54.1293 280.099C49.0886 281.1 36.7384 289.496 33.7929 302.023C31.908 301.715 30.0936 301.255 28.1627 301.289C21.2718 297.246 16.0602 311.491 13.7321 316.315C9.82497 324.389 4.82088 336.337 10.7808 344.65C12.3106 346.948 15.8967 350.306 18.9774 348.683C20.0091 348.091 20.4953 347.33 20.54 346.351C26.0216 342.609 27.522 335.607 30.0659 329.774C31.1315 330.098 32.0402 330.993 33.1145 331.189C34.4882 330.662 30.621 329.507 30.2494 329.308C30.6309 328.405 31.0642 327.465 31.5038 326.575C32.0518 326.913 32.7046 327.479 33.2659 327.713C33.5724 327.92 33.9831 327.545 33.869 327.229C33.5822 326.64 32.4249 326.284 31.8097 325.987C32.2055 325.252 32.64 324.486 33.065 323.791C33.8554 324.052 34.4761 324.849 35.2524 325.022C34.832 324.441 33.7407 324.164 33.1509 323.665C34.4914 321.415 36.2461 319.459 37.9249 317.513C39.6685 319.128 41.4327 319.821 43.5378 320.314C44.3132 320.746 44.7767 320.727 45.2922 319.748L45.2638 319.663C50.4017 310.72 58.9226 303.542 72.3056 296.783C74.977 295.373 78.033 293.68 80.4866 291.428C85.4911 286.705 88.3512 280.503 92.7834 275.314C97.0811 270.039 102.036 265.307 106.799 260.563C106.095 263.64 105.496 266.842 104.967 269.919C103.553 280.996 99.2806 291.785 93.7223 301.385C85.7992 314.779 81.6847 329.666 75.7354 343.909C75.4334 344.746 75.2551 345.542 74.8102 346.365C74.7691 346.425 74.7713 346.516 74.8512 346.544L74.999 346.603C75.9039 347.976 77.5599 348.779 78.8373 349.816C79.2704 350.529 78.8117 351.234 78.6448 351.855C77.8441 354.501 77.0844 357.173 75.8389 359.744C73.9086 361.485 72.6744 360.518 71.2562 363.457C69.7133 366.84 67.8956 370.372 68.4379 374.096L67.7563 373.969C66.0643 375.61 66.1632 377.121 68.0837 378.795C77.5055 387.219 91.5659 396.914 104.288 397.928C104.42 398.214 104.805 398.112 105.164 397.874C105.509 397.646 105.831 397.292 105.883 397.037C106.08 395.905 107.069 394.073 105.958 393.437Z" fill="#EEEEEE"/>
<path fill-rule="evenodd" clip-rule="evenodd" d="M105.712 397.015C94.1469 397.781 78.2377 385.476 69.7073 378.607C67.4337 376.684 66.6281 376.173 68.489 373.42C68.8781 376.588 71.6 378.33 74.2384 379.917C83.0319 385.678 91.3237 393.363 102.332 395.209C103.929 395.532 105.724 395.271 106.723 393.927C106.756 394.666 106.268 395.469 106.115 396.211C106.031 396.499 105.925 396.804 105.712 397.015ZM71.7813 365.561C72.6235 363.844 73.6103 362.065 75.212 360.866C74.1536 363.375 74.0739 368.278 77.9657 368.081C79.1033 367.931 80.013 367.115 80.9271 366.528C83.9553 364.603 87.426 363.245 90.9982 362.649C92.5311 363.539 92.1221 366.795 92.7117 368.441C91.3401 368.528 88.7638 368.93 88.0888 370.086C89.7417 370.138 91.4361 369.72 93.0972 369.969C93.3375 370.834 93.6151 371.689 93.9272 372.532C93.0918 372.581 89.6539 372.968 89.4015 373.705C91.0608 374.033 92.8622 373.83 94.5526 374.1C94.9944 375.055 95.3536 376.038 95.7913 376.994C94.5778 377.036 93.2865 377.107 92.3363 377.904C92.2921 377.939 92.3403 378.015 92.3937 377.985C93.5352 377.327 94.9567 377.657 96.2118 377.88C97.3841 380.249 98.8469 382.498 100.691 384.46C102.493 386.537 105.825 388.098 105.727 391.115C105.45 394.064 103.099 393.516 100.957 392.936C98.7513 392.455 96.6243 391.716 94.6073 390.768C88.201 388.078 82.7616 383.876 77.2344 379.916C70.2304 375.738 68.2073 373.71 71.7813 365.561ZM89.737 361.202C86.0645 362.261 82.37 363.59 79.2648 365.818C77.0422 367.743 75.8274 365.617 76.1096 363.517C77.3621 359.062 79.0553 355.441 80.2565 350.937C84.0381 352.961 88.2542 354.147 92.5023 354.632C91.3123 356.4 90.8235 357.057 90.0683 359.044C89.8496 359.71 89.5422 360.507 89.737 361.202ZM122.396 229.317C121.961 229.314 122.024 228.643 122.454 228.646C122.749 228.648 123.044 228.661 123.338 228.679C123.397 228.62 123.478 228.581 123.582 228.582C127.102 228.605 130.525 230.002 133.663 231.476C135.35 232.268 137.014 233.109 138.621 234.055C140.158 234.96 141.658 235.927 143.199 236.828C143.519 236.995 143.84 237.16 144.162 237.323C144.546 237.517 144.314 238.15 143.928 237.955C143.857 237.919 143.787 237.882 143.716 237.845C143.66 237.845 143.602 237.832 143.545 237.8C143.304 237.664 143.064 237.526 142.825 237.386C141.754 236.824 140.694 236.242 139.633 235.66C136.844 234.131 134.045 232.599 131.103 231.378C128.338 230.23 125.413 229.335 122.396 229.317ZM165.923 177.255C161.726 186.447 158.766 194.951 155.397 204.467C153.116 210.863 150.79 217.244 148.204 223.524C147.984 206.962 155.539 191.887 160.401 176.372C162.261 176.436 164.129 176.856 165.923 177.255ZM111.366 236.471C111.518 237.667 112.098 238.799 112.954 239.69C112.732 239.895 112.582 240.163 112.469 240.424C110.448 240.11 110.645 241.197 109.218 241.151C108.302 241.072 107.467 240.873 106.562 241.109C103.274 242.476 102.73 242.083 100.852 239.107C100.955 238.94 98.6828 234.129 98.3019 231.77C97.985 229.803 97.6292 227.808 96.685 226.027C92.4041 216.381 87.5239 206.965 83.5368 197.206C75.0953 178.862 83.2851 164.663 92.5679 149.119C97.3178 151.56 101.873 154.611 105.535 158.464C101.218 165.243 98.6353 171.882 95.1771 179.103C94.6284 179.951 94.1984 181.817 95.6603 181.893C104.143 195.922 98.243 216.077 111.925 227.625C117.389 232.634 113.884 233.748 114.174 239.479C113.084 238.829 112.404 237.46 112.25 236.334C112.174 235.775 111.295 235.916 111.366 236.471ZM83.8647 219.492C83.4606 219.393 83.0598 219.282 82.6594 219.17C82.6008 219.189 82.535 219.195 82.4634 219.178C81.8298 219.029 81.1755 218.898 80.5138 218.805C79.4864 218.789 78.4597 218.742 77.4328 218.708C77.3382 218.718 77.2438 218.728 77.1497 218.741C77.0595 218.753 76.9842 218.732 76.9238 218.693C76.8938 218.692 76.8637 218.691 76.8337 218.69C76.826 218.69 76.8182 218.689 76.8106 218.689C76.7867 218.679 76.7626 218.67 76.7383 218.659C76.7029 218.645 76.6422 218.619 76.5708 218.587C76.5796 218.558 76.5903 218.531 76.5998 218.503C76.3392 218.415 76.228 218.007 76.5496 217.884C77.7287 217.435 79.0293 217.594 80.2351 217.846C81.5405 218.119 82.8052 218.545 84.0994 218.861C84.5204 218.963 84.2808 219.594 83.8647 219.492ZM32.6145 322.598C31.5392 322.101 26.8648 320.178 26.0204 320.71C26.5598 321.218 27.495 321.396 28.172 321.682C29.4883 322.234 30.7779 322.847 32.0312 323.526C31.7405 324.005 31.4597 324.487 31.1941 324.976C29.8123 324.607 27.1922 323.699 25.9981 324.318C27.4197 325.121 29.0737 325.489 30.4783 326.353C30.1418 327.033 29.8248 327.721 29.5217 328.415C28.8936 328.255 25.122 327.522 24.9174 328.082C26.1819 328.753 27.6775 329.045 28.9843 329.68C27.1128 333.815 23.344 347.003 17.2515 345.631C12.2792 343.478 13.1097 334.432 13.8863 330.232C15.7733 320.476 19.6767 310.778 25.9976 303.047C27.9948 300.987 31.0985 301.654 33.6359 302.452C33.5756 302.904 33.5171 303.349 33.4689 303.8C31.4792 305.847 30.1106 308.475 29.0964 311.113C27.9094 315.006 31.5551 319.583 35.902 318.336C34.6853 319.657 33.5904 321.094 32.6145 322.598ZM15.7214 347.495C6.47859 341.601 9.15488 329.355 13.0251 321.057C15.8015 315.312 19.7915 302.506 26.5886 301.051C17.0741 304.896 1.27992 349.274 19.8875 347.42C19.0326 348.518 16.8806 348.127 15.7214 347.495ZM33.1186 306.719C33.1936 306.572 33.2702 306.426 33.3484 306.281C33.3374 309.723 34.1769 313.31 36.3679 316.12C34.7749 317.073 32.5051 316.689 31.488 315.046C29.6889 312.249 31.9865 309.252 33.1186 306.719ZM139.261 126.016C139.229 126.044 139.195 126.071 139.161 126.096C139.019 126.054 138.874 126.015 138.726 125.978C138.905 125.989 139.083 126.004 139.261 126.016ZM107.373 395.535C107.625 394.771 107.976 393.795 107.194 393.199C108.8 390.103 106.793 387.254 104.298 385.303C102.434 382.93 100.082 380.883 98.5271 378.28C99.6282 378.469 100.744 378.618 101.825 378.511C102.641 378.429 102.727 377.181 101.94 377.007C100.55 376.689 99.1091 376.921 97.69 376.926C97.1987 376.082 96.7391 375.221 96.3307 374.338C97.1946 374.482 98.1984 374.92 98.9653 374.294C99.2046 374.099 99.2357 373.815 99.1309 373.556C98.6214 372.426 96.6959 372.649 95.5918 372.513C95.3134 371.77 95.0558 371.023 94.8093 370.271C95.6018 370.485 97.5429 371.366 97.6227 369.957C97.2421 368.689 95.4123 368.685 94.2547 368.486C93.5095 366.288 94.0299 363.535 92.2302 361.809C92.3055 361.371 91.7593 361.204 91.3573 361.193C91.7642 358.49 92.2779 357.231 93.3869 354.718C95.143 354.869 96.9379 354.877 98.6147 354.42C99.1566 354.825 99.9709 354.893 100.363 354.225C104.184 347.316 107.428 340.089 111.054 333.077C124.373 307.242 137.357 274.492 141.245 245.523C141.574 244.493 142.022 243.506 142.498 242.539C143.29 242.614 143.982 242.069 144.73 241.884C146.175 241.392 147.491 241.305 148.18 239.766C148.483 239.635 148.63 239.322 148.611 238.996C149.5 237.484 149.675 235.718 149.333 233.998C148.981 232.052 148.686 230.111 148.52 228.145C156.514 211.92 160.251 194.704 167.831 178.229C169.793 177.97 170.557 172.763 171.002 171.098C173.97 160.181 173.374 146.687 164.524 138.398C164.019 137.503 163.07 136.911 162.298 136.235C161.802 135.71 160.91 135.084 160.236 135.625C159.871 135.256 158.51 134.572 158.156 134.035C158.09 133.935 158.059 133.841 158.076 133.755C158.039 133.743 158 133.72 157.958 133.693C157.746 132.893 158.959 128.321 158.289 128.431C157.123 129.722 156.904 131.59 156.912 133.334C156.807 134.836 156.058 138.52 158.502 138.415C158.933 138.369 158.883 137.815 158.571 137.656C157.675 136.997 157.999 135.442 157.933 134.435C158.25 134.986 160.128 136.335 160.311 136.541C160.977 148.633 133.767 137.897 134.279 129.921C133.664 126.871 135.489 126.021 138.376 126.642C135.531 128.131 137.896 129.575 139.68 127.741C141.192 126.515 142.323 124.762 142.679 122.837C143.078 122.263 143.531 121.466 142.518 121.283C142.517 121.187 142.441 121.234 142.438 121.301C141.887 121.724 141.834 122.606 141.474 123.197C140.982 124.2 140.307 125.111 139.462 125.847C138.465 125.678 137.467 125.524 136.466 125.389C136.331 124.059 131.906 124.968 130.844 124.873C116.63 123.896 103.146 130.352 95.0224 141.798C93.6345 143.208 92.1834 144.604 90.9139 146.118C90.3551 146.771 90.0066 147.708 90.5877 148.481C80.5292 164.156 73.0161 181.59 82.3075 199.605C82.1115 201.108 81.3529 202.499 80.8192 203.905C79.979 206.447 75.6287 213.092 75.0263 217.126C74.88 217.257 74.7543 217.41 74.6611 217.589C74.2276 218.417 74.7268 219.24 75.4542 219.673C75.4763 219.686 75.4991 219.699 75.5217 219.712C75.5361 219.727 75.5497 219.743 75.5649 219.758C69.3325 233.672 65.613 254.375 63.8848 269.39C62.3775 274.212 59.3527 277.983 54.4054 279.54C45.0798 282.283 38.6205 290.247 34.5412 298.608C34.0896 299.453 33.872 300.402 33.7474 301.35C32.056 301.057 30.5041 300.698 28.7529 300.707C20.8873 295.936 14.7279 314.356 12.0728 319.514C8.59848 327.307 5.35882 336.992 10.7505 344.945C12.5638 347.617 16.29 350.921 19.6809 349.156C20.6631 348.595 21.3873 347.781 21.5064 346.642C26.826 342.878 28.409 336.129 30.8005 330.485C31.6907 330.851 32.5242 331.619 33.4948 331.728C34.2461 331.801 34.6597 330.956 34.2108 330.392C33.5511 329.607 32.3486 329.365 31.4258 328.986C31.6585 328.447 31.9038 327.913 32.1606 327.383C32.9671 327.93 34.0448 328.924 34.7698 327.782C35.296 326.692 33.9019 326.076 33.0317 325.697C33.2523 325.294 33.4794 324.896 33.7156 324.502C34.37 324.823 34.9265 325.524 35.672 325.565C36.1063 325.556 36.3802 325.222 36.2189 324.809C35.8917 324.113 34.9742 323.887 34.3517 323.477C35.5183 321.605 36.9858 319.945 38.4259 318.275C39.5606 319.212 40.8607 320.036 42.2933 320.439C43.0704 320.555 43.8738 320.805 44.5657 321.173C45.4558 321.26 45.9651 320.463 46.3343 319.796C46.3279 319.764 46.3211 319.734 46.3114 319.706C52.2365 309.498 62.4545 302.576 73.0022 297.26C75.9396 295.709 78.8713 294.051 81.3055 291.818C86.3104 287.119 89.2341 280.826 93.6498 275.652C97.5157 270.901 101.92 266.604 106.278 262.282C104.691 269.519 103.987 276.955 101.602 284.006C98.6384 292.946 93.4627 300.917 89.3801 309.361C83.6071 320.326 80.6533 332.42 75.6486 343.679C75.3507 344.497 75.1704 345.304 74.7513 346.077C74.5194 346.504 74.7383 346.908 75.0758 347.044C76.0225 348.332 77.4877 349.208 78.7966 350.095C79.082 350.548 78.6302 351.236 78.5298 351.722C77.724 354.363 77.2035 356.389 75.9835 358.9C73.8014 360.459 72.9106 359.749 71.3425 362.769C69.8988 365.992 68.096 369.388 68.4251 372.924C67.7242 372.831 66.746 374.712 66.6488 375.27C66.2659 376.803 67.3905 377.751 68.4562 378.725C76.347 385.568 93.7245 398.464 104.59 398.076C105.123 398.709 106.154 398.24 106.596 397.719C107.157 397.092 107.155 396.283 107.373 395.535Z" fill="#1B1B1B"/>
<path fill-rule="evenodd" clip-rule="evenodd" d="M176.908 116.133C177.743 113.757 178.592 111.333 179.11 108.865C179.618 106.453 179.444 104.038 178.443 101.777C176.317 96.9755 171.656 94.2632 167.312 91.7508L159.887 87.4553C157.621 86.145 155.286 84.5283 152.625 84.2035C151.314 84.0434 150.044 84.3313 148.815 84.7742C147.631 85.2011 146.359 85.6591 145.368 86.457C144.375 87.256 143.718 88.3775 143.088 89.4643C142.378 90.6896 141.713 91.9437 141.098 93.2197C139.866 95.7762 138.84 98.4321 138.033 101.153C137.642 102.473 137.303 103.808 137.005 105.152C136.857 105.818 136.722 106.487 136.6 107.159C136.564 107.357 136.512 107.572 136.469 107.792C135.954 108.412 135.537 109.097 135.275 109.837C134.504 112.014 135.821 114.055 137.387 115.47C138.295 116.291 139.302 116.994 140.173 117.857C141.089 118.765 141.539 119.852 141.949 121.054C142.732 123.347 143.765 125.53 145.126 127.537C148.011 131.792 152.49 134.963 157.625 135.729C158.857 135.913 160.149 135.967 161.385 135.785C162.691 135.593 163.827 135.034 164.89 134.269C166.865 132.85 168.569 131.058 170.064 129.146C171.59 127.196 172.913 125.165 174.043 122.96C175.168 120.762 176.089 118.461 176.908 116.133Z" fill="#EEEEEE"/>
<path fill-rule="evenodd" clip-rule="evenodd" d="M161.94 78.8702C165.384 79.6362 169.36 82.7854 169.891 86.3526C178.365 87.407 188.212 90.9986 192.354 99.5137C196.35 109.274 184.373 115.732 177.99 115.819C177.661 117.949 172.314 130.393 165.73 134.383C160.392 137.853 151.287 136.986 149.582 129.838L149.57 129.779C149.405 128.966 149.751 129.118 149.989 129.767C152.512 134.471 157.594 136.424 162.825 134.394C172.567 130.75 177.624 114.818 177.483 104.461C167.906 99.6493 156.086 98.7094 146.388 103.682L145.808 106.67C145.709 107.179 145.622 107.692 145.511 108.199C145.441 108.523 145.332 108.832 145.026 109.002C144.016 109.565 143.291 107.886 142.498 107.03C142.225 106.883 141.942 106.76 141.652 106.675C136.739 105.537 134.274 114.998 140.02 115.315C140.553 115.205 140.895 115.426 140.917 115.881C141.726 117.465 141.788 119.777 143.108 122.473C143.558 123.467 143.987 124.319 144.58 125.202C144.876 125.861 146.129 126.887 145.367 127.543C143.809 129.101 140.928 121.317 140.637 119.352C137.413 119.42 134.439 117.884 131.628 116.53C116.561 110.018 124.648 94.5432 141.052 88.9732C144.073 88.1047 147.219 87.6496 150.347 87.5619C150.773 87.5499 150.838 86.8786 150.405 86.8907C148.336 86.9489 146.261 87.1622 144.217 87.5421L144.437 86.9425C144.809 85.9333 145.215 84.8894 145.733 84.0331C146.057 83.4271 146.457 82.7999 146.874 82.371C147.738 80.9024 154.124 77.1322 161.94 78.8702ZM140.669 108.691C140.99 108.554 141.333 108.988 141.546 109.06C142.059 109.334 142.487 109.754 142.782 110.185C142.991 110.431 143.125 110.639 143.232 110.825L143.236 110.826C143.235 110.825 143.233 110.826 143.232 110.826L143.243 110.841C143.408 111.085 143.897 112.296 143.467 111.859C143.447 111.794 143.425 111.73 143.402 111.668C143.396 111.673 143.387 111.677 143.378 111.68L143.391 111.735C143.586 112.567 143.082 111.58 143.034 111.349C143.027 111.351 143.02 111.352 143.012 111.353L143.096 111.597C143.108 111.631 143.116 111.659 143.124 111.682L143.144 111.725C143.469 112.42 143.316 112.88 142.999 111.913C143.009 111.957 143.014 112.001 143.004 112.035L143.023 112.093C143.265 112.87 142.965 112.515 142.829 112.171L142.818 112.141L142.819 112.149C142.911 112.563 142.57 112.169 142.561 111.963L142.56 111.954C142.503 111.856 142.48 111.761 142.47 111.735L142.468 111.731C142.22 111.169 141.767 110.604 141.332 110.261C141.265 110.221 141.197 110.183 141.126 110.148C140.854 109.971 140.57 109.814 140.275 109.676C140.24 109.658 140.212 109.616 140.197 109.571C139.744 109.384 139.956 109.248 140.159 109.284L140.163 109.285L140.126 109.268C139.842 109.129 139.68 108.948 140.003 108.994L140.043 109C140.041 108.991 140.04 108.983 140.039 108.974C139.794 108.851 140.053 108.664 140.172 108.777C140.185 108.559 140.421 108.758 140.466 108.742C140.503 108.723 140.545 108.709 140.564 108.715C140.667 108.687 140.626 108.678 140.669 108.691ZM143.407 106.108L143.334 106.121C143.275 106.131 143.218 106.132 143.164 106.124C143.224 106.18 143.281 106.239 143.337 106.299C143.352 106.256 143.367 106.214 143.383 106.171L143.407 106.108Z" fill="#1B1B1B"/>
<path fill-rule="evenodd" clip-rule="evenodd" d="M163.884 129.249C163.229 128.012 162.782 125.848 160.858 126.714C160.364 126.977 159.896 127.804 159.299 127.779C158.507 127.745 158.084 126.737 158.057 126.072C158.257 122.513 162.659 123.153 164.79 124.532C165.751 125.419 165.89 127.605 165.576 128.603C165.364 129.273 164.448 130.033 163.884 129.249ZM173.108 127.077C173.114 127.031 173.115 126.988 173.112 126.947C172.739 126.622 172.334 126.661 172.006 126.895C171.984 126.975 171.978 127.062 171.964 127.145C171.672 127.428 171.366 127.8 171.034 128.015C170.989 128.002 170.945 127.981 170.907 127.952C167.09 126.97 170.312 123.792 166.941 121.452C164.236 119.906 158.827 118.515 156.354 121.008C153.502 125.399 149.292 120.036 148.429 116.88C147.362 113.904 147.157 110.675 146.966 107.545C146.926 106.882 145.99 106.997 145.872 107.575C143.952 109.373 143.003 112.037 141.832 114.354C139.575 119.006 136.609 125.603 139.996 130.214C143.382 138.985 157.099 146.735 166.088 143.174C170.283 139.028 172.269 132.806 173.108 127.077Z" fill="#1B1B1B"/>
<path fill-rule="evenodd" clip-rule="evenodd" d="M159.302 120.357C160.251 119.607 160.624 122.446 160.606 122.904C160.589 123.309 160.53 123.708 160.43 124.097C160.849 124.369 161.322 124.546 161.823 124.63C162.568 124.755 163.132 124.539 163.855 124.443C164.355 124.376 164.784 124.832 164.865 125.28C164.959 125.808 164.629 126.196 164.174 126.394C163.31 126.77 162.005 126.444 161.234 125.973C160.793 125.703 160.423 125.362 160.134 124.96C160.113 125.007 160.093 125.055 160.072 125.102L160.033 125.183C159.717 125.838 159.213 126.622 158.522 126.867C157.388 127.27 156.839 125.481 157.948 125.07L157.982 125.057C158.661 124.83 159.196 123.74 159.4 123.106C159.532 122.692 159.611 122.253 159.627 121.818L159.629 121.731C159.631 121.607 159.596 120.411 159.394 120.487L159.384 120.492C159.293 120.543 159.224 120.418 159.302 120.357ZM166.034 116.639C166.649 117.418 167.441 118.994 166.141 119.874C164.742 120.556 163.744 118.807 163.233 117.994C162.729 117.323 161.579 118.138 162.009 118.862C165.749 124.6 170.43 118.417 166.647 116.221C166.231 115.979 165.881 116.413 166.034 116.639ZM159.207 109.02C160.035 109.171 160.759 109.66 161.233 110.353L161.269 110.406C161.72 111.089 162.117 112.142 161.471 112.79C161.212 113.051 160.767 112.941 160.549 112.698C160.185 112.294 160.32 111.681 160.037 111.21C159.805 110.823 159.42 110.497 158.981 110.378C157.948 110.097 156.968 110.854 156.342 111.588C156.262 111.682 156.086 111.665 156.068 111.525C155.844 109.886 157.739 108.752 159.207 109.02ZM171.84 113.128C173.374 113.559 174.542 115.748 173.566 117.173C173.098 117.857 171.988 117.42 172.062 116.614C172.102 116.171 172.246 115.818 172.08 115.376C171.943 115.011 171.663 114.724 171.288 114.613C170.875 114.49 170.429 114.554 170.041 114.732C169.691 114.892 169.4 115.21 169.052 115.338C168.966 115.369 168.877 115.34 168.835 115.257C168.536 114.669 169.134 113.898 169.585 113.567C170.23 113.094 171.063 112.91 171.84 113.128ZM157.41 105.181C158.678 104.691 160.716 104.52 161.848 105.414C162.499 105.928 162.379 107.24 161.412 107.311C160.293 107.393 159.256 106.805 158.114 106.897C157.634 106.936 157.161 107.031 156.747 107.274C156.42 107.466 156.057 107.744 155.674 107.782C155.573 107.792 155.457 107.75 155.418 107.647C155.006 106.579 156.584 105.5 157.41 105.181ZM171.522 108.962C172.173 109.016 172.826 109.263 173.387 109.589C173.947 109.916 174.463 110.39 174.817 110.934L174.858 110.998C175.243 111.599 175.662 112.421 175.363 113.121C175.114 113.705 174.338 113.875 173.913 113.362C173.567 112.944 173.549 112.357 173.302 111.879C173.099 111.485 172.819 111.13 172.491 110.832C172.126 110.5 171.727 110.26 171.27 110.082C170.918 109.944 170.518 109.928 170.157 109.836C170.164 109.905 169.899 109.776 169.761 109.665C169.663 109.572 169.717 109.425 169.793 109.344C170.17 108.944 171.009 108.92 171.522 108.962Z" fill="#1B1B1B"/>
<path fill-rule="evenodd" clip-rule="evenodd" d="M175.054 120.557C173.639 121.405 169.359 121.339 167.887 119.136C166.414 116.933 165.996 115.624 166.402 113.707C166.445 113.502 166.143 113.243 165.944 113.325C164.828 113.788 163.926 114.569 163.029 115.355C162.016 116.242 161.011 117.138 159.641 117.484C157.325 117.802 153.777 116.65 152.915 115.81C151.263 114.201 150.394 111.749 150.995 109.042C151.037 108.191 150.982 107.647 150.83 107.408C150.615 107.068 149.032 106.249 148.863 106.148C145.816 104.324 141.82 102.398 138.111 103.451C137.628 103.543 135.944 103.937 136.006 103.709C136.313 102.841 138.017 101.252 140.586 101.149C143.764 101.022 147.877 102.474 150.151 103.608C150.265 103.665 150.708 103.717 150.742 103.715C154.907 103.495 158.882 105.442 162.479 107.522C162.989 107.834 167.461 110.884 169.695 110.873C173.425 110.755 177.235 111.081 180.592 112.758C180.62 112.772 180.066 115.616 179.654 115.671C179.326 115.715 178.722 115.914 178.48 116.057C178.264 116.184 178.087 116.376 177.978 116.694C177.369 118.536 176.307 119.806 175.054 120.557ZM162.339 113.985C162.971 113.543 163.597 112.257 163.786 111.219C163.883 110.694 163.859 110.239 163.72 109.965C163.627 109.782 163.489 109.661 163.31 109.605C163.212 109.574 163.098 109.563 162.965 109.582C161.772 108.218 160.07 107.255 158.324 106.701C156.959 106.193 155.865 106.153 155.017 106.409C153.998 106.717 153.317 107.452 152.947 108.386C152.507 109.493 152.512 110.886 152.905 112.132C153.281 113.325 154.012 114.377 155.022 114.933C156.146 115.625 157.469 115.852 158.756 115.681C160.076 115.506 161.357 114.914 162.339 113.985ZM174.08 119.066C175.076 118.505 175.931 117.612 176.393 116.584C176.814 115.648 176.91 114.602 176.492 113.553C176.053 112.761 174.919 112.329 173.607 112.192C171.911 112.014 169.979 112.308 169.232 112.684C169.082 112.704 168.922 112.775 168.729 112.984L168.696 113.071C168.257 113.757 168.071 114.549 168.092 115.351C168.114 116.223 168.379 117.105 168.819 117.867C169.405 118.876 170.207 119.416 171.073 119.611C172.055 119.831 173.129 119.601 174.08 119.066Z" fill="white"/>
<path fill-rule="evenodd" clip-rule="evenodd" d="M169.692 110.536C173.47 110.416 177.335 110.754 180.742 112.456C181.077 112.454 181.406 112.683 181.382 113.147C181.215 117.468 178.794 115.349 178.296 116.803C175.591 124.985 164.229 122.33 166.072 113.637L166.045 113.642C163.68 114.627 162.32 117.155 159.723 117.811C154.418 119.311 149.403 114.696 150.663 108.983L150.673 108.904C150.83 107.7 150.628 107.312 149.369 106.851L149.185 106.737C146.157 104.879 142.022 102.684 138.191 103.779C137.395 103.916 137 104.883 136.289 105.103C135.64 104.995 135.538 104.128 135.684 103.608C137.456 98.546 146.586 101.528 150.454 103.457C150.561 103.406 150.721 103.477 150.74 103.597C154.969 103.373 158.993 105.117 162.647 107.231C164.89 108.597 166.88 110.55 169.692 110.536ZM180.071 113.263C178.139 112.433 176.278 111.864 174.171 111.619C173.061 111.486 172.165 111.506 171.051 111.517C163.972 111.951 165.05 106.903 150.727 103.715C150.622 104.536 150.377 105.295 150.123 106.008C152.946 106.93 151.304 109.343 151.653 111.596L151.664 111.665C152.171 114.952 155.283 117.554 158.846 116.823C161.781 116.314 163.342 112.835 166.27 112.313C168.383 113.005 166.506 115.505 167.21 117.082C168.014 119.803 171.293 121.36 174.037 120.102C175.334 119.487 176.287 118.45 176.803 117.146C177.167 116.326 177.34 115.42 178.194 115.065C178.807 114.779 179.541 115.223 179.886 114.574C180.094 114.191 180.089 113.691 180.071 113.263ZM158.272 106.412C160.263 107.043 162.205 108.151 163.528 109.734C165.138 109.207 163.981 113.25 162.734 114.08C160.642 116.07 157.281 116.64 154.815 115.119C150.883 112.972 151.03 103.712 158.272 106.412ZM163.31 109.953L163.21 109.898C161.511 108.954 157.08 105.858 154.442 107.164C151.368 109.815 153.943 117.144 160.447 114.486C162.306 113.615 163.448 112.144 163.31 109.953ZM168.859 112.501C170.202 111.743 175.787 111.273 176.91 113.324C178.675 117.837 171.331 122.91 168.556 118.077C167.633 116.463 167.414 114.357 168.439 112.778L168.467 112.706C168.477 112.68 168.48 112.688 168.52 112.666C168.618 112.554 168.738 112.504 168.859 112.501ZM175.396 117.268C178.472 112.116 173.428 112.635 169.379 112.81C169.503 113.051 169.415 113.285 169.29 113.458C167.395 117.425 171.519 121.605 175.396 117.268ZM150.283 103.699C148.64 103.651 139.311 99.1771 136.736 103.372C138.245 102.197 140.421 102.316 142.296 102.639C144.847 103.079 147.123 104.219 149.299 105.564L149.529 105.095C149.773 104.598 150.007 104.136 150.283 103.699Z" fill="#1B1B1B"/>
</g>
</g>
<defs>
<filter id="filter0_dddddd_116_6836" x="0" y="0.147609" width="416" height="409.852" filterUnits="userSpaceOnUse" color-interpolation-filters="sRGB">
<feFlood flood-opacity="0" result="BackgroundImageFix"/>
<feColorMatrix in="SourceAlpha" type="matrix" values="0 0 0 0 0 0 0 0 0 0 0 0 0 0 0 0 0 0 127 0" result="hardAlpha"/>
<feOffset dy="0.559259"/>
<feGaussianBlur stdDeviation="1.1069"/>
<feColorMatrix type="matrix" values="0 0 0 0 0 0 0 0 0 0 0 0 0 0 0 0 0 0 0.0468848 0"/>
<feBlend mode="normal" in2="BackgroundImageFix" result="effect1_dropShadow_116_6836"/>
<feColorMatrix in="SourceAlpha" type="matrix" values="0 0 0 0 0 0 0 0 0 0 0 0 0 0 0 0 0 0 127 0" result="hardAlpha"/>
<feOffset dy="2.62385"/>
<feGaussianBlur stdDeviation="2.66004"/>
<feColorMatrix type="matrix" values="0 0 0 0 0 0 0 0 0 0 0 0 0 0 0 0 0 0 0.0647322 0"/>
<feBlend mode="normal" in2="effect1_dropShadow_116_6836" result="effect2_dropShadow_116_6836"/>
<feColorMatrix in="SourceAlpha" type="matrix" values="0 0 0 0 0 0 0 0 0 0 0 0 0 0 0 0 0 0 127 0" result="hardAlpha"/>
<feOffset dy="7.16485"/>
<feGaussianBlur stdDeviation="5.00862"/>
<feColorMatrix type="matrix" values="0 0 0 0 0 0 0 0 0 0 0 0 0 0 0 0 0 0 0.0786233 0"/>
<feBlend mode="normal" in2="effect2_dropShadow_116_6836" result="effect3_dropShadow_116_6836"/>
<feColorMatrix in="SourceAlpha" type="matrix" values="0 0 0 0 0 0 0 0 0 0 0 0 0 0 0 0 0 0 127 0" result="hardAlpha"/>
<feOffset dy="16.347"/>
<feGaussianBlur stdDeviation="8.93452"/>
<feColorMatrix type="matrix" values="0 0 0 0 0 0 0 0 0 0 0 0 0 0 0 0 0 0 0.0940847 0"/>
<feBlend mode="normal" in2="effect3_dropShadow_116_6836" result="effect4_dropShadow_116_6836"/>
<feColorMatrix in="SourceAlpha" type="matrix" values="0 0 0 0 0 0 0 0 0 0 0 0 0 0 0 0 0 0 127 0" result="hardAlpha"/>
<feOffset dy="36.5967"/>
<feGaussianBlur stdDeviation="16.711"/>
<feColorMatrix type="matrix" values="0 0 0 0 0 0 0 0 0 0 0 0 0 0 0 0 0 0 0.1174 0"/>
<feBlend mode="normal" in2="effect4_dropShadow_116_6836" result="effect5_dropShadow_116_6836"/>
<feColorMatrix in="SourceAlpha" type="matrix" values="0 0 0 0 0 0 0 0 0 0 0 0 0 0 0 0 0 0 127 0" result="hardAlpha"/>
<feOffset dy="100"/>
<feGaussianBlur stdDeviation="40"/>
<feColorMatrix type="matrix" values="0 0 0 0 0 0 0 0 0 0 0 0 0 0 0 0 0 0 0.18 0"/>
<feBlend mode="normal" in2="effect5_dropShadow_116_6836" result="effect6_dropShadow_116_6836"/>
<feBlend mode="normal" in="SourceGraphic" in2="effect6_dropShadow_116_6836" result="shape"/>
</filter>
<filter id="filter1_d_116_6836" x="80" y="40" width="299" height="211" filterUnits="userSpaceOnUse" color-interpolation-filters="sRGB">
<feFlood flood-opacity="0" result="BackgroundImageFix"/>
<feColorMatrix in="SourceAlpha" type="matrix" values="0 0 0 0 0 0 0 0 0 0 0 0 0 0 0 0 0 0 127 0" result="hardAlpha"/>
<feOffset dx="22"/>
<feGaussianBlur stdDeviation="10.5"/>
<feComposite in2="hardAlpha" operator="out"/>
<feColorMatrix type="matrix" values="0 0 0 0 0 0 0 0 0 0 0 0 0 0 0 0 0 0 0.25 0"/>
<feBlend mode="normal" in2="BackgroundImageFix" result="effect1_dropShadow_116_6836"/>
<feBlend mode="normal" in="SourceGraphic" in2="effect1_dropShadow_116_6836" result="shape"/>
</filter>
<filter id="filter2_d_116_6836" x="86" y="88" width="293" height="163" filterUnits="userSpaceOnUse" color-interpolation-filters="sRGB">
<feFlood flood-opacity="0" result="BackgroundImageFix"/>
<feColorMatrix in="SourceAlpha" type="matrix" values="0 0 0 0 0 0 0 0 0 0 0 0 0 0 0 0 0 0 127 0" result="hardAlpha"/>
<feOffset dx="22"/>
<feGaussianBlur stdDeviation="10.5"/>
<feComposite in2="hardAlpha" operator="out"/>
<feColorMatrix type="matrix" values="0 0 0 0 0 0 0 0 0 0 0 0 0 0 0 0 0 0 0.25 0"/>
<feBlend mode="normal" in2="BackgroundImageFix" result="effect1_dropShadow_116_6836"/>
<feBlend mode="normal" in="SourceGraphic" in2="effect1_dropShadow_116_6836" result="shape"/>
</filter>
<filter id="filter3_d_116_6836" x="80" y="103" width="299" height="143" filterUnits="userSpaceOnUse" color-interpolation-filters="sRGB">
<feFlood flood-opacity="0" result="BackgroundImageFix"/>
<feColorMatrix in="SourceAlpha" type="matrix" values="0 0 0 0 0 0 0 0 0 0 0 0 0 0 0 0 0 0 127 0" result="hardAlpha"/>
<feOffset dx="22"/>
<feGaussianBlur stdDeviation="10.5"/>
<feComposite in2="hardAlpha" operator="out"/>
<feColorMatrix type="matrix" values="0 0 0 0 0 0 0 0 0 0 0 0 0 0 0 0 0 0 0.25 0"/>
<feBlend mode="normal" in2="BackgroundImageFix" result="effect1_dropShadow_116_6836"/>
<feBlend mode="normal" in="SourceGraphic" in2="effect1_dropShadow_116_6836" result="shape"/>
</filter>
<filter id="filter4_d_116_6836" x="72" y="137" width="307" height="114" filterUnits="userSpaceOnUse" color-interpolation-filters="sRGB">
<feFlood flood-opacity="0" result="BackgroundImageFix"/>
<feColorMatrix in="SourceAlpha" type="matrix" values="0 0 0 0 0 0 0 0 0 0 0 0 0 0 0 0 0 0 127 0" result="hardAlpha"/>
<feOffset dx="22"/>
<feGaussianBlur stdDeviation="10.5"/>
<feComposite in2="hardAlpha" operator="out"/>
<feColorMatrix type="matrix" values="0 0 0 0 0 0 0 0 0 0 0 0 0 0 0 0 0 0 0.25 0"/>
<feBlend mode="normal" in2="BackgroundImageFix" result="effect1_dropShadow_116_6836"/>
<feBlend mode="normal" in="SourceGraphic" in2="effect1_dropShadow_116_6836" result="shape"/>
</filter>
<linearGradient id="paint0_linear_116_6836" x1="119.221" y1="3" x2="363.04" y2="133.815" gradientUnits="userSpaceOnUse">
<stop stop-color="#FBA11B"/>
<stop offset="1" stop-color="#613B00"/>
</linearGradient>
<clipPath id="clip0_116_6836">
<path d="M80 67C80 31.6538 108.654 3 144 3H272C307.346 3 336 31.6538 336 67V230H80V67Z" fill="white"/>
</clipPath>
</defs>
</svg>
