<svg width="416" height="410" viewBox="0 0 416 410" fill="none" xmlns="http://www.w3.org/2000/svg">
<g filter="url(#filter0_dddddd_116_6810)">
<g clip-path="url(#clip0_116_6810)">
<path d="M80 67C80 31.6538 108.654 3 144 3H272C307.346 3 336 31.6538 336 67V230H80V67Z" fill="url(#paint0_linear_116_6810)"/>
<g filter="url(#filter1_d_116_6810)">
<path d="M94.517 138.865L80.0035 107.905V189.447C79.9243 212.454 81.1129 223.304 90.8449 230H324.809C332.658 225.489 334.975 220.761 336 209.069V70.4046C328.409 64.9738 324.955 70.605 320.263 96.5677C311.91 93.7586 305.406 97.4456 292.46 107.905C285.303 109.995 279.901 99.7718 270.077 79.9977C259.419 59.8747 253.714 49.9424 253.116 79.9977L253.03 80.6985C250.687 99.917 249.347 110.904 238.078 117.062C232.369 115.626 228.662 108.818 222.119 96.8031L221.991 96.5677C214.674 88.3909 210.509 90.0402 202.931 107.905L181.598 156.307C174.089 166.304 170.066 172.715 156.418 156.307C151.155 151.549 147.112 146.901 135.959 131.452C125.123 109.795 118.905 96.1708 113.577 131.452C111.712 136.773 110.951 140.293 109.905 147.15C104.695 151.245 101.92 154.888 94.517 138.865Z" fill="#663D00"/>
</g>
<g filter="url(#filter2_d_116_6810)">
<path d="M96.8553 175.52C94.0261 178.178 91.7524 180.844 86.1113 188.311C85.5927 206.275 86.6899 215.669 93.6151 230H327.595C333.369 224.363 336.428 220.079 335.951 175.52L319.75 139.516C313.747 128.557 310.272 123.515 302.185 133.831L289.735 150.412C279.733 165.134 273.419 160.151 262.108 150.412C255.903 141.969 252.432 142.268 246.248 155.623C240.639 168.96 237.407 176.011 231.581 188.311C222.549 200.902 217.096 200.084 206.853 188.311C193.04 165 186.02 149.46 174.621 117.724C168.362 105.757 163.7 106.431 153.815 117.724C145.225 133.241 140.538 142.339 133.521 162.729C127.48 178.7 122.665 181.009 112.033 175.52C106.998 166.788 103.824 165.303 96.8553 175.52Z" fill="#995C00"/>
</g>
<path fill-rule="evenodd" clip-rule="evenodd" d="M475.716 -59.9595C473.417 -56.9821 470.135 -58.94 468.039 -60.152C466.177 -60.7154 459.475 -62.968 452.999 -63.621C447.699 -64.1554 442.392 -63.0831 441.347 -63.6198C440.536 -63.9098 439.984 -63.9807 439.689 -63.8327C437.096 -62.5319 435.455 -60.4029 434.222 -59.2135C435.191 -57.1808 435.772 -55.3873 435.853 -53.7465C436.195 -53.5377 436.688 -53.2066 436.372 -52.7174C431.122 -46.7369 425.51 -41.3285 420.113 -35.512C399.544 -13.3757 373.038 9.55636 348.076 22.466C346.996 23.2924 346.136 24.1745 345.322 25.0201C345.798 25.7246 345.503 26.6429 345.575 27.4856C345.616 28.853 345.935 30.2439 344.765 31.1641C344.782 31.4828 344.68 31.5301 344.411 31.5927C342.255 34.4842 337.075 34.09 334.198 35.1721C321.411 48.429 306.54 57.6572 293.458 70.5721C294.043 72.4291 289.676 74.5385 288.117 75.6953C277.94 82.9915 264.325 86.0004 253.669 79.7069C253.134 79.2841 251.903 79.01 251.938 78.2569C250.925 77.7141 250.645 76.09 249.378 76.0785L249.379 76.0889C248.192 76.1801 247.053 76.7337 246.019 77.3078C246.294 77.126 246.583 76.9656 246.876 76.8211C241.239 78.9466 239.752 79.5386 235.362 74.7578C233.447 72.5517 231.029 69.5538 232.058 66.4546C232.597 65.0856 233.87 64.2887 234.632 63.0779C236.03 60.8559 232.891 59.0144 232.72 56.7996C226.946 42.798 226.523 27.6684 235.589 14.9175C236.471 13.1314 237.278 11.2694 238.289 9.54518C238.436 9.28604 238.977 8.45882 239.748 8.69662L240.121 8.81163C252.782 -7.55318 265.619 -18.776 285.308 -16.3728C290.44 -19.2799 294.674 -26.5328 299.669 -29.3404C299.938 -30.3733 300.978 -30.2312 301.529 -29.6669C301.61 -29.6361 301.91 -29.4887 301.993 -29.4496C314.677 -41.8048 336.249 -53.1555 344.92 -57.4505C349.432 -60.8505 351.729 -65.3118 351.521 -70.3211C350.756 -75.403 354.47 -89.8672 365.258 -96.8829C364.329 -98.5518 363.283 -100.103 362.66 -101.931C356.522 -107.045 368.158 -116.775 371.908 -120.6C378.18 -127.011 387.726 -135.767 397.567 -132.977C400.248 -132.316 404.622 -130.08 404.138 -126.632C403.931 -125.46 403.38 -124.745 402.474 -124.371C400.81 -117.946 394.731 -114.162 390.105 -109.792C390.771 -108.899 391.92 -108.347 392.469 -107.403C392.439 -105.932 390.042 -109.179 389.729 -109.462C389.008 -108.797 388.271 -108.071 387.582 -107.355C388.086 -106.954 388.84 -106.532 389.25 -106.083C389.549 -105.865 389.335 -105.351 388.999 -105.352C388.347 -105.422 387.621 -106.39 387.133 -106.868C386.575 -106.247 386.002 -105.579 385.492 -104.943C386.006 -104.288 386.965 -103.974 387.391 -103.302C386.702 -103.501 386.072 -104.434 385.402 -104.82C383.74 -102.796 382.494 -100.482 381.232 -98.2435C383.342 -97.1502 384.592 -95.7255 385.769 -93.9118C386.439 -93.3288 386.577 -92.8861 385.831 -92.0694L385.742 -92.0674C379.069 -84.2034 375.202 -73.7542 373.378 -58.8729C372.956 -55.8818 372.398 -52.4327 371.111 -49.3614C368.363 -43.0526 363.497 -38.2604 360.116 -32.332C356.609 -26.5012 353.836 -20.2365 350.987 -14.1473C353.643 -15.8521 356.453 -17.501 359.169 -19.0417C369.111 -24.1242 377.815 -31.8001 384.964 -40.2822C394.881 -52.2748 407.493 -61.19 418.878 -71.6133C419.563 -72.181 420.251 -72.6183 420.875 -73.3157C420.918 -73.3749 421.004 -73.4037 421.057 -73.3378L421.163 -73.2189C422.761 -72.8326 424.078 -71.5465 425.486 -70.696C426.304 -70.5304 426.812 -71.2008 427.34 -71.5682C429.557 -73.2179 431.814 -74.8381 433.811 -76.8809C434.795 -79.2869 433.467 -80.1206 435.751 -82.4506C438.412 -85.0485 441.119 -87.9553 444.807 -88.7072L444.456 -89.3052C445.427 -91.4532 446.882 -91.8721 449.108 -90.6324C460.226 -84.6222 474.112 -74.6784 479.376 -63.052C479.689 -63.0244 479.724 -62.6283 479.622 -62.21C479.524 -61.808 479.3 -61.3855 479.078 -61.2497C478.08 -60.6811 476.691 -59.1295 475.716 -59.9595Z" fill="#EEEEEE"/>
<path fill-rule="evenodd" clip-rule="evenodd" d="M478.999 -61.4028C475.801 -72.5436 458.834 -83.3426 449.481 -89.0411C446.901 -90.5286 446.147 -91.1135 444.187 -88.4296C447.3 -89.137 449.861 -87.1663 452.248 -85.2217C460.648 -78.9005 470.688 -73.7028 476.155 -63.9711C477 -62.5787 477.362 -60.8004 476.436 -59.4052C477.143 -59.6244 477.732 -60.3563 478.379 -60.7516C478.621 -60.928 478.872 -61.1314 478.999 -61.4028ZM437.909 -82.6695C436.578 -81.2952 435.239 -79.7641 434.654 -77.851C436.656 -79.6967 441.242 -81.433 442.376 -77.7048C442.62 -76.5835 442.16 -75.4511 441.917 -74.3921C441.133 -70.8911 441.031 -67.1655 441.68 -63.6024C443.037 -62.4619 445.962 -63.95 447.71 -63.9529C447.328 -65.2729 446.833 -67.833 447.692 -68.8597C448.3 -67.3221 448.482 -65.5864 449.279 -64.108C450.174 -64.1749 451.072 -64.2035 451.971 -64.1952C451.734 -64.9979 450.933 -68.3637 451.542 -68.851C452.412 -67.4007 452.832 -65.6373 453.659 -64.1384C454.706 -64.046 455.753 -64.0414 456.8 -63.9532C456.429 -65.1093 456.058 -66.3482 456.486 -67.5122C456.504 -67.5658 456.592 -67.5462 456.582 -67.4857C456.35 -66.1889 457.142 -64.9633 457.777 -63.8581C460.403 -63.5577 463.015 -62.9435 465.485 -61.8732C468.05 -60.8817 470.647 -58.2754 473.453 -59.3893C476.134 -60.6495 474.822 -62.676 473.55 -64.4942C472.35 -66.407 470.934 -68.1577 469.359 -69.7342C464.657 -74.8502 458.861 -78.544 453.263 -82.4027C446.958 -87.5767 444.365 -88.7931 437.909 -82.6695ZM439.891 -64.2989C439.644 -68.1131 439.642 -72.0392 440.686 -75.7155C441.744 -78.459 439.332 -78.8815 437.453 -77.9047C433.685 -75.2166 430.852 -72.3968 427.021 -69.7405C430.207 -66.8683 432.751 -63.3035 434.647 -59.4712C435.907 -61.1898 436.36 -61.8723 437.973 -63.256C438.526 -63.6873 439.172 -64.2468 439.891 -64.2989ZM326.873 11.1135C326.723 10.7051 326.113 10.9922 326.261 11.396C326.363 11.6732 326.475 11.9458 326.591 12.2163C326.556 12.2917 326.547 12.3816 326.583 12.4785C327.797 15.7829 330.272 18.5299 332.722 20.9832C334.039 22.3017 335.394 23.5829 336.828 24.7735C338.2 25.9135 339.619 26.9971 340.988 28.1414C341.254 28.3863 341.518 28.6324 341.78 28.8802C342.093 29.1752 342.61 28.7427 342.295 28.4454C342.237 28.3908 342.178 28.3373 342.12 28.2829C342.101 28.2308 342.069 28.1809 342.019 28.1379C341.81 27.9568 341.599 27.7779 341.386 27.6004C340.495 26.7832 339.588 25.9832 338.681 25.1825C336.298 23.0761 333.908 20.9616 331.762 18.6077C329.746 16.3954 327.912 13.9461 326.873 11.1135ZM292.638 69.7059C299.864 62.6431 306.863 56.9769 314.674 50.5824C319.919 46.2698 325.134 41.919 330.167 37.3584C314.51 42.763 302.887 54.9785 289.937 64.8092C290.627 66.5381 291.655 68.1533 292.638 69.7059ZM329.867 -1.68814C331.043 -1.95027 332.305 -1.78756 333.433 -1.28403C333.551 -1.56266 333.752 -1.79434 333.959 -1.98882C332.979 -3.7842 334.069 -3.96745 333.542 -5.29442C333.157 -6.12916 332.687 -6.84749 332.602 -7.77878C332.775 -11.336 332.221 -11.7148 328.785 -12.4729C328.662 -12.319 323.366 -12.8271 321.017 -12.3862C319.059 -12.0178 317.061 -11.6766 315.066 -11.9615C304.54 -12.721 294.028 -14.1223 283.495 -14.567C263.376 -16.2936 252.792 -3.77747 241.312 10.2228C245.219 13.8646 249.632 17.1165 254.498 19.2568C259.413 12.8985 264.784 8.21893 270.407 2.51843C271.019 1.71495 272.628 0.678244 273.196 2.02783C289.268 5.25565 306.232 -7.12438 321.733 1.83573C328.297 5.27953 328.158 1.60362 333.648 -0.0646171C332.667 -0.870476 331.149 -1.04587 330.038 -0.809428C329.486 -0.691574 329.32 -1.56604 329.867 -1.68814ZM304.574 -21.8094C304.344 -22.1562 304.104 -22.4957 303.862 -22.8342C303.861 -22.896 303.844 -22.9598 303.804 -23.0214C303.448 -23.5669 303.104 -24.1382 302.792 -24.7292C302.429 -25.6905 302.037 -26.6405 301.657 -27.5954C301.634 -27.6877 301.612 -27.78 301.592 -27.8727C301.573 -27.9616 301.527 -28.0254 301.47 -28.0689C301.459 -28.0968 301.448 -28.1247 301.437 -28.1527C301.434 -28.1599 301.431 -28.1672 301.428 -28.1743C301.411 -28.1935 301.394 -28.2128 301.376 -28.2322C301.35 -28.2604 301.305 -28.3088 301.251 -28.3652C301.227 -28.3472 301.205 -28.328 301.182 -28.3096C301.011 -28.5248 300.589 -28.4912 300.583 -28.1471C300.56 -26.8856 301.15 -25.7158 301.796 -24.6666C302.494 -23.5309 303.323 -22.4852 304.059 -21.3746C304.299 -21.0133 304.81 -21.4524 304.574 -21.8094ZM384.216 -104.963C383.385 -105.806 379.991 -109.552 380.206 -110.527C380.867 -110.192 381.351 -109.372 381.849 -108.832C382.814 -107.781 383.829 -106.775 384.892 -105.826C385.244 -106.262 385.602 -106.689 385.972 -107.105C385.157 -108.28 383.415 -110.437 383.593 -111.77C384.83 -110.705 385.736 -109.273 387.026 -108.245C387.551 -108.792 388.092 -109.323 388.641 -109.844C388.278 -110.38 386.311 -113.68 386.768 -114.063C387.828 -113.1 388.609 -111.792 389.65 -110.778C392.906 -113.94 404.037 -121.954 400.682 -127.221C396.972 -131.17 388.742 -127.323 385.054 -125.17C376.514 -120.089 368.712 -113.13 363.58 -104.564C362.318 -101.987 363.998 -99.2929 365.609 -97.176C366.013 -97.3859 366.411 -97.5914 366.82 -97.7897C368.071 -100.355 370.081 -102.533 372.219 -104.381C375.479 -106.817 381.021 -104.938 381.321 -100.426C382.151 -102.018 383.133 -103.535 384.216 -104.963ZM401.917 -129.292C393.24 -135.991 382.625 -129.324 376.13 -122.871C371.665 -118.313 360.968 -110.22 361.902 -103.332C362.296 -113.586 398.698 -143.482 403.258 -125.347C404.002 -126.524 402.904 -128.416 401.917 -129.292ZM369.447 -99.1082C369.334 -98.9878 369.224 -98.8665 369.113 -98.7435C372.348 -99.9201 376.007 -100.346 379.393 -99.2363C379.75 -101.058 378.62 -103.064 376.729 -103.464C373.488 -104.209 371.447 -101.032 369.447 -99.1082ZM235.397 61.9823C235.411 61.9422 235.425 61.901 235.438 61.8607C235.35 61.7409 235.264 61.6182 235.179 61.4915C235.251 61.6562 235.325 61.8186 235.397 61.9823ZM478.169 -59.339C477.536 -58.8427 476.736 -58.1815 475.911 -58.7162C473.542 -56.1555 470.181 -57.0789 467.5 -58.7649C464.637 -59.7145 461.913 -61.2339 458.937 -61.8151C459.489 -60.8432 460.007 -59.8438 460.272 -58.7901C460.472 -57.9949 459.326 -57.4914 458.896 -58.1729C458.126 -59.3731 457.856 -60.8068 457.38 -62.1439C456.419 -62.3201 455.453 -62.4608 454.484 -62.5459C454.913 -61.7818 455.665 -60.986 455.336 -60.0524C455.233 -59.7609 454.977 -59.6355 454.697 -59.6464C453.461 -59.7427 453.02 -61.6302 452.517 -62.6228C451.724 -62.6332 450.933 -62.6221 450.143 -62.5994C450.613 -61.9264 452.099 -60.3986 450.8 -59.8459C449.479 -59.7745 448.854 -61.4945 448.275 -62.5164C445.955 -62.4728 443.541 -61.0504 441.308 -62.1589C440.921 -61.9397 440.579 -62.3969 440.432 -62.7714C438.027 -61.4728 437.016 -60.5628 435.028 -58.668C435.765 -57.0668 436.381 -55.3809 436.519 -53.6484C437.083 -53.2758 437.423 -52.5327 436.928 -51.9376C431.722 -46.0013 426.021 -40.501 420.652 -34.7138C400.859 -13.4284 374.445 9.88373 348.506 23.3571C347.649 24.0156 346.872 24.7719 346.123 25.547C346.463 26.2671 346.185 27.1018 346.264 27.8686C346.291 29.395 346.655 30.663 345.44 31.8324C345.42 32.1621 345.175 32.406 344.862 32.4985C343.74 33.8479 342.138 34.6103 340.404 34.8717C338.454 35.1995 336.528 35.5801 334.622 36.09C322.064 49.108 307.133 58.4578 294.201 71.1709C294.622 73.105 289.982 75.588 288.567 76.571C279.301 83.0623 266.403 87.0735 255.605 81.5553C254.593 81.3834 253.714 80.6913 252.816 80.1943C252.155 79.9053 251.263 79.2782 251.544 78.4605C251.073 78.2425 249.968 77.1935 249.343 77.0422C249.227 77.0141 249.128 77.0169 249.052 77.0616C249.028 77.0317 248.993 77.0024 248.955 76.9721C248.13 77.0431 244.239 79.7332 244.115 79.0663C244.935 77.5314 246.618 76.6929 248.262 76.1093C249.639 75.5015 252.852 73.5487 253.581 75.8838C253.684 76.3052 253.146 76.4455 252.89 76.2058C251.967 75.5865 250.614 76.4184 249.644 76.697C250.27 76.8086 252.175 78.1184 252.431 78.2212C264.033 74.7505 244.713 52.7878 237.382 55.9714C234.305 56.4257 234.123 58.4311 235.685 60.9374C236.122 57.7561 238.282 59.4913 237.162 61.792C236.52 63.6295 235.254 65.2879 233.563 66.2747C233.158 66.8446 232.562 67.5411 232.047 66.6501C231.956 66.6815 231.974 66.5938 232.037 66.5688C232.248 65.9069 233.06 65.5577 233.494 65.0189C234.271 64.2166 234.9 63.2726 235.305 62.2288C234.809 61.3474 234.326 60.4605 233.86 59.565C232.562 59.8885 231.918 55.4173 231.469 54.4498C225.734 41.4081 227.239 26.5338 235.255 15.0129C236.112 13.2293 236.934 11.3909 237.929 9.68342C238.353 8.93671 239.117 8.29105 240.041 8.57587C251.381 -6.19858 265.238 -19.1743 285.335 -16.5363C286.684 -17.2302 287.735 -18.4149 288.877 -19.3937C290.984 -21.0455 295.762 -27.3899 299.353 -29.3232C299.427 -29.5055 299.528 -29.6755 299.665 -29.8237C300.297 -30.5123 301.241 -30.3214 301.894 -29.7836C301.914 -29.7673 301.934 -29.7502 301.954 -29.7335C301.973 -29.7251 301.993 -29.7178 302.012 -29.7085C312.992 -40.2866 331.209 -50.8005 344.751 -57.5141C348.777 -60.566 351.3 -64.6896 351.089 -69.8719C350.51 -79.5753 355.814 -88.3508 362.299 -95.0219C362.94 -95.7328 363.76 -96.2591 364.609 -96.6975C363.76 -98.1895 362.897 -99.528 362.312 -101.179C355.158 -106.963 370.402 -118.999 374.355 -123.245C380.51 -129.154 388.525 -135.483 397.834 -133.105C400.962 -132.304 405.333 -129.918 404.821 -126.13C404.626 -125.016 404.106 -124.059 403.075 -123.56C401.336 -117.28 395.522 -113.504 391.022 -109.342C391.669 -108.628 392.673 -108.104 393.105 -107.228C393.428 -106.546 392.773 -105.87 392.09 -106.101C391.129 -106.456 390.493 -107.506 389.824 -108.246C389.396 -107.844 388.977 -107.432 388.565 -107.011C389.353 -106.438 390.653 -105.76 389.824 -104.691C388.977 -103.827 387.925 -104.93 387.274 -105.62C386.969 -105.276 386.671 -104.928 386.381 -104.572C386.905 -104.065 387.752 -103.779 388.044 -103.091C388.183 -102.68 387.961 -102.309 387.518 -102.321C386.752 -102.393 386.229 -103.179 385.632 -103.626C384.266 -101.894 383.202 -99.9512 382.119 -98.0305C383.384 -97.2803 384.6 -96.3361 385.464 -95.1248C385.837 -94.4331 386.344 -93.7618 386.925 -93.2357C387.308 -92.4276 386.732 -91.6786 386.228 -91.1049C386.197 -91.1003 386.166 -91.0966 386.136 -91.096C378.54 -82.0629 375.489 -70.1038 374.061 -58.3788C373.598 -55.0899 373.031 -51.7697 371.754 -48.7227C369.029 -42.4217 364.099 -37.5387 360.728 -31.6314C357.568 -26.3844 355.017 -20.7851 352.427 -15.2201C358.698 -19.1651 365.456 -22.3473 371.282 -26.9798C378.689 -32.7973 384.435 -40.3678 390.996 -47.0698C399.356 -56.2164 409.734 -63.0931 418.632 -71.6168C419.3 -72.1741 419.998 -72.6174 420.583 -73.2734C420.907 -73.6365 421.361 -73.5673 421.604 -73.2959C423.136 -72.8414 424.457 -71.7599 425.734 -70.8288C426.258 -70.7139 426.751 -71.3718 427.175 -71.631C429.387 -73.2841 431.116 -74.4602 433.066 -76.4588C433.793 -79.0401 432.823 -79.6377 435.133 -82.1361C437.677 -84.5867 440.261 -87.4336 443.699 -88.3219C443.374 -88.9498 444.812 -90.5075 445.304 -90.7879C446.617 -91.6675 447.89 -90.9306 449.167 -90.258C458.279 -85.1525 476.3 -73.1722 479.617 -62.8178C480.393 -62.531 480.301 -61.4025 479.96 -60.8101C479.561 -60.0701 478.799 -59.7969 478.169 -59.339Z" fill="#1B1B1B"/>
<path fill-rule="evenodd" clip-rule="evenodd" d="M238.853 100.75C236.901 102.341 234.908 103.96 232.762 105.284C230.664 106.579 228.333 107.234 225.867 107.058C220.629 106.684 216.498 103.218 212.662 99.983L206.105 94.452C204.105 92.7645 201.792 91.1148 200.585 88.7219C199.99 87.5428 199.831 86.2496 199.831 84.944C199.832 83.6854 199.832 82.333 200.246 81.13C200.662 79.9252 201.494 78.9277 202.303 77.9666C203.216 76.8828 204.17 75.8328 205.162 74.8217C207.15 72.796 209.301 70.931 211.588 69.25C212.697 68.4346 213.839 67.6638 215.002 66.9281C215.579 66.5632 216.162 66.2088 216.753 65.8664C216.927 65.7654 217.112 65.6443 217.304 65.5288C217.713 64.8342 218.217 64.2101 218.824 63.7133C220.611 62.2499 222.978 62.7971 224.84 63.791C225.919 64.3674 226.922 65.0768 228.029 65.6037C229.194 66.1581 230.369 66.2125 231.639 66.1913C234.061 66.1509 236.466 66.3835 238.815 66.9839C243.796 68.2566 248.296 71.3967 250.757 75.9682C251.347 77.0651 251.836 78.2619 252.084 79.4868C252.346 80.7801 252.205 82.0381 251.845 83.2979C251.179 85.6368 250.07 87.8469 248.778 89.9019C247.46 91.9981 245.998 93.9308 244.306 95.7407C242.62 97.5448 240.767 99.1903 238.853 100.75Z" fill="#EEEEEE"/>
<path fill-rule="evenodd" clip-rule="evenodd" d="M198.724 99.293C200.611 102.274 204.921 104.948 208.458 104.238C212.321 111.854 219.036 119.901 228.451 120.913C238.988 121.366 241.006 107.909 238.925 101.874C240.818 100.843 250.714 91.5959 252.237 84.0495C253.693 77.8514 249.793 69.5789 242.489 70.3967L242.43 70.4049C241.609 70.5254 241.869 70.799 242.56 70.8039C247.841 71.584 251.401 75.7034 251.263 81.3122C251.136 91.7126 237.859 101.869 228.067 105.245C220.295 97.8651 215.406 87.0632 216.798 76.2539L219.413 74.6958C219.859 74.4303 220.311 74.174 220.751 73.8987C221.033 73.7223 221.286 73.5152 221.343 73.1697C221.53 72.0289 219.704 71.9151 218.631 71.4592C218.399 71.2524 218.188 71.0281 218.009 70.7837C215.275 66.5469 223.34 61.0222 225.585 66.321C225.663 66.8599 225.987 67.1061 226.422 66.9729C228.186 67.1971 230.383 66.4721 233.367 66.8008C234.454 66.8871 235.401 67.0024 236.433 67.2609C237.154 67.3164 238.543 68.1474 238.902 67.2085C239.84 65.2145 231.54 65.1414 229.593 65.5336C228.565 62.4773 226.112 60.1996 223.886 58.0135C212.654 46.0445 200.834 58.896 201.152 76.2173C201.358 79.3539 201.996 82.4681 202.973 85.4399C203.106 85.8457 202.497 86.1342 202.362 85.7228C201.715 83.7563 201.213 81.7315 200.878 79.6797L200.388 80.0898C199.565 80.7821 198.72 81.5178 198.09 82.2945C197.63 82.8052 197.175 83.3943 196.913 83.9318C195.824 85.2424 194.44 92.5273 198.724 99.293ZM219.574 69.1754C219.553 69.5243 220.078 69.6997 220.218 69.8765C220.65 70.2656 221.189 70.5262 221.695 70.658C221.998 70.7711 222.239 70.826 222.45 70.8639L222.452 70.8681C222.451 70.8671 222.451 70.8651 222.45 70.8639L222.468 70.869C222.754 70.9421 224.059 70.9918 223.502 70.7345C223.434 70.7377 223.367 70.7388 223.3 70.7389C223.303 70.7309 223.304 70.7216 223.304 70.7116L223.36 70.7054C224.209 70.6064 223.109 70.4678 222.876 70.5007C222.875 70.493 222.874 70.4858 222.872 70.4785L223.13 70.4746C223.166 70.4738 223.195 70.4729 223.219 70.472L223.267 70.4768C224.031 70.5466 224.412 70.247 223.394 70.2759C223.439 70.2708 223.482 70.2604 223.511 70.2398L223.572 70.2375C224.385 70.2027 223.949 70.0406 223.579 70.0289L223.548 70.0284L223.556 70.0275C223.976 69.9738 223.49 69.7858 223.293 69.8469L223.284 69.8499C223.172 69.8291 223.076 69.8399 223.048 69.8389L223.043 69.8385C222.431 69.7952 221.745 69.5612 221.275 69.2674C221.215 69.2184 221.156 69.1668 221.099 69.1125C220.84 68.9159 220.596 68.7023 220.367 68.4717C220.338 68.4445 220.29 68.4326 220.241 68.4341C219.912 68.0704 219.856 68.3159 219.959 68.4954L219.961 68.4985L219.932 68.4699C219.706 68.2495 219.481 68.1585 219.633 68.4462L219.653 68.4822C219.644 68.4834 219.635 68.4851 219.626 68.4868C219.427 68.2981 219.339 68.6052 219.486 68.6792C219.286 68.7652 219.553 68.9201 219.553 68.9678C219.547 69.0088 219.548 69.0526 219.56 69.0686C219.569 69.1755 219.546 69.1395 219.574 69.1754ZM218.071 72.6269L218.058 72.554C218.048 72.4951 218.029 72.4416 218.004 72.3933C218.077 72.43 218.151 72.4644 218.227 72.4967C218.192 72.525 218.157 72.5536 218.122 72.5827L218.071 72.6269Z" fill="#1B1B1B"/>
<path fill-rule="evenodd" clip-rule="evenodd" d="M246.782 84.0534C245.396 83.856 243.209 84.1694 243.371 82.0656C243.451 81.5116 244.071 80.7909 243.845 80.238C243.545 79.5037 242.453 79.4478 241.819 79.6471C238.538 81.0418 240.631 84.9668 242.65 86.5041C243.811 87.1078 245.915 86.4974 246.747 85.8647C247.306 85.4383 247.711 84.3187 246.782 84.0534ZM247.863 93.4676C247.822 93.489 247.782 93.5045 247.742 93.5154C247.31 93.275 247.21 92.8804 247.319 92.4927C247.387 92.445 247.467 92.4097 247.54 92.3687C247.708 91.9981 247.954 91.5843 248.044 91.1987C248.016 91.1607 247.981 91.1269 247.941 91.1001C245.724 87.8417 243.826 91.9506 240.482 89.5711C238.111 87.5508 234.969 82.9329 236.477 79.7608C239.642 75.5896 233.17 73.4464 229.908 73.7033C226.746 73.7083 223.639 74.6096 220.629 75.4904C219.992 75.6771 219.783 74.7573 220.287 74.451C221.328 72.0348 223.513 70.2393 225.296 68.3524C228.908 64.6533 234.11 59.6273 239.596 61.2516C248.996 61.4656 260.934 71.745 260.63 81.4095C258.15 86.761 252.969 90.7375 247.863 93.4676Z" fill="#1B1B1B"/>
<path fill-rule="evenodd" clip-rule="evenodd" d="M236.863 82.755C236.479 83.9016 239.277 83.2907 239.701 83.1185C240.077 82.9659 240.432 82.7745 240.765 82.549C241.162 82.8505 241.489 83.2366 241.738 83.6794C242.108 84.3377 242.096 84.9413 242.25 85.6545C242.357 86.1472 242.931 86.3967 243.38 86.3203C243.908 86.2303 244.162 85.7885 244.194 85.2928C244.254 84.3527 243.507 83.2352 242.802 82.6699C242.398 82.3459 241.952 82.1133 241.476 81.9779C241.513 81.9425 241.552 81.9078 241.588 81.8714L241.652 81.8076C242.161 81.2883 242.728 80.5488 242.724 79.8152C242.719 78.612 240.85 78.7018 240.838 79.8844L240.839 79.9206C240.854 80.6366 240.01 81.5088 239.483 81.9151C239.139 82.1803 238.752 82.4037 238.348 82.5658L238.267 82.5974C238.151 82.6413 237.014 83.0127 237.017 82.7975L237.018 82.7864C237.036 82.6835 236.895 82.661 236.863 82.755ZM235.647 90.3483C236.587 90.6633 238.339 90.8745 238.726 89.3532C238.894 87.806 236.91 87.4589 235.972 87.2541C235.17 87.0068 235.547 85.6491 236.374 85.8085C243.04 87.3828 238.809 93.8819 235.461 91.0669C235.092 90.757 235.381 90.2815 235.647 90.3483ZM226.165 86.5072C226.587 87.235 227.292 87.7504 228.105 87.9612L228.167 87.9768C228.963 88.1696 230.088 88.1866 230.479 87.3596C230.636 87.0276 230.382 86.6457 230.08 86.5227C229.577 86.318 229.046 86.6521 228.506 86.5459C228.064 86.4587 227.627 86.2067 227.366 85.8336C226.752 84.9572 227.132 83.7782 227.61 82.9408C227.671 82.8336 227.596 82.6747 227.458 82.7042C225.84 83.0495 225.416 85.2166 226.165 86.5072ZM234.31 97.0006C235.235 98.2975 237.691 98.6545 238.701 97.254C239.186 96.5821 238.398 95.686 237.665 96.0281C237.262 96.2163 236.979 96.4706 236.507 96.4646C236.117 96.4597 235.752 96.2931 235.52 95.9783C235.265 95.6313 235.173 95.1898 235.209 94.7648C235.242 94.3811 235.442 93.9994 235.444 93.6284C235.445 93.5371 235.388 93.4637 235.295 93.4521C234.641 93.3703 234.117 94.1935 233.959 94.7297C233.733 95.4971 233.842 96.3434 234.31 97.0006ZM221.944 86.1162C221.913 87.4757 222.442 89.4508 223.667 90.2133C224.371 90.6517 225.565 90.0937 225.304 89.1603C225.002 88.0795 224.098 87.3034 223.797 86.1976C223.671 85.7332 223.6 85.2559 223.689 84.7834C223.759 84.411 223.897 83.9757 223.803 83.6021C223.778 83.5038 223.699 83.409 223.589 83.4067C222.444 83.3811 221.964 85.2319 221.944 86.1162ZM230.283 98.1124C230.554 98.7071 231.007 99.238 231.505 99.6548C232.002 100.071 232.623 100.396 233.255 100.545L233.329 100.562C234.024 100.72 234.94 100.836 235.497 100.318C235.962 99.8849 235.859 99.0975 235.233 98.8718C234.722 98.6879 234.164 98.8698 233.631 98.7994C233.191 98.7414 232.762 98.5987 232.37 98.3908C231.935 98.1599 231.574 97.8656 231.251 97.4961C231.002 97.2115 230.851 96.8412 230.642 96.5324C230.71 96.5153 230.499 96.3103 230.348 96.2179C230.227 96.1571 230.106 96.2581 230.056 96.3569C229.808 96.8466 230.069 97.6447 230.283 98.1124Z" fill="#1B1B1B"/>
<path fill-rule="evenodd" clip-rule="evenodd" d="M242.388 97.5073C242.707 95.8889 241.194 91.8843 238.623 91.2454C236.052 90.6065 234.678 90.6562 233.012 91.6883C232.834 91.7984 232.488 91.6016 232.498 91.3861C232.555 90.1798 232.985 89.0666 233.42 87.9558C233.911 86.703 234.414 85.4528 234.275 84.0472C233.789 81.7609 231.504 78.8126 230.421 78.2859C228.347 77.277 225.746 77.2905 223.403 78.7731C222.617 79.1008 222.086 79.2336 221.81 79.1718C221.417 79.0838 220.11 77.8725 219.958 77.7477C217.209 75.4987 214.044 72.392 213.777 68.5453C213.7 68.0597 213.5 66.3422 213.307 66.4774C212.594 67.0603 211.676 69.2019 212.45 71.6541C213.407 74.6865 216.167 78.0643 218.005 79.8197C218.097 79.9079 218.295 80.3075 218.305 80.3395C219.51 84.3331 222.688 87.4134 225.864 90.0924C226.33 90.4673 230.715 93.641 231.462 95.7462C232.614 99.2961 234.211 102.77 236.927 105.361C236.95 105.382 239.438 103.897 239.35 103.491C239.28 103.167 239.263 102.531 239.315 102.256C239.362 102.009 239.483 101.777 239.745 101.568C241.271 100.371 242.106 98.9411 242.388 97.5073ZM231.897 87.7715C231.696 88.5153 230.697 89.5398 229.785 90.0701C229.324 90.3386 228.888 90.471 228.582 90.4326C228.379 90.4071 228.219 90.3181 228.105 90.1688C228.043 90.087 227.994 89.9832 227.966 89.8524C226.279 89.1915 224.796 87.9171 223.683 86.4617C222.743 85.3491 222.335 84.3333 222.289 83.4494C222.233 82.3859 222.694 81.4965 223.447 80.8315C224.34 80.0425 225.651 79.5751 226.957 79.5228C228.207 79.4726 229.445 79.8033 230.31 80.5654C231.342 81.3884 232.003 82.5566 232.279 83.8254C232.562 85.1266 232.438 86.5323 231.897 87.7715ZM240.655 97.0958C240.465 98.223 239.915 99.3306 239.104 100.114C238.366 100.826 237.415 101.271 236.286 101.233C235.392 101.089 234.601 100.168 234.028 98.9805C233.286 97.445 232.908 95.5276 233.009 94.697C232.976 94.5492 232.989 94.375 233.12 94.1226L233.191 94.0615C233.687 93.4162 234.37 92.9733 235.132 92.7205C235.959 92.4459 236.879 92.3966 237.745 92.5527C238.893 92.7618 239.673 93.3334 240.149 94.0829C240.689 94.9319 240.837 96.0207 240.655 97.0958Z" fill="white"/>
<path fill-rule="evenodd" clip-rule="evenodd" d="M231.144 95.8584C232.311 99.4533 233.939 102.975 236.694 105.604C236.805 105.92 237.133 106.152 237.561 105.972C241.57 104.351 238.756 102.791 239.955 101.83C246.737 96.5128 240.39 86.7219 232.834 91.4016L232.83 91.3742C232.956 88.816 234.873 86.6796 234.61 84.0138C234.224 78.5143 228.183 75.3601 223.235 78.4805L223.164 78.5176C222.085 79.0729 221.651 79.0138 220.79 77.9855L220.621 77.8508C217.848 75.6319 214.381 72.4853 214.113 68.5094C213.973 67.7141 214.749 67.0155 214.714 66.2722C214.393 65.6975 213.542 65.8951 213.103 66.2088C208.941 69.5917 214.84 77.1709 217.965 80.1567C217.953 80.2743 218.074 80.4013 218.193 80.3781C219.417 84.4332 222.421 87.6277 225.647 90.3499C227.692 91.997 230.204 93.2082 231.144 95.8584ZM237.226 104.699C235.79 103.163 234.625 101.605 233.68 99.7051C233.179 98.7063 232.894 97.8557 232.528 96.8044C230.537 89.9966 226.153 92.7213 218.3 80.3257C219.037 79.9494 219.668 79.4611 220.253 78.9804C222.077 81.3248 223.791 78.9619 226.029 78.5265L226.097 78.5139C229.362 77.8772 232.865 79.924 233.384 83.5237C233.899 86.4577 231.155 89.1049 231.656 92.0367C233.023 93.7897 234.74 91.1772 236.461 91.3053C239.294 91.1397 241.87 93.6973 241.616 96.7053C241.477 98.133 240.824 99.3814 239.772 100.309C239.124 100.929 238.33 101.399 238.286 102.323C238.224 102.997 238.891 103.537 238.397 104.081C238.107 104.406 237.635 104.571 237.226 104.699ZM223.395 86.5107C224.662 88.1703 226.363 89.6222 228.301 90.33C228.35 92.0235 231.763 89.5656 232.121 88.1108C233.284 85.4684 232.682 82.1132 230.415 80.308C227.063 77.3362 218.4 80.6118 223.395 86.5107ZM228.433 90.0513L228.347 89.9754C226.883 88.697 222.469 85.5774 222.804 82.6526C224.257 78.8619 232.025 78.802 231.728 85.8213C231.538 87.8658 230.541 89.4382 228.433 90.0513ZM232.71 94.4089C232.452 95.9293 233.902 101.343 236.213 101.705C241.057 101.836 243.341 93.2077 237.853 92.234C236.023 91.9125 233.967 92.4199 232.829 93.9197L232.77 93.9699C232.75 93.9886 232.758 93.9884 232.751 94.0337C232.679 94.1637 232.672 94.2937 232.71 94.4089ZM239.411 98.9439C235.605 103.583 234.384 98.6623 233.177 94.7933C233.446 94.8282 233.637 94.6661 233.756 94.4895C236.847 91.3628 242.177 93.8264 239.411 98.9439ZM218.135 79.914C217.533 78.3838 210.163 71.1229 213.238 67.2789C212.643 69.0968 213.492 71.1031 214.432 72.7581C215.71 75.0094 217.554 76.764 219.556 78.3564L219.193 78.731C218.808 79.1289 218.453 79.5063 218.135 79.914Z" fill="#1B1B1B"/>
<g filter="url(#filter3_d_116_6810)">
<path d="M325.152 179.525C327.979 181.744 330.251 183.969 335.889 190.202C336.407 205.196 335.311 213.038 328.39 225H94.5608C88.7902 220.295 79.541 217.694 80.0177 180.5L102.401 149.472C108.4 140.325 111.872 136.116 119.955 144.727L132.396 158.567C142.392 170.856 148.702 166.696 160.006 158.567C166.207 151.52 169.676 151.769 175.856 162.917C181.46 174.049 184.69 179.935 190.513 190.202C199.539 200.712 204.989 200.028 215.225 190.202C229.029 170.744 236.044 157.773 247.436 131.282C253.691 121.293 258.35 121.856 268.228 131.282C276.813 144.234 281.497 151.829 288.509 168.848C294.546 182.179 299.359 184.107 309.983 179.525C315.015 172.237 318.188 170.997 325.152 179.525Z" fill="#CC7A00"/>
</g>
<g filter="url(#filter4_d_116_6810)">
<path d="M131.033 162.458C109.215 189.109 96.8082 201.651 72.4963 193.947C71.9358 198.874 71.7405 201.536 72.4963 205.356C72.4963 224.5 71.373 225.983 75.168 230H336C336 222.5 334.755 218.38 336 205.356L294.214 176.605C283.117 167.751 276.735 169.026 265.216 176.605C250.936 187.881 242.691 196.139 227.753 212.658C215.232 218.38 208.214 216.937 195.693 212.658C176.544 204.254 165.89 196.272 147.243 167.934C141.891 159.532 139.195 153.455 131.033 162.458Z" fill="#FF9900"/>
</g>
</g>
</g>
<defs>
<filter id="filter0_dddddd_116_6810" x="0" y="0.147609" width="416" height="409.852" filterUnits="userSpaceOnUse" color-interpolation-filters="sRGB">
<feFlood flood-opacity="0" result="BackgroundImageFix"/>
<feColorMatrix in="SourceAlpha" type="matrix" values="0 0 0 0 0 0 0 0 0 0 0 0 0 0 0 0 0 0 127 0" result="hardAlpha"/>
<feOffset dy="0.559259"/>
<feGaussianBlur stdDeviation="1.1069"/>
<feColorMatrix type="matrix" values="0 0 0 0 0 0 0 0 0 0 0 0 0 0 0 0 0 0 0.0468848 0"/>
<feBlend mode="normal" in2="BackgroundImageFix" result="effect1_dropShadow_116_6810"/>
<feColorMatrix in="SourceAlpha" type="matrix" values="0 0 0 0 0 0 0 0 0 0 0 0 0 0 0 0 0 0 127 0" result="hardAlpha"/>
<feOffset dy="2.62385"/>
<feGaussianBlur stdDeviation="2.66004"/>
<feColorMatrix type="matrix" values="0 0 0 0 0 0 0 0 0 0 0 0 0 0 0 0 0 0 0.0647322 0"/>
<feBlend mode="normal" in2="effect1_dropShadow_116_6810" result="effect2_dropShadow_116_6810"/>
<feColorMatrix in="SourceAlpha" type="matrix" values="0 0 0 0 0 0 0 0 0 0 0 0 0 0 0 0 0 0 127 0" result="hardAlpha"/>
<feOffset dy="7.16485"/>
<feGaussianBlur stdDeviation="5.00862"/>
<feColorMatrix type="matrix" values="0 0 0 0 0 0 0 0 0 0 0 0 0 0 0 0 0 0 0.0786233 0"/>
<feBlend mode="normal" in2="effect2_dropShadow_116_6810" result="effect3_dropShadow_116_6810"/>
<feColorMatrix in="SourceAlpha" type="matrix" values="0 0 0 0 0 0 0 0 0 0 0 0 0 0 0 0 0 0 127 0" result="hardAlpha"/>
<feOffset dy="16.347"/>
<feGaussianBlur stdDeviation="8.93452"/>
<feColorMatrix type="matrix" values="0 0 0 0 0 0 0 0 0 0 0 0 0 0 0 0 0 0 0.0940847 0"/>
<feBlend mode="normal" in2="effect3_dropShadow_116_6810" result="effect4_dropShadow_116_6810"/>
<feColorMatrix in="SourceAlpha" type="matrix" values="0 0 0 0 0 0 0 0 0 0 0 0 0 0 0 0 0 0 127 0" result="hardAlpha"/>
<feOffset dy="36.5967"/>
<feGaussianBlur stdDeviation="16.711"/>
<feColorMatrix type="matrix" values="0 0 0 0 0 0 0 0 0 0 0 0 0 0 0 0 0 0 0.1174 0"/>
<feBlend mode="normal" in2="effect4_dropShadow_116_6810" result="effect5_dropShadow_116_6810"/>
<feColorMatrix in="SourceAlpha" type="matrix" values="0 0 0 0 0 0 0 0 0 0 0 0 0 0 0 0 0 0 127 0" result="hardAlpha"/>
<feOffset dy="100"/>
<feGaussianBlur stdDeviation="40"/>
<feColorMatrix type="matrix" values="0 0 0 0 0 0 0 0 0 0 0 0 0 0 0 0 0 0 0.18 0"/>
<feBlend mode="normal" in2="effect5_dropShadow_116_6810" result="effect6_dropShadow_116_6810"/>
<feBlend mode="normal" in="SourceGraphic" in2="effect6_dropShadow_116_6810" result="shape"/>
</filter>
<filter id="filter1_d_116_6810" x="80" y="40" width="299" height="211" filterUnits="userSpaceOnUse" color-interpolation-filters="sRGB">
<feFlood flood-opacity="0" result="BackgroundImageFix"/>
<feColorMatrix in="SourceAlpha" type="matrix" values="0 0 0 0 0 0 0 0 0 0 0 0 0 0 0 0 0 0 127 0" result="hardAlpha"/>
<feOffset dx="22"/>
<feGaussianBlur stdDeviation="10.5"/>
<feComposite in2="hardAlpha" operator="out"/>
<feColorMatrix type="matrix" values="0 0 0 0 0 0 0 0 0 0 0 0 0 0 0 0 0 0 0.25 0"/>
<feBlend mode="normal" in2="BackgroundImageFix" result="effect1_dropShadow_116_6810"/>
<feBlend mode="normal" in="SourceGraphic" in2="effect1_dropShadow_116_6810" result="shape"/>
</filter>
<filter id="filter2_d_116_6810" x="86" y="88" width="293" height="163" filterUnits="userSpaceOnUse" color-interpolation-filters="sRGB">
<feFlood flood-opacity="0" result="BackgroundImageFix"/>
<feColorMatrix in="SourceAlpha" type="matrix" values="0 0 0 0 0 0 0 0 0 0 0 0 0 0 0 0 0 0 127 0" result="hardAlpha"/>
<feOffset dx="22"/>
<feGaussianBlur stdDeviation="10.5"/>
<feComposite in2="hardAlpha" operator="out"/>
<feColorMatrix type="matrix" values="0 0 0 0 0 0 0 0 0 0 0 0 0 0 0 0 0 0 0.25 0"/>
<feBlend mode="normal" in2="BackgroundImageFix" result="effect1_dropShadow_116_6810"/>
<feBlend mode="normal" in="SourceGraphic" in2="effect1_dropShadow_116_6810" result="shape"/>
</filter>
<filter id="filter3_d_116_6810" x="80" y="103" width="299" height="143" filterUnits="userSpaceOnUse" color-interpolation-filters="sRGB">
<feFlood flood-opacity="0" result="BackgroundImageFix"/>
<feColorMatrix in="SourceAlpha" type="matrix" values="0 0 0 0 0 0 0 0 0 0 0 0 0 0 0 0 0 0 127 0" result="hardAlpha"/>
<feOffset dx="22"/>
<feGaussianBlur stdDeviation="10.5"/>
<feComposite in2="hardAlpha" operator="out"/>
<feColorMatrix type="matrix" values="0 0 0 0 0 0 0 0 0 0 0 0 0 0 0 0 0 0 0.25 0"/>
<feBlend mode="normal" in2="BackgroundImageFix" result="effect1_dropShadow_116_6810"/>
<feBlend mode="normal" in="SourceGraphic" in2="effect1_dropShadow_116_6810" result="shape"/>
</filter>
<filter id="filter4_d_116_6810" x="72" y="137" width="307" height="114" filterUnits="userSpaceOnUse" color-interpolation-filters="sRGB">
<feFlood flood-opacity="0" result="BackgroundImageFix"/>
<feColorMatrix in="SourceAlpha" type="matrix" values="0 0 0 0 0 0 0 0 0 0 0 0 0 0 0 0 0 0 127 0" result="hardAlpha"/>
<feOffset dx="22"/>
<feGaussianBlur stdDeviation="10.5"/>
<feComposite in2="hardAlpha" operator="out"/>
<feColorMatrix type="matrix" values="0 0 0 0 0 0 0 0 0 0 0 0 0 0 0 0 0 0 0.25 0"/>
<feBlend mode="normal" in2="BackgroundImageFix" result="effect1_dropShadow_116_6810"/>
<feBlend mode="normal" in="SourceGraphic" in2="effect1_dropShadow_116_6810" result="shape"/>
</filter>
<linearGradient id="paint0_linear_116_6810" x1="119.221" y1="3" x2="363.04" y2="133.815" gradientUnits="userSpaceOnUse">
<stop stop-color="#FBA11B"/>
<stop offset="1" stop-color="#613B00"/>
</linearGradient>
<clipPath id="clip0_116_6810">
<path d="M80 67C80 31.6538 108.654 3 144 3H272C307.346 3 336 31.6538 336 67V230H80V67Z" fill="white"/>
</clipPath>
</defs>
</svg>
