<svg width="416" height="410" viewBox="0 0 416 410" fill="none" xmlns="http://www.w3.org/2000/svg">
<g filter="url(#filter0_dddddd_116_6895)">
<g clip-path="url(#clip0_116_6895)">
<path d="M80 67C80 31.6538 108.654 3 144 3H272C307.346 3 336 31.6538 336 67V230H80V67Z" fill="url(#paint0_linear_116_6895)"/>
<g filter="url(#filter1_d_116_6895)">
<path d="M94.517 138.865L80.0035 107.905V189.447C79.9243 212.454 81.1129 223.304 90.8449 230H324.809C332.658 225.489 334.975 220.761 336 209.069V70.4046C328.409 64.9738 324.955 70.605 320.263 96.5677C311.91 93.7586 305.406 97.4456 292.46 107.905C285.303 109.995 279.901 99.7718 270.077 79.9977C259.419 59.8747 253.714 49.9424 253.116 79.9977L253.03 80.6985C250.687 99.917 249.347 110.904 238.078 117.062C232.369 115.626 228.662 108.818 222.119 96.8031L221.991 96.5677C214.674 88.3909 210.509 90.0402 202.931 107.905L181.598 156.307C174.089 166.304 170.066 172.715 156.418 156.307C151.155 151.549 147.112 146.901 135.959 131.452C125.123 109.795 118.905 96.1708 113.577 131.452C111.712 136.773 110.951 140.293 109.905 147.15C104.695 151.245 101.92 154.888 94.517 138.865Z" fill="#776F18"/>
</g>
<g filter="url(#filter2_d_116_6895)">
<path d="M96.8553 175.52C94.0261 178.178 91.7524 180.844 86.1113 188.311C85.5927 206.275 86.6899 215.669 93.6151 230H327.595C333.369 224.363 336.428 220.079 335.951 175.52L319.75 139.516C313.747 128.557 310.272 123.515 302.185 133.831L289.735 150.412C279.733 165.134 273.419 160.151 262.108 150.412C255.903 141.969 252.432 142.268 246.248 155.623C240.639 168.96 237.407 176.011 231.581 188.311C222.549 200.902 217.096 200.084 206.853 188.311C193.04 165 186.02 149.46 174.621 117.724C168.362 105.757 163.7 106.431 153.815 117.724C145.225 133.241 140.538 142.339 133.521 162.729C127.48 178.7 122.665 181.009 112.033 175.52C106.998 166.788 103.824 165.303 96.8553 175.52Z" fill="#A39815"/>
</g>
<g filter="url(#filter3_d_116_6895)">
<path d="M325.152 179.525C327.979 181.744 330.251 183.969 335.889 190.202C336.407 205.196 335.311 213.038 328.39 225H94.5608C88.7902 220.295 79.541 217.694 80.0177 180.5L102.401 149.472C108.4 140.325 111.872 136.116 119.955 144.727L132.396 158.567C142.392 170.856 148.702 166.696 160.006 158.567C166.207 151.52 169.676 151.769 175.856 162.917C181.46 174.049 184.69 179.935 190.513 190.202C199.539 200.712 204.989 200.028 215.225 190.202C229.029 170.744 236.044 157.773 247.436 131.282C253.691 121.293 258.35 121.856 268.228 131.282C276.813 144.234 281.497 151.829 288.509 168.848C294.546 182.179 299.359 184.107 309.983 179.525C315.015 172.237 318.188 170.997 325.152 179.525Z" fill="#D0C012"/>
</g>
<path fill-rule="evenodd" clip-rule="evenodd" d="M263.686 166.173C265.725 155.877 268.375 145.364 273.584 136.112C276.157 123.791 275.15 105.743 287.4 98.3363C287.381 96.8331 290.161 95.7776 291.467 95.0881C293.591 93.9428 296.533 91.5869 298.789 93.2416C299.56 93.0767 301.331 94.174 302.358 92.2119C303.41 90.202 303.642 86.0109 304.371 85.689C304.322 82.6502 318.032 81.7957 321.2 86.357C322.597 89.767 320.581 90.6413 323.996 95.2591C325.657 95.5051 327.214 96.0654 328.705 96.7784C329.962 97.0636 331.209 97.3862 332.45 97.717C348.388 100.583 348.582 112.58 348.911 125.473C348.658 142.734 352.488 160.28 348.715 177.375C349.45 183.666 348.967 190.271 346.931 196.265C351.264 203.929 347.33 207.626 343.649 214.243C343.02 215.437 342.456 216.673 342.111 217.974C342.084 219.003 341.989 220.027 341.722 221.027C340.999 223.297 337.17 222.642 337.199 220.289C337.029 218.727 337.259 217.142 337.157 215.578C337.164 215.659 337.175 215.816 337.174 215.828C336.941 211.895 336.158 210.311 333.894 207.131C331.061 202.176 333.554 196.47 333.265 191.172C333.213 189.406 333.093 187.657 333.065 185.889C331.919 186.437 330.688 186.871 329.421 187.099C329.684 193.189 327.808 199.125 325.799 204.822C320.427 219.48 313.69 234.428 314.691 250.38C314.69 250.372 316.151 263.473 317.632 270.005C319.391 278.278 320.671 286.524 323.474 294.552C324.853 300.276 328.328 305.892 327.662 311.87C328.846 313.992 326.197 316.193 324.046 316.002C323.891 317.813 324.145 320.465 324.808 323.959C324.87 325.876 325.633 328.375 324.028 329.861C325.586 335.111 325.816 340.668 325.902 346.091C325.892 348.659 325.868 351.753 323.014 352.965C320.377 353.848 317.458 353.11 314.714 353.205C312.086 352.983 309.309 353.439 306.776 352.622C303.88 351.522 303.559 348.256 304.338 345.733C304.928 343.087 305.589 340.455 306.29 337.835C308.189 332.162 309.133 325.766 311.408 320.347C310.418 320.072 309.451 319.478 308.832 318.68C307.102 318.474 305.934 317.073 305.64 315.51C305.418 314.5 304.114 314.184 303.252 313.795C303.012 314.63 302.465 315.303 302.003 316.042C302.2 317.712 300.907 319.534 299.042 319.412C298.75 319.648 298.478 319.89 298.182 320.113C300.032 323.412 301.301 327.067 301.38 330.814C301.615 333.703 301.726 338.309 297.884 338.829C296.445 338.895 294.882 339.128 293.532 338.49C291.918 339.054 290.236 339.247 288.537 339.402C281.259 339.997 274.348 339.302 267.045 339.495C265.114 339.597 257.4 339.725 256.217 338.566C254.637 338.75 255.675 337.673 255.115 336.535C254.664 335.678 253.409 334.003 254.344 333.629C256.295 332.978 258.1 331.524 259.899 330.765C268.336 326.876 286.356 320.567 286.255 320.337C286.265 320.494 286.473 316.563 285.919 315.468C285.091 314.494 283.274 314.496 282.403 313.558C281.802 313.534 277.416 311.855 277.987 309.721C278.629 308.034 277.199 305.776 278.442 304.412C277.641 270.281 271.841 236.747 269.973 202.706C269.875 202.604 269.779 202.502 269.682 202.401C267.196 202.6 265.503 199.975 264.925 197.972C264.598 197.578 264.285 197.173 264.003 196.74C262.229 193.971 262.483 190.585 262.521 187.474C262.058 187.069 261.789 186.478 261.819 185.809C261.91 183.815 261.996 181.821 262.083 179.829C262.082 179.829 262.082 179.829 262.082 179.828C261.552 178.787 261.564 177.669 261.836 176.551C262.085 172.884 261.816 169.406 263.686 166.173Z" fill="#EEEEEE"/>
<path fill-rule="evenodd" clip-rule="evenodd" d="M260.718 178.005C261.833 178.881 276.591 187.27 293.532 189.155C305.351 190.469 326.46 186.931 332.444 187.001C334.541 187.025 332.229 193.144 331.839 193.455C331.865 194.791 332.581 197.085 332.367 198.417C334.103 198.123 339.514 197.702 346.754 194.773C347.79 194.354 350.718 167.042 350.3 153.311C349.721 134.316 350.058 117.029 348.524 115.939C348.464 116.416 350.935 103.197 339.898 100.112C337.893 99.5514 326.286 95.8379 326.286 95.8379C320.912 101.589 312.757 106.104 308.354 105.726C300.535 105.055 297.088 93.3067 296.323 93.3786C279.659 94.9444 279.397 114.705 273.574 136.134C268.489 154.848 261.466 172.935 260.718 178.005Z" fill="white"/>
<path d="M270.68 181.298L269.502 180.871L269.605 182.772L269.939 188.574C269.982 189.336 271.542 206.709 274.619 240.691C277.471 279.068 278.83 300.712 278.699 305.624C278.689 305.968 278.825 310.769 279.403 311.222L279.444 311.254L279.486 311.285C279.672 311.422 281.063 312.599 287.149 314.13C289.446 314.708 294.418 315.684 302.066 317.058L302.118 316.031C302.161 315.156 302.224 313.679 302.273 312.638L302.286 312.354L302.31 311.877L302.33 311.875C302.582 311.849 302.814 311.976 303.2 312.439C303.854 313.222 304.628 314.737 305.558 317.152L305.824 317.847C317.295 315.904 324.312 314.304 326.876 313.047L326.995 312.988L327.534 312.721L327.415 311.91C326.86 308.182 318.235 272.599 317.266 267.882L317.176 267.442L317.124 267.19C315.802 260.643 314.862 231.643 318.019 223.259C323.765 207.999 329.064 190.888 329.752 189.159L329.853 188.907L329.955 188.656L330.495 187.335L329.08 187.521C309.536 190.09 289.528 188.029 271.234 181.497L270.68 181.298Z" fill="#B4B4B4"/>
<path fill-rule="evenodd" clip-rule="evenodd" d="M321.31 86.0029C321.301 85.6755 320.868 85.6433 320.8 85.9591C320.014 89.7785 321.157 94.3388 324.75 96.4583C321.728 98.6991 319.466 101.847 315.933 103.432C308.464 107.434 298.611 102.244 297.735 93.9817C299.516 93.7311 302.766 94.044 303.471 92.0496C303.75 91.8089 304.075 89.5699 304.201 87.9088C304.244 87.6016 304.28 87.2936 304.317 86.9879C304.365 86.7418 304.394 86.4893 304.413 86.2344C304.455 85.6813 303.627 85.6212 303.546 86.16C303.513 86.3809 303.484 86.6049 303.455 86.8301C303.444 86.8893 303.431 86.948 303.419 87.0069C303.269 87.4105 303.154 87.8357 303.027 88.2199C302.959 88.4268 302.889 88.6359 302.815 88.8443C302.687 89.3964 302.498 89.9301 302.209 90.4262C301.441 91.7452 299.737 92.7881 298.157 92.6653C297.818 92.639 297.486 92.5605 297.146 92.5399C296.594 92.5067 296.124 92.6866 295.613 92.8669C295.152 93.0297 294.723 93.1298 294.294 93.0923C276.096 97.573 276.647 119.737 272.681 134.35C268.671 148.855 261.781 162.581 259.654 177.575C259.27 179.116 260.945 179.843 261.952 180.674C261.9 184.629 259.905 188.465 260.718 192.453C261.506 195.725 265.128 203.738 269.319 202.884C270.932 238.508 278.904 272.079 276.864 307.822C275.577 310.715 278.354 313.133 281.049 313.804L281.403 314.051C282.588 314.872 283.815 315.683 285.14 316.242C285.173 316.265 285.205 316.288 285.238 316.31C285.302 316.352 285.371 316.379 285.443 316.397C285.288 317.303 284.926 318.135 284.483 318.937C278.701 319.758 273.426 322.766 267.902 324.554C264.281 326.375 253.52 328.531 252.403 332.18L252.373 332.291C251.909 333.929 252.628 336.06 254.511 336.381C253.458 337.029 253.98 338.564 255.033 338.942C256.3 339.398 257.718 339.372 259.043 339.593C271.59 341.068 284.378 341.045 296.883 339.276C297.933 339.126 299.033 338.907 299.953 338.367C305.637 334.61 300.862 325.219 300.023 319.642C300.504 319.607 300.983 319.543 301.456 319.446L301.562 319.424C302.022 319.327 302.5 319.204 302.875 318.917C302.89 318.905 302.904 318.891 302.918 318.879C305.163 319.04 303.303 313.905 303.215 312.567C303.96 314.586 304.526 316.721 305.459 318.663C306.112 319.867 307.828 319.217 308.941 319.232C307.994 325.956 305.817 332.403 303.6 338.806C301.79 344.125 298.921 350.458 306.396 352.763C311.524 354.587 324.069 355.135 326.798 349.582C327.858 344.961 326.821 340.097 326.502 335.426L326.433 334.76C325.965 330.205 325.563 325.635 324.703 321.132C324.595 320.401 324.445 319.681 324.28 318.965C324.285 318.556 324.299 318.147 324.36 317.741C324.441 317.209 324.587 316.694 324.739 316.179C324.758 316.114 324.777 316.038 324.797 315.956C327.093 315.126 328.832 314.114 329.151 312.888C329.468 311.726 329.133 310.492 328.905 309.338L328.892 309.27C323.922 283.674 312.322 259.998 316.914 233.543C318.887 220.507 326.128 208.983 328.297 195.998C329.123 193.442 329.893 190.854 330.211 188.172C330.591 188.117 330.972 188.069 331.351 188.005C331.468 189.186 331.644 190.362 332.001 191.486C331.991 193.646 331.694 195.806 331.138 197.895C331.01 198.377 331.212 198.823 331.601 199.013C330.375 201.948 329.859 205.715 332.155 208.267L332.35 208.421C334.395 210.051 334.586 210.48 334.86 213.213L335.937 220.155C336.073 221.015 336.249 221.893 336.792 222.606C338.234 224.496 340.866 223.569 341.847 221.77C342.761 219.92 342.936 217.812 343.652 215.887C344.243 213.886 345.545 212.246 346.835 210.636C349.726 206.935 350.398 201.494 347.878 197.41C347.684 196.754 347.51 196.109 347.299 195.461C348.384 194.389 347.906 192.513 348.141 191.107C348.243 189.938 348.365 188.771 348.5 187.606C349.3 180.724 350.599 173.929 351.216 167.031C352.291 157.754 350.617 148.536 349.98 139.293C349.533 130.181 350.386 121.003 349.154 111.929C346.939 94.1363 325.528 99.0106 322.593 91.8221C321.676 90.0077 321.367 88.0059 321.31 86.0029ZM324.545 347.231C324.661 349.581 322.982 349.999 321.05 350.545C316.13 351.886 310.586 351.829 305.881 349.744C305.053 349.307 304.485 348.71 304.248 347.887C310.924 349.079 318.028 349.238 324.545 347.231ZM299.778 334.683C299.177 336.734 296.468 336.749 294.637 336.945C290.261 337.476 285.859 337.827 281.45 337.963C272.904 338.258 264.332 337.699 255.865 336.583C255.644 336.464 255.513 336.261 255.223 336.236L255.187 336.234C255.171 336.233 255.156 336.233 255.139 336.232C255.289 336.151 255.42 336.039 255.522 335.902C270.271 335.549 285.063 335.716 299.778 334.683ZM287.03 315.563C290.486 316.474 294.041 317.103 297.631 316.853C297.619 319.806 298.509 322.752 299.162 325.635C294.155 326.509 291.381 320.799 287.091 319.389C287.45 318.113 287.479 316.742 287.03 315.563ZM323.39 316.423C323.377 316.443 323.368 316.467 323.368 316.496C323.092 319.915 323.146 323.35 323.36 326.775C320.537 323.155 315.404 321.86 310.997 322.886L311.034 322.67C311.251 321.441 311.524 320.187 311.428 318.943L311.629 318.905C313.893 318.484 319.197 317.706 323.39 316.423ZM270.377 182.049C289.089 188.835 309.45 190.906 329.168 188.314C327.937 191.327 326.942 194.418 326.156 197.569C324.354 205.693 320.664 213.201 317.941 221.034C314.781 230.283 313.539 238.192 313.88 247.946L313.891 248.241C314.608 270.11 323.456 290.776 326.607 312.217C320.474 315.257 313.154 316.022 306.345 316.913C302.888 307.885 300.101 298.692 298.575 289.159C292.709 259.146 284.033 230.616 289.139 199.898C289.716 199.586 289.603 198.813 289.345 198.304C289.64 196.081 289.975 193.864 290.4 191.666C290.415 191.591 290.29 191.566 290.269 191.636C289.717 193.504 289.146 195.365 288.64 197.245C286.491 194.646 285.225 191.519 283.378 188.74C282.916 190.657 286.308 198.526 287.984 199.843C282.204 222.776 286.681 244.607 291.591 267.31C294.809 283.585 297.894 299.895 301.261 316.139C301.204 316.134 301.147 316.13 301.089 316.127C301.418 315.628 295.372 315.473 294.901 315.168C290.507 314.369 286.261 312.947 282.043 311.524L281.526 311.342C280.477 310.968 279.265 310.455 279.171 309.29L279.18 309.145C279.183 309.103 279.184 309.068 279.18 309.065L279.223 308.938C279.232 308.909 279.238 308.886 279.238 308.879L279.286 308.819C279.342 308.752 279.393 308.693 279.321 308.76C279.854 308.269 279.969 307.451 279.45 306.894C281.716 268.118 272.3 231.643 270.97 192.994C270.822 189.343 270.573 185.697 270.377 182.049ZM346.029 196.083C348.008 199.025 348.058 202.899 346.898 206.178C346.296 207.803 345.249 209.125 344.171 210.47C342.291 212.706 341.272 215.404 340.603 218.201L340.586 218.254C340.314 219.148 339.977 221.651 338.715 221.258C338.396 221.011 338.316 220.043 338.24 219.533L337.277 213.325C336.999 211.527 336.92 209.413 335.502 208.063L335.332 207.933C334.157 207.026 333.023 205.994 332.961 204.417C332.697 202.469 333.652 200.686 334.109 198.854C338.159 198.285 342.146 197.335 346.029 196.083ZM262.413 180.996L262.541 181.073C264.003 181.965 268.349 184.82 269.606 183.975C269.095 189.605 269.065 195.249 269.246 200.893C269.081 200.841 268.906 200.831 268.745 200.875C265.51 199.673 262.447 193.097 262.446 189.853C262.47 186.903 263.315 183.895 262.413 180.996ZM324.299 99.337L324.487 99.1281C326.484 96.9209 327.563 96.164 330.557 97.6899C330.096 98.1703 329.84 98.8452 329.956 99.5767L329.964 99.6235C330.598 103.735 335.418 106.499 339.281 104.623C340.536 105.067 341.954 104.259 342.118 102.955C345.571 105.408 346.914 109.475 347.258 113.473C344.979 112.011 341.666 112.935 340.499 115.353C338.019 119.741 343.697 125.015 347.738 121.487C347.881 129.26 347.593 137.056 348.403 144.806C347.471 142.927 344.919 142.285 343.25 143.622C337.822 147.551 342.784 157.961 349.298 153.76C349.674 158.068 349.566 162.394 349.163 166.685C347.27 165.763 345.909 169.054 345.644 170.474C345.319 172.182 345.899 175.873 347.966 176.255L347.558 178.997C346.862 183.696 346.198 188.394 345.856 193.136C345.749 193.153 345.656 193.193 345.576 193.248C345.559 193.385 345.529 193.52 345.491 193.653C345.454 193.785 345.363 193.849 345.26 193.863L345.256 193.868C345.253 193.963 345.263 194.059 345.291 194.152C341.326 195.426 337.262 196.411 333.148 197.107C333.362 195.776 333.452 194.438 333.426 193.102C335.071 191.786 333.651 186.373 333.646 184.316C333.294 180.165 333.112 176.003 332.992 171.841C334.415 171.841 335.265 170.428 335.739 169.26C336.337 167.98 336.75 166.594 336.528 165.175C336.324 163.491 334.606 161.751 332.809 162.184L332.794 161.066C332.704 153.987 332.702 146.904 332.265 139.835C335.487 142.013 339.034 138.181 338.49 134.924C338.367 133.55 337.656 132.168 336.5 131.361C335.478 130.651 333.308 129.848 332.486 131.147C332.152 131.161 331.829 131.296 331.575 131.514C331.169 127.665 330.607 123.774 329.5 120.065C334.213 117.639 333.983 110.494 328.098 109.98C320.103 109.979 321.221 121.739 329.063 120.218C330.224 134.915 330.357 149.644 330.332 164.374C329.277 165.803 329.232 168.053 330.393 169.432C330.491 174.77 330.708 180.106 331.139 185.43C325.205 186.228 319.219 186.796 313.218 186.779C313.09 184.912 311.169 183.756 309.449 183.46C308.313 183.238 307.028 183.566 305.914 183.681C304.546 184.074 303.363 185.146 302.77 186.375C297.205 185.932 291.67 185.103 286.222 183.909C287.016 181.185 283.163 178.727 280.67 178.947C279.676 178.983 278.685 179.273 277.892 179.874C277.159 179.965 276.43 180.529 276.187 181.261C274.276 180.63 272.308 180.105 270.482 179.254C268.685 178.489 268.211 176.914 268.845 175.156C273.895 177.7 279.046 169.769 274.313 166.335C273.715 165.807 272.41 165.387 271.959 166.249C271.894 166.254 271.829 166.263 271.765 166.272C272.327 164.598 272.891 162.924 273.456 161.25C275.874 161.227 276.976 157.777 275.091 156.371C276.012 153.593 276.912 150.807 277.774 148.01C281.002 148.97 284.077 145.116 283.635 142.104L283.62 142.013C283.365 140.374 282.306 138.693 280.565 138.275C281.188 135.9 281.768 133.511 282.29 131.111C282.786 130.666 283.052 129.962 282.93 129.308C283.202 124.63 284.561 119.906 284.585 115.14C287.709 119.677 295.223 117.416 294.043 111.682C294.584 106.51 287.377 104.043 284.501 108.409C284.319 107.409 284.06 106.408 283.979 105.387C283.964 105.269 283.783 105.277 283.763 105.385L283.762 105.397C282.824 111.989 282.524 118.68 281.245 125.236C278.576 125.138 276.947 131.381 279.795 132.084C278.072 139.357 275.808 146.486 273.405 153.57C270.376 152.509 268.608 159.06 271.062 160.398C270.067 163.276 269.077 166.154 268.103 169.039L268.09 169.032C267.771 168.356 266.767 168.342 266.115 168.41C263.928 169.009 264.495 172.92 266.823 172.883C265.239 176.561 265.736 180.143 269.824 181.804L269.811 181.924C269.69 181.811 269.539 181.715 269.352 181.645C266.791 180.684 264.439 179.33 262.305 177.652C263.908 166.777 267.984 156.45 271.455 146.065C274.44 145.848 275.783 141.215 273.635 139.281C275.829 132.377 276.905 125.216 278.296 118.132C280.457 117.852 281.284 114.497 279.459 113.291C281.434 104.515 286.644 97.4214 295.494 94.3458C295.662 95.6334 296.016 96.9 296.531 98.1012C296.473 98.0995 296.417 98.1017 296.362 98.1061C296.345 98.1304 296.326 98.1541 296.3 98.1762C295.798 98.6086 295.457 99.1144 295.22 99.6669C295.192 99.7875 295.161 99.9078 295.13 100.028C295.147 100.08 295.165 100.131 295.188 100.182C293.977 103.573 298.105 105.714 301.061 105.186C301.517 105.136 301.831 104.91 302.015 104.607C306.896 107.795 313.623 107.788 318.544 104.548C321.741 106.624 326.413 102.818 324.299 99.337ZM341.636 179.193C336.802 178.053 334.526 185.779 338.285 188.3C339.492 189.164 341.236 189.38 342.56 188.653C346.069 186.921 345.731 179.962 341.636 179.193ZM323.404 172.889C317.176 172.328 315.823 181.835 321.111 184.021C325.052 185.533 329.395 181.398 327.643 177.489C327.65 175.152 325.799 173.129 323.404 172.889ZM303.915 172.091C303.803 169.595 301.416 167.016 298.751 167.472C296.312 167.868 295.45 170.596 294.85 172.619C293.521 176.801 298 181.542 302.288 179.543C305.032 178.211 305.74 174.436 303.915 172.091ZM291.235 156.496C290.48 155.037 288.576 154.259 286.937 154.605C282.437 155.622 282.358 162.658 285.704 165.044C291.489 168.719 297.097 160.061 291.235 156.496ZM319.416 163.028C319.875 158.882 315.893 154.731 311.646 156.746C304.724 160.552 310.569 171.148 317.333 166.07C318.514 165.447 319.276 164.337 319.416 163.028ZM328.471 153.126C331.904 148.688 327.297 141.277 321.945 145.353C320.092 146.947 319.894 150.145 320.703 152.299C322.07 155.2 326.519 155.647 328.471 153.126ZM307.224 142.429C305.053 139.966 300.923 139.588 298.87 142.415C296.425 145.911 298.427 152.423 303.254 152.536C308.272 152.611 310.237 145.748 307.224 142.429ZM320.244 136.146C324.37 132.602 320.782 126.041 315.508 127.095C306.833 129.454 313.138 141.673 320.244 136.146ZM299.605 133.496C303.512 127.649 295.775 121.426 291.09 126.975C287.426 132.05 295.548 138.969 299.605 133.496ZM312.127 116.983C315.49 112.118 310.867 105.995 305.24 108.537C297.147 113.164 306.055 124.162 312.127 116.983Z" fill="#1B1B1B"/>
<path fill-rule="evenodd" clip-rule="evenodd" d="M317.61 45.6909C301.024 43.4412 299.445 48.1928 296.892 51.0895C295.625 52.527 292.5 54.5488 291.563 59.7563C290.913 63.3711 292.701 67.7553 292.422 71.0113C292.279 72.6733 289.943 76.0672 290.68 78.5706C292.322 84.1427 296.263 90.5086 301.941 90.9956C307.618 91.4826 318.366 89.2461 325.411 80.7834C327.719 78.0115 334.196 47.9405 317.61 45.6909Z" fill="#EEEEEE"/>
<path fill-rule="evenodd" clip-rule="evenodd" d="M290.998 71.2166C291.397 70.8459 291.707 70.5397 291.849 69.995C291.909 69.7681 291.947 69.533 291.975 69.2958C290.69 67.1244 289.684 62.1695 289.911 59.526C290.231 55.7967 291.911 52.3261 294.419 49.5514C299.306 44.1475 306.87 41.8111 314.004 42.6573C320.836 43.4662 327.906 46.6219 331.715 52.3981C344.355 71.5621 330.773 90.1453 321.707 93.4764C320.918 93.7663 318.478 93.4328 318.885 92.7039C320.052 90.6098 321.169 86.6644 321.427 85.7767C321.131 85.9412 320.834 86.1009 320.536 86.2672C320.007 86.5601 319.303 86.8869 318.684 86.7218C318.655 86.7139 318.639 86.6803 318.64 86.6527C318.663 86.0588 319.137 85.4871 319.544 85.0971C320.11 84.5555 320.652 83.9974 321.254 83.4954C321.51 83.2811 321.77 83.0693 322.029 82.8575C322.18 81.466 322.206 80.0573 322.077 78.634C321.854 76.1664 321.312 73.7348 320.656 71.3312C319.985 70.7411 319.339 70.1255 318.748 69.4623C317.325 67.8659 316.297 65.9741 315.446 64.004C315.434 63.9974 315.421 63.9896 315.41 63.9832C313.525 62.8995 311.659 61.7822 309.811 60.6363C308.858 60.0453 307.912 59.4427 306.966 58.8403C306.452 58.5121 305.919 58.2079 305.391 57.8953C305.474 58.6701 305.61 59.4383 305.789 60.198C305.937 60.8221 305.288 61.2178 304.755 61.0712C302.944 60.572 301.224 59.7333 299.706 58.6247C298.954 58.0754 298.246 57.4545 297.599 56.7842C296.809 57.7693 295.875 58.6764 294.944 59.4465C294.316 59.9661 293.664 60.4559 292.991 60.9153C293.107 62.9032 293.183 64.892 293.323 66.8777C293.397 67.9157 293.504 68.9565 293.537 69.9966C293.574 71.1302 293.135 71.8979 292.327 72.6551C291.198 73.7132 291.057 75.3717 291.329 76.8295C291.363 77.0098 291.408 77.1869 291.456 77.3628C291.467 77.3992 291.497 77.4983 291.508 77.5371C291.508 77.5382 291.508 77.5393 291.509 77.5415C291.509 77.5426 291.51 77.5439 291.509 77.5449C291.511 77.545 291.51 77.5461 291.511 77.5474L291.511 77.5495L291.511 77.5506L291.512 77.5518C291.549 77.6636 291.589 77.7736 291.63 77.8836C291.814 78.3797 292.026 78.8673 292.248 79.3478C293.34 81.72 294.787 83.9285 296.481 85.9132C297.269 86.8372 298.097 87.7049 299.054 88.4392C299.255 88.593 299.461 88.7426 299.674 88.8818C299.788 88.957 299.906 89.0282 300.024 89.1004C300.197 89.205 300.125 89.1634 300.231 89.2169C300.423 89.3122 300.621 89.3978 300.824 89.4696C300.932 89.5077 301.042 89.5417 301.154 89.5722C301.155 89.5723 301.157 89.5736 301.16 89.5739C301.161 89.574 301.162 89.5752 301.164 89.5742C301.165 89.5754 301.167 89.5756 301.169 89.5758C301.21 89.5826 301.285 89.5957 301.299 89.5969C302.876 89.7379 304.46 89.6596 306.021 89.3974C306.867 89.2548 307.715 89.0668 308.524 88.7779C308.935 88.6301 309.339 88.4618 309.729 88.2655C309.904 88.1774 310.071 88.0675 310.254 87.9933C310.527 87.8813 310.782 87.9177 311.065 87.9298C311.497 87.949 311.764 88.4269 311.625 88.8143C311.455 89.2866 311.228 89.5545 310.788 89.8064C310.436 90.007 310.067 90.1793 309.693 90.3325C308.879 90.6676 308.025 90.9238 307.167 91.1198C305.561 91.4856 303.888 91.6516 302.241 91.6236C301.042 91.6028 300.022 91.3544 298.98 90.758C297.879 90.1278 296.92 89.2456 296.04 88.3404C294.069 86.3143 292.41 83.9188 291.039 81.4505C289.752 79.1302 288.811 76.6434 289.422 73.9523C289.666 72.8728 290.191 71.9705 290.998 71.2166Z" fill="#1B1B1B"/>
<path fill-rule="evenodd" clip-rule="evenodd" d="M294.94 83.4668C295.335 83.374 295.725 83.2601 296.117 83.1515C298.139 82.3438 300.497 82.3681 302.46 83.3629C303.424 83.8511 304.293 84.6544 305.254 85.2144C305.484 85.3236 305.717 85.4248 305.954 85.5132C306.107 85.4742 306.26 85.4319 306.412 85.3895C307.509 85.0802 308.551 84.672 309.567 84.2118C309.684 84.075 309.803 83.9426 309.93 83.8165C309.237 83.6566 308.563 83.432 307.956 83.2078C306.092 82.5209 304.365 81.5141 302.509 80.8047C300.781 80.1428 298.882 79.6993 297.048 80.1798C296.178 80.408 295.389 80.8706 294.537 81.1548C294.096 81.3011 293.571 81.4369 293.072 81.4207C293.327 82.2158 293.671 82.9674 294.173 83.6118C294.431 83.5796 294.689 83.5252 294.94 83.4668ZM291.324 77.1004C291.482 77.2563 292.144 77.7724 292.349 78.0637C292.409 78.0464 292.47 78.0285 292.53 78.01C292.641 77.8956 292.793 77.8543 292.943 77.8705C294.034 77.4725 295.027 76.8629 295.935 76.0696C296.58 75.507 297.242 74.917 298.064 74.6293C299.033 74.2886 299.934 74.5611 300.909 74.7091C301.946 74.8679 303.001 74.66 304.03 74.8914C304.783 75.0614 305.469 75.4453 306.047 75.953C307.226 76.9893 307.982 78.3677 308.949 79.5833C310.047 80.9621 311.462 81.9043 313.077 82.4622C313.098 82.4507 313.12 82.4393 313.142 82.429C314.453 81.4321 315.659 80.2831 316.745 79.0417C317.805 77.8291 320.808 72.2193 321.456 71.7602C321.725 71.5692 322.009 71.5014 322.271 71.5317C322.747 71.5836 323.159 71.9529 323.311 72.4918C323.57 73.4081 323.304 74.5413 323.198 75.4673C323.068 76.601 322.895 77.73 322.679 78.8508C322.466 79.9584 322.214 81.0595 321.924 82.1495C321.778 82.7005 321.621 83.2495 321.453 83.7954C321.401 83.9672 321.34 84.1196 321.27 84.26C321.188 84.5292 321.102 84.7969 321.012 85.0621C320.421 86.7986 319.577 88.5156 318.145 89.7117C316.653 90.9583 314.708 91.7044 312.904 92.3661C311.186 92.9964 309.396 93.534 307.573 93.919C305.97 94.486 304.271 94.8971 302.588 95.0456C300.734 95.2094 298.813 95.0646 297.104 94.279C296.264 93.893 295.482 93.3877 294.786 92.7822C293.779 92.1444 292.895 91.3109 292.204 90.2488C290.966 88.3454 290.488 86.1233 290.39 83.8657C290.364 83.2879 290.273 81.0739 290.28 80.731C290.303 79.6237 290.327 78.5165 290.35 77.4092C290.361 76.8866 291.012 76.793 291.324 77.1004Z" fill="#1B1B1B"/>
<path fill-rule="evenodd" clip-rule="evenodd" d="M308.337 80.2931C307.85 79.0681 304.89 78.4884 299.457 78.5542L298.293 84.0964C300.821 85.1551 302.867 85.6633 304.429 85.6209C306.773 85.5574 309.067 82.1307 308.337 80.2931Z" fill="white"/>
<path fill-rule="evenodd" clip-rule="evenodd" d="M307.515 83.1861C307.845 82.6128 302.207 80.4884 300.322 81.448C299.066 82.0877 298.581 82.9296 298.867 83.9737C303.785 85.5481 306.667 85.2856 307.515 83.1861Z" fill="#B4B4B4"/>
<path fill-rule="evenodd" clip-rule="evenodd" d="M308.926 79.2936C307.712 77.6108 305.45 77.3068 303.535 77.5372C302.306 77.6852 301.094 78.0033 299.854 78.0533C299.275 78.0768 298.695 78.0488 298.119 77.9887C297.553 77.9296 296.995 77.7667 296.428 77.7395C296.341 77.7352 296.299 77.8464 296.37 77.8992C297.104 78.4415 298.135 78.6837 299.042 78.8553C299.033 78.9227 299.023 78.9885 299.009 79.0437C298.971 79.191 298.936 79.3375 298.904 79.4864C298.834 79.8221 298.758 80.1563 298.683 80.491C298.534 81.1496 298.447 81.8346 298.23 82.4757L298.192 82.5822C298.143 82.7166 298.124 82.84 298.127 82.953L298.091 82.9329L297.979 82.8659L297.905 82.8229C297.635 82.6684 297.374 82.5504 297.041 82.5537C296.787 82.5561 296.561 82.7097 296.536 82.9784C296.427 84.1843 298.019 84.7117 298.93 85.0224L299.197 85.113C300.356 85.5033 301.542 85.8601 302.755 86.025C304.7 86.2897 306.942 85.9391 308.356 84.4639C309.676 83.0875 310.084 80.898 308.926 79.2936ZM299.618 83.6013C299.979 81.8025 302.22 81.8941 302.763 83.101C303.186 81.5199 307.275 83.3483 306.918 83.6392C305.565 84.7418 303.66 84.6881 302.049 84.3246C301.229 84.1394 300.414 83.8826 299.618 83.6013ZM302.504 79.0531L303.072 79.0205L303.295 79.009C304.703 78.942 306.275 78.98 307.343 79.97C307.732 80.3314 307.931 80.7762 307.979 81.2398C306.911 80.9866 305.835 80.771 304.754 80.5757L304.46 80.5229C303.783 80.403 303.107 80.2798 302.432 80.1534L301.952 80.0629L301.473 79.9712C301.304 79.9387 300.162 79.7816 299.943 79.8025C299.936 79.6067 299.942 79.1847 299.91 78.9918C300.723 79.0894 301.539 79.0985 302.359 79.0603L302.504 79.0531ZM300.617 70.713C299.742 71.1471 298.374 72.2171 299.161 73.547C300.119 74.7423 301.744 73.6054 302.54 73.0965C303.271 72.7119 303.951 73.9208 303.264 74.3841C297.523 77.918 295.956 70.4463 300.247 70.0826C300.72 70.0424 300.848 70.5753 300.617 70.713ZM298.946 72.7148L298.908 72.6896L298.895 72.6803C298.873 72.6631 298.888 72.666 298.939 72.689L298.978 72.7068L298.976 72.7349C298.966 72.7278 298.955 72.7221 298.946 72.7148ZM309.982 69.1375L309.984 69.1127C310.043 68.4103 309.771 66.7718 308.76 66.6851C308.129 66.6309 307.651 67.6892 307.489 68.8084L307.482 68.8541C307.393 69.5509 307.454 71.0961 308.375 71.1751C309.306 71.2549 309.911 69.8483 309.982 69.1375ZM295.116 67.6404L295.118 67.6156C295.18 66.9135 295.727 65.3452 296.738 65.4319C297.353 65.4847 297.644 66.5547 297.631 67.656L297.629 67.7408C297.611 68.4199 297.294 70.0027 296.353 69.9219C295.422 69.8421 295.065 68.353 295.116 67.6404ZM310.015 61.9696C309.201 61.7734 308.088 61.918 307.631 62.7239C307.428 63.083 307.596 63.5137 308.026 63.5714C309.066 63.711 310.022 63.559 310.88 64.3165C311.249 64.6426 311.546 65.0756 311.79 65.5031L311.882 65.6657L311.958 65.7997C312.124 66.0937 312.277 66.4109 312.22 66.7437C312.203 66.8422 312.297 66.945 312.393 66.9493C312.996 66.9762 313.125 66.2287 313.085 65.7696C313.01 64.9177 312.671 64.0949 312.163 63.4119C311.629 62.6947 310.886 62.1795 310.015 61.9696ZM298.564 62.0135C298.027 61.599 297.311 61.396 296.64 61.3927C295.317 61.3858 293.016 62.3138 293.169 63.9438C293.216 64.4465 293.882 64.7667 294.311 64.5269C294.773 64.2691 294.918 63.8193 295.276 63.4613C295.562 63.1752 295.909 62.9804 296.277 62.8206C296.639 62.6629 297.05 62.5838 297.447 62.5761L297.513 62.5755C297.751 62.5756 298.946 62.6835 298.732 63.1146C298.69 63.199 298.814 63.2793 298.879 63.2183C299.281 62.8445 298.911 62.2809 298.564 62.0135Z" fill="#1B1B1B"/>
<path fill-rule="evenodd" clip-rule="evenodd" d="M295.264 62.0039C292.679 61.7822 291.156 62.2115 290.612 62.2084L290.595 62.2082C290.369 62.2033 290.166 62.2048 289.947 62.2685C289.143 62.5014 288.947 63.3066 289.357 63.8599C289.297 64.9268 289.051 66.1583 289.199 67.2465C289.109 71.7729 291.161 72.714 292.34 73.0944C292.932 73.2855 293.644 73.4023 294.298 73.3104C295.396 73.3635 296.508 73.1136 297.485 72.5963C298.845 71.8753 299.913 70.6791 300.354 69.1888C300.563 68.4783 300.697 67.7315 300.679 66.9896L300.676 66.8873C301.113 66.7228 301.602 66.7265 302.104 66.7518C302.344 66.7638 302.58 66.7764 302.808 66.8062C303.03 66.8504 303.248 66.9026 303.466 66.967C303.702 67.0609 303.921 67.2011 304.115 67.4103L304.106 67.6905C304.086 68.3905 304.118 69.0971 304.2 69.7927C304.322 70.8191 304.574 71.811 305.226 72.5875C305.436 72.9687 305.707 73.3161 306.046 73.6258C307.276 74.7529 309.034 75.2788 310.688 75.2794C314.047 75.2809 316.201 72.7994 316.742 71.7062L316.775 71.6399C317.168 70.8264 317.517 69.757 318.546 69.6633L318.765 69.643C319.235 69.5959 319.673 69.5116 319.983 69.0835C320.119 68.8966 320.199 68.6815 320.233 68.4581C320.39 68.4838 320.547 68.509 320.704 68.5338C321.937 68.9072 329.454 69.7789 330.055 69.8305C330.055 69.8305 331.169 70.4163 331.69 70.0811C332.051 69.848 332.192 69.5081 332.04 69.0963C331.81 68.4765 330.544 68.007 329.978 67.8442C329.978 67.8442 320.681 67.1244 320.023 66.9402C319.646 66.4781 318.901 66.473 318.288 66.3525C317.807 65.9436 317.112 65.6377 316.561 65.4255C316.449 65.3719 316.339 65.3199 316.231 65.2706C315.226 64.8123 314.164 64.5242 313.079 64.3252C311.96 64.1212 310.824 64.0726 309.688 64.1301C309.21 64.1537 308.735 64.1964 308.26 64.265C307.418 64.3034 306.575 64.4132 305.723 64.5562L305.553 64.5853C304.656 64.74 303.737 64.8616 302.842 64.6278C302.114 64.4383 301.427 64.0927 300.772 63.7266L300.687 63.6787C299.246 62.8658 296.95 62.1486 295.264 62.0039ZM308.233 65.6372C308.797 65.563 308.96 66.4359 308.395 66.5103C307.994 66.563 307.644 66.7325 307.391 67.0489L307.364 67.0833C307.021 67.5378 306.295 67.0289 306.641 66.5715C307.029 66.0568 307.594 65.7213 308.233 65.6372ZM292.081 63.719C292.287 63.5984 292.574 63.7257 292.67 63.9294C292.777 64.1538 292.674 64.3848 292.48 64.5089L292.46 64.521C292.283 64.6246 292.101 64.8223 292.062 65.0373L292.058 65.0643C291.987 65.6298 291.105 65.557 291.176 64.9886C291.246 64.4326 291.609 63.9942 292.081 63.719Z" fill="#1B1B1B"/>
<g filter="url(#filter4_d_116_6895)">
<path d="M134.058 165.458C110.752 192.109 97.4997 204.651 71.5302 196.947C70.9314 201.874 70.7228 204.536 71.5302 208.356C71.5302 227.5 70.3302 228.983 74.384 233H353C353 225.5 351.671 221.38 353 208.356L308.365 179.605C296.512 170.751 289.695 172.026 277.39 179.605C262.136 190.881 253.329 199.139 237.372 215.658C223.997 221.38 216.501 219.937 203.126 215.658C182.672 207.254 171.292 199.272 151.373 170.934C145.656 162.532 142.776 156.455 134.058 165.458Z" fill="#FCE90F"/>
</g>
</g>
</g>
<defs>
<filter id="filter0_dddddd_116_6895" x="0" y="0.147609" width="416" height="409.852" filterUnits="userSpaceOnUse" color-interpolation-filters="sRGB">
<feFlood flood-opacity="0" result="BackgroundImageFix"/>
<feColorMatrix in="SourceAlpha" type="matrix" values="0 0 0 0 0 0 0 0 0 0 0 0 0 0 0 0 0 0 127 0" result="hardAlpha"/>
<feOffset dy="0.559259"/>
<feGaussianBlur stdDeviation="1.1069"/>
<feColorMatrix type="matrix" values="0 0 0 0 0 0 0 0 0 0 0 0 0 0 0 0 0 0 0.0468848 0"/>
<feBlend mode="normal" in2="BackgroundImageFix" result="effect1_dropShadow_116_6895"/>
<feColorMatrix in="SourceAlpha" type="matrix" values="0 0 0 0 0 0 0 0 0 0 0 0 0 0 0 0 0 0 127 0" result="hardAlpha"/>
<feOffset dy="2.62385"/>
<feGaussianBlur stdDeviation="2.66004"/>
<feColorMatrix type="matrix" values="0 0 0 0 0 0 0 0 0 0 0 0 0 0 0 0 0 0 0.0647322 0"/>
<feBlend mode="normal" in2="effect1_dropShadow_116_6895" result="effect2_dropShadow_116_6895"/>
<feColorMatrix in="SourceAlpha" type="matrix" values="0 0 0 0 0 0 0 0 0 0 0 0 0 0 0 0 0 0 127 0" result="hardAlpha"/>
<feOffset dy="7.16485"/>
<feGaussianBlur stdDeviation="5.00862"/>
<feColorMatrix type="matrix" values="0 0 0 0 0 0 0 0 0 0 0 0 0 0 0 0 0 0 0.0786233 0"/>
<feBlend mode="normal" in2="effect2_dropShadow_116_6895" result="effect3_dropShadow_116_6895"/>
<feColorMatrix in="SourceAlpha" type="matrix" values="0 0 0 0 0 0 0 0 0 0 0 0 0 0 0 0 0 0 127 0" result="hardAlpha"/>
<feOffset dy="16.347"/>
<feGaussianBlur stdDeviation="8.93452"/>
<feColorMatrix type="matrix" values="0 0 0 0 0 0 0 0 0 0 0 0 0 0 0 0 0 0 0.0940847 0"/>
<feBlend mode="normal" in2="effect3_dropShadow_116_6895" result="effect4_dropShadow_116_6895"/>
<feColorMatrix in="SourceAlpha" type="matrix" values="0 0 0 0 0 0 0 0 0 0 0 0 0 0 0 0 0 0 127 0" result="hardAlpha"/>
<feOffset dy="36.5967"/>
<feGaussianBlur stdDeviation="16.711"/>
<feColorMatrix type="matrix" values="0 0 0 0 0 0 0 0 0 0 0 0 0 0 0 0 0 0 0.1174 0"/>
<feBlend mode="normal" in2="effect4_dropShadow_116_6895" result="effect5_dropShadow_116_6895"/>
<feColorMatrix in="SourceAlpha" type="matrix" values="0 0 0 0 0 0 0 0 0 0 0 0 0 0 0 0 0 0 127 0" result="hardAlpha"/>
<feOffset dy="100"/>
<feGaussianBlur stdDeviation="40"/>
<feColorMatrix type="matrix" values="0 0 0 0 0 0 0 0 0 0 0 0 0 0 0 0 0 0 0.18 0"/>
<feBlend mode="normal" in2="effect5_dropShadow_116_6895" result="effect6_dropShadow_116_6895"/>
<feBlend mode="normal" in="SourceGraphic" in2="effect6_dropShadow_116_6895" result="shape"/>
</filter>
<filter id="filter1_d_116_6895" x="80" y="40" width="299" height="211" filterUnits="userSpaceOnUse" color-interpolation-filters="sRGB">
<feFlood flood-opacity="0" result="BackgroundImageFix"/>
<feColorMatrix in="SourceAlpha" type="matrix" values="0 0 0 0 0 0 0 0 0 0 0 0 0 0 0 0 0 0 127 0" result="hardAlpha"/>
<feOffset dx="22"/>
<feGaussianBlur stdDeviation="10.5"/>
<feComposite in2="hardAlpha" operator="out"/>
<feColorMatrix type="matrix" values="0 0 0 0 0 0 0 0 0 0 0 0 0 0 0 0 0 0 0.25 0"/>
<feBlend mode="normal" in2="BackgroundImageFix" result="effect1_dropShadow_116_6895"/>
<feBlend mode="normal" in="SourceGraphic" in2="effect1_dropShadow_116_6895" result="shape"/>
</filter>
<filter id="filter2_d_116_6895" x="86" y="88" width="293" height="163" filterUnits="userSpaceOnUse" color-interpolation-filters="sRGB">
<feFlood flood-opacity="0" result="BackgroundImageFix"/>
<feColorMatrix in="SourceAlpha" type="matrix" values="0 0 0 0 0 0 0 0 0 0 0 0 0 0 0 0 0 0 127 0" result="hardAlpha"/>
<feOffset dx="22"/>
<feGaussianBlur stdDeviation="10.5"/>
<feComposite in2="hardAlpha" operator="out"/>
<feColorMatrix type="matrix" values="0 0 0 0 0 0 0 0 0 0 0 0 0 0 0 0 0 0 0.25 0"/>
<feBlend mode="normal" in2="BackgroundImageFix" result="effect1_dropShadow_116_6895"/>
<feBlend mode="normal" in="SourceGraphic" in2="effect1_dropShadow_116_6895" result="shape"/>
</filter>
<filter id="filter3_d_116_6895" x="80" y="103" width="299" height="143" filterUnits="userSpaceOnUse" color-interpolation-filters="sRGB">
<feFlood flood-opacity="0" result="BackgroundImageFix"/>
<feColorMatrix in="SourceAlpha" type="matrix" values="0 0 0 0 0 0 0 0 0 0 0 0 0 0 0 0 0 0 127 0" result="hardAlpha"/>
<feOffset dx="22"/>
<feGaussianBlur stdDeviation="10.5"/>
<feComposite in2="hardAlpha" operator="out"/>
<feColorMatrix type="matrix" values="0 0 0 0 0 0 0 0 0 0 0 0 0 0 0 0 0 0 0.25 0"/>
<feBlend mode="normal" in2="BackgroundImageFix" result="effect1_dropShadow_116_6895"/>
<feBlend mode="normal" in="SourceGraphic" in2="effect1_dropShadow_116_6895" result="shape"/>
</filter>
<filter id="filter4_d_116_6895" x="71" y="140" width="325" height="114" filterUnits="userSpaceOnUse" color-interpolation-filters="sRGB">
<feFlood flood-opacity="0" result="BackgroundImageFix"/>
<feColorMatrix in="SourceAlpha" type="matrix" values="0 0 0 0 0 0 0 0 0 0 0 0 0 0 0 0 0 0 127 0" result="hardAlpha"/>
<feOffset dx="22"/>
<feGaussianBlur stdDeviation="10.5"/>
<feComposite in2="hardAlpha" operator="out"/>
<feColorMatrix type="matrix" values="0 0 0 0 0 0 0 0 0 0 0 0 0 0 0 0 0 0 0.25 0"/>
<feBlend mode="normal" in2="BackgroundImageFix" result="effect1_dropShadow_116_6895"/>
<feBlend mode="normal" in="SourceGraphic" in2="effect1_dropShadow_116_6895" result="shape"/>
</filter>
<linearGradient id="paint0_linear_116_6895" x1="119.221" y1="3" x2="363.04" y2="133.815" gradientUnits="userSpaceOnUse">
<stop stop-color="#837A00"/>
<stop offset="1" stop-color="#AD9F00"/>
<stop offset="1" stop-color="#FCE90F"/>
</linearGradient>
<clipPath id="clip0_116_6895">
<path d="M80 67C80 31.6538 108.654 3 144 3H272C307.346 3 336 31.6538 336 67V230H80V67Z" fill="white"/>
</clipPath>
</defs>
</svg>
