<svg width="416" height="333" viewBox="0 0 416 333" fill="none" xmlns="http://www.w3.org/2000/svg">
<g filter="url(#filter0_dddddd_116_6862)">
<g clip-path="url(#clip0_116_6862)">
<path d="M80 67C80 31.6538 108.654 3 144 3H272C307.346 3 336 31.6538 336 67V230H80V67Z" fill="url(#paint0_linear_116_6862)"/>
<g filter="url(#filter1_d_116_6862)">
<path d="M94.517 138.865L80.0035 107.905V189.447C79.9243 212.454 81.1129 223.304 90.8449 230H324.809C332.658 225.489 334.975 220.761 336 209.069V70.4046C328.409 64.9738 324.955 70.605 320.263 96.5677C311.91 93.7586 305.406 97.4456 292.46 107.905C285.303 109.995 279.901 99.7718 270.077 79.9977C259.419 59.8747 253.714 49.9424 253.116 79.9977L253.03 80.6985C250.687 99.917 249.347 110.904 238.078 117.062C232.369 115.626 228.662 108.818 222.119 96.8031L221.991 96.5677C214.674 88.3909 210.509 90.0402 202.931 107.905L181.598 156.307C174.089 166.304 170.066 172.715 156.418 156.307C151.155 151.549 147.112 146.901 135.959 131.452C125.123 109.795 118.905 96.1708 113.577 131.452C111.712 136.773 110.951 140.293 109.905 147.15C104.695 151.245 101.92 154.888 94.517 138.865Z" fill="#776F18"/>
</g>
<g filter="url(#filter2_d_116_6862)">
<path d="M96.8553 175.52C94.0261 178.178 91.7524 180.844 86.1113 188.311C85.5927 206.275 86.6899 215.669 93.6151 230H327.595C333.369 224.363 336.428 220.079 335.951 175.52L319.75 139.516C313.747 128.557 310.272 123.515 302.185 133.831L289.735 150.412C279.733 165.134 273.419 160.151 262.108 150.412C255.903 141.969 252.432 142.268 246.248 155.623C240.639 168.96 237.407 176.011 231.581 188.311C222.549 200.902 217.096 200.084 206.853 188.311C193.04 165 186.02 149.46 174.621 117.724C168.362 105.757 163.7 106.431 153.815 117.724C145.225 133.241 140.538 142.339 133.521 162.729C127.48 178.7 122.665 181.009 112.033 175.52C106.998 166.788 103.824 165.303 96.8553 175.52Z" fill="#A39815"/>
</g>
<g filter="url(#filter3_d_116_6862)">
<path d="M325.152 179.525C327.979 181.744 330.251 183.969 335.889 190.202C336.407 205.196 335.311 213.038 328.39 225H94.5608C88.7902 220.295 79.541 217.694 80.0177 180.5L102.401 149.472C108.4 140.325 111.872 136.116 119.955 144.727L132.396 158.567C142.392 170.856 148.702 166.696 160.006 158.567C166.207 151.52 169.676 151.769 175.856 162.917C181.46 174.049 184.69 179.935 190.513 190.202C199.539 200.712 204.989 200.028 215.225 190.202C229.029 170.744 236.044 157.773 247.436 131.282C253.691 121.293 258.35 121.856 268.228 131.282C276.813 144.234 281.497 151.829 288.509 168.848C294.546 182.179 299.359 184.107 309.983 179.525C315.015 172.237 318.188 170.997 325.152 179.525Z" fill="#D0C012"/>
</g>
<g filter="url(#filter4_d_116_6862)">
<path d="M134.058 165.458C110.752 192.109 97.4997 204.651 71.5302 196.947C70.9314 201.874 70.7228 204.536 71.5302 208.356C71.5302 227.5 70.3302 228.983 74.384 233H353C353 225.5 351.671 221.38 353 208.356L308.365 179.605C296.512 170.751 289.695 172.026 277.39 179.605C262.136 190.881 253.329 199.139 237.372 215.658C223.997 221.38 216.501 219.937 203.126 215.658C182.672 207.254 171.292 199.272 151.373 170.934C145.656 162.532 142.776 156.455 134.058 165.458Z" fill="#FCE90F"/>
</g>
<path fill-rule="evenodd" clip-rule="evenodd" d="M248.197 217.173C246.158 206.877 243.508 196.364 238.299 187.112C235.725 174.791 236.733 156.743 224.483 149.336C224.502 147.833 221.722 146.778 220.415 146.088C218.291 144.943 215.349 142.587 213.093 144.242C212.323 144.077 210.552 145.174 209.525 143.212C208.473 141.202 208.241 137.011 207.512 136.689C207.561 133.65 193.851 132.796 190.683 137.357C189.285 140.767 191.302 141.641 187.887 146.259C186.226 146.505 184.668 147.065 183.178 147.778C181.921 148.064 180.674 148.386 179.433 148.717C163.495 151.583 163.301 163.58 162.972 176.473C163.225 193.734 159.395 211.28 163.168 228.375C162.433 234.666 162.915 241.271 164.952 247.265C160.618 254.929 164.553 258.626 168.234 265.243C168.863 266.437 169.427 267.673 169.772 268.974C169.799 270.003 169.893 271.027 170.16 272.027C170.883 274.297 174.713 273.642 174.684 271.289C174.854 269.727 174.624 268.142 174.725 266.578C174.719 266.659 174.708 266.816 174.709 266.828C174.942 262.895 175.724 261.311 177.989 258.131C180.822 253.176 178.329 247.47 178.618 242.172C178.67 240.406 178.79 238.657 178.818 236.889C179.964 237.437 181.195 237.871 182.462 238.099C182.199 244.189 184.075 250.125 186.084 255.822C191.456 270.48 198.193 285.428 197.192 301.38C197.193 301.372 195.732 314.473 194.251 321.005C192.492 329.278 191.212 337.524 188.409 345.552C187.03 351.276 183.555 356.892 184.221 362.87C183.037 364.992 185.686 367.193 187.837 367.002C187.992 368.813 187.738 371.465 187.075 374.959C187.013 376.876 186.25 379.375 187.855 380.861C186.296 386.111 186.067 391.668 185.981 397.091C185.991 399.659 186.015 402.753 188.868 403.965C191.506 404.848 194.425 404.11 197.169 404.205C199.796 403.983 202.574 404.439 205.107 403.622C208.002 402.522 208.324 399.256 207.545 396.733C206.955 394.087 206.294 391.455 205.593 388.835C203.693 383.162 202.749 376.766 200.475 371.347C201.465 371.072 202.432 370.478 203.051 369.68C204.781 369.474 205.949 368.073 206.243 366.51C206.465 365.5 207.769 365.184 208.631 364.795C208.871 365.63 209.418 366.303 209.88 367.042C209.683 368.712 210.975 370.534 212.841 370.412C213.133 370.648 213.405 370.89 213.701 371.113C211.85 374.412 210.582 378.067 210.502 381.814C210.267 384.703 210.157 389.309 213.999 389.829C215.438 389.895 217.001 390.128 218.351 389.49C219.965 390.054 221.647 390.247 223.346 390.402C230.624 390.997 237.534 390.302 244.838 390.495C246.769 390.597 254.483 390.725 255.666 389.566C257.246 389.75 256.208 388.673 256.768 387.535C257.218 386.678 258.474 385.003 257.539 384.629C255.588 383.978 253.783 382.524 251.984 381.765C243.546 377.876 225.526 371.567 225.628 371.337C225.618 371.494 225.41 367.563 225.964 366.468C226.792 365.494 228.609 365.496 229.479 364.558C230.081 364.534 234.467 362.855 233.896 360.721C233.254 359.034 234.684 356.776 233.44 355.412C234.241 321.281 240.042 287.747 241.91 253.706C242.007 253.604 242.103 253.502 242.201 253.401C244.687 253.6 246.38 250.975 246.958 248.972C247.285 248.578 247.598 248.173 247.88 247.74C249.654 244.971 249.4 241.585 249.362 238.474C249.825 238.069 250.094 237.478 250.064 236.809C249.973 234.815 249.887 232.821 249.799 230.829C249.801 230.829 249.801 230.829 249.8 230.828C250.331 229.787 250.319 228.669 250.047 227.551C249.797 223.884 250.067 220.406 248.197 217.173Z" fill="#EEEEEE"/>
<path fill-rule="evenodd" clip-rule="evenodd" d="M251.164 229.005C250.05 229.881 235.292 238.27 218.351 240.155C206.531 241.469 185.423 237.931 179.439 238.001C177.342 238.025 179.654 244.144 180.044 244.455C180.018 245.791 179.302 248.085 179.516 249.417C177.78 249.123 172.369 248.702 165.129 245.773C164.092 245.354 161.165 218.042 161.583 204.311C162.162 185.316 161.825 168.029 163.359 166.939C163.419 167.416 160.948 154.197 171.985 151.112C173.989 150.551 185.596 146.838 185.596 146.838C190.971 152.589 199.126 157.104 203.529 156.726C211.348 156.055 214.795 144.307 215.56 144.379C232.224 145.944 232.486 165.705 238.309 187.134C243.393 205.848 250.417 223.935 251.164 229.005Z" fill="white"/>
<path fill-rule="evenodd" clip-rule="evenodd" d="M190.572 137.003C190.582 136.676 191.015 136.643 191.083 136.959C191.869 140.778 190.726 145.339 187.133 147.458C190.155 149.699 192.417 152.847 195.95 154.432C203.419 158.434 213.272 153.244 214.148 144.982C212.367 144.731 209.117 145.044 208.412 143.05C208.133 142.809 207.808 140.57 207.682 138.909C207.639 138.602 207.603 138.294 207.566 137.988C207.518 137.742 207.489 137.489 207.469 137.234C207.427 136.681 208.256 136.621 208.337 137.16C208.37 137.381 208.399 137.605 208.427 137.83C208.438 137.889 208.452 137.948 208.464 138.007C208.613 138.41 208.729 138.836 208.856 139.22C208.924 139.427 208.994 139.636 209.068 139.844C209.195 140.396 209.385 140.93 209.674 141.426C210.442 142.745 212.145 143.788 213.726 143.665C214.065 143.639 214.397 143.56 214.736 143.54C215.289 143.507 215.758 143.687 216.27 143.867C216.731 144.03 217.16 144.13 217.589 144.092C235.787 148.573 235.236 170.737 239.202 185.35C243.212 199.855 250.102 213.581 252.229 228.575C252.613 230.116 250.938 230.843 249.931 231.674C249.983 235.629 251.978 239.465 251.164 243.453C250.376 246.725 246.755 254.738 242.564 253.884C240.951 289.508 232.979 323.079 235.018 358.822C236.306 361.715 233.529 364.133 230.833 364.804L230.479 365.051C229.295 365.872 228.067 366.683 226.742 367.242C226.71 367.265 226.678 367.288 226.645 367.31C226.581 367.352 226.512 367.379 226.44 367.397C226.595 368.303 226.957 369.135 227.4 369.937C233.182 370.758 238.457 373.766 243.981 375.554C247.602 377.375 258.363 379.531 259.479 383.18L259.51 383.291C259.974 384.929 259.254 387.06 257.372 387.381C258.424 388.029 257.903 389.564 256.849 389.942C255.583 390.398 254.164 390.372 252.84 390.593C240.292 392.068 227.505 392.045 215 390.276C213.949 390.126 212.85 389.907 211.929 389.367C206.246 385.61 211.021 376.219 211.86 370.642C211.379 370.607 210.9 370.543 210.427 370.446L210.321 370.424C209.861 370.327 209.383 370.204 209.008 369.917C208.992 369.905 208.979 369.891 208.964 369.879C206.72 370.04 208.58 364.905 208.668 363.567C207.923 365.586 207.357 367.721 206.424 369.663C205.771 370.867 204.055 370.217 202.942 370.232C203.889 376.956 206.066 383.403 208.283 389.806C210.093 395.125 212.961 401.458 205.487 403.763C200.359 405.587 187.814 406.135 185.085 400.582C184.025 395.961 185.062 391.097 185.381 386.426L185.45 385.76C185.918 381.205 186.32 376.635 187.179 372.132C187.288 371.401 187.437 370.681 187.603 369.965C187.598 369.556 187.584 369.147 187.523 368.741C187.442 368.209 187.296 367.694 187.144 367.179C187.125 367.114 187.106 367.038 187.086 366.956C184.79 366.126 183.051 365.114 182.732 363.888C182.414 362.726 182.749 361.492 182.977 360.338L182.991 360.27C187.961 334.674 199.561 310.998 194.968 284.543C192.996 271.507 185.755 259.983 183.586 246.998C182.76 244.442 181.99 241.854 181.672 239.172C181.292 239.117 180.911 239.069 180.532 239.005C180.415 240.186 180.239 241.362 179.882 242.486C179.892 244.646 180.189 246.806 180.744 248.895C180.872 249.377 180.671 249.823 180.281 250.013C181.508 252.948 182.024 256.715 179.728 259.267L179.533 259.421C177.488 261.051 177.297 261.48 177.023 264.213L175.946 271.155C175.81 272.015 175.634 272.893 175.091 273.606C173.649 275.496 171.017 274.569 170.036 272.77C169.122 270.92 168.947 268.812 168.231 266.887C167.64 264.886 166.338 263.246 165.048 261.636C162.157 257.935 161.485 252.494 164.004 248.41C164.199 247.754 164.373 247.109 164.584 246.461C163.499 245.389 163.977 243.513 163.742 242.107C163.64 240.938 163.518 239.771 163.382 238.606C162.583 231.724 161.284 224.929 160.666 218.031C159.592 208.754 161.266 199.536 161.902 190.293C162.349 181.181 161.497 172.003 162.729 162.929C164.943 145.136 186.355 150.011 189.29 142.822C190.207 141.008 190.516 139.006 190.572 137.003ZM187.338 398.231C187.222 400.581 188.901 400.999 190.833 401.545C195.753 402.886 201.297 402.829 206.002 400.744C206.83 400.307 207.398 399.71 207.635 398.887C200.959 400.079 193.854 400.238 187.338 398.231ZM212.105 385.683C212.706 387.734 215.415 387.749 217.245 387.945C221.621 388.476 226.024 388.827 230.433 388.963C238.979 389.258 247.551 388.699 256.018 387.583C256.239 387.464 256.37 387.261 256.66 387.236L256.695 387.234C256.712 387.233 256.727 387.233 256.743 387.232C256.594 387.151 256.463 387.039 256.36 386.902C241.612 386.549 226.819 386.716 212.105 385.683ZM224.853 366.563C221.396 367.474 217.842 368.103 214.252 367.853C214.264 370.806 213.373 373.752 212.721 376.635C217.728 377.509 220.502 371.799 224.792 370.389C224.432 369.113 224.403 367.742 224.853 366.563ZM188.492 367.423C188.506 367.443 188.514 367.467 188.515 367.496C188.791 370.915 188.736 374.35 188.523 377.775C191.346 374.155 196.479 372.86 200.886 373.886L200.848 373.67C200.632 372.441 200.358 371.187 200.455 369.943L200.254 369.905C197.99 369.484 192.685 368.706 188.492 367.423ZM241.506 233.049C222.793 239.835 202.433 241.906 182.715 239.314C183.945 242.327 184.941 245.418 185.727 248.569C187.529 256.693 191.219 264.201 193.942 272.034C197.102 281.283 198.344 289.192 198.003 298.946L197.992 299.241C197.275 321.11 188.427 341.776 185.276 363.217C191.409 366.257 198.728 367.022 205.538 367.913C208.995 358.885 211.782 349.692 213.308 340.159C219.174 310.146 227.85 281.616 222.744 250.898C222.166 250.586 222.279 249.813 222.538 249.304C222.243 247.081 221.908 244.864 221.483 242.666C221.468 242.591 221.593 242.566 221.614 242.636C222.166 244.504 222.737 246.365 223.242 248.245C225.392 245.646 226.657 242.519 228.505 239.74C228.967 241.657 225.575 249.526 223.899 250.843C229.678 273.776 225.202 295.607 220.292 318.31C217.073 334.585 213.989 350.895 210.621 367.139C210.679 367.134 210.736 367.13 210.794 367.127C210.465 366.628 216.511 366.473 216.982 366.168C221.376 365.369 225.621 363.947 229.84 362.524L230.357 362.342C231.406 361.968 232.617 361.455 232.712 360.29L232.702 360.145C232.7 360.103 232.699 360.068 232.702 360.065L232.66 359.938C232.651 359.909 232.645 359.886 232.645 359.879L232.597 359.819C232.541 359.752 232.489 359.693 232.561 359.76C232.029 359.269 231.914 358.451 232.432 357.894C230.167 319.118 239.582 282.643 240.913 243.994C241.06 240.343 241.31 236.697 241.506 233.049ZM165.854 247.083C163.875 250.025 163.824 253.899 164.985 257.178C165.586 258.803 166.634 260.125 167.712 261.47C169.592 263.706 170.611 266.404 171.28 269.201L171.297 269.254C171.569 270.148 171.905 272.651 173.167 272.258C173.487 272.011 173.566 271.043 173.642 270.533L174.606 264.325C174.884 262.527 174.963 260.413 176.381 259.063L176.551 258.933C177.726 258.026 178.86 256.994 178.921 255.417C179.186 253.469 178.23 251.686 177.773 249.854C173.724 249.285 169.737 248.335 165.854 247.083ZM249.469 231.996L249.342 232.073C247.88 232.965 243.534 235.82 242.277 234.975C242.788 240.605 242.818 246.249 242.636 251.893C242.802 251.841 242.977 251.831 243.138 251.875C246.373 250.673 249.436 244.097 249.437 240.853C249.413 237.903 248.568 234.895 249.469 231.996ZM187.583 150.337L187.395 150.128C185.399 147.921 184.32 147.164 181.326 148.69C181.787 149.17 182.043 149.845 181.926 150.577L181.918 150.623C181.285 154.735 176.465 157.499 172.602 155.623C171.347 156.067 169.929 155.259 169.765 153.955C166.312 156.408 164.968 160.475 164.624 164.473C166.904 163.011 170.217 163.935 171.384 166.353C173.864 170.741 168.186 176.015 164.145 172.487C164.002 180.26 164.29 188.056 163.48 195.806C164.412 193.927 166.964 193.285 168.633 194.622C174.061 198.551 169.099 208.961 162.585 204.76C162.209 209.068 162.317 213.394 162.72 217.685C164.612 216.763 165.974 220.054 166.239 221.474C166.564 223.182 165.984 226.873 163.917 227.255L164.325 229.997C165.021 234.696 165.685 239.394 166.026 244.136C166.134 244.153 166.227 244.193 166.307 244.248C166.324 244.385 166.354 244.52 166.392 244.653C166.429 244.785 166.52 244.849 166.623 244.863L166.627 244.868C166.63 244.963 166.62 245.059 166.592 245.152C170.557 246.426 174.621 247.411 178.735 248.107C178.521 246.776 178.431 245.438 178.457 244.102C176.811 242.786 178.232 237.373 178.237 235.316C178.589 231.165 178.771 227.003 178.89 222.841C177.468 222.841 176.618 221.428 176.143 220.26C175.546 218.98 175.133 217.594 175.355 216.175C175.559 214.491 177.276 212.751 179.074 213.184L179.089 212.066C179.179 204.987 179.181 197.904 179.618 190.835C176.396 193.013 172.849 189.181 173.393 185.924C173.516 184.55 174.227 183.168 175.383 182.361C176.405 181.651 178.575 180.848 179.396 182.147C179.73 182.161 180.054 182.296 180.308 182.514C180.714 178.665 181.276 174.774 182.383 171.065C177.67 168.639 177.9 161.494 183.785 160.98C191.78 160.979 190.662 172.739 182.82 171.218C181.658 185.915 181.526 200.644 181.551 215.374C182.606 216.803 182.651 219.053 181.49 220.432C181.392 225.77 181.174 231.106 180.744 236.43C186.678 237.228 192.664 237.796 198.665 237.779C198.793 235.912 200.714 234.756 202.433 234.46C203.57 234.238 204.855 234.566 205.969 234.681C207.337 235.074 208.52 236.146 209.113 237.375C214.678 236.932 220.213 236.103 225.661 234.909C224.867 232.185 228.72 229.727 231.213 229.947C232.207 229.983 233.197 230.273 233.991 230.874C234.724 230.965 235.453 231.529 235.696 232.261C237.607 231.63 239.575 231.105 241.401 230.254C243.198 229.489 243.672 227.914 243.038 226.156C237.987 228.7 232.836 220.769 237.57 217.335C238.168 216.807 239.473 216.387 239.924 217.249C239.989 217.254 240.053 217.263 240.118 217.272C239.556 215.598 238.991 213.924 238.427 212.25C236.009 212.227 234.907 208.777 236.792 207.371C235.871 204.593 234.97 201.807 234.109 199.01C230.881 199.97 227.806 196.116 228.248 193.104L228.263 193.013C228.517 191.374 229.577 189.693 231.318 189.275C230.695 186.9 230.114 184.511 229.593 182.111C229.096 181.666 228.831 180.962 228.953 180.308C228.681 175.63 227.322 170.906 227.298 166.14C224.174 170.677 216.66 168.416 217.84 162.682C217.299 157.51 224.506 155.043 227.382 159.409C227.564 158.409 227.823 157.408 227.904 156.387C227.919 156.269 228.1 156.277 228.119 156.385L228.121 156.397C229.059 162.989 229.359 169.68 230.638 176.236C233.306 176.138 234.935 182.381 232.087 183.084C233.811 190.357 236.075 197.486 238.478 204.57C241.506 203.509 243.275 210.06 240.821 211.398C241.815 214.276 242.806 217.154 243.779 220.039L243.793 220.032C244.112 219.356 245.116 219.342 245.768 219.41C247.954 220.009 247.387 223.92 245.06 223.883C246.643 227.561 246.147 231.143 242.059 232.804L242.072 232.924C242.193 232.811 242.344 232.715 242.531 232.645C245.092 231.684 247.444 230.33 249.578 228.652C247.975 217.777 243.899 207.45 240.428 197.065C237.443 196.848 236.1 192.215 238.247 190.281C236.053 183.377 234.978 176.216 233.586 169.132C231.426 168.852 230.599 165.497 232.424 164.291C230.449 155.515 225.239 148.421 216.388 145.346C216.221 146.633 215.867 147.9 215.352 149.101C215.41 149.099 215.466 149.102 215.521 149.106C215.538 149.13 215.557 149.154 215.582 149.176C216.085 149.609 216.426 150.114 216.662 150.667C216.691 150.787 216.722 150.908 216.753 151.028C216.736 151.08 216.718 151.131 216.695 151.182C217.906 154.573 213.778 156.714 210.821 156.186C210.366 156.136 210.051 155.91 209.868 155.607C204.987 158.795 198.26 158.788 193.339 155.548C190.142 157.624 185.47 153.818 187.583 150.337ZM170.247 230.193C175.081 229.053 177.357 236.779 173.598 239.3C172.391 240.164 170.647 240.38 169.323 239.653C165.814 237.921 166.152 230.962 170.247 230.193ZM188.478 223.889C194.707 223.328 196.059 232.835 190.772 235.021C186.831 236.533 182.488 232.398 184.24 228.489C184.233 226.152 186.084 224.129 188.478 223.889ZM207.968 223.091C208.08 220.595 210.467 218.016 213.132 218.472C215.571 218.868 216.433 221.596 217.033 223.619C218.361 227.801 213.883 232.542 209.595 230.543C206.851 229.211 206.143 225.436 207.968 223.091ZM220.648 207.496C221.403 206.037 223.307 205.259 224.946 205.605C229.446 206.622 229.525 213.658 226.179 216.044C220.394 219.719 214.786 211.061 220.648 207.496ZM192.466 214.028C192.008 209.882 195.989 205.731 200.237 207.746C207.159 211.552 201.313 222.148 194.55 217.07C193.369 216.447 192.607 215.337 192.466 214.028ZM183.412 204.126C179.979 199.688 184.586 192.277 189.938 196.353C191.791 197.947 191.988 201.145 191.18 203.299C189.813 206.2 185.364 206.647 183.412 204.126ZM204.659 193.429C206.83 190.966 210.96 190.588 213.012 193.415C215.458 196.911 213.456 203.423 208.629 203.536C203.611 203.611 201.646 196.748 204.659 193.429ZM191.639 187.146C187.513 183.602 191.1 177.041 196.375 178.095C205.049 180.454 198.745 192.673 191.639 187.146ZM212.277 184.496C208.371 178.649 216.108 172.426 220.793 177.975C224.457 183.05 216.335 189.969 212.277 184.496ZM199.756 167.983C196.393 163.118 201.016 156.995 206.643 159.537C214.736 164.164 205.828 175.162 199.756 167.983Z" fill="#1B1B1B"/>
<path fill-rule="evenodd" clip-rule="evenodd" d="M194.273 96.6909C210.859 94.4412 212.438 99.1928 214.991 102.089C216.258 103.527 219.383 105.549 220.32 110.756C220.97 114.371 219.182 118.755 219.461 122.011C219.604 123.673 221.94 127.067 221.203 129.571C219.561 135.143 215.619 141.509 209.942 141.996C204.265 142.483 193.517 140.246 186.472 131.783C184.164 129.012 177.687 98.9405 194.273 96.6909Z" fill="#EEEEEE"/>
<path fill-rule="evenodd" clip-rule="evenodd" d="M220.884 122.217C220.486 121.846 220.175 121.54 220.033 120.995C219.974 120.768 219.936 120.533 219.908 120.296C221.193 118.124 222.198 113.169 221.972 110.526C221.652 106.797 219.971 103.326 217.464 100.551C212.577 95.1475 205.012 92.8111 197.878 93.6573C191.047 94.4662 183.977 97.6219 180.167 103.398C167.528 122.562 181.11 141.145 190.176 144.476C190.965 144.766 193.405 144.433 192.998 143.704C191.831 141.61 190.714 137.664 190.456 136.777C190.751 136.941 191.049 137.101 191.347 137.267C191.876 137.56 192.579 137.887 193.198 137.722C193.228 137.714 193.244 137.68 193.242 137.653C193.22 137.059 192.746 136.487 192.338 136.097C191.773 135.555 191.231 134.997 190.629 134.495C190.373 134.281 190.113 134.069 189.854 133.858C189.703 132.466 189.677 131.057 189.806 129.634C190.029 127.166 190.571 124.735 191.227 122.331C191.897 121.741 192.544 121.125 193.135 120.462C194.558 118.866 195.586 116.974 196.437 115.004C196.449 114.997 196.461 114.99 196.473 114.983C198.358 113.899 200.224 112.782 202.072 111.636C203.025 111.045 203.971 110.443 204.917 109.84C205.431 109.512 205.964 109.208 206.492 108.895C206.409 109.67 206.273 110.438 206.094 111.198C205.946 111.822 206.595 112.218 207.127 112.071C208.939 111.572 210.659 110.733 212.177 109.625C212.929 109.075 213.636 108.454 214.284 107.784C215.074 108.769 216.008 109.676 216.939 110.446C217.567 110.966 218.219 111.456 218.892 111.915C218.775 113.903 218.7 115.892 218.559 117.878C218.486 118.916 218.379 119.956 218.345 120.997C218.309 122.13 218.748 122.898 219.555 123.655C220.685 124.713 220.826 126.372 220.553 127.83C220.52 128.01 220.474 128.187 220.426 128.363C220.416 128.399 220.386 128.498 220.375 128.537C220.375 128.538 220.375 128.539 220.374 128.541C220.374 128.543 220.373 128.544 220.373 128.545C220.372 128.545 220.372 128.546 220.371 128.547L220.372 128.549L220.372 128.551L220.371 128.552C220.334 128.664 220.293 128.774 220.253 128.884C220.069 129.38 219.857 129.867 219.635 130.348C218.543 132.72 217.096 134.929 215.402 136.913C214.614 137.837 213.786 138.705 212.829 139.439C212.628 139.593 212.421 139.743 212.209 139.882C212.094 139.957 211.976 140.028 211.859 140.1C211.686 140.205 211.758 140.163 211.652 140.217C211.459 140.312 211.262 140.398 211.059 140.47C210.95 140.508 210.84 140.542 210.729 140.572C210.728 140.572 210.726 140.574 210.723 140.574C210.721 140.574 210.72 140.575 210.719 140.574C210.718 140.575 210.716 140.576 210.714 140.576C210.672 140.583 210.598 140.596 210.584 140.597C209.006 140.738 207.423 140.66 205.862 140.397C205.016 140.255 204.168 140.067 203.359 139.778C202.948 139.63 202.544 139.462 202.154 139.265C201.979 139.177 201.811 139.067 201.629 138.993C201.356 138.881 201.101 138.918 200.818 138.93C200.385 138.949 200.119 139.427 200.258 139.814C200.428 140.287 200.655 140.554 201.095 140.806C201.446 141.007 201.815 141.179 202.189 141.333C203.004 141.668 203.857 141.924 204.716 142.12C206.322 142.486 207.995 142.652 209.642 142.624C210.841 142.603 211.861 142.354 212.903 141.758C214.004 141.128 214.963 140.246 215.843 139.34C217.813 137.314 219.473 134.919 220.843 132.451C222.131 130.13 223.071 127.643 222.461 124.952C222.217 123.873 221.692 122.971 220.884 122.217Z" fill="#1B1B1B"/>
<path fill-rule="evenodd" clip-rule="evenodd" d="M216.943 134.467C216.548 134.374 216.158 134.26 215.766 134.152C213.743 133.344 211.386 133.368 209.422 134.363C208.459 134.851 207.59 135.654 206.629 136.214C206.399 136.324 206.166 136.425 205.929 136.513C205.776 136.474 205.623 136.432 205.47 136.389C204.374 136.08 203.332 135.672 202.315 135.212C202.199 135.075 202.08 134.943 201.953 134.817C202.646 134.657 203.319 134.432 203.927 134.208C205.791 133.521 207.518 132.514 209.374 131.805C211.102 131.143 213.001 130.699 214.835 131.18C215.705 131.408 216.494 131.871 217.346 132.155C217.786 132.301 218.312 132.437 218.811 132.421C218.556 133.216 218.212 133.967 217.71 134.612C217.452 134.58 217.194 134.525 216.943 134.467ZM220.559 128.1C220.401 128.256 219.739 128.772 219.534 129.064C219.473 129.046 219.413 129.029 219.353 129.01C219.242 128.896 219.09 128.854 218.94 128.871C217.849 128.472 216.855 127.863 215.948 127.07C215.303 126.507 214.641 125.917 213.818 125.629C212.85 125.289 211.949 125.561 210.974 125.709C209.937 125.868 208.882 125.66 207.853 125.891C207.099 126.061 206.414 126.445 205.836 126.953C204.657 127.989 203.901 129.368 202.933 130.583C201.836 131.962 200.421 132.904 198.806 133.462C198.785 133.451 198.763 133.439 198.741 133.429C197.43 132.432 196.224 131.283 195.138 130.042C194.078 128.829 191.075 123.219 190.427 122.76C190.157 122.569 189.874 122.501 189.612 122.532C189.136 122.584 188.724 122.953 188.571 123.492C188.313 124.408 188.579 125.541 188.685 126.467C188.815 127.601 188.987 128.73 189.203 129.851C189.417 130.958 189.669 132.059 189.959 133.15C190.105 133.701 190.262 134.25 190.43 134.795C190.482 134.967 190.543 135.12 190.613 135.26C190.694 135.529 190.781 135.797 190.871 136.062C191.462 137.799 192.305 139.516 193.738 140.712C195.23 141.958 197.175 142.704 198.979 143.366C200.697 143.996 202.487 144.534 204.31 144.919C205.912 145.486 207.612 145.897 209.295 146.046C211.149 146.209 213.07 146.065 214.778 145.279C215.618 144.893 216.4 144.388 217.097 143.782C218.104 143.144 218.988 142.311 219.679 141.249C220.916 139.345 221.394 137.123 221.493 134.866C221.519 134.288 221.61 132.074 221.603 131.731C221.579 130.624 221.556 129.517 221.532 128.409C221.521 127.887 220.871 127.793 220.559 128.1Z" fill="#1B1B1B"/>
<path fill-rule="evenodd" clip-rule="evenodd" d="M203.546 131.293C204.033 130.068 206.993 129.488 212.426 129.554L213.589 135.096C211.061 136.155 209.016 136.663 207.453 136.621C205.11 136.557 202.816 133.131 203.546 131.293Z" fill="white"/>
<path fill-rule="evenodd" clip-rule="evenodd" d="M204.368 134.186C204.038 133.613 209.676 131.488 211.56 132.448C212.817 133.088 213.302 133.93 213.016 134.974C208.098 136.548 205.215 136.286 204.368 134.186Z" fill="#B4B4B4"/>
<path fill-rule="evenodd" clip-rule="evenodd" d="M202.957 130.294C204.171 128.611 206.433 128.307 208.348 128.537C209.577 128.685 210.789 129.003 212.028 129.053C212.607 129.077 213.188 129.049 213.764 128.989C214.33 128.93 214.888 128.767 215.454 128.74C215.541 128.735 215.584 128.846 215.513 128.899C214.779 129.442 213.748 129.684 212.841 129.855C212.85 129.923 212.86 129.988 212.874 130.044C212.912 130.191 212.947 130.338 212.978 130.486C213.049 130.822 213.124 131.156 213.2 131.491C213.348 132.15 213.436 132.835 213.653 133.476L213.69 133.582C213.739 133.717 213.759 133.84 213.756 133.953L213.792 133.933L213.904 133.866L213.978 133.823C214.248 133.668 214.508 133.55 214.842 133.554C215.096 133.556 215.322 133.71 215.346 133.978C215.456 135.184 213.863 135.712 212.953 136.022L212.686 136.113C211.527 136.503 210.34 136.86 209.128 137.025C207.183 137.29 204.941 136.939 203.527 135.464C202.207 134.088 201.799 131.898 202.957 130.294ZM212.265 134.601C211.904 132.803 209.663 132.894 209.12 134.101C208.697 132.52 204.608 134.348 204.965 134.639C206.318 135.742 208.223 135.688 209.834 135.325C210.654 135.139 211.469 134.883 212.265 134.601ZM209.379 130.053L208.811 130.02L208.587 130.009C207.18 129.942 205.608 129.98 204.54 130.97C204.151 131.331 203.952 131.776 203.903 132.24C204.972 131.987 206.048 131.771 207.128 131.576L207.423 131.523C208.1 131.403 208.775 131.28 209.451 131.153L209.93 131.063L210.41 130.971C210.579 130.939 211.721 130.782 211.94 130.803C211.946 130.607 211.941 130.185 211.973 129.992C211.16 130.089 210.343 130.099 209.524 130.06L209.379 130.053ZM211.266 121.713C212.141 122.147 213.509 123.217 212.722 124.547C211.764 125.742 210.139 124.605 209.343 124.097C208.612 123.712 207.931 124.921 208.619 125.384C214.36 128.918 215.926 121.446 211.636 121.083C211.163 121.042 211.035 121.575 211.266 121.713ZM212.937 123.715L212.975 123.69L212.988 123.68C213.01 123.663 212.995 123.666 212.943 123.689L212.905 123.707L212.907 123.735C212.917 123.728 212.927 123.722 212.937 123.715ZM201.901 120.137L201.899 120.113C201.84 119.41 202.112 117.772 203.123 117.685C203.754 117.631 204.231 118.689 204.394 119.808L204.4 119.854C204.49 120.551 204.429 122.096 203.508 122.175C202.577 122.255 201.972 120.848 201.901 120.137ZM216.766 118.64L216.764 118.616C216.703 117.914 216.156 116.345 215.145 116.432C214.529 116.485 214.238 117.555 214.252 118.656L214.254 118.741C214.272 119.42 214.588 121.003 215.53 120.922C216.461 120.842 216.818 119.353 216.766 118.64ZM201.867 112.97C202.682 112.773 203.795 112.918 204.251 113.724C204.455 114.083 204.287 114.514 203.857 114.571C202.817 114.711 201.861 114.559 201.003 115.316C200.633 115.643 200.336 116.076 200.093 116.503L200.001 116.666L199.924 116.8C199.759 117.094 199.606 117.411 199.663 117.744C199.68 117.842 199.586 117.945 199.49 117.949C198.887 117.976 198.758 117.229 198.798 116.77C198.873 115.918 199.211 115.095 199.72 114.412C200.254 113.695 200.996 113.18 201.867 112.97ZM213.319 113.013C213.856 112.599 214.572 112.396 215.243 112.393C216.566 112.386 218.866 113.314 218.714 114.944C218.667 115.446 218.001 115.767 217.572 115.527C217.11 115.269 216.964 114.819 216.607 114.461C216.321 114.175 215.974 113.98 215.606 113.821C215.244 113.663 214.833 113.584 214.436 113.576L214.37 113.575C214.132 113.576 212.937 113.684 213.151 114.115C213.193 114.199 213.069 114.279 213.003 114.218C212.602 113.845 212.972 113.281 213.319 113.013Z" fill="#1B1B1B"/>
<path fill-rule="evenodd" clip-rule="evenodd" d="M216.619 113.004C219.204 112.782 220.727 113.212 221.271 113.208L221.288 113.208C221.514 113.203 221.717 113.205 221.936 113.268C222.739 113.501 222.936 114.307 222.526 114.86C222.586 115.927 222.832 117.158 222.684 118.247C222.773 122.773 220.722 123.714 219.543 124.094C218.95 124.285 218.239 124.402 217.585 124.31C216.487 124.363 215.375 124.114 214.398 123.596C213.037 122.875 211.97 121.679 211.529 120.189C211.32 119.478 211.186 118.731 211.203 117.99L211.207 117.887C210.77 117.723 210.281 117.727 209.779 117.752C209.539 117.764 209.303 117.776 209.075 117.806C208.853 117.85 208.635 117.903 208.417 117.967C208.181 118.061 207.962 118.201 207.767 118.41L207.777 118.69C207.797 119.391 207.765 120.097 207.683 120.793C207.561 121.819 207.309 122.811 206.657 123.587C206.446 123.969 206.175 124.316 205.837 124.626C204.607 125.753 202.849 126.279 201.195 126.279C197.836 126.281 195.682 123.799 195.14 122.706L195.108 122.64C194.715 121.826 194.366 120.757 193.336 120.663L193.117 120.643C192.647 120.596 192.21 120.512 191.9 120.083C191.764 119.897 191.684 119.681 191.65 119.458C191.493 119.484 191.336 119.509 191.179 119.534C189.946 119.907 182.429 120.779 181.828 120.831C181.828 120.831 180.713 121.416 180.193 121.081C179.832 120.848 179.691 120.508 179.843 120.096C180.073 119.477 181.339 119.007 181.905 118.844C181.905 118.844 191.202 118.124 191.86 117.94C192.237 117.478 192.982 117.473 193.595 117.353C194.075 116.944 194.771 116.638 195.322 116.425C195.434 116.372 195.544 116.32 195.652 116.271C196.657 115.812 197.718 115.524 198.804 115.325C199.923 115.121 201.059 115.073 202.194 115.13C202.673 115.154 203.148 115.196 203.623 115.265C204.465 115.303 205.308 115.413 206.16 115.556L206.33 115.585C207.227 115.74 208.146 115.862 209.041 115.628C209.769 115.438 210.456 115.093 211.111 114.727L211.196 114.679C212.636 113.866 214.933 113.149 216.619 113.004ZM203.65 116.637C203.086 116.563 202.923 117.436 203.488 117.51C203.889 117.563 204.239 117.733 204.492 118.049L204.519 118.083C204.862 118.538 205.587 118.029 205.242 117.572C204.853 117.057 204.289 116.721 203.65 116.637ZM219.802 114.719C219.595 114.598 219.309 114.726 219.213 114.929C219.106 115.154 219.208 115.385 219.403 115.509L219.423 115.521C219.6 115.625 219.782 115.822 219.821 116.037L219.825 116.064C219.895 116.63 220.777 116.557 220.706 115.989C220.637 115.433 220.274 114.994 219.802 114.719Z" fill="#1B1B1B"/>
</g>
</g>
<defs>
<filter id="filter0_dddddd_116_6862" x="0" y="0.147609" width="416" height="409.852" filterUnits="userSpaceOnUse" color-interpolation-filters="sRGB">
<feFlood flood-opacity="0" result="BackgroundImageFix"/>
<feColorMatrix in="SourceAlpha" type="matrix" values="0 0 0 0 0 0 0 0 0 0 0 0 0 0 0 0 0 0 127 0" result="hardAlpha"/>
<feOffset dy="0.559259"/>
<feGaussianBlur stdDeviation="1.1069"/>
<feColorMatrix type="matrix" values="0 0 0 0 0 0 0 0 0 0 0 0 0 0 0 0 0 0 0.0468848 0"/>
<feBlend mode="normal" in2="BackgroundImageFix" result="effect1_dropShadow_116_6862"/>
<feColorMatrix in="SourceAlpha" type="matrix" values="0 0 0 0 0 0 0 0 0 0 0 0 0 0 0 0 0 0 127 0" result="hardAlpha"/>
<feOffset dy="2.62385"/>
<feGaussianBlur stdDeviation="2.66004"/>
<feColorMatrix type="matrix" values="0 0 0 0 0 0 0 0 0 0 0 0 0 0 0 0 0 0 0.0647322 0"/>
<feBlend mode="normal" in2="effect1_dropShadow_116_6862" result="effect2_dropShadow_116_6862"/>
<feColorMatrix in="SourceAlpha" type="matrix" values="0 0 0 0 0 0 0 0 0 0 0 0 0 0 0 0 0 0 127 0" result="hardAlpha"/>
<feOffset dy="7.16485"/>
<feGaussianBlur stdDeviation="5.00862"/>
<feColorMatrix type="matrix" values="0 0 0 0 0 0 0 0 0 0 0 0 0 0 0 0 0 0 0.0786233 0"/>
<feBlend mode="normal" in2="effect2_dropShadow_116_6862" result="effect3_dropShadow_116_6862"/>
<feColorMatrix in="SourceAlpha" type="matrix" values="0 0 0 0 0 0 0 0 0 0 0 0 0 0 0 0 0 0 127 0" result="hardAlpha"/>
<feOffset dy="16.347"/>
<feGaussianBlur stdDeviation="8.93452"/>
<feColorMatrix type="matrix" values="0 0 0 0 0 0 0 0 0 0 0 0 0 0 0 0 0 0 0.0940847 0"/>
<feBlend mode="normal" in2="effect3_dropShadow_116_6862" result="effect4_dropShadow_116_6862"/>
<feColorMatrix in="SourceAlpha" type="matrix" values="0 0 0 0 0 0 0 0 0 0 0 0 0 0 0 0 0 0 127 0" result="hardAlpha"/>
<feOffset dy="36.5967"/>
<feGaussianBlur stdDeviation="16.711"/>
<feColorMatrix type="matrix" values="0 0 0 0 0 0 0 0 0 0 0 0 0 0 0 0 0 0 0.1174 0"/>
<feBlend mode="normal" in2="effect4_dropShadow_116_6862" result="effect5_dropShadow_116_6862"/>
<feColorMatrix in="SourceAlpha" type="matrix" values="0 0 0 0 0 0 0 0 0 0 0 0 0 0 0 0 0 0 127 0" result="hardAlpha"/>
<feOffset dy="100"/>
<feGaussianBlur stdDeviation="40"/>
<feColorMatrix type="matrix" values="0 0 0 0 0 0 0 0 0 0 0 0 0 0 0 0 0 0 0.18 0"/>
<feBlend mode="normal" in2="effect5_dropShadow_116_6862" result="effect6_dropShadow_116_6862"/>
<feBlend mode="normal" in="SourceGraphic" in2="effect6_dropShadow_116_6862" result="shape"/>
</filter>
<filter id="filter1_d_116_6862" x="80" y="40" width="299" height="211" filterUnits="userSpaceOnUse" color-interpolation-filters="sRGB">
<feFlood flood-opacity="0" result="BackgroundImageFix"/>
<feColorMatrix in="SourceAlpha" type="matrix" values="0 0 0 0 0 0 0 0 0 0 0 0 0 0 0 0 0 0 127 0" result="hardAlpha"/>
<feOffset dx="22"/>
<feGaussianBlur stdDeviation="10.5"/>
<feComposite in2="hardAlpha" operator="out"/>
<feColorMatrix type="matrix" values="0 0 0 0 0 0 0 0 0 0 0 0 0 0 0 0 0 0 0.25 0"/>
<feBlend mode="normal" in2="BackgroundImageFix" result="effect1_dropShadow_116_6862"/>
<feBlend mode="normal" in="SourceGraphic" in2="effect1_dropShadow_116_6862" result="shape"/>
</filter>
<filter id="filter2_d_116_6862" x="86" y="88" width="293" height="163" filterUnits="userSpaceOnUse" color-interpolation-filters="sRGB">
<feFlood flood-opacity="0" result="BackgroundImageFix"/>
<feColorMatrix in="SourceAlpha" type="matrix" values="0 0 0 0 0 0 0 0 0 0 0 0 0 0 0 0 0 0 127 0" result="hardAlpha"/>
<feOffset dx="22"/>
<feGaussianBlur stdDeviation="10.5"/>
<feComposite in2="hardAlpha" operator="out"/>
<feColorMatrix type="matrix" values="0 0 0 0 0 0 0 0 0 0 0 0 0 0 0 0 0 0 0.25 0"/>
<feBlend mode="normal" in2="BackgroundImageFix" result="effect1_dropShadow_116_6862"/>
<feBlend mode="normal" in="SourceGraphic" in2="effect1_dropShadow_116_6862" result="shape"/>
</filter>
<filter id="filter3_d_116_6862" x="80" y="103" width="299" height="143" filterUnits="userSpaceOnUse" color-interpolation-filters="sRGB">
<feFlood flood-opacity="0" result="BackgroundImageFix"/>
<feColorMatrix in="SourceAlpha" type="matrix" values="0 0 0 0 0 0 0 0 0 0 0 0 0 0 0 0 0 0 127 0" result="hardAlpha"/>
<feOffset dx="22"/>
<feGaussianBlur stdDeviation="10.5"/>
<feComposite in2="hardAlpha" operator="out"/>
<feColorMatrix type="matrix" values="0 0 0 0 0 0 0 0 0 0 0 0 0 0 0 0 0 0 0.25 0"/>
<feBlend mode="normal" in2="BackgroundImageFix" result="effect1_dropShadow_116_6862"/>
<feBlend mode="normal" in="SourceGraphic" in2="effect1_dropShadow_116_6862" result="shape"/>
</filter>
<filter id="filter4_d_116_6862" x="71" y="140" width="325" height="114" filterUnits="userSpaceOnUse" color-interpolation-filters="sRGB">
<feFlood flood-opacity="0" result="BackgroundImageFix"/>
<feColorMatrix in="SourceAlpha" type="matrix" values="0 0 0 0 0 0 0 0 0 0 0 0 0 0 0 0 0 0 127 0" result="hardAlpha"/>
<feOffset dx="22"/>
<feGaussianBlur stdDeviation="10.5"/>
<feComposite in2="hardAlpha" operator="out"/>
<feColorMatrix type="matrix" values="0 0 0 0 0 0 0 0 0 0 0 0 0 0 0 0 0 0 0.25 0"/>
<feBlend mode="normal" in2="BackgroundImageFix" result="effect1_dropShadow_116_6862"/>
<feBlend mode="normal" in="SourceGraphic" in2="effect1_dropShadow_116_6862" result="shape"/>
</filter>
<linearGradient id="paint0_linear_116_6862" x1="119.221" y1="3" x2="363.04" y2="133.815" gradientUnits="userSpaceOnUse">
<stop stop-color="#837A00"/>
<stop offset="1" stop-color="#AD9F00"/>
<stop offset="1" stop-color="#FCE90F"/>
</linearGradient>
<clipPath id="clip0_116_6862">
<path d="M80 67C80 31.6538 108.654 3 144 3H272C307.346 3 336 31.6538 336 67V230H80V67Z" fill="white"/>
</clipPath>
</defs>
</svg>
