<svg width="416" height="410" viewBox="0 0 416 410" fill="none" xmlns="http://www.w3.org/2000/svg">
<g filter="url(#filter0_dddddd_116_6924)">
<g clip-path="url(#clip0_116_6924)">
<path d="M80 67C80 31.6538 108.654 3 144 3H272C307.346 3 336 31.6538 336 67V230H80V67Z" fill="url(#paint0_linear_116_6924)"/>
<g filter="url(#filter1_d_116_6924)">
<path d="M94.517 138.865L80.0035 107.905V189.447C79.9243 212.454 81.1129 223.304 90.8449 230H324.809C332.658 225.489 334.975 220.761 336 209.069V70.4046C328.409 64.9738 324.955 70.605 320.263 96.5677C311.91 93.7586 305.406 97.4456 292.46 107.905C285.303 109.995 279.901 99.7718 270.077 79.9977C259.419 59.8747 253.714 49.9424 253.116 79.9977L253.03 80.6985C250.687 99.917 249.347 110.904 238.078 117.062C232.369 115.626 228.662 108.818 222.119 96.8031L221.991 96.5677C214.674 88.3909 210.509 90.0402 202.931 107.905L181.598 156.307C174.089 166.304 170.066 172.715 156.418 156.307C151.155 151.549 147.112 146.901 135.959 131.452C125.123 109.795 118.905 96.1708 113.577 131.452C111.712 136.773 110.951 140.293 109.905 147.15C104.695 151.245 101.92 154.888 94.517 138.865Z" fill="#776F18"/>
</g>
<path fill-rule="evenodd" clip-rule="evenodd" d="M179.197 4.80106C177.158 15.097 174.508 25.6101 169.299 34.8616C166.725 47.1825 167.733 65.2311 155.483 72.6376C155.502 74.1408 152.722 75.1963 151.415 75.8857C149.291 77.0311 146.349 79.387 144.093 77.7323C143.323 77.8971 141.552 76.7999 140.525 78.762C139.473 80.7719 139.241 84.963 138.512 85.2849C138.561 88.3237 124.851 89.1781 121.683 84.6169C120.285 81.2069 122.302 80.3326 118.887 75.7147C117.226 75.4688 115.668 74.9084 114.178 74.1954C112.921 73.9103 111.674 73.5877 110.433 73.2569C94.495 70.3913 94.3005 58.3942 93.9721 45.5005C94.2246 28.2401 90.3949 10.694 94.1677 -6.4007C93.4327 -12.6921 93.9154 -19.2967 95.9517 -25.2912C91.6183 -32.9547 95.5531 -36.652 99.2336 -43.2695C99.8628 -44.4627 100.427 -45.6989 100.772 -47.0001C100.799 -48.0288 100.893 -49.0528 101.16 -50.0533C101.883 -52.323 105.713 -51.6685 105.684 -49.3149C105.854 -47.7531 105.624 -46.1676 105.725 -44.6039C105.719 -44.6855 105.708 -44.8418 105.709 -44.8538C105.942 -40.9209 106.724 -39.3369 108.989 -36.1568C111.822 -31.2025 109.329 -25.4961 109.618 -20.1983C109.67 -18.4319 109.79 -16.6831 109.818 -14.9154C110.964 -15.4635 112.195 -15.8971 113.462 -16.1253C113.199 -22.2156 115.075 -28.151 117.084 -33.8479C122.456 -48.5066 129.193 -63.4541 128.192 -79.4063C128.193 -79.3986 126.732 -92.4991 125.251 -99.0307C123.492 -107.304 122.212 -115.55 119.409 -123.578C118.03 -129.302 114.555 -134.918 115.221 -140.896C114.037 -143.018 116.686 -145.219 118.837 -145.028C118.992 -146.839 118.738 -149.492 118.075 -152.985C118.013 -154.902 117.25 -157.401 118.855 -158.887C117.296 -164.137 117.067 -169.694 116.981 -175.117C116.991 -177.685 117.015 -180.78 119.868 -181.992C122.506 -182.874 125.425 -182.136 128.169 -182.231C130.796 -182.009 133.574 -182.465 136.107 -181.648C139.002 -180.549 139.324 -177.282 138.545 -174.759C137.955 -172.113 137.294 -169.482 136.593 -166.861C134.693 -161.188 133.749 -154.793 131.475 -149.373C132.465 -149.098 133.432 -148.505 134.051 -147.706C135.781 -147.501 136.949 -146.1 137.243 -144.536C137.465 -143.526 138.769 -143.211 139.631 -142.821C139.871 -143.657 140.418 -144.329 140.88 -145.068C140.683 -146.738 141.975 -148.56 143.841 -148.438C144.133 -148.674 144.405 -148.916 144.701 -149.139C142.85 -152.439 141.582 -156.093 141.502 -159.84C141.267 -162.729 141.157 -167.335 144.999 -167.855C146.438 -167.921 148.001 -168.154 149.351 -167.516C150.965 -168.08 152.647 -168.273 154.346 -168.428C161.624 -169.024 168.534 -168.328 175.838 -168.521C177.769 -168.623 185.483 -168.752 186.666 -167.592C188.246 -167.776 187.208 -166.699 187.768 -165.561C188.218 -164.704 189.474 -163.029 188.539 -162.655C186.588 -162.004 184.783 -160.55 182.984 -159.791C174.546 -155.902 156.526 -149.593 156.628 -149.363C156.618 -149.52 156.41 -145.589 156.964 -144.494C157.792 -143.52 159.609 -143.523 160.479 -142.584C161.081 -142.56 165.467 -140.881 164.896 -138.747C164.254 -137.06 165.684 -134.802 164.44 -133.438C165.241 -99.3067 171.042 -65.773 172.91 -31.7319C173.007 -31.6305 173.103 -31.5281 173.201 -31.4267C175.687 -31.6264 177.38 -29.0014 177.958 -26.9986C178.285 -26.6038 178.598 -26.1993 178.88 -25.7658C180.654 -22.9969 180.4 -19.6106 180.362 -16.5005C180.825 -16.0953 181.094 -15.5041 181.064 -14.8346C180.973 -12.8414 180.887 -10.8476 180.799 -8.85502C180.801 -8.85492 180.801 -8.85492 180.8 -8.85383C181.331 -7.81341 181.319 -6.69473 181.047 -5.5776C180.797 -1.91049 181.067 1.56797 179.197 4.80106Z" fill="#EEEEEE"/>
<path fill-rule="evenodd" clip-rule="evenodd" d="M182.164 -7.03135C181.05 -7.90756 166.292 -16.2966 149.351 -18.1809C137.531 -19.4955 116.423 -15.9571 110.439 -16.0267C108.342 -16.0511 110.654 -22.1697 111.044 -22.4814C111.018 -23.817 110.302 -26.1115 110.516 -27.4427C108.78 -27.1487 103.369 -26.7283 96.1291 -23.7994C95.0924 -23.3801 92.1648 3.93186 92.5831 17.6629C93.1618 36.6581 92.8246 53.9451 94.3587 55.0349C94.4186 54.5581 91.9476 67.7766 102.985 70.8622C104.989 71.4224 116.596 75.136 116.596 75.136C121.971 69.3846 130.126 64.8701 134.529 65.2478C142.348 65.9185 145.795 77.6672 146.56 77.5953C163.224 76.0295 163.486 56.2692 169.309 34.8396C174.393 16.1258 181.417 -1.96138 182.164 -7.03135Z" fill="white"/>
<path fill-rule="evenodd" clip-rule="evenodd" d="M121.572 84.9709C121.582 85.2983 122.015 85.3305 122.083 85.0148C122.869 81.1954 121.726 76.6351 118.133 74.5156C121.155 72.2748 123.417 69.1265 126.95 67.5421C134.419 63.5402 144.272 68.7294 145.148 76.9921C143.367 77.2428 140.117 76.9298 139.412 78.9243C139.133 79.1649 138.808 81.404 138.682 83.065C138.639 83.3723 138.603 83.6803 138.566 83.9859C138.518 84.2321 138.489 84.4846 138.469 84.7395C138.427 85.2925 139.256 85.3527 139.337 84.8139C139.37 84.593 139.399 84.3689 139.427 84.1438C139.438 84.0846 139.452 84.0259 139.464 83.967C139.613 83.5634 139.729 83.1382 139.856 82.7539C139.924 82.5471 139.994 82.338 140.068 82.1296C140.195 81.5775 140.385 81.0437 140.674 80.5477C141.442 79.2287 143.145 78.1858 144.726 78.3085C145.065 78.3348 145.397 78.4134 145.736 78.434C146.289 78.4672 146.758 78.2873 147.27 78.107C147.731 77.9442 148.16 77.8441 148.589 77.8815C166.787 73.4009 166.236 51.237 170.202 36.6243C174.212 22.1184 181.102 8.39268 183.229 -6.60091C183.613 -8.14163 181.938 -8.86924 180.931 -9.7002C180.983 -13.6552 182.978 -17.4915 182.164 -21.4795C181.376 -24.7508 177.755 -32.7641 173.564 -31.9103C171.951 -67.5345 163.979 -101.105 166.018 -136.848C167.306 -139.741 164.529 -142.159 161.833 -142.83L161.479 -143.077C160.295 -143.899 159.067 -144.709 157.742 -145.268C157.71 -145.291 157.678 -145.314 157.645 -145.336C157.581 -145.378 157.512 -145.406 157.44 -145.423C157.595 -146.329 157.957 -147.161 158.4 -147.963C164.182 -148.784 169.457 -151.792 174.981 -153.58C178.602 -155.401 189.363 -157.558 190.479 -161.206L190.51 -161.317C190.974 -162.955 190.254 -165.087 188.372 -165.407C189.424 -166.055 188.903 -167.59 187.849 -167.968C186.583 -168.424 185.164 -168.398 183.84 -168.62C171.292 -170.094 158.505 -170.071 146 -168.302C144.949 -168.152 143.85 -167.933 142.929 -167.393C137.246 -163.636 142.021 -154.245 142.86 -148.668C142.379 -148.633 141.9 -148.57 141.427 -148.472L141.321 -148.45C140.861 -148.353 140.383 -148.23 140.008 -147.943C139.992 -147.931 139.979 -147.917 139.964 -147.905C137.72 -148.066 139.58 -142.931 139.668 -141.593C138.923 -143.612 138.357 -145.747 137.424 -147.689C136.771 -148.893 135.055 -148.244 133.942 -148.258C134.889 -154.982 137.066 -161.429 139.283 -167.832C141.093 -173.151 143.961 -179.484 136.487 -181.789C131.359 -183.614 118.814 -184.161 116.085 -178.608C115.025 -173.987 116.062 -169.123 116.381 -164.452L116.45 -163.786C116.918 -159.231 117.32 -154.662 118.179 -150.158C118.288 -149.427 118.437 -148.708 118.603 -147.991C118.598 -147.582 118.584 -147.173 118.523 -146.767C118.442 -146.236 118.296 -145.721 118.144 -145.205C118.125 -145.14 118.106 -145.064 118.086 -144.982C115.79 -144.152 114.051 -143.14 113.732 -141.914C113.414 -140.753 113.749 -139.518 113.977 -138.364L113.991 -138.296C118.961 -112.7 130.561 -89.0236 125.968 -62.5693C123.996 -49.5333 116.755 -38.0092 114.586 -25.0245C113.76 -22.4682 112.99 -19.8798 112.672 -17.1985C112.292 -17.1429 111.911 -17.0953 111.532 -17.031C111.415 -18.2122 111.239 -19.3886 110.882 -20.5123C110.892 -22.6726 111.189 -24.8319 111.744 -26.9215C111.872 -27.4029 111.671 -27.8487 111.281 -28.0396C112.508 -30.9738 113.024 -34.7414 110.728 -37.2928L110.533 -37.4476C108.488 -39.0776 108.297 -39.5057 108.023 -42.2395L106.946 -49.1815C106.81 -50.0409 106.634 -50.9196 106.091 -51.6319C104.649 -53.5217 102.017 -52.5947 101.036 -50.7964C100.122 -48.9461 99.947 -46.838 99.2308 -44.9133C98.6402 -42.9123 97.3377 -41.2717 96.0482 -39.6621C93.1569 -35.9612 92.4847 -30.5203 95.0043 -26.4365C95.1987 -25.7798 95.3729 -25.1349 95.5836 -24.4875C94.4985 -23.4153 94.9767 -21.5387 94.7421 -20.1328C94.6399 -18.9643 94.5182 -17.7975 94.3824 -16.6324C93.5826 -9.75057 92.284 -2.95482 91.6663 3.94327C90.5922 13.2196 92.2662 22.4381 92.9024 31.6812C93.3494 40.7932 92.4967 49.9711 93.7286 59.0448C95.9434 76.8375 117.355 71.9633 120.29 79.1517C121.207 80.9662 121.516 82.9679 121.572 84.9709ZM118.338 -176.257C118.222 -178.608 119.901 -179.025 121.833 -179.571C126.753 -180.912 132.297 -180.855 137.002 -178.77C137.83 -178.333 138.398 -177.736 138.635 -176.913C131.959 -178.105 124.854 -178.264 118.338 -176.257ZM143.105 -163.709C143.706 -165.76 146.415 -165.775 148.245 -165.971C152.621 -166.502 157.024 -166.853 161.433 -166.989C169.979 -167.284 178.551 -166.726 187.018 -165.609C187.239 -165.49 187.37 -165.287 187.66 -165.262L187.695 -165.26C187.712 -165.259 187.727 -165.259 187.743 -165.258C187.594 -165.177 187.463 -165.065 187.36 -164.928C172.612 -164.575 157.819 -164.742 143.105 -163.709ZM155.853 -144.59C152.396 -145.5 148.842 -146.129 145.252 -145.879C145.264 -148.832 144.373 -151.778 143.721 -154.661C148.728 -155.535 151.502 -149.825 155.792 -148.415C155.432 -147.139 155.403 -145.768 155.853 -144.59ZM119.492 -145.449C119.506 -145.469 119.514 -145.493 119.515 -145.522C119.791 -148.941 119.736 -152.376 119.523 -155.801C122.346 -152.181 127.479 -150.886 131.886 -151.912L131.848 -151.696C131.632 -150.467 131.358 -149.213 131.455 -147.969L131.254 -147.931C128.99 -147.51 123.685 -146.732 119.492 -145.449ZM172.506 -11.0748C153.793 -17.8611 133.433 -19.9326 113.715 -17.3401C114.945 -20.3534 115.941 -23.4437 116.727 -26.5951C118.529 -34.7196 122.219 -42.2271 124.942 -50.0597C128.102 -59.3087 129.344 -67.2183 129.003 -76.9719L128.992 -77.2675C128.275 -99.1358 119.427 -119.802 116.276 -141.243C122.409 -144.283 129.728 -145.048 136.538 -145.939C139.995 -136.911 142.782 -127.718 144.308 -118.185C150.174 -88.1723 158.85 -59.6423 153.744 -28.9238C153.166 -28.6117 153.279 -27.8393 153.538 -27.3297C153.243 -25.1074 152.908 -22.8906 152.483 -20.6917C152.468 -20.6173 152.593 -20.5917 152.614 -20.6626C153.166 -22.5299 153.737 -24.3906 154.242 -26.2713C156.392 -23.6718 157.657 -20.5447 159.505 -17.7658C159.967 -19.6829 156.575 -27.5526 154.899 -28.8692C160.678 -51.8018 156.202 -73.6328 151.292 -96.3358C148.073 -112.611 144.989 -128.921 141.621 -145.165C141.679 -145.16 141.736 -145.156 141.794 -145.153C141.465 -144.654 147.511 -144.5 147.982 -144.194C152.376 -143.395 156.621 -141.973 160.84 -140.55L161.357 -140.368C162.406 -139.994 163.617 -139.481 163.712 -138.317L163.702 -138.172C163.7 -138.129 163.699 -138.094 163.702 -138.091L163.66 -137.964C163.651 -137.935 163.645 -137.912 163.645 -137.905L163.597 -137.845C163.541 -137.778 163.489 -137.719 163.561 -137.786C163.029 -137.295 162.914 -136.477 163.432 -135.92C161.167 -97.1439 170.582 -60.6691 171.913 -22.0205C172.06 -18.3695 172.31 -14.7235 172.506 -11.0748ZM96.8538 -25.1094C94.8753 -28.0513 94.8243 -31.9247 95.9852 -35.2038C96.5864 -36.829 97.6336 -38.1511 98.7118 -39.4966C100.592 -41.7325 101.611 -44.4305 102.28 -47.2274L102.297 -47.2801C102.569 -48.1743 102.905 -50.6769 104.167 -50.2838C104.487 -50.0374 104.566 -49.0687 104.642 -48.5593L105.606 -42.3508C105.884 -40.5533 105.963 -38.4389 107.381 -37.0895L107.551 -36.9592C108.726 -36.0522 109.86 -35.0197 109.921 -33.4434C110.186 -31.495 109.23 -29.7126 108.773 -27.8798C104.724 -27.3116 100.737 -26.3613 96.8538 -25.1094ZM180.469 -10.0218L180.342 -10.0988C178.88 -10.9912 174.534 -13.8465 173.277 -13.001C173.788 -18.6314 173.818 -24.2752 173.636 -29.9192C173.802 -29.8675 173.977 -29.8569 174.138 -29.9008C177.373 -28.6989 180.436 -22.1235 180.437 -18.8793C180.413 -15.9286 179.568 -12.9209 180.469 -10.0218ZM118.583 71.6368L118.395 71.8458C116.399 74.053 115.32 74.8098 112.326 73.284C112.787 72.8036 113.043 72.1287 112.926 71.3972L112.918 71.3504C112.285 67.239 107.465 64.4748 103.602 66.3509C102.347 65.9065 100.929 66.7148 100.765 68.0187C97.3121 65.5658 95.9684 61.4993 95.6245 57.5013C97.9037 58.9628 101.217 58.0386 102.384 55.6211C104.864 51.2326 99.1858 45.959 95.1448 49.4869C95.0017 41.7136 95.2902 33.9179 94.4795 26.1682C95.4119 28.0468 97.9639 28.689 99.6333 27.3521C105.061 23.4228 100.099 13.0128 93.5849 17.2138C93.2086 12.9063 93.3166 8.57956 93.7196 4.28914C95.6124 5.21137 96.9743 1.91972 97.239 0.499811C97.5641 -1.20857 96.9843 -4.89879 94.9166 -5.28159L95.3246 -8.02334C96.0212 -12.7226 96.6849 -17.4201 97.0264 -22.1617C97.1335 -22.1789 97.2269 -22.2191 97.3069 -22.2746C97.3241 -22.4109 97.354 -22.5462 97.3916 -22.6793C97.4288 -22.8111 97.5202 -22.875 97.6226 -22.8887L97.6265 -22.8937C97.6301 -22.9888 97.6197 -23.0854 97.5918 -23.1781C101.557 -24.4524 105.621 -25.4368 109.735 -26.1333C109.521 -24.8021 109.431 -23.4642 109.457 -22.1285C107.811 -20.8121 109.232 -15.3989 109.237 -13.3419C109.589 -9.19102 109.771 -5.02914 109.89 -0.866915C108.468 -0.867242 107.618 0.54555 107.143 1.71393C106.546 2.9939 106.133 4.37999 106.355 5.79889C106.559 7.48299 108.276 9.22292 110.074 8.79019L110.089 9.90788C110.179 16.9868 110.181 24.0699 110.618 31.1393C107.396 28.9609 103.849 32.7929 104.393 36.0501C104.516 37.4237 105.227 38.8054 106.383 39.6125C107.405 40.3228 109.575 41.1256 110.396 39.8264C110.73 39.8124 111.054 39.6779 111.308 39.4601C111.714 43.3086 112.276 47.1998 113.383 50.9093C108.67 53.3348 108.9 60.4795 114.785 60.9937C122.78 60.9947 121.662 49.235 113.82 50.7558C112.658 36.0591 112.526 21.33 112.551 6.60021C113.606 5.17119 113.651 2.92042 112.49 1.54188C112.392 -3.79575 112.174 -9.13258 111.744 -14.4557C117.678 -15.2541 123.664 -15.8219 129.665 -15.8053C129.793 -13.9379 131.714 -12.7825 133.433 -12.4859C134.57 -12.2642 135.855 -12.5925 136.969 -12.7069C138.337 -13.1003 139.52 -14.1722 140.113 -15.4012C145.678 -14.958 151.213 -14.1289 156.661 -12.9356C155.867 -10.2116 159.72 -7.75266 162.213 -7.97326C163.207 -8.00956 164.197 -8.29938 164.991 -8.9001C165.724 -8.99117 166.453 -9.55464 166.696 -10.2872C168.607 -9.65585 170.575 -9.13111 172.401 -8.2801C174.198 -7.5149 174.672 -5.94057 174.038 -4.18219C168.987 -6.72579 163.836 1.20464 168.57 4.63925C169.168 5.16691 170.473 5.58702 170.924 4.7249C170.989 4.71946 171.053 4.71138 171.118 4.70151C170.556 6.37616 169.991 8.04994 169.427 9.72373C167.009 9.74713 165.907 13.1965 167.792 14.6033C166.871 17.3813 165.97 20.1666 165.109 22.9634C161.881 22.004 158.806 25.8575 159.248 28.8699L159.263 28.9609C159.517 30.5996 160.577 32.2804 162.318 32.6984C161.695 35.0744 161.114 37.4624 160.593 39.8632C160.096 40.3081 159.831 41.012 159.953 41.6656C159.681 46.3435 158.322 51.0675 158.298 55.8338C155.174 51.2971 147.66 53.5581 148.84 59.292C148.299 64.4634 155.506 66.931 158.382 62.5648C158.564 63.5644 158.823 64.5656 158.904 65.587C158.919 65.7049 159.1 65.6968 159.119 65.5893L159.121 65.5769C160.059 58.9847 160.359 52.2941 161.638 45.7383C164.306 45.8357 165.935 39.5927 163.087 38.8901C164.811 31.6173 167.075 24.4875 169.478 17.4042C172.506 18.4649 174.275 11.9135 171.821 10.5757C172.815 7.69776 173.806 4.81962 174.779 1.93484L174.793 1.94235C175.112 2.61766 176.116 2.63162 176.768 2.56397C178.954 1.96517 178.387 -1.94565 176.06 -1.90879C177.643 -5.58724 177.147 -9.16882 173.059 -10.8299L173.072 -10.9502C173.193 -10.8376 173.344 -10.7416 173.531 -10.6715C176.092 -9.71007 178.444 -8.35569 180.578 -6.67851C178.975 4.19718 174.899 14.5238 171.428 24.9088C168.443 25.1254 167.1 29.7593 169.247 31.6924C167.053 38.597 165.978 45.7577 164.586 52.8415C162.426 53.1216 161.599 56.4772 163.424 57.6833C161.449 66.4592 156.239 73.5525 147.388 76.6281C147.221 75.3404 146.867 74.0739 146.352 72.8726C146.41 72.8744 146.466 72.8722 146.521 72.8678C146.538 72.8435 146.557 72.8198 146.582 72.7977C147.085 72.3653 147.426 71.8595 147.662 71.307C147.691 71.1864 147.722 71.0661 147.753 70.946C147.736 70.8942 147.718 70.8429 147.695 70.7922C148.906 67.4007 144.778 65.2598 141.821 65.7881C141.366 65.8377 141.051 66.0635 140.868 66.3673C135.987 63.1789 129.26 63.1854 124.339 66.4256C121.142 64.35 116.47 68.156 118.583 71.6368ZM101.247 -8.21873C106.081 -7.07925 108.357 -14.8047 104.598 -17.3263C103.391 -18.1904 101.647 -18.4058 100.323 -17.6792C96.814 -15.9471 97.1516 -8.98769 101.247 -8.21873ZM119.478 -1.91537C125.707 -1.35426 127.059 -10.8609 121.772 -13.0471C117.831 -14.5593 113.488 -10.4243 115.24 -6.51548C115.233 -4.17797 117.084 -2.15502 119.478 -1.91537ZM138.968 -1.11677C139.08 1.37856 141.467 3.95808 144.132 3.50235C146.571 3.10599 147.433 0.378126 148.033 -1.64534C149.361 -5.82758 144.883 -10.5676 140.595 -8.56939C137.851 -7.23734 137.143 -3.46196 138.968 -1.11677ZM151.648 14.4777C152.403 15.937 154.307 16.7147 155.946 16.3693C160.446 15.3523 160.525 8.31633 157.179 5.93005C151.394 2.25525 145.786 10.9124 151.648 14.4777ZM123.466 7.94563C123.008 12.0915 126.989 16.2429 131.237 14.2282C138.159 10.4219 132.313 -0.173855 125.55 4.90351C124.369 5.52668 123.607 6.63724 123.466 7.94563ZM114.412 17.8476C110.979 22.2858 115.586 29.6968 120.938 25.6214C122.791 24.027 122.988 20.8288 122.18 18.6753C120.813 15.7735 116.364 15.3266 114.412 17.8476ZM135.659 28.5453C137.83 31.0082 141.96 31.3863 144.012 28.5584C146.458 25.0625 144.456 18.5508 139.629 18.4382C134.611 18.3625 132.646 25.2258 135.659 28.5453ZM122.639 34.828C118.513 38.3721 122.1 44.9324 127.375 43.8792C136.049 41.5199 129.745 29.3014 122.639 34.828ZM143.277 37.4778C139.371 43.3253 147.108 49.548 151.793 43.999C155.457 38.9236 147.335 32.0051 143.277 37.4778ZM130.756 53.9913C127.393 58.856 132.016 64.9787 137.643 62.4368C145.736 57.8099 136.828 46.812 130.756 53.9913Z" fill="#1B1B1B"/>
<path fill-rule="evenodd" clip-rule="evenodd" d="M125.273 125.283C141.859 127.533 143.438 122.781 145.991 119.884C147.258 118.447 150.383 116.425 151.32 111.218C151.97 107.603 150.182 103.219 150.461 99.9626C150.604 98.3006 152.94 94.9067 152.203 92.4032C150.561 86.8311 146.619 80.4653 140.942 79.9783C135.265 79.4913 124.517 81.7278 117.472 90.1904C115.164 92.9624 108.687 123.033 125.273 125.283Z" fill="#EEEEEE"/>
<path fill-rule="evenodd" clip-rule="evenodd" d="M151.884 99.7572C151.486 100.128 151.175 100.434 151.033 100.979C150.974 101.206 150.936 101.441 150.908 101.678C152.193 103.85 153.198 108.804 152.972 111.448C152.652 115.177 150.971 118.648 148.464 121.422C143.577 126.826 136.012 129.163 128.878 128.317C122.047 127.508 114.977 124.352 111.167 118.576C98.5282 99.4118 112.11 80.8286 121.176 77.4975C121.965 77.2075 124.405 77.5411 123.998 78.27C122.831 80.364 121.714 84.3095 121.456 85.1972C121.751 85.0327 122.049 84.8729 122.347 84.7066C122.876 84.4138 123.579 84.0869 124.198 84.2521C124.228 84.26 124.244 84.2936 124.242 84.3212C124.22 84.9151 123.746 85.4868 123.338 85.8767C122.773 86.4184 122.231 86.9765 121.629 87.4784C121.373 87.6927 121.113 87.9046 120.854 88.1164C120.703 89.5079 120.677 90.9166 120.806 92.3399C121.029 94.8074 121.571 97.239 122.227 99.6427C122.897 100.233 123.544 100.848 124.135 101.512C125.558 103.108 126.586 105 127.437 106.97C127.449 106.977 127.461 106.984 127.473 106.991C129.358 108.074 131.224 109.192 133.072 110.338C134.025 110.929 134.971 111.531 135.917 112.134C136.431 112.462 136.964 112.766 137.492 113.079C137.409 112.304 137.273 111.536 137.094 110.776C136.946 110.152 137.595 109.756 138.127 109.903C139.939 110.402 141.659 111.241 143.177 112.349C143.929 112.899 144.636 113.519 145.284 114.19C146.074 113.205 147.008 112.297 147.939 111.527C148.567 111.008 149.219 110.518 149.892 110.059C149.775 108.071 149.7 106.082 149.559 104.096C149.486 103.058 149.379 102.017 149.345 100.977C149.309 99.8437 149.748 99.076 150.555 98.3188C151.685 97.2607 151.826 95.6022 151.553 94.1443C151.52 93.9641 151.474 93.787 151.426 93.6111C151.416 93.5747 151.386 93.4756 151.375 93.4368C151.375 93.4357 151.375 93.4346 151.374 93.4324C151.374 93.4313 151.373 93.43 151.373 93.429C151.372 93.4289 151.372 93.4278 151.371 93.4265L151.372 93.4244L151.372 93.4233L151.371 93.4221C151.334 93.3102 151.293 93.2003 151.253 93.0903C151.069 92.5941 150.857 92.1066 150.635 91.6261C149.543 89.2539 148.096 87.0453 146.402 85.0607C145.614 84.1366 144.786 83.269 143.829 82.5346C143.628 82.3809 143.421 82.2313 143.209 82.0921C143.094 82.0169 142.976 81.9456 142.859 81.8735C142.686 81.7689 142.758 81.8105 142.652 81.757C142.459 81.6617 142.262 81.5761 142.059 81.5043C141.95 81.4661 141.84 81.4322 141.729 81.4016C141.728 81.4016 141.726 81.4003 141.723 81.4C141.721 81.3999 141.72 81.3987 141.719 81.3997C141.718 81.3985 141.716 81.3983 141.714 81.3981C141.672 81.3912 141.598 81.3782 141.584 81.377C140.006 81.236 138.423 81.3143 136.862 81.5764C136.016 81.7191 135.168 81.9071 134.359 82.196C133.948 82.3437 133.544 82.5121 133.154 82.7084C132.979 82.7965 132.811 82.9064 132.629 82.9805C132.356 83.0926 132.101 83.0562 131.818 83.0441C131.385 83.0248 131.119 82.547 131.258 82.1596C131.428 81.6873 131.655 81.4194 132.095 81.1675C132.446 80.9669 132.815 80.7946 133.189 80.6414C134.004 80.3062 134.857 80.0501 135.716 79.8541C137.322 79.4883 138.995 79.3222 140.642 79.3503C141.841 79.3711 142.861 79.6195 143.903 80.2159C145.004 80.8461 145.963 81.7282 146.843 82.6335C148.813 84.6596 150.473 87.0551 151.843 89.5234C153.131 91.8437 154.071 94.3305 153.461 97.0216C153.217 98.1011 152.692 99.0034 151.884 99.7572Z" fill="#1B1B1B"/>
<path fill-rule="evenodd" clip-rule="evenodd" d="M147.943 87.507C147.548 87.5998 147.158 87.7138 146.766 87.8223C144.743 88.63 142.386 88.6058 140.422 87.611C139.459 87.1227 138.59 86.3195 137.629 85.7595C137.399 85.6503 137.166 85.5491 136.929 85.4607C136.776 85.4997 136.623 85.542 136.47 85.5844C135.374 85.8937 134.332 86.3019 133.315 86.762C133.199 86.8988 133.08 87.0313 132.953 87.1574C133.646 87.3172 134.319 87.5418 134.927 87.7661C136.791 88.453 138.518 89.4597 140.374 90.1692C142.102 90.8311 144.001 91.2746 145.835 90.7941C146.705 90.5659 147.494 90.1032 148.346 89.8191C148.786 89.6728 149.312 89.537 149.811 89.5532C149.556 88.7581 149.212 88.0064 148.71 87.362C148.452 87.3943 148.194 87.4487 147.943 87.507ZM151.559 93.8734C151.401 93.7176 150.739 93.2015 150.534 92.9101C150.473 92.9274 150.413 92.9453 150.353 92.9639C150.242 93.0782 150.09 93.1195 149.94 93.1033C148.849 93.5014 147.855 94.111 146.948 94.9043C146.303 95.4669 145.641 96.0568 144.818 96.3446C143.85 96.6853 142.949 96.4128 141.974 96.2648C140.937 96.106 139.882 96.3139 138.853 96.0825C138.099 95.9125 137.414 95.5286 136.836 95.0209C135.657 93.9845 134.901 92.6062 133.933 91.3906C132.836 90.0118 131.421 89.0695 129.806 88.5117C129.785 88.5232 129.763 88.5346 129.741 88.5449C128.43 89.5418 127.224 90.6908 126.138 91.9322C125.078 93.1448 122.075 98.7546 121.427 99.2137C121.157 99.4047 120.874 99.4725 120.612 99.4422C120.136 99.3903 119.724 99.021 119.571 98.4821C119.313 97.5658 119.579 96.4326 119.685 95.5065C119.815 94.3729 119.987 93.2439 120.203 92.1231C120.417 91.0155 120.669 89.9144 120.959 88.8244C121.105 88.2733 121.262 87.7244 121.43 87.1785C121.482 87.0066 121.543 86.8543 121.613 86.7139C121.694 86.4447 121.781 86.1769 121.871 85.9118C122.462 84.1753 123.305 82.4583 124.738 81.2621C126.23 80.0156 128.175 79.2695 129.979 78.6077C131.697 77.9775 133.487 77.4399 135.31 77.0548C136.912 76.4879 138.612 76.0768 140.295 75.9283C142.149 75.7645 144.07 75.9093 145.778 76.6949C146.618 77.0809 147.4 77.5861 148.097 78.1917C149.104 78.8294 149.988 79.6629 150.679 80.7251C151.916 82.6285 152.394 84.8506 152.493 87.1081C152.519 87.6859 152.61 89.9 152.603 90.2429C152.579 91.3501 152.556 92.4574 152.532 93.5647C152.521 94.0872 151.871 94.1809 151.559 93.8734Z" fill="#1B1B1B"/>
<path fill-rule="evenodd" clip-rule="evenodd" d="M134.546 90.6808C135.033 91.9058 137.993 92.4854 143.426 92.4196L144.589 86.8774C142.061 85.8188 140.016 85.3106 138.453 85.353C136.11 85.4165 133.816 88.8432 134.546 90.6808Z" fill="white"/>
<path fill-rule="evenodd" clip-rule="evenodd" d="M135.368 87.7877C135.038 88.3611 140.676 90.4855 142.56 89.5259C143.817 88.8862 144.302 88.0443 144.016 87.0002C139.098 85.4258 136.215 85.6883 135.368 87.7877Z" fill="#B4B4B4"/>
<path fill-rule="evenodd" clip-rule="evenodd" d="M133.957 91.6803C135.171 93.3631 137.433 93.6671 139.348 93.4366C140.577 93.2887 141.789 92.9706 143.028 92.9205C143.607 92.8971 144.188 92.9251 144.764 92.9852C145.33 93.0443 145.888 93.2072 146.454 93.2344C146.541 93.2386 146.584 93.1275 146.513 93.0746C145.779 92.5323 144.748 92.2902 143.841 92.1186C143.85 92.0511 143.86 91.9854 143.874 91.9302C143.912 91.7829 143.947 91.6364 143.978 91.4875C144.049 91.1518 144.124 90.8176 144.2 90.4829C144.348 89.8243 144.436 89.1393 144.653 88.4981L144.69 88.3917C144.739 88.2572 144.759 88.1339 144.756 88.0209L144.792 88.0409L144.904 88.108L144.978 88.151C145.248 88.3055 145.508 88.4235 145.842 88.4201C146.096 88.4177 146.322 88.2642 146.346 87.9955C146.456 86.7896 144.863 86.2622 143.953 85.9515L143.686 85.8609C142.527 85.4706 141.34 85.1138 140.128 84.9488C138.183 84.6842 135.941 85.0348 134.527 86.51C133.207 87.8864 132.799 90.0758 133.957 91.6803ZM143.265 87.3726C142.904 89.1714 140.663 89.0798 140.12 87.8728C139.697 89.4539 135.608 87.6256 135.965 87.3347C137.318 86.232 139.223 86.2858 140.834 86.6493C141.654 86.8345 142.469 87.0913 143.265 87.3726ZM140.379 91.9208L139.811 91.9534L139.587 91.9649C138.18 92.0319 136.608 91.9939 135.54 91.0039C135.151 90.6425 134.952 90.1977 134.903 89.734C135.972 89.9873 137.048 90.2028 138.128 90.3982L138.423 90.451C139.1 90.5709 139.775 90.6941 140.451 90.8205L140.93 90.911L141.41 91.0027C141.579 91.0352 142.721 91.1923 142.94 91.1714C142.946 91.3672 142.941 91.7892 142.973 91.982C142.16 91.8844 141.343 91.8754 140.524 91.9136L140.379 91.9208ZM142.266 100.261C143.141 99.8268 144.509 98.7568 143.722 97.4269C142.764 96.2316 141.139 97.3685 140.343 97.8773C139.612 98.262 138.931 97.0531 139.619 96.5897C145.36 93.0558 146.926 100.528 142.636 100.891C142.163 100.931 142.035 100.399 142.266 100.261ZM143.937 98.2591L143.975 98.2843L143.988 98.2936C144.01 98.3107 143.995 98.3078 143.943 98.2849L143.905 98.2671L143.907 98.2389C143.917 98.2461 143.927 98.2518 143.937 98.2591ZM132.901 101.836L132.899 101.861C132.84 102.564 133.112 104.202 134.123 104.289C134.754 104.343 135.231 103.285 135.394 102.165L135.4 102.12C135.49 101.423 135.429 99.8778 134.508 99.7988C133.577 99.719 132.972 101.126 132.901 101.836ZM147.766 103.333L147.764 103.358C147.703 104.06 147.156 105.629 146.145 105.542C145.529 105.489 145.238 104.419 145.252 103.318L145.254 103.233C145.272 102.554 145.588 100.971 146.53 101.052C147.461 101.132 147.818 102.621 147.766 103.333ZM132.867 109.004C133.682 109.201 134.795 109.056 135.251 108.25C135.455 107.891 135.287 107.46 134.857 107.402C133.817 107.263 132.861 107.415 132.003 106.657C131.633 106.331 131.336 105.898 131.093 105.471L131.001 105.308L130.924 105.174C130.759 104.88 130.606 104.563 130.663 104.23C130.68 104.132 130.586 104.029 130.49 104.025C129.887 103.998 129.758 104.745 129.798 105.204C129.873 106.056 130.211 106.879 130.72 107.562C131.254 108.279 131.996 108.794 132.867 109.004ZM144.319 108.96C144.856 109.375 145.572 109.578 146.243 109.581C147.566 109.588 149.866 108.66 149.714 107.03C149.667 106.527 149.001 106.207 148.572 106.447C148.11 106.705 147.964 107.155 147.607 107.513C147.321 107.799 146.974 107.993 146.606 108.153C146.244 108.311 145.833 108.39 145.436 108.398L145.37 108.398C145.132 108.398 143.937 108.29 144.151 107.859C144.193 107.775 144.069 107.695 144.003 107.756C143.602 108.129 143.972 108.693 144.319 108.96Z" fill="#1B1B1B"/>
<path fill-rule="evenodd" clip-rule="evenodd" d="M147.619 108.97C150.204 109.192 151.727 108.762 152.271 108.765L152.288 108.766C152.514 108.771 152.717 108.769 152.936 108.705C153.739 108.472 153.936 107.667 153.526 107.114C153.586 106.047 153.832 104.816 153.684 103.727C153.773 99.201 151.722 98.2599 150.543 97.8794C149.95 97.6884 149.239 97.5716 148.585 97.6635C147.487 97.6104 146.375 97.8603 145.398 98.3775C144.037 99.0986 142.97 100.295 142.529 101.785C142.32 102.496 142.186 103.242 142.203 103.984L142.207 104.087C141.77 104.251 141.281 104.247 140.779 104.222C140.539 104.21 140.303 104.198 140.075 104.168C139.853 104.124 139.635 104.071 139.417 104.007C139.181 103.913 138.962 103.773 138.767 103.564L138.777 103.283C138.797 102.583 138.765 101.877 138.683 101.181C138.561 100.155 138.309 99.1629 137.657 98.3864C137.446 98.0052 137.175 97.6578 136.837 97.348C135.607 96.2209 133.849 95.6951 132.195 95.6944C128.836 95.6929 126.682 98.1745 126.14 99.2677L126.108 99.334C125.715 100.148 125.366 101.217 124.336 101.311L124.117 101.331C123.647 101.378 123.21 101.462 122.9 101.89C122.764 102.077 122.684 102.292 122.65 102.516C122.493 102.49 122.336 102.465 122.179 102.44C120.946 102.067 113.429 101.195 112.828 101.143C112.828 101.143 111.713 100.558 111.193 100.893C110.832 101.126 110.691 101.466 110.843 101.878C111.073 102.497 112.339 102.967 112.905 103.13C112.905 103.13 122.202 103.849 122.86 104.034C123.237 104.496 123.982 104.501 124.595 104.621C125.075 105.03 125.771 105.336 126.322 105.548C126.434 105.602 126.544 105.654 126.652 105.703C127.657 106.162 128.718 106.45 129.804 106.649C130.923 106.853 132.059 106.901 133.194 106.844C133.673 106.82 134.148 106.777 134.623 106.709C135.465 106.671 136.308 106.561 137.16 106.418L137.33 106.389C138.227 106.234 139.146 106.112 140.041 106.346C140.769 106.536 141.456 106.881 142.111 107.247L142.196 107.295C143.636 108.108 145.933 108.825 147.619 108.97ZM134.65 105.337C134.086 105.411 133.923 104.538 134.488 104.464C134.889 104.411 135.239 104.241 135.492 103.925L135.519 103.891C135.862 103.436 136.587 103.945 136.242 104.402C135.853 104.917 135.289 105.253 134.65 105.337ZM150.802 107.255C150.595 107.375 150.309 107.248 150.213 107.044C150.106 106.82 150.208 106.589 150.403 106.465L150.423 106.453C150.6 106.349 150.782 106.152 150.821 105.937L150.825 105.91C150.895 105.344 151.777 105.417 151.706 105.985C151.637 106.541 151.274 106.98 150.802 107.255Z" fill="#1B1B1B"/>
<g filter="url(#filter2_d_116_6924)">
<path d="M96.8553 175.52C94.0261 178.178 91.7524 180.844 86.1113 188.311C85.5927 206.275 86.6899 215.669 93.6151 230H327.595C333.369 224.363 336.428 220.079 335.951 175.52L319.75 139.516C313.747 128.557 310.272 123.515 302.185 133.831L289.735 150.412C279.733 165.134 273.419 160.151 262.108 150.412C255.903 141.969 252.432 142.268 246.248 155.623C240.639 168.96 237.407 176.011 231.581 188.311C222.549 200.902 217.096 200.084 206.853 188.311C193.04 165 186.02 149.46 174.621 117.724C168.362 105.757 163.7 106.431 153.815 117.724C145.225 133.241 140.538 142.339 133.521 162.729C127.48 178.7 122.665 181.009 112.033 175.52C106.998 166.788 103.824 165.303 96.8553 175.52Z" fill="#A39815"/>
</g>
<g filter="url(#filter3_d_116_6924)">
<path d="M325.152 179.525C327.979 181.744 330.251 183.969 335.889 190.202C336.407 205.196 335.311 213.038 328.39 225H94.5608C88.7902 220.295 79.541 217.694 80.0177 180.5L102.401 149.472C108.4 140.325 111.872 136.116 119.955 144.727L132.396 158.567C142.392 170.856 148.702 166.696 160.006 158.567C166.207 151.52 169.676 151.769 175.856 162.917C181.46 174.049 184.69 179.935 190.513 190.202C199.539 200.712 204.989 200.028 215.225 190.202C229.029 170.744 236.044 157.773 247.436 131.282C253.691 121.293 258.35 121.856 268.228 131.282C276.813 144.234 281.497 151.829 288.509 168.848C294.546 182.179 299.359 184.107 309.983 179.525C315.015 172.237 318.188 170.997 325.152 179.525Z" fill="#D0C012"/>
</g>
<g filter="url(#filter4_d_116_6924)">
<path d="M134.058 165.458C110.752 192.109 97.4997 204.651 71.5302 196.947C70.9314 201.874 70.7228 204.536 71.5302 208.356C71.5302 227.5 70.3302 228.983 74.384 233H353C353 225.5 351.671 221.38 353 208.356L308.365 179.605C296.512 170.751 289.695 172.026 277.39 179.605C262.136 190.881 253.329 199.139 237.372 215.658C223.997 221.38 216.501 219.937 203.126 215.658C182.672 207.254 171.292 199.272 151.373 170.934C145.656 162.532 142.776 156.455 134.058 165.458Z" fill="#FCE90F"/>
</g>
</g>
</g>
<defs>
<filter id="filter0_dddddd_116_6924" x="0" y="0.147609" width="416" height="409.852" filterUnits="userSpaceOnUse" color-interpolation-filters="sRGB">
<feFlood flood-opacity="0" result="BackgroundImageFix"/>
<feColorMatrix in="SourceAlpha" type="matrix" values="0 0 0 0 0 0 0 0 0 0 0 0 0 0 0 0 0 0 127 0" result="hardAlpha"/>
<feOffset dy="0.559259"/>
<feGaussianBlur stdDeviation="1.1069"/>
<feColorMatrix type="matrix" values="0 0 0 0 0 0 0 0 0 0 0 0 0 0 0 0 0 0 0.0468848 0"/>
<feBlend mode="normal" in2="BackgroundImageFix" result="effect1_dropShadow_116_6924"/>
<feColorMatrix in="SourceAlpha" type="matrix" values="0 0 0 0 0 0 0 0 0 0 0 0 0 0 0 0 0 0 127 0" result="hardAlpha"/>
<feOffset dy="2.62385"/>
<feGaussianBlur stdDeviation="2.66004"/>
<feColorMatrix type="matrix" values="0 0 0 0 0 0 0 0 0 0 0 0 0 0 0 0 0 0 0.0647322 0"/>
<feBlend mode="normal" in2="effect1_dropShadow_116_6924" result="effect2_dropShadow_116_6924"/>
<feColorMatrix in="SourceAlpha" type="matrix" values="0 0 0 0 0 0 0 0 0 0 0 0 0 0 0 0 0 0 127 0" result="hardAlpha"/>
<feOffset dy="7.16485"/>
<feGaussianBlur stdDeviation="5.00862"/>
<feColorMatrix type="matrix" values="0 0 0 0 0 0 0 0 0 0 0 0 0 0 0 0 0 0 0.0786233 0"/>
<feBlend mode="normal" in2="effect2_dropShadow_116_6924" result="effect3_dropShadow_116_6924"/>
<feColorMatrix in="SourceAlpha" type="matrix" values="0 0 0 0 0 0 0 0 0 0 0 0 0 0 0 0 0 0 127 0" result="hardAlpha"/>
<feOffset dy="16.347"/>
<feGaussianBlur stdDeviation="8.93452"/>
<feColorMatrix type="matrix" values="0 0 0 0 0 0 0 0 0 0 0 0 0 0 0 0 0 0 0.0940847 0"/>
<feBlend mode="normal" in2="effect3_dropShadow_116_6924" result="effect4_dropShadow_116_6924"/>
<feColorMatrix in="SourceAlpha" type="matrix" values="0 0 0 0 0 0 0 0 0 0 0 0 0 0 0 0 0 0 127 0" result="hardAlpha"/>
<feOffset dy="36.5967"/>
<feGaussianBlur stdDeviation="16.711"/>
<feColorMatrix type="matrix" values="0 0 0 0 0 0 0 0 0 0 0 0 0 0 0 0 0 0 0.1174 0"/>
<feBlend mode="normal" in2="effect4_dropShadow_116_6924" result="effect5_dropShadow_116_6924"/>
<feColorMatrix in="SourceAlpha" type="matrix" values="0 0 0 0 0 0 0 0 0 0 0 0 0 0 0 0 0 0 127 0" result="hardAlpha"/>
<feOffset dy="100"/>
<feGaussianBlur stdDeviation="40"/>
<feColorMatrix type="matrix" values="0 0 0 0 0 0 0 0 0 0 0 0 0 0 0 0 0 0 0.18 0"/>
<feBlend mode="normal" in2="effect5_dropShadow_116_6924" result="effect6_dropShadow_116_6924"/>
<feBlend mode="normal" in="SourceGraphic" in2="effect6_dropShadow_116_6924" result="shape"/>
</filter>
<filter id="filter1_d_116_6924" x="80" y="40" width="299" height="211" filterUnits="userSpaceOnUse" color-interpolation-filters="sRGB">
<feFlood flood-opacity="0" result="BackgroundImageFix"/>
<feColorMatrix in="SourceAlpha" type="matrix" values="0 0 0 0 0 0 0 0 0 0 0 0 0 0 0 0 0 0 127 0" result="hardAlpha"/>
<feOffset dx="22"/>
<feGaussianBlur stdDeviation="10.5"/>
<feComposite in2="hardAlpha" operator="out"/>
<feColorMatrix type="matrix" values="0 0 0 0 0 0 0 0 0 0 0 0 0 0 0 0 0 0 0.25 0"/>
<feBlend mode="normal" in2="BackgroundImageFix" result="effect1_dropShadow_116_6924"/>
<feBlend mode="normal" in="SourceGraphic" in2="effect1_dropShadow_116_6924" result="shape"/>
</filter>
<filter id="filter2_d_116_6924" x="86" y="88" width="293" height="163" filterUnits="userSpaceOnUse" color-interpolation-filters="sRGB">
<feFlood flood-opacity="0" result="BackgroundImageFix"/>
<feColorMatrix in="SourceAlpha" type="matrix" values="0 0 0 0 0 0 0 0 0 0 0 0 0 0 0 0 0 0 127 0" result="hardAlpha"/>
<feOffset dx="22"/>
<feGaussianBlur stdDeviation="10.5"/>
<feComposite in2="hardAlpha" operator="out"/>
<feColorMatrix type="matrix" values="0 0 0 0 0 0 0 0 0 0 0 0 0 0 0 0 0 0 0.25 0"/>
<feBlend mode="normal" in2="BackgroundImageFix" result="effect1_dropShadow_116_6924"/>
<feBlend mode="normal" in="SourceGraphic" in2="effect1_dropShadow_116_6924" result="shape"/>
</filter>
<filter id="filter3_d_116_6924" x="80" y="103" width="299" height="143" filterUnits="userSpaceOnUse" color-interpolation-filters="sRGB">
<feFlood flood-opacity="0" result="BackgroundImageFix"/>
<feColorMatrix in="SourceAlpha" type="matrix" values="0 0 0 0 0 0 0 0 0 0 0 0 0 0 0 0 0 0 127 0" result="hardAlpha"/>
<feOffset dx="22"/>
<feGaussianBlur stdDeviation="10.5"/>
<feComposite in2="hardAlpha" operator="out"/>
<feColorMatrix type="matrix" values="0 0 0 0 0 0 0 0 0 0 0 0 0 0 0 0 0 0 0.25 0"/>
<feBlend mode="normal" in2="BackgroundImageFix" result="effect1_dropShadow_116_6924"/>
<feBlend mode="normal" in="SourceGraphic" in2="effect1_dropShadow_116_6924" result="shape"/>
</filter>
<filter id="filter4_d_116_6924" x="71" y="140" width="325" height="114" filterUnits="userSpaceOnUse" color-interpolation-filters="sRGB">
<feFlood flood-opacity="0" result="BackgroundImageFix"/>
<feColorMatrix in="SourceAlpha" type="matrix" values="0 0 0 0 0 0 0 0 0 0 0 0 0 0 0 0 0 0 127 0" result="hardAlpha"/>
<feOffset dx="22"/>
<feGaussianBlur stdDeviation="10.5"/>
<feComposite in2="hardAlpha" operator="out"/>
<feColorMatrix type="matrix" values="0 0 0 0 0 0 0 0 0 0 0 0 0 0 0 0 0 0 0.25 0"/>
<feBlend mode="normal" in2="BackgroundImageFix" result="effect1_dropShadow_116_6924"/>
<feBlend mode="normal" in="SourceGraphic" in2="effect1_dropShadow_116_6924" result="shape"/>
</filter>
<linearGradient id="paint0_linear_116_6924" x1="119.221" y1="3" x2="363.04" y2="133.815" gradientUnits="userSpaceOnUse">
<stop stop-color="#837A00"/>
<stop offset="1" stop-color="#AD9F00"/>
<stop offset="1" stop-color="#FCE90F"/>
</linearGradient>
<clipPath id="clip0_116_6924">
<path d="M80 67C80 31.6538 108.654 3 144 3H272C307.346 3 336 31.6538 336 67V230H80V67Z" fill="white"/>
</clipPath>
</defs>
</svg>
