<svg width="25" height="25" viewBox="0 0 25 25" fill="none" xmlns="http://www.w3.org/2000/svg">
<path d="M20.9856 4.01442C18.8135 1.84234 15.8138 0.5 12.5 0.5C9.18621 0.5 6.18647 1.84339 4.01439 4.01442C1.84232 6.1865 0.5 9.18621 0.5 12.5C0.5 15.8138 1.84337 18.8146 4.01439 20.9856C6.18647 23.1577 9.18621 24.5 12.5 24.5C15.8138 24.5 18.8135 23.1566 20.9856 20.9856C23.1577 18.8135 24.5 15.8138 24.5 12.5C24.5 9.18621 23.1566 6.1865 20.9856 4.01442ZM1.25623 12.875H3.95557C4.00073 14.9315 4.41352 16.8578 5.10358 18.5278H2.99872C1.95365 16.8841 1.32345 14.9504 1.25518 12.875H1.25623ZM16.5059 12.1251C16.486 10.0654 16.299 8.138 15.9881 6.47218H19.0824C19.8092 8.11699 20.2472 10.0486 20.2945 12.1251H16.5059ZM9.24398 12.1251C9.26499 10.0528 9.45614 8.12119 9.77439 6.47218H15.2256C15.5438 8.12224 15.735 10.0528 15.756 12.1251H9.24398ZM15.756 12.875C15.735 14.9473 15.5438 16.8788 15.2256 18.5278H9.77439C9.45614 16.8778 9.26499 14.9473 9.24398 12.875H15.756ZM15.8358 5.72225C15.714 5.16768 15.5764 4.64776 15.4273 4.16881C15.0775 3.04916 14.649 2.14062 14.1616 1.50833C15.6279 1.96942 16.9429 3.02709 17.9754 4.49545C18.2442 4.87777 18.4942 5.28847 18.7221 5.72225H15.8369H15.8358ZM14.712 4.39147C14.8412 4.80425 14.9599 5.24961 15.068 5.72225H9.93299C10.0412 5.24961 10.1599 4.80425 10.2891 4.39147C10.8951 2.45046 11.6807 1.24995 12.5011 1.24995C13.3214 1.24995 14.1059 2.45046 14.712 4.39147ZM9.57377 4.16881C9.42358 4.64776 9.28705 5.16768 9.16521 5.72225H6.27995C6.50787 5.28742 6.75784 4.87777 7.02673 4.49545C8.0592 3.02709 9.37422 1.96942 10.8405 1.50833C10.3531 2.14062 9.92458 3.04916 9.57483 4.16881H9.57377ZM9.0129 6.47218C8.70095 8.138 8.51505 10.0664 8.4951 12.1251H4.70656C4.75382 10.0486 5.19181 8.11699 5.91864 6.47218H9.0129ZM3.95557 12.1251H1.25623C1.3245 10.0496 1.9547 8.11594 2.99977 6.47218H5.10464C4.41352 8.1422 4.00073 10.0696 3.95662 12.1251H3.95557ZM4.70551 12.875H8.49405C8.514 14.9347 8.70095 16.862 9.01185 18.5278H5.91759C5.19076 16.883 4.75277 14.9515 4.70551 12.875ZM9.16416 19.2778C9.28704 19.8323 9.42359 20.3523 9.57274 20.8312C9.92249 21.9509 10.351 22.8594 10.8384 23.4917C9.37212 23.0306 8.05711 21.9729 7.02464 20.5046C6.75575 20.1223 6.50578 19.7116 6.27786 19.2778H9.16311H9.16416ZM10.288 20.6086C10.1588 20.1958 10.0401 19.7504 9.93194 19.2778H15.067C14.9588 19.7504 14.8401 20.1958 14.7109 20.6086C14.1049 22.5496 13.3193 23.7501 12.5 23.7501C11.6807 23.7501 10.8951 22.5496 10.288 20.6086ZM15.4262 20.8312C15.5764 20.3523 15.713 19.8323 15.8348 19.2778H18.72C18.4921 19.7126 18.2421 20.1223 17.9733 20.5046C16.9408 21.9729 15.6258 23.0306 14.1595 23.4917C14.6469 22.8594 15.0754 21.9509 15.4252 20.8312H15.4262ZM15.9871 18.5278C16.299 16.862 16.4849 14.9336 16.5049 12.875H20.2934C20.2462 14.9515 19.8082 16.883 19.0813 18.5278H15.9871ZM21.0444 12.875H23.7438C23.6755 14.9504 23.0453 16.8841 22.0002 18.5278H19.8954C20.5865 16.8578 20.9993 14.9305 21.0434 12.875H21.0444ZM21.0444 12.1251C20.9993 10.0685 20.5865 8.1422 19.8964 6.47218H22.0013C23.0463 8.11594 23.6765 10.0496 23.7448 12.1251H21.0455H21.0444ZM20.4552 4.54482C20.8228 4.91243 21.1652 5.30632 21.4793 5.72225H19.5582C19.2694 5.12882 18.9438 4.57424 18.5856 4.06483C18.0436 3.29389 17.426 2.62587 16.7517 2.0818C18.1476 2.65318 19.4049 3.49554 20.4541 4.54482H20.4552ZM4.54482 4.54482C5.59409 3.49554 6.85134 2.65213 8.24722 2.0818C7.57291 2.62482 6.95636 3.29284 6.41334 4.06483C6.05518 4.57424 5.72958 5.12882 5.44074 5.72225H3.51969C3.83374 5.30632 4.17615 4.91348 4.54376 4.54482H4.54482ZM4.54482 20.4552C4.1772 20.0876 3.83479 19.6937 3.52075 19.2778H5.44179C5.73063 19.8712 6.05623 20.4258 6.41439 20.9352C6.95636 21.7061 7.57395 22.3742 8.24826 22.9172C6.85132 22.3468 5.59513 21.5045 4.54585 20.4542L4.54482 20.4552ZM20.4552 20.4552C19.4059 21.5045 18.1487 22.3468 16.7528 22.9182C17.4271 22.3752 18.0436 21.7072 18.5866 20.9362C18.9448 20.4268 19.2704 19.8723 19.5593 19.2788H21.4803C21.1663 19.6948 20.8239 20.0876 20.4562 20.4562L20.4552 20.4552Z" fill="#B5B5B5"/>
</svg>
