<svg width="24" height="24" viewBox="0 0 24 24" fill="none" xmlns="http://www.w3.org/2000/svg">
<path d="M20.4856 3.51442C18.3135 1.34234 15.3138 0 12 0C8.68621 0 5.68647 1.34339 3.51439 3.51442C1.34232 5.6865 0 8.68621 0 12C0 15.3138 1.34337 18.3146 3.51439 20.4856C5.68647 22.6577 8.68621 24 12 24C15.3138 24 18.3135 22.6566 20.4856 20.4856C22.6577 18.3135 24 15.3138 24 12C24 8.68621 22.6566 5.6865 20.4856 3.51442ZM0.756231 12.375H3.45557C3.50073 14.4315 3.91352 16.3578 4.60358 18.0278H2.49872C1.45365 16.3841 0.823451 14.4504 0.75518 12.375H0.756231ZM16.0059 11.6251C15.986 9.56536 15.799 7.638 15.4881 5.97218H18.5824C19.3092 7.61699 19.7472 9.54855 19.7945 11.6251H16.0059ZM8.74398 11.6251C8.76499 9.55275 8.95614 7.62119 9.27439 5.97218H14.7256C15.0438 7.62224 15.235 9.55275 15.256 11.6251H8.74398ZM15.256 12.375C15.235 14.4473 15.0438 16.3788 14.7256 18.0278H9.27439C8.95614 16.3778 8.76499 14.4473 8.74398 12.375H15.256ZM15.3358 5.22225C15.214 4.66768 15.0764 4.14776 14.9273 3.66881C14.5775 2.54916 14.149 1.64062 13.6616 1.00833C15.1279 1.46942 16.4429 2.52709 17.4754 3.99545C17.7442 4.37777 17.9942 4.78847 18.2221 5.22225H15.3369H15.3358ZM14.212 3.89147C14.3412 4.30425 14.4599 4.74961 14.568 5.22225H9.43299C9.54117 4.74961 9.65986 4.30425 9.78905 3.89147C10.3951 1.95046 11.1807 0.749949 12.0011 0.749949C12.8214 0.749949 13.6059 1.95046 14.212 3.89147ZM9.07377 3.66881C8.92358 4.14776 8.78705 4.66768 8.66521 5.22225H5.77995C6.00787 4.78742 6.25784 4.37777 6.52673 3.99545C7.5592 2.52709 8.87422 1.46942 10.3405 1.00833C9.85312 1.64062 9.42458 2.54916 9.07483 3.66881H9.07377ZM8.5129 5.97218C8.20095 7.638 8.01505 9.56641 7.9951 11.6251H4.20656C4.25382 9.54855 4.69181 7.61699 5.41864 5.97218H8.5129ZM3.45557 11.6251H0.756231C0.824503 9.5496 1.4547 7.61594 2.49977 5.97218H4.60464C3.91352 7.6422 3.50073 9.56956 3.45662 11.6251H3.45557ZM4.20551 12.375H7.99405C8.014 14.4347 8.20095 16.362 8.51185 18.0278H5.41759C4.69076 16.383 4.25277 14.4515 4.20551 12.375ZM8.66416 18.7778C8.78704 19.3323 8.92359 19.8523 9.07274 20.3312C9.42249 21.4509 9.85102 22.3594 10.3384 22.9917C8.87212 22.5306 7.55711 21.4729 6.52464 20.0046C6.25575 19.6223 6.00578 19.2116 5.77786 18.7778H8.66311H8.66416ZM9.788 20.1086C9.65881 19.6958 9.54012 19.2504 9.43194 18.7778H14.567C14.4588 19.2504 14.3401 19.6958 14.2109 20.1086C13.6049 22.0496 12.8193 23.2501 12 23.2501C11.1807 23.2501 10.3951 22.0496 9.788 20.1086ZM14.9262 20.3312C15.0764 19.8523 15.213 19.3323 15.3348 18.7778H18.22C17.9921 19.2126 17.7421 19.6223 17.4733 20.0046C16.4408 21.4729 15.1258 22.5306 13.6595 22.9917C14.1469 22.3594 14.5754 21.4509 14.9252 20.3312H14.9262ZM15.4871 18.0278C15.799 16.362 15.9849 14.4336 16.0049 12.375H19.7934C19.7462 14.4515 19.3082 16.383 18.5813 18.0278H15.4871ZM20.5444 12.375H23.2438C23.1755 14.4504 22.5453 16.3841 21.5002 18.0278H19.3954C20.0865 16.3578 20.4993 14.4305 20.5434 12.375H20.5444ZM20.5444 11.6251C20.4993 9.56851 20.0865 7.6422 19.3964 5.97218H21.5013C22.5463 7.61594 23.1765 9.5496 23.2448 11.6251H20.5455H20.5444ZM19.9552 4.04482C20.3228 4.41243 20.6652 4.80632 20.9793 5.22225H19.0582C18.7694 4.62882 18.4438 4.07424 18.0856 3.56483C17.5436 2.79389 16.926 2.12587 16.2517 1.5818C17.6476 2.15318 18.9049 2.99554 19.9541 4.04482H19.9552ZM4.04482 4.04482C5.09409 2.99554 6.35134 2.15213 7.74722 1.5818C7.07291 2.12482 6.45636 2.79284 5.91334 3.56483C5.55518 4.07424 5.22958 4.62882 4.94074 5.22225H3.01969C3.33374 4.80632 3.67615 4.41348 4.04376 4.04482H4.04482ZM4.04482 19.9552C3.6772 19.5876 3.33479 19.1937 3.02075 18.7778H4.94179C5.23063 19.3712 5.55623 19.9258 5.91439 20.4352C6.45636 21.2061 7.07395 21.8742 7.74826 22.4172C6.35132 21.8468 5.09513 21.0045 4.04585 19.9542L4.04482 19.9552ZM19.9552 19.9552C18.9059 21.0045 17.6487 21.8468 16.2528 22.4182C16.9271 21.8752 17.5436 21.2072 18.0866 20.4362C18.4448 19.9268 18.7704 19.3723 19.0593 18.7788H20.9803C20.6663 19.1948 20.3239 19.5876 19.9562 19.9562L19.9552 19.9552Z" fill="white"/>
</svg>
