<svg width="32" height="33" viewBox="0 0 32 33" fill="none" xmlns="http://www.w3.org/2000/svg">
<path d="M15.9993 12.5C14.9385 12.5 13.9211 12.9214 13.1709 13.6715C12.4208 14.4217 11.9993 15.4391 11.9993 16.5C11.9993 17.5608 12.4208 18.5782 13.1709 19.3284C13.9211 20.0785 14.9385 20.5 15.9993 20.5C17.0602 20.5 18.0776 20.0785 18.8278 19.3284C19.5779 18.5782 19.9993 17.5608 19.9993 16.5C19.9993 15.4391 19.5779 14.4217 18.8278 13.6715C18.0776 12.9214 17.0602 12.5 15.9993 12.5ZM15.9993 9.83329C17.7675 9.83329 19.4632 10.5357 20.7134 11.7859C21.9636 13.0362 22.666 14.7318 22.666 16.5C22.666 18.2681 21.9636 19.9638 20.7134 21.214C19.4632 22.4642 17.7675 23.1666 15.9993 23.1666C14.2312 23.1666 12.5355 22.4642 11.2853 21.214C10.0351 19.9638 9.33268 18.2681 9.33268 16.5C9.33268 14.7318 10.0351 13.0362 11.2853 11.7859C12.5355 10.5357 14.2312 9.83329 15.9993 9.83329ZM24.666 9.49996C24.666 9.94199 24.4904 10.3659 24.1779 10.6785C23.8653 10.991 23.4414 11.1666 22.9993 11.1666C22.5573 11.1666 22.1334 10.991 21.8208 10.6785C21.5083 10.3659 21.3327 9.94199 21.3327 9.49996C21.3327 9.05793 21.5083 8.63401 21.8208 8.32145C22.1334 8.00889 22.5573 7.83329 22.9993 7.83329C23.4414 7.83329 23.8653 8.00889 24.1779 8.32145C24.4904 8.63401 24.666 9.05793 24.666 9.49996ZM15.9993 5.83329C12.7007 5.83329 12.162 5.84263 10.6273 5.91063C9.58202 5.95996 8.88068 6.09996 8.23002 6.35329C7.6855 6.55321 7.19323 6.87364 6.79002 7.29063C6.37269 7.69382 6.05182 8.18607 5.85135 8.73063C5.59802 9.38396 5.45802 10.084 5.41002 11.128C5.34068 12.6 5.33268 13.1146 5.33268 16.5C5.33268 19.7986 5.34202 20.3373 5.41002 21.872C5.45935 22.916 5.59935 23.6186 5.85135 24.268C6.07802 24.848 6.34468 25.2653 6.78735 25.708C7.23668 26.156 7.65402 26.424 8.22735 26.6453C8.88602 26.9 9.58735 27.0413 10.6273 27.0893C12.0993 27.1586 12.614 27.1666 15.9993 27.1666C19.298 27.1666 19.8367 27.1573 21.3713 27.0893C22.414 27.04 23.1167 26.9 23.7673 26.648C24.311 26.447 24.803 26.1273 25.2073 25.712C25.6567 25.2626 25.9247 24.8453 26.146 24.272C26.3993 23.6146 26.5407 22.912 26.5887 21.872C26.658 20.4 26.666 19.8853 26.666 16.5C26.666 13.2013 26.6567 12.6626 26.5887 11.128C26.5393 10.0853 26.3993 9.38129 26.146 8.73063C25.9451 8.18663 25.6248 7.69457 25.2087 7.29063C24.8057 6.87309 24.3134 6.55218 23.7687 6.35196C23.1153 6.09863 22.414 5.95863 21.3713 5.91063C19.8993 5.84129 19.3847 5.83329 15.9993 5.83329ZM15.9993 3.16663C19.622 3.16663 20.074 3.17996 21.4953 3.24663C22.9153 3.31329 23.882 3.53596 24.7327 3.86663C25.6127 4.20529 26.354 4.66396 27.0953 5.40396C27.7733 6.07049 28.298 6.87674 28.6327 7.76663C28.962 8.61596 29.186 9.58396 29.2527 11.004C29.3153 12.4253 29.3327 12.8773 29.3327 16.5C29.3327 20.1226 29.3193 20.5746 29.2527 21.996C29.186 23.416 28.962 24.3826 28.6327 25.2333C28.2989 26.1237 27.7742 26.9301 27.0953 27.596C26.4286 28.2737 25.6224 28.7983 24.7327 29.1333C23.8833 29.4626 22.9153 29.6866 21.4953 29.7533C20.074 29.816 19.622 29.8333 15.9993 29.8333C12.3767 29.8333 11.9247 29.82 10.5033 29.7533C9.08335 29.6866 8.11668 29.4626 7.26602 29.1333C6.37578 28.7993 5.56939 28.2746 4.90335 27.596C4.22522 26.9295 3.70059 26.1232 3.36602 25.2333C3.03535 24.384 2.81268 23.416 2.74602 21.996C2.68335 20.5746 2.66602 20.1226 2.66602 16.5C2.66602 12.8773 2.67935 12.4253 2.74602 11.004C2.81268 9.58263 3.03535 8.61729 3.36602 7.76663C3.69966 6.8762 4.22442 6.06972 4.90335 5.40396C5.56958 4.7256 6.37592 4.20093 7.26602 3.86663C8.11668 3.53596 9.08202 3.31329 10.5033 3.24663C11.9247 3.18396 12.3767 3.16663 15.9993 3.16663Z" fill="#E7E7E7"/>
</svg>
