<svg width="32" height="33" viewBox="0 0 32 33" fill="none" xmlns="http://www.w3.org/2000/svg">
<path d="M25.3732 5.50015H6.62676C6.41603 5.49724 6.20679 5.53563 6.01099 5.6131C5.81518 5.69058 5.63665 5.80564 5.48559 5.95171C5.33453 6.09778 5.21389 6.272 5.13057 6.46441C5.04726 6.65683 5.00289 6.86367 5 7.07313V25.9269C5.00289 26.1363 5.04726 26.3432 5.13057 26.5356C5.21389 26.728 5.33453 26.9022 5.48559 27.0483C5.63665 27.1944 5.81518 27.3094 6.01099 27.3869C6.20679 27.4644 6.41603 27.5028 6.62676 27.4998H25.3732C25.584 27.5028 25.7932 27.4644 25.989 27.3869C26.1848 27.3094 26.3633 27.1944 26.5144 27.0483C26.6655 26.9022 26.7861 26.728 26.8694 26.5356C26.9527 26.3432 26.9971 26.1363 27 25.9269V7.07313C26.9971 6.86367 26.9527 6.65683 26.8694 6.46441C26.7861 6.272 26.6655 6.09778 26.5144 5.95171C26.3633 5.80564 26.1848 5.69058 25.989 5.6131C25.7932 5.53563 25.584 5.49724 25.3732 5.50015ZM11.673 23.9139H8.35312V14.014H11.673V23.9139ZM10.0131 12.6281C9.55522 12.6281 9.11611 12.4473 8.79236 12.1255C8.4686 11.8036 8.28672 11.3672 8.28672 10.9121C8.28672 10.457 8.4686 10.0205 8.79236 9.6987C9.11611 9.37689 9.55522 9.1961 10.0131 9.1961C10.2562 9.1687 10.5024 9.19264 10.7356 9.26637C10.9687 9.3401 11.1836 9.46196 11.3661 9.62395C11.5486 9.78595 11.6946 9.98444 11.7946 10.2064C11.8946 10.4284 11.9463 10.6689 11.9463 10.9121C11.9463 11.1553 11.8946 11.3958 11.7946 11.6177C11.6946 11.8397 11.5486 12.0382 11.3661 12.2002C11.1836 12.3622 10.9687 12.4841 10.7356 12.5578C10.5024 12.6315 10.2562 12.6555 10.0131 12.6281ZM23.6469 23.9139H20.327V18.601C20.327 17.27 19.8511 16.401 18.6449 16.401C18.2716 16.4037 17.9081 16.5201 17.6033 16.7345C17.2986 16.9489 17.0673 17.2509 16.9406 17.6C16.854 17.8585 16.8165 18.1308 16.83 18.403V23.9029H13.5101C13.5101 23.9029 13.5101 14.905 13.5101 14.003H16.83V15.4C17.1316 14.8798 17.5702 14.4513 18.0987 14.1606C18.6271 13.8698 19.2254 13.7279 19.829 13.75C22.0423 13.75 23.6469 15.169 23.6469 18.216V23.9139Z" fill="#E7E7E7"/>
</svg>
