<svg width="84" height="84" viewBox="0 0 84 84" fill="none" xmlns="http://www.w3.org/2000/svg">
<path d="M14 0C6.29133 0 0 6.29133 0 14V70C0 77.7087 6.29133 84 14 84H70C77.7087 84 84 77.7087 84 70V14C84 6.29133 77.7087 0 70 0H14ZM14 4H70C75.5473 4 80 8.45267 80 14V70C80 75.5473 75.5473 80 70 80H14C8.45267 80 4 75.5473 4 70V14C4 8.45267 8.45267 4 14 4ZM18.1719 18L36.6172 44.207L18 66H23L38.875 47.4141L51.9531 66H67.8281L47.5781 37.2266L64 18H59L45.3203 34.0195L34.0469 18H18.1719ZM25.8281 22H31.957L60.1719 62H54.043L25.8281 22Z" fill="white"/>
</svg>
