<svg width="18" height="15" viewBox="0 0 18 15" fill="none" xmlns="http://www.w3.org/2000/svg">
<path d="M17.2202 2.21339C16.584 2.49481 15.9093 2.67962 15.2185 2.76173C15.9467 2.32626 16.4916 1.64091 16.7519 0.833394C16.0685 1.24006 15.3194 1.52506 14.5385 1.67923C14.014 1.11804 13.3188 0.745864 12.561 0.620548C11.8032 0.495233 11.0252 0.623803 10.3479 0.986272C9.6707 1.34874 9.1322 1.9248 8.81614 2.62489C8.50008 3.32498 8.42417 4.10988 8.60021 4.85756C7.21447 4.78811 5.85882 4.428 4.62128 3.80061C3.38374 3.17323 2.29198 2.2926 1.41688 1.21589C1.10712 1.74794 0.944338 2.35275 0.945208 2.96839C0.945208 4.17673 1.56021 5.24423 2.49521 5.86923C1.94188 5.85181 1.40074 5.70238 0.916875 5.43339V5.47673C0.917042 6.28148 1.19552 7.06141 1.70508 7.68428C2.21465 8.30715 2.92394 8.73462 3.71271 8.89423C3.19905 9.03343 2.66046 9.05394 2.13771 8.95423C2.3601 9.64692 2.79355 10.2527 3.37737 10.6868C3.96119 11.1209 4.66615 11.3616 5.39354 11.3751C4.67061 11.9428 3.84286 12.3625 2.95761 12.6102C2.07236 12.8579 1.14698 12.9286 0.234375 12.8184C1.82746 13.8429 3.68196 14.3868 5.57604 14.3851C11.9869 14.3851 15.4927 9.07423 15.4927 4.46839C15.4927 4.31839 15.4885 4.16673 15.4819 4.01839C16.1643 3.5252 16.7532 2.91424 17.221 2.21423L17.2202 2.21339Z" fill="#E7E7E7"/>
</svg>
