<svg width="32" height="33" viewBox="0 0 32 33" fill="none" xmlns="http://www.w3.org/2000/svg">
<path d="M29.2259 9.32667C29.0906 9.00087 28.8317 8.74197 28.5059 8.60667C28.3456 8.53835 28.1735 8.50211 27.9993 8.5H21.3326C20.979 8.5 20.6398 8.64048 20.3898 8.89052C20.1397 9.14057 19.9993 9.47971 19.9993 9.83333C19.9993 10.187 20.1397 10.5261 20.3898 10.7761C20.6398 11.0262 20.979 11.1667 21.3326 11.1667H24.7859L17.3326 18.62L12.9459 14.22C12.822 14.095 12.6745 13.9958 12.512 13.9281C12.3496 13.8605 12.1753 13.8256 11.9993 13.8256C11.8233 13.8256 11.649 13.8605 11.4865 13.9281C11.324 13.9958 11.1766 14.095 11.0526 14.22L3.0526 22.22C2.92763 22.344 2.82844 22.4914 2.76075 22.6539C2.69305 22.8164 2.6582 22.9907 2.6582 23.1667C2.6582 23.3427 2.69305 23.517 2.76075 23.6794C2.82844 23.8419 2.92763 23.9894 3.0526 24.1133C3.17655 24.2383 3.32402 24.3375 3.4865 24.4052C3.64898 24.4729 3.82325 24.5077 3.99927 24.5077C4.17528 24.5077 4.34956 24.4729 4.51204 24.4052C4.67452 24.3375 4.82198 24.2383 4.94593 24.1133L11.9993 17.0467L16.3859 21.4467C16.5099 21.5716 16.6574 21.6708 16.8198 21.7385C16.9823 21.8062 17.1566 21.8411 17.3326 21.8411C17.5086 21.8411 17.6829 21.8062 17.8454 21.7385C18.0078 21.6708 18.1553 21.5716 18.2793 21.4467L26.6659 13.0467V16.5C26.6659 16.8536 26.8064 17.1928 27.0565 17.4428C27.3065 17.6929 27.6456 17.8333 27.9993 17.8333C28.3529 17.8333 28.692 17.6929 28.9421 17.4428C29.1921 17.1928 29.3326 16.8536 29.3326 16.5V9.83333C29.3305 9.6591 29.2943 9.48696 29.2259 9.32667Z" fill="#D6CAB6"/>
</svg>
