<svg width="26" height="27" viewBox="0 0 26 27" fill="none" xmlns="http://www.w3.org/2000/svg">
<path d="M25.2071 19.3739C25.5976 18.9833 25.5976 18.3502 25.2071 17.9596L18.8431 11.5957C18.4526 11.2052 17.8195 11.2052 17.4289 11.5957C17.0384 11.9862 17.0384 12.6194 17.4289 13.0099L23.0858 18.6667L17.4289 24.3236C17.0384 24.7141 17.0384 25.3473 17.4289 25.7378C17.8195 26.1283 18.4526 26.1283 18.8431 25.7378L25.2071 19.3739ZM0.5 0.666748V14.6667H2.5V0.666748H0.5ZM5.5 19.6667H24.5V17.6667H5.5V19.6667ZM0.5 14.6667C0.5 17.4282 2.73858 19.6667 5.5 19.6667V17.6667C3.84315 17.6667 2.5 16.3236 2.5 14.6667H0.5Z" fill="#E7E7E7"/>
</svg>
