<svg width="97" height="16" viewBox="0 0 97 16" fill="none" xmlns="http://www.w3.org/2000/svg">
<path d="M9.11772 7.04124V7.2012L9.13105 12.0133H7.90469L7.79805 10.7736C7.79805 10.7736 7.14488 12.1066 5.01208 12.1066C2.30609 12.1066 0.69316 10.3871 0.69316 7.14788C0.69316 4.2686 2.50604 2.56236 4.9321 2.5357C8.25127 2.50904 8.77114 4.96176 8.77114 4.96176L7.31817 5.2017C7.31817 5.2017 7.10489 3.78872 5.02541 3.81538C3.17254 3.84204 2.18612 5.14838 2.21278 7.21453C2.2661 9.61393 3.31917 10.8136 5.17204 10.787C7.57144 10.7736 7.77139 9.21403 7.77139 9.21403L7.75806 8.25427H5.50529L5.49196 7.04124H9.11772ZM13.1471 5.17504C15.7465 5.08173 16.253 7.12122 16.253 8.4009C16.253 8.61418 16.2397 8.81413 16.2264 9.00075V9.01408L11.7875 9.02741C11.7875 9.02741 11.7875 10.827 13.2538 10.9203C14.4268 10.9869 14.7867 10.1471 14.7867 10.1471L16.1464 10.5204C16.1464 10.5204 15.5065 12.1466 13.3871 12.1333C12.0007 12.1333 11.1876 11.4935 10.6811 10.467C9.89461 8.86745 10.0946 5.28168 13.1471 5.17504ZM11.7875 7.96101H14.7334C14.7334 7.96101 14.7201 6.30809 13.2538 6.30809C11.8941 6.29476 11.7875 7.96101 11.7875 7.96101ZM19.2662 8.86745C19.2662 9.62726 19.2662 10.2138 19.2929 10.3338C19.3995 11.1469 20.6659 10.7736 20.6659 10.7736L20.9458 12.0267C17.7333 12.5999 17.8532 10.9336 17.8532 9.78722C17.8532 9.77389 17.8532 9.76056 17.8532 9.74723V7.02791L17.8666 6.44139L16.8402 6.45472V5.30834L17.8666 5.32167L17.8532 4.5352V3.12222L19.2796 2.73565L19.2662 4.58852L19.2529 5.30834L19.9594 5.29501L20.7858 5.30834V6.45472H20.026L19.2529 6.44139L19.2662 7.0679V8.86745ZM25.752 12.0133V5.26835H27.1916L27.165 12.0133H25.752ZM27.1916 4.18862H25.752V2.74898H27.1916V4.18862ZM34.3351 6.74798C34.4817 7.25452 34.5217 8.2676 34.5217 9.0674V12.04H33.0687L33.042 8.32092C33.042 7.01458 32.6288 6.25477 31.5624 6.30809C30.9626 6.33475 30.3094 6.73465 30.1361 7.36116C30.0428 7.66775 30.0161 8.04099 30.0161 8.48088V12.04L28.5898 12.0267V5.29501H29.9628V6.2681C29.9628 6.2681 30.416 5.22836 32.029 5.18837C33.082 5.16171 34.0018 5.65492 34.3351 6.74798ZM41.7606 8.86745C41.7606 9.62726 41.7606 10.2138 41.7873 10.3338C41.8939 11.1469 43.1602 10.7736 43.1602 10.7736L43.4402 12.0267C40.2276 12.5999 40.3476 10.9336 40.3476 9.78722C40.3476 9.77389 40.3476 9.76056 40.3476 9.74723V7.02791L40.3609 6.44139L39.3345 6.45472V5.30834L40.3609 5.32167L40.3476 4.5352V3.12222L41.7739 2.73565L41.7606 4.58852L41.7473 5.30834L42.4538 5.29501L43.2802 5.30834V6.45472H42.5204L41.7473 6.44139L41.7606 7.0679V8.86745ZM47.3261 5.18837C49.4722 5.17504 50.5786 6.58802 50.5786 8.65417C50.5786 10.4137 49.6455 12.1466 47.3261 12.16C45.14 12.16 44.0736 10.667 44.0736 8.74748C44.0736 6.54803 45.1 5.18837 47.3261 5.18837ZM47.3261 10.9869C48.4858 10.9869 49.0723 10.0805 49.059 8.45422C49.059 6.97459 48.2992 6.29476 47.3261 6.29476C46.3663 6.29476 45.5799 7.12122 45.5799 8.46755C45.5932 10.1338 46.193 10.9869 47.3261 10.9869ZM57.4419 5.26835V12H56.1089V11.0269C56.1089 11.0269 55.669 12.08 54.0961 12.12C53.0696 12.1466 52.1765 11.6534 51.8566 10.5604C51.71 10.0538 51.67 9.02741 51.67 8.24094V5.26835H53.083L53.1096 8.97409C53.1096 10.2938 53.5229 11.0536 54.5626 11.0002C55.1358 10.9736 55.7623 10.5604 55.9489 9.94718C56.0289 9.64059 56.0556 9.25402 56.0556 8.82746V5.26835H57.4419ZM61.6017 10.8936C62.7614 10.9869 63.0813 9.98717 63.0813 9.98717L64.481 10.3071C64.481 10.3071 63.9877 12.0933 61.7616 12.0933C59.9088 12.0933 58.6291 10.9469 58.6158 8.49421C58.6024 6.41473 59.7621 5.12172 61.7616 5.12172C63.8678 5.12172 64.401 6.86795 64.401 6.86795L63.0013 7.22786C63.0013 7.22786 62.7747 6.21478 61.6417 6.28143C60.6686 6.33475 60.1087 7.14788 60.0687 8.52087C60.0687 10.1071 60.7219 10.827 61.6017 10.8936ZM71.3831 6.74798C71.5297 7.25452 71.5697 8.2676 71.5697 9.0674V12.04H70.1167L70.0901 8.32092C70.0901 7.01458 69.6768 6.25477 68.6104 6.30809C68.0106 6.33475 67.3574 6.73465 67.1841 7.36116C67.0908 7.66775 67.0642 8.04099 67.0642 8.48088V12.04L65.6379 12.0267V2.77564H67.0108V6.2681C67.0108 6.2681 67.4641 5.22836 69.077 5.17504C70.1301 5.16171 71.0498 5.65492 71.3831 6.74798Z" fill="white"/>
<path d="M95.612 4.41333C95.5443 4.25043 95.4149 4.12098 95.252 4.05333C95.1718 4.01917 95.0858 4.00105 94.9987 4H91.6653C91.4885 4 91.3189 4.07024 91.1939 4.19526C91.0689 4.32029 90.9987 4.48986 90.9987 4.66667C90.9987 4.84348 91.0689 5.01305 91.1939 5.13807C91.3189 5.2631 91.4885 5.33333 91.6653 5.33333H93.392L89.6653 9.06L87.472 6.86C87.41 6.79751 87.3363 6.74792 87.255 6.71407C87.1738 6.68023 87.0867 6.6628 86.9987 6.6628C86.9106 6.6628 86.8235 6.68023 86.7423 6.71407C86.661 6.74792 86.5873 6.79751 86.5253 6.86L82.5253 10.86C82.4628 10.922 82.4132 10.9957 82.3794 11.0769C82.3456 11.1582 82.3281 11.2453 82.3281 11.3333C82.3281 11.4213 82.3456 11.5085 82.3794 11.5897C82.4132 11.671 82.4628 11.7447 82.5253 11.8067C82.5873 11.8692 82.661 11.9187 82.7423 11.9526C82.8235 11.9864 82.9106 12.0039 82.9987 12.0039C83.0867 12.0039 83.1738 11.9864 83.255 11.9526C83.3363 11.9187 83.41 11.8692 83.472 11.8067L86.9987 8.27333L89.192 10.4733C89.254 10.5358 89.3277 10.5854 89.4089 10.6193C89.4902 10.6531 89.5773 10.6705 89.6653 10.6705C89.7533 10.6705 89.8405 10.6531 89.9217 10.6193C90.0029 10.5854 90.0767 10.5358 90.1387 10.4733L94.332 6.27333V8C94.332 8.17681 94.4022 8.34638 94.5273 8.4714C94.6523 8.59643 94.8218 8.66667 94.9987 8.66667C95.1755 8.66667 95.345 8.59643 95.4701 8.4714C95.5951 8.34638 95.6653 8.17681 95.6653 8V4.66667C95.6643 4.57955 95.6462 4.49348 95.612 4.41333V4.41333Z" fill="#E7E7E7"/>
</svg>
