<svg width="640" height="480" viewBox="0 0 640 480" fill="none" xmlns="http://www.w3.org/2000/svg">
<g clip-path="url(#clip0_874_610)">
<path d="M0 0H640V160H0V0Z" fill="#FF9933"/>
<path d="M0 160H640V320H0V160Z" fill="white"/>
<path d="M0 320H640V480H0V320Z" fill="#128807"/>
<path d="M320 304C355.346 304 384 275.346 384 240C384 204.654 355.346 176 320 176C284.654 176 256 204.654 256 240C256 275.346 284.654 304 320 304Z" fill="#000088"/>
<path d="M320 296C350.928 296 376 270.928 376 240C376 209.072 350.928 184 320 184C289.072 184 264 209.072 264 240C264 270.928 289.072 296 320 296Z" fill="white"/>
<path d="M320.001 251.2C326.186 251.2 331.201 246.186 331.201 240C331.201 233.814 326.186 228.8 320.001 228.8C313.815 228.8 308.801 233.814 308.801 240C308.801 246.186 313.815 251.2 320.001 251.2Z" fill="#000088"/>
<path d="M375.154 250.086C376.688 250.287 378.094 249.208 378.296 247.675C378.498 246.142 377.419 244.735 375.885 244.533C374.352 244.332 372.946 245.411 372.744 246.944C372.542 248.477 373.621 249.884 375.154 250.086Z" fill="#000088"/>
<path d="M319.998 296L321.918 262.4L319.998 246.4L318.078 262.4L319.998 296Z" fill="#000088"/>
<path d="M370.663 264.017C372.091 264.609 373.729 263.931 374.321 262.502C374.913 261.073 374.234 259.435 372.806 258.843C371.377 258.252 369.739 258.93 369.147 260.359C368.555 261.788 369.234 263.425 370.663 264.017Z" fill="#000088"/>
<path d="M305.502 294.092L316.052 262.134L318.339 246.182L312.343 261.14L305.502 294.092Z" fill="#000088"/>
<path d="M362.719 276.312C363.945 277.254 365.703 277.022 366.644 275.795C367.586 274.569 367.354 272.811 366.128 271.87C364.901 270.928 363.143 271.16 362.202 272.386C361.26 273.613 361.492 275.371 362.719 276.312Z" fill="#000088"/>
<path d="M291.996 288.498L310.458 260.359L316.796 245.543L307.133 258.439L291.996 288.498Z" fill="#000088"/>
<path d="M351.867 286.133C352.809 287.359 354.566 287.591 355.793 286.65C357.02 285.708 357.251 283.95 356.31 282.724C355.369 281.497 353.611 281.265 352.384 282.207C351.157 283.148 350.926 284.906 351.867 286.133Z" fill="#000088"/>
<path d="M280.398 279.598L305.515 257.197L315.471 244.526L302.8 254.482L280.398 279.598Z" fill="#000088"/>
<path d="M338.839 292.809C339.431 294.238 341.069 294.916 342.498 294.325C343.926 293.733 344.605 292.095 344.013 290.666C343.421 289.238 341.783 288.559 340.355 289.151C338.926 289.743 338.247 291.381 338.839 292.809Z" fill="#000088"/>
<path d="M271.497 268L301.556 252.863L314.452 243.2L299.636 249.537L271.497 268Z" fill="#000088"/>
<path d="M324.528 295.887C324.73 297.42 326.137 298.499 327.67 298.297C329.203 298.096 330.282 296.689 330.08 295.156C329.878 293.623 328.472 292.544 326.939 292.745C325.406 292.947 324.326 294.354 324.528 295.887Z" fill="#000088"/>
<path d="M265.903 254.494L298.855 247.652L313.813 241.657L297.862 243.943L265.903 254.494Z" fill="#000088"/>
<path d="M309.911 295.156C309.709 296.689 310.788 298.096 312.321 298.297C313.854 298.499 315.261 297.42 315.463 295.887C315.664 294.354 314.585 292.947 313.052 292.745C311.519 292.544 310.112 293.623 309.911 295.156Z" fill="#000088"/>
<path d="M263.998 240L297.598 241.92L313.598 240L297.598 238.08L263.998 240Z" fill="#000088"/>
<path d="M295.981 290.666C295.39 292.095 296.068 293.733 297.497 294.324C298.925 294.916 300.563 294.238 301.155 292.809C301.747 291.38 301.068 289.742 299.64 289.151C298.211 288.559 296.573 289.237 295.981 290.666Z" fill="#000088"/>
<path d="M265.906 225.506L297.864 236.057L313.816 238.344L298.858 232.348L265.906 225.506Z" fill="#000088"/>
<path d="M283.693 282.724C282.751 283.951 282.983 285.708 284.209 286.65C285.436 287.591 287.194 287.36 288.135 286.133C289.077 284.906 288.845 283.148 287.618 282.207C286.392 281.265 284.634 281.497 283.693 282.724Z" fill="#000088"/>
<path d="M271.507 212L299.645 230.463L314.462 236.8L301.565 227.137L271.507 212Z" fill="#000088"/>
<path d="M273.87 271.87C272.643 272.811 272.411 274.569 273.353 275.796C274.294 277.022 276.052 277.254 277.279 276.312C278.505 275.371 278.737 273.613 277.795 272.387C276.854 271.16 275.096 270.928 273.87 271.87Z" fill="#000088"/>
<path d="M280.406 200.402L302.807 225.519L315.478 235.475L305.522 222.803L280.406 200.402Z" fill="#000088"/>
<path d="M267.192 258.844C265.763 259.435 265.085 261.073 265.677 262.502C266.268 263.931 267.906 264.609 269.335 264.017C270.764 263.426 271.442 261.788 270.85 260.359C270.259 258.93 268.621 258.252 267.192 258.844Z" fill="#000088"/>
<path d="M291.998 191.502L307.135 221.561L316.798 234.457L310.461 219.641L291.998 191.502Z" fill="#000088"/>
<path d="M264.114 244.533C262.581 244.735 261.502 246.142 261.704 247.675C261.905 249.208 263.312 250.287 264.845 250.085C266.378 249.884 267.457 248.477 267.256 246.944C267.054 245.411 265.647 244.332 264.114 244.533Z" fill="#000088"/>
<path d="M305.507 185.908L312.349 218.86L318.345 233.818L316.058 217.866L305.507 185.908Z" fill="#000088"/>
<path d="M264.846 229.914C263.312 229.713 261.906 230.792 261.704 232.325C261.502 233.858 262.581 235.265 264.115 235.467C265.648 235.668 267.054 234.589 267.256 233.056C267.458 231.523 266.379 230.116 264.846 229.914Z" fill="#000088"/>
<path d="M320.002 184L318.082 217.6L320.002 233.6L321.922 217.6L320.002 184Z" fill="#000088"/>
<path d="M269.337 215.983C267.909 215.391 266.271 216.069 265.679 217.498C265.087 218.927 265.766 220.565 267.194 221.157C268.623 221.748 270.261 221.07 270.853 219.641C271.445 218.212 270.766 216.575 269.337 215.983Z" fill="#000088"/>
<path d="M334.498 185.908L323.948 217.866L321.661 233.818L327.657 218.86L334.498 185.908Z" fill="#000088"/>
<path d="M277.281 203.688C276.055 202.746 274.297 202.978 273.356 204.205C272.414 205.431 272.646 207.189 273.872 208.13C275.099 209.072 276.857 208.84 277.798 207.614C278.74 206.387 278.508 204.629 277.281 203.688Z" fill="#000088"/>
<path d="M348.004 191.502L329.542 219.641L323.204 234.457L332.867 221.561L348.004 191.502Z" fill="#000088"/>
<path d="M288.133 193.867C287.191 192.641 285.434 192.409 284.207 193.35C282.98 194.292 282.749 196.05 283.69 197.276C284.631 198.503 286.389 198.735 287.616 197.793C288.843 196.852 289.074 195.094 288.133 193.867Z" fill="#000088"/>
<path d="M359.602 200.402L334.485 222.803L324.529 235.474L337.2 225.518L359.602 200.402Z" fill="#000088"/>
<path d="M301.161 187.191C300.569 185.762 298.931 185.084 297.502 185.676C296.074 186.267 295.395 187.905 295.987 189.334C296.579 190.763 298.217 191.441 299.645 190.849C301.074 190.258 301.753 188.62 301.161 187.191Z" fill="#000088"/>
<path d="M368.503 212L338.444 227.137L325.548 236.8L340.364 230.463L368.503 212Z" fill="#000088"/>
<path d="M315.472 184.113C315.27 182.58 313.863 181.501 312.33 181.703C310.797 181.905 309.718 183.311 309.92 184.844C310.122 186.377 311.528 187.457 313.061 187.255C314.594 187.053 315.674 185.647 315.472 184.113Z" fill="#000088"/>
<path d="M374.097 225.506L341.145 232.348L326.187 238.344L342.138 236.057L374.097 225.506Z" fill="#000088"/>
<path d="M330.089 184.844C330.291 183.311 329.212 181.905 327.679 181.703C326.146 181.501 324.739 182.58 324.537 184.113C324.336 185.647 325.415 187.053 326.948 187.255C328.481 187.457 329.888 186.377 330.089 184.844Z" fill="#000088"/>
<path d="M376.002 240L342.402 238.08L326.402 240L342.402 241.92L376.002 240Z" fill="#000088"/>
<path d="M344.019 189.334C344.61 187.906 343.932 186.268 342.503 185.676C341.075 185.084 339.437 185.763 338.845 187.191C338.253 188.62 338.932 190.258 340.36 190.85C341.789 191.441 343.427 190.763 344.019 189.334Z" fill="#000088"/>
<path d="M374.094 254.494L342.136 243.943L326.184 241.657L341.142 247.652L374.094 254.494Z" fill="#000088"/>
<path d="M356.311 197.277C357.253 196.05 357.021 194.292 355.795 193.351C354.568 192.409 352.81 192.641 351.869 193.867C350.927 195.094 351.159 196.852 352.385 197.793C353.612 198.735 355.37 198.503 356.311 197.277Z" fill="#000088"/>
<path d="M368.497 268L340.358 249.537L325.542 243.2L338.438 252.863L368.497 268Z" fill="#000088"/>
<path d="M366.134 208.131C367.361 207.189 367.593 205.431 366.651 204.205C365.71 202.978 363.952 202.746 362.725 203.688C361.498 204.629 361.267 206.387 362.208 207.614C363.15 208.841 364.908 209.072 366.134 208.131Z" fill="#000088"/>
<path d="M359.598 279.598L337.197 254.482L324.526 244.526L334.482 257.197L359.598 279.598Z" fill="#000088"/>
<path d="M372.812 221.157C374.241 220.565 374.919 218.927 374.327 217.498C373.735 216.07 372.098 215.391 370.669 215.983C369.24 216.575 368.562 218.213 369.154 219.641C369.745 221.07 371.383 221.748 372.812 221.157Z" fill="#000088"/>
<path d="M348.006 288.498L332.869 258.439L323.206 245.543L329.543 260.359L348.006 288.498Z" fill="#000088"/>
<path d="M375.89 235.467C377.423 235.265 378.502 233.859 378.3 232.325C378.099 230.792 376.692 229.713 375.159 229.915C373.626 230.117 372.546 231.523 372.748 233.056C372.95 234.589 374.357 235.669 375.89 235.467Z" fill="#000088"/>
<path d="M334.497 294.092L327.655 261.14L321.659 246.182L323.946 262.134L334.497 294.092Z" fill="#000088"/>
</g>
<defs>
<clipPath id="clip0_874_610">
<rect width="640" height="480" rx="2" fill="white"/>
</clipPath>
</defs>
</svg>
