<svg width="82" height="13" viewBox="0 0 82 13" fill="none" xmlns="http://www.w3.org/2000/svg">
<path d="M3.05231 9.34L8.02831 9.372V11.516H2.07631H0.652313V0.363999H3.05231V9.34ZM11.5806 9.548H17.1166L17.1006 11.5L9.30856 11.516V0.363999H17.1006V2.428L11.5646 2.444V4.796H15.7886L15.7726 6.732L11.5646 6.748L11.5806 9.548ZM27.0694 0.332V2.236H23.7734L23.7894 11.5H21.5974V2.252L18.3334 2.236V0.332H27.0694ZM28.4804 0.427999H30.7684V2.748L30.1124 5.052H29.1364V2.748H28.4804V0.427999ZM38.0652 5.228C39.3932 5.628 40.7052 6.492 40.7372 8.38C40.8012 11.964 35.2492 12.492 33.2812 10.572C32.3212 9.644 32.0332 8.652 32.0332 8.652L34.2572 8.012C34.2572 8.012 34.5932 9.468 36.0652 9.66C37.5052 9.852 38.2732 9.356 38.4012 8.748C38.5612 7.9 38.0492 7.26 36.6412 6.94C35.1692 6.588 32.9292 6.156 32.4332 4.54C31.6652 2.076 33.4412 0.0599995 36.2892 0.0599995C38.9932 0.0599995 40.1452 1.74 40.4652 2.732L38.3212 3.34C38.3212 3.34 38.3212 3.02 37.9212 2.588C37.3292 1.932 36.0652 1.884 35.3772 2.204C34.5612 2.572 34.3372 3.308 34.7852 4.012C35.1212 4.588 36.4652 4.748 38.0652 5.228ZM54.4757 0.332V2.236H51.1797L51.1957 11.5H49.0037V2.252L45.7397 2.236V0.332H54.4757ZM59.1299 0.332L63.3379 11.516H60.8259L59.9939 9.26H56.2179L55.4019 11.5L53.0179 11.516L57.2899 0.332H59.1299ZM57.0339 7.196H59.2579L58.1379 3.788L57.0339 7.196ZM67.0211 9.34L71.9971 9.372V11.516H66.0451H64.6211V0.363999H67.0211V9.34ZM77.5173 5.932L81.8853 11.516L78.9893 11.5L75.5333 6.684V11.5L73.2773 11.516V0.363999H75.5333V5.196L78.7493 0.363999L81.4053 0.379999L77.5173 5.932Z" fill="#22FFFF"/>
</svg>
