<svg width="1440" height="895" viewBox="0 0 1440 895" fill="none" xmlns="http://www.w3.org/2000/svg">
<path d="M0.5 0.5H1439.5V367C1439.5 491.465 1439.5 584.763 1429.84 656.613C1420.18 728.449 1400.88 778.769 1362.32 817.323C1323.77 855.876 1273.45 875.181 1201.61 884.839C1129.76 894.499 1036.46 894.5 912 894.5H528C403.535 894.5 310.237 894.499 238.387 884.839C166.551 875.181 116.231 855.876 77.6774 817.323C39.1238 778.769 19.819 728.449 10.161 656.613C0.501062 584.763 0.5 491.465 0.5 367V0.5Z" fill="url(#paint0_linear_77_12371)" stroke="black"/>
<defs>
<linearGradient id="paint0_linear_77_12371" x1="720" y1="284.66" x2="786.819" y2="1097.2" gradientUnits="userSpaceOnUse">
<stop stop-color="#E7E7E7"/>
<stop offset="1" stop-color="#454545" stop-opacity="0"/>
</linearGradient>
</defs>
</svg>
