<svg width="169" height="23" viewBox="0 0 169 23" fill="none" xmlns="http://www.w3.org/2000/svg">
<path d="M4.016 19.16H10.16C14.544 19.16 17.456 16.248 17.456 11.736C17.456 7.352 14.544 4.44 10.16 4.44H4.016V19.16ZM0.176 20.44V3.16C0.176 1.624 1.2 0.599998 2.736 0.599998H10.32C16.912 0.599998 21.296 4.984 21.296 12.024C21.296 18.616 16.912 23 10.32 23H2.736C1.2 23 0.176 21.976 0.176 20.44ZM28.6113 23H24.7713V0.599998H28.6113V23ZM54.587 12.6V16.12C54.587 20.792 51.067 23 45.243 23H42.427C35.771 23 32.187 18.552 32.187 11.896V11.704C32.187 5.048 35.771 0.599998 42.427 0.599998H44.923C50.747 0.599998 54.267 2.808 54.267 7.48V7.96H50.427V7.928C50.427 5.304 48.571 4.44 45.115 4.44H42.139C37.755 4.44 36.027 7.352 36.027 11.864C36.027 16.248 37.755 19.16 42.139 19.16H45.435C48.923 19.16 50.747 18.36 50.747 15.672V13.56H42.747V10.04H52.027C53.563 10.04 54.587 11.064 54.587 12.6ZM62.2988 23H58.4588V0.599998H62.2988V23ZM64.8185 0.599998H86.2585V4.12H77.4585V23H73.6185V4.12H64.8185V0.599998ZM86.687 11.704C86.687 5.048 90.271 0.599998 96.927 0.599998H99.423C105.247 0.599998 108.767 2.808 108.767 7.48V7.96H104.927V7.928C104.927 5.304 103.071 4.44 99.615 4.44H96.639C92.255 4.44 90.527 7.352 90.527 11.864C90.527 16.248 92.255 19.16 96.639 19.16H99.615C103.103 19.16 104.927 18.36 104.927 15.672V15.64H108.767V16.12C108.767 20.792 105.247 23 99.423 23H96.927C90.271 23 86.687 18.552 86.687 11.896V11.704ZM112.333 23V3.16C112.333 1.624 113.357 0.599998 114.893 0.599998H126.733C131.565 0.599998 134.733 3.224 134.733 7.096C134.733 10.424 132.461 12.76 128.813 13.4L134.733 23H130.221L124.397 13.56H116.173V23H112.333ZM126.381 4.12H116.173V10.04H126.381C129.069 10.04 130.893 8.92 130.893 7.16C130.893 5.4 129.101 4.12 126.381 4.12ZM141.986 23H138.146V0.599998H141.986V23ZM148.986 23C147.45 23 146.426 21.976 146.426 20.44V3.16C146.426 1.624 147.45 0.599998 148.986 0.599998H159.226C164.058 0.599998 167.226 3.16 167.226 7.032C167.226 8.664 166.682 10.072 165.69 11.16C167.674 12.28 168.826 14.136 168.826 16.472C168.826 20.376 165.658 23 160.826 23H148.986ZM160.474 13.56H150.266V19.48H160.474C163.194 19.48 164.986 18.2 164.986 16.44C164.986 14.68 163.162 13.56 160.474 13.56ZM150.266 4.12V10.04H158.874C161.626 10.04 163.386 8.888 163.386 7C163.386 5.08 161.562 4.12 158.874 4.12H150.266Z" fill="black"/>
</svg>
