<svg width="26" height="25" viewBox="0 0 26 25" fill="none" xmlns="http://www.w3.org/2000/svg">
<path d="M23.4598 6.14973C22.3596 4.29679 20.7914 2.75 18.9171 1.67112C17.0695 0.608289 14.9224 0 12.6336 0H6.0414C3.03739 0 0.601562 2.43583 0.601562 5.43984V9.94652C1.58418 7.71123 3.81814 6.14973 6.41707 6.14973H12.7005C16.1336 6.14973 18.9171 8.99332 18.9171 12.5C18.9171 15.8035 16.4465 18.5187 13.2901 18.8209L11.7473 15.9545C10.6136 17.6979 8.64969 18.8503 6.41707 18.8503C3.81814 18.8503 1.58418 17.2888 0.601562 15.0535V19.5602C0.601562 22.5642 3.03739 25 6.0414 25H12.6336C13.9171 25 15.155 24.8088 16.3208 24.4532C17.2353 24.1751 18.1056 23.7955 18.9171 23.3289C20.7914 22.25 22.3596 20.7032 23.4598 18.8503C24.5655 16.9893 25.2005 14.8182 25.2005 12.5C25.2005 10.1818 24.5655 8.0107 23.4598 6.14973Z" fill="#111212"/>
<path d="M7.7914 8.63631C7.7914 8.63631 6.81547 6.81278 6.48392 6.20716C6.48124 6.20048 6.47055 6.1831 6.47055 6.1831C6.45317 6.18176 6.43445 6.18176 6.41707 6.18176C3.81814 6.18176 1.58418 7.74326 0.601562 9.97855V15.0855C1.58418 17.3221 3.81814 18.8823 6.41707 18.8823C8.64969 18.8823 10.6149 17.7299 11.7473 15.9866L7.7914 8.63631Z" fill="url(#paint0_linear_906_546)"/>
<defs>
<linearGradient id="paint0_linear_906_546" x1="3.40234" y1="11.5" x2="2.40234" y2="7" gradientUnits="userSpaceOnUse">
<stop stop-color="#111212"/>
<stop offset="0.645833" stop-color="#111212" stop-opacity="0.855064"/>
<stop offset="0.8125" stop-color="#111212" stop-opacity="0.81"/>
<stop offset="1" stop-color="#111212" stop-opacity="0.81"/>
</linearGradient>
</defs>
</svg>
