<svg width="132" height="21" viewBox="0 0 132 21" fill="none" xmlns="http://www.w3.org/2000/svg">
<path d="M20.4433 5.16578C19.4592 3.60931 18.0567 2.31 16.3804 1.40374C14.728 0.510963 12.8078 0 10.7609 0H4.86511C2.17848 0 0 2.0461 0 4.56947V8.35508C0.878804 6.47743 2.87674 5.16578 5.20109 5.16578H10.8207C13.8911 5.16578 16.3804 7.55439 16.3804 10.5C16.3804 13.2749 14.1709 15.5557 11.3479 15.8095L9.96815 13.4018C8.95424 14.8662 7.19783 15.8342 5.20109 15.8342C2.87674 15.8342 0.878804 14.5226 0 12.6449V16.4305C0 18.9539 2.17848 21 4.86511 21H10.7609C11.9087 21 13.0159 20.8394 14.0585 20.5407C14.8763 20.3071 15.6547 19.9882 16.3804 19.5963C18.0567 18.69 19.4592 17.3907 20.4433 15.8342C21.4321 14.271 22 12.4473 22 10.5C22 8.55273 21.4321 6.72898 20.4433 5.16578Z" fill="#3B3B3B"/>
<path d="M6.43021 7.25445C6.43021 7.25445 5.55739 5.72268 5.26087 5.21396C5.25848 5.20835 5.24892 5.19375 5.24892 5.19375C5.23337 5.19263 5.21663 5.19263 5.20109 5.19263C2.87674 5.19263 0.878804 6.50428 0 8.38193V12.6718C0.878804 14.5505 2.87674 15.8611 5.20109 15.8611C7.19783 15.8611 8.95543 14.8931 9.96815 13.4287L6.43021 7.25445Z" fill="url(#paint0_linear_866_537)"/>
<path d="M30.752 16V5.328H38.448C41.168 5.328 41.536 5.344 42.448 5.536C43.504 5.744 44.208 6.352 44.528 7.344C44.768 8.096 44.832 8.768 44.832 10.512C44.832 13.296 44.592 14.384 43.808 15.104C42.992 15.84 42.048 16 38.448 16H30.752ZM33.952 13.28H38.48C41.424 13.28 41.632 13.12 41.632 10.704C41.632 9.392 41.52 8.8 41.2 8.448C40.864 8.064 40.432 8 38.448 8H33.952V13.28ZM46.1114 5.328H49.5194V16H46.1114V5.328ZM57.4816 9.952H64.9216V10.24C64.9216 11.296 64.8576 13.12 64.8096 13.632C64.6816 14.88 63.9936 15.616 62.7136 15.872C61.6256 16.096 60.5056 16.16 57.6096 16.16C53.9456 16.16 52.8096 16.016 51.9136 15.408C50.9696 14.784 50.7936 14 50.7936 10.496C50.7936 5.504 51.2576 5.168 58.1696 5.168C62.1376 5.168 63.6096 5.424 64.3136 6.272C64.7616 6.8 64.8896 7.456 64.9056 9.024H61.6576C61.6416 8.4 61.6096 8.272 61.4016 8.128C61.0816 7.904 60.3296 7.84 57.8976 7.84C54.0576 7.84 54.0416 7.856 54.0416 10.624C54.0416 12.432 54.1376 12.976 54.4896 13.264C54.7616 13.488 55.0496 13.536 55.9616 13.568L57.8656 13.6C61.6576 13.6 61.7536 13.568 61.7536 12.384V12.08H57.4816V9.952ZM66.2208 5.328H69.6288V16H66.2208V5.328ZM70.375 5.328H83.287V8.048H78.535V16H75.127V8.048H70.375V5.328ZM94.38 11.888H97.644C97.66 12.496 97.676 12.736 97.676 12.896C97.676 14.624 97.228 15.408 96.044 15.792C95.18 16.064 94.012 16.16 91.644 16.16C87.468 16.16 86.124 16.032 85.26 15.536C84.556 15.136 84.236 14.544 84.108 13.456C84.06 12.976 84.028 12.096 84.028 10.736C84.028 8.352 84.092 7.472 84.332 6.88C84.908 5.44 86.076 5.168 91.66 5.168C94.508 5.168 95.5 5.28 96.236 5.664C97.148 6.128 97.468 6.912 97.468 8.624V9.152H94.22C94.188 8.448 94.156 8.304 93.964 8.144C93.724 7.936 92.78 7.84 90.732 7.84C88.7 7.84 88.108 7.904 87.788 8.16C87.404 8.48 87.276 9.104 87.276 10.72C87.276 13.456 87.324 13.488 90.748 13.488C94.316 13.488 94.364 13.472 94.38 11.888ZM98.7989 16V5.328H106.655C110.335 5.328 110.335 5.328 111.023 5.744C111.839 6.24 112.079 6.944 112.079 8.8C112.079 10.384 111.919 10.992 111.343 11.424C111.039 11.664 110.735 11.776 110.095 11.872C111.743 12.064 112.031 12.544 111.967 15.008V16H108.767V15.44C108.767 14.24 108.703 13.856 108.447 13.584C108.223 13.328 107.983 13.296 106.639 13.296H102.047V16H98.7989ZM102.047 10.624H106.623C108.255 10.592 108.255 10.592 108.479 10.432C108.735 10.272 108.831 9.952 108.831 9.28C108.831 8.56 108.703 8.256 108.367 8.112C108.143 8.016 108.095 8.016 106.623 8H102.047V10.624ZM113.205 5.328H116.613V16H113.205V5.328ZM118.111 16V5.328H125.775C128.303 5.344 128.303 5.344 128.783 5.376C130.527 5.504 131.103 6.176 131.103 8.112C131.103 9.632 130.735 10.256 129.663 10.56C131.071 10.8 131.503 11.424 131.503 13.136C131.503 14.656 131.103 15.44 130.159 15.76C129.551 15.968 129.375 15.984 125.791 16H118.111ZM121.199 9.536H125.775C126.927 9.536 127.391 9.504 127.599 9.408C127.839 9.312 127.951 9.04 127.951 8.656C127.951 8.208 127.807 7.968 127.471 7.888C127.295 7.856 127.247 7.856 125.775 7.84H121.199V9.536ZM121.199 13.44H125.791C127.727 13.424 127.727 13.424 127.967 13.312C128.239 13.2 128.351 12.96 128.351 12.512C128.351 12.016 128.207 11.792 127.839 11.712C127.679 11.68 127.679 11.68 125.791 11.664H121.199V13.44Z" fill="#3B3B3B"/>
<defs>
<linearGradient id="paint0_linear_866_537" x1="5.84674" y1="16.2047" x2="3.37219" y2="5.94324" gradientUnits="userSpaceOnUse">
<stop offset="0.59" stop-color="#3B3B3B"/>
<stop offset="0.72" stop-color="#393939"/>
<stop offset="0.96" stop-color="#2A2A2A"/>
</linearGradient>
</defs>
</svg>
